<svg xmlns="http://www.w3.org/2000/svg" viewBox="0 0 256 256"><title>icons_</title><path d="M239.692,201.179,218.53,180.017a1.78,1.78,0,0,0-3.039,1.259v11.162H114.585v20H215.491V223.6a1.781,1.781,0,0,0,3.039,1.259L239.692,203.7A1.781,1.781,0,0,0,239.692,201.179Z" fill="#cecece"/><path d="M239.692,201.179,218.53,180.017a1.78,1.78,0,0,0-3.039,1.259v5.7l14.2,14.2a1.781,1.781,0,0,1,0,2.518l-14.2,14.2v5.7a1.781,1.781,0,0,0,3.039,1.259L239.692,203.7A1.781,1.781,0,0,0,239.692,201.179Z" fill="#e2e2e2"/><path d="M233.8,117.429l-22.335-6.245A83.005,83.005,0,0,0,200.595,84.59l11.931-19.734a7.316,7.316,0,0,0-1.088-8.958l-5.7-5.7a7.316,7.316,0,0,0-9.435-.773l-17.04,12.212a83.149,83.149,0,0,0-31.654-14.312l-6.245-22.335a7.316,7.316,0,0,0-7.046-5.346h-8.9a7.316,7.316,0,0,0-7.046,5.346L112.13,47.325A83.092,83.092,0,0,0,82.355,60.3L63.3,48.775a7.316,7.316,0,0,0-8.958,1.087l-5.7,5.7A7.316,7.316,0,0,0,47.863,65L60.448,82.558A83.074,83.074,0,0,0,48.27,111.184l-22.335,6.245a7.316,7.316,0,0,0-5.346,7.046v8.9a7.316,7.316,0,0,0,5.346,7.046l22.326,6.242a83.615,83.615,0,0,0,27.472,45.778h-49.6a10.228,10.228,0,0,0-10.321,9.333,10,10,0,0,0,9.978,10.667H129.869a83.72,83.72,0,0,0,81.608-65.778l22.326-6.242a7.316,7.316,0,0,0,5.346-7.046v-8.9A7.316,7.316,0,0,0,233.8,117.429ZM134.02,192.305a63.517,63.517,0,1,1,59.23-59.228A63.58,63.58,0,0,1,134.02,192.305Z" fill="#cecece"/><path d="M233.8,117.429l-22.335-6.245A83.005,83.005,0,0,0,200.595,84.59l11.931-19.733a7.316,7.316,0,0,0-1.088-8.958l-5.7-5.7a7.316,7.316,0,0,0-9.435-.773l-.8.575c.077.071.163.124.237.2l5.7,5.7a7.316,7.316,0,0,1,1.088,8.958L190.595,84.59a83.005,83.005,0,0,1,10.873,26.594l22.335,6.245a7.316,7.316,0,0,1,5.346,7.046v8.9a7.316,7.316,0,0,1-5.346,7.046l-22.326,6.242a83.72,83.72,0,0,1-81.608,65.778h10a83.72,83.72,0,0,0,81.608-65.778l22.326-6.242a7.316,7.316,0,0,0,5.346-7.046v-8.9A7.316,7.316,0,0,0,233.8,117.429Z" fill="#e2e2e2"/><path d="M58.261,146.66l-22.326-6.242a7.316,7.316,0,0,1-5.346-7.046v-8.9a7.316,7.316,0,0,1,5.346-7.046l22.335-6.245A83.074,83.074,0,0,1,70.448,82.558L57.863,65a7.316,7.316,0,0,1,.773-9.435l5.7-5.7c.1-.1.213-.174.316-.267L63.3,48.775a7.316,7.316,0,0,0-8.958,1.087l-5.7,5.7A7.316,7.316,0,0,0,47.863,65L60.448,82.558A83.074,83.074,0,0,0,48.27,111.184l-22.335,6.245a7.316,7.316,0,0,0-5.346,7.046v8.9a7.316,7.316,0,0,0,5.346,7.046l22.326,6.242a83.615,83.615,0,0,0,27.472,45.778h10A83.615,83.615,0,0,1,58.261,146.66Z" fill="#afafaf"/><path d="M25.808,201.772a10.228,10.228,0,0,1,10.321-9.333h-10a10.228,10.228,0,0,0-10.321,9.333,10,10,0,0,0,9.978,10.667h10A10,10,0,0,1,25.808,201.772Z" fill="#afafaf"/><circle cx="129.869" cy="128.924" r="45.015" fill="#63bce7"/><path d="M94.854,128.924a45.016,45.016,0,0,1,40.015-44.732,45.506,45.506,0,0,0-5-.283,45.015,45.015,0,1,0,5,89.747A45.016,45.016,0,0,1,94.854,128.924Z" fill="#6377e7"/><path d="M117.438,149.057a7.1,7.1,0,0,1-5.42-2.506L101.359,134a7.106,7.106,0,0,1,10.833-9.2l6.376,7.51,30.192-22.141a7.106,7.106,0,0,1,8.4,11.461l-35.528,26.054A7.081,7.081,0,0,1,117.438,149.057Z" fill="#f8af23"/><path d="M117.438,150.558a8.594,8.594,0,0,1-6.564-3.036l-10.659-12.554a8.606,8.606,0,0,1,13.121-11.14l5.471,6.444,29.066-21.315a8.606,8.606,0,0,1,10.179,13.881l-35.528,26.054A8.549,8.549,0,0,1,117.438,150.558Zm-10.671-26.766a5.606,5.606,0,0,0-4.264,9.234l10.659,12.554a5.6,5.6,0,0,0,7.588.892l35.528-26.054a5.606,5.606,0,0,0-2.463-10.062,5.555,5.555,0,0,0-4.167,1.021l-30.192,22.142a1.5,1.5,0,0,1-2.031-.239l-6.375-7.51a5.567,5.567,0,0,0-3.817-1.959C107.076,123.8,106.921,123.792,106.767,123.792Z" fill="#3f3679"/><path d="M176.384,128.924a46.515,46.515,0,1,0-46.515,46.516A46.568,46.568,0,0,0,176.384,128.924Zm-46.515,43.516a43.515,43.515,0,1,1,43.515-43.516A43.565,43.565,0,0,1,129.869,172.439Z" fill="#3f3679"/><path d="M27.323,234.856h-18a1.5,1.5,0,1,0,0,3h18a1.5,1.5,0,1,0,0-3Z" fill="#3f3679"/><path d="M246.68,234.856h-18a1.5,1.5,0,0,0,0,3h18a1.5,1.5,0,0,0,0-3Z" fill="#3f3679"/><path d="M218.479,234.856H37.521a1.5,1.5,0,0,0,0,3H218.479a1.5,1.5,0,0,0,0-3Z" fill="#3f3679"/><path d="M9.32,226.884H246.68a1.5,1.5,0,0,0,0-3H221.626l19.126-19.126a3.281,3.281,0,0,0,0-4.64l-21.161-21.161a3.28,3.28,0,0,0-5.6,2.319v9.662H187.917a85.6,85.6,0,0,0,24.829-43.075l21.461-6a8.845,8.845,0,0,0,6.442-8.49v-8.9a8.845,8.845,0,0,0-6.442-8.49l-21.471-6a84.291,84.291,0,0,0-10.382-25.4l11.455-18.946a8.8,8.8,0,0,0-1.311-10.8l-5.7-5.7a8.784,8.784,0,0,0-11.369-.932L179.269,59.787a84.1,84.1,0,0,0-30.458-13.731l-6-21.471a8.846,8.846,0,0,0-8.491-6.441h-8.9a8.846,8.846,0,0,0-8.491,6.441l-6,21.471A84.185,84.185,0,0,0,82.3,58.515L64.072,47.492a8.8,8.8,0,0,0-10.8,1.31l-5.7,5.7a8.785,8.785,0,0,0-.932,11.369L58.627,82.593A84.235,84.235,0,0,0,47,109.98l-21.47,6a8.845,8.845,0,0,0-6.442,8.49v8.9a8.845,8.845,0,0,0,6.442,8.49l21.461,6a85.606,85.606,0,0,0,24.816,43.075H26.129a11.7,11.7,0,0,0-11.818,10.736A11.411,11.411,0,0,0,17.4,210.3a11.543,11.543,0,0,0,8.392,3.637h188.2V223.6c0,.1.013.19.021.284H9.32a1.5,1.5,0,1,0,0,3Zm105.265-15.945h-88.8a8.5,8.5,0,0,1-8.481-9.07,8.7,8.7,0,0,1,8.824-7.93H129.2l.753,0q2.073,0,4.159-.133a65.253,65.253,0,1,0-23.649-2.864H76.3a82.555,82.555,0,0,1-26.576-44.6,1.5,1.5,0,0,0-1.062-1.126l-22.326-6.242a5.836,5.836,0,0,1-4.25-5.6v-8.9a5.836,5.836,0,0,1,4.25-5.6l22.335-6.245a1.5,1.5,0,0,0,1.062-1.126A81.277,81.277,0,0,1,61.694,83.394a1.5,1.5,0,0,0-.027-1.709L49.083,64.123a5.8,5.8,0,0,1,.615-7.5l5.7-5.7a5.808,5.808,0,0,1,7.122-.864L81.58,61.582a1.5,1.5,0,0,0,1.631-.051A81.256,81.256,0,0,1,112.448,48.79a1.5,1.5,0,0,0,1.126-1.062l6.244-22.335a5.835,5.835,0,0,1,5.6-4.25h8.9a5.834,5.834,0,0,1,5.6,4.25l6.245,22.335a1.5,1.5,0,0,0,1.126,1.062,81.2,81.2,0,0,1,31.083,14.055,1.5,1.5,0,0,0,1.763.011l17.04-12.212a5.8,5.8,0,0,1,7.5.615l5.7,5.7a5.805,5.805,0,0,1,.864,7.122l-11.93,19.733a1.5,1.5,0,0,0,.014,1.575A81.331,81.331,0,0,1,210,111.5a1.5,1.5,0,0,0,1.062,1.126l22.335,6.245a5.836,5.836,0,0,1,4.25,5.6v8.9a5.836,5.836,0,0,1-4.25,5.6l-22.326,6.242a1.5,1.5,0,0,0-1.062,1.126,82.219,82.219,0,0,1-80.143,64.6ZM86.042,172.755A61.984,61.984,0,0,1,125.812,67.04q1.991-.127,3.971-.127A62.013,62.013,0,1,1,86.042,172.755Zm131.123,51.1a.257.257,0,0,1-.173-.259V212.438a1.5,1.5,0,0,0-1.5-1.5H152.177a85.1,85.1,0,0,0,32.362-17h30.951a1.5,1.5,0,0,0,1.5-1.5V181.276a.281.281,0,0,1,.479-.2l21.162,21.161a.282.282,0,0,1,0,.4L217.469,223.8a.258.258,0,0,1-.185.086h-.007A.3.3,0,0,1,217.164,223.858Z" fill="#3f3679"/></svg>