<svg xmlns="http://www.w3.org/2000/svg" viewBox="0 0 256 256"><title>icons_</title><path d="M103.332,131.5c.258.721.551,1.415.871,2.1l-6.463,6.463,12.708,12.708,6.463-6.463c.687.32,1.388.612,2.1.871v9.143H136.98v-9.143c.714-.259,1.415-.551,2.1-.871l6.463,6.463,12.708-12.708L151.79,133.6c.32-.687.612-1.381.871-2.1H161.8V113.529h-9.143c-.259-.714-.551-1.415-.871-2.1l6.463-6.463L145.545,92.256l-6.463,6.47c-.687-.32-1.388-.619-2.1-.878V88.711H119.013v9.136c-.714.259-1.415.558-2.1.878l-6.463-6.47L97.74,104.964l6.463,6.463c-.32.687-.612,1.388-.871,2.1H94.2V131.5Z" fill="#9e9e9e"/><circle cx="128" cy="122.513" r="11.441" fill="#f46275"/><rect x="26.094" y="25.77" width="40.611" height="30.285" fill="#63bce7"/><rect x="26.094" y="25.77" width="10" height="30.285" fill="#6377e7"/><rect x="108.262" y="25.77" width="40.611" height="30.285" fill="#63bce7"/><rect x="189.295" y="25.77" width="40.611" height="30.285" fill="#63bce7"/><rect x="26.094" y="188.971" width="40.611" height="30.285" fill="#f8af23"/><rect x="26.094" y="188.971" width="10" height="30.285" fill="#f87023"/><rect x="107.694" y="188.971" width="40.611" height="30.285" fill="#f8af23"/><rect x="189.295" y="188.971" width="40.611" height="30.285" fill="#f8af23"/><circle cx="46.399" cy="122.516" r="20.306" fill="#cecece"/><path d="M36.094,122.516A20.3,20.3,0,0,1,51.4,102.856a20.306,20.306,0,1,0,0,39.319A20.3,20.3,0,0,1,36.094,122.516Z" fill="#afafaf"/><circle cx="209.601" cy="122.513" r="20.306" fill="#cecece"/><rect x="219.906" y="25.77" width="10" height="30.285" fill="#63e2e7"/><path d="M219.906,122.513a20.3,20.3,0,0,0-15.306-19.66,20.306,20.306,0,1,1,0,39.319A20.3,20.3,0,0,0,219.906,122.513Z" fill="#e2e2e2"/><rect x="219.906" y="188.971" width="10" height="30.285" fill="#f8d323"/><path d="M140.941,122.514A12.941,12.941,0,1,0,128,135.454,12.956,12.956,0,0,0,140.941,122.514Zm-22.883,0a9.941,9.941,0,1,1,9.941,9.94A9.953,9.953,0,0,1,118.059,122.514Z" fill="#3f3679"/><path d="M27.323,228.73h-18a1.5,1.5,0,1,0,0,3h18a1.5,1.5,0,1,0,0-3Z" fill="#3f3679"/><path d="M246.68,228.73h-18a1.5,1.5,0,0,0,0,3h18a1.5,1.5,0,0,0,0-3Z" fill="#3f3679"/><path d="M218.479,228.73H37.521a1.5,1.5,0,0,0,0,3H218.479a1.5,1.5,0,0,0,0-3Z" fill="#3f3679"/><path d="M9.32,220.757H246.68a1.5,1.5,0,0,0,0-3H231.406V188.972a1.5,1.5,0,0,0-1.5-1.5H211.1V144.261a21.8,21.8,0,0,0,0-43.5V57.555h18.806a1.5,1.5,0,0,0,1.5-1.5V25.77a1.5,1.5,0,0,0-1.5-1.5H189.3a1.5,1.5,0,0,0-1.5,1.5V39.412H150.373V25.77a1.5,1.5,0,0,0-1.5-1.5H108.262a1.5,1.5,0,0,0-1.5,1.5V39.412H68.2V25.77a1.5,1.5,0,0,0-1.5-1.5H26.094a1.5,1.5,0,0,0-1.5,1.5V56.055a1.5,1.5,0,0,0,1.5,1.5H44.9v43.213a21.8,21.8,0,0,0,0,43.5v43.208H26.094a1.5,1.5,0,0,0-1.5,1.5v28.785H9.32a1.5,1.5,0,1,0,0,3ZM68.2,205.614h37.99v12.143H68.2Zm40.99,12.143V190.472h37.611v27.285Zm40.611-12.143H187.8v12.143h-37.99Zm78.6,12.143H190.8V190.472h37.611ZM189.3,187.472a1.5,1.5,0,0,0-1.5,1.5v13.643h-37.99V188.972a1.5,1.5,0,0,0-1.5-1.5H129.5V157.817h7.484a1.5,1.5,0,0,0,1.5-1.5v-8.111l.269-.112,5.737,5.736a1.5,1.5,0,0,0,2.121,0l12.706-12.706a1.5,1.5,0,0,0,0-2.121l-5.736-5.736c.038-.09.076-.18.112-.269H161.8a1.5,1.5,0,0,0,1.5-1.5v-7.484h24.549A21.83,21.83,0,0,0,208.1,144.261v43.211Zm-69.767-41.7c-.647-.235-1.293-.506-1.978-.825a1.5,1.5,0,0,0-1.7.3l-5.405,5.405L99.865,140.063l5.405-5.405a1.5,1.5,0,0,0,.3-1.694c-.323-.692-.593-1.339-.826-1.979a1.5,1.5,0,0,0-1.409-.986H95.7v-14.97h7.638a1.5,1.5,0,0,0,1.409-.986c.233-.641.5-1.287.826-1.979a1.5,1.5,0,0,0-.3-1.694l-5.405-5.405L110.45,94.378l5.405,5.405a1.5,1.5,0,0,0,1.694.3c.695-.324,1.342-.594,1.979-.826a1.5,1.5,0,0,0,.987-1.409V90.209h8.032l.019,0,.019,0h6.9v7.638a1.5,1.5,0,0,0,.987,1.409c.639.233,1.286.5,1.979.826a1.5,1.5,0,0,0,1.694-.3l5.405-5.405,10.585,10.585-5.405,5.405a1.5,1.5,0,0,0-.3,1.694c.323.692.593,1.339.826,1.979a1.5,1.5,0,0,0,1.409.986H160.3V130h-7.638a1.5,1.5,0,0,0-1.409.986c-.233.641-.5,1.287-.826,1.979a1.5,1.5,0,0,0,.3,1.694l5.405,5.405L145.55,150.648l-5.405-5.405a1.5,1.5,0,0,0-1.7-.3c-.673.314-1.339.592-1.978.825a1.5,1.5,0,0,0-.987,1.409v7.638H120.516V147.18A1.5,1.5,0,0,0,119.529,145.771Zm108.877-23.257A18.805,18.805,0,1,1,209.6,103.708,18.826,18.826,0,0,1,228.406,122.514ZM190.8,27.27h37.611V54.555H190.8Zm-3,15.143V56.055a1.5,1.5,0,0,0,1.5,1.5H208.1v43.211a21.831,21.831,0,0,0-20.248,20.248H163.3v-7.485a1.5,1.5,0,0,0-1.5-1.5h-8.111c-.037-.089-.074-.179-.112-.269l5.736-5.736a1.5,1.5,0,0,0,0-2.121L146.611,91.2a1.5,1.5,0,0,0-2.121,0l-5.737,5.736-.269-.112V88.709a1.5,1.5,0,0,0-1.5-1.5h-6.917V57.555h18.806a1.5,1.5,0,0,0,1.5-1.5V42.412ZM109.762,27.27h37.611V54.555H109.762Zm-82.168,0H65.2V54.555H27.594ZM66.7,57.555a1.5,1.5,0,0,0,1.5-1.5V42.412h38.557V56.055a1.5,1.5,0,0,0,1.5,1.5h18.806V87.209h-8.052a1.5,1.5,0,0,0-1.5,1.5V96.82l-.269.112L111.51,91.2a1.5,1.5,0,0,0-2.121,0L96.683,103.9a1.5,1.5,0,0,0,0,2.121l5.736,5.736c-.038.09-.076.18-.112.269H94.2a1.5,1.5,0,0,0-1.5,1.5v7.483H68.147A21.831,21.831,0,0,0,47.9,100.767V57.555ZM27.594,122.516A18.805,18.805,0,1,1,46.4,141.321,18.827,18.827,0,0,1,27.594,122.516ZM47.9,144.264a21.831,21.831,0,0,0,20.248-20.252H92.7V131.5a1.5,1.5,0,0,0,1.5,1.5h8.111c.037.089.074.179.112.269L96.683,139a1.5,1.5,0,0,0,0,2.121l12.706,12.706a1.5,1.5,0,0,0,2.121,0l5.736-5.736c.09.038.18.076.269.112v8.111a1.5,1.5,0,0,0,1.5,1.5H126.5v29.654H107.694a1.5,1.5,0,0,0-1.5,1.5v13.643H68.2V188.972a1.5,1.5,0,0,0-1.5-1.5H47.9ZM27.594,190.472H65.2v27.285H27.594Z" fill="#3f3679"/></svg>