<svg xmlns="http://www.w3.org/2000/svg" viewBox="0 0 256 256"><title>icons_</title><rect x="50.757" y="94.005" width="154.485" height="132.343" rx="10.6" ry="10.6" fill="#cecece"/><path d="M60.757,215.748V104.6A10.6,10.6,0,0,1,71.357,94h-10a10.6,10.6,0,0,0-10.6,10.6V215.748a10.6,10.6,0,0,0,10.6,10.6h10A10.6,10.6,0,0,1,60.757,215.748Z" fill="#afafaf"/><path d="M195.243,215.748V104.6a10.6,10.6,0,0,0-10.6-10.6h10a10.6,10.6,0,0,1,10.6,10.6V215.748a10.6,10.6,0,0,1-10.6,10.6h-10A10.6,10.6,0,0,0,195.243,215.748Z" fill="#e2e2e2"/><path d="M205.242,104.606a10.6,10.6,0,0,0-10.6-10.6H61.359a10.6,10.6,0,0,0-10.6,10.6v18.449H205.242Z" fill="#f8af23"/><path d="M71.359,94h-10a10.6,10.6,0,0,0-10.6,10.6v18.449h10V104.606A10.6,10.6,0,0,1,71.359,94Z" fill="#f87023"/><path d="M184.641,94h10a10.6,10.6,0,0,1,10.6,10.6v18.449h-10V104.606A10.6,10.6,0,0,0,184.641,94Z" fill="#f8d323"/><circle cx="69.682" cy="108.53" r="4.842" fill="#f46275"/><circle cx="88.332" cy="108.53" r="4.842" fill="#f46275"/><rect x="122.517" y="105.158" width="68.643" height="7.378" rx="3.689" ry="3.689" fill="#f46275"/><rect x="68.833" y="151.262" width="118.333" height="46.88" rx="5" ry="5" fill="#f8af23"/><path d="M114.437,184.134H105a1.186,1.186,0,0,0-1.122.8l-1.3,3.813a1.186,1.186,0,0,1-1.122.8H96.444a1.186,1.186,0,0,1-1.113-1.6l10.006-27.12a1.186,1.186,0,0,1,1.113-.775h6.622a1.186,1.186,0,0,1,1.113.775l10.006,27.12a1.186,1.186,0,0,1-1.113,1.6h-5.095a1.186,1.186,0,0,1-1.122-.8l-1.3-3.813A1.186,1.186,0,0,0,114.437,184.134Zm-1.53-7.028-2.05-6.057a1.186,1.186,0,0,0-2.245,0l-2.073,6.057a1.186,1.186,0,0,0,1.122,1.57h4.123A1.186,1.186,0,0,0,112.907,177.106Z" fill="#3f3679"/><path d="M134.736,180.32v8.047a1.186,1.186,0,0,1-1.186,1.186h-4.811a1.186,1.186,0,0,1-1.186-1.186v-27.33a1.186,1.186,0,0,1,1.186-1.186h10.452q5.293,0,8.065,2.626a9.288,9.288,0,0,1,2.773,7.079,9.763,9.763,0,0,1-1.239,4.937,8.583,8.583,0,0,1-3.675,3.4,12.942,12.942,0,0,1-5.923,1.239h-3.269A1.186,1.186,0,0,0,134.736,180.32Zm7.983-10.764q0-3.908-4.327-3.908h-2.471a1.186,1.186,0,0,0-1.186,1.186v5.358a1.186,1.186,0,0,0,1.186,1.186h2.471Q142.719,173.378,142.72,169.555Z" fill="#3f3679"/><path d="M160.743,161.036v27.33a1.186,1.186,0,0,1-1.186,1.186h-4.811a1.186,1.186,0,0,1-1.186-1.186v-27.33a1.186,1.186,0,0,1,1.186-1.186h4.811A1.186,1.186,0,0,1,160.743,161.036Z" fill="#3f3679"/><circle cx="38.161" cy="162.785" r="5.417" fill="#63bce7"/><circle cx="38.161" cy="186.618" r="5.417" fill="#63bce7"/><circle cx="18.322" cy="174.702" r="5.417" fill="#63bce7"/><circle cx="217.839" cy="162.785" r="5.417" fill="#63bce7"/><circle cx="217.839" cy="186.618" r="5.417" fill="#63bce7"/><circle cx="237.678" cy="174.702" r="5.417" fill="#63bce7"/><path d="M89.918,84.733c.4,1.113.851,2.185,1.344,3.245l-9.977,9.977L100.9,117.573l9.977-9.977c1.061.494,2.143.945,3.245,1.344v14.115h27.737V108.941c1.1-.4,2.185-.851,3.245-1.344l9.977,9.977L174.7,97.955l-9.977-9.977c.494-1.061.945-2.132,1.344-3.245h14.115V57H166.071c-.4-1.1-.851-2.185-1.344-3.245l9.977-9.977L155.086,24.155l-9.977,9.988c-1.061-.494-2.143-.956-3.245-1.355v-14.1H114.126v14.1c-1.1.4-2.185.861-3.245,1.355L100.9,24.155,81.285,43.773l9.977,9.977c-.494,1.061-.945,2.143-1.344,3.245h-14.1V84.733Z" fill="#63bce7"/><path d="M101.263,87.978c-.494-1.061-.945-2.132-1.344-3.245h-10c.4,1.113.851,2.185,1.344,3.245l-9.977,9.978L100.9,117.573l5-5L91.285,97.955Z" fill="#6377e7"/><rect x="75.814" y="56.996" width="10" height="27.737" fill="#6377e7"/><path d="M101.263,53.75l-9.977-9.977L105.9,29.157l-5-5L81.285,43.773l9.977,9.977c-.494,1.061-.945,2.143-1.344,3.245h10C100.317,55.893,100.769,54.811,101.263,53.75Z" fill="#6377e7"/><circle cx="128" cy="70.866" r="17.663" fill="#9e9e9e"/><path d="M27.323,235.821h-18a1.5,1.5,0,0,0,0,3h18a1.5,1.5,0,1,0,0-3Z" fill="#3f3679"/><path d="M246.68,235.821h-18a1.5,1.5,0,0,0,0,3h18a1.5,1.5,0,0,0,0-3Z" fill="#3f3679"/><path d="M218.479,235.821H37.521a1.5,1.5,0,0,0,0,3H218.479a1.5,1.5,0,0,0,0-3Z" fill="#3f3679"/><path d="M9.32,227.848H246.68a1.5,1.5,0,0,0,0-3H202.591a12.065,12.065,0,0,0,4.151-9.1V188.118h4.349a6.917,6.917,0,1,0,0-3h-4.349V176.2H230.93a6.917,6.917,0,1,0,0-3H206.742v-8.917h4.349a6.917,6.917,0,1,0,0-3h-4.349V104.606h0a12.114,12.114,0,0,0-12.1-12.1H171.376l-4.853-4.854c.21-.479.407-.95.591-1.416h13.073a1.5,1.5,0,0,0,1.5-1.5V57a1.5,1.5,0,0,0-1.5-1.5H167.113c-.185-.466-.381-.936-.591-1.416l9.247-9.248a1.5,1.5,0,0,0,0-2.121L156.154,23.1a1.544,1.544,0,0,0-2.121,0l-9.247,9.248c-.479-.211-.95-.408-1.416-.592V18.679a1.5,1.5,0,0,0-1.5-1.5H114.13a1.5,1.5,0,0,0-1.5,1.5V31.751c-.467.185-.937.381-1.416.592L101.967,23.1a1.544,1.544,0,0,0-2.121,0L80.23,42.711a1.5,1.5,0,0,0,0,2.121l9.247,9.248c-.21.479-.406.949-.592,1.416H75.813a1.5,1.5,0,0,0-1.5,1.5v27.74a1.5,1.5,0,0,0,1.5,1.5H88.886c.185.466.382.937.592,1.416L84.624,92.5H61.357a12.114,12.114,0,0,0-12.1,12.1h0v56.679H44.909a6.917,6.917,0,1,0,0,3h4.349V173.2H25.07a6.917,6.917,0,1,0,0,3H49.258v8.917H44.909a6.917,6.917,0,1,0,0,3h4.349v27.629a12.065,12.065,0,0,0,4.151,9.1H9.32a1.5,1.5,0,0,0,0,3ZM217.839,182.7a3.917,3.917,0,1,1-3.916,3.917A3.921,3.921,0,0,1,217.839,182.7Zm19.84-11.917a3.917,3.917,0,1,1-3.917,3.917A3.921,3.921,0,0,1,237.679,170.785Zm-19.84-11.917a3.917,3.917,0,1,1-3.916,3.917A3.921,3.921,0,0,1,217.839,158.868ZM38.161,166.7a3.917,3.917,0,1,1,3.916-3.917A3.921,3.921,0,0,1,38.161,166.7Zm-19.84,11.917a3.917,3.917,0,1,1,3.917-3.917A3.921,3.921,0,0,1,18.321,178.618Zm19.84,11.917a3.917,3.917,0,1,1,3.916-3.917A3.921,3.921,0,0,1,38.161,190.535Zm165.581-5.417H188.667V176.2h15.075ZM70.333,156.262a3.5,3.5,0,0,1,3.5-3.5H182.167a3.5,3.5,0,0,1,3.5,3.5v36.88a3.5,3.5,0,0,1-3.5,3.5H73.833a3.5,3.5,0,0,1-3.5-3.5ZM203.742,173.2H188.667v-8.917h15.075Zm-9.1-77.7a9.112,9.112,0,0,1,9.1,9.1v16.949H143.37v-7.52h6.064l4.6,4.6a1.5,1.5,0,0,0,2.121,0l4.6-4.6h26.717a5.189,5.189,0,1,0,0-10.378H171.131l4.638-4.638a1.5,1.5,0,0,0,0-2.121L174.375,95.5ZM143.37,111.036V109.98c.466-.185.937-.381,1.416-.592l1.648,1.648Zm24.761-4.378h19.339a2.189,2.189,0,1,1,0,4.378H163.753Zm-75.5-19.314c-.507-1.088-.934-2.109-1.3-3.123a1.5,1.5,0,0,0-1.409-.986H77.313V58.5H89.92a1.5,1.5,0,0,0,1.409-.986c.37-1.015.8-2.036,1.3-3.123a1.5,1.5,0,0,0-.3-1.694l-8.921-8.921,17.494-17.494,8.921,8.921a1.5,1.5,0,0,0,1.7.3c1.084-.506,2.1-.932,3.12-1.3a1.5,1.5,0,0,0,.987-1.41V20.179h24.74V32.786a1.5,1.5,0,0,0,.987,1.41c1.011.368,2.031.794,3.12,1.3a1.5,1.5,0,0,0,1.7-.3l8.921-8.921,17.494,17.494-8.921,8.921a1.5,1.5,0,0,0-.3,1.694c.507,1.089.933,2.11,1.3,3.122a1.5,1.5,0,0,0,1.409.987h12.607v24.74H166.079a1.5,1.5,0,0,0-1.409.987c-.368,1.01-.794,2.031-1.3,3.122a1.5,1.5,0,0,0,.3,1.694l8.921,8.921-17.494,17.494-8.921-8.921a1.5,1.5,0,0,0-1.694-.3c-1.09.508-2.111.934-3.122,1.3a1.5,1.5,0,0,0-.986,1.409v12.606H115.63V108.946a1.5,1.5,0,0,0-.986-1.409c-1.016-.37-2.037-.8-3.121-1.3a1.5,1.5,0,0,0-1.7.3l-8.921,8.921L83.412,97.959l8.921-8.921A1.5,1.5,0,0,0,92.632,87.344ZM86.78,105.57l4.507,4.507a3.339,3.339,0,1,1-4.507-4.507ZM81.624,95.5,80.23,96.9a1.5,1.5,0,0,0,0,2.121l4.38,4.38a6.334,6.334,0,1,0,8.843,8.843l6.392,6.392a1.5,1.5,0,0,0,2.121,0l9.247-9.247c.479.21.949.407,1.416.592v11.576H52.258V104.606a9.112,9.112,0,0,1,9.1-9.1ZM52.258,124.556H203.742v36.729H188.667v-5.023a6.508,6.508,0,0,0-6.5-6.5H73.833a6.508,6.508,0,0,0-6.5,6.5v5.023H52.258Zm0,39.729H67.333V173.2H52.258Zm0,11.917H67.333v8.917H52.258Zm0,39.546V188.118H67.333v5.023a6.508,6.508,0,0,0,6.5,6.5H182.167a6.508,6.508,0,0,0,6.5-6.5v-5.023h15.075v27.629a9.11,9.11,0,0,1-9.1,9.1H61.357A9.11,9.11,0,0,1,52.258,215.748Z" fill="#3f3679"/><path d="M69.682,114.872a6.342,6.342,0,1,0-6.342-6.342A6.349,6.349,0,0,0,69.682,114.872Zm0-9.684a3.342,3.342,0,1,1-3.342,3.342A3.345,3.345,0,0,1,69.682,105.188Z" fill="#3f3679"/><path d="M128,90.029a19.163,19.163,0,1,0-19.163-19.163A19.185,19.185,0,0,0,128,90.029ZM128,54.7a16.163,16.163,0,1,1-16.163,16.163A16.181,16.181,0,0,1,128,54.7Z" fill="#3f3679"/></svg>