<svg xmlns="http://www.w3.org/2000/svg" viewBox="0 0 256 256"><title>icons_</title><rect x="18.37" y="50.711" width="219.26" height="151.106" rx="13.665" ry="13.665" fill="#cecece"/><path d="M28.37,188.153V64.376A13.681,13.681,0,0,1,42.035,50.711h-10A13.681,13.681,0,0,0,18.37,64.376V188.153a13.681,13.681,0,0,0,13.665,13.665h10A13.681,13.681,0,0,1,28.37,188.153Z" fill="#afafaf"/><path d="M227.63,188.153V64.376a13.681,13.681,0,0,0-13.665-13.665h10A13.681,13.681,0,0,1,237.63,64.376V188.153a13.681,13.681,0,0,1-13.665,13.665h-10A13.681,13.681,0,0,0,227.63,188.153Z" fill="#e2e2e2"/><rect x="26.779" y="59.12" width="202.442" height="122.288" rx="5.256" ry="5.256" fill="#63bce7"/><path d="M36.779,176.153V64.376a5.271,5.271,0,0,1,5.256-5.256h-10a5.271,5.271,0,0,0-5.256,5.256V176.153a5.271,5.271,0,0,0,5.256,5.256h10A5.271,5.271,0,0,1,36.779,176.153Z" fill="#6377e7"/><path d="M219.221,176.153V64.376a5.271,5.271,0,0,0-5.256-5.256h10a5.271,5.271,0,0,1,5.256,5.256V176.153a5.271,5.271,0,0,1-5.256,5.256h-10A5.271,5.271,0,0,0,219.221,176.153Z" fill="#63e2e7"/><rect x="89.809" y="223.975" width="76.383" height="9.197" fill="#9e9e9e"/><rect x="89.809" y="223.975" width="10" height="9.197" fill="#707070"/><rect x="100.67" y="201.817" width="54.659" height="22.158" fill="#cecece"/><rect x="100.67" y="201.817" width="10" height="22.158" fill="#afafaf"/><circle cx="128" cy="191.613" r="4.5" fill="#9e9e9e"/><rect x="50.757" y="11.854" width="154.485" height="132.343" rx="10.6" ry="10.6" fill="#cecece"/><path d="M60.757,133.6V22.454a10.6,10.6,0,0,1,10.6-10.6h-10a10.6,10.6,0,0,0-10.6,10.6V133.6a10.6,10.6,0,0,0,10.6,10.6h10A10.6,10.6,0,0,1,60.757,133.6Z" fill="#afafaf"/><path d="M195.243,133.6V22.454a10.6,10.6,0,0,0-10.6-10.6h10a10.6,10.6,0,0,1,10.6,10.6V133.6a10.6,10.6,0,0,1-10.6,10.6h-10A10.6,10.6,0,0,0,195.243,133.6Z" fill="#e2e2e2"/><path d="M205.242,22.456a10.6,10.6,0,0,0-10.6-10.6H61.359a10.6,10.6,0,0,0-10.6,10.6V40.905H205.242Z" fill="#f8af23"/><path d="M71.359,11.854h-10a10.6,10.6,0,0,0-10.6,10.6V40.905h10V22.456A10.6,10.6,0,0,1,71.359,11.854Z" fill="#f87023"/><path d="M184.641,11.854h10a10.6,10.6,0,0,1,10.6,10.6V40.905h-10V22.456A10.6,10.6,0,0,0,184.641,11.854Z" fill="#f8d323"/><circle cx="69.682" cy="26.38" r="4.842" fill="#f46275"/><circle cx="88.332" cy="26.38" r="4.842" fill="#f46275"/><circle cx="106.981" cy="26.38" r="4.842" fill="#f46275"/><rect x="122.517" y="23.008" width="68.643" height="7.378" rx="3.689" ry="3.689" fill="#f46275"/><path d="M108.156,151.422c.208.58.443,1.138.7,1.691l-5.2,5.2,10.223,10.223,5.2-5.2c.553.257,1.116.493,1.691.7v7.355h14.453v-7.355c.575-.208,1.138-.443,1.691-.7l5.2,5.2,10.223-10.223-5.2-5.2c.257-.553.493-1.111.7-1.691h7.355V136.969h-7.355c-.208-.575-.443-1.138-.7-1.691l5.2-5.2-10.223-10.223-5.2,5.2c-.553-.257-1.116-.5-1.691-.706V117H120.771v7.35c-.575.208-1.138.449-1.691.706l-5.2-5.2-10.223,10.223,5.2,5.2c-.257.553-.493,1.116-.7,1.691h-7.35v14.453Z" fill="#f46275"/><circle cx="128" cy="144.196" r="9.204" fill="#9e9e9e"/><rect x="68.833" y="59.12" width="118.333" height="46.88" rx="5" ry="5" fill="#f8af23"/><path d="M128,197.613a6,6,0,1,0-6-6A6.007,6.007,0,0,0,128,197.613Zm0-9a3,3,0,1,1-3,3A3,3,0,0,1,128,188.613Z" fill="#3f3679"/><path d="M27.323,242.646h-18a1.5,1.5,0,1,0,0,3h18a1.5,1.5,0,1,0,0-3Z" fill="#3f3679"/><path d="M246.68,242.646h-18a1.5,1.5,0,0,0,0,3h18a1.5,1.5,0,0,0,0-3Z" fill="#3f3679"/><path d="M218.479,242.646H37.521a1.5,1.5,0,0,0,0,3H218.479a1.5,1.5,0,0,0,0-3Z" fill="#3f3679"/><path d="M9.32,234.673H246.68a1.5,1.5,0,0,0,0-3H167.691v-7.7a1.5,1.5,0,0,0-1.5-1.5h-9.362V203.317h67.137a15.182,15.182,0,0,0,15.164-15.165V64.376a15.182,15.182,0,0,0-15.164-15.165H206.742V22.454a12.113,12.113,0,0,0-12.1-12.1H61.357a12.114,12.114,0,0,0-12.1,12.1V49.211H32.035A15.182,15.182,0,0,0,16.87,64.376V188.152a15.182,15.182,0,0,0,15.165,15.165H99.17v19.158H89.809a1.5,1.5,0,0,0-1.5,1.5v7.7H9.32a1.5,1.5,0,1,0,0,3Zm145.875-99.2H149.07l4.33-4.33a1.5,1.5,0,0,0,0-2.121L143.179,118.8a1.544,1.544,0,0,0-2.121,0l-4.33,4.33V117a1.5,1.5,0,0,0-1.5-1.5H120.772a1.5,1.5,0,0,0-1.5,1.5v6.124l-4.33-4.33a1.5,1.5,0,0,0-2.121,0L102.6,129.018a1.5,1.5,0,0,0,0,2.121l4.33,4.33h-6.124a1.5,1.5,0,0,0-1.5,1.5V142.7H61.357a9.111,9.111,0,0,1-9.1-9.1V42.405H203.742V133.6a9.11,9.11,0,0,1-9.1,9.1H156.694v-5.729A1.5,1.5,0,0,0,155.194,135.469Zm-9.116,18.705,4.141,4.141-8.1,8.1-4.141-4.141a1.5,1.5,0,0,0-1.694-.3c-.552.257-1.064.471-1.568.654a1.5,1.5,0,0,0-.987,1.41v5.851H122.272v-5.851a1.5,1.5,0,0,0-.987-1.41c-.506-.184-1.019-.4-1.568-.654a1.5,1.5,0,0,0-1.695.3l-4.141,4.141-8.1-8.1,4.141-4.141a1.5,1.5,0,0,0,.3-1.695c-.256-.549-.47-1.062-.654-1.568a1.5,1.5,0,0,0-1.41-.987h-5.851V138.469h5.851a1.5,1.5,0,0,0,1.41-.987c.184-.506.4-1.019.654-1.568a1.5,1.5,0,0,0-.3-1.695l-4.141-4.141,8.1-8.1,4.141,4.141a1.5,1.5,0,0,0,1.695.3c.549-.256,1.062-.47,1.568-.654a1.5,1.5,0,0,0,.987-1.41V118.5h11.455v5.851a1.5,1.5,0,0,0,.987,1.41c.5.183,1.017.4,1.568.654a1.5,1.5,0,0,0,1.694-.3l4.141-4.141,8.1,8.1-4.141,4.141a1.5,1.5,0,0,0-.3,1.694c.255.547.469,1.061.654,1.57a1.5,1.5,0,0,0,1.409.986h5.852v11.455h-5.852a1.5,1.5,0,0,0-1.409.986c-.186.509-.4,1.023-.654,1.57A1.5,1.5,0,0,0,146.078,154.174ZM61.357,145.7H99.306v5.727a1.5,1.5,0,0,0,1.5,1.5h6.124l-4.33,4.33a1.5,1.5,0,0,0,0,2.121L112.821,169.6a1.544,1.544,0,0,0,2.121,0l4.33-4.33v6.124a1.5,1.5,0,0,0,1.5,1.5h14.455a1.5,1.5,0,0,0,1.5-1.5v-6.124l4.33,4.33a1.5,1.5,0,0,0,2.121,0L153.4,159.375a1.5,1.5,0,0,0,0-2.121l-4.33-4.33h6.124a1.5,1.5,0,0,0,1.5-1.5V145.7h37.948a12.114,12.114,0,0,0,12.1-12.1V60.62h17.224a3.76,3.76,0,0,1,3.755,3.756V176.152a3.76,3.76,0,0,1-3.755,3.756H32.035a3.76,3.76,0,0,1-3.756-3.756V64.376a3.76,3.76,0,0,1,3.756-3.756H49.257V133.6A12.114,12.114,0,0,0,61.357,145.7ZM194.641,13.354a9.112,9.112,0,0,1,9.1,9.1V39.405H52.257V22.456a9.112,9.112,0,0,1,9.1-9.1ZM19.87,188.152V64.376A12.178,12.178,0,0,1,32.035,52.211H49.257V57.62H32.035a6.764,6.764,0,0,0-6.756,6.756V176.152a6.764,6.764,0,0,0,6.756,6.756H223.966a6.763,6.763,0,0,0,6.755-6.756V64.376a6.763,6.763,0,0,0-6.755-6.756H206.742V52.211h17.224A12.178,12.178,0,0,1,236.13,64.376V188.152a12.178,12.178,0,0,1-12.164,12.165H32.035A12.179,12.179,0,0,1,19.87,188.152Zm82.3,15.165h51.659v19.158H102.17ZM91.309,225.476h73.383v6.2H91.309Z" fill="#3f3679"/><path d="M69.682,32.722A6.342,6.342,0,1,0,63.34,26.38,6.349,6.349,0,0,0,69.682,32.722Zm0-9.684A3.342,3.342,0,1,1,66.34,26.38,3.345,3.345,0,0,1,69.682,23.038Z" fill="#3f3679"/><path d="M88.332,32.722A6.342,6.342,0,1,0,81.99,26.38,6.349,6.349,0,0,0,88.332,32.722Zm0-9.684A3.342,3.342,0,1,1,84.99,26.38,3.345,3.345,0,0,1,88.332,23.038Z" fill="#3f3679"/><path d="M106.981,32.722a6.342,6.342,0,1,0-6.342-6.342A6.349,6.349,0,0,0,106.981,32.722Zm0-9.684a3.342,3.342,0,1,1-3.342,3.342A3.345,3.345,0,0,1,106.981,23.038Z" fill="#3f3679"/><path d="M126.206,31.886h61.265a5.189,5.189,0,1,0,0-10.378H126.206a5.189,5.189,0,1,0,0,10.378Zm0-7.378h61.265a2.189,2.189,0,1,1,0,4.378H126.206a2.189,2.189,0,1,1,0-4.378Z" fill="#3f3679"/><path d="M128,133.492a10.7,10.7,0,1,0,10.7,10.7A10.716,10.716,0,0,0,128,133.492Zm0,18.408a7.7,7.7,0,1,1,7.7-7.7A7.713,7.713,0,0,1,128,151.9Z" fill="#3f3679"/><path d="M188.667,101V64.12a6.508,6.508,0,0,0-6.5-6.5H73.833a6.508,6.508,0,0,0-6.5,6.5V101a6.508,6.508,0,0,0,6.5,6.5H182.167A6.508,6.508,0,0,0,188.667,101ZM70.333,101V64.12a3.5,3.5,0,0,1,3.5-3.5H182.167a3.5,3.5,0,0,1,3.5,3.5V101a3.5,3.5,0,0,1-3.5,3.5H73.833A3.5,3.5,0,0,1,70.333,101Z" fill="#3f3679"/><path d="M114.437,91.992H105a1.186,1.186,0,0,0-1.122.8l-1.3,3.813a1.186,1.186,0,0,1-1.122.8H96.444a1.186,1.186,0,0,1-1.113-1.6l10.006-27.12a1.186,1.186,0,0,1,1.113-.775h6.622a1.186,1.186,0,0,1,1.113.775l10.006,27.12a1.186,1.186,0,0,1-1.113,1.6h-5.095a1.186,1.186,0,0,1-1.122-.8l-1.3-3.813A1.186,1.186,0,0,0,114.437,91.992Zm-1.53-7.028-2.05-6.057a1.186,1.186,0,0,0-2.245,0l-2.073,6.057a1.186,1.186,0,0,0,1.122,1.57h4.123A1.186,1.186,0,0,0,112.907,84.964Z" fill="#3f3679"/><path d="M134.736,88.178v8.047a1.186,1.186,0,0,1-1.186,1.186h-4.811a1.186,1.186,0,0,1-1.186-1.186V68.895a1.186,1.186,0,0,1,1.186-1.186h10.452q5.293,0,8.065,2.626a9.288,9.288,0,0,1,2.773,7.079,9.763,9.763,0,0,1-1.239,4.937,8.583,8.583,0,0,1-3.675,3.4,12.942,12.942,0,0,1-5.923,1.239h-3.269A1.186,1.186,0,0,0,134.736,88.178Zm7.983-10.764q0-3.908-4.327-3.908h-2.471a1.186,1.186,0,0,0-1.186,1.186V80.05a1.186,1.186,0,0,0,1.186,1.186h2.471Q142.719,81.236,142.72,77.414Z" fill="#3f3679"/><path d="M160.743,68.895v27.33a1.186,1.186,0,0,1-1.186,1.186h-4.811a1.186,1.186,0,0,1-1.186-1.186V68.895a1.186,1.186,0,0,1,1.186-1.186h4.811A1.186,1.186,0,0,1,160.743,68.895Z" fill="#3f3679"/></svg>