<svg xmlns="http://www.w3.org/2000/svg" viewBox="0 0 256 256"><title>icons_</title><rect x="18.37" y="26.926" width="219.26" height="151.106" rx="13.665" ry="13.665" fill="#cecece"/><path d="M28.37,164.368V40.591A13.681,13.681,0,0,1,42.035,26.926h-10A13.681,13.681,0,0,0,18.37,40.591V164.368a13.681,13.681,0,0,0,13.665,13.665h10A13.681,13.681,0,0,1,28.37,164.368Z" fill="#afafaf"/><path d="M227.63,164.368V40.591a13.681,13.681,0,0,0-13.665-13.665h10A13.681,13.681,0,0,1,237.63,40.591V164.368a13.681,13.681,0,0,1-13.665,13.665h-10A13.681,13.681,0,0,0,227.63,164.368Z" fill="#e2e2e2"/><rect x="26.779" y="35.335" width="202.442" height="122.288" rx="5.256" ry="5.256" fill="#63bce7"/><path d="M36.779,152.368V40.591a5.271,5.271,0,0,1,5.256-5.256h-10a5.271,5.271,0,0,0-5.256,5.256V152.368a5.271,5.271,0,0,0,5.256,5.256h10A5.271,5.271,0,0,1,36.779,152.368Z" fill="#6377e7"/><path d="M219.221,152.368V40.591a5.271,5.271,0,0,0-5.256-5.256h10a5.271,5.271,0,0,1,5.256,5.256V152.368a5.271,5.271,0,0,1-5.256,5.256h-10A5.271,5.271,0,0,0,219.221,152.368Z" fill="#63e2e7"/><circle cx="128" cy="149.872" r="39.978" fill="#9e9e9e"/><path d="M98.022,149.872A39.976,39.976,0,0,1,133,110.216a39.978,39.978,0,1,0,0,79.311A39.976,39.976,0,0,1,98.022,149.872Z" fill="#707070"/><path d="M109.249,189.849h37.5A44.65,44.65,0,0,1,191.4,234.5v0a0,0,0,0,1,0,0H64.6a0,0,0,0,1,0,0v0A44.65,44.65,0,0,1,109.249,189.849Z" fill="#f8af23"/><path d="M119.249,189.849h-10A44.649,44.649,0,0,0,64.6,234.5h10A44.649,44.649,0,0,1,119.249,189.849Z" fill="#f87023"/><rect x="50.5" y="10.528" width="155" height="85.951" rx="10" ry="10" fill="#f46275"/><path d="M60.5,86.479V20.528a10,10,0,0,1,10-10h-10a10,10,0,0,0-10,10V86.479a10,10,0,0,0,10,10h10A10,10,0,0,1,60.5,86.479Z" fill="#f43075"/><path d="M195.5,86.479V20.528a10,10,0,0,0-10-10h10a10,10,0,0,1,10,10V86.479a10,10,0,0,1-10,10h-10A10,10,0,0,0,195.5,86.479Z" fill="#f48875"/><rect x="77.255" y="25.606" width="7.857" height="7.857" fill="#3f3679"/><rect x="91.062" y="25.606" width="69.359" height="7.857" fill="#3f3679"/><rect x="166.229" y="25.606" width="12.517" height="7.857" fill="#3f3679"/><rect x="77.255" y="41.585" width="7.857" height="7.857" fill="#3f3679"/><rect x="91.062" y="41.585" width="55.413" height="7.857" fill="#3f3679"/><rect x="152.396" y="41.585" width="26.35" height="7.857" fill="#3f3679"/><rect x="77.255" y="57.565" width="7.857" height="7.857" fill="#3f3679"/><rect x="91.062" y="57.565" width="27.707" height="7.857" fill="#3f3679"/><rect x="129.991" y="57.565" width="48.754" height="7.857" fill="#3f3679"/><rect x="77.255" y="73.544" width="7.857" height="7.857" fill="#3f3679"/><rect x="91.062" y="73.544" width="16.201" height="7.857" fill="#3f3679"/><rect x="113.062" y="73.544" width="65.683" height="7.857" fill="#3f3679"/><path d="M221.871,115.617c-.208.58-.443,1.138-.7,1.691l5.2,5.2L216.147,132.73l-5.2-5.2c-.553.257-1.116.493-1.691.7v7.355H194.8v-7.355c-.575-.208-1.138-.443-1.691-.7l-5.2,5.2L177.69,122.507l5.2-5.2c-.257-.553-.493-1.111-.7-1.691h-7.355V101.164h7.355c.208-.575.443-1.138.7-1.691l-5.2-5.2,10.223-10.223,5.2,5.2c.553-.257,1.116-.5,1.691-.706V81.2h14.453v7.35c.575.208,1.138.449,1.691.706l5.2-5.2L226.37,94.274l-5.2,5.2c.257.553.493,1.116.7,1.691h7.35v14.453Z" fill="#f8af23"/><path d="M229.221,115.617V101.164h-7.35c-.208-.575-.443-1.138-.7-1.691l5.2-5.2L216.147,84.051l-5,5,5.22,5.22-5.2,5.2c.257.553.493,1.116.7,1.691h7.35v14.453h-7.35c-.208.58-.443,1.138-.7,1.691l5.2,5.2-5.223,5.223,5,5,10.223-10.223-5.2-5.2c.257-.553.493-1.111.7-1.691Z" fill="#f8d323"/><circle cx="202.027" cy="108.391" r="9.204" fill="#9e9e9e"/><path d="M27.323,243.972h-18a1.5,1.5,0,1,0,0,3h18a1.5,1.5,0,1,0,0-3Z" fill="#3f3679"/><path d="M246.68,243.972h-18a1.5,1.5,0,0,0,0,3h18a1.5,1.5,0,0,0,0-3Z" fill="#3f3679"/><path d="M218.479,243.972H37.521a1.5,1.5,0,0,0,0,3H218.479a1.5,1.5,0,0,0,0-3Z" fill="#3f3679"/><path d="M9.32,236H246.68a1.5,1.5,0,0,0,0-3H192.862a46.2,46.2,0,0,0-46.111-44.65H143.46a41.592,41.592,0,0,0,13.494-8.817h67.012a15.182,15.182,0,0,0,15.165-15.165V40.591a15.182,15.182,0,0,0-15.165-15.165H207v-4.9a11.513,11.513,0,0,0-11.5-11.5H60.5A11.513,11.513,0,0,0,49,20.528v4.9H32.035A15.182,15.182,0,0,0,16.87,40.591V164.368a15.182,15.182,0,0,0,15.165,15.165H99.047a41.592,41.592,0,0,0,13.494,8.817H109.25A46.2,46.2,0,0,0,63.138,233H9.32a1.5,1.5,0,1,0,0,3ZM223.965,28.426A12.179,12.179,0,0,1,236.13,40.591V164.368a12.178,12.178,0,0,1-12.165,12.165H159.741a41.366,41.366,0,0,0,8.683-17.409h55.541a6.764,6.764,0,0,0,6.756-6.756V40.591a6.763,6.763,0,0,0-6.756-6.755H207V28.426ZM86.522,149.872a41.626,41.626,0,0,0,.472,6.252H32.035a3.76,3.76,0,0,1-3.756-3.756V40.591a3.76,3.76,0,0,1,3.756-3.755H49V86.479a11.513,11.513,0,0,0,11.5,11.5H179.2c.023,0,.044-.006.066-.007l1.691,1.691h-6.124a1.5,1.5,0,0,0-1.5,1.5v14.455a1.5,1.5,0,0,0,1.5,1.5h6.124l-4.33,4.33a1.5,1.5,0,0,0,0,2.121l10.221,10.221a1.5,1.5,0,0,0,2.121,0l4.331-4.33v6.124a1.5,1.5,0,0,0,1.5,1.5h14.455a1.5,1.5,0,0,0,1.5-1.5v-6.124l4.33,4.33a1.5,1.5,0,0,0,2.121,0l10.221-10.221a1.48,1.48,0,0,0,.294-.442v29.24a3.76,3.76,0,0,1-3.756,3.756H169.006a41.479,41.479,0,1,0-82.484-6.252ZM207,36.835h16.965a3.76,3.76,0,0,1,3.756,3.755V93.655a1.48,1.48,0,0,0-.294-.442L217.206,82.991a1.544,1.544,0,0,0-2.121,0l-4.33,4.33V81.2a1.5,1.5,0,0,0-1.5-1.5H207Zm20.721,85.056a1.48,1.48,0,0,0-.294-.442l-4.33-4.33h4.624Zm0-22.228H223.1l4.33-4.331a1.481,1.481,0,0,0,.294-.443ZM207.755,82.7v5.851a1.5,1.5,0,0,0,.986,1.409c.51.186,1.023.4,1.569.655a1.5,1.5,0,0,0,1.695-.3l4.141-4.141,8.1,8.1L220.1,98.414a1.5,1.5,0,0,0-.3,1.695c.256.549.47,1.062.654,1.568a1.5,1.5,0,0,0,1.41.987h5.851v11.455H221.87a1.5,1.5,0,0,0-1.41.987c-.185.507-.4,1.021-.654,1.568a1.5,1.5,0,0,0,.3,1.695l4.141,4.141-8.1,8.1L212,126.469a1.5,1.5,0,0,0-1.695-.3c-.547.256-1.061.47-1.568.654a1.5,1.5,0,0,0-.987,1.41v5.851H196.3v-5.851a1.5,1.5,0,0,0-.987-1.41c-.506-.184-1.019-.4-1.568-.654a1.5,1.5,0,0,0-1.695.3l-4.141,4.141-8.1-8.1,4.141-4.141a1.5,1.5,0,0,0,.3-1.695c-.255-.546-.469-1.06-.655-1.569a1.5,1.5,0,0,0-1.409-.986h-5.851V102.664h5.851a1.5,1.5,0,0,0,1.409-.986c.185-.508.4-1.021.655-1.569a1.5,1.5,0,0,0-.3-1.695l-4.141-4.141,8.1-8.1,4.141,4.141a1.5,1.5,0,0,0,1.695.3c.548-.256,1.061-.47,1.569-.655a1.5,1.5,0,0,0,.986-1.409V82.7ZM52,20.528a8.51,8.51,0,0,1,8.5-8.5h135a8.51,8.51,0,0,1,8.5,8.5V79.7h-9.2a1.5,1.5,0,0,0-1.5,1.5v6.124l-4.331-4.331a1.5,1.5,0,0,0-2.121,0L176.627,93.212a1.48,1.48,0,0,0-.235,1.767H60.5a8.51,8.51,0,0,1-8.5-8.5ZM19.87,164.368V40.591A12.179,12.179,0,0,1,32.035,28.426H49v5.409H32.035a6.763,6.763,0,0,0-6.756,6.755V152.368a6.764,6.764,0,0,0,6.756,6.756H87.575a41.366,41.366,0,0,0,8.683,17.409H32.035A12.178,12.178,0,0,1,19.87,164.368Zm69.652-14.5A38.478,38.478,0,1,1,128,188.349,38.522,38.522,0,0,1,89.522,149.872Zm19.728,41.478h37.5A43.2,43.2,0,0,1,189.874,233H66.126A43.2,43.2,0,0,1,109.25,191.349Z" fill="#3f3679"/><path d="M191.323,108.392a10.7,10.7,0,1,0,10.7-10.7A10.716,10.716,0,0,0,191.323,108.392Zm10.7-7.7a7.7,7.7,0,1,1-7.7,7.7A7.713,7.713,0,0,1,202.027,100.688Z" fill="#3f3679"/></svg>