<svg xmlns="http://www.w3.org/2000/svg" viewBox="0 0 256 256"><title>icons_</title><path d="M97.514,109.479V59.646a12.278,12.278,0,0,1,12.278-12.278h53.614l-8.39-11.05H129.233l-12.278-13.3H88.315A12.278,12.278,0,0,0,76.037,35.3v74.183a10.784,10.784,0,0,0,10.739,10.739h0A10.739,10.739,0,0,0,97.514,109.479Z" fill="#9e9e9e"/><path d="M86.037,109.48V35.3A12.278,12.278,0,0,1,98.315,23.018h-10A12.278,12.278,0,0,0,76.037,35.3V109.48a10.734,10.734,0,0,0,15.753,9.493A10.714,10.714,0,0,1,86.037,109.48Z" fill="#707070"/><rect x="86.776" y="31.466" width="83.99" height="75.991" fill="#cecece"/><rect x="160.766" y="31.465" width="10" height="75.99" fill="#e2e2e2"/><path d="M163.406,47.368H109.792A12.278,12.278,0,0,0,97.514,59.646v49.833a10.739,10.739,0,0,1-10.739,10.739h82.451a10.736,10.736,0,0,0,10.736-10.736V47.368Z" fill="#f8af23"/><path d="M169.963,47.369v62.114a10.736,10.736,0,0,1-10.736,10.736h10a10.736,10.736,0,0,0,10.736-10.736V47.369Z" fill="#f8d323"/><polygon points="21.11 176.922 43.654 176.922 47.59 190.162 74.427 190.162 74.427 222.009 21.11 222.009 21.11 176.922" fill="#63bce7"/><rect x="21.11" y="176.922" width="10" height="45.087" fill="#6377e7"/><polygon points="101.342 176.922 123.885 176.922 127.821 190.162 154.658 190.162 154.658 222.009 101.342 222.009 101.342 176.922" fill="#f46275"/><polygon points="181.573 176.922 204.116 176.922 208.052 190.162 234.89 190.162 234.89 222.009 181.573 222.009 181.573 176.922" fill="#cecece"/><rect x="224.89" y="190.162" width="10" height="31.847" fill="#e2e2e2"/><path d="M27.323,231.481h-18a1.5,1.5,0,1,0,0,3h18a1.5,1.5,0,1,0,0-3Z" fill="#3f3679"/><path d="M246.68,231.481h-18a1.5,1.5,0,0,0,0,3h18a1.5,1.5,0,0,0,0-3Z" fill="#3f3679"/><path d="M218.479,231.481H37.521a1.5,1.5,0,0,0,0,3H218.479a1.5,1.5,0,0,0,0-3Z" fill="#3f3679"/><path d="M9.32,223.509H246.68a1.5,1.5,0,0,0,0-3H236.39V190.161a1.5,1.5,0,0,0-1.5-1.5H209.731V159.223a6.508,6.508,0,0,0-6.5-6.5H129.5v-31h39.727a12.249,12.249,0,0,0,12.236-12.235V47.368a1.5,1.5,0,0,0-1.5-1.5h-7.7v-14.4a1.5,1.5,0,0,0-1.5-1.5H125.347a1.413,1.413,0,0,0-.121-.2L118.057,22a1.5,1.5,0,0,0-1.1-.482H88.315A13.793,13.793,0,0,0,74.538,35.3v74.183a12.285,12.285,0,0,0,12.238,12.238H126.5v31H52.769a6.508,6.508,0,0,0-6.5,6.5v21.229l-1.177-3.958a1.5,1.5,0,0,0-1.438-1.072H21.11a1.5,1.5,0,0,0-1.5,1.5v43.587H9.32a1.5,1.5,0,1,0,0,3ZM169.266,45.868H109.792A13.793,13.793,0,0,0,96.015,59.646v46.31H88.276V32.966h80.99Zm-82.49,72.85a9.282,9.282,0,0,1-9.238-9.238V35.3A10.79,10.79,0,0,1,88.315,24.519H116.3l5.029,5.447H86.776a1.5,1.5,0,0,0-1.5,1.5v75.99a1.5,1.5,0,0,0,1.5,1.5h9.239v.523A9.249,9.249,0,0,1,86.776,118.718Zm12.239-9.238V59.646a10.79,10.79,0,0,1,10.778-10.778h68.67v60.614a9.246,9.246,0,0,1-9.236,9.235H94.795A12.215,12.215,0,0,0,99.015,109.479Zm3.827,111.029V178.422h19.924l3.618,12.167a1.5,1.5,0,0,0,1.438,1.072h25.337v28.848Zm130.548,0H183.073V178.422H203l3.617,12.167a1.5,1.5,0,0,0,1.438,1.072H233.39Zm-30.158-64.786a3.5,3.5,0,0,1,3.5,3.5v21.231l-1.177-3.96a1.5,1.5,0,0,0-1.438-1.072H181.573a1.5,1.5,0,0,0-1.5,1.5v43.587H156.158V190.161a1.5,1.5,0,0,0-1.5-1.5H129.429a1.484,1.484,0,0,0,.071-.433V155.723Zm-150.463,0H126.5v24.731l-1.177-3.959a1.5,1.5,0,0,0-1.438-1.072H101.342a1.5,1.5,0,0,0-1.5,1.5v43.587H75.927V190.161a1.5,1.5,0,0,0-1.5-1.5H49.269V159.223A3.5,3.5,0,0,1,52.769,155.723Zm-30.158,22.7H42.535l3.617,12.167a1.5,1.5,0,0,0,1.438,1.072H72.927v28.848H22.61Z" fill="#3f3679"/><path d="M99.859,40.641h57.824a1.5,1.5,0,0,0,0-3H99.859a1.5,1.5,0,1,0,0,3Z" fill="#3f3679"/><path d="M160.19,83.87a22.685,22.685,0,0,0-21.906-22.643l3.4-3.4a1.5,1.5,0,0,0-2.121-2.121l-5.939,5.939a1.5,1.5,0,0,0,0,2.121l5.939,5.939a1.5,1.5,0,0,0,2.121-2.121l-3.338-3.337a19.65,19.65,0,1,1-18.229,28.758,1.5,1.5,0,0,0-2.655,1.4A22.664,22.664,0,0,0,160.19,83.87Z" fill="#3f3679"/></svg>