<svg xmlns="http://www.w3.org/2000/svg" viewBox="0 0 256 256"><title>icons_</title><path d="M160.09,143.166h28.692a42.654,42.654,0,0,1,42.654,42.654v52.154a0,0,0,0,1,0,0h-114a0,0,0,0,1,0,0V185.82A42.654,42.654,0,0,1,160.09,143.166Z" fill="#cecece"/><path d="M170.09,143.166h-10a42.654,42.654,0,0,0-42.654,42.654v52.154h10V185.82A42.654,42.654,0,0,1,170.09,143.166Z" fill="#afafaf"/><path d="M178.782,143.166h10a42.654,42.654,0,0,1,42.654,42.654v52.154h-10V185.82A42.654,42.654,0,0,0,178.782,143.166Z" fill="#e2e2e2"/><rect x="163.936" y="118.499" width="21" height="33" rx="10.5" ry="10.5" fill="#f8af23"/><path d="M163.936,129v12a10.5,10.5,0,0,0,6.4,9.667V119.333A10.5,10.5,0,0,0,163.936,129Z" fill="#f87023"/><circle cx="147.436" cy="98.131" r="5.75" fill="#f87023"/><circle cx="201.436" cy="98.131" r="5.75" fill="#f8af23"/><rect x="147.436" y="65.467" width="54" height="70.497" rx="27" ry="27" fill="#f8af23"/><path d="M157.436,108.964v-16.5a27,27,0,0,1,22-26.531,26.988,26.988,0,0,0-32,26.531v16.5a26.987,26.987,0,0,0,32,26.53A27,27,0,0,1,157.436,108.964Z" fill="#f87023"/><polygon points="195.406 85.731 198.186 97.393 201.436 97.393 201.436 82.458 195.406 82.458 195.406 85.731" fill="#cecece"/><path d="M147.435,97.393h3.153l9.163-9.853s36.474,5.135,48.634-9.6a14.76,14.76,0,0,0,3.039-14.191c-3-10.4-14.161-16.152-24.573-13.205l-35.7,10.1a8.183,8.183,0,0,0-5.689,5.808h0a7.056,7.056,0,0,0-3.555,7.877Z" fill="#cecece"/><path d="M155.465,66.454a8.183,8.183,0,0,1,5.689-5.808l35.7-10.1c.178-.05.357-.078.535-.123a20.3,20.3,0,0,0-10.535.123l-35.7,10.1a8.183,8.183,0,0,0-5.689,5.808,7.056,7.056,0,0,0-3.555,7.877l5.525,23.062h3.153l5.444-5.854L151.91,74.331A7.056,7.056,0,0,1,155.465,66.454Z" fill="#afafaf"/><circle cx="162.936" cy="102.531" r="3.344" fill="#3f3679"/><circle cx="185.936" cy="102.531" r="3.344" fill="#3f3679"/><path d="M102.429,146.187h29.54a0,0,0,0,1,0,0V223.2a14.77,14.77,0,0,1-14.77,14.77h0a14.77,14.77,0,0,1-14.77-14.77V146.187A0,0,0,0,1,102.429,146.187Z" fill="#cecece"/><path d="M112.429,223.2V146.187h-10V223.2a14.77,14.77,0,0,0,14.77,14.77h0a14.708,14.708,0,0,0,5-.887A14.762,14.762,0,0,1,112.429,223.2Z" fill="#afafaf"/><path d="M128.678,146.187V140.77a11.083,11.083,0,0,0-11.083-11.083H99.845L89.132,127.66a4.615,4.615,0,0,0-5.225,6.027h0a18.472,18.472,0,0,0,17.48,12.5Z" fill="#f8af23"/><path d="M93.907,133.687h0a4.583,4.583,0,0,1,1.246-4.888l-6.021-1.139a4.615,4.615,0,0,0-5.225,6.027h0a18.472,18.472,0,0,0,17.48,12.5h10A18.472,18.472,0,0,1,93.907,133.687Z" fill="#f87023"/><path d="M96.126,43.956H78.663a2.362,2.362,0,0,1-2.347-2.1L72.66,9.687a2.362,2.362,0,0,1,3.622-2.256l9.839,6.3a2.362,2.362,0,0,0,2.549,0l9.839-6.3a2.362,2.362,0,0,1,3.622,2.256L98.474,41.861A2.362,2.362,0,0,1,96.126,43.956Z" fill="#63bce7"/><path d="M86.316,41.861l-3.432-30.2-6.6-4.231A2.362,2.362,0,0,0,72.66,9.687l3.656,32.174a2.362,2.362,0,0,0,2.347,2.1h10A2.362,2.362,0,0,1,86.316,41.861Z" fill="#6377e7"/><path d="M83.535,33.185h7.718a30,30,0,0,1,30,30v56.148a0,0,0,0,1,0,0H53.535a0,0,0,0,1,0,0V63.185A30,30,0,0,1,83.535,33.185Z" fill="#63bce7"/><path d="M92.395,33.213c-.379-.014-.758-.029-1.141-.029H83.535a30,30,0,0,0-30,30v56.148h10V63.185A30,30,0,0,1,92.395,33.213Z" fill="#6377e7"/><rect x="69.541" y="27.509" width="35.707" height="5.675" rx="2.838" ry="2.838" fill="#9e9e9e"/><path d="M79.541,30.347a2.846,2.846,0,0,1,2.838-2.838h-10a2.838,2.838,0,0,0,0,5.675h10A2.846,2.846,0,0,1,79.541,30.347Z" fill="#707070"/><circle cx="87.395" cy="76.259" r="18.715" fill="#f8af23"/><path d="M95.321,76.249v5.44a1.493,1.493,0,0,1-.477,1.1,1.561,1.561,0,0,1-1.131.468H88.927v3.832A1.5,1.5,0,0,1,88.46,88.2a1.524,1.524,0,0,1-1.1.458,1.567,1.567,0,0,1-1.14-.458,1.5,1.5,0,0,1-.468-1.112V83.222H81a1.522,1.522,0,0,1-1.1-.458,1.5,1.5,0,0,1-.468-1.112A1.563,1.563,0,0,1,81,80.081h11.1V77.82H81.039a1.53,1.53,0,0,1-1.112-.449,1.5,1.5,0,0,1-.458-1.122V70.828a1.564,1.564,0,0,1,1.57-1.57h4.711V65.426a1.551,1.551,0,0,1,1.627-1.57,1.494,1.494,0,0,1,1.094.458,1.515,1.515,0,0,1,.458,1.112v3.832H93.75a1.562,1.562,0,0,1,1.131.467,1.5,1.5,0,0,1,.477,1.1,1.628,1.628,0,0,1-1.608,1.608h-11.1v2.243H93.713a1.562,1.562,0,0,1,1.131.468A1.494,1.494,0,0,1,95.321,76.249Z" fill="#3f3679"/><rect x="24.564" y="109.872" width="47.295" height="9.46" rx="4.73" ry="4.73" fill="#f8af23"/><rect x="24.564" y="100.412" width="47.295" height="9.46" rx="4.73" ry="4.73" fill="#f8af23"/><path d="M34.564,105.142a4.73,4.73,0,0,1,4.73-4.73h-10a4.73,4.73,0,1,0,0,9.46h10A4.73,4.73,0,0,1,34.564,105.142Z" fill="#f87023"/><path d="M34.564,114.6a4.73,4.73,0,0,1,4.73-4.73h-10a4.73,4.73,0,1,0,0,9.46h10A4.73,4.73,0,0,1,34.564,114.6Z" fill="#f87023"/><rect x="24.564" y="90.952" width="47.295" height="9.46" rx="4.73" ry="4.73" fill="#f8af23"/><path d="M34.564,95.682a4.73,4.73,0,0,1,4.73-4.73h-10a4.73,4.73,0,0,0,0,9.46h10A4.73,4.73,0,0,1,34.564,95.682Z" fill="#f87023"/><path d="M27.323,247.447h-18a1.5,1.5,0,1,0,0,3h18a1.5,1.5,0,1,0,0-3Z" fill="#3f3679"/><path d="M246.68,247.447h-18a1.5,1.5,0,0,0,0,3h18a1.5,1.5,0,0,0,0-3Z" fill="#3f3679"/><path d="M218.479,247.447H37.521a1.5,1.5,0,0,0,0,3H218.479a1.5,1.5,0,0,0,0-3Z" fill="#3f3679"/><path d="M9.32,239.475H246.68a1.5,1.5,0,0,0,0-3H232.936V185.82a44.2,44.2,0,0,0-44.154-44.154H186.4c.012-.222.034-.442.034-.667v-6.193a28.533,28.533,0,0,0,16.5-25.841v-3.742a7.248,7.248,0,0,0,0-14.184v-6.8a22.8,22.8,0,0,0,6.607-5.348,16.2,16.2,0,0,0,3.323-15.562C209.673,52.266,197.82,45.885,186.443,49.1l-35.7,10.1a9.723,9.723,0,0,0-6.549,6.254,8.557,8.557,0,0,0-3.746,9.225l4.031,16.826a7.251,7.251,0,0,0,1.453,13.716v3.742a28.533,28.533,0,0,0,16.5,25.841V141c0,.225.021.445.034.667h-2.38a44.146,44.146,0,0,0-26.622,8.939v-4.419a1.5,1.5,0,0,0-1.5-1.5h-1.791v-3.916a12.6,12.6,0,0,0-12.583-12.584H99.985l-10.574-2a6.115,6.115,0,0,0-6.923,7.985,19.962,19.962,0,0,0,18.441,13.5V223.2a16.251,16.251,0,0,0,6.889,13.271H9.32a1.5,1.5,0,1,0,0,3Zm179.462-94.809a41.2,41.2,0,0,1,41.154,41.154v50.654h-21V181.247a1.5,1.5,0,0,0-3,0v55.228H175.908a1.5,1.5,0,0,0,.028-.278V152.9a12.023,12.023,0,0,0,9.922-8.229Zm16.9-46.535a4.246,4.246,0,0,1-2.75,3.963V94.168A4.246,4.246,0,0,1,205.686,98.131Zm-5.75-2.238h-.565l-2.182-9.151c.952-.322,1.875-.663,2.747-1.035Zm-48.373-33.8,35.7-10.1c9.8-2.771,19.987,2.692,22.724,12.179a13.348,13.348,0,0,1-2.754,12.819c-10.634,12.886-41.78,9.729-46.617,9.152L147.12,66.222A6.7,6.7,0,0,1,151.563,62.089ZM145.08,68.56l12.76,18.832-7.905,8.5h-1.316l-5.25-21.911A5.542,5.542,0,0,1,145.08,68.56Zm-1.894,29.571a4.241,4.241,0,0,1,2.019-3.61l.739,3.085c0,.027-.008.053-.008.081v4.407A4.246,4.246,0,0,1,143.186,98.131Zm5.75,10.834V98.893h1.652a1.5,1.5,0,0,0,1.1-.479l8.638-9.289a117.522,117.522,0,0,0,19.262.638,71.954,71.954,0,0,0,14.726-2.147l2.413,10.125a1.5,1.5,0,0,0,1.459,1.152h1.75v10.072a25.5,25.5,0,1,1-51,0Zm25.5,28.5a28.362,28.362,0,0,0,9-1.465v5a9,9,0,0,1-18,0v-5A28.362,28.362,0,0,0,174.436,137.465Zm-14.346,7.2h2.924a12.023,12.023,0,0,0,9.922,8.229v83.3a1.5,1.5,0,0,0,.028.278H126.58a16.251,16.251,0,0,0,6.889-13.271V154.442A41.142,41.142,0,0,1,160.09,144.666ZM85.327,133.2a3.117,3.117,0,0,1,2.935-4.123,3.219,3.219,0,0,1,.592.056l10.712,2.026a1.482,1.482,0,0,0,.279.026h17.75a9.6,9.6,0,0,1,9.583,9.584v3.916H101.387A16.97,16.97,0,0,1,85.327,133.2Zm18.6,90V147.687h26.54V223.2a13.27,13.27,0,1,1-26.54,0Z" fill="#3f3679"/><path d="M174.436,116.833a1.5,1.5,0,0,0,1.5-1.5V105.8a1.5,1.5,0,0,0-3,0v9.531A1.5,1.5,0,0,0,174.436,116.833Z" fill="#3f3679"/><path d="M167.7,94.541H158.17a1.5,1.5,0,0,0,0,3H167.7a1.5,1.5,0,0,0,0-3Z" fill="#3f3679"/><path d="M181.17,97.541H190.7a1.5,1.5,0,0,0,0-3H181.17a1.5,1.5,0,0,0,0,3Z" fill="#3f3679"/><path d="M179.516,123.833a1.5,1.5,0,1,0-1.952-2.277,4.925,4.925,0,0,1-6.255,0,1.5,1.5,0,1,0-1.952,2.277,7.8,7.8,0,0,0,10.16,0Z" fill="#3f3679"/><path d="M87.395,96.474A20.215,20.215,0,1,0,67.18,76.259,20.238,20.238,0,0,0,87.395,96.474Zm0-37.43A17.215,17.215,0,1,1,70.18,76.259,17.235,17.235,0,0,1,87.395,59.044Z" fill="#3f3679"/><path d="M23.064,114.6a6.237,6.237,0,0,0,6.23,6.23h91.96a1.5,1.5,0,0,0,1.5-1.5V63.185a31.539,31.539,0,0,0-18.774-28.8,4.331,4.331,0,0,0-1.569-8.37h-.626L103.62,9.856A3.862,3.862,0,0,0,97.7,6.169l-9.839,6.3a.859.859,0,0,1-.931,0l-9.838-6.3a3.862,3.862,0,0,0-5.921,3.688L73,26.01h-.626a4.331,4.331,0,0,0-1.569,8.37,31.539,31.539,0,0,0-18.774,28.8V89.452H29.294a6.224,6.224,0,0,0-4.044,10.96,6.21,6.21,0,0,0,0,9.46A6.215,6.215,0,0,0,23.064,114.6ZM74.15,9.519a.863.863,0,0,1,1.322-.824L85.311,15a3.838,3.838,0,0,0,.584.3v6.813a1.5,1.5,0,1,0,3,0V15.3a3.8,3.8,0,0,0,.584-.3l9.839-6.3a.863.863,0,0,1,1.322.824L98.766,26.01H76.024ZM72.379,31.685a1.337,1.337,0,1,1,0-2.675h30.032a1.337,1.337,0,1,1,0,2.675H72.379Zm-17.343,31.5a28.532,28.532,0,0,1,28.5-28.5h7.718a28.532,28.532,0,0,1,28.5,28.5v54.648H72.445a6.2,6.2,0,0,0-1.273-7.961,6.21,6.21,0,0,0,0-9.46,6.224,6.224,0,0,0-4.044-10.96H55.036Zm-28.972,32.5a3.234,3.234,0,0,1,3.23-3.229H67.128a3.23,3.23,0,1,1,0,6.46H29.294A3.234,3.234,0,0,1,26.064,95.682Zm0,9.461a3.234,3.234,0,0,1,3.23-3.23H67.128a3.23,3.23,0,1,1,0,6.46H29.294A3.234,3.234,0,0,1,26.064,105.143Zm41.064,6.229a3.23,3.23,0,0,1,0,6.461H29.294a3.23,3.23,0,0,1,0-6.461Z" fill="#3f3679"/></svg>