<svg xmlns="http://www.w3.org/2000/svg" viewBox="0 0 256 256"><title>icons_</title><rect x="18.37" y="57.706" width="219.26" height="151.106" rx="13.665" ry="13.665" fill="#cecece"/><path d="M28.37,195.147V71.371A13.681,13.681,0,0,1,42.035,57.706h-10A13.681,13.681,0,0,0,18.37,71.371V195.147a13.681,13.681,0,0,0,13.665,13.665h10A13.681,13.681,0,0,1,28.37,195.147Z" fill="#afafaf"/><path d="M227.63,195.147V71.371a13.681,13.681,0,0,0-13.665-13.665h10A13.681,13.681,0,0,1,237.63,71.371V195.147a13.681,13.681,0,0,1-13.665,13.665h-10A13.681,13.681,0,0,0,227.63,195.147Z" fill="#e2e2e2"/><rect x="26.779" y="66.115" width="202.442" height="122.288" rx="5.256" ry="5.256" fill="#63bce7"/><path d="M36.779,183.147V71.37a5.271,5.271,0,0,1,5.256-5.256h-10a5.271,5.271,0,0,0-5.256,5.256V183.147a5.271,5.271,0,0,0,5.256,5.256h10A5.271,5.271,0,0,1,36.779,183.147Z" fill="#6377e7"/><path d="M219.221,183.147V71.37a5.271,5.271,0,0,0-5.256-5.256h10a5.271,5.271,0,0,1,5.256,5.256V183.147a5.271,5.271,0,0,1-5.256,5.256h-10A5.271,5.271,0,0,0,219.221,183.147Z" fill="#63e2e7"/><rect x="89.809" y="230.97" width="76.383" height="9.197" fill="#9e9e9e"/><rect x="89.809" y="230.97" width="10" height="9.197" fill="#707070"/><rect x="100.67" y="208.812" width="54.659" height="22.158" fill="#cecece"/><rect x="100.67" y="208.812" width="10" height="22.158" fill="#afafaf"/><circle cx="128" cy="198.607" r="4.5" fill="#9e9e9e"/><rect x="158.699" y="99.04" width="45.833" height="63.916" rx="22.917" ry="22.917" fill="#9e9e9e"/><circle cx="174.13" cy="109.604" r="1.712" fill="#3f3679"/><circle cx="189.101" cy="109.604" r="1.712" fill="#3f3679"/><circle cx="83.429" cy="69.919" r="65.059" fill="#f8af23"/><path d="M28.37,69.919A65.05,65.05,0,0,1,88.429,5.07c-1.652-.125-3.316-.21-5-.21a65.059,65.059,0,1,0,0,130.118c1.684,0,3.348-.084,5-.21A65.05,65.05,0,0,1,28.37,69.919Z" fill="#f87023"/><polygon points="116.453 36.895 113.456 33.897 106.096 41.258 104.926 43.993 104.926 43.993 75.186 73.734 79.614 78.162 109.355 48.421 112.09 47.252 119.451 39.892 116.453 36.895" fill="#cecece"/><rect x="59.355" y="61.152" width="15.932" height="49.751" rx="7.966" ry="7.966" transform="translate(80.548 -22.406) rotate(45)" fill="#9e9e9e"/><path d="M107.973,84.819,68.529,45.375A12.273,12.273,0,0,0,54.1,30.945l8.529,8.529a1.716,1.716,0,0,1,.413,1.76l-1.816,5.4a1.715,1.715,0,0,1-1.08,1.08l-5.4,1.816a1.716,1.716,0,0,1-1.76-.413l-8.529-8.529a12.273,12.273,0,0,0,14.43,14.43L98.329,94.463a12.273,12.273,0,1,0,9.644-9.644Zm8.975,13.8-4.819,4.819-6.583-1.764-1.764-6.583,4.819-4.819,6.582,1.764Z" fill="#cecece"/><path d="M128,204.607a6,6,0,1,0-6-6A6.007,6.007,0,0,0,128,204.607Zm0-9a3,3,0,1,1-3,3A3,3,0,0,1,128,195.607Z" fill="#3f3679"/><path d="M27.323,249.641h-18a1.5,1.5,0,1,0,0,3h18a1.5,1.5,0,0,0,0-3Z" fill="#3f3679"/><path d="M246.68,249.641h-18a1.5,1.5,0,0,0,0,3h18a1.5,1.5,0,1,0,0-3Z" fill="#3f3679"/><path d="M218.479,249.641H37.521a1.5,1.5,0,0,0,0,3H218.479a1.5,1.5,0,0,0,0-3Z" fill="#3f3679"/><path d="M9.32,241.667H246.68a1.5,1.5,0,0,0,0-3H167.691v-7.7a1.5,1.5,0,0,0-1.5-1.5H156.83V210.312h67.136a15.182,15.182,0,0,0,15.165-15.164V71.371a15.182,15.182,0,0,0-15.165-15.165h-75.4A66.559,66.559,0,0,0,16.87,69.919V195.147a15.182,15.182,0,0,0,15.165,15.164H99.17V229.47H89.809a1.5,1.5,0,0,0-1.5,1.5v7.7H9.32a1.5,1.5,0,1,0,0,3ZM28.279,107.145A66.542,66.542,0,0,0,149.988,69.919c0-.772-.032-1.538-.058-2.3h74.036a3.76,3.76,0,0,1,3.756,3.755V183.147a3.76,3.76,0,0,1-3.756,3.755H32.035a3.76,3.76,0,0,1-3.756-3.755ZM83.429,6.359a63.56,63.56,0,1,1-63.56,63.56A63.631,63.631,0,0,1,83.429,6.359ZM19.87,195.147V89.7a66.174,66.174,0,0,0,5.43,12.591,1.486,1.486,0,0,0-.021.211v80.647a6.763,6.763,0,0,0,6.756,6.755H223.965a6.763,6.763,0,0,0,6.756-6.755V71.37a6.763,6.763,0,0,0-6.756-6.755H149.758c-.145-1.824-.354-3.629-.643-5.409h74.851A12.179,12.179,0,0,1,236.13,71.371V195.147a12.178,12.178,0,0,1-12.165,12.164H32.035A12.178,12.178,0,0,1,19.87,195.147Zm82.3,15.164H153.83V229.47H102.17ZM91.309,232.47h73.383v6.2H91.309Z" fill="#3f3679"/><path d="M149.228,156.946,145,161.46a1.5,1.5,0,0,0,2.19,2.051L151.417,159a11.986,11.986,0,0,1,4.23-2.915l5.741-2.38a24.4,24.4,0,0,0,40.463-.013l5.737,2.4A11.974,11.974,0,0,1,211.813,159l4.226,4.514a1.5,1.5,0,0,0,2.19-2.051L214,156.946a14.939,14.939,0,0,0-5.267-3.634l-5.352-2.235a24.254,24.254,0,0,0,2.648-11.038V132.5H217.02a1.5,1.5,0,0,0,0-3H206.032v-7.541a24.548,24.548,0,0,0-.159-2.747l2.853-1.168A14.961,14.961,0,0,0,214,114.4l4.226-4.514a1.5,1.5,0,0,0-2.19-2.051l-4.225,4.514a11.985,11.985,0,0,1-4.224,2.913l-2.252.922a24.505,24.505,0,0,0-11.821-15.541c.964-2.507,3.284-8.468,4.927-12.677a1.5,1.5,0,1,0-2.795-1.09l-2.711,6.959c-.677,1.741-1.353,3.482-1.858,4.79-.1.263-.187.486-.273.712a24.343,24.343,0,0,0-18.353-.012c-.085-.223-.168-.441-.268-.7-.5-1.308-1.181-3.049-1.858-4.79l-2.711-6.959a1.5,1.5,0,1,0-2.795,1.09c1.639,4.2,3.954,10.146,4.921,12.662a24.5,24.5,0,0,0-11.849,15.556l-2.251-.922a11.974,11.974,0,0,1-4.225-2.913l-4.226-4.514a1.5,1.5,0,0,0-2.19,2.051l4.226,4.514a14.95,14.95,0,0,0,5.277,3.638l2.852,1.168a24.548,24.548,0,0,0-.159,2.747V129.5H146.211a1.5,1.5,0,0,0,0,3H157.2v7.542a24.257,24.257,0,0,0,2.655,11.051l-5.35,2.218A14.961,14.961,0,0,0,149.228,156.946ZM160.2,140.04V121.957c0-.49.041-.971.074-1.453h19.843V161.38A21.428,21.428,0,0,1,160.2,140.04Zm22.917,21.34V120.5h19.843c.033.482.074.963.074,1.453V140.04A21.428,21.428,0,0,1,183.115,161.38Zm-1.5-60.84A21.449,21.449,0,0,1,202.56,117.5H160.671A21.449,21.449,0,0,1,181.615,100.54Z" fill="#3f3679"/><path d="M104.1,102.062a1.5,1.5,0,0,0,1.061,1.062l6.583,1.764a1.5,1.5,0,0,0,1.449-.389l4.819-4.818a1.5,1.5,0,0,0,.388-1.448l-1.764-6.583a1.5,1.5,0,0,0-1.061-1.062l-6.583-1.764a1.505,1.505,0,0,0-1.449.389l-4.819,4.818a1.5,1.5,0,0,0-.388,1.448Zm4.952-10.116,4.91,1.315,1.315,4.91-3.594,3.594-4.91-1.315-1.315-4.91Z" fill="#3f3679"/><path d="M58.371,56.625,70.853,69.108,48.67,91.291a9.466,9.466,0,0,0,13.387,13.387L84.24,82.495,96.723,94.978a13.773,13.773,0,1,0,11.765-11.765l-15.9-15.9,17.625-17.624,2.469-1.057a1.491,1.491,0,0,0,.471-.318l7.36-7.36a1.5,1.5,0,0,0,0-2.121l-5.995-5.994a1.544,1.544,0,0,0-2.121,0l-7.36,7.36a1.486,1.486,0,0,0-.318.471l-1.056,2.469L86.037,60.762l-15.9-15.9A13.773,13.773,0,0,0,53.808,29.473,1.5,1.5,0,0,0,53.038,32l8.529,8.529a.215.215,0,0,1,.052.222l-1.816,5.4a.215.215,0,0,1-.136.135l-5.4,1.816a.215.215,0,0,1-.223-.052l-8.529-8.529a1.5,1.5,0,0,0-2.532.77A13.772,13.772,0,0,0,58.371,56.625Zm1.565,45.932a6.466,6.466,0,0,1-9.145-9.145L72.974,71.229l9.144,9.145Zm46.051-57.5a1.486,1.486,0,0,0,.318-.471l1.056-2.469,6.095-6.1,3.873,3.873-6.095,6.095-2.469,1.057a1.491,1.491,0,0,0-.471.318L90.465,65.19l-2.307-2.307ZM51.924,50.18a3.2,3.2,0,0,0,3.3.773l5.4-1.816a3.228,3.228,0,0,0,2.024-2.023l1.816-5.4a3.2,3.2,0,0,0-.774-3.3L57.535,32.26a10.773,10.773,0,0,1,9.522,12.824,1.5,1.5,0,0,0,.411,1.352L106.913,85.88a1.506,1.506,0,0,0,1.352.411A10.773,10.773,0,1,1,99.8,94.754,1.5,1.5,0,0,0,99.39,93.4L59.946,53.958a1.5,1.5,0,0,0-1.061-.439,1.556,1.556,0,0,0-.292.028A10.772,10.772,0,0,1,45.77,44.025Z" fill="#3f3679"/></svg>