<svg xmlns="http://www.w3.org/2000/svg" viewBox="0 0 256 256"><title>icons_</title><rect x="18.37" y="48.19" width="219.26" height="151.106" rx="13.665" ry="13.665" fill="#cecece"/><path d="M28.37,185.631V61.855A13.681,13.681,0,0,1,42.035,48.19h-10A13.681,13.681,0,0,0,18.37,61.855V185.631A13.681,13.681,0,0,0,32.035,199.3h10A13.681,13.681,0,0,1,28.37,185.631Z" fill="#afafaf"/><path d="M227.63,185.631V61.855A13.681,13.681,0,0,0,213.965,48.19h10A13.681,13.681,0,0,1,237.63,61.855V185.631A13.681,13.681,0,0,1,223.965,199.3h-10A13.681,13.681,0,0,0,227.63,185.631Z" fill="#e2e2e2"/><rect x="26.779" y="56.599" width="202.442" height="122.288" rx="5.256" ry="5.256" fill="#63bce7"/><path d="M36.779,173.631V61.854A5.271,5.271,0,0,1,42.035,56.6h-10a5.271,5.271,0,0,0-5.256,5.256V173.631a5.271,5.271,0,0,0,5.256,5.256h10A5.271,5.271,0,0,1,36.779,173.631Z" fill="#6377e7"/><path d="M219.221,173.631V61.854a5.271,5.271,0,0,0-5.256-5.256h10a5.271,5.271,0,0,1,5.256,5.256V173.631a5.271,5.271,0,0,1-5.256,5.256h-10A5.271,5.271,0,0,0,219.221,173.631Z" fill="#63e2e7"/><rect x="89.809" y="221.454" width="76.383" height="9.197" fill="#9e9e9e"/><rect x="89.809" y="221.454" width="10" height="9.197" fill="#707070"/><rect x="100.67" y="199.296" width="54.659" height="22.158" fill="#cecece"/><rect x="100.67" y="199.296" width="10" height="22.158" fill="#afafaf"/><circle cx="128" cy="189.091" r="4.5" fill="#9e9e9e"/><circle cx="128" cy="94.001" r="68.25" fill="#f8af23"/><path d="M69.75,94A68.24,68.24,0,0,1,133,25.953c-1.653-.12-3.316-.2-5-.2a68.25,68.25,0,1,0,0,136.5c1.684,0,3.347-.082,5-.2A68.24,68.24,0,0,1,69.75,94Z" fill="#f87023"/><path d="M186.25,94A68.24,68.24,0,0,0,123,25.953c1.653-.12,3.316-.2,5-.2a68.25,68.25,0,1,1,0,136.5c-1.684,0-3.347-.082-5-.2A68.24,68.24,0,0,0,186.25,94Z" fill="#f8d323"/><rect x="105.083" y="67.85" width="45.833" height="63.916" rx="22.917" ry="22.917" fill="#9e9e9e"/><circle cx="120.514" cy="78.414" r="1.712" fill="#3f3679"/><circle cx="135.486" cy="78.414" r="1.712" fill="#3f3679"/><path d="M128,195.091a6,6,0,1,0-6-6A6.007,6.007,0,0,0,128,195.091Zm0-9a3,3,0,1,1-3,3A3,3,0,0,1,128,186.091Z" fill="#3f3679"/><path d="M27.323,240.124h-18a1.5,1.5,0,1,0,0,3h18a1.5,1.5,0,0,0,0-3Z" fill="#3f3679"/><path d="M246.68,240.124h-18a1.5,1.5,0,1,0,0,3h18a1.5,1.5,0,0,0,0-3Z" fill="#3f3679"/><path d="M218.479,240.124H37.521a1.5,1.5,0,1,0,0,3H218.479a1.5,1.5,0,1,0,0-3Z" fill="#3f3679"/><path d="M9.32,232.151H246.68a1.5,1.5,0,0,0,0-3H167.691v-7.7a1.5,1.5,0,0,0-1.5-1.5H156.83V200.8h67.136a15.182,15.182,0,0,0,15.165-15.165V61.854A15.182,15.182,0,0,0,223.965,46.69H179.192a69.562,69.562,0,0,0-49.692-22.4V14.376a1.5,1.5,0,1,0-3,0v9.913A69.562,69.562,0,0,0,76.8,46.7c-.037,0-.072-.011-.11-.011H32.035A15.182,15.182,0,0,0,16.87,61.854V185.631A15.182,15.182,0,0,0,32.035,200.8H99.17v19.158H89.809a1.5,1.5,0,0,0-1.5,1.5v7.7H9.32a1.5,1.5,0,1,0,0,3ZM126.5,27.289v9.837a1.5,1.5,0,0,0,3,0V27.289A66.8,66.8,0,0,1,194.712,92.5h-9.837a1.5,1.5,0,0,0,0,3h9.837A66.8,66.8,0,0,1,129.5,160.713v-9.837a1.5,1.5,0,0,0-3,0v9.837A66.8,66.8,0,0,1,61.288,95.5h9.837a1.5,1.5,0,0,0,0-3H61.288A66.8,66.8,0,0,1,126.5,27.289ZM48.375,92.5a1.5,1.5,0,0,0,0,3h9.913A69.806,69.806,0,0,0,126.5,163.713v9.913a1.5,1.5,0,0,0,3,0v-9.913A69.806,69.806,0,0,0,197.712,95.5h9.913a1.5,1.5,0,0,0,0-3h-9.913a69.3,69.3,0,0,0-9.937-34.4h36.19a3.76,3.76,0,0,1,3.756,3.756V173.631a3.76,3.76,0,0,1-3.756,3.756H32.035a3.76,3.76,0,0,1-3.756-3.756V61.854A3.76,3.76,0,0,1,32.035,58.1h36.19a69.3,69.3,0,0,0-9.937,34.4ZM19.87,185.631V61.854A12.178,12.178,0,0,1,32.035,49.69H74.173q-2.146,2.6-4.039,5.409h-38.1a6.764,6.764,0,0,0-6.756,6.756V173.631a6.764,6.764,0,0,0,6.756,6.756H223.965a6.764,6.764,0,0,0,6.756-6.756V61.854a6.764,6.764,0,0,0-6.756-6.756h-38.1q-1.891-2.8-4.039-5.409h42.138A12.178,12.178,0,0,1,236.13,61.854V185.631A12.179,12.179,0,0,1,223.965,197.8H32.035A12.179,12.179,0,0,1,19.87,185.631Zm82.3,15.165H153.83v19.158H102.17ZM91.309,222.954h73.383v6.2H91.309Z" fill="#3f3679"/><path d="M95.613,125.756l-4.226,4.513a1.5,1.5,0,1,0,2.189,2.051l4.227-4.514a11.957,11.957,0,0,1,4.229-2.915l5.741-2.38a24.4,24.4,0,0,0,40.462-.013l5.737,2.4a12.118,12.118,0,0,1,4.224,2.913l4.226,4.513a1.5,1.5,0,1,0,2.19-2.051l-4.226-4.513a14.928,14.928,0,0,0-5.268-3.635l-5.352-2.235a24.257,24.257,0,0,0,2.648-11.038v-7.542H163.4a1.5,1.5,0,0,0,0-3H152.417V90.767a24.548,24.548,0,0,0-.159-2.746l2.853-1.169a14.946,14.946,0,0,0,5.277-3.638l4.226-4.513a1.5,1.5,0,1,0-2.19-2.051L158.2,81.164a12.123,12.123,0,0,1-4.224,2.912L151.722,85A24.5,24.5,0,0,0,139.9,69.458c.963-2.507,3.284-8.469,4.927-12.678a1.5,1.5,0,0,0-2.795-1.091l-2.711,6.959c-.677,1.741-1.354,3.483-1.858,4.79-.1.263-.187.486-.273.713a24.341,24.341,0,0,0-18.353-.011c-.085-.223-.169-.442-.269-.7-.5-1.307-1.181-3.049-1.858-4.79L114,55.69a1.5,1.5,0,0,0-2.795,1.091c1.64,4.2,3.954,10.146,4.921,12.662A24.5,24.5,0,0,0,104.278,85l-2.251-.923A11.947,11.947,0,0,1,97.8,81.163L93.576,76.65A1.5,1.5,0,0,0,91.387,78.7l4.226,4.513a14.937,14.937,0,0,0,5.277,3.639l2.853,1.169a24.548,24.548,0,0,0-.159,2.746v7.541H92.6a1.5,1.5,0,0,0,0,3h10.988v7.542a24.258,24.258,0,0,0,2.655,11.051l-5.349,2.218A14.936,14.936,0,0,0,95.613,125.756Zm10.971-16.907V90.767c0-.49.041-.971.074-1.453H126.5V130.19A21.428,21.428,0,0,1,106.583,108.85ZM129.5,130.19V89.314h19.843c.033.482.074.963.074,1.453V108.85A21.428,21.428,0,0,1,129.5,130.19ZM128,69.351a21.449,21.449,0,0,1,20.944,16.963H107.056A21.449,21.449,0,0,1,128,69.351Z" fill="#3f3679"/></svg>