<svg xmlns="http://www.w3.org/2000/svg" viewBox="0 0 256 256"><title>icons_</title><rect x="18.37" y="51.439" width="219.26" height="151.106" rx="13.665" ry="13.665" fill="#cecece"/><path d="M28.37,188.88V65.1A13.681,13.681,0,0,1,42.035,51.439h-10A13.681,13.681,0,0,0,18.37,65.1V188.88a13.681,13.681,0,0,0,13.665,13.665h10A13.681,13.681,0,0,1,28.37,188.88Z" fill="#afafaf"/><path d="M227.63,188.88V65.1a13.681,13.681,0,0,0-13.665-13.665h10A13.681,13.681,0,0,1,237.63,65.1V188.88a13.681,13.681,0,0,1-13.665,13.665h-10A13.681,13.681,0,0,0,227.63,188.88Z" fill="#e2e2e2"/><rect x="26.779" y="59.848" width="202.442" height="122.288" rx="5.256" ry="5.256" fill="#63bce7"/><path d="M36.779,176.88V65.1a5.271,5.271,0,0,1,5.256-5.256h-10A5.271,5.271,0,0,0,26.779,65.1V176.88a5.271,5.271,0,0,0,5.256,5.256h10A5.271,5.271,0,0,1,36.779,176.88Z" fill="#6377e7"/><path d="M219.221,176.88V65.1a5.271,5.271,0,0,0-5.256-5.256h10a5.271,5.271,0,0,1,5.256,5.256V176.88a5.271,5.271,0,0,1-5.256,5.256h-10A5.271,5.271,0,0,0,219.221,176.88Z" fill="#63e2e7"/><rect x="89.809" y="224.703" width="76.383" height="9.197" fill="#9e9e9e"/><rect x="89.809" y="224.703" width="10" height="9.197" fill="#707070"/><rect x="100.67" y="202.545" width="54.659" height="22.158" fill="#cecece"/><rect x="100.67" y="202.545" width="10" height="22.158" fill="#afafaf"/><circle cx="128" cy="192.34" r="4.5" fill="#9e9e9e"/><rect x="105.083" y="92.773" width="45.833" height="63.916" rx="22.917" ry="22.917" fill="#9e9e9e"/><circle cx="120.514" cy="103.337" r="1.712" fill="#3f3679"/><circle cx="135.486" cy="103.337" r="1.712" fill="#3f3679"/><path d="M123.2,13.788,92.232,63.456a5.651,5.651,0,0,0,4.8,8.642h61.945a5.651,5.651,0,0,0,4.8-8.642L132.8,13.788A5.651,5.651,0,0,0,123.2,13.788Z" fill="#f8af23"/><path d="M102.232,63.456,133,14.116l-.2-.328a5.652,5.652,0,0,0-9.591,0L92.232,63.456a5.652,5.652,0,0,0,4.8,8.642h10A5.652,5.652,0,0,1,102.232,63.456Z" fill="#f87023"/><path d="M153.768,63.456,123,14.116l.2-.328a5.652,5.652,0,0,1,9.591,0l30.973,49.668a5.652,5.652,0,0,1-4.8,8.642h-10A5.652,5.652,0,0,0,153.768,63.456Z" fill="#f8d323"/><path d="M129.258,25.7c2.07,0,2.167,1.252,2.07,3.563l-.867,16.514c-.1,1.685-.481,3.081-2.455,3.081s-2.359-1.4-2.455-3.081l-.867-16.514c-.145-2.311.048-3.563,2.118-3.563Zm-.626,30.716c1.829,0,2.7.915,2.7,2.744v1.252c0,1.829-.867,2.744-2.7,2.744h-1.252c-1.829,0-2.7-.915-2.7-2.744V59.165c0-1.829.867-2.744,2.7-2.744Z" fill="#f46275"/><path d="M128,198.34a6,6,0,1,0-6-6A6.007,6.007,0,0,0,128,198.34Zm0-9a3,3,0,1,1-3,3A3,3,0,0,1,128,189.34Z" fill="#3f3679"/><path d="M27.323,243.373h-18a1.5,1.5,0,0,0,0,3h18a1.5,1.5,0,1,0,0-3Z" fill="#3f3679"/><path d="M246.68,243.373h-18a1.5,1.5,0,0,0,0,3h18a1.5,1.5,0,0,0,0-3Z" fill="#3f3679"/><path d="M218.479,243.373H37.521a1.5,1.5,0,0,0,0,3H218.479a1.5,1.5,0,0,0,0-3Z" fill="#3f3679"/><path d="M9.32,235.4H246.68a1.5,1.5,0,0,0,0-3H167.691v-7.7a1.5,1.5,0,0,0-1.5-1.5h-9.362V204.045h67.137A15.182,15.182,0,0,0,239.13,188.88V65.1a15.182,15.182,0,0,0-15.164-15.165H157.107L134.068,12.994a7.152,7.152,0,0,0-12.137,0L98.893,49.939H32.034A15.182,15.182,0,0,0,16.87,65.1V188.88a15.182,15.182,0,0,0,15.164,15.165H99.171V223.2H89.809a1.5,1.5,0,0,0-1.5,1.5v7.7H9.32a1.5,1.5,0,0,0,0,3ZM124.477,14.582a4.153,4.153,0,0,1,7.047,0L162.5,64.249a4.152,4.152,0,0,1-3.523,6.349H97.027A4.152,4.152,0,0,1,93.5,64.25Zm-33.7,55.335A7.064,7.064,0,0,0,97.027,73.6h61.945a7.152,7.152,0,0,0,6.068-10.936l-.819-1.314h59.744a3.76,3.76,0,0,1,3.755,3.756V176.88a3.76,3.76,0,0,1-3.755,3.756H32.034a3.76,3.76,0,0,1-3.755-3.756V65.1a3.76,3.76,0,0,1,3.755-3.756H91.779l-.82,1.314A7.063,7.063,0,0,0,90.774,69.917ZM19.87,188.88V65.1A12.178,12.178,0,0,1,32.034,52.939H97.022l-3.373,5.409H32.034A6.763,6.763,0,0,0,25.279,65.1V176.88a6.763,6.763,0,0,0,6.755,6.756H223.966a6.763,6.763,0,0,0,6.755-6.756V65.1a6.763,6.763,0,0,0-6.755-6.756H162.351l-3.373-5.409h64.988A12.178,12.178,0,0,1,236.13,65.1V188.88a12.178,12.178,0,0,1-12.164,12.165H32.034A12.178,12.178,0,0,1,19.87,188.88Zm82.3,15.165h51.658V223.2H102.171ZM91.309,226.2h73.383v6.2H91.309Z" fill="#3f3679"/><path d="M95.612,150.68l-4.226,4.514a1.5,1.5,0,1,0,2.189,2.05L97.8,152.73a11.961,11.961,0,0,1,4.23-2.915l5.741-2.381a24.4,24.4,0,0,0,40.463-.013l5.738,2.4a11.958,11.958,0,0,1,4.225,2.912l4.226,4.514a1.5,1.5,0,1,0,2.189-2.05l-4.226-4.514a14.918,14.918,0,0,0-5.268-3.634l-5.352-2.234a24.258,24.258,0,0,0,2.648-11.038v-7.541H163.4a1.5,1.5,0,0,0,0-3H152.417V115.69a24.527,24.527,0,0,0-.159-2.746l2.852-1.169a14.931,14.931,0,0,0,5.277-3.638l4.226-4.514a1.5,1.5,0,1,0-2.189-2.05l-4.226,4.513A11.963,11.963,0,0,1,153.974,109l-2.251.922A24.5,24.5,0,0,0,139.9,94.381c.964-2.508,3.285-8.468,4.927-12.677a1.5,1.5,0,0,0-2.795-1.091l-2.711,6.959c-.677,1.741-1.354,3.482-1.858,4.79-.1.263-.187.486-.273.712a24.342,24.342,0,0,0-18.353-.011c-.085-.223-.169-.442-.269-.7-.5-1.308-1.181-3.049-1.858-4.79L114,80.613a1.5,1.5,0,0,0-2.795,1.091c1.639,4.2,3.955,10.146,4.921,12.661a24.5,24.5,0,0,0-11.849,15.556L102.026,109a11.968,11.968,0,0,1-4.225-2.912l-4.226-4.514a1.5,1.5,0,1,0-2.189,2.05l4.226,4.514a14.936,14.936,0,0,0,5.277,3.638l2.852,1.169a24.542,24.542,0,0,0-.159,2.746v7.542H92.6a1.5,1.5,0,0,0,0,3h10.987v7.541a24.258,24.258,0,0,0,2.655,11.051l-5.348,2.218A14.923,14.923,0,0,0,95.612,150.68Zm10.971-16.907V115.69c0-.49.041-.97.074-1.453H126.5v40.876A21.428,21.428,0,0,1,106.583,133.772ZM129.5,155.113V114.237h19.843c.033.482.074.962.074,1.453v18.083A21.428,21.428,0,0,1,129.5,155.113ZM128,94.273a21.449,21.449,0,0,1,20.945,16.964H107.055A21.449,21.449,0,0,1,128,94.273Z" fill="#3f3679"/><path d="M128.632,54.921h-1.251a3.878,3.878,0,0,0-4.2,4.244v1.252a3.878,3.878,0,0,0,4.2,4.244h1.251a3.878,3.878,0,0,0,4.2-4.244V59.165A3.878,3.878,0,0,0,128.632,54.921Zm1.2,5.5c0,1.081-.27,1.244-1.2,1.244h-1.251c-.927,0-1.2-.163-1.2-1.244V59.165c0-1.081.27-1.244,1.2-1.244h1.251c.927,0,1.2.163,1.2,1.244Z" fill="#3f3679"/><path d="M124.054,45.866c.171,2.983,1.5,4.5,3.953,4.5s3.781-1.513,3.953-4.5l.867-16.529c.072-1.744.052-3.158-.914-4.165a3.478,3.478,0,0,0-2.655-.961H126.8a3.527,3.527,0,0,0-2.724,1c-1,1.061-.986,2.633-.893,4.138Zm2.191-18.587a1.278,1.278,0,0,1,.558-.075h2.455c.318,0,.459.045.482.033a7.147,7.147,0,0,1,.09,1.951l-.865,16.506c-.1,1.667-.384,1.667-.958,1.667s-.863,0-.958-1.66l-.867-16.528A4.922,4.922,0,0,1,126.245,27.279Z" fill="#3f3679"/></svg>