<svg xmlns="http://www.w3.org/2000/svg" viewBox="0 0 256 256"><title>icons_</title><rect x="16.327" y="12.01" width="223.345" height="191.333" rx="15.327" ry="15.327" fill="#cecece"/><path d="M26.327,188.016V27.337A15.327,15.327,0,0,1,41.655,12.01h-10A15.327,15.327,0,0,0,16.327,27.337V188.016a15.327,15.327,0,0,0,15.327,15.327h10A15.327,15.327,0,0,1,26.327,188.016Z" fill="#afafaf"/><path d="M229.673,188.016V27.337A15.327,15.327,0,0,0,214.345,12.01h10a15.327,15.327,0,0,1,15.327,15.327V188.016a15.327,15.327,0,0,1-15.327,15.327h-10A15.327,15.327,0,0,0,229.673,188.016Z" fill="#e2e2e2"/><path d="M239.673,27.337a15.327,15.327,0,0,0-15.327-15.327H31.655A15.327,15.327,0,0,0,16.327,27.337V54.009H239.673Z" fill="#f8af23"/><path d="M41.655,12.009h-10A15.327,15.327,0,0,0,16.327,27.337V54.009h10V27.337A15.327,15.327,0,0,1,41.655,12.009Z" fill="#f87023"/><path d="M214.345,12.009h10a15.327,15.327,0,0,1,15.327,15.327V54.009h-10V27.337A15.327,15.327,0,0,0,214.345,12.009Z" fill="#f8d323"/><circle cx="43.688" cy="33.009" r="7" fill="#f46275"/><circle cx="70.65" cy="33.009" r="7" fill="#f46275"/><circle cx="97.612" cy="33.009" r="7" fill="#f46275"/><rect x="120.073" y="28.134" width="99.24" height="10.667" rx="5.333" ry="5.333" fill="#f46275"/><path d="M172.987,187.745c-.471,1.315-1,2.581-1.588,3.834l11.787,11.787L160.01,226.541l-11.787-11.787c-1.253.583-2.531,1.117-3.834,1.588v16.675H111.623V216.343c-1.3-.471-2.581-1.005-3.834-1.588L96,226.541,72.827,203.365l11.787-11.787c-.583-1.253-1.117-2.519-1.588-3.834H66.35V154.979H83.025c.471-1.3,1-2.581,1.588-3.834L72.827,139.358,96,116.182l11.787,11.8c1.253-.583,2.531-1.129,3.834-1.6V109.718h32.766v16.662c1.3.471,2.581,1.017,3.834,1.6l11.787-11.8,23.176,23.176L171.4,151.145c.583,1.253,1.117,2.531,1.588,3.834H189.65v32.766Z" fill="#63bce7"/><path d="M94.613,151.145,82.827,139.358,101,121.185l-5-5L72.827,139.358l11.786,11.786c-.583,1.253-1.117,2.531-1.588,3.834h10C93.5,153.676,94.03,152.4,94.613,151.145Z" fill="#6377e7"/><path d="M94.613,191.579c-.583-1.253-1.117-2.519-1.588-3.834h-10c.471,1.315,1,2.581,1.588,3.834L72.827,203.365,96,226.541l5-5L82.827,203.365Z" fill="#6377e7"/><rect x="66.35" y="154.979" width="10" height="32.766" fill="#6377e7"/><circle cx="128" cy="171.364" r="20.866" fill="#9e9e9e"/><path d="M135.895,60.868a4.7,4.7,0,0,0-6.056,2.746L117.359,96.8a4.7,4.7,0,1,0,8.8,3.31l12.48-33.186A4.7,4.7,0,0,0,135.895,60.868Z" fill="#3f3679"/><path d="M111.3,69.158a4.7,4.7,0,0,0-6.65,0l-9.379,9.379a4.7,4.7,0,0,0,0,6.65l9.379,9.379a4.7,4.7,0,0,0,6.65-6.65l-6.054-6.054,6.054-6.054A4.7,4.7,0,0,0,111.3,69.158Z" fill="#3f3679"/><path d="M160.727,78.537l-9.379-9.379a4.7,4.7,0,1,0-6.65,6.65l6.054,6.054L144.7,87.916a4.7,4.7,0,0,0,6.65,6.65l9.379-9.379A4.7,4.7,0,0,0,160.727,78.537Z" fill="#3f3679"/><path d="M53.744,70.965,34.266,90.443a.481.481,0,0,0,.34.821h7.656a.481.481,0,0,1,.481.481V120.58a.481.481,0,0,0,.481.481H64.943a.481.481,0,0,0,.481-.481V91.745a.481.481,0,0,1,.481-.481h7.656a.481.481,0,0,0,.34-.821L54.424,70.965A.481.481,0,0,0,53.744,70.965Z" fill="#63bce7"/><path d="M201.576,70.965,182.1,90.443a.481.481,0,0,0,.34.821h7.656a.481.481,0,0,1,.481.481V120.58a.481.481,0,0,0,.481.481h21.719a.481.481,0,0,0,.481-.481V91.745a.481.481,0,0,1,.481-.481h7.656a.481.481,0,0,0,.34-.821L202.256,70.965A.481.481,0,0,0,201.576,70.965Z" fill="#63bce7"/><path d="M43.688,24.509a8.5,8.5,0,1,0,8.5,8.5A8.51,8.51,0,0,0,43.688,24.509Zm0,14a5.5,5.5,0,1,1,5.5-5.5A5.506,5.506,0,0,1,43.688,38.509Z" fill="#3f3679"/><path d="M70.65,24.509a8.5,8.5,0,1,0,8.5,8.5A8.51,8.51,0,0,0,70.65,24.509Zm0,14a5.5,5.5,0,1,1,5.5-5.5A5.506,5.506,0,0,1,70.65,38.509Z" fill="#3f3679"/><path d="M97.612,24.509a8.5,8.5,0,1,0,8.5,8.5A8.51,8.51,0,0,0,97.612,24.509Zm0,14a5.5,5.5,0,1,1,5.5-5.5A5.506,5.506,0,0,1,97.612,38.509Z" fill="#3f3679"/><path d="M213.979,26.634H125.406a6.833,6.833,0,1,0,0,13.667h88.573a6.833,6.833,0,0,0,0-13.667Zm0,10.667H125.406a3.833,3.833,0,1,1,0-7.667h88.573a3.833,3.833,0,1,1,0,7.667Z" fill="#3f3679"/><path d="M27.323,242.491h-18a1.5,1.5,0,1,0,0,3h18a1.5,1.5,0,0,0,0-3Z" fill="#3f3679"/><path d="M246.68,242.491h-18a1.5,1.5,0,0,0,0,3h18a1.5,1.5,0,1,0,0-3Z" fill="#3f3679"/><path d="M218.479,242.491H37.521a1.5,1.5,0,0,0,0,3H218.479a1.5,1.5,0,0,0,0-3Z" fill="#3f3679"/><path d="M9.32,234.518H246.68a1.5,1.5,0,0,0,0-3H145.885V217.385c.659-.258,1.324-.536,2-.838L158.946,227.6a1.5,1.5,0,0,0,2.121,0l22.761-22.761h40.517a16.846,16.846,0,0,0,16.827-16.827V27.337a16.847,16.847,0,0,0-16.827-16.828H31.655A16.847,16.847,0,0,0,14.828,27.337V188.016a16.846,16.846,0,0,0,16.827,16.827H72.172L94.933,227.6a1.5,1.5,0,0,0,2.121,0l11.056-11.056c.681.3,1.346.58,2,.838v14.132H9.32a1.5,1.5,0,1,0,0,3ZM17.828,27.337A13.843,13.843,0,0,1,31.655,13.509h192.69a13.843,13.843,0,0,1,13.827,13.828V52.509H17.828Zm0,160.679V55.509H238.172V188.016a13.843,13.843,0,0,1-13.827,13.827H183.772l-10.589-10.589c.3-.68.58-1.345.838-2H189.65a1.5,1.5,0,0,0,1.5-1.5V154.979a1.5,1.5,0,0,0-1.5-1.5H174.021c-.258-.66-.536-1.325-.838-2l11.056-11.056a1.5,1.5,0,0,0,0-2.121l-23.172-23.172a1.544,1.544,0,0,0-2.121,0L147.89,126.18c-.68-.3-1.345-.58-2-.838V109.714a1.5,1.5,0,0,0-1.5-1.5H111.615a1.5,1.5,0,0,0-1.5,1.5v15.628c-.66.258-1.325.536-2,.838L97.054,115.124a1.544,1.544,0,0,0-2.121,0L71.76,138.3a1.5,1.5,0,0,0,0,2.121l11.056,11.056c-.3.68-.58,1.345-.838,2H66.35a1.5,1.5,0,0,0-1.5,1.5v32.771a1.5,1.5,0,0,0,1.5,1.5H81.979c.258.66.536,1.325.838,2L72.228,201.843H31.655A13.843,13.843,0,0,1,17.828,188.016Zm90.591,25.376a1.5,1.5,0,0,0-1.694.3L95.993,224.422,74.942,203.371l10.731-10.731a1.5,1.5,0,0,0,.3-1.7c-.6-1.288-1.107-2.5-1.547-3.708a1.5,1.5,0,0,0-1.409-.987H67.85V156.479H83.015a1.5,1.5,0,0,0,1.409-.987c.44-1.207.946-2.419,1.548-3.709a1.5,1.5,0,0,0-.3-1.695L74.942,139.357l21.051-21.051,10.731,10.731a1.5,1.5,0,0,0,1.695.3c1.29-.6,2.5-1.108,3.709-1.548a1.5,1.5,0,0,0,.987-1.409V111.214h29.771v15.165a1.5,1.5,0,0,0,.987,1.409c1.207.44,2.419.946,3.709,1.548a1.5,1.5,0,0,0,1.695-.3l10.731-10.731,21.051,21.051-10.731,10.731a1.5,1.5,0,0,0-.3,1.695c.6,1.29,1.108,2.5,1.548,3.709a1.5,1.5,0,0,0,1.409.987H188.15v29.771H172.985a1.5,1.5,0,0,0-1.409.987c-.44,1.207-.946,2.42-1.547,3.708a1.5,1.5,0,0,0,.3,1.7l10.731,10.731-21.051,21.051-10.731-10.731a1.5,1.5,0,0,0-1.694-.3c-1.292.6-2.5,1.108-3.709,1.547a1.5,1.5,0,0,0-.987,1.409v15.165H113.115V216.349a1.5,1.5,0,0,0-.987-1.409C110.923,214.5,109.71,213.994,108.418,213.392Z" fill="#3f3679"/><path d="M128,193.729a22.366,22.366,0,1,0-22.366-22.366A22.391,22.391,0,0,0,128,193.729ZM128,152a19.366,19.366,0,1,1-19.366,19.366A19.388,19.388,0,0,1,128,152Z" fill="#3f3679"/><path d="M66.924,120.58V92.764h6.637a1.981,1.981,0,0,0,1.4-3.382L55.486,69.906a1.966,1.966,0,0,0-1.4-.582h0a1.967,1.967,0,0,0-1.4.581L33.205,89.382a1.981,1.981,0,0,0,1.4,3.382h6.638V120.58a1.983,1.983,0,0,0,1.981,1.981H64.943A1.983,1.983,0,0,0,66.924,120.58Zm-3-28.835v27.816H44.244V91.745a1.983,1.983,0,0,0-1.981-1.981h-5.2L54.083,72.746,71.1,89.764h-5.2A1.983,1.983,0,0,0,63.924,91.745Z" fill="#3f3679"/><path d="M182.438,92.764h6.637V120.58a1.983,1.983,0,0,0,1.981,1.981h21.719a1.983,1.983,0,0,0,1.981-1.981V92.764h6.638a1.981,1.981,0,0,0,1.4-3.382L203.317,69.9a1.983,1.983,0,0,0-2.8,0L181.039,89.381a1.981,1.981,0,0,0,1.4,3.383Zm19.478-20.019,17.019,17.019h-5.2a1.983,1.983,0,0,0-1.981,1.981v27.816H192.076V91.745a1.983,1.983,0,0,0-1.981-1.981h-5.2Z" fill="#3f3679"/></svg>