<svg xmlns="http://www.w3.org/2000/svg" viewBox="0 0 256 256"><title>icons_</title><rect x="16.327" y="26.847" width="223.345" height="191.333" rx="15.327" ry="15.327" fill="#cecece"/><path d="M26.327,202.853V42.174A15.327,15.327,0,0,1,41.655,26.847h-10A15.327,15.327,0,0,0,16.327,42.174V202.853A15.327,15.327,0,0,0,31.655,218.18h10A15.327,15.327,0,0,1,26.327,202.853Z" fill="#afafaf"/><path d="M229.673,202.853V42.174a15.327,15.327,0,0,0-15.327-15.327h10a15.327,15.327,0,0,1,15.327,15.327V202.853a15.327,15.327,0,0,1-15.327,15.327h-10A15.327,15.327,0,0,0,229.673,202.853Z" fill="#e2e2e2"/><path d="M239.673,42.174a15.327,15.327,0,0,0-15.327-15.327H31.655A15.327,15.327,0,0,0,16.327,42.174V68.847H239.673Z" fill="#f8af23"/><path d="M41.655,26.847h-10A15.327,15.327,0,0,0,16.327,42.174V68.847h10V42.174A15.327,15.327,0,0,1,41.655,26.847Z" fill="#f87023"/><path d="M214.345,26.847h10a15.327,15.327,0,0,1,15.327,15.327V68.847h-10V42.174A15.327,15.327,0,0,0,214.345,26.847Z" fill="#f8d323"/><circle cx="43.688" cy="47.847" r="7" fill="#f46275"/><circle cx="70.65" cy="47.847" r="7" fill="#f46275"/><circle cx="97.612" cy="47.847" r="7" fill="#f46275"/><rect x="120.073" y="42.972" width="99.24" height="10.667" rx="5.333" ry="5.333" fill="#f46275"/><rect x="7.66" y="96.541" width="240.68" height="93.946" rx="46.973" ry="46.973" fill="#63bce7"/><path d="M17.66,143.514h0A46.973,46.973,0,0,1,64.633,96.541h-10A46.973,46.973,0,0,0,7.66,143.513h0a46.973,46.973,0,0,0,46.973,46.973h10A46.973,46.973,0,0,1,17.66,143.514Z" fill="#6377e7"/><path d="M238.34,143.514h0a46.973,46.973,0,0,0-46.973-46.973h10a46.973,46.973,0,0,1,46.973,46.973h0a46.973,46.973,0,0,1-46.973,46.973h-10A46.973,46.973,0,0,0,238.34,143.514Z" fill="#63e2e7"/><path d="M43.688,39.347a8.5,8.5,0,1,0,8.5,8.5A8.51,8.51,0,0,0,43.688,39.347Zm0,14a5.5,5.5,0,1,1,5.5-5.5A5.507,5.507,0,0,1,43.688,53.347Z" fill="#3f3679"/><path d="M70.649,39.347a8.5,8.5,0,1,0,8.5,8.5A8.51,8.51,0,0,0,70.649,39.347Zm0,14a5.5,5.5,0,1,1,5.5-5.5A5.507,5.507,0,0,1,70.649,53.347Z" fill="#3f3679"/><path d="M97.612,39.347a8.5,8.5,0,1,0,8.5,8.5A8.51,8.51,0,0,0,97.612,39.347Zm0,14a5.5,5.5,0,1,1,5.5-5.5A5.507,5.507,0,0,1,97.612,53.347Z" fill="#3f3679"/><path d="M213.979,41.472H125.406a6.833,6.833,0,0,0,0,13.667h88.573a6.833,6.833,0,0,0,0-13.667Zm0,10.667H125.406a3.833,3.833,0,0,1,0-7.667h88.573a3.833,3.833,0,0,1,0,7.667Z" fill="#3f3679"/><path d="M27.323,227.653h-18a1.5,1.5,0,0,0,0,3h18a1.5,1.5,0,1,0,0-3Z" fill="#3f3679"/><path d="M246.68,227.653h-18a1.5,1.5,0,0,0,0,3h18a1.5,1.5,0,0,0,0-3Z" fill="#3f3679"/><path d="M218.479,227.653H37.521a1.5,1.5,0,0,0,0,3H218.479a1.5,1.5,0,0,0,0-3Z" fill="#3f3679"/><path d="M246.68,216.68H233.911a16.814,16.814,0,0,0,7.262-13.827V171.126a48.32,48.32,0,0,0-.008-55.237c0-.026.008-.05.008-.076V42.174a16.846,16.846,0,0,0-16.827-16.827H31.654A16.846,16.846,0,0,0,14.827,42.174v73.493a1.487,1.487,0,0,0,.021.2,48.32,48.32,0,0,0-.021,55.255v31.727a16.814,16.814,0,0,0,7.262,13.827H9.32a1.5,1.5,0,0,0,0,3H246.68a1.5,1.5,0,0,0,0-3ZM17.827,42.174A13.843,13.843,0,0,1,31.654,28.347H224.346a13.843,13.843,0,0,1,13.827,13.827V67.347H17.827Zm0,28.173H238.173v41.677a48.369,48.369,0,0,0-36.806-16.983H54.633a48.369,48.369,0,0,0-36.806,16.983ZM54.633,98.041H201.367a45.473,45.473,0,0,1,0,90.946H54.633a45.473,45.473,0,0,1,0-90.946ZM31.654,216.68a13.843,13.843,0,0,1-13.827-13.827V175a48.37,48.37,0,0,0,36.806,16.983H201.367A48.37,48.37,0,0,0,238.173,175v27.85a13.843,13.843,0,0,1-13.827,13.827Z" fill="#3f3679"/><path d="M111.226,126.844a19.143,19.143,0,0,1,6.375,9.523,1.615,1.615,0,0,1-1.553,2.074h-7.805a1.57,1.57,0,0,1-1.412-.833,9.882,9.882,0,0,0-3.336-3.818,10.386,10.386,0,0,0-5.949-1.691,9.063,9.063,0,0,0-7.308,3.322q-2.779,3.322-2.778,8.878t2.778,8.848a9.093,9.093,0,0,0,7.308,3.292,10.379,10.379,0,0,0,5.949-1.691,9.951,9.951,0,0,0,3.333-3.768,1.57,1.57,0,0,1,1.406-.823h7.81a1.615,1.615,0,0,1,1.552,2.077,19.286,19.286,0,0,1-6.369,9.49q-5.345,4.319-13.5,4.318a21.3,21.3,0,0,1-10.933-2.748,18.644,18.644,0,0,1-7.277-7.7,26.127,26.127,0,0,1,0-22.589,18.656,18.656,0,0,1,7.277-7.7,21.305,21.305,0,0,1,10.933-2.748Q105.88,122.556,111.226,126.844Z" fill="#3f3679"/><path d="M169.173,140.863l-.877,4.08a1.614,1.614,0,0,0,1.578,1.953h3.757a1.614,1.614,0,0,1,1.614,1.614V154.7a1.614,1.614,0,0,1-1.614,1.614H167.19a1.614,1.614,0,0,0-1.579,1.278l-1.449,6.806a1.614,1.614,0,0,1-1.579,1.278H156.22a1.614,1.614,0,0,1-1.579-1.95l1.163-5.462a1.614,1.614,0,0,0-1.579-1.95H147.44a1.614,1.614,0,0,0-1.579,1.278l-1.449,6.806a1.614,1.614,0,0,1-1.579,1.278h-6.3a1.614,1.614,0,0,1-1.579-1.95l1.163-5.462a1.614,1.614,0,0,0-1.579-1.95h-5.211a1.614,1.614,0,0,1-1.614-1.614V148.51a1.614,1.614,0,0,1,1.614-1.614h7.894a1.614,1.614,0,0,0,1.578-1.275l.877-4.08a1.614,1.614,0,0,0-1.578-1.953h-4.965a1.614,1.614,0,0,1-1.614-1.614v-6.194a1.614,1.614,0,0,1,1.614-1.614h7.706a1.614,1.614,0,0,0,1.579-1.281l1.393-6.617a1.614,1.614,0,0,1,1.579-1.281h6.3a1.614,1.614,0,0,1,1.579,1.946l-1.113,5.287a1.614,1.614,0,0,0,1.579,1.946h6.787a1.614,1.614,0,0,0,1.579-1.281l1.393-6.617a1.614,1.614,0,0,1,1.579-1.281h6.365a1.614,1.614,0,0,1,1.579,1.946l-1.113,5.287a1.614,1.614,0,0,0,1.579,1.946h3.947a1.614,1.614,0,0,1,1.614,1.614v6.194a1.614,1.614,0,0,1-1.614,1.614h-6.686A1.614,1.614,0,0,0,169.173,140.863Zm-11.388-1.275H151a1.614,1.614,0,0,0-1.578,1.275l-.877,4.08a1.614,1.614,0,0,0,1.578,1.953h6.784a1.614,1.614,0,0,0,1.578-1.275l.877-4.08A1.614,1.614,0,0,0,157.786,139.588Z" fill="#3f3679"/></svg>