<svg xmlns="http://www.w3.org/2000/svg" viewBox="0 0 256 256"><title>icons_</title><rect x="18.37" y="48.668" width="219.26" height="151.106" rx="13.665" ry="13.665" fill="#cecece"/><path d="M28.37,186.109V62.333A13.681,13.681,0,0,1,42.035,48.668h-10A13.681,13.681,0,0,0,18.37,62.333V186.109a13.681,13.681,0,0,0,13.665,13.665h10A13.681,13.681,0,0,1,28.37,186.109Z" fill="#afafaf"/><path d="M227.63,186.109V62.333a13.681,13.681,0,0,0-13.665-13.665h10A13.681,13.681,0,0,1,237.63,62.333V186.109a13.681,13.681,0,0,1-13.665,13.665h-10A13.681,13.681,0,0,0,227.63,186.109Z" fill="#e2e2e2"/><rect x="26.779" y="57.077" width="202.442" height="122.288" rx="5.256" ry="5.256" fill="#63bce7"/><path d="M36.779,174.109V62.333a5.271,5.271,0,0,1,5.256-5.256h-10a5.271,5.271,0,0,0-5.256,5.256V174.109a5.271,5.271,0,0,0,5.256,5.256h10A5.271,5.271,0,0,1,36.779,174.109Z" fill="#6377e7"/><path d="M219.221,174.109V62.333a5.271,5.271,0,0,0-5.256-5.256h10a5.271,5.271,0,0,1,5.256,5.256V174.109a5.271,5.271,0,0,1-5.256,5.256h-10A5.271,5.271,0,0,0,219.221,174.109Z" fill="#63e2e7"/><rect x="89.809" y="221.932" width="76.383" height="9.197" fill="#9e9e9e"/><rect x="89.809" y="221.932" width="10" height="9.197" fill="#707070"/><rect x="100.67" y="199.774" width="54.659" height="22.158" fill="#cecece"/><rect x="100.67" y="199.774" width="10" height="22.158" fill="#afafaf"/><circle cx="128" cy="189.569" r="4.5" fill="#9e9e9e"/><rect x="48.667" y="138.835" width="33.667" height="23.333" fill="#f8af23"/><rect x="111.167" y="138.835" width="33.667" height="23.333" fill="#f8af23"/><rect x="173.667" y="138.835" width="33.667" height="23.333" fill="#f8af23"/><path d="M193.021,79.217a24.794,24.794,0,0,0-28.424-28.4c0-.106.008-.21.008-.315a36.605,36.605,0,0,0-73.21,0c0,.106.007.21.008.315a24.8,24.8,0,0,0-28.424,28.4A18.893,18.893,0,0,0,53.311,95.7h0a18.908,18.908,0,0,0,18.908,18.908H183.782A18.908,18.908,0,0,0,202.689,95.7h0A18.892,18.892,0,0,0,193.021,79.217Z" fill="#cecece"/><path d="M63.311,95.7a18.894,18.894,0,0,1,9.668-16.488,24.8,24.8,0,0,1,28.424-28.4c0-.105-.008-.209-.008-.315A36.606,36.606,0,0,1,133,14.246,36.568,36.568,0,0,0,91.395,50.5c0,.105.007.209.008.315a24.8,24.8,0,0,0-28.424,28.4,18.9,18.9,0,0,0,9.24,35.4h10A18.908,18.908,0,0,1,63.311,95.7Z" fill="#afafaf"/><path d="M192.689,95.7a18.894,18.894,0,0,0-9.668-16.488,24.8,24.8,0,0,0-28.424-28.4c0-.105.008-.209.008-.315A36.606,36.606,0,0,0,123,14.246,36.568,36.568,0,0,1,164.605,50.5c0,.105-.007.209-.008.315a24.8,24.8,0,0,1,28.424,28.4,18.9,18.9,0,0,1-9.24,35.4h-10A18.908,18.908,0,0,0,192.689,95.7Z" fill="#e2e2e2"/><path d="M128,195.569a6,6,0,1,0-6-6A6.007,6.007,0,0,0,128,195.569Zm0-9a3,3,0,1,1-3,3A3,3,0,0,1,128,186.569Z" fill="#3f3679"/><path d="M27.323,240.6h-18a1.5,1.5,0,0,0,0,3h18a1.5,1.5,0,0,0,0-3Z" fill="#3f3679"/><path d="M246.68,240.6h-18a1.5,1.5,0,1,0,0,3h18a1.5,1.5,0,0,0,0-3Z" fill="#3f3679"/><path d="M218.479,240.6H37.521a1.5,1.5,0,1,0,0,3H218.479a1.5,1.5,0,1,0,0-3Z" fill="#3f3679"/><path d="M9.32,232.63H246.68a1.5,1.5,0,0,0,0-3H167.691v-7.7a1.5,1.5,0,0,0-1.5-1.5h-9.362V201.274h67.137a15.182,15.182,0,0,0,15.164-15.165V62.333a15.182,15.182,0,0,0-15.164-15.165H165.96a38.106,38.106,0,0,0-75.92,0H32.034A15.182,15.182,0,0,0,16.87,62.333V186.109a15.182,15.182,0,0,0,15.164,15.165H99.171v19.157H89.809a1.5,1.5,0,0,0-1.5,1.5v7.7H9.32a1.5,1.5,0,0,0,0,3ZM128,15.4A35.145,35.145,0,0,1,163.105,50.5l-.008.315a1.5,1.5,0,0,0,1.738,1.481,23.295,23.295,0,0,1,26.7,26.682,1.5,1.5,0,0,0,.747,1.543,17.4,17.4,0,0,1-8.5,32.588H72.219a17.4,17.4,0,0,1-8.506-32.588,1.5,1.5,0,0,0,.747-1.542,23.711,23.711,0,0,1-.292-3.686,23.292,23.292,0,0,1,27-23A1.5,1.5,0,0,0,92.9,50.8l-.009-.3A35.145,35.145,0,0,1,128,15.4ZM61.356,78.438a20.4,20.4,0,0,0,10.862,37.675H126.5v21.223H111.167a1.5,1.5,0,0,0-1.5,1.5V149H83.833V138.835a1.5,1.5,0,0,0-1.5-1.5H48.667a1.5,1.5,0,0,0-1.5,1.5v23.333a1.5,1.5,0,0,0,1.5,1.5H82.333a1.5,1.5,0,0,0,1.5-1.5V152h25.834v10.167a1.5,1.5,0,0,0,1.5,1.5h33.666a1.5,1.5,0,0,0,1.5-1.5V152h25.834v10.167a1.5,1.5,0,0,0,1.5,1.5h33.666a1.5,1.5,0,0,0,1.5-1.5V138.835a1.5,1.5,0,0,0-1.5-1.5H173.667a1.5,1.5,0,0,0-1.5,1.5V149H146.333V138.835a1.5,1.5,0,0,0-1.5-1.5H129.5V116.112h54.281a20.4,20.4,0,0,0,10.862-37.675,26.518,26.518,0,0,0,.188-3.141,26.174,26.174,0,0,0-6.015-16.72h35.149a3.76,3.76,0,0,1,3.755,3.756V174.109a3.76,3.76,0,0,1-3.755,3.756H32.034a3.76,3.76,0,0,1-3.755-3.756V62.333a3.76,3.76,0,0,1,3.755-3.756H67.183A26.174,26.174,0,0,0,61.168,75.3,26.555,26.555,0,0,0,61.356,78.438Zm81.977,82.23H112.667V140.335h30.666Zm-62.5-20.333v20.333H50.167V140.335Zm94.334,0h30.666v20.333H175.167ZM19.87,186.109V62.333A12.178,12.178,0,0,1,32.034,50.168H79.719a26.284,26.284,0,0,0-9.628,5.415c-.02,0-.039-.006-.06-.006h-38a6.763,6.763,0,0,0-6.755,6.756V174.109a6.763,6.763,0,0,0,6.755,6.756H223.966a6.763,6.763,0,0,0,6.755-6.756V62.333a6.763,6.763,0,0,0-6.755-6.756H185.9a26.281,26.281,0,0,0-9.621-5.409h47.684A12.178,12.178,0,0,1,236.13,62.333V186.109a12.178,12.178,0,0,1-12.164,12.165H32.034A12.178,12.178,0,0,1,19.87,186.109Zm82.3,15.165h51.658v19.157H102.171ZM91.309,223.432h73.383v6.2H91.309Z" fill="#3f3679"/></svg>