<svg xmlns="http://www.w3.org/2000/svg" viewBox="0 0 256 256"><title>icons_</title><rect x="18.37" y="31.283" width="219.26" height="151.106" rx="13.665" ry="13.665" fill="#cecece"/><path d="M28.37,168.724V44.948A13.681,13.681,0,0,1,42.035,31.283h-10A13.681,13.681,0,0,0,18.37,44.948V168.724a13.681,13.681,0,0,0,13.665,13.665h10A13.681,13.681,0,0,1,28.37,168.724Z" fill="#afafaf"/><path d="M227.63,168.724V44.948a13.681,13.681,0,0,0-13.665-13.665h10A13.681,13.681,0,0,1,237.63,44.948V168.724a13.681,13.681,0,0,1-13.665,13.665h-10A13.681,13.681,0,0,0,227.63,168.724Z" fill="#e2e2e2"/><rect x="26.779" y="39.692" width="202.442" height="122.288" rx="5.256" ry="5.256" fill="#63bce7"/><path d="M36.779,156.724V44.947a5.271,5.271,0,0,1,5.256-5.256h-10a5.271,5.271,0,0,0-5.256,5.256V156.724a5.271,5.271,0,0,0,5.256,5.256h10A5.271,5.271,0,0,1,36.779,156.724Z" fill="#6377e7"/><path d="M219.221,156.724V44.947a5.271,5.271,0,0,0-5.256-5.256h10a5.271,5.271,0,0,1,5.256,5.256V156.724a5.271,5.271,0,0,1-5.256,5.256h-10A5.271,5.271,0,0,0,219.221,156.724Z" fill="#63e2e7"/><rect x="89.809" y="204.547" width="76.383" height="9.197" fill="#9e9e9e"/><rect x="89.809" y="204.547" width="10" height="9.197" fill="#707070"/><rect x="100.67" y="182.389" width="54.659" height="22.158" fill="#cecece"/><rect x="100.67" y="182.389" width="10" height="22.158" fill="#afafaf"/><circle cx="128" cy="172.184" r="4.5" fill="#9e9e9e"/><path d="M179.918,93.193a27.481,27.481,0,0,0-35.943-17.776A36.54,36.54,0,0,0,74.91,92.067c0,.5.018,1,.038,1.492a27.044,27.044,0,0,0-18.183,25.547h0A27.039,27.039,0,0,0,83.8,146.146H172.2a27.039,27.039,0,0,0,27.039-27.039h0A27.046,27.046,0,0,0,179.918,93.193Z" fill="#cecece"/><path d="M137.835,83.732a5.858,5.858,0,0,0-7.545,3.421L114.743,128.5a5.858,5.858,0,1,0,10.966,4.123l15.548-41.343A5.858,5.858,0,0,0,137.835,83.732Z" fill="#f8af23"/><path d="M107.2,94.06a5.859,5.859,0,0,0-8.284,0L87.229,105.745a5.858,5.858,0,0,0,0,8.284l11.684,11.684a5.858,5.858,0,1,0,8.284-8.284l-7.542-7.542,7.542-7.542A5.858,5.858,0,0,0,107.2,94.06Z" fill="#f8af23"/><path d="M168.771,105.745,157.087,94.06a5.858,5.858,0,1,0-8.284,8.284l7.542,7.542-7.542,7.542a5.858,5.858,0,0,0,8.284,8.284l11.684-11.684A5.858,5.858,0,0,0,168.771,105.745Z" fill="#f8af23"/><path d="M230.721,156.724V44.947a6.764,6.764,0,0,0-6.756-6.756H32.035a6.764,6.764,0,0,0-6.756,6.756V156.724a6.763,6.763,0,0,0,6.756,6.755H223.965A6.763,6.763,0,0,0,230.721,156.724Zm-202.442,0V44.947a3.76,3.76,0,0,1,3.756-3.756H223.965a3.76,3.76,0,0,1,3.756,3.756V156.724a3.76,3.76,0,0,1-3.756,3.755H32.035A3.76,3.76,0,0,1,28.279,156.724Z" fill="#3f3679"/><path d="M128,166.184a6,6,0,1,0,6,6A6.007,6.007,0,0,0,128,166.184Zm0,9a3,3,0,1,1,3-3A3,3,0,0,1,128,175.184Z" fill="#3f3679"/><path d="M27.323,223.217h-18a1.5,1.5,0,1,0,0,3h18a1.5,1.5,0,1,0,0-3Z" fill="#3f3679"/><path d="M246.68,223.217h-18a1.5,1.5,0,0,0,0,3h18a1.5,1.5,0,1,0,0-3Z" fill="#3f3679"/><path d="M218.479,223.217H37.521a1.5,1.5,0,0,0,0,3H218.479a1.5,1.5,0,0,0,0-3Z" fill="#3f3679"/><path d="M9.32,215.244H246.68a1.5,1.5,0,0,0,0-3H167.691v-7.7a1.5,1.5,0,0,0-1.5-1.5H156.83V183.889h67.136a15.182,15.182,0,0,0,15.165-15.165V44.948a15.182,15.182,0,0,0-15.165-15.165H32.035A15.182,15.182,0,0,0,16.87,44.948V168.724a15.182,15.182,0,0,0,15.165,15.165H99.17v19.158H89.809a1.5,1.5,0,0,0-1.5,1.5v7.7H9.32a1.5,1.5,0,1,0,0,3Zm10.55-46.52V44.948A12.179,12.179,0,0,1,32.035,32.783H223.965A12.179,12.179,0,0,1,236.13,44.948V168.724a12.178,12.178,0,0,1-12.165,12.165H32.035A12.178,12.178,0,0,1,19.87,168.724Zm82.3,15.165H153.83v19.158H102.17ZM91.309,206.047h73.383v6.2H91.309Z" fill="#3f3679"/><path d="M181.112,92A29.172,29.172,0,0,0,153.621,72.17a28.87,28.87,0,0,0-8.928,1.407A38.039,38.039,0,0,0,73.41,92.067q0,.23,0,.458a28.539,28.539,0,0,0,10.39,55.12H172.2A28.539,28.539,0,0,0,181.112,92Zm-8.916,52.65H83.8a25.539,25.539,0,0,1-8.365-49.669A1.5,1.5,0,0,0,76.446,93.5c-.019-.476-.036-.951-.036-1.431A35.04,35.04,0,0,1,142.641,76.1a1.5,1.5,0,0,0,1.861.72,25.871,25.871,0,0,1,9.119-1.65,26.14,26.14,0,0,1,24.861,18.456,1.5,1.5,0,0,0,1.008,1,25.54,25.54,0,0,1-7.294,50.015Z" fill="#3f3679"/><path d="M108.258,93h0a7.369,7.369,0,0,0-10.405,0L86.168,104.684a7.365,7.365,0,0,0,0,10.405l11.684,11.685a7.358,7.358,0,0,0,10.405-10.406l-6.481-6.481,6.481-6.482A7.365,7.365,0,0,0,108.258,93Zm-2.121,8.284-7.542,7.542a1.5,1.5,0,0,0,0,2.121l7.542,7.542a4.358,4.358,0,0,1-6.163,6.163L88.29,112.968a4.363,4.363,0,0,1,0-6.163L99.974,95.121a4.358,4.358,0,1,1,6.163,6.163Z" fill="#3f3679"/><path d="M158.147,93A7.358,7.358,0,0,0,147.742,103.4l6.481,6.482-6.481,6.481a7.358,7.358,0,1,0,10.405,10.405l11.684-11.684a7.365,7.365,0,0,0,0-10.405Zm9.563,19.969-11.684,11.684a4.358,4.358,0,1,1-6.163-6.163l7.542-7.542a1.5,1.5,0,0,0,0-2.121l-7.542-7.542a4.358,4.358,0,0,1,6.163-6.163l11.684,11.685A4.363,4.363,0,0,1,167.71,112.968Z" fill="#3f3679"/><path d="M138.363,82.329a7.366,7.366,0,0,0-9.476,4.3l-15.548,41.343a7.358,7.358,0,1,0,13.774,5.179L142.661,91.8A7.366,7.366,0,0,0,138.363,82.329Zm1.49,8.42-15.548,41.342a4.358,4.358,0,1,1-8.158-3.067l15.548-41.342a4.358,4.358,0,1,1,8.158,3.067Z" fill="#3f3679"/></svg>