<svg xmlns="http://www.w3.org/2000/svg" viewBox="0 0 256 256"><title>icons_</title><rect x="17.473" y="20.059" width="169.991" height="136.606" rx="9.6" ry="9.6" fill="#63bce7"/><path d="M27.473,147.065V29.659a9.628,9.628,0,0,1,9.6-9.6h-10a9.628,9.628,0,0,0-9.6,9.6V147.065a9.628,9.628,0,0,0,9.6,9.6h10A9.628,9.628,0,0,1,27.473,147.065Z" fill="#6377e7"/><path d="M177.464,147.065V29.659a9.628,9.628,0,0,0-9.6-9.6h10a9.628,9.628,0,0,1,9.6,9.6V147.065a9.628,9.628,0,0,1-9.6,9.6h-10A9.628,9.628,0,0,0,177.464,147.065Z" fill="#63e2e7"/><path d="M187.464,29.664a9.633,9.633,0,0,0-9.6-9.6H27.078a9.633,9.633,0,0,0-9.6,9.6V51.752H187.464Z" fill="#cecece"/><path d="M37.078,20.059h-10a9.633,9.633,0,0,0-9.6,9.6V51.752h10V29.664A9.633,9.633,0,0,1,37.078,20.059Z" fill="#afafaf"/><path d="M167.859,20.059h10a9.633,9.633,0,0,1,9.6,9.6V51.752h-10V29.664A9.633,9.633,0,0,0,167.859,20.059Z" fill="#e2e2e2"/><circle cx="37.423" cy="35.905" r="6.627" fill="#f8af23"/><circle cx="57.737" cy="35.905" r="6.627" fill="#f8af23"/><circle cx="78.05" cy="35.905" r="6.627" fill="#f8af23"/><rect x="132.921" y="32.971" width="41.22" height="5.803" rx="2.901" ry="2.901" fill="#9e9e9e"/><rect x="30.796" y="63.313" width="71.376" height="10.842" fill="#f46275"/><rect x="114.326" y="63.313" width="29.573" height="10.842" fill="#f46275"/><rect x="30.796" y="88.362" width="49.226" height="10.842" fill="#f46275"/><rect x="68.536" y="88.362" width="169.991" height="136.606" rx="9.6" ry="9.6" fill="#cecece"/><path d="M238.527,97.967a9.633,9.633,0,0,0-9.6-9.6H78.141a9.633,9.633,0,0,0-9.6,9.6v22.088H238.527Z" fill="#f8af23"/><path d="M228.927,88.362h-10a9.628,9.628,0,0,1,9.6,9.6V215.368a9.628,9.628,0,0,1-9.6,9.6h10a9.628,9.628,0,0,0,9.6-9.6V97.962A9.628,9.628,0,0,0,228.927,88.362Z" fill="#e2e2e2"/><path d="M228.922,88.362h-10a9.633,9.633,0,0,1,9.6,9.6v22.088h10V97.967A9.633,9.633,0,0,0,228.922,88.362Z" fill="#f8d323"/><circle cx="88.486" cy="104.208" r="6.627" fill="#f46275"/><circle cx="108.799" cy="104.208" r="6.627" fill="#f46275"/><circle cx="129.113" cy="104.208" r="6.627" fill="#f46275"/><rect x="183.984" y="101.274" width="41.22" height="5.803" rx="2.901" ry="2.901" fill="#9e9e9e"/><path d="M32.27,137.046l10.208-10.208a2.223,2.223,0,0,1,3.143,0l10.208,10.208a2.223,2.223,0,0,1-1.572,3.794H33.842A2.223,2.223,0,0,1,32.27,137.046Z" fill="#f8af23"/><path d="M219.456,71.371,209.247,81.579a2.223,2.223,0,0,1-3.143,0L195.9,71.371a2.223,2.223,0,0,1,1.572-3.794h20.417A2.223,2.223,0,0,1,219.456,71.371Z" fill="#63bce7"/><rect x="84.678" y="136.949" width="60" height="8.427" fill="#f46275"/><rect x="110.678" y="155.408" width="41.5" height="8.427" fill="#f46275"/><rect x="159.678" y="155.408" width="54.5" height="8.427" fill="#f46275"/><rect x="110.678" y="170.657" width="24.5" height="8.427" fill="#f8af23"/><rect x="145.178" y="170.657" width="69" height="8.427" fill="#f8af23"/><rect x="84.678" y="188.313" width="60" height="8.427" fill="#63bce7"/><rect x="154.178" y="188.313" width="60" height="8.427" fill="#63bce7"/><path d="M37.423,44.033A8.127,8.127,0,1,0,29.3,35.905,8.137,8.137,0,0,0,37.423,44.033Zm0-13.255A5.127,5.127,0,1,1,32.3,35.905,5.133,5.133,0,0,1,37.423,30.778Z" fill="#3f3679"/><path d="M57.737,44.033a8.127,8.127,0,1,0-8.127-8.127A8.137,8.137,0,0,0,57.737,44.033Zm0-13.255a5.127,5.127,0,1,1-5.127,5.127A5.133,5.133,0,0,1,57.737,30.778Z" fill="#3f3679"/><path d="M78.05,44.033a8.127,8.127,0,1,0-8.127-8.127A8.137,8.137,0,0,0,78.05,44.033Zm0-13.255a5.127,5.127,0,1,1-5.127,5.127A5.133,5.133,0,0,1,78.05,30.778Z" fill="#3f3679"/><path d="M135.823,40.273H171.24a4.4,4.4,0,1,0,0-8.8H135.823a4.4,4.4,0,1,0,0,8.8Zm0-5.8H171.24a1.4,1.4,0,1,1,0,2.8H135.823a1.4,1.4,0,1,1,0-2.8Z" fill="#3f3679"/><path d="M30.8,75.656h71.376a1.5,1.5,0,0,0,1.5-1.5V63.313a1.5,1.5,0,0,0-1.5-1.5H30.8a1.5,1.5,0,0,0-1.5,1.5V74.156A1.5,1.5,0,0,0,30.8,75.656Zm1.5-10.842h68.376v7.842H32.3Z" fill="#3f3679"/><path d="M114.327,75.656H143.9a1.5,1.5,0,0,0,1.5-1.5V63.313a1.5,1.5,0,0,0-1.5-1.5H114.327a1.5,1.5,0,0,0-1.5,1.5V74.156A1.5,1.5,0,0,0,114.327,75.656Zm1.5-10.842H142.4v7.842H115.827Z" fill="#3f3679"/><path d="M88.486,112.336a8.127,8.127,0,1,0-8.127-8.127A8.137,8.137,0,0,0,88.486,112.336Zm0-13.255a5.127,5.127,0,1,1-5.127,5.127A5.133,5.133,0,0,1,88.486,99.081Z" fill="#3f3679"/><path d="M108.8,112.336a8.127,8.127,0,1,0-8.127-8.127A8.137,8.137,0,0,0,108.8,112.336Zm0-13.255a5.127,5.127,0,1,1-5.127,5.127A5.133,5.133,0,0,1,108.8,99.081Z" fill="#3f3679"/><path d="M129.113,112.336a8.127,8.127,0,1,0-8.127-8.127A8.137,8.137,0,0,0,129.113,112.336Zm0-13.255a5.127,5.127,0,1,1-5.127,5.127A5.133,5.133,0,0,1,129.113,99.081Z" fill="#3f3679"/><path d="M186.886,108.576H222.3a4.4,4.4,0,1,0,0-8.8H186.886a4.4,4.4,0,0,0,0,8.8Zm0-5.8H222.3a1.4,1.4,0,1,1,0,2.8H186.886a1.4,1.4,0,1,1,0-2.8Z" fill="#3f3679"/><path d="M27.323,234.441h-18a1.5,1.5,0,1,0,0,3h18a1.5,1.5,0,0,0,0-3Z" fill="#3f3679"/><path d="M246.68,234.441h-18a1.5,1.5,0,0,0,0,3h18a1.5,1.5,0,1,0,0-3Z" fill="#3f3679"/><path d="M218.479,234.441H37.521a1.5,1.5,0,0,0,0,3H218.479a1.5,1.5,0,0,0,0-3Z" fill="#3f3679"/><path d="M9.32,226.468H246.68a1.5,1.5,0,0,0,0-3H236.492a11.06,11.06,0,0,0,3.535-8.1V97.962a11.113,11.113,0,0,0-11.1-11.1H188.964V37.394c.038,0,.074.011.113.011h9a8.109,8.109,0,0,1,8.1,8.1V66.076h-8.708a3.723,3.723,0,0,0-2.632,6.355L205.043,82.64a3.726,3.726,0,0,0,5.265,0l10.208-10.208h0a3.723,3.723,0,0,0-2.633-6.355h-8.708V45.505a11.113,11.113,0,0,0-11.1-11.1h-9c-.039,0-.075.009-.113.011V29.659a11.113,11.113,0,0,0-11.1-11.1H27.073a11.113,11.113,0,0,0-11.1,11.1V147.065a11.113,11.113,0,0,0,11.1,11.1H42.551v4.746a11.113,11.113,0,0,0,11.1,11.1H67.036v41.356a11.06,11.06,0,0,0,3.535,8.1H9.32a1.5,1.5,0,1,0,0,3ZM218.552,69.522a.7.7,0,0,1-.157.788h0L208.187,80.519a.725.725,0,0,1-1.022,0L196.956,70.31a.723.723,0,0,1,.511-1.234h20.417A.7.7,0,0,1,218.552,69.522Zm18.475,28.444v20.588H70.036V97.967a8.114,8.114,0,0,1,8.1-8.1H228.922A8.114,8.114,0,0,1,237.027,97.967ZM32.3,97.7V89.862H70.571A11.056,11.056,0,0,0,67.049,97.7ZM177.859,21.559a8.114,8.114,0,0,1,8.1,8.1V50.251H18.973V29.664a8.114,8.114,0,0,1,8.1-8.1ZM27.073,155.165a8.109,8.109,0,0,1-8.1-8.1V53.251H185.964V86.862H30.8a1.5,1.5,0,0,0-1.5,1.5V99.2a1.5,1.5,0,0,0,1.5,1.5h36.24v54.46H45.551V142.34h8.708a3.723,3.723,0,0,0,2.632-6.355L46.683,125.777a3.728,3.728,0,0,0-5.264,0L31.21,135.985a3.723,3.723,0,0,0,2.632,6.355h8.708v12.825Zm6.769-15.825a.723.723,0,0,1-.511-1.234L43.54,127.9a.724.724,0,0,1,1.022,0L54.77,138.106a.723.723,0,0,1-.511,1.234ZM53.65,171.011a8.109,8.109,0,0,1-8.1-8.1v-4.746H67.036v12.846Zm16.386,44.356V121.555H237.027v93.813a8.109,8.109,0,0,1-8.1,8.1H78.136A8.109,8.109,0,0,1,70.036,215.368Z" fill="#3f3679"/><path d="M84.678,146.875h60a1.5,1.5,0,0,0,1.5-1.5v-8.427a1.5,1.5,0,0,0-1.5-1.5h-60a1.5,1.5,0,0,0-1.5,1.5v8.427A1.5,1.5,0,0,0,84.678,146.875Zm1.5-8.427h57v5.427h-57Z" fill="#3f3679"/><path d="M109.178,155.408v8.427a1.5,1.5,0,0,0,1.5,1.5h41.5a1.5,1.5,0,0,0,1.5-1.5v-8.427a1.5,1.5,0,0,0-1.5-1.5h-41.5A1.5,1.5,0,0,0,109.178,155.408Zm3,1.5h38.5v5.427h-38.5Z" fill="#3f3679"/><path d="M214.178,153.908h-54.5a1.5,1.5,0,0,0-1.5,1.5v8.427a1.5,1.5,0,0,0,1.5,1.5h54.5a1.5,1.5,0,0,0,1.5-1.5v-8.427A1.5,1.5,0,0,0,214.178,153.908Zm-1.5,8.427h-51.5v-5.427h51.5Z" fill="#3f3679"/><path d="M110.678,169.157a1.5,1.5,0,0,0-1.5,1.5v8.427a1.5,1.5,0,0,0,1.5,1.5h24.5a1.5,1.5,0,0,0,1.5-1.5v-8.427a1.5,1.5,0,0,0-1.5-1.5Zm23,8.427h-21.5v-5.427h21.5Z" fill="#3f3679"/><path d="M214.178,169.157h-69a1.5,1.5,0,0,0-1.5,1.5v8.427a1.5,1.5,0,0,0,1.5,1.5h69a1.5,1.5,0,0,0,1.5-1.5v-8.427A1.5,1.5,0,0,0,214.178,169.157Zm-1.5,8.427h-66v-5.427h66Z" fill="#3f3679"/><path d="M144.678,186.813h-60a1.5,1.5,0,0,0-1.5,1.5v8.427a1.5,1.5,0,0,0,1.5,1.5h60a1.5,1.5,0,0,0,1.5-1.5v-8.427A1.5,1.5,0,0,0,144.678,186.813Zm-1.5,8.427h-57v-5.427h57Z" fill="#3f3679"/><path d="M214.178,186.813h-60a1.5,1.5,0,0,0-1.5,1.5v8.427a1.5,1.5,0,0,0,1.5,1.5h60a1.5,1.5,0,0,0,1.5-1.5v-8.427A1.5,1.5,0,0,0,214.178,186.813Zm-1.5,8.427h-57v-5.427h57Z" fill="#3f3679"/></svg>