<svg xmlns="http://www.w3.org/2000/svg" viewBox="0 0 256 256"><title>icons_</title><rect x="13.313" y="21.027" width="223.345" height="191.333" rx="15.327" ry="15.327" fill="#cecece"/><path d="M23.313,197.033V36.354A15.327,15.327,0,0,1,38.64,21.027h-10A15.327,15.327,0,0,0,13.313,36.354V197.033A15.327,15.327,0,0,0,28.64,212.36h10A15.327,15.327,0,0,1,23.313,197.033Z" fill="#afafaf"/><path d="M226.658,197.033V36.354a15.327,15.327,0,0,0-15.327-15.327h10a15.327,15.327,0,0,1,15.327,15.327V197.033a15.327,15.327,0,0,1-15.327,15.327h-10A15.327,15.327,0,0,0,226.658,197.033Z" fill="#e2e2e2"/><path d="M236.658,36.354a15.327,15.327,0,0,0-15.327-15.327H28.64A15.327,15.327,0,0,0,13.313,36.354V63.027H236.658Z" fill="#f8af23"/><path d="M38.64,21.027h-10A15.327,15.327,0,0,0,13.313,36.354V63.027h10V36.354A15.327,15.327,0,0,1,38.64,21.027Z" fill="#f87023"/><path d="M211.331,21.027h10a15.327,15.327,0,0,1,15.327,15.327V63.027h-10V36.354A15.327,15.327,0,0,0,211.331,21.027Z" fill="#f8d323"/><circle cx="40.673" cy="42.027" r="7" fill="#f46275"/><circle cx="67.636" cy="42.027" r="7" fill="#f46275"/><circle cx="94.598" cy="42.027" r="7" fill="#f46275"/><rect x="117.059" y="37.152" width="99.24" height="10.667" rx="5.333" ry="5.333" fill="#f46275"/><rect x="32.986" y="80.18" width="60" height="10.5" fill="#f46275"/><rect x="58.986" y="103.18" width="41.5" height="10.5" fill="#f46275"/><rect x="107.986" y="103.18" width="54.5" height="10.5" fill="#f46275"/><rect x="58.986" y="122.18" width="24.5" height="10.5" fill="#f8af23"/><rect x="58.986" y="186.18" width="24.5" height="10.5" fill="#f46275"/><rect x="93.486" y="122.18" width="69" height="10.5" fill="#f8af23"/><rect x="32.986" y="144.18" width="60" height="10.5" fill="#63bce7"/><rect x="58.986" y="167.18" width="41.5" height="10.5" fill="#63bce7"/><rect x="107.986" y="167.18" width="54.5" height="10.5" fill="#63bce7"/><rect x="93.486" y="186.18" width="69" height="10.5" fill="#f46275"/><circle cx="199.187" cy="192.68" r="43.5" fill="#63bce7"/><path d="M199.187,149.18a43.9,43.9,0,0,0-5,.295,43.493,43.493,0,0,1,0,86.41,43.5,43.5,0,1,0,5-86.705Z" fill="#63e2e7"/><path d="M27.323,245.653h-18a1.5,1.5,0,1,0,0,3h18a1.5,1.5,0,1,0,0-3Z" fill="#3f3679"/><path d="M246.68,245.653h-18a1.5,1.5,0,0,0,0,3h18a1.5,1.5,0,0,0,0-3Z" fill="#3f3679"/><path d="M218.479,245.653H37.521a1.5,1.5,0,0,0,0,3H218.479a1.5,1.5,0,0,0,0-3Z" fill="#3f3679"/><path d="M9.32,237.68H246.68a1.5,1.5,0,0,0,0-3H215.314a44.943,44.943,0,0,0,22.833-64.475c0-.038.011-.073.011-.112V36.354h0a16.841,16.841,0,0,0-16.827-16.827H28.641A16.841,16.841,0,0,0,11.813,36.354h0V197.033A16.846,16.846,0,0,0,28.641,213.86H159.5a45.254,45.254,0,0,0,23.563,20.82H9.32a1.5,1.5,0,1,0,0,3ZM28.641,22.527h192.69a13.819,13.819,0,0,1,13.827,13.828V61.527H14.813V36.354A13.819,13.819,0,0,1,28.641,22.527Zm0,188.333a13.843,13.843,0,0,1-13.827-13.827V64.527H235.158V165.675a44.953,44.953,0,0,0-72.052.142,1.489,1.489,0,0,0-.62-.138h-54.5a1.5,1.5,0,0,0-1.5,1.5v10.5a1.5,1.5,0,0,0,1.5,1.5h48.272a44.641,44.641,0,0,0-1.345,5.5H93.486a1.5,1.5,0,0,0-1.5,1.5v10.5a1.5,1.5,0,0,0,1.5,1.5h61.049a44.619,44.619,0,0,0,3.5,12.68ZM154.26,195.18H94.986v-7.5h59.485a45.244,45.244,0,0,0-.284,5C154.187,193.519,154.214,194.352,154.26,195.18Zm3.074-19H109.486v-7.5h51.5v.255A44.868,44.868,0,0,0,157.334,176.18Zm-.147,16.5a42,42,0,1,1,42,42A42.048,42.048,0,0,1,157.187,192.68Z" fill="#3f3679"/><path d="M40.673,50.527a8.5,8.5,0,1,0-8.5-8.5A8.51,8.51,0,0,0,40.673,50.527Zm0-14a5.5,5.5,0,1,1-5.5,5.5A5.506,5.506,0,0,1,40.673,36.527Z" fill="#3f3679"/><path d="M67.636,50.527a8.5,8.5,0,1,0-8.5-8.5A8.51,8.51,0,0,0,67.636,50.527Zm0-14a5.5,5.5,0,1,1-5.5,5.5A5.506,5.506,0,0,1,67.636,36.527Z" fill="#3f3679"/><path d="M94.6,50.527a8.5,8.5,0,1,0-8.5-8.5A8.51,8.51,0,0,0,94.6,50.527Zm0-14a5.5,5.5,0,1,1-5.5,5.5A5.506,5.506,0,0,1,94.6,36.527Z" fill="#3f3679"/><path d="M122.392,49.319h88.573a6.833,6.833,0,0,0,0-13.667H122.392a6.833,6.833,0,0,0,0,13.667Zm0-10.667h88.573a3.833,3.833,0,0,1,0,7.667H122.392a3.833,3.833,0,0,1,0-7.667Z" fill="#3f3679"/><path d="M32.986,92.18h60a1.5,1.5,0,0,0,1.5-1.5V80.18a1.5,1.5,0,0,0-1.5-1.5h-60a1.5,1.5,0,0,0-1.5,1.5v10.5A1.5,1.5,0,0,0,32.986,92.18Zm1.5-10.5h57v7.5h-57Z" fill="#3f3679"/><path d="M57.486,103.18v10.5a1.5,1.5,0,0,0,1.5,1.5h41.5a1.5,1.5,0,0,0,1.5-1.5v-10.5a1.5,1.5,0,0,0-1.5-1.5h-41.5A1.5,1.5,0,0,0,57.486,103.18Zm3,1.5h38.5v7.5h-38.5Z" fill="#3f3679"/><path d="M107.986,115.18h54.5a1.5,1.5,0,0,0,1.5-1.5v-10.5a1.5,1.5,0,0,0-1.5-1.5h-54.5a1.5,1.5,0,0,0-1.5,1.5v10.5A1.5,1.5,0,0,0,107.986,115.18Zm1.5-10.5h51.5v7.5h-51.5Z" fill="#3f3679"/><path d="M58.986,120.68a1.5,1.5,0,0,0-1.5,1.5v10.5a1.5,1.5,0,0,0,1.5,1.5h24.5a1.5,1.5,0,0,0,1.5-1.5v-10.5a1.5,1.5,0,0,0-1.5-1.5Zm23,10.5h-21.5v-7.5h21.5Z" fill="#3f3679"/><path d="M83.486,184.68h-24.5a1.5,1.5,0,0,0-1.5,1.5v10.5a1.5,1.5,0,0,0,1.5,1.5h24.5a1.5,1.5,0,0,0,1.5-1.5v-10.5A1.5,1.5,0,0,0,83.486,184.68Zm-1.5,10.5h-21.5v-7.5h21.5Z" fill="#3f3679"/><path d="M162.486,120.68h-69a1.5,1.5,0,0,0-1.5,1.5v10.5a1.5,1.5,0,0,0,1.5,1.5h69a1.5,1.5,0,0,0,1.5-1.5v-10.5A1.5,1.5,0,0,0,162.486,120.68Zm-1.5,10.5h-66v-7.5h66Z" fill="#3f3679"/><path d="M94.486,154.68v-10.5a1.5,1.5,0,0,0-1.5-1.5h-60a1.5,1.5,0,0,0-1.5,1.5v10.5a1.5,1.5,0,0,0,1.5,1.5h60A1.5,1.5,0,0,0,94.486,154.68Zm-3-1.5h-57v-7.5h57Z" fill="#3f3679"/><path d="M100.486,165.68h-41.5a1.5,1.5,0,0,0-1.5,1.5v10.5a1.5,1.5,0,0,0,1.5,1.5h41.5a1.5,1.5,0,0,0,1.5-1.5v-10.5A1.5,1.5,0,0,0,100.486,165.68Zm-1.5,10.5h-38.5v-7.5h38.5Z" fill="#3f3679"/><path d="M207.082,171.686a4.7,4.7,0,0,0-6.056,2.746l-12.48,33.186a4.7,4.7,0,1,0,8.8,3.31l12.48-33.186A4.7,4.7,0,0,0,207.082,171.686Z" fill="#3f3679"/><path d="M182.488,179.976a4.7,4.7,0,0,0-6.65,0l-9.379,9.379a4.7,4.7,0,0,0,0,6.65l9.379,9.379a4.7,4.7,0,0,0,6.65-6.65l-6.054-6.054,6.054-6.054A4.7,4.7,0,0,0,182.488,179.976Z" fill="#3f3679"/><path d="M231.914,189.355l-9.379-9.379a4.7,4.7,0,0,0-6.65,6.65l6.054,6.054-6.054,6.054a4.7,4.7,0,0,0,6.65,6.65L231.914,196A4.7,4.7,0,0,0,231.914,189.355Z" fill="#3f3679"/></svg>