<svg xmlns="http://www.w3.org/2000/svg" viewBox="0 0 256 256"><title>icons_</title><path d="M216.152,209.993H39.848a7.5,7.5,0,0,1-7.5-7.5V42.534a7.5,7.5,0,0,1,7.5-7.5h176.3a7.5,7.5,0,0,1,7.5,7.5V202.493A7.5,7.5,0,0,1,216.152,209.993Zm-168.8-15h161.3V50.034H47.348Z" fill="#cecece"/><path d="M42.348,202.493V42.534a7.5,7.5,0,0,1,7.5-7.5h-10a7.5,7.5,0,0,0-7.5,7.5V202.493a7.5,7.5,0,0,0,7.5,7.5h10A7.5,7.5,0,0,1,42.348,202.493Z" fill="#afafaf"/><path d="M213.652,202.493V42.534a7.5,7.5,0,0,0-7.5-7.5h10a7.5,7.5,0,0,1,7.5,7.5V202.493a7.5,7.5,0,0,1-7.5,7.5h-10A7.5,7.5,0,0,0,213.652,202.493Z" fill="#e2e2e2"/><circle cx="216.152" cy="106.068" r="13.119" fill="#9e9e9e"/><path d="M214.841,119.186h2.624a16.75,16.75,0,0,1,16.75,16.75v16.142a0,0,0,0,1,0,0H198.091a0,0,0,0,1,0,0V135.936a16.75,16.75,0,0,1,16.75-16.75Z" fill="#f46275"/><path d="M219.271,106.068a13.119,13.119,0,0,1-8.119,12.127,13.119,13.119,0,1,0,0-24.253A13.119,13.119,0,0,1,219.271,106.068Z" fill="#cecece"/><path d="M217.464,119.186h-2.624a16.752,16.752,0,0,0-3.688.421,16.746,16.746,0,0,1,13.062,16.329v16.142h10V135.936A16.75,16.75,0,0,0,217.464,119.186Z" fill="#f48875"/><circle cx="39.848" cy="106.068" r="13.119" fill="#9e9e9e"/><path d="M38.536,119.186h2.624a16.75,16.75,0,0,1,16.75,16.75v16.142a0,0,0,0,1,0,0H21.786a0,0,0,0,1,0,0V135.936A16.75,16.75,0,0,1,38.536,119.186Z" fill="#9e9e9e"/><path d="M36.729,106.068a13.119,13.119,0,0,1,8.119-12.126,13.118,13.118,0,1,0,0,24.253A13.119,13.119,0,0,1,36.729,106.068Z" fill="#707070"/><path d="M44.848,119.607a16.753,16.753,0,0,0-3.688-.421H38.536a16.75,16.75,0,0,0-16.75,16.75v16.142h10V135.936A16.747,16.747,0,0,1,44.848,119.607Z" fill="#707070"/><circle cx="128" cy="26.088" r="13.119" fill="#9e9e9e"/><path d="M126.688,39.207h2.624a16.75,16.75,0,0,1,16.75,16.75V72.1a0,0,0,0,1,0,0H109.938a0,0,0,0,1,0,0V55.957A16.75,16.75,0,0,1,126.688,39.207Z" fill="#f8af23"/><path d="M124.881,26.088A13.119,13.119,0,0,1,133,13.962a13.118,13.118,0,1,0,0,24.253A13.119,13.119,0,0,1,124.881,26.088Z" fill="#707070"/><path d="M133,39.628a16.753,16.753,0,0,0-3.688-.421h-2.624a16.75,16.75,0,0,0-16.75,16.75V72.1h10V55.957A16.747,16.747,0,0,1,133,39.628Z" fill="#f87023"/><circle cx="128" cy="186.047" r="13.119" fill="#9e9e9e"/><path d="M126.688,199.166h2.624a16.75,16.75,0,0,1,16.75,16.75v16.142a0,0,0,0,1,0,0H109.938a0,0,0,0,1,0,0V215.916A16.75,16.75,0,0,1,126.688,199.166Z" fill="#63bce7"/><path d="M124.881,186.047A13.119,13.119,0,0,1,133,173.921a13.118,13.118,0,1,0,0,24.253A13.119,13.119,0,0,1,124.881,186.047Z" fill="#707070"/><path d="M133,199.587a16.753,16.753,0,0,0-3.688-.421h-2.624a16.75,16.75,0,0,0-16.75,16.75v16.142h10V215.916A16.747,16.747,0,0,1,133,199.587Z" fill="#6377e7"/><circle cx="128" cy="122.514" r="24.167" fill="#63bce7"/><path d="M113.833,122.513A24.173,24.173,0,0,1,133,98.868a24.167,24.167,0,1,0,0,47.292A24.174,24.174,0,0,1,113.833,122.513Z" fill="#6377e7"/><path d="M27.323,241.53h-18a1.5,1.5,0,1,0,0,3h18a1.5,1.5,0,0,0,0-3Z" fill="#3f3679"/><path d="M246.68,241.53h-18a1.5,1.5,0,1,0,0,3h18a1.5,1.5,0,0,0,0-3Z" fill="#3f3679"/><path d="M218.479,241.53H37.521a1.5,1.5,0,1,0,0,3H218.479a1.5,1.5,0,1,0,0-3Z" fill="#3f3679"/><path d="M9.32,233.558H246.68a1.5,1.5,0,0,0,0-3H147.562V215.916a18.168,18.168,0,0,0-.565-4.423h69.155a9.01,9.01,0,0,0,9-9V153.578h9.062a1.5,1.5,0,0,0,1.5-1.5V135.937a18.257,18.257,0,0,0-10.562-16.528v-1.845a14.569,14.569,0,0,0,0-22.992V42.534a9.01,9.01,0,0,0-9-9h-75.6a14.619,14.619,0,1,0-25.114,0H39.848a9.01,9.01,0,0,0-9,9V94.572a14.57,14.57,0,0,0,0,22.992v1.845a18.257,18.257,0,0,0-10.562,16.528v16.142a1.5,1.5,0,0,0,1.5,1.5h9.062v48.915a9.01,9.01,0,0,0,9,9H109a18.168,18.168,0,0,0-.565,4.423v14.642H9.32a1.5,1.5,0,1,0,0,3Zm212.833-31.064a6.007,6.007,0,0,1-6,6H145.968a18.324,18.324,0,0,0-10.67-9.8,14.7,14.7,0,0,0,2.909-2.2h70.446a1.5,1.5,0,0,0,1.5-1.5V153.578h12ZM116.381,186.047A11.618,11.618,0,1,1,128,197.666,11.631,11.631,0,0,1,116.381,186.047ZM48.848,153.578h9.062a1.5,1.5,0,0,0,1.5-1.5V135.937a18.154,18.154,0,0,0-4.464-11.923h47.436a25.7,25.7,0,0,0,24.119,24.12v23.372a14.586,14.586,0,0,0-11.057,21.988H48.848Zm0-36.015a14.57,14.57,0,0,0,0-22.992V51.534H109a18.168,18.168,0,0,0-.565,4.423V72.1a1.5,1.5,0,0,0,1.5,1.5H126.5v23.3a25.7,25.7,0,0,0-24.119,24.12H51.668c-.011,0-.021,0-.032,0a18.255,18.255,0,0,0-2.788-1.609Zm80.464-76.856a15.267,15.267,0,0,1,15.25,15.25V70.6H111.438V55.957a15.267,15.267,0,0,1,15.25-15.25Zm77.841,53.865a14.57,14.57,0,0,0,0,22.991v1.845a18.253,18.253,0,0,0-2.788,1.608c-.011,0-.021,0-.031,0H153.62a25.7,25.7,0,0,0-24.12-24.12V73.6h16.562a1.5,1.5,0,0,0,1.5-1.5V55.957A18.168,18.168,0,0,0,147,51.534h60.155Zm-9.062,59.006h9.062v39.915h-66.6A14.586,14.586,0,0,0,129.5,171.505V148.133a25.7,25.7,0,0,0,24.12-24.12h47.435a18.154,18.154,0,0,0-4.464,11.923v16.142A1.5,1.5,0,0,0,198.091,153.578ZM128,99.847a22.667,22.667,0,1,1-22.667,22.667A22.692,22.692,0,0,1,128,99.847Zm104.714,36.09v14.642H199.591V135.937a15.267,15.267,0,0,1,15.25-15.25h2.623A15.267,15.267,0,0,1,232.714,135.937Zm-4.942-29.869a11.619,11.619,0,1,1-11.619-11.618A11.632,11.632,0,0,1,227.771,106.067Zm-5.619-63.533V92.752a14.468,14.468,0,0,0-12,0V50.034a1.5,1.5,0,0,0-1.5-1.5H145.968a18.324,18.324,0,0,0-10.67-9.8,14.7,14.7,0,0,0,2.909-2.2h77.946A6.007,6.007,0,0,1,222.152,42.534ZM128,14.47a11.619,11.619,0,1,1-11.619,11.618A11.631,11.631,0,0,1,128,14.47ZM33.848,42.534a6.007,6.007,0,0,1,6-6h77.946a14.7,14.7,0,0,0,2.909,2.2,18.325,18.325,0,0,0-10.671,9.8H47.348a1.5,1.5,0,0,0-1.5,1.5V92.752a14.468,14.468,0,0,0-12,0Zm-5.619,63.533a11.619,11.619,0,1,1,11.619,11.619A11.631,11.631,0,0,1,28.229,106.067Zm-4.943,29.869a15.267,15.267,0,0,1,15.25-15.25h2.624a15.267,15.267,0,0,1,15.25,15.25v14.642H23.286Zm16.562,72.557a6.007,6.007,0,0,1-6-6V153.578h12v41.415a1.5,1.5,0,0,0,1.5,1.5h70.446a14.7,14.7,0,0,0,2.909,2.2,18.325,18.325,0,0,0-10.671,9.8Zm71.59,7.423a15.267,15.267,0,0,1,15.25-15.25h2.624a15.267,15.267,0,0,1,15.25,15.25v14.642H111.438Z" fill="#3f3679"/></svg>