<svg xmlns="http://www.w3.org/2000/svg" viewBox="0 0 256 256"><title>icons_</title><rect x="16.327" y="26.847" width="223.345" height="191.333" rx="15.327" ry="15.327" fill="#cecece"/><path d="M26.327,202.853V42.174A15.327,15.327,0,0,1,41.655,26.847h-10A15.327,15.327,0,0,0,16.327,42.174V202.853A15.327,15.327,0,0,0,31.655,218.18h10A15.327,15.327,0,0,1,26.327,202.853Z" fill="#afafaf"/><path d="M229.673,202.853V42.174a15.327,15.327,0,0,0-15.327-15.327h10a15.327,15.327,0,0,1,15.327,15.327V202.853a15.327,15.327,0,0,1-15.327,15.327h-10A15.327,15.327,0,0,0,229.673,202.853Z" fill="#e2e2e2"/><path d="M239.673,42.174a15.327,15.327,0,0,0-15.327-15.327H31.655A15.327,15.327,0,0,0,16.327,42.174V68.847H239.673Z" fill="#f8af23"/><path d="M41.655,26.847h-10A15.327,15.327,0,0,0,16.327,42.174V68.847h10V42.174A15.327,15.327,0,0,1,41.655,26.847Z" fill="#f87023"/><path d="M214.345,26.847h10a15.327,15.327,0,0,1,15.327,15.327V68.847h-10V42.174A15.327,15.327,0,0,0,214.345,26.847Z" fill="#f8d323"/><circle cx="43.688" cy="47.847" r="7" fill="#f46275"/><circle cx="70.65" cy="47.847" r="7" fill="#f46275"/><circle cx="97.612" cy="47.847" r="7" fill="#f46275"/><rect x="120.073" y="42.972" width="99.24" height="10.667" rx="5.333" ry="5.333" fill="#f46275"/><path d="M108.541,121.975a25.521,25.521,0,0,1,5.224,5.657,6.553,6.553,0,0,1-5.521,10.127h-1.5a6.242,6.242,0,0,1-5.149-2.767,13.3,13.3,0,0,0-3.581-3.563,14.142,14.142,0,0,0-8.1-2.3,12.334,12.334,0,0,0-9.947,4.521q-3.782,4.522-3.782,12.084t3.782,12.044a12.377,12.377,0,0,0,9.947,4.48,14.129,14.129,0,0,0,8.1-2.3,13.47,13.47,0,0,0,3.593-3.547,6.4,6.4,0,0,1,5.291-2.7h1.308a6.55,6.55,0,0,1,5.517,10.131,25.892,25.892,0,0,1-5.186,5.612q-7.275,5.878-18.373,5.878a28.985,28.985,0,0,1-14.88-3.741,25.387,25.387,0,0,1-9.906-10.481,35.567,35.567,0,0,1,0-30.746,25.4,25.4,0,0,1,9.906-10.481,28.994,28.994,0,0,1,14.88-3.741Q101.266,116.138,108.541,121.975Z" fill="#63bce7"/><path d="M149.961,133.88v.934a6.561,6.561,0,0,1-6.561,6.561h-1.51a6.561,6.561,0,0,1-6.561-6.561v-.934a6.561,6.561,0,0,1,6.561-6.561h1.51A6.561,6.561,0,0,1,149.961,133.88Zm0,33.458v.935a6.561,6.561,0,0,1-6.561,6.561h-1.51a6.561,6.561,0,0,1-6.561-6.561v-.935a6.561,6.561,0,0,1,6.561-6.561h1.51A6.561,6.561,0,0,1,149.961,167.338Z" fill="#63bce7"/><path d="M181.16,185.232,162.219,104.8a6.561,6.561,0,0,1,6.386-8.065h0a6.561,6.561,0,0,1,6.387,5.057l18.941,80.429a6.561,6.561,0,0,1-6.387,8.065h0A6.561,6.561,0,0,1,181.16,185.232Z" fill="#63bce7"/><path d="M43.688,39.347a8.5,8.5,0,1,0,8.5,8.5A8.51,8.51,0,0,0,43.688,39.347Zm0,14a5.5,5.5,0,1,1,5.5-5.5A5.506,5.506,0,0,1,43.688,53.347Z" fill="#3f3679"/><path d="M70.65,39.347a8.5,8.5,0,1,0,8.5,8.5A8.51,8.51,0,0,0,70.65,39.347Zm0,14a5.5,5.5,0,1,1,5.5-5.5A5.506,5.506,0,0,1,70.65,53.347Z" fill="#3f3679"/><path d="M97.612,39.347a8.5,8.5,0,1,0,8.5,8.5A8.51,8.51,0,0,0,97.612,39.347Zm0,14a5.5,5.5,0,1,1,5.5-5.5A5.506,5.506,0,0,1,97.612,53.347Z" fill="#3f3679"/><path d="M213.979,41.472H125.406a6.833,6.833,0,1,0,0,13.667h88.573a6.833,6.833,0,0,0,0-13.667Zm0,10.667H125.406a3.833,3.833,0,1,1,0-7.667h88.573a3.833,3.833,0,1,1,0,7.667Z" fill="#3f3679"/><path d="M27.323,227.653h-18a1.5,1.5,0,1,0,0,3h18a1.5,1.5,0,1,0,0-3Z" fill="#3f3679"/><path d="M246.68,227.653h-18a1.5,1.5,0,0,0,0,3h18a1.5,1.5,0,0,0,0-3Z" fill="#3f3679"/><path d="M218.479,227.653H37.521a1.5,1.5,0,0,0,0,3H218.479a1.5,1.5,0,0,0,0-3Z" fill="#3f3679"/><path d="M248.18,218.18a1.5,1.5,0,0,0-1.5-1.5H233.91a16.814,16.814,0,0,0,7.262-13.827V42.174a16.846,16.846,0,0,0-16.827-16.827H31.655A16.846,16.846,0,0,0,14.828,42.174V202.853A16.814,16.814,0,0,0,22.09,216.68H9.32a1.5,1.5,0,1,0,0,3H246.68A1.5,1.5,0,0,0,248.18,218.18ZM17.828,42.174A13.843,13.843,0,0,1,31.655,28.347h192.69a13.843,13.843,0,0,1,13.827,13.827V67.347H17.828ZM31.655,216.68a13.843,13.843,0,0,1-13.827-13.827V70.347H238.172V202.853a13.843,13.843,0,0,1-13.827,13.827Z" fill="#3f3679"/><path d="M89.922,130.627a12.737,12.737,0,0,1,7.258,2.044,11.863,11.863,0,0,1,3.18,3.165,7.747,7.747,0,0,0,6.389,3.422h1.5a8.107,8.107,0,0,0,7.166-4.323,7.8,7.8,0,0,0-.4-8.143,27.145,27.145,0,0,0-5.528-5.988h0c-5.1-4.092-11.6-6.167-19.312-6.167a30.6,30.6,0,0,0-15.636,3.945,26.983,26.983,0,0,0-10.481,11.086,37.061,37.061,0,0,0,0,32.127,26.978,26.978,0,0,0,10.481,11.086,30.593,30.593,0,0,0,15.636,3.945c7.716,0,14.214-2.09,19.315-6.211a27.5,27.5,0,0,0,5.484-5.936,7.78,7.78,0,0,0,.42-8.135,8.112,8.112,0,0,0-7.177-4.339H106.9a7.888,7.888,0,0,0-6.525,3.349,12.046,12.046,0,0,1-3.2,3.155,12.722,12.722,0,0,1-7.258,2.046,10.853,10.853,0,0,1-8.8-3.948c-2.274-2.694-3.428-6.42-3.428-11.076s1.155-8.4,3.433-11.121A10.809,10.809,0,0,1,89.922,130.627Zm-11.1,2.059c-2.741,3.277-4.131,7.666-4.131,13.046s1.392,9.762,4.135,13.011a13.867,13.867,0,0,0,11.093,5.013,15.663,15.663,0,0,0,8.937-2.559,15.024,15.024,0,0,0,3.989-3.939,4.891,4.891,0,0,1,4.056-2.051h1.308a5.053,5.053,0,0,1,4.526,2.743,4.823,4.823,0,0,1-.25,5.045,24.492,24.492,0,0,1-4.888,5.288c-4.554,3.679-10.418,5.545-17.43,5.545a27.643,27.643,0,0,1-14.124-3.537,24.025,24.025,0,0,1-9.33-9.875,34.079,34.079,0,0,1,0-29.365,24.033,24.033,0,0,1,9.33-9.875,27.651,27.651,0,0,1,14.124-3.537c7.013,0,12.879,1.853,17.435,5.507a24.134,24.134,0,0,1,4.918,5.326,4.842,4.842,0,0,1,.24,5.057,5.048,5.048,0,0,1-4.517,2.731h-1.5a4.751,4.751,0,0,1-3.909-2.111,14.852,14.852,0,0,0-3.982-3.962,15.675,15.675,0,0,0-8.936-2.558A13.822,13.822,0,0,0,78.825,132.687Z" fill="#3f3679"/><path d="M143.4,159.276h-1.51a8.07,8.07,0,0,0-8.062,8.062v.935a8.07,8.07,0,0,0,8.062,8.061h1.51a8.07,8.07,0,0,0,8.061-8.061v-.935A8.07,8.07,0,0,0,143.4,159.276Zm5.061,9a5.067,5.067,0,0,1-5.061,5.061h-1.51a5.067,5.067,0,0,1-5.062-5.061v-.935a5.067,5.067,0,0,1,5.062-5.062h1.51a5.067,5.067,0,0,1,5.061,5.062Z" fill="#3f3679"/><path d="M151.461,133.88a8.07,8.07,0,0,0-8.061-8.061h-1.51a8.07,8.07,0,0,0-8.062,8.061v.935a8.07,8.07,0,0,0,8.062,8.061h1.51a8.07,8.07,0,0,0,8.061-8.061Zm-3,.935a5.067,5.067,0,0,1-5.061,5.061h-1.51a5.067,5.067,0,0,1-5.062-5.061v-.935a5.067,5.067,0,0,1,5.062-5.061h1.51a5.067,5.067,0,0,1,5.061,5.061Z" fill="#3f3679"/><path d="M176.453,101.451a8.062,8.062,0,1,0-15.694,3.7L179.7,185.576a8.061,8.061,0,1,0,15.693-3.7Zm15.062,85.419a5.061,5.061,0,0,1-8.895-1.981l-18.941-80.429a5.062,5.062,0,0,1,9.854-2.321l18.94,80.429A5.034,5.034,0,0,1,191.515,186.87Z" fill="#3f3679"/><path d="M35.3,83.444h94.979a1.5,1.5,0,0,0,0-3H35.3a1.5,1.5,0,0,0,0,3Z" fill="#3f3679"/><path d="M150.61,83.444h22.667a1.5,1.5,0,0,0,0-3H150.61a1.5,1.5,0,0,0,0,3Z" fill="#3f3679"/><path d="M35.3,99.61H91.86a1.5,1.5,0,0,0,0-3H35.3a1.5,1.5,0,0,0,0,3Z" fill="#3f3679"/><path d="M152.11,98.11a1.5,1.5,0,0,0-1.5-1.5H103.222a1.5,1.5,0,1,0,0,3H150.61A1.5,1.5,0,0,0,152.11,98.11Z" fill="#3f3679"/><path d="M35.3,190.4h94.979a1.5,1.5,0,0,0,0-3H35.3a1.5,1.5,0,0,0,0,3Z" fill="#3f3679"/><path d="M173.277,187.4H150.61a1.5,1.5,0,0,0,0,3h22.667a1.5,1.5,0,0,0,0-3Z" fill="#3f3679"/><path d="M91.86,203.566H35.3a1.5,1.5,0,0,0,0,3H91.86a1.5,1.5,0,0,0,0-3Z" fill="#3f3679"/><path d="M150.61,203.566H103.222a1.5,1.5,0,1,0,0,3H150.61a1.5,1.5,0,0,0,0-3Z" fill="#3f3679"/></svg>