<svg xmlns="http://www.w3.org/2000/svg" viewBox="0 0 256 256"><title>icons_</title><rect x="18.37" y="49.464" width="219.26" height="151.106" rx="13.665" ry="13.665" fill="#cecece"/><path d="M28.37,186.9V63.128A13.681,13.681,0,0,1,42.035,49.464h-10A13.681,13.681,0,0,0,18.37,63.128V186.9a13.681,13.681,0,0,0,13.665,13.665h10A13.681,13.681,0,0,1,28.37,186.9Z" fill="#afafaf"/><path d="M227.63,186.9V63.128a13.681,13.681,0,0,0-13.665-13.665h10A13.681,13.681,0,0,1,237.63,63.128V186.9a13.681,13.681,0,0,1-13.665,13.665h-10A13.681,13.681,0,0,0,227.63,186.9Z" fill="#e2e2e2"/><rect x="26.779" y="57.872" width="202.442" height="122.288" rx="5.256" ry="5.256" fill="#63bce7"/><path d="M36.779,174.9V63.128a5.271,5.271,0,0,1,5.256-5.256h-10a5.271,5.271,0,0,0-5.256,5.256V174.9a5.271,5.271,0,0,0,5.256,5.256h10A5.271,5.271,0,0,1,36.779,174.9Z" fill="#6377e7"/><path d="M219.221,174.9V63.128a5.271,5.271,0,0,0-5.256-5.256h10a5.271,5.271,0,0,1,5.256,5.256V174.9a5.271,5.271,0,0,1-5.256,5.256h-10A5.271,5.271,0,0,0,219.221,174.9Z" fill="#63e2e7"/><rect x="89.809" y="222.728" width="76.383" height="9.197" fill="#9e9e9e"/><rect x="89.809" y="222.728" width="10" height="9.197" fill="#707070"/><rect x="100.67" y="200.569" width="54.659" height="22.158" fill="#cecece"/><rect x="100.67" y="200.569" width="10" height="22.158" fill="#afafaf"/><circle cx="128" cy="190.365" r="4.5" fill="#9e9e9e"/><polygon points="188.979 40.496 161.586 13.102 67.021 13.102 67.021 180.16 188.979 180.16 188.979 40.496" fill="#f8af23"/><polygon points="161.586 13.102 151.586 13.102 178.979 40.496 178.979 180.16 188.979 180.16 188.979 40.496 161.586 13.102" fill="#f8d323"/><rect x="67.021" y="13.102" width="10" height="167.058" fill="#f87023"/><rect x="67.021" y="134.25" width="121.959" height="45.91" fill="#9e9e9e"/><rect x="67.021" y="134.25" width="10" height="45.91" fill="#707070"/><rect x="178.979" y="134.25" width="10" height="45.91" fill="#cecece"/><path d="M112.757,145.581a12.513,12.513,0,0,1,3.121,3.678,2.717,2.717,0,0,1-2.325,4.085H111.68a2.756,2.756,0,0,1-2.286-1.283,6.537,6.537,0,0,0-1.814-1.83A6.949,6.949,0,0,0,103.6,149.1a6.07,6.07,0,0,0-4.892,2.223,8.969,8.969,0,0,0-1.861,5.945,8.876,8.876,0,0,0,1.861,5.923,6.084,6.084,0,0,0,4.892,2.2,6.949,6.949,0,0,0,3.983-1.132,6.627,6.627,0,0,0,1.81-1.808,2.759,2.759,0,0,1,2.276-1.266h1.872a2.716,2.716,0,0,1,2.324,4.088,12.676,12.676,0,0,1-3.106,3.655,13.915,13.915,0,0,1-9.038,2.891,14.247,14.247,0,0,1-7.319-1.84,12.5,12.5,0,0,1-4.874-5.155,17.5,17.5,0,0,1,0-15.124,12.505,12.505,0,0,1,4.874-5.155,14.264,14.264,0,0,1,7.319-1.84A13.978,13.978,0,0,1,112.757,145.581Z" fill="#3f3679"/><path d="M140.655,167.7a8.112,8.112,0,0,1-3.4,3.032,11.956,11.956,0,0,1-5.436,1.132,12.814,12.814,0,0,1-7.927-2.345,8.286,8.286,0,0,1-2.3-2.606A2.7,2.7,0,0,1,124,162.967h1.729a2.691,2.691,0,0,1,2.494,1.446,3.444,3.444,0,0,0,.783,1.1,3.545,3.545,0,0,0,2.529.93,2.923,2.923,0,0,0,2.1-.729,2.542,2.542,0,0,0,.77-1.94,2.51,2.51,0,0,0-.708-1.82,5.492,5.492,0,0,0-1.761-1.193c-.7-.309-1.67-.681-2.909-1.112a35.524,35.524,0,0,1-4.428-1.8,8.151,8.151,0,0,1-2.953-2.587,8.43,8.43,0,0,1,.061-8.877,8.221,8.221,0,0,1,3.579-2.85,13.041,13.041,0,0,1,5.237-.992,11.729,11.729,0,0,1,7.58,2.266,8.252,8.252,0,0,1,1.991,2.3,2.677,2.677,0,0,1-2.4,3.924h-1.961a2.593,2.593,0,0,1-2.341-1.374,3.3,3.3,0,0,0-.622-.87,3.035,3.035,0,0,0-2.243-.828,2.891,2.891,0,0,0-1.961.647,2.376,2.376,0,0,0-.749,1.9,2.4,2.4,0,0,0,.668,1.718,5.063,5.063,0,0,0,1.678,1.153c.673.3,1.645.675,2.909,1.132a31.771,31.771,0,0,1,4.489,1.84,8.618,8.618,0,0,1,2.995,2.649,7.566,7.566,0,0,1,1.254,4.528A7.87,7.87,0,0,1,140.655,167.7Z" fill="#3f3679"/><path d="M165.04,167.7a8.152,8.152,0,0,1-3.4,3.032,11.971,11.971,0,0,1-5.44,1.132,12.824,12.824,0,0,1-7.927-2.345,8.286,8.286,0,0,1-2.295-2.607,2.7,2.7,0,0,1,2.406-3.945h1.73a2.688,2.688,0,0,1,2.493,1.446,3.425,3.425,0,0,0,.783,1.1,3.547,3.547,0,0,0,2.527.93,2.932,2.932,0,0,0,2.1-.729,2.542,2.542,0,0,0,.77-1.94,2.5,2.5,0,0,0-.711-1.82,5.513,5.513,0,0,0-1.757-1.193q-1.051-.464-2.909-1.112a35.351,35.351,0,0,1-4.429-1.8,8.169,8.169,0,0,1-2.955-2.587,8.435,8.435,0,0,1,.063-8.877,8.235,8.235,0,0,1,3.577-2.85,13.06,13.06,0,0,1,5.239-.992,11.743,11.743,0,0,1,7.582,2.266,8.258,8.258,0,0,1,1.989,2.3,2.677,2.677,0,0,1-2.405,3.923h-1.958a2.593,2.593,0,0,1-2.341-1.374,3.3,3.3,0,0,0-.622-.87,3.042,3.042,0,0,0-2.244-.828,2.894,2.894,0,0,0-1.961.647,2.372,2.372,0,0,0-.75,1.9,2.4,2.4,0,0,0,.671,1.718,5,5,0,0,0,1.678,1.153q1.007.444,2.909,1.132a31.936,31.936,0,0,1,4.489,1.84,8.618,8.618,0,0,1,2.995,2.649,7.588,7.588,0,0,1,1.25,4.528A7.867,7.867,0,0,1,165.04,167.7Z" fill="#3f3679"/><path d="M128,196.365a6,6,0,1,0-6-6A6.007,6.007,0,0,0,128,196.365Zm0-9a3,3,0,1,1-3,3A3,3,0,0,1,128,187.365Z" fill="#3f3679"/><path d="M27.323,241.4h-18a1.5,1.5,0,0,0,0,3h18a1.5,1.5,0,1,0,0-3Z" fill="#3f3679"/><path d="M246.68,241.4h-18a1.5,1.5,0,0,0,0,3h18a1.5,1.5,0,0,0,0-3Z" fill="#3f3679"/><path d="M218.479,241.4H37.521a1.5,1.5,0,0,0,0,3H218.479a1.5,1.5,0,0,0,0-3Z" fill="#3f3679"/><path d="M9.32,233.425H246.68a1.5,1.5,0,0,0,0-3H167.691v-7.7a1.5,1.5,0,0,0-1.5-1.5h-9.362V202.069h67.137A15.182,15.182,0,0,0,239.13,186.9V63.128a15.182,15.182,0,0,0-15.164-15.165H190.479V40.5a1.5,1.5,0,0,0-.439-1.061L162.646,12.042a1.5,1.5,0,0,0-1.061-.439H67.021a1.5,1.5,0,0,0-1.5,1.5V47.963H32.034A15.182,15.182,0,0,0,16.87,63.128V186.9a15.182,15.182,0,0,0,15.164,15.165H99.171v19.158H89.809a1.5,1.5,0,0,0-1.5,1.5v7.7H9.32a1.5,1.5,0,0,0,0,3Zm153.766-216.7L185.358,39H163.086ZM187.479,178.66H68.521V135.75H187.479ZM65.521,134.25v44.411H32.034a3.76,3.76,0,0,1-3.755-3.756V63.128a3.759,3.759,0,0,1,3.755-3.755H65.521Zm124.959,0V59.373h33.486a3.759,3.759,0,0,1,3.755,3.755V174.9a3.76,3.76,0,0,1-3.755,3.756H190.479ZM160.086,14.6V40.5a1.5,1.5,0,0,0,1.5,1.5h25.894V132.75H68.521V14.6ZM19.87,186.9V63.128A12.178,12.178,0,0,1,32.034,50.963H65.521v5.409H32.034a6.763,6.763,0,0,0-6.755,6.755V174.9a6.763,6.763,0,0,0,6.755,6.756H223.966a6.763,6.763,0,0,0,6.755-6.756V63.128a6.763,6.763,0,0,0-6.755-6.755H190.479V50.963h33.486A12.178,12.178,0,0,1,236.13,63.128V186.9a12.178,12.178,0,0,1-12.164,12.165H32.034A12.178,12.178,0,0,1,19.87,186.9Zm82.3,15.165h51.658v19.158H102.171ZM91.309,224.228h73.383v6.2H91.309Z" fill="#3f3679"/><path d="M82.719,50.963h3.7c1.173,0,2.2,1.531,2.2,3.276V64.826c0,3.46,2.28,6.276,5.082,6.276h3.582a1.5,1.5,0,0,0,0-3H93.7c-.984,0-2.082-1.345-2.082-3.276V54.239a6.85,6.85,0,0,0-1.835-4.776,6.85,6.85,0,0,0,1.835-4.776V34.1c0-1.931,1.1-3.276,2.082-3.276h3.582a1.5,1.5,0,0,0,0-3H93.7c-2.8,0-5.082,2.815-5.082,6.276V44.688c0,1.745-1.028,3.276-2.2,3.276h-3.7a1.5,1.5,0,0,0,0,3Z" fill="#3f3679"/><path d="M167.379,86.6c0-3.46-2.28-6.276-5.082-6.276h-3.582a1.5,1.5,0,0,0,0,3H162.3c.984,0,2.082,1.345,2.082,3.276V97.184a6.85,6.85,0,0,0,1.835,4.776,6.85,6.85,0,0,0-1.835,4.776v10.586c0,1.931-1.1,3.276-2.082,3.276h-3.582a1.5,1.5,0,0,0,0,3H162.3c2.8,0,5.082-2.815,5.082-6.276V106.736c0-1.745,1.028-3.276,2.2-3.276h3.7a1.5,1.5,0,0,0,0-3h-3.7c-1.173,0-2.2-1.531-2.2-3.276Z" fill="#3f3679"/><path d="M103.024,50.963H166a1.5,1.5,0,0,0,0-3H103.024a1.5,1.5,0,0,0,0,3Z" fill="#3f3679"/><path d="M103.024,62.659H166a1.5,1.5,0,0,0,0-3H103.024a1.5,1.5,0,0,0,0,3Z" fill="#3f3679"/><path d="M103.024,74.354H166a1.5,1.5,0,0,0,0-3H103.024a1.5,1.5,0,0,0,0,3Z" fill="#3f3679"/><path d="M143.25,89H90a1.5,1.5,0,0,0,0,3H143.25a1.5,1.5,0,0,0,0-3Z" fill="#3f3679"/><path d="M143.25,100.46H90a1.5,1.5,0,0,0,0,3H143.25a1.5,1.5,0,0,0,0-3Z" fill="#3f3679"/><path d="M143.25,111.916H90a1.5,1.5,0,0,0,0,3H143.25a1.5,1.5,0,0,0,0-3Z" fill="#3f3679"/></svg>