<svg xmlns="http://www.w3.org/2000/svg" viewBox="0 0 256 256"><title>icons_</title><circle cx="211.468" cy="48.489" r="31.929" fill="#63bce7"/><path d="M113.654,133.658h28.692A42.654,42.654,0,0,1,185,176.313v52.154a0,0,0,0,1,0,0H71a0,0,0,0,1,0,0V176.313A42.654,42.654,0,0,1,113.654,133.658Z" fill="#cecece"/><path d="M123.654,133.658h-10A42.654,42.654,0,0,0,71,176.313v52.154H81V176.313A42.654,42.654,0,0,1,123.654,133.658Z" fill="#afafaf"/><path d="M132.346,133.658h10A42.654,42.654,0,0,1,185,176.313v52.154H175V176.313A42.654,42.654,0,0,0,132.346,133.658Z" fill="#e2e2e2"/><rect x="117.5" y="108.992" width="21" height="33" rx="10.5" ry="10.5" fill="#f8af23"/><path d="M117.5,119.492v12a10.5,10.5,0,0,0,6.4,9.667V109.825A10.5,10.5,0,0,0,117.5,119.492Z" fill="#f87023"/><circle cx="101" cy="88.623" r="5.75" fill="#f87023"/><circle cx="155" cy="88.623" r="5.75" fill="#f8af23"/><rect x="101" y="55.959" width="54" height="70.497" rx="27" ry="27" fill="#f8af23"/><path d="M111,99.457v-16.5a27,27,0,0,1,22-26.531,26.988,26.988,0,0,0-32,26.531v16.5a26.987,26.987,0,0,0,32,26.53A27,27,0,0,1,111,99.457Z" fill="#f87023"/><polygon points="148.97 76.224 151.75 87.885 155 87.885 155 72.95 148.97 72.95 148.97 76.224" fill="#cecece"/><path d="M101,87.885h3.153l9.163-9.853s36.474,5.135,48.634-9.6a14.76,14.76,0,0,0,3.039-14.191c-3-10.4-14.161-16.152-24.573-13.205l-35.7,10.1a8.183,8.183,0,0,0-5.689,5.808h0a7.056,7.056,0,0,0-3.555,7.877Z" fill="#cecece"/><path d="M109.029,56.946a8.183,8.183,0,0,1,5.689-5.808l35.7-10.1c.178-.05.357-.078.535-.123a20.3,20.3,0,0,0-10.535.123l-35.7,10.1a8.183,8.183,0,0,0-5.689,5.808,7.056,7.056,0,0,0-3.555,7.877L101,87.885h3.153L109.6,82.03l-4.123-17.208A7.056,7.056,0,0,1,109.029,56.946Z" fill="#afafaf"/><circle cx="116.5" cy="93.023" r="3.344" fill="#3f3679"/><circle cx="139.5" cy="93.023" r="3.344" fill="#3f3679"/><path d="M60.984,126.689h7a12.5,12.5,0,0,1,12.5,12.5v0a12.5,12.5,0,0,1-12.5,12.5h-7a0,0,0,0,1,0,0v-25A0,0,0,0,1,60.984,126.689Z" fill="#f8af23"/><path d="M67.984,126.689h-7v25h7a12.491,12.491,0,0,0,3-.377V127.066A12.491,12.491,0,0,0,67.984,126.689Z" fill="#f87023"/><path d="M64.943,113.947h0a3.958,3.958,0,0,1,3.958,3.958v8.783a0,0,0,0,1,0,0H60.984a0,0,0,0,1,0,0v-8.783A3.958,3.958,0,0,1,64.943,113.947Z" fill="#f87023"/><path d="M55.964,151.689H85.5a0,0,0,0,1,0,0V213.7a14.77,14.77,0,0,1-14.77,14.77h0a14.77,14.77,0,0,1-14.77-14.77V151.689A0,0,0,0,1,55.964,151.689Z" fill="#cecece"/><path d="M65.964,213.7V151.689h-10V213.7a14.77,14.77,0,0,0,14.77,14.77h0a14.708,14.708,0,0,0,5-.887A14.762,14.762,0,0,1,65.964,213.7Z" fill="#afafaf"/><path d="M175.516,126.689h7a12.5,12.5,0,0,1,12.5,12.5v0a12.5,12.5,0,0,1-12.5,12.5h-7a0,0,0,0,1,0,0v-25A0,0,0,0,1,175.516,126.689Z" transform="translate(370.531 278.378) rotate(180)" fill="#f8af23"/><path d="M188.016,126.689h7v25h-7a12.491,12.491,0,0,1-3-.377V127.066A12.491,12.491,0,0,1,188.016,126.689Z" fill="#f87023"/><path d="M187.1,113.947h7.917a0,0,0,0,1,0,0v8.783a3.958,3.958,0,0,1-3.958,3.958h0a3.958,3.958,0,0,1-3.958-3.958v-8.783A0,0,0,0,1,187.1,113.947Z" transform="translate(382.115 240.636) rotate(-180)" fill="#f87023"/><path d="M185.266,151.689h0a14.77,14.77,0,0,1,14.77,14.77v62.008a0,0,0,0,1,0,0H170.5a0,0,0,0,1,0,0V166.459a14.77,14.77,0,0,1,14.77-14.77Z" transform="translate(370.531 380.156) rotate(180)" fill="#cecece"/><circle cx="44.532" cy="48.489" r="31.929" fill="#63bce7"/><path d="M22.6,48.489A31.934,31.934,0,0,1,49.532,16.953a31.929,31.929,0,1,0,0,63.072A31.934,31.934,0,0,1,22.6,48.489Z" fill="#6377e7"/><path d="M233.4,48.489a31.934,31.934,0,0,0-26.929-31.536,31.929,31.929,0,1,1,0,63.072A31.934,31.934,0,0,0,233.4,48.489Z" fill="#63e2e7"/><circle cx="27.589" cy="48.489" r="5.543" fill="#f46275"/><circle cx="44.532" cy="48.489" r="5.543" fill="#f46275"/><circle cx="61.475" cy="48.489" r="5.543" fill="#f46275"/><path d="M204.195,60.267a4.152,4.152,0,0,1-3.171-1.466l-6.236-7.344a4.157,4.157,0,0,1,6.338-5.381l3.73,4.393L222.52,37.515a4.157,4.157,0,0,1,4.917,6.7L206.651,59.463A4.142,4.142,0,0,1,204.195,60.267Z" fill="#f8af23"/><path d="M190.036,213.7V151.689h10V213.7a14.77,14.77,0,0,1-14.77,14.77h0a14.708,14.708,0,0,1-5-.887A14.762,14.762,0,0,0,190.036,213.7Z" fill="#e2e2e2"/><path d="M27.323,237.939h-18a1.5,1.5,0,0,0,0,3h18a1.5,1.5,0,1,0,0-3Z" fill="#3f3679"/><path d="M246.68,237.939h-18a1.5,1.5,0,0,0,0,3h18a1.5,1.5,0,0,0,0-3Z" fill="#3f3679"/><path d="M218.479,237.939H37.521a1.5,1.5,0,0,0,0,3H218.479a1.5,1.5,0,0,0,0-3Z" fill="#3f3679"/><path d="M9.32,229.967H246.68a1.5,1.5,0,0,0,0-3H194.646a16.251,16.251,0,0,0,6.889-13.271V151.688a1.5,1.5,0,0,0-1.5-1.5h-3.52V117.905a5.458,5.458,0,0,0-10.917,0v7.507a13.973,13.973,0,0,0-6.215,24.776h-1.453a44.285,44.285,0,0,0-35.585-18.03h-2.379c.012-.222.034-.441.034-.666V125.3a28.533,28.533,0,0,0,16.5-25.842V95.715a7.249,7.249,0,0,0,0-14.184v-6.8a22.8,22.8,0,0,0,6.607-5.347,16.2,16.2,0,0,0,3.323-15.562c-3.193-11.067-15.047-17.458-26.423-14.232l-35.7,10.1a9.723,9.723,0,0,0-6.549,6.254,8.559,8.559,0,0,0-3.746,9.225L98.05,82.015a7.24,7.24,0,0,0,1.45,13.7v3.742A28.533,28.533,0,0,0,116,125.3v6.194c0,.225.021.444.034.666h-2.379a44.3,44.3,0,0,0-35.588,18.03h-1.45A13.973,13.973,0,0,0,70.4,125.412v-7.507a5.458,5.458,0,0,0-10.917,0v32.283h-3.52a1.5,1.5,0,0,0-1.5,1.5V213.7a16.251,16.251,0,0,0,6.889,13.271H9.32a1.5,1.5,0,0,0,0,3ZM188.6,117.905a2.458,2.458,0,0,1,4.917,0v7.283H188.6Zm-11.583,21.283a11.012,11.012,0,0,1,11-11h5.5v22h-5.5A11.012,11.012,0,0,1,177.016,139.188Zm18,14h3.52V213.7a13.27,13.27,0,1,1-26.539,0V153.188h23.02Zm-52.67-18.03a41.289,41.289,0,0,1,31.793,15.03H170.5a1.5,1.5,0,0,0-1.5,1.5V213.7a16.251,16.251,0,0,0,6.889,13.271H129.472a1.494,1.494,0,0,0,.028-.278v-83.3a12.023,12.023,0,0,0,9.922-8.23Zm16.9-46.535a4.246,4.246,0,0,1-2.75,3.963v-4.7h0V84.66A4.246,4.246,0,0,1,159.25,88.623Zm-5.75-2.238h-.565l-2.182-9.151c.952-.323,1.875-.663,2.748-1.035Zm-48.374-33.8,35.7-10.1c9.793-2.771,19.986,2.69,22.724,12.178a13.35,13.35,0,0,1-2.755,12.819c-2.867,3.474-7.226,5.781-12.159,7.287l-.055.017c-13.359,4.061-30.874,2.269-34.4,1.848L100.683,56.713A6.7,6.7,0,0,1,105.126,52.581Zm-6.483,6.471L111.4,77.885l-7.9,8.5h-1.317L96.933,64.474A5.542,5.542,0,0,1,98.643,59.052ZM96.75,88.623a4.265,4.265,0,0,1,2.02-3.6l.73,3.047v4.519A4.246,4.246,0,0,1,96.75,88.623Zm5.75,10.834V89.385h1.652a1.5,1.5,0,0,0,1.1-.479l8.638-9.289a117.51,117.51,0,0,0,19.263.638,71.952,71.952,0,0,0,14.726-2.147l2.414,10.125a1.5,1.5,0,0,0,1.459,1.152h1.75V99.457a25.5,25.5,0,0,1-51,0Zm25.5,28.5a28.369,28.369,0,0,0,9-1.465v5a9,9,0,0,1-18,0v-5A28.369,28.369,0,0,0,128,127.957Zm-14.346,7.2h2.923a12.023,12.023,0,0,0,9.922,8.23v83.3a1.5,1.5,0,0,0,.028.278H80.115A16.251,16.251,0,0,0,87,213.7V151.688a1.5,1.5,0,0,0-1.5-1.5H81.859A41.3,41.3,0,0,1,113.654,135.158Zm-51.17-17.253a2.458,2.458,0,0,1,4.917,0v7.283H62.484Zm0,10.283h5.5a11,11,0,0,1,0,22h-5.5ZM57.465,213.7V153.188H84V213.7a13.27,13.27,0,1,1-26.539,0Z" fill="#3f3679"/><path d="M121.266,85.033h-9.531a1.5,1.5,0,0,0,0,3h9.531a1.5,1.5,0,0,0,0-3Z" fill="#3f3679"/><path d="M134.734,88.033h9.531a1.5,1.5,0,0,0,0-3h-9.531a1.5,1.5,0,0,0,0,3Z" fill="#3f3679"/><path d="M128,107.325a1.5,1.5,0,0,0,1.5-1.5V96.294a1.5,1.5,0,0,0-3,0v9.531A1.5,1.5,0,0,0,128,107.325Z" fill="#3f3679"/><path d="M133.079,114.325a1.5,1.5,0,0,0-1.951-2.277,4.926,4.926,0,0,1-6.256,0,1.5,1.5,0,0,0-1.951,2.277,7.8,7.8,0,0,0,10.158,0Z" fill="#3f3679"/><path d="M43.046,81.879a16.15,16.15,0,0,0,9.81,14.515l32.713,13.977a1.475,1.475,0,0,0,.588.121,1.5,1.5,0,0,0,.59-2.879L54.034,93.636a13.155,13.155,0,0,1-7.989-11.757,33.434,33.434,0,1,0-3,0Zm1.487-63.819A30.428,30.428,0,1,1,14.1,48.489,30.463,30.463,0,0,1,44.532,18.061Z" fill="#3f3679"/><path d="M169.844,110.492a1.475,1.475,0,0,0,.588-.121L203.144,96.4a16.152,16.152,0,0,0,9.811-14.516,33.423,33.423,0,1,0-3,0,13.158,13.158,0,0,1-7.989,11.758l-32.712,13.977a1.5,1.5,0,0,0,.59,2.879Zm11.2-62a30.429,30.429,0,1,1,30.429,30.428A30.463,30.463,0,0,1,181.039,48.489Z" fill="#3f3679"/><path d="M34.633,48.489a7.043,7.043,0,1,0-7.043,7.043A7.051,7.051,0,0,0,34.633,48.489Zm-11.087,0a4.043,4.043,0,1,1,4.044,4.043A4.049,4.049,0,0,1,23.546,48.489Z" fill="#3f3679"/><path d="M44.532,55.532a7.043,7.043,0,1,0-7.043-7.043A7.051,7.051,0,0,0,44.532,55.532Zm0-11.087a4.043,4.043,0,1,1-4.043,4.044A4.048,4.048,0,0,1,44.532,44.445Z" fill="#3f3679"/><path d="M61.476,55.532a7.043,7.043,0,1,0-7.043-7.043A7.051,7.051,0,0,0,61.476,55.532Zm0-11.087a4.043,4.043,0,1,1-4.043,4.044A4.048,4.048,0,0,1,61.476,44.445Z" fill="#3f3679"/><path d="M229.539,37.521a5.663,5.663,0,0,0-7.906-1.216L205.1,48.434,202.27,45.1a5.657,5.657,0,1,0-8.625,7.323l6.235,7.344a5.658,5.658,0,0,0,7.658.9L228.324,45.43A5.665,5.665,0,0,0,229.539,37.521Zm-2.989,5.489L205.765,58.253a2.721,2.721,0,0,1-3.6-.423l-6.235-7.344a2.657,2.657,0,0,1,2.021-4.377c.073,0,.146,0,.221.009a2.641,2.641,0,0,1,1.809.928l3.73,4.394a1.5,1.5,0,0,0,2.03.239l17.663-12.953a2.657,2.657,0,0,1,3.144,4.285Z" fill="#3f3679"/></svg>