<svg xmlns="http://www.w3.org/2000/svg" viewBox="0 0 256 256"><title>icons_</title><path d="M113.654,104.97h28.692A42.654,42.654,0,0,1,185,147.624v52.154a0,0,0,0,1,0,0H71a0,0,0,0,1,0,0V147.624A42.654,42.654,0,0,1,113.654,104.97Z" fill="#cecece"/><path d="M123.654,104.97h-10A42.654,42.654,0,0,0,71,147.624v52.154H81V147.624A42.654,42.654,0,0,1,123.654,104.97Z" fill="#afafaf"/><path d="M132.346,104.97h10A42.654,42.654,0,0,1,185,147.624v52.154H175V147.624A42.654,42.654,0,0,0,132.346,104.97Z" fill="#e2e2e2"/><rect x="117.5" y="80.303" width="21" height="33" rx="10.5" ry="10.5" fill="#f8af23"/><path d="M117.5,90.8v12a10.5,10.5,0,0,0,6.4,9.667V81.136A10.5,10.5,0,0,0,117.5,90.8Z" fill="#f87023"/><circle cx="101" cy="59.935" r="5.75" fill="#f87023"/><circle cx="155" cy="59.935" r="5.75" fill="#f8af23"/><rect x="101" y="27.271" width="54" height="70.497" rx="27" ry="27" fill="#f8af23"/><path d="M111,70.768v-16.5A27,27,0,0,1,133,27.74a26.988,26.988,0,0,0-32,26.531v16.5A26.987,26.987,0,0,0,133,97.3,27,27,0,0,1,111,70.768Z" fill="#f87023"/><rect x="46.25" y="137.508" width="163.5" height="95.942" fill="#63bce7"/><rect x="46.25" y="137.508" width="10" height="95.942" fill="#6377e7"/><rect x="199.75" y="137.508" width="10" height="95.942" fill="#63e2e7"/><path d="M38.333,162.97h7a12.5,12.5,0,0,1,12.5,12.5v0a12.5,12.5,0,0,1-12.5,12.5h-7a0,0,0,0,1,0,0v-25A0,0,0,0,1,38.333,162.97Z" fill="#f8af23"/><path d="M45.333,162.97h-7v25h7a12.491,12.491,0,0,0,3-.377V163.347A12.491,12.491,0,0,0,45.333,162.97Z" fill="#f87023"/><path d="M42.292,146.678h0a3.958,3.958,0,0,1,3.958,3.958V162.97a0,0,0,0,1,0,0H38.333a0,0,0,0,1,0,0V150.636A3.958,3.958,0,0,1,42.292,146.678Z" fill="#f87023"/><path d="M198.167,162.97h7a12.5,12.5,0,0,1,12.5,12.5v0a12.5,12.5,0,0,1-12.5,12.5h-7a0,0,0,0,1,0,0v-25A0,0,0,0,1,198.167,162.97Z" transform="translate(415.833 350.939) rotate(180)" fill="#f8af23"/><path d="M210.667,162.97a12.491,12.491,0,0,0-3,.377v24.245a12.491,12.491,0,0,0,3,.377h7v-25Z" fill="#f8d323"/><path d="M209.75,146.678h7.917a0,0,0,0,1,0,0v12.333a3.958,3.958,0,0,1-3.958,3.958h0a3.958,3.958,0,0,1-3.958-3.958V146.678A0,0,0,0,1,209.75,146.678Z" transform="translate(427.417 309.647) rotate(-180)" fill="#f8d323"/><path d="M75.136,177.376,77,181.149a1.228,1.228,0,0,0,.925.672l4.164.605a1.228,1.228,0,0,1,.681,2.095l-3.013,2.937a1.228,1.228,0,0,0-.353,1.087l.711,4.147a1.228,1.228,0,0,1-1.782,1.294l-3.724-1.958a1.228,1.228,0,0,0-1.143,0l-3.724,1.958a1.228,1.228,0,0,1-1.782-1.294l.711-4.147a1.228,1.228,0,0,0-.353-1.087L65.3,184.52a1.228,1.228,0,0,1,.681-2.095l4.164-.605a1.228,1.228,0,0,0,.925-.672l1.862-3.773A1.228,1.228,0,0,1,75.136,177.376Z" fill="#f46275"/><path d="M102.118,177.376l1.862,3.773a1.228,1.228,0,0,0,.925.672l4.164.605a1.228,1.228,0,0,1,.681,2.095l-3.013,2.937a1.228,1.228,0,0,0-.353,1.087l.711,4.147a1.228,1.228,0,0,1-1.782,1.294l-3.724-1.958a1.228,1.228,0,0,0-1.143,0l-3.724,1.958a1.228,1.228,0,0,1-1.782-1.294l.711-4.147a1.228,1.228,0,0,0-.353-1.087l-3.013-2.937a1.228,1.228,0,0,1,.681-2.095l4.164-.605a1.228,1.228,0,0,0,.925-.672l1.862-3.773A1.228,1.228,0,0,1,102.118,177.376Z" fill="#f46275"/><path d="M129.1,177.376l1.862,3.773a1.228,1.228,0,0,0,.925.672l4.164.605a1.228,1.228,0,0,1,.681,2.095l-3.013,2.937a1.228,1.228,0,0,0-.353,1.087l.711,4.147a1.228,1.228,0,0,1-1.782,1.294l-3.724-1.958a1.228,1.228,0,0,0-1.143,0l-3.724,1.958a1.228,1.228,0,0,1-1.782-1.294l.711-4.147a1.228,1.228,0,0,0-.353-1.087l-3.013-2.937a1.228,1.228,0,0,1,.681-2.095l4.164-.605a1.228,1.228,0,0,0,.925-.672l1.862-3.773A1.228,1.228,0,0,1,129.1,177.376Z" fill="#f46275"/><path d="M156.084,177.376l1.862,3.773a1.228,1.228,0,0,0,.925.672l4.164.605a1.228,1.228,0,0,1,.681,2.095l-3.013,2.937a1.228,1.228,0,0,0-.353,1.087l.711,4.147a1.228,1.228,0,0,1-1.782,1.294l-3.724-1.958a1.228,1.228,0,0,0-1.143,0l-3.724,1.958a1.228,1.228,0,0,1-1.782-1.294l.711-4.147a1.228,1.228,0,0,0-.353-1.087l-3.013-2.937a1.228,1.228,0,0,1,.681-2.095l4.164-.605a1.228,1.228,0,0,0,.925-.672l1.862-3.773A1.228,1.228,0,0,1,156.084,177.376Z" fill="#f46275"/><path d="M183.067,177.376l1.862,3.773a1.228,1.228,0,0,0,.925.672l4.164.605a1.228,1.228,0,0,1,.681,2.095l-3.013,2.937a1.228,1.228,0,0,0-.353,1.087l.711,4.147a1.228,1.228,0,0,1-1.782,1.294l-3.724-1.958a1.228,1.228,0,0,0-1.143,0l-3.724,1.958a1.228,1.228,0,0,1-1.782-1.294l.711-4.147a1.228,1.228,0,0,0-.353-1.087l-3.013-2.937a1.228,1.228,0,0,1,.681-2.095l4.164-.605a1.228,1.228,0,0,0,.925-.672l1.862-3.773A1.228,1.228,0,0,1,183.067,177.376Z" fill="#f46275"/><polygon points="148.97 47.535 151.75 59.196 155 59.196 155 44.261 148.97 44.261 148.97 47.535" fill="#cecece"/><path d="M101,59.2h3.153l9.163-9.853s36.474,5.135,48.634-9.6a14.76,14.76,0,0,0,3.039-14.191c-3-10.4-14.161-16.152-24.573-13.205l-35.7,10.1a8.183,8.183,0,0,0-5.689,5.808h0a7.056,7.056,0,0,0-3.555,7.877Z" fill="#cecece"/><path d="M109.029,28.257a8.183,8.183,0,0,1,5.689-5.808l35.7-10.1c.178-.05.357-.078.535-.123a20.3,20.3,0,0,0-10.535.123l-35.7,10.1a8.183,8.183,0,0,0-5.689,5.808,7.056,7.056,0,0,0-3.555,7.877L101,59.2h3.153l5.444-5.854-4.123-17.208A7.056,7.056,0,0,1,109.029,28.257Z" fill="#afafaf"/><circle cx="116.5" cy="64.334" r="3.344" fill="#3f3679"/><circle cx="139.5" cy="64.334" r="3.344" fill="#3f3679"/><path d="M82.3,180.941l-4.021-.584-1.8-3.646a2.728,2.728,0,0,0-4.892,0l-1.8,3.646-4.021.584a2.728,2.728,0,0,0-1.512,4.653l2.91,2.837-.687,4.006a2.729,2.729,0,0,0,3.959,2.876l3.6-1.892,3.6,1.891a2.728,2.728,0,0,0,3.958-2.876l-.687-4,2.911-2.838a2.728,2.728,0,0,0-1.513-4.652Zm-3.594,5.44a2.725,2.725,0,0,0-.786,2.416l.618,3.6L75.3,190.7a2.724,2.724,0,0,0-2.54,0l-3.236,1.7.619-3.6a2.73,2.73,0,0,0-.785-2.415l-2.618-2.552,3.619-.525a2.729,2.729,0,0,0,2.053-1.492l1.619-3.279,1.617,3.278a2.732,2.732,0,0,0,2.054,1.493l3.619.525Z" fill="#3f3679"/><path d="M109.284,180.941l-4.021-.584-1.8-3.646a2.728,2.728,0,0,0-4.892,0l-1.8,3.646-4.021.584a2.728,2.728,0,0,0-1.512,4.653l2.91,2.837-.687,4.006a2.725,2.725,0,0,0,3.958,2.876l3.6-1.892,3.6,1.892a2.729,2.729,0,0,0,3.958-2.877l-.687-4,2.911-2.838a2.728,2.728,0,0,0-1.513-4.652Zm-3.6,5.442a2.729,2.729,0,0,0-.784,2.414l.619,3.6-3.235-1.7a2.726,2.726,0,0,0-2.54,0l-3.236,1.7.618-3.6a2.725,2.725,0,0,0-.785-2.415l-2.618-2.552,3.621-.525a2.73,2.73,0,0,0,2.051-1.492l1.619-3.279,1.617,3.278a2.731,2.731,0,0,0,2.055,1.493l3.618.525Z" fill="#3f3679"/><path d="M136.268,180.941l-4.022-.584-1.8-3.645v0a2.73,2.73,0,0,0-4.894,0l-1.8,3.645-4.022.584a2.727,2.727,0,0,0-1.511,4.653l2.909,2.836-.687,4.007a2.725,2.725,0,0,0,3.958,2.876l3.6-1.892,3.6,1.891a2.728,2.728,0,0,0,3.958-2.876l-.687-4.006,2.909-2.836a2.727,2.727,0,0,0-1.511-4.653Zm-3.6,5.442a2.729,2.729,0,0,0-.783,2.414l.618,3.6-3.235-1.7a2.726,2.726,0,0,0-2.54,0l-3.236,1.7.618-3.6a2.729,2.729,0,0,0-.784-2.415l-2.618-2.552,3.619-.525a2.731,2.731,0,0,0,2.054-1.493L128,178.533l1.617,3.279a2.731,2.731,0,0,0,2.055,1.493l3.618.525Z" fill="#3f3679"/><path d="M163.25,180.941l-4.021-.584-1.8-3.646a2.728,2.728,0,0,0-4.892,0l-1.8,3.646-4.021.584a2.728,2.728,0,0,0-1.512,4.653l2.91,2.837-.687,4.006a2.729,2.729,0,0,0,3.959,2.876l3.6-1.892,3.6,1.891a2.728,2.728,0,0,0,3.958-2.876l-.687-4,2.911-2.838a2.728,2.728,0,0,0-1.513-4.652Zm-3.594,5.44a2.725,2.725,0,0,0-.786,2.416l.618,3.6-3.235-1.7a2.724,2.724,0,0,0-2.54,0l-3.236,1.7.619-3.6a2.73,2.73,0,0,0-.785-2.415l-2.618-2.552,3.619-.525a2.729,2.729,0,0,0,2.053-1.492l1.618-3.279,1.618,3.278a2.732,2.732,0,0,0,2.054,1.493l3.619.525Z" fill="#3f3679"/><path d="M190.232,180.941l-4.021-.584-1.8-3.646a2.728,2.728,0,0,0-4.892,0l-1.8,3.646-4.021.584a2.728,2.728,0,0,0-1.512,4.653l2.91,2.837-.687,4a2.726,2.726,0,0,0,3.958,2.878l3.6-1.892,3.6,1.892a2.729,2.729,0,0,0,3.958-2.877l-.687-4,2.911-2.838a2.728,2.728,0,0,0-1.513-4.652Zm-3.6,5.442a2.729,2.729,0,0,0-.784,2.414l.619,3.6-3.236-1.7a2.726,2.726,0,0,0-2.54,0l-3.235,1.7.618-3.6a2.725,2.725,0,0,0-.785-2.415l-2.618-2.552,3.621-.525a2.73,2.73,0,0,0,2.051-1.492l1.618-3.279,1.618,3.278a2.731,2.731,0,0,0,2.055,1.493l3.618.525Z" fill="#3f3679"/><path d="M121.266,56.345h-9.531a1.5,1.5,0,0,0,0,3h9.531a1.5,1.5,0,0,0,0-3Z" fill="#3f3679"/><path d="M134.734,59.345h9.531a1.5,1.5,0,0,0,0-3h-9.531a1.5,1.5,0,0,0,0,3Z" fill="#3f3679"/><path d="M128,78.636a1.5,1.5,0,0,0,1.5-1.5V67.6a1.5,1.5,0,0,0-3,0v9.531A1.5,1.5,0,0,0,128,78.636Z" fill="#3f3679"/><path d="M133.079,85.637a1.5,1.5,0,0,0-1.951-2.277,4.926,4.926,0,0,1-6.256,0,1.5,1.5,0,0,0-1.951,2.277,7.8,7.8,0,0,0,10.158,0Z" fill="#3f3679"/><path d="M27.323,242.924h-18a1.5,1.5,0,0,0,0,3h18a1.5,1.5,0,1,0,0-3Z" fill="#3f3679"/><path d="M246.68,242.924h-18a1.5,1.5,0,0,0,0,3h18a1.5,1.5,0,0,0,0-3Z" fill="#3f3679"/><path d="M218.479,242.924H37.521a1.5,1.5,0,0,0,0,3H218.479a1.5,1.5,0,0,0,0-3Z" fill="#3f3679"/><path d="M9.32,234.95H246.68a1.5,1.5,0,0,0,0-3H211.25V189.47h6.417a1.5,1.5,0,0,0,1.5-1.5V150.636a5.448,5.448,0,0,0-7.917-4.867v-8.26a1.5,1.5,0,0,0-1.5-1.5h-24.8a44.1,44.1,0,0,0-42.6-32.539h-2.38c.012-.222.034-.442.034-.667V96.609a28.533,28.533,0,0,0,16.5-25.842V67.027a7.249,7.249,0,0,0,0-14.184v-6.8a22.8,22.8,0,0,0,6.607-5.348,16.2,16.2,0,0,0,3.323-15.562c-3.193-11.067-15.05-17.448-26.423-14.232l-35.7,10.1a9.723,9.723,0,0,0-6.549,6.254,8.558,8.558,0,0,0-3.746,9.224l4.033,16.834A7.246,7.246,0,0,0,99.5,67.027v3.741A28.533,28.533,0,0,0,116,96.609V102.8c0,.225.021.445.034.667h-2.38a44.06,44.06,0,0,0-42.6,32.539H46.25a1.5,1.5,0,0,0-1.5,1.5v8.26a5.448,5.448,0,0,0-7.917,4.867V187.97a1.5,1.5,0,0,0,1.5,1.5H44.75v42.48H9.32a1.5,1.5,0,0,0,0,3Zm206.847-48.48h-5.5a11,11,0,0,1,0-22h5.5Zm-2.459-38.292a2.461,2.461,0,0,1,2.459,2.458V161.47H211.25V150.636A2.461,2.461,0,0,1,213.708,148.178ZM159.25,59.935A4.246,4.246,0,0,1,156.5,63.9V55.971A4.246,4.246,0,0,1,159.25,59.935ZM153.5,57.7h-.565l-2.182-9.151c.952-.323,1.875-.663,2.748-1.035Zm-48.374-33.8,35.7-10.1c9.8-2.769,19.986,2.692,22.724,12.178a13.352,13.352,0,0,1-2.755,12.82c-2.865,3.473-7.223,5.78-12.154,7.287l-.072.021c-13.377,4.062-30.917,2.26-34.407,1.842-.022-.039-.038-.081-.064-.119l-13.409-19.79,0,0A6.7,6.7,0,0,1,105.126,23.893Zm-6.483,6.47L111.4,49.2l-7.9,8.5h-1.317L96.933,35.784A5.543,5.543,0,0,1,98.643,30.363ZM96.75,59.935a4.251,4.251,0,0,1,2.019-3.606L99.5,59.4c0,.014,0,.028,0,.042V63.9A4.246,4.246,0,0,1,96.75,59.935Zm5.75,10.833V60.7h1.652a1.5,1.5,0,0,0,1.1-.479l8.638-9.289a117.993,117.993,0,0,0,19.263.638,71.952,71.952,0,0,0,14.726-2.147l2.414,10.125A1.5,1.5,0,0,0,151.75,60.7h1.75V70.768a25.5,25.5,0,0,1-51,0Zm25.5,28.5a28.369,28.369,0,0,0,9-1.465v5a9,9,0,1,1-18,0v-5A28.369,28.369,0,0,0,128,99.268Zm-14.346,7.2h2.924a11.995,11.995,0,0,0,22.844,0h2.924a41.1,41.1,0,0,1,39.489,29.539H166.293V128.8a1.5,1.5,0,0,0-3,0v7.206H92.707V128.8a1.5,1.5,0,0,0-3,0v7.206H74.162A41.072,41.072,0,0,1,113.654,106.47ZM39.833,150.636a2.458,2.458,0,0,1,4.917,0V161.47H39.833Zm0,13.834h5.5a11,11,0,0,1,0,22h-5.5Zm7.917,24.776a13.984,13.984,0,0,0,0-27.553V139.009h160.5v22.685a13.984,13.984,0,0,0,0,27.553v42.7H47.75Z" fill="#3f3679"/></svg>