<svg xmlns="http://www.w3.org/2000/svg" viewBox="0 0 256 256"><title>icons_</title><rect x="18.37" y="31.283" width="219.26" height="151.106" rx="13.665" ry="13.665" fill="#cecece"/><path d="M28.37,168.724V44.948A13.681,13.681,0,0,1,42.035,31.283h-10A13.681,13.681,0,0,0,18.37,44.948V168.724a13.681,13.681,0,0,0,13.665,13.665h10A13.681,13.681,0,0,1,28.37,168.724Z" fill="#afafaf"/><path d="M227.63,168.724V44.948a13.681,13.681,0,0,0-13.665-13.665h10A13.681,13.681,0,0,1,237.63,44.948V168.724a13.681,13.681,0,0,1-13.665,13.665h-10A13.681,13.681,0,0,0,227.63,168.724Z" fill="#e2e2e2"/><rect x="26.779" y="39.692" width="202.442" height="122.288" rx="5.256" ry="5.256" fill="#63bce7"/><path d="M36.779,156.724V44.947a5.271,5.271,0,0,1,5.256-5.256h-10a5.271,5.271,0,0,0-5.256,5.256V156.724a5.271,5.271,0,0,0,5.256,5.256h10A5.271,5.271,0,0,1,36.779,156.724Z" fill="#6377e7"/><path d="M219.221,156.724V44.947a5.271,5.271,0,0,0-5.256-5.256h10a5.271,5.271,0,0,1,5.256,5.256V156.724a5.271,5.271,0,0,1-5.256,5.256h-10A5.271,5.271,0,0,0,219.221,156.724Z" fill="#63e2e7"/><rect x="89.809" y="204.547" width="76.383" height="9.197" fill="#9e9e9e"/><rect x="89.809" y="204.547" width="10" height="9.197" fill="#707070"/><rect x="100.67" y="182.389" width="54.659" height="22.158" fill="#cecece"/><rect x="100.67" y="182.389" width="10" height="22.158" fill="#afafaf"/><circle cx="128" cy="172.184" r="4.5" fill="#9e9e9e"/><rect x="37.292" y="46.502" width="52.333" height="108.667" rx="5" ry="5" fill="#9e9e9e"/><rect x="103.042" y="46.502" width="32.333" height="32.333" fill="#f8af23"/><rect x="144.708" y="46.502" width="32.333" height="32.333" fill="#f8af23"/><rect x="186.375" y="46.502" width="32.333" height="32.333" fill="#f8af23"/><rect x="103.042" y="89.501" width="115.667" height="40.834" fill="#f46275"/><rect x="117.271" y="112.167" width="5.833" height="18.169" fill="#f8af23"/><rect x="127.729" y="101.5" width="5.833" height="28.836" fill="#63bce7"/><rect x="152.729" y="105.625" width="5.833" height="24.711" fill="#f8af23"/><rect x="163.188" y="112.167" width="5.833" height="18.169" fill="#63bce7"/><rect x="188.188" y="108" width="5.833" height="22.336" fill="#f8af23"/><rect x="198.646" y="120.75" width="5.833" height="9.586" fill="#63bce7"/><path d="M230.721,156.724V44.947a6.763,6.763,0,0,0-6.755-6.756H32.034a6.763,6.763,0,0,0-6.755,6.756V156.724a6.763,6.763,0,0,0,6.755,6.756H223.966A6.763,6.763,0,0,0,230.721,156.724Zm-202.441,0V44.947a3.76,3.76,0,0,1,3.755-3.756H223.966a3.76,3.76,0,0,1,3.755,3.756V156.724a3.76,3.76,0,0,1-3.755,3.756H32.034A3.76,3.76,0,0,1,28.279,156.724Z" fill="#3f3679"/><path d="M128,166.185a6,6,0,1,0,6,6A6.007,6.007,0,0,0,128,166.185Zm0,9a3,3,0,1,1,3-3A3,3,0,0,1,128,175.185Z" fill="#3f3679"/><path d="M27.323,223.217h-18a1.5,1.5,0,0,0,0,3h18a1.5,1.5,0,1,0,0-3Z" fill="#3f3679"/><path d="M246.68,223.217h-18a1.5,1.5,0,0,0,0,3h18a1.5,1.5,0,0,0,0-3Z" fill="#3f3679"/><path d="M218.479,223.217H37.521a1.5,1.5,0,0,0,0,3H218.479a1.5,1.5,0,0,0,0-3Z" fill="#3f3679"/><path d="M9.32,215.244H246.68a1.5,1.5,0,0,0,0-3H167.691v-7.7a1.5,1.5,0,0,0-1.5-1.5h-9.362V183.889h67.137a15.182,15.182,0,0,0,15.164-15.165V44.947a15.181,15.181,0,0,0-15.164-15.164H32.034A15.181,15.181,0,0,0,16.87,44.947V168.724a15.182,15.182,0,0,0,15.164,15.165H99.171v19.158H89.809a1.5,1.5,0,0,0-1.5,1.5v7.7H9.32a1.5,1.5,0,0,0,0,3Zm10.55-46.521V44.947A12.178,12.178,0,0,1,32.034,32.783H223.966A12.178,12.178,0,0,1,236.13,44.947V168.724a12.178,12.178,0,0,1-12.164,12.165H32.034A12.178,12.178,0,0,1,19.87,168.724Zm82.3,15.165h51.658v19.158H102.171ZM91.309,206.047h73.383v6.2H91.309Z" fill="#3f3679"/><path d="M84.625,45H42.292a6.508,6.508,0,0,0-6.5,6.5v98.667a6.508,6.508,0,0,0,6.5,6.5H84.625a6.508,6.508,0,0,0,6.5-6.5V51.5A6.508,6.508,0,0,0,84.625,45Zm3.5,105.167a3.5,3.5,0,0,1-3.5,3.5H42.292a3.5,3.5,0,0,1-3.5-3.5V51.5a3.5,3.5,0,0,1,3.5-3.5H84.625a3.5,3.5,0,0,1,3.5,3.5Z" fill="#3f3679"/><path d="M80.833,55.086H46.083a1.5,1.5,0,0,0,0,3h34.75a1.5,1.5,0,0,0,0-3Z" fill="#3f3679"/><path d="M80.833,69.836H46.083a1.5,1.5,0,0,0,0,3h34.75a1.5,1.5,0,0,0,0-3Z" fill="#3f3679"/><path d="M80.833,84.586H46.083a1.5,1.5,0,0,0,0,3h34.75a1.5,1.5,0,0,0,0-3Z" fill="#3f3679"/><path d="M80.833,99.336H46.083a1.5,1.5,0,0,0,0,3h34.75a1.5,1.5,0,0,0,0-3Z" fill="#3f3679"/><path d="M80.833,114.086H46.083a1.5,1.5,0,0,0,0,3h34.75a1.5,1.5,0,0,0,0-3Z" fill="#3f3679"/><path d="M80.833,128.836H46.083a1.5,1.5,0,0,0,0,3h34.75a1.5,1.5,0,0,0,0-3Z" fill="#3f3679"/><path d="M80.833,143.586H46.083a1.5,1.5,0,0,0,0,3h34.75a1.5,1.5,0,0,0,0-3Z" fill="#3f3679"/><path d="M103.042,80.336h32.333a1.5,1.5,0,0,0,1.5-1.5V46.5a1.5,1.5,0,0,0-1.5-1.5H103.042a1.5,1.5,0,0,0-1.5,1.5V78.836A1.5,1.5,0,0,0,103.042,80.336ZM104.542,48h29.333V77.336H104.542Z" fill="#3f3679"/><path d="M144.708,80.336h32.334a1.5,1.5,0,0,0,1.5-1.5V46.5a1.5,1.5,0,0,0-1.5-1.5H144.708a1.5,1.5,0,0,0-1.5,1.5V78.836A1.5,1.5,0,0,0,144.708,80.336ZM146.208,48h29.334V77.336H146.208Z" fill="#3f3679"/><path d="M218.708,45H186.375a1.5,1.5,0,0,0-1.5,1.5V78.836a1.5,1.5,0,0,0,1.5,1.5h32.333a1.5,1.5,0,0,0,1.5-1.5V46.5A1.5,1.5,0,0,0,218.708,45Zm-1.5,32.334H187.875V48h29.333Z" fill="#3f3679"/><path d="M130.146,68.97h-3.394L123.1,54.5a1.5,1.5,0,0,0-2.856-.166l-4.488,11.8-2.2-6.164a1.5,1.5,0,0,0-1.393-1,1.525,1.525,0,0,0-1.419.958l-3.875,10a1.5,1.5,0,1,0,2.8,1.084l2.418-6.238,2.208,6.2a1.5,1.5,0,0,0,1.4,1h.016a1.5,1.5,0,0,0,1.4-.967l4.245-11.155,2.773,10.989a1.5,1.5,0,0,0,1.454,1.133h4.562a1.5,1.5,0,0,0,0-3Z" fill="#3f3679"/><path d="M171.813,68.97h-3.623l-4.277-8.812a1.5,1.5,0,0,0-1.318-.845,1.448,1.448,0,0,0-1.353.79l-3.361,6.259-2.613-10.293a1.5,1.5,0,0,0-1.438-1.131,1.54,1.54,0,0,0-1.462,1.1L148.491,70.07a1.5,1.5,0,0,0,1.047,1.846,1.531,1.531,0,0,0,.4.054,1.5,1.5,0,0,0,1.445-1.1l2.368-8.576,2.169,8.546a1.5,1.5,0,0,0,2.775.341l3.8-7.071,3.405,7.017a1.5,1.5,0,0,0,1.35.845h4.563a1.5,1.5,0,0,0,0-3Z" fill="#3f3679"/><path d="M190.958,71.823a1.5,1.5,0,0,0,2-.707l2.371-4.962,2.358,4.96a1.5,1.5,0,0,0,2.676.065l3.8-7.071,3.405,7.017a1.5,1.5,0,0,0,2.8-.292l2.8-11.208h1.891a1.5,1.5,0,0,0,0-3H212a1.5,1.5,0,0,0-1.455,1.137L208.463,66.1l-2.884-5.941a1.5,1.5,0,0,0-1.318-.845,1.446,1.446,0,0,0-1.353.79l-3.784,7.046-2.437-5.124a1.5,1.5,0,0,0-1.353-.855h0a1.5,1.5,0,0,0-1.354.854l-3.729,7.8A1.5,1.5,0,0,0,190.958,71.823Z" fill="#3f3679"/><path d="M218.708,88H103.042a1.5,1.5,0,0,0-1.5,1.5v40.835a1.5,1.5,0,0,0,1.5,1.5H218.708a1.5,1.5,0,0,0,1.5-1.5V89.5A1.5,1.5,0,0,0,218.708,88Zm-99.937,40.835V113.667H121.6v15.169Zm10.459,0V103h2.833v25.836Zm25,0V107.125h2.833v21.711Zm10.458,0V113.667h2.833v15.169Zm25,0V109.5h2.833v19.336Zm10.458,0V122.25h2.834v6.586Zm17.063,0H205.979V120.75a1.5,1.5,0,0,0-1.5-1.5h-5.834a1.5,1.5,0,0,0-1.5,1.5v8.086h-1.625V108a1.5,1.5,0,0,0-1.5-1.5h-5.833a1.5,1.5,0,0,0-1.5,1.5v20.836H170.521V112.167a1.5,1.5,0,0,0-1.5-1.5h-5.833a1.5,1.5,0,0,0-1.5,1.5v16.669h-1.625V105.625a1.5,1.5,0,0,0-1.5-1.5h-5.833a1.5,1.5,0,0,0-1.5,1.5v23.211H135.063V101.5a1.5,1.5,0,0,0-1.5-1.5h-5.833a1.5,1.5,0,0,0-1.5,1.5v27.336H124.6V112.167a1.5,1.5,0,0,0-1.5-1.5h-5.834a1.5,1.5,0,0,0-1.5,1.5v16.669H104.542V91H217.208Z" fill="#3f3679"/><path d="M218.708,138.833H103.042a1.5,1.5,0,0,0,0,3H218.708a1.5,1.5,0,0,0,0-3Z" fill="#3f3679"/><path d="M218.708,148.667H103.042a1.5,1.5,0,0,0,0,3H218.708a1.5,1.5,0,0,0,0-3Z" fill="#3f3679"/></svg>