<svg xmlns="http://www.w3.org/2000/svg" viewBox="0 0 256 256"><title>icons_</title><rect x="18.37" y="47.569" width="219.26" height="151.106" rx="13.665" ry="13.665" fill="#cecece"/><path d="M28.37,185.01V61.233A13.681,13.681,0,0,1,42.035,47.569h-10A13.681,13.681,0,0,0,18.37,61.233V185.01a13.681,13.681,0,0,0,13.665,13.665h10A13.681,13.681,0,0,1,28.37,185.01Z" fill="#afafaf"/><path d="M227.63,185.01V61.233a13.681,13.681,0,0,0-13.665-13.665h10A13.681,13.681,0,0,1,237.63,61.233V185.01a13.681,13.681,0,0,1-13.665,13.665h-10A13.681,13.681,0,0,0,227.63,185.01Z" fill="#e2e2e2"/><rect x="26.779" y="55.977" width="202.442" height="122.288" rx="5.256" ry="5.256" fill="#63bce7"/><path d="M36.779,173.01V61.233a5.271,5.271,0,0,1,5.256-5.256h-10a5.271,5.271,0,0,0-5.256,5.256V173.01a5.271,5.271,0,0,0,5.256,5.256h10A5.271,5.271,0,0,1,36.779,173.01Z" fill="#6377e7"/><path d="M219.221,173.01V61.233a5.271,5.271,0,0,0-5.256-5.256h10a5.271,5.271,0,0,1,5.256,5.256V173.01a5.271,5.271,0,0,1-5.256,5.256h-10A5.271,5.271,0,0,0,219.221,173.01Z" fill="#63e2e7"/><rect x="89.809" y="220.833" width="76.383" height="9.197" fill="#9e9e9e"/><rect x="89.809" y="220.833" width="10" height="9.197" fill="#707070"/><rect x="100.67" y="198.675" width="54.659" height="22.158" fill="#cecece"/><rect x="100.67" y="198.674" width="10" height="22.158" fill="#afafaf"/><circle cx="128" cy="188.47" r="4.5" fill="#9e9e9e"/><path d="M82.282,144.658V69.926A18.413,18.413,0,0,1,100.7,51.513h80.4L168.515,34.942H129.849L111.436,15H68.487A18.413,18.413,0,0,0,50.074,33.41V144.658a16.173,16.173,0,0,0,16.1,16.1h0A16.1,16.1,0,0,0,82.282,144.658Z" fill="#9e9e9e"/><rect x="66.178" y="27.665" width="125.956" height="113.959" fill="#cecece"/><path d="M181.1,51.513H100.7A18.413,18.413,0,0,0,82.282,69.926v74.732a16.1,16.1,0,0,1-16.1,16.1H189.826a16.1,16.1,0,0,0,16.1-16.1V51.513Z" fill="#f8af23"/><rect x="117.827" y="91.102" width="52.555" height="52.876" fill="#f46275"/><path d="M163.905,88.1a19.8,19.8,0,1,0-39.6,0v3h6.054v-3a13.747,13.747,0,1,1,27.495,0v3h6.054Z" fill="#f46275"/><path d="M137.024,99.532h14.16a8.117,8.117,0,0,1,8.117,8.117v27.46a0,0,0,0,1,0,0H128.907a0,0,0,0,1,0,0v-27.46A8.117,8.117,0,0,1,137.024,99.532Z" fill="#cecece"/><path d="M149.413,124.707l-1.9-7.849h0a4.456,4.456,0,1,0-6.453,0l-1.9,7.849a3.331,3.331,0,0,0,3.237,4.115h3.78A3.331,3.331,0,0,0,149.413,124.707Z" fill="#707070"/><path d="M128,194.47a6,6,0,1,0-6-6A6.007,6.007,0,0,0,128,194.47Zm0-9a3,3,0,1,1-3,3A3,3,0,0,1,128,185.47Z" fill="#3f3679"/><path d="M27.323,239.5h-18a1.5,1.5,0,1,0,0,3h18a1.5,1.5,0,1,0,0-3Z" fill="#3f3679"/><path d="M246.68,239.5h-18a1.5,1.5,0,0,0,0,3h18a1.5,1.5,0,0,0,0-3Z" fill="#3f3679"/><path d="M218.479,239.5H37.521a1.5,1.5,0,0,0,0,3H218.479a1.5,1.5,0,0,0,0-3Z" fill="#3f3679"/><path d="M9.32,231.53H246.68a1.5,1.5,0,0,0,0-3H167.691v-7.7a1.5,1.5,0,0,0-1.5-1.5H156.83V200.175h67.136A15.182,15.182,0,0,0,239.13,185.01V61.233a15.182,15.182,0,0,0-15.165-15.165H193.634v-18.4a1.5,1.5,0,0,0-1.5-1.5H123.78c-.006-.007-.008-.016-.014-.023L112.538,13.979a1.5,1.5,0,0,0-1.1-.482H68.487A19.935,19.935,0,0,0,48.574,33.41V46.068H32.035A15.182,15.182,0,0,0,16.87,61.233V185.01a15.182,15.182,0,0,0,15.165,15.165H99.17v19.158H89.809a1.5,1.5,0,0,0-1.5,1.5v7.7H9.32a1.5,1.5,0,1,0,0,3Zm198.106-86.868V57.478h16.54a3.76,3.76,0,0,1,3.756,3.756V173.01a3.76,3.76,0,0,1-3.756,3.756H32.035a3.76,3.76,0,0,1-3.756-3.756V61.233a3.76,3.76,0,0,1,3.756-3.756h16.54v87.181a17.678,17.678,0,0,0,17.6,17.6H189.826A17.62,17.62,0,0,0,207.426,144.662Zm-3,0a14.617,14.617,0,0,1-14.6,14.6H76a17.6,17.6,0,0,0,7.784-14.6V69.926A16.932,16.932,0,0,1,100.7,53.014h103.73ZM190.634,50.014H100.7A19.935,19.935,0,0,0,80.782,69.926v70.2h-13.1V29.165H190.634ZM51.574,33.41A16.932,16.932,0,0,1,68.487,16.5h42.292l8.925,9.668H66.178a1.5,1.5,0,0,0-1.5,1.5V141.624a1.5,1.5,0,0,0,1.5,1.5h14.6v1.534a14.6,14.6,0,0,1-29.208,0Zm-31.7,151.6V61.233A12.179,12.179,0,0,1,32.035,49.068h16.54v5.409H32.035a6.763,6.763,0,0,0-6.756,6.756V173.01a6.763,6.763,0,0,0,6.756,6.756H223.965a6.763,6.763,0,0,0,6.756-6.756V61.233a6.763,6.763,0,0,0-6.756-6.756h-16.54V51.514a1.5,1.5,0,0,0-1.5-1.5H193.634v-.945h30.331A12.179,12.179,0,0,1,236.13,61.233V185.01a12.179,12.179,0,0,1-12.165,12.165H32.035A12.179,12.179,0,0,1,19.87,185.01Zm82.3,15.165H153.83v19.158H102.17ZM91.309,222.333h73.383v6.2H91.309Z" fill="#3f3679"/><path d="M85.8,36.442h86.716a1.5,1.5,0,0,0,0-3H85.8a1.5,1.5,0,0,0,0,3Z" fill="#3f3679"/><path d="M85.8,44.728h86.716a1.5,1.5,0,0,0,0-3H85.8a1.5,1.5,0,0,0,0,3Z" fill="#3f3679"/><path d="M117.827,145.478h52.555a1.5,1.5,0,0,0,1.5-1.5V91.1a1.5,1.5,0,0,0-1.5-1.5h-4.976V88.1a21.3,21.3,0,1,0-42.6,0v1.5h-4.976a1.5,1.5,0,0,0-1.5,1.5v52.876A1.5,1.5,0,0,0,117.827,145.478ZM125.8,88.1a18.3,18.3,0,1,1,36.6,0v1.5h-3.054V88.1a15.247,15.247,0,1,0-30.494,0v1.5H125.8Zm6.054,1.5V88.1a12.247,12.247,0,1,1,24.494,0v1.5Zm-12.53,3h49.555v49.876H119.327Z" fill="#3f3679"/><path d="M151.184,98.032h-14.16a9.628,9.628,0,0,0-9.617,9.617v27.46a1.5,1.5,0,0,0,1.5,1.5H159.3a1.5,1.5,0,0,0,1.5-1.5v-27.46A9.628,9.628,0,0,0,151.184,98.032Zm6.617,35.577H130.407v-25.96a6.625,6.625,0,0,1,6.617-6.617h14.16a6.625,6.625,0,0,1,6.617,6.617Z" fill="#3f3679"/><path d="M150.872,124.354l-1.726-7.125a5.956,5.956,0,1,0-9.719,0l-1.726,7.125a4.831,4.831,0,0,0,4.7,5.968h3.78a4.831,4.831,0,0,0,4.7-5.967Zm-3.256,2.27a1.822,1.822,0,0,1-1.439.7H142.4a1.83,1.83,0,0,1-1.779-2.261l1.9-7.85a1.5,1.5,0,0,0-.372-1.389,2.956,2.956,0,1,1,4.281,0,1.5,1.5,0,0,0-.372,1.389l1.9,7.849A1.822,1.822,0,0,1,147.615,126.623Z" fill="#3f3679"/></svg>