<svg xmlns="http://www.w3.org/2000/svg" viewBox="0 0 256 256"><title>icons_</title><rect x="18.37" y="22.96" width="219.26" height="151.106" rx="13.665" ry="13.665" fill="#cecece"/><path d="M28.37,160.4V36.625A13.681,13.681,0,0,1,42.035,22.96h-10A13.681,13.681,0,0,0,18.37,36.625V160.4a13.681,13.681,0,0,0,13.665,13.665h10A13.681,13.681,0,0,1,28.37,160.4Z" fill="#afafaf"/><path d="M227.63,160.4V36.625A13.681,13.681,0,0,0,213.965,22.96h10A13.681,13.681,0,0,1,237.63,36.625V160.4a13.681,13.681,0,0,1-13.665,13.665h-10A13.681,13.681,0,0,0,227.63,160.4Z" fill="#e2e2e2"/><rect x="26.779" y="31.369" width="202.442" height="122.288" rx="5.256" ry="5.256" fill="#63bce7"/><path d="M36.779,148.4V36.624a5.271,5.271,0,0,1,5.256-5.256h-10a5.271,5.271,0,0,0-5.256,5.256V148.4a5.271,5.271,0,0,0,5.256,5.256h10A5.271,5.271,0,0,1,36.779,148.4Z" fill="#6377e7"/><path d="M219.221,148.4V36.624a5.271,5.271,0,0,0-5.256-5.256h10a5.271,5.271,0,0,1,5.256,5.256V148.4a5.271,5.271,0,0,1-5.256,5.256h-10A5.271,5.271,0,0,0,219.221,148.4Z" fill="#63e2e7"/><rect x="89.809" y="196.224" width="76.383" height="9.197" fill="#9e9e9e"/><rect x="89.809" y="196.224" width="10" height="9.197" fill="#707070"/><rect x="100.67" y="174.066" width="54.659" height="22.158" fill="#cecece"/><rect x="100.67" y="174.066" width="10" height="22.158" fill="#afafaf"/><circle cx="128" cy="163.861" r="4.5" fill="#9e9e9e"/><rect x="151.076" y="163.039" width="86.554" height="29.514" rx="4.919" ry="4.919" fill="#9e9e9e"/><rect x="151.076" y="192.553" width="86.554" height="29.514" rx="4.919" ry="4.919" fill="#9e9e9e"/><rect x="151.076" y="133.526" width="86.554" height="29.514" rx="4.919" ry="4.919" fill="#9e9e9e"/><path d="M232.711,133.526h-10a4.919,4.919,0,0,1,4.919,4.918v19.677a4.919,4.919,0,0,1-4.919,4.919h10a4.919,4.919,0,0,0,4.919-4.919V138.444A4.919,4.919,0,0,0,232.711,133.526Z" fill="#cecece"/><path d="M232.711,163.04h-10a4.919,4.919,0,0,1,4.919,4.918v19.677a4.919,4.919,0,0,1-4.919,4.919h10a4.919,4.919,0,0,0,4.919-4.919V167.958A4.919,4.919,0,0,0,232.711,163.04Z" fill="#cecece"/><path d="M232.711,192.553h-10a4.919,4.919,0,0,1,4.919,4.918v19.677a4.919,4.919,0,0,1-4.919,4.919h10a4.919,4.919,0,0,0,4.919-4.919V197.472A4.919,4.919,0,0,0,232.711,192.553Z" fill="#cecece"/><rect x="160.025" y="145.104" width="45.906" height="6.356" rx="2.415" ry="2.415" fill="#f8af23"/><rect x="160.025" y="174.618" width="45.906" height="6.356" rx="2.415" ry="2.415" fill="#f8af23"/><rect x="160.025" y="204.132" width="45.906" height="6.356" rx="2.415" ry="2.415" fill="#f8af23"/><rect x="219.467" y="145.104" width="6.356" height="6.356" rx="2.415" ry="2.415" fill="#f8af23"/><rect x="219.467" y="174.618" width="6.356" height="6.356" rx="2.415" ry="2.415" fill="#f8af23"/><rect x="219.467" y="204.132" width="6.356" height="6.356" rx="2.415" ry="2.415" fill="#f8af23"/><rect x="106.488" y="53.344" width="43.023" height="25.667" fill="#f46275"/><rect x="52.5" y="90.365" width="43.023" height="25.667" fill="#f46275"/><rect x="106.488" y="90.365" width="43.023" height="25.667" fill="#f46275"/><rect x="160.477" y="90.365" width="43.023" height="25.667" fill="#f46275"/><path d="M128,169.861a6,6,0,1,0-6-6A6.007,6.007,0,0,0,128,169.861Zm0-9a3,3,0,1,1-3,3A3,3,0,0,1,128,160.861Z" fill="#3f3679"/><path d="M27.323,231.54h-18a1.5,1.5,0,1,0,0,3h18a1.5,1.5,0,0,0,0-3Z" fill="#3f3679"/><path d="M246.68,231.54h-18a1.5,1.5,0,1,0,0,3h18a1.5,1.5,0,0,0,0-3Z" fill="#3f3679"/><path d="M218.479,231.54H37.521a1.5,1.5,0,1,0,0,3H218.479a1.5,1.5,0,1,0,0-3Z" fill="#3f3679"/><path d="M9.32,223.567H246.68a1.5,1.5,0,1,0,0-3h-8.546a6.372,6.372,0,0,0,1-3.418V197.472a6.406,6.406,0,0,0-2.3-4.919,6.406,6.406,0,0,0,2.3-4.919V36.625A15.182,15.182,0,0,0,223.965,21.46H32.035A15.182,15.182,0,0,0,16.87,36.625V160.4a15.182,15.182,0,0,0,15.165,15.165H99.17v19.158H89.809a1.5,1.5,0,0,0-1.5,1.5v9.2a1.5,1.5,0,0,0,1.5,1.5h59.768v10.227a6.372,6.372,0,0,0,1,3.418H9.32a1.5,1.5,0,1,0,0,3Zm143.256-35.933V167.958A3.423,3.423,0,0,1,156,164.54h76.716a3.423,3.423,0,0,1,3.419,3.418v19.676a3.423,3.423,0,0,1-3.419,3.419H156A3.423,3.423,0,0,1,152.576,187.634Zm75.145-55.609H156a6.426,6.426,0,0,0-6.419,6.419v13.712H32.035a3.76,3.76,0,0,1-3.756-3.756V36.625a3.76,3.76,0,0,1,3.756-3.756H223.965a3.76,3.76,0,0,1,3.756,3.756Zm-75.145,26.1V138.444A3.423,3.423,0,0,1,156,135.025h76.716a3.423,3.423,0,0,1,3.419,3.419v19.676a3.423,3.423,0,0,1-3.419,3.419H156A3.423,3.423,0,0,1,152.576,158.121ZM19.87,160.4V36.625A12.178,12.178,0,0,1,32.035,24.46H223.965A12.178,12.178,0,0,1,236.13,36.625v96.4a6.373,6.373,0,0,0-3.419-1h-1.99v-95.4a6.764,6.764,0,0,0-6.756-6.756H32.035a6.764,6.764,0,0,0-6.756,6.756V148.4a6.764,6.764,0,0,0,6.756,6.756H149.576v2.964a6.406,6.406,0,0,0,2.3,4.919,6.405,6.405,0,0,0-2.3,4.918v4.608H32.035A12.179,12.179,0,0,1,19.87,160.4Zm82.3,15.165h47.406v12.068a6.406,6.406,0,0,0,2.3,4.919,6.452,6.452,0,0,0-1.676,2.171H102.17ZM91.309,203.921v-6.2h58.268v6.2Zm61.268,13.227V197.472A3.423,3.423,0,0,1,156,194.053h76.716a3.423,3.423,0,0,1,3.419,3.419v19.676a3.423,3.423,0,0,1-3.419,3.418H156A3.423,3.423,0,0,1,152.576,217.148Z" fill="#3f3679"/><path d="M203.516,143.6H162.44a3.92,3.92,0,0,0-3.915,3.915v1.526a3.919,3.919,0,0,0,3.915,3.915h41.076a3.919,3.919,0,0,0,3.915-3.915V147.52A3.919,3.919,0,0,0,203.516,143.6Zm.915,5.441a.927.927,0,0,1-.915.915H162.44a.927.927,0,0,1-.915-.915V147.52a.927.927,0,0,1,.915-.915h41.076a.927.927,0,0,1,.915.915Z" fill="#3f3679"/><path d="M203.516,173.118H162.44a3.92,3.92,0,0,0-3.915,3.915v1.526a3.92,3.92,0,0,0,3.915,3.915h41.076a3.919,3.919,0,0,0,3.915-3.915v-1.526A3.919,3.919,0,0,0,203.516,173.118Zm.915,5.441a.927.927,0,0,1-.915.915H162.44a.927.927,0,0,1-.915-.915v-1.526a.927.927,0,0,1,.915-.915h41.076a.927.927,0,0,1,.915.915Z" fill="#3f3679"/><path d="M203.516,202.632H162.44a3.919,3.919,0,0,0-3.915,3.915v1.526a3.92,3.92,0,0,0,3.915,3.915h41.076a3.919,3.919,0,0,0,3.915-3.915v-1.526A3.919,3.919,0,0,0,203.516,202.632Zm.915,5.441a.927.927,0,0,1-.915.915H162.44a.927.927,0,0,1-.915-.915v-1.526a.927.927,0,0,1,.915-.915h41.076a.927.927,0,0,1,.915.915Z" fill="#3f3679"/><path d="M223.408,143.6h-1.526a3.92,3.92,0,0,0-3.915,3.915v1.526a3.919,3.919,0,0,0,3.915,3.915h1.526a3.919,3.919,0,0,0,3.915-3.915V147.52A3.92,3.92,0,0,0,223.408,143.6Zm.915,5.441a.927.927,0,0,1-.915.915h-1.526a.927.927,0,0,1-.915-.915V147.52a.927.927,0,0,1,.915-.915h1.526a.927.927,0,0,1,.915.915Z" fill="#3f3679"/><path d="M223.408,173.118h-1.526a3.92,3.92,0,0,0-3.915,3.915v1.526a3.92,3.92,0,0,0,3.915,3.915h1.526a3.92,3.92,0,0,0,3.915-3.915v-1.526A3.92,3.92,0,0,0,223.408,173.118Zm.915,5.441a.927.927,0,0,1-.915.915h-1.526a.927.927,0,0,1-.915-.915v-1.526a.927.927,0,0,1,.915-.915h1.526a.927.927,0,0,1,.915.915Z" fill="#3f3679"/><path d="M223.408,202.632h-1.526a3.919,3.919,0,0,0-3.915,3.915v1.526a3.92,3.92,0,0,0,3.915,3.915h1.526a3.92,3.92,0,0,0,3.915-3.915v-1.526A3.919,3.919,0,0,0,223.408,202.632Zm.915,5.441a.927.927,0,0,1-.915.915h-1.526a.927.927,0,0,1-.915-.915v-1.526a.927.927,0,0,1,.915-.915h1.526a.927.927,0,0,1,.915.915Z" fill="#3f3679"/><path d="M203.5,88.865H160.477a1.5,1.5,0,0,0-1.5,1.5V101.7h-7.965V90.365a1.5,1.5,0,0,0-1.5-1.5H129.5V80.51h20.012a1.5,1.5,0,0,0,1.5-1.5V53.344a1.5,1.5,0,0,0-1.5-1.5H106.488a1.5,1.5,0,0,0-1.5,1.5V79.01a1.5,1.5,0,0,0,1.5,1.5H126.5v8.355H106.488a1.5,1.5,0,0,0-1.5,1.5V101.7H97.023V90.365a1.5,1.5,0,0,0-1.5-1.5H52.5a1.5,1.5,0,0,0-1.5,1.5v25.667a1.5,1.5,0,0,0,1.5,1.5H95.523a1.5,1.5,0,0,0,1.5-1.5V104.7h7.965v11.333a1.5,1.5,0,0,0,1.5,1.5h43.023a1.5,1.5,0,0,0,1.5-1.5V104.7h7.965v11.333a1.5,1.5,0,0,0,1.5,1.5H203.5a1.5,1.5,0,0,0,1.5-1.5V90.365A1.5,1.5,0,0,0,203.5,88.865ZM107.988,54.844h40.023V77.51H107.988ZM94.023,114.532H54V91.865H94.023Zm53.988,0H107.988V91.865h40.023Zm53.988,0H161.977V91.865H202Z" fill="#3f3679"/></svg>