<svg xmlns="http://www.w3.org/2000/svg" viewBox="0 0 256 256"><title>icons_</title><rect x="18.37" y="31.283" width="219.26" height="151.106" rx="13.665" ry="13.665" fill="#cecece"/><path d="M28.37,168.724V44.948A13.681,13.681,0,0,1,42.035,31.283h-10A13.681,13.681,0,0,0,18.37,44.948V168.724a13.681,13.681,0,0,0,13.665,13.665h10A13.681,13.681,0,0,1,28.37,168.724Z" fill="#afafaf"/><path d="M227.63,168.724V44.948a13.681,13.681,0,0,0-13.665-13.665h10A13.681,13.681,0,0,1,237.63,44.948V168.724a13.681,13.681,0,0,1-13.665,13.665h-10A13.681,13.681,0,0,0,227.63,168.724Z" fill="#e2e2e2"/><rect x="26.779" y="39.692" width="202.442" height="122.288" rx="5.256" ry="5.256" fill="#63bce7"/><path d="M36.779,156.724V44.947a5.271,5.271,0,0,1,5.256-5.256h-10a5.271,5.271,0,0,0-5.256,5.256V156.724a5.271,5.271,0,0,0,5.256,5.256h10A5.271,5.271,0,0,1,36.779,156.724Z" fill="#6377e7"/><path d="M219.221,156.724V44.947a5.271,5.271,0,0,0-5.256-5.256h10a5.271,5.271,0,0,1,5.256,5.256V156.724a5.271,5.271,0,0,1-5.256,5.256h-10A5.271,5.271,0,0,0,219.221,156.724Z" fill="#63e2e7"/><rect x="89.809" y="204.547" width="76.383" height="9.197" fill="#9e9e9e"/><rect x="89.809" y="204.547" width="10" height="9.197" fill="#707070"/><rect x="100.67" y="182.389" width="54.659" height="22.158" fill="#cecece"/><rect x="100.67" y="182.389" width="10" height="22.158" fill="#afafaf"/><circle cx="128" cy="172.184" r="4.5" fill="#9e9e9e"/><rect x="102" y="54.476" width="52" height="90.333" rx="5" ry="5" fill="#cecece"/><rect x="41.098" y="54.476" width="52" height="90.333" rx="5" ry="5" fill="#cecece"/><rect x="162.902" y="54.476" width="52" height="90.333" rx="5" ry="5" fill="#cecece"/><rect x="48.098" y="71.726" width="38" height="18.75" fill="#f8af23"/><rect x="109" y="71.726" width="38" height="18.75" fill="#f46275"/><rect x="169.902" y="71.726" width="38" height="18.75" fill="#f8af23"/><rect x="109" y="96.726" width="19.667" height="34.6" fill="#f46275"/><rect x="169.902" y="96.726" width="19.667" height="17.75" fill="#f8af23"/><rect x="48.098" y="96.726" width="38" height="18.75" fill="#f8af23"/><path d="M230.721,156.724V44.947a6.764,6.764,0,0,0-6.756-6.756H32.035a6.764,6.764,0,0,0-6.756,6.756V156.724a6.763,6.763,0,0,0,6.756,6.755H223.965A6.763,6.763,0,0,0,230.721,156.724Zm-202.442,0V44.947a3.76,3.76,0,0,1,3.756-3.756H223.965a3.76,3.76,0,0,1,3.756,3.756V156.724a3.76,3.76,0,0,1-3.756,3.755H32.035A3.76,3.76,0,0,1,28.279,156.724Z" fill="#3f3679"/><path d="M128,166.184a6,6,0,1,0,6,6A6.007,6.007,0,0,0,128,166.184Zm0,9a3,3,0,1,1,3-3A3,3,0,0,1,128,175.184Z" fill="#3f3679"/><path d="M27.323,223.217h-18a1.5,1.5,0,1,0,0,3h18a1.5,1.5,0,1,0,0-3Z" fill="#3f3679"/><path d="M246.68,223.217h-18a1.5,1.5,0,0,0,0,3h18a1.5,1.5,0,1,0,0-3Z" fill="#3f3679"/><path d="M218.479,223.217H37.521a1.5,1.5,0,0,0,0,3H218.479a1.5,1.5,0,0,0,0-3Z" fill="#3f3679"/><path d="M9.32,215.244H246.68a1.5,1.5,0,0,0,0-3H167.691v-7.7a1.5,1.5,0,0,0-1.5-1.5H156.83V183.889h67.136a15.182,15.182,0,0,0,15.165-15.165V44.948a15.182,15.182,0,0,0-15.165-15.165H32.035A15.182,15.182,0,0,0,16.87,44.948V168.724a15.182,15.182,0,0,0,15.165,15.165H99.17v19.158H89.809a1.5,1.5,0,0,0-1.5,1.5v7.7H9.32a1.5,1.5,0,1,0,0,3Zm10.55-46.52V44.948A12.179,12.179,0,0,1,32.035,32.783H223.965A12.179,12.179,0,0,1,236.13,44.948V168.724a12.178,12.178,0,0,1-12.165,12.165H32.035A12.178,12.178,0,0,1,19.87,168.724Zm82.3,15.165H153.83v19.158H102.17ZM91.309,206.047h73.383v6.2H91.309Z" fill="#3f3679"/><path d="M149,52.976H107a6.508,6.508,0,0,0-6.5,6.5v80.333a6.508,6.508,0,0,0,6.5,6.5h42a6.508,6.508,0,0,0,6.5-6.5V59.476A6.508,6.508,0,0,0,149,52.976Zm3.5,86.833a3.5,3.5,0,0,1-3.5,3.5H107a3.5,3.5,0,0,1-3.5-3.5V59.476a3.5,3.5,0,0,1,3.5-3.5h42a3.5,3.5,0,0,1,3.5,3.5Z" fill="#3f3679"/><path d="M88.1,52.976h-42a6.508,6.508,0,0,0-6.5,6.5v80.333a6.508,6.508,0,0,0,6.5,6.5h42a6.508,6.508,0,0,0,6.5-6.5V59.476A6.508,6.508,0,0,0,88.1,52.976Zm3.5,86.833a3.5,3.5,0,0,1-3.5,3.5h-42a3.5,3.5,0,0,1-3.5-3.5V59.476a3.5,3.5,0,0,1,3.5-3.5h42a3.5,3.5,0,0,1,3.5,3.5Z" fill="#3f3679"/><path d="M209.9,52.976h-42a6.508,6.508,0,0,0-6.5,6.5v80.333a6.508,6.508,0,0,0,6.5,6.5h42a6.508,6.508,0,0,0,6.5-6.5V59.476A6.508,6.508,0,0,0,209.9,52.976Zm3.5,86.833a3.5,3.5,0,0,1-3.5,3.5h-42a3.5,3.5,0,0,1-3.5-3.5V59.476a3.5,3.5,0,0,1,3.5-3.5h42a3.5,3.5,0,0,1,3.5,3.5Z" fill="#3f3679"/><path d="M147,70.226H109a1.5,1.5,0,0,0-1.5,1.5v18.75a1.5,1.5,0,0,0,1.5,1.5h38a1.5,1.5,0,0,0,1.5-1.5V71.726A1.5,1.5,0,0,0,147,70.226Zm-1.5,18.75h-35V73.226h35Z" fill="#3f3679"/><path d="M128.667,95.226H109a1.5,1.5,0,0,0-1.5,1.5v34.6a1.5,1.5,0,0,0,1.5,1.5h19.667a1.5,1.5,0,0,0,1.5-1.5v-34.6A1.5,1.5,0,0,0,128.667,95.226Zm-1.5,34.6H110.5v-31.6h16.667Z" fill="#3f3679"/><path d="M207.9,70.226h-38a1.5,1.5,0,0,0-1.5,1.5v18.75a1.5,1.5,0,0,0,1.5,1.5h38a1.5,1.5,0,0,0,1.5-1.5V71.726A1.5,1.5,0,0,0,207.9,70.226Zm-1.5,18.75h-35V73.226h35Z" fill="#3f3679"/><path d="M189.569,95.226H169.9a1.5,1.5,0,0,0-1.5,1.5v17.75a1.5,1.5,0,0,0,1.5,1.5h19.667a1.5,1.5,0,0,0,1.5-1.5V96.726A1.5,1.5,0,0,0,189.569,95.226Zm-1.5,17.75H171.4V98.226h16.667Z" fill="#3f3679"/><path d="M86.1,70.226h-38a1.5,1.5,0,0,0-1.5,1.5v18.75a1.5,1.5,0,0,0,1.5,1.5h38a1.5,1.5,0,0,0,1.5-1.5V71.726A1.5,1.5,0,0,0,86.1,70.226Zm-1.5,18.75h-35V73.226h35Z" fill="#3f3679"/><path d="M86.1,95.226h-38a1.5,1.5,0,0,0-1.5,1.5v18.75a1.5,1.5,0,0,0,1.5,1.5h38a1.5,1.5,0,0,0,1.5-1.5V96.726A1.5,1.5,0,0,0,86.1,95.226Zm-1.5,18.75h-35V98.226h35Z" fill="#3f3679"/></svg>