<svg xmlns="http://www.w3.org/2000/svg" viewBox="0 0 256 256"><title>icons_</title><rect x="24.667" y="31.348" width="206.667" height="138.831" rx="10" ry="10" fill="#cecece"/><path d="M34.667,160.179V41.348a10,10,0,0,1,10-10h-10a10,10,0,0,0-10,10V160.179a10,10,0,0,0,10,10h10A10,10,0,0,1,34.667,160.179Z" fill="#afafaf"/><path d="M221.333,160.179V41.348a10,10,0,0,0-10-10h10a10,10,0,0,1,10,10V160.179a10,10,0,0,1-10,10h-10A10,10,0,0,0,221.333,160.179Z" fill="#e2e2e2"/><rect x="53.5" y="65.846" width="25" height="25" fill="#f8af23"/><rect x="94.833" y="65.846" width="25" height="25" fill="#f8af23"/><rect x="136.167" y="65.846" width="25" height="25" fill="#f8af23"/><rect x="177.5" y="65.846" width="25" height="25" fill="#f8af23"/><rect x="53.5" y="104.179" width="25" height="25" fill="#f8af23"/><rect x="94.833" y="104.179" width="25" height="25" fill="#f8af23"/><rect x="136.167" y="104.179" width="25" height="25" fill="#f8af23"/><rect x="58.625" y="13.348" width="14.75" height="36" rx="7.375" ry="7.375" fill="#63bce7"/><rect x="182.625" y="13.348" width="14.75" height="36" rx="7.375" ry="7.375" fill="#63bce7"/><path d="M190,13.348a7.34,7.34,0,0,0-5,1.965,7.348,7.348,0,0,1,2.375,5.41v21.25A7.348,7.348,0,0,1,185,47.383a7.367,7.367,0,0,0,12.375-5.411V20.723A7.375,7.375,0,0,0,190,13.348Z" fill="#63e2e7"/><path d="M66,13.348a7.34,7.34,0,0,1,5,1.965,7.348,7.348,0,0,0-2.375,5.41v21.25A7.348,7.348,0,0,0,71,47.383a7.367,7.367,0,0,1-12.375-5.411V20.723A7.375,7.375,0,0,1,66,13.348Z" fill="#6377e7"/><path d="M203.833,148.991v-3.062a7.75,7.75,0,0,0-7.75-7.75h-15a7.75,7.75,0,0,0-7.75,7.75v3.062a42.75,42.75,0,1,0,30.5,0Z" fill="#f46275"/><path d="M203.833,148.99v-3.062a7.75,7.75,0,0,0-7.75-7.75h-10a7.75,7.75,0,0,1,7.75,7.75v3.062a42.746,42.746,0,0,1-10.25,82.388,43.22,43.22,0,0,0,5,.3,42.751,42.751,0,0,0,15.25-82.688Z" fill="#f48875"/><path d="M78.5,64.346h-25a1.5,1.5,0,0,0-1.5,1.5v25a1.5,1.5,0,0,0,1.5,1.5h25a1.5,1.5,0,0,0,1.5-1.5v-25A1.5,1.5,0,0,0,78.5,64.346Zm-1.5,25H55v-22H77Z" fill="#3f3679"/><path d="M119.833,64.346h-25a1.5,1.5,0,0,0-1.5,1.5v25a1.5,1.5,0,0,0,1.5,1.5h25a1.5,1.5,0,0,0,1.5-1.5v-25A1.5,1.5,0,0,0,119.833,64.346Zm-1.5,25h-22v-22h22Z" fill="#3f3679"/><path d="M136.167,92.346h25a1.5,1.5,0,0,0,1.5-1.5v-25a1.5,1.5,0,0,0-1.5-1.5h-25a1.5,1.5,0,0,0-1.5,1.5v25A1.5,1.5,0,0,0,136.167,92.346Zm1.5-25h22v22h-22Z" fill="#3f3679"/><path d="M177.5,92.346h25a1.5,1.5,0,0,0,1.5-1.5v-25a1.5,1.5,0,0,0-1.5-1.5h-25a1.5,1.5,0,0,0-1.5,1.5v25A1.5,1.5,0,0,0,177.5,92.346Zm1.5-25h22v22H179Z" fill="#3f3679"/><path d="M78.5,102.679h-25a1.5,1.5,0,0,0-1.5,1.5v25a1.5,1.5,0,0,0,1.5,1.5h25a1.5,1.5,0,0,0,1.5-1.5v-25A1.5,1.5,0,0,0,78.5,102.679Zm-1.5,25H55v-22H77Z" fill="#3f3679"/><path d="M119.833,102.679h-25a1.5,1.5,0,0,0-1.5,1.5v25a1.5,1.5,0,0,0,1.5,1.5h25a1.5,1.5,0,0,0,1.5-1.5v-25A1.5,1.5,0,0,0,119.833,102.679Zm-1.5,25h-22v-22h22Z" fill="#3f3679"/><path d="M162.667,129.179v-25a1.5,1.5,0,0,0-1.5-1.5h-25a1.5,1.5,0,0,0-1.5,1.5v25a1.5,1.5,0,0,0,1.5,1.5h25A1.5,1.5,0,0,0,162.667,129.179Zm-3-1.5h-22v-22h22Z" fill="#3f3679"/><path d="M188.583,102.679a1.5,1.5,0,0,0-1.5,1.5v6.334a1.5,1.5,0,0,0,3,0v-6.334A1.5,1.5,0,0,0,188.583,102.679Z" fill="#3f3679"/><path d="M197.854,111.14l-4.479,4.479a1.5,1.5,0,1,0,2.121,2.121l4.479-4.479a1.5,1.5,0,1,0-2.121-2.121Z" fill="#3f3679"/><path d="M179.313,111.14a1.5,1.5,0,1,0-2.121,2.121l4.479,4.479a1.5,1.5,0,1,0,2.121-2.121Z" fill="#3f3679"/><path d="M187.661,190.576l23.417,18.25a1.5,1.5,0,1,0,1.844-2.367l-22.839-17.8V164.143a1.5,1.5,0,0,0-3,0v25.25A1.5,1.5,0,0,0,187.661,190.576Z" fill="#3f3679"/><path d="M27.323,241.152h-18a1.5,1.5,0,0,0,0,3h18a1.5,1.5,0,1,0,0-3Z" fill="#3f3679"/><path d="M246.68,241.152h-18a1.5,1.5,0,0,0,0,3h18a1.5,1.5,0,0,0,0-3Z" fill="#3f3679"/><path d="M218.479,241.152H37.521a1.5,1.5,0,0,0,0,3H218.479a1.5,1.5,0,0,0,0-3Z" fill="#3f3679"/><path d="M9.32,233.179H246.68a1.5,1.5,0,0,0,0-3H204.568a44.312,44.312,0,0,0,28.254-40.8c0-.038.011-.074.011-.112,0-.023-.006-.044-.007-.067,0-.089.007-.177.007-.267a44,44,0,0,0-4.616-19.558,11.394,11.394,0,0,0,4.616-9.192V41.348a11.513,11.513,0,0,0-11.5-11.5H198.875V20.723a8.875,8.875,0,0,0-17.75,0v9.125H74.875V20.723a8.875,8.875,0,0,0-17.75,0v9.125H34.667a11.513,11.513,0,0,0-11.5,11.5V160.179a11.513,11.513,0,0,0,11.5,11.5H147.883a43.907,43.907,0,0,0-3.55,17.25c0,.089.006.178.007.267,0,.022-.007.044-.007.067,0,.039.009.074.011.112a44.312,44.312,0,0,0,28.254,40.8H9.32a1.5,1.5,0,0,0,0,3Zm174.8-212.456a5.875,5.875,0,0,1,11.75,0v21.25a5.875,5.875,0,0,1-11.75,0Zm-124,0a5.875,5.875,0,0,1,11.75,0v21.25a5.875,5.875,0,0,1-11.75,0ZM34.667,168.679a8.51,8.51,0,0,1-8.5-8.5V41.348a8.51,8.51,0,0,1,8.5-8.5H57.125v9.125a8.875,8.875,0,0,0,17.75,0V32.848h106.25v9.125a8.875,8.875,0,0,0,17.75,0V32.848h22.458a8.51,8.51,0,0,1,8.5,8.5V160.179a8.428,8.428,0,0,1-3.055,6.519,44.377,44.377,0,0,0-21.445-18.727v-2.042a9.26,9.26,0,0,0-9.25-9.25h-6v-20a1.5,1.5,0,1,0-3,0v20h-6a9.26,9.26,0,0,0-9.25,9.25v2.042A44.433,44.433,0,0,0,149.3,168.679ZM147.38,190.763h9.12a1.5,1.5,0,0,0,0-3h-9.144a41.5,41.5,0,0,1,26.269-37.272h19.793a1.5,1.5,0,0,0,0-3H174.833v-1.562a6.257,6.257,0,0,1,6.25-6.25h15a6.257,6.257,0,0,1,6.25,6.25v3.062a1.5,1.5,0,0,0,.965,1.4,41.5,41.5,0,0,1,26.512,37.371h-9.143a1.5,1.5,0,0,0,0,3h9.12a41.294,41.294,0,0,1-39.7,39.378v-9.128a1.5,1.5,0,0,0-3,0v9.128A41.294,41.294,0,0,1,147.38,190.763Z" fill="#3f3679"/></svg>