<svg xmlns="http://www.w3.org/2000/svg" viewBox="0 0 256 256"><title>icons_</title><rect x="18.37" y="50.711" width="219.26" height="151.106" rx="13.665" ry="13.665" fill="#cecece"/><path d="M28.37,188.153V64.376A13.681,13.681,0,0,1,42.035,50.711h-10A13.681,13.681,0,0,0,18.37,64.376V188.153a13.681,13.681,0,0,0,13.665,13.665h10A13.681,13.681,0,0,1,28.37,188.153Z" fill="#afafaf"/><path d="M227.63,188.153V64.376a13.681,13.681,0,0,0-13.665-13.665h10A13.681,13.681,0,0,1,237.63,64.376V188.153a13.681,13.681,0,0,1-13.665,13.665h-10A13.681,13.681,0,0,0,227.63,188.153Z" fill="#e2e2e2"/><rect x="26.779" y="59.12" width="202.442" height="122.288" rx="5.256" ry="5.256" fill="#63bce7"/><path d="M36.779,176.153V64.376a5.271,5.271,0,0,1,5.256-5.256h-10a5.271,5.271,0,0,0-5.256,5.256V176.153a5.271,5.271,0,0,0,5.256,5.256h10A5.271,5.271,0,0,1,36.779,176.153Z" fill="#6377e7"/><path d="M219.221,176.153V64.376a5.271,5.271,0,0,0-5.256-5.256h10a5.271,5.271,0,0,1,5.256,5.256V176.153a5.271,5.271,0,0,1-5.256,5.256h-10A5.271,5.271,0,0,0,219.221,176.153Z" fill="#63e2e7"/><rect x="89.809" y="223.975" width="76.383" height="9.197" fill="#9e9e9e"/><rect x="89.809" y="223.975" width="10" height="9.197" fill="#707070"/><rect x="100.67" y="201.817" width="54.659" height="22.158" fill="#cecece"/><rect x="100.67" y="201.817" width="10" height="22.158" fill="#afafaf"/><circle cx="128" cy="191.613" r="4.5" fill="#9e9e9e"/><rect x="50.757" y="11.854" width="154.485" height="132.343" rx="10.6" ry="10.6" fill="#cecece"/><path d="M60.757,133.6V22.454a10.6,10.6,0,0,1,10.6-10.6h-10a10.6,10.6,0,0,0-10.6,10.6V133.6a10.6,10.6,0,0,0,10.6,10.6h10A10.6,10.6,0,0,1,60.757,133.6Z" fill="#afafaf"/><path d="M195.243,133.6V22.454a10.6,10.6,0,0,0-10.6-10.6h10a10.6,10.6,0,0,1,10.6,10.6V133.6a10.6,10.6,0,0,1-10.6,10.6h-10A10.6,10.6,0,0,0,195.243,133.6Z" fill="#e2e2e2"/><path d="M205.242,22.456a10.6,10.6,0,0,0-10.6-10.6H61.359a10.6,10.6,0,0,0-10.6,10.6V40.905H205.242Z" fill="#f8af23"/><path d="M71.359,11.854h-10a10.6,10.6,0,0,0-10.6,10.6V40.905h10V22.456A10.6,10.6,0,0,1,71.359,11.854Z" fill="#f87023"/><path d="M184.641,11.854h10a10.6,10.6,0,0,1,10.6,10.6V40.905h-10V22.456A10.6,10.6,0,0,0,184.641,11.854Z" fill="#f8d323"/><circle cx="69.682" cy="26.38" r="4.842" fill="#f46275"/><circle cx="88.332" cy="26.38" r="4.842" fill="#f46275"/><circle cx="106.981" cy="26.38" r="4.842" fill="#f46275"/><rect x="122.517" y="23.008" width="68.643" height="7.378" rx="3.689" ry="3.689" fill="#f46275"/><rect x="105.083" y="65.803" width="45.833" height="63.916" rx="22.917" ry="22.917" fill="#9e9e9e"/><path d="M128,197.613a6,6,0,1,0-6-6A6.007,6.007,0,0,0,128,197.613Zm0-9a3,3,0,1,1-3,3A3,3,0,0,1,128,188.613Z" fill="#3f3679"/><path d="M27.323,242.646h-18a1.5,1.5,0,1,0,0,3h18a1.5,1.5,0,1,0,0-3Z" fill="#3f3679"/><path d="M246.68,242.646h-18a1.5,1.5,0,0,0,0,3h18a1.5,1.5,0,0,0,0-3Z" fill="#3f3679"/><path d="M218.479,242.646H37.521a1.5,1.5,0,0,0,0,3H218.479a1.5,1.5,0,0,0,0-3Z" fill="#3f3679"/><path d="M9.32,234.673H246.68a1.5,1.5,0,0,0,0-3H167.691v-7.7a1.5,1.5,0,0,0-1.5-1.5h-9.362V203.317h67.137a15.182,15.182,0,0,0,15.164-15.165V64.376a15.182,15.182,0,0,0-15.164-15.165H206.742V22.454a12.113,12.113,0,0,0-12.1-12.1H61.357a12.114,12.114,0,0,0-12.1,12.1V49.211H32.035A15.182,15.182,0,0,0,16.87,64.376V188.152a15.182,15.182,0,0,0,15.165,15.165H99.17v19.158H89.809a1.5,1.5,0,0,0-1.5,1.5v7.7H9.32a1.5,1.5,0,1,0,0,3ZM52.257,42.405H203.742V133.6a9.11,9.11,0,0,1-9.1,9.1H61.357a9.111,9.111,0,0,1-9.1-9.1Zm9.1,103.292H194.643a12.114,12.114,0,0,0,12.1-12.1V60.62h17.224a3.76,3.76,0,0,1,3.755,3.756V176.152a3.76,3.76,0,0,1-3.755,3.756H32.035a3.76,3.76,0,0,1-3.756-3.756V64.376a3.76,3.76,0,0,1,3.756-3.756H49.257V133.6A12.114,12.114,0,0,0,61.357,145.7ZM194.641,13.354a9.112,9.112,0,0,1,9.1,9.1V39.405H52.257V22.456a9.112,9.112,0,0,1,9.1-9.1ZM19.87,188.152V64.376A12.178,12.178,0,0,1,32.035,52.211H49.257V57.62H32.035a6.764,6.764,0,0,0-6.756,6.756V176.152a6.764,6.764,0,0,0,6.756,6.756H223.966a6.763,6.763,0,0,0,6.755-6.756V64.376a6.763,6.763,0,0,0-6.755-6.756H206.742V52.211h17.224A12.178,12.178,0,0,1,236.13,64.376V188.152a12.178,12.178,0,0,1-12.164,12.165H32.035A12.179,12.179,0,0,1,19.87,188.152Zm82.3,15.165h51.659v19.158H102.17ZM91.309,225.476h73.383v6.2H91.309Z" fill="#3f3679"/><path d="M69.682,32.722A6.342,6.342,0,1,0,63.34,26.38,6.349,6.349,0,0,0,69.682,32.722Zm0-9.684A3.342,3.342,0,1,1,66.34,26.38,3.345,3.345,0,0,1,69.682,23.038Z" fill="#3f3679"/><path d="M88.332,32.722A6.342,6.342,0,1,0,81.99,26.38,6.349,6.349,0,0,0,88.332,32.722Zm0-9.684A3.342,3.342,0,1,1,84.99,26.38,3.345,3.345,0,0,1,88.332,23.038Z" fill="#3f3679"/><path d="M106.981,32.722a6.342,6.342,0,1,0-6.342-6.342A6.349,6.349,0,0,0,106.981,32.722Zm0-9.684a3.342,3.342,0,1,1-3.342,3.342A3.345,3.345,0,0,1,106.981,23.038Z" fill="#3f3679"/><path d="M126.206,31.886h61.265a5.189,5.189,0,1,0,0-10.378H126.206a5.189,5.189,0,1,0,0,10.378Zm0-7.378h61.265a2.189,2.189,0,1,1,0,4.378H126.206a2.189,2.189,0,1,1,0-4.378Z" fill="#3f3679"/><path d="M95.613,123.708l-4.226,4.513a1.5,1.5,0,1,0,2.189,2.051l4.227-4.514a11.957,11.957,0,0,1,4.229-2.915l5.741-2.38a24.4,24.4,0,0,0,40.463-.013l5.738,2.4a11.961,11.961,0,0,1,4.225,2.913l4.226,4.513a1.5,1.5,0,1,0,2.189-2.051l-4.226-4.513a14.938,14.938,0,0,0-5.268-3.634l-5.351-2.234a24.258,24.258,0,0,0,2.648-11.038V99.26H163.4a1.5,1.5,0,0,0,0-3H152.417V88.719a24.542,24.542,0,0,0-.159-2.746L155.11,84.8a14.949,14.949,0,0,0,5.277-3.638l4.226-4.513a1.5,1.5,0,1,0-2.189-2.051L158.2,79.115a11.961,11.961,0,0,1-4.225,2.913l-2.251.922A24.5,24.5,0,0,0,139.9,67.41c.964-2.507,3.285-8.468,4.927-12.677a1.5,1.5,0,0,0-2.795-1.091L139.322,60.6c-.677,1.741-1.354,3.483-1.858,4.79-.1.263-.187.486-.273.713a24.342,24.342,0,0,0-18.353-.011c-.085-.223-.169-.442-.269-.7-.5-1.307-1.181-3.049-1.858-4.79L114,53.642a1.5,1.5,0,0,0-2.795,1.091c1.64,4.2,3.954,10.146,4.921,12.662A24.5,24.5,0,0,0,104.278,82.95l-2.251-.923A11.947,11.947,0,0,1,97.8,79.115L93.576,74.6a1.5,1.5,0,1,0-2.189,2.051l4.226,4.513a14.937,14.937,0,0,0,5.277,3.639l2.853,1.169a24.548,24.548,0,0,0-.159,2.746V96.26H92.6a1.5,1.5,0,0,0,0,3h10.988V106.8a24.258,24.258,0,0,0,2.655,11.051l-5.349,2.218A14.936,14.936,0,0,0,95.613,123.708ZM106.583,106.8V88.719c0-.49.041-.971.074-1.453H126.5v40.876A21.428,21.428,0,0,1,106.583,106.8ZM129.5,128.142V87.266h19.843c.033.482.074.963.074,1.453V106.8A21.428,21.428,0,0,1,129.5,128.142ZM128,67.3a21.449,21.449,0,0,1,20.944,16.963H107.056A21.449,21.449,0,0,1,128,67.3Z" fill="#3f3679"/><circle cx="120.514" cy="76.366" r="1.712" fill="#3f3679"/><circle cx="135.486" cy="76.366" r="1.712" fill="#3f3679"/></svg>