<svg xmlns="http://www.w3.org/2000/svg" viewBox="0 0 256 256"><title>icons_</title><path d="M238.192,194.552l-13.715-13.715a8.162,8.162,0,0,0-11.755,11.324H35.25a3.5,3.5,0,0,1-3.5-3.5V134.18a3.5,3.5,0,0,1,3.5-3.5h185.5a19.855,19.855,0,0,0,19.833-19.833V56.367A19.855,19.855,0,0,0,220.75,36.533H23.583a8.167,8.167,0,0,0,0,16.333H220.75a3.5,3.5,0,0,1,3.5,3.5v54.48a3.5,3.5,0,0,1-3.5,3.5H35.25A19.855,19.855,0,0,0,15.417,134.18v54.48A19.855,19.855,0,0,0,35.25,208.494H212.721a8.162,8.162,0,0,0,11.755,11.324L238.192,206.1A8.168,8.168,0,0,0,238.192,194.552Z" fill="#63bce7"/><path d="M230.583,56.367v54.48A19.856,19.856,0,0,1,210.75,130.68h10a19.856,19.856,0,0,0,19.833-19.833V56.367A19.856,19.856,0,0,0,220.75,36.533h-10A19.856,19.856,0,0,1,230.583,56.367Z" fill="#63e2e7"/><path d="M238.192,194.552l-13.715-13.715a8.167,8.167,0,0,0-10.775-.674,8.262,8.262,0,0,1,.775.674l13.715,13.715a8.168,8.168,0,0,1,0,11.55l-13.715,13.715a8.256,8.256,0,0,1-.775.674,8.155,8.155,0,0,0,10.775-.674L238.192,206.1A8.168,8.168,0,0,0,238.192,194.552Z" fill="#63e2e7"/><path d="M25.417,188.66V134.18A19.856,19.856,0,0,1,45.25,114.347h-10A19.856,19.856,0,0,0,15.417,134.18v54.48A19.856,19.856,0,0,0,35.25,208.494h10A19.856,19.856,0,0,1,25.417,188.66Z" fill="#6377e7"/><path d="M25.417,44.7a8.166,8.166,0,0,1,8.167-8.167h-10a8.167,8.167,0,0,0,0,16.333h10A8.166,8.166,0,0,1,25.417,44.7Z" fill="#6377e7"/><rect x="62.2" y="177.89" width="131.601" height="44.874" rx="4.919" ry="4.919" fill="#9e9e9e"/><rect x="62.2" y="100.076" width="131.601" height="44.874" rx="4.919" ry="4.919" fill="#9e9e9e"/><rect x="75.806" y="117.681" width="69.797" height="9.664" rx="2.415" ry="2.415" fill="#f8af23"/><rect x="166.184" y="117.681" width="9.664" height="9.664" rx="2.415" ry="2.415" fill="#f8af23"/><rect x="62.2" y="22.263" width="131.601" height="44.874" rx="4.919" ry="4.919" fill="#9e9e9e"/><path d="M72.2,62.218V27.182a4.919,4.919,0,0,1,4.919-4.919h-10A4.919,4.919,0,0,0,62.2,27.182V62.218a4.919,4.919,0,0,0,4.919,4.919h10A4.919,4.919,0,0,1,72.2,62.218Z" fill="#707070"/><path d="M72.2,140.032V105a4.919,4.919,0,0,1,4.919-4.919h-10A4.919,4.919,0,0,0,62.2,105v35.037a4.919,4.919,0,0,0,4.919,4.919h10A4.919,4.919,0,0,1,72.2,140.032Z" fill="#707070"/><path d="M183.8,62.218V27.182a4.919,4.919,0,0,0-4.919-4.919h10a4.919,4.919,0,0,1,4.919,4.919V62.218a4.919,4.919,0,0,1-4.919,4.919h-10A4.919,4.919,0,0,0,183.8,62.218Z" fill="#cecece"/><path d="M183.8,140.032V105a4.919,4.919,0,0,0-4.919-4.919h10A4.919,4.919,0,0,1,193.8,105v35.037a4.919,4.919,0,0,1-4.919,4.919h-10A4.919,4.919,0,0,0,183.8,140.032Z" fill="#cecece"/><path d="M72.2,217.845V182.809a4.919,4.919,0,0,1,4.919-4.919h-10a4.919,4.919,0,0,0-4.919,4.919v35.037a4.919,4.919,0,0,0,4.919,4.919h10A4.919,4.919,0,0,1,72.2,217.845Z" fill="#707070"/><path d="M183.8,217.845V182.809a4.919,4.919,0,0,0-4.919-4.919h10a4.919,4.919,0,0,1,4.919,4.919v35.037a4.919,4.919,0,0,1-4.919,4.919h-10A4.919,4.919,0,0,0,183.8,217.845Z" fill="#cecece"/><rect x="75.806" y="39.868" width="69.797" height="9.664" rx="2.415" ry="2.415" fill="#f8af23"/><rect x="166.184" y="39.868" width="9.664" height="9.664" rx="2.415" ry="2.415" fill="#f8af23"/><rect x="75.806" y="195.495" width="69.797" height="9.664" rx="2.415" ry="2.415" fill="#f8af23"/><rect x="166.184" y="195.495" width="9.664" height="9.664" rx="2.415" ry="2.415" fill="#f8af23"/><path d="M27.323,232.237h-18a1.5,1.5,0,0,0,0,3h18a1.5,1.5,0,1,0,0-3Z" fill="#3f3679"/><path d="M246.68,232.237h-18a1.5,1.5,0,0,0,0,3h18a1.5,1.5,0,0,0,0-3Z" fill="#3f3679"/><path d="M218.479,232.237H37.521a1.5,1.5,0,0,0,0,3H218.479a1.5,1.5,0,0,0,0-3Z" fill="#3f3679"/><path d="M9.32,224.265H246.68a1.5,1.5,0,0,0,0-3H225.111c.143-.127.29-.25.427-.387l13.715-13.715a9.68,9.68,0,0,0,0-13.672l-13.715-13.715a9.666,9.666,0,0,0-15.613,10.884H195.3v-7.852a6.426,6.426,0,0,0-6.418-6.419H67.118a6.427,6.427,0,0,0-6.419,6.419v7.852H35.25a2,2,0,0,1-2-2V134.181a2,2,0,0,1,2-2H60.7v7.852a6.426,6.426,0,0,0,6.419,6.418H188.882a6.425,6.425,0,0,0,6.418-6.418v-7.852h25.45a21.358,21.358,0,0,0,21.333-21.334V56.367A21.358,21.358,0,0,0,220.75,35.033H195.3V27.182a6.426,6.426,0,0,0-6.418-6.419H67.118A6.427,6.427,0,0,0,60.7,27.182v7.852H23.583a9.667,9.667,0,0,0,0,19.334H60.7v7.852a6.426,6.426,0,0,0,6.419,6.418H188.882a6.425,6.425,0,0,0,6.418-6.418V54.367h25.45a2,2,0,0,1,2,2v54.479a2,2,0,0,1-2,2H195.3V105a6.426,6.426,0,0,0-6.418-6.419H67.118A6.427,6.427,0,0,0,60.7,105v7.852H35.25a21.358,21.358,0,0,0-21.333,21.334V188.66A21.358,21.358,0,0,0,35.25,209.993H60.7v7.853a6.372,6.372,0,0,0,1,3.419H9.32a1.5,1.5,0,0,0,0,3Zm184.984-3a6.373,6.373,0,0,0,1-3.419v-7.853h14.624a9.626,9.626,0,0,0,1.942,10.886c.136.136.283.259.426.386Zm18.418-27.6a1.5,1.5,0,0,0,1.1-2.521,6.662,6.662,0,0,1,9.595-9.242l13.715,13.715a6.677,6.677,0,0,1,0,9.43l-13.715,13.715a6.662,6.662,0,0,1-9.595-9.243,1.5,1.5,0,0,0-1.1-2.521H195.3V193.66ZM23.583,51.367a6.667,6.667,0,0,1,0-13.334H60.7V51.367ZM192.3,62.219a3.422,3.422,0,0,1-3.418,3.418H67.118A3.423,3.423,0,0,1,63.7,62.219V27.182a3.423,3.423,0,0,1,3.419-3.419H188.882a3.423,3.423,0,0,1,3.418,3.419Zm28.45,53.628a5.006,5.006,0,0,0,5-5V56.367a5.006,5.006,0,0,0-5-5H195.3V38.033h25.45a18.355,18.355,0,0,1,18.333,18.334v54.479a18.355,18.355,0,0,1-18.333,18.334H195.3V115.847ZM63.7,105a3.423,3.423,0,0,1,3.419-3.419H188.882A3.423,3.423,0,0,1,192.3,105v35.037a3.422,3.422,0,0,1-3.418,3.418H67.118a3.423,3.423,0,0,1-3.419-3.418Zm-28.449,102A18.354,18.354,0,0,1,16.917,188.66V134.181A18.355,18.355,0,0,1,35.25,115.847H60.7v13.334H35.25a5.006,5.006,0,0,0-5,5V188.66a5.006,5.006,0,0,0,5,5H60.7v13.333ZM63.7,217.846V182.809a3.423,3.423,0,0,1,3.419-3.419H188.882a3.423,3.423,0,0,1,3.418,3.419v35.037a3.423,3.423,0,0,1-3.418,3.419H67.118A3.423,3.423,0,0,1,63.7,217.846Z" fill="#3f3679"/><path d="M78.221,128.846h64.968a3.919,3.919,0,0,0,3.914-3.915V120.1a3.919,3.919,0,0,0-3.914-3.915H78.221a3.919,3.919,0,0,0-3.915,3.915v4.834A3.919,3.919,0,0,0,78.221,128.846Zm-.915-8.749a.927.927,0,0,1,.915-.915h64.968a.927.927,0,0,1,.914.915v4.834a.927.927,0,0,1-.914.915H78.221a.927.927,0,0,1-.915-.915Z" fill="#3f3679"/><path d="M168.6,128.846h4.834a3.919,3.919,0,0,0,3.915-3.915V120.1a3.919,3.919,0,0,0-3.915-3.915H168.6a3.919,3.919,0,0,0-3.915,3.915v4.834A3.919,3.919,0,0,0,168.6,128.846Zm-.915-8.749a.927.927,0,0,1,.915-.915h4.834a.927.927,0,0,1,.915.915v4.834a.927.927,0,0,1-.915.915H168.6a.927.927,0,0,1-.915-.915Z" fill="#3f3679"/><path d="M143.188,38.368H78.221a3.919,3.919,0,0,0-3.915,3.915v4.834a3.919,3.919,0,0,0,3.915,3.915h64.968a3.919,3.919,0,0,0,3.914-3.915V42.283A3.919,3.919,0,0,0,143.188,38.368Zm.914,8.749a.927.927,0,0,1-.914.915H78.221a.927.927,0,0,1-.915-.915V42.283a.927.927,0,0,1,.915-.915h64.968a.915.915,0,0,1,.914.915Z" fill="#3f3679"/><path d="M173.434,38.368H168.6a3.919,3.919,0,0,0-3.915,3.915v4.834a3.919,3.919,0,0,0,3.915,3.915h4.834a3.919,3.919,0,0,0,3.915-3.915V42.283A3.919,3.919,0,0,0,173.434,38.368Zm.915,8.749a.927.927,0,0,1-.915.915H168.6a.927.927,0,0,1-.915-.915V42.283a.916.916,0,0,1,.915-.915h4.834a.927.927,0,0,1,.915.915Z" fill="#3f3679"/><path d="M143.188,194H78.221a3.919,3.919,0,0,0-3.915,3.915v4.834a3.919,3.919,0,0,0,3.915,3.915h64.968a3.919,3.919,0,0,0,3.914-3.915V197.91A3.919,3.919,0,0,0,143.188,194Zm.914,8.749a.927.927,0,0,1-.914.915H78.221a.927.927,0,0,1-.915-.915V197.91a.927.927,0,0,1,.915-.915h64.968a.927.927,0,0,1,.914.915Z" fill="#3f3679"/><path d="M173.434,194H168.6a3.919,3.919,0,0,0-3.915,3.915v4.834a3.919,3.919,0,0,0,3.915,3.915h4.834a3.919,3.919,0,0,0,3.915-3.915V197.91A3.919,3.919,0,0,0,173.434,194Zm.915,8.749a.927.927,0,0,1-.915.915H168.6a.927.927,0,0,1-.915-.915V197.91A.927.927,0,0,1,168.6,197h4.834a.927.927,0,0,1,.915.915Z" fill="#3f3679"/></svg>