<svg xmlns="http://www.w3.org/2000/svg" viewBox="0 0 256 256"><title>icons_</title><circle cx="189.186" cy="61.328" r="14.688" transform="translate(12.046 151.737) rotate(-45)" fill="#f46275"/><rect x="84.723" y="107.757" width="86.554" height="29.514" rx="4.919" ry="4.919" fill="#9e9e9e"/><rect x="84.723" y="137.27" width="86.554" height="29.514" rx="4.919" ry="4.919" fill="#9e9e9e"/><rect x="84.723" y="78.243" width="86.554" height="29.514" rx="4.919" ry="4.919" fill="#9e9e9e"/><path d="M166.358,78.243h-10a4.919,4.919,0,0,1,4.919,4.918v19.677a4.919,4.919,0,0,1-4.919,4.919h10a4.919,4.919,0,0,0,4.919-4.919V83.161A4.919,4.919,0,0,0,166.358,78.243Z" fill="#cecece"/><path d="M89.642,78.243h10a4.919,4.919,0,0,0-4.919,4.918v19.677a4.919,4.919,0,0,0,4.919,4.919h-10a4.919,4.919,0,0,1-4.919-4.919V83.161A4.919,4.919,0,0,1,89.642,78.243Z" fill="#707070"/><path d="M89.642,107.757h10a4.919,4.919,0,0,0-4.919,4.918v19.677a4.919,4.919,0,0,0,4.919,4.919h-10a4.919,4.919,0,0,1-4.919-4.919V112.675A4.919,4.919,0,0,1,89.642,107.757Z" fill="#707070"/><path d="M89.642,137.271h10a4.919,4.919,0,0,0-4.919,4.918v19.677a4.919,4.919,0,0,0,4.919,4.919h-10a4.919,4.919,0,0,1-4.919-4.919V142.189A4.919,4.919,0,0,1,89.642,137.271Z" fill="#707070"/><path d="M166.358,107.757h-10a4.919,4.919,0,0,1,4.919,4.918v19.677a4.919,4.919,0,0,1-4.919,4.919h10a4.919,4.919,0,0,0,4.919-4.919V112.675A4.919,4.919,0,0,0,166.358,107.757Z" fill="#cecece"/><path d="M166.358,137.271h-10a4.919,4.919,0,0,1,4.919,4.918v19.677a4.919,4.919,0,0,1-4.919,4.919h10a4.919,4.919,0,0,0,4.919-4.919V142.189A4.919,4.919,0,0,0,166.358,137.271Z" fill="#cecece"/><rect x="93.672" y="89.822" width="45.906" height="6.356" rx="2.415" ry="2.415" fill="#f8af23"/><rect x="93.672" y="119.335" width="45.906" height="6.356" rx="2.415" ry="2.415" fill="#f8af23"/><rect x="93.672" y="148.849" width="45.906" height="6.356" rx="2.415" ry="2.415" fill="#f8af23"/><rect x="153.114" y="89.822" width="6.356" height="6.356" rx="2.415" ry="2.415" fill="#f8af23"/><rect x="153.114" y="119.335" width="6.356" height="6.356" rx="2.415" ry="2.415" fill="#f8af23"/><rect x="153.114" y="148.849" width="6.356" height="6.356" rx="2.415" ry="2.415" fill="#f8af23"/><circle cx="128" cy="35.984" r="14.688" fill="#63bce7"/><path d="M123.312,35.983A14.679,14.679,0,0,1,133,22.188a14.688,14.688,0,1,0,0,27.591A14.679,14.679,0,0,1,123.312,35.983Z" fill="#6377e7"/><circle cx="128" cy="209.044" r="14.688" fill="#63bce7"/><path d="M123.312,209.044a14.679,14.679,0,0,1,9.688-13.8,14.688,14.688,0,1,0,0,27.591A14.679,14.679,0,0,1,123.312,209.044Z" fill="#6377e7"/><circle cx="214.53" cy="122.514" r="14.688" fill="#cecece"/><circle cx="41.47" cy="122.514" r="14.688" fill="#cecece"/><path d="M36.782,122.514a14.679,14.679,0,0,1,9.688-13.8,14.688,14.688,0,1,0,0,27.591A14.679,14.679,0,0,1,36.782,122.514Z" fill="#afafaf"/><path d="M219.218,122.514a14.679,14.679,0,0,0-9.687-13.8,14.688,14.688,0,1,1,0,27.591A14.679,14.679,0,0,0,219.218,122.514Z" fill="#e2e2e2"/><circle cx="66.814" cy="61.328" r="14.688" transform="translate(-23.796 65.207) rotate(-45)" fill="#f8af23"/><path d="M66.428,50.942a14.606,14.606,0,0,1,5.386-3.411,14.679,14.679,0,1,0,0,27.593,14.662,14.662,0,0,1-5.386-24.182Z" fill="#f87023"/><path d="M189.572,50.942a14.606,14.606,0,0,0-5.386-3.411,14.679,14.679,0,1,1,0,27.593,14.662,14.662,0,0,0,5.386-24.182Z" fill="#f48875"/><circle cx="189.186" cy="183.699" r="14.688" transform="translate(-74.484 187.579) rotate(-45)" fill="#f8af23"/><circle cx="66.814" cy="183.699" r="14.688" transform="translate(-110.326 101.049) rotate(-45)" fill="#f46275"/><path d="M66.428,173.314a14.605,14.605,0,0,1,5.386-3.411,14.679,14.679,0,1,0,0,27.593,14.663,14.663,0,0,1-5.386-24.182Z" fill="#f43075"/><path d="M189.572,173.314a14.605,14.605,0,0,0-5.386-3.411,14.679,14.679,0,1,1,0,27.593,14.663,14.663,0,0,0,5.386-24.182Z" fill="#f8d323"/><path d="M137.163,88.321H96.087a3.919,3.919,0,0,0-3.915,3.915v1.526a3.919,3.919,0,0,0,3.915,3.915h41.076a3.919,3.919,0,0,0,3.914-3.915V92.236A3.919,3.919,0,0,0,137.163,88.321Zm.914,5.441a.927.927,0,0,1-.914.915H96.087a.927.927,0,0,1-.915-.915V92.236a.927.927,0,0,1,.915-.915h41.076a.927.927,0,0,1,.914.915Z" fill="#3f3679"/><path d="M137.163,117.835H96.087a3.919,3.919,0,0,0-3.915,3.915v1.526a3.919,3.919,0,0,0,3.915,3.915h41.076a3.919,3.919,0,0,0,3.914-3.915V121.75A3.919,3.919,0,0,0,137.163,117.835Zm.914,5.441a.927.927,0,0,1-.914.915H96.087a.927.927,0,0,1-.915-.915V121.75a.927.927,0,0,1,.915-.915h41.076a.927.927,0,0,1,.914.915Z" fill="#3f3679"/><path d="M141.077,152.79v-1.525a3.919,3.919,0,0,0-3.914-3.915H96.087a3.919,3.919,0,0,0-3.915,3.915v1.525a3.919,3.919,0,0,0,3.915,3.915h41.076A3.919,3.919,0,0,0,141.077,152.79Zm-45.905,0v-1.525a.927.927,0,0,1,.915-.915h41.076a.915.915,0,0,1,.914.915v1.525a.915.915,0,0,1-.914.915H96.087A.927.927,0,0,1,95.172,152.79Z" fill="#3f3679"/><path d="M157.055,88.321h-1.525a3.919,3.919,0,0,0-3.915,3.915v1.526a3.919,3.919,0,0,0,3.915,3.915h1.525a3.919,3.919,0,0,0,3.915-3.915V92.236A3.919,3.919,0,0,0,157.055,88.321Zm.915,5.441a.927.927,0,0,1-.915.915h-1.525a.927.927,0,0,1-.915-.915V92.236a.927.927,0,0,1,.915-.915h1.525a.927.927,0,0,1,.915.915Z" fill="#3f3679"/><path d="M157.055,117.835h-1.525a3.919,3.919,0,0,0-3.915,3.915v1.526a3.919,3.919,0,0,0,3.915,3.915h1.525a3.919,3.919,0,0,0,3.915-3.915V121.75A3.919,3.919,0,0,0,157.055,117.835Zm.915,5.441a.927.927,0,0,1-.915.915h-1.525a.927.927,0,0,1-.915-.915V121.75a.927.927,0,0,1,.915-.915h1.525a.927.927,0,0,1,.915.915Z" fill="#3f3679"/><path d="M155.529,156.705h1.525a3.919,3.919,0,0,0,3.915-3.915v-1.525a3.919,3.919,0,0,0-3.915-3.915h-1.525a3.919,3.919,0,0,0-3.915,3.915v1.525A3.919,3.919,0,0,0,155.529,156.705Zm-.915-5.44a.916.916,0,0,1,.915-.915h1.525a.916.916,0,0,1,.915.915v1.525a.916.916,0,0,1-.915.915h-1.525a.916.916,0,0,1-.915-.915Z" fill="#3f3679"/><path d="M27.323,233.2h-18a1.5,1.5,0,1,0,0,3h18a1.5,1.5,0,0,0,0-3Z" fill="#3f3679"/><path d="M246.68,233.2h-18a1.5,1.5,0,1,0,0,3h18a1.5,1.5,0,0,0,0-3Z" fill="#3f3679"/><path d="M218.479,233.2H37.521a1.5,1.5,0,1,0,0,3H218.479a1.5,1.5,0,1,0,0-3Z" fill="#3f3679"/><path d="M9.32,225.231H246.68a1.5,1.5,0,0,0,0-3H137.354a16.166,16.166,0,0,0-7.854-29.3V168.284h36.858a6.38,6.38,0,0,0,3.933-1.358l6.439,6.439a16.2,16.2,0,1,0,2.123-2.119l-6.681-6.68a6.37,6.37,0,0,0,.6-2.7V142.189a6.406,6.406,0,0,0-2.3-4.919,6.406,6.406,0,0,0,2.3-4.919v-8.338h25.641a16.188,16.188,0,1,0,0-3H172.777v-8.338a6.406,6.406,0,0,0-2.3-4.919,6.406,6.406,0,0,0,2.3-4.919V83.161a6.367,6.367,0,0,0-.6-2.7l6.679-6.679a16.2,16.2,0,1,0-2.121-2.121L170.292,78.1a6.38,6.38,0,0,0-3.934-1.357H129.5V52.095a16.188,16.188,0,1,0-3,0V76.743H89.642A6.381,6.381,0,0,0,85.708,78.1l-6.439-6.439a16.2,16.2,0,1,0-2.121,2.121l6.679,6.679a6.369,6.369,0,0,0-.6,2.7v19.677a6.406,6.406,0,0,0,2.3,4.919,6.406,6.406,0,0,0-2.3,4.919v8.338H57.582a16.188,16.188,0,1,0,0,3H83.223v8.338a6.406,6.406,0,0,0,2.3,4.919,6.406,6.406,0,0,0-2.3,4.919v19.676a6.37,6.37,0,0,0,.6,2.7l-6.681,6.681a16.161,16.161,0,1,0,2.123,2.119l6.439-6.439a6.379,6.379,0,0,0,3.934,1.358H126.5v24.648a16.166,16.166,0,0,0-7.854,29.3H9.32a1.5,1.5,0,1,0,0,3ZM214.53,109.326a13.187,13.187,0,1,1-13.187,13.188A13.2,13.2,0,0,1,214.53,109.326ZM114.812,35.983A13.187,13.187,0,1,1,128,49.171,13.2,13.2,0,0,1,114.812,35.983ZM41.47,135.7a13.188,13.188,0,1,1,13.188-13.187A13.2,13.2,0,0,1,41.47,135.7Zm157.041,38.673a13.2,13.2,0,1,1-9.325-3.856A13.1,13.1,0,0,1,198.511,174.374ZM179.861,52A13.187,13.187,0,1,1,176,61.327,13.1,13.1,0,0,1,179.861,52ZM57.489,70.652a13.189,13.189,0,1,1,9.325,3.862A13.1,13.1,0,0,1,57.489,70.652Zm28.734,32.186V83.161a3.422,3.422,0,0,1,3.418-3.418h76.717a3.423,3.423,0,0,1,3.419,3.418v19.677a3.423,3.423,0,0,1-3.419,3.419H89.642A3.423,3.423,0,0,1,86.223,102.838Zm0,29.514V112.676a3.423,3.423,0,0,1,3.418-3.419h76.717a3.423,3.423,0,0,1,3.419,3.419v19.676a3.423,3.423,0,0,1-3.419,3.419H89.642A3.423,3.423,0,0,1,86.223,132.352ZM76.139,193.024A13.189,13.189,0,1,1,80,183.7,13.1,13.1,0,0,1,76.139,193.024Zm10.084-31.159V142.189a3.423,3.423,0,0,1,3.418-3.419h76.717a3.423,3.423,0,0,1,3.419,3.419v19.676a3.423,3.423,0,0,1-3.419,3.419H89.642A3.423,3.423,0,0,1,86.223,161.865Zm28.589,47.179A13.187,13.187,0,1,1,128,222.231,13.2,13.2,0,0,1,114.812,209.044Z" fill="#3f3679"/></svg>