<svg xmlns="http://www.w3.org/2000/svg" viewBox="0 0 256 256"><title>icons_</title><rect x="18.37" y="38.237" width="219.26" height="151.106" rx="13.665" ry="13.665" fill="#cecece"/><path d="M28.37,175.678V51.9A13.681,13.681,0,0,1,42.035,38.237h-10A13.681,13.681,0,0,0,18.37,51.9V175.678a13.68,13.68,0,0,0,13.665,13.665h10A13.68,13.68,0,0,1,28.37,175.678Z" fill="#afafaf"/><path d="M227.63,175.678V51.9a13.681,13.681,0,0,0-13.665-13.665h10A13.681,13.681,0,0,1,237.63,51.9V175.678a13.68,13.68,0,0,1-13.665,13.665h-10A13.68,13.68,0,0,0,227.63,175.678Z" fill="#e2e2e2"/><path d="M229.221,46.646V175.654a5.28,5.28,0,0,1-5.28,5.28H32.059a5.28,5.28,0,0,1-5.28-5.28V46.646Z" fill="#63bce7"/><path d="M45.141,68.333h6.635a2.315,2.315,0,0,1,2.137,1.425l.772,1.855a2.315,2.315,0,0,0,2.137,1.425H68.082V88.987H45.141Z" fill="#f8af23"/><path d="M45.141,99.513h6.635a2.315,2.315,0,0,1,2.137,1.425l.772,1.855a2.315,2.315,0,0,0,2.137,1.425H68.082v15.948H45.141Z" fill="#f8af23"/><path d="M36.779,175.654V46.646h-10V175.654a5.28,5.28,0,0,0,5.28,5.28h10A5.28,5.28,0,0,1,36.779,175.654Z" fill="#6377e7"/><path d="M219.221,175.654V46.646h10V175.654a5.28,5.28,0,0,1-5.28,5.28h-10A5.28,5.28,0,0,0,219.221,175.654Z" fill="#63e2e7"/><path d="M128,189.343H8.667l3.053,7.024a17.333,17.333,0,0,0,15.9,10.423H228.385a17.333,17.333,0,0,0,15.9-10.423l3.053-7.024Z" fill="#9e9e9e"/><path d="M21.719,196.367l-3.053-7.024h-10l3.053,7.024a17.333,17.333,0,0,0,15.9,10.423h10A17.333,17.333,0,0,1,21.719,196.367Z" fill="#707070"/><path d="M234.281,196.367l3.053-7.024h10l-3.053,7.024a17.333,17.333,0,0,1-15.9,10.423h-10A17.333,17.333,0,0,0,234.281,196.367Z" fill="#cecece"/><path d="M82.442,189.343l4.22,5.388a8.7,8.7,0,0,0,6.85,3.336h68.975a8.7,8.7,0,0,0,6.85-3.336l4.221-5.388Z" fill="#cecece"/><rect x="36.094" y="157.879" width="183.813" height="23.055" fill="#cecece"/><circle cx="60.801" cy="169.407" r="5.422" fill="#f8af23"/><circle cx="83.201" cy="169.407" r="5.422" fill="#f8af23"/><circle cx="105.6" cy="169.407" r="5.422" fill="#f8af23"/><circle cx="128" cy="169.407" r="5.422" fill="#f8af23"/><circle cx="150.4" cy="169.407" r="5.422" fill="#f8af23"/><circle cx="172.799" cy="169.407" r="5.422" fill="#f8af23"/><circle cx="195.199" cy="169.407" r="5.422" fill="#f8af23"/><rect x="26.779" y="46.646" width="202.442" height="11.4" fill="#cecece"/><rect x="26.779" y="46.646" width="10" height="11.4" fill="#afafaf"/><rect x="219.221" y="46.646" width="10" height="11.4" fill="#e2e2e2"/><path d="M45.141,90.486H68.082a1.5,1.5,0,0,0,1.5-1.5V73.039a1.5,1.5,0,0,0-1.5-1.5H56.823a.814.814,0,0,1-.753-.5L55.3,69.183a3.8,3.8,0,0,0-3.522-2.35H45.141a1.5,1.5,0,0,0-1.5,1.5V88.986A1.5,1.5,0,0,0,45.141,90.486Zm1.5-20.653h5.135a.814.814,0,0,1,.753.5l.772,1.854a3.8,3.8,0,0,0,3.522,2.35h9.759V87.486H46.641Z" fill="#3f3679"/><path d="M45.141,121.667H68.082a1.5,1.5,0,0,0,1.5-1.5V104.219a1.5,1.5,0,0,0-1.5-1.5H56.823a.814.814,0,0,1-.753-.5l-.772-1.855a3.8,3.8,0,0,0-3.522-2.349H45.141a1.5,1.5,0,0,0-1.5,1.5v20.653A1.5,1.5,0,0,0,45.141,121.667Zm1.5-20.653h5.135a.813.813,0,0,1,.753.5l.772,1.856a3.807,3.807,0,0,0,3.522,2.348h9.759v12.948H46.641Z" fill="#3f3679"/><path d="M223.965,182.434a6.763,6.763,0,0,0,6.756-6.756V46.646a1.5,1.5,0,0,0-1.5-1.5H26.779a1.5,1.5,0,0,0-1.5,1.5V175.678a6.763,6.763,0,0,0,6.756,6.756H223.965ZM28.279,48.146H227.721v8.4H28.279Zm0,127.532V59.546H227.721V175.678a3.76,3.76,0,0,1-3.756,3.756h-2.559V157.879a1.5,1.5,0,0,0-1.5-1.5H36.094a1.5,1.5,0,0,0-1.5,1.5v21.555H32.035A3.76,3.76,0,0,1,28.279,175.678Zm9.315,3.756V159.379H218.406v20.055Z" fill="#3f3679"/><path d="M245.656,196.964l3.053-7.023a1.5,1.5,0,0,0-1.375-2.1H232.982a15.137,15.137,0,0,0,6.149-12.165V51.9a15.182,15.182,0,0,0-15.165-15.164H32.035A15.182,15.182,0,0,0,16.87,51.9V175.678a15.137,15.137,0,0,0,6.149,12.165H8.667a1.5,1.5,0,0,0-1.375,2.1l3.053,7.023a18.8,18.8,0,0,0,7.08,8.326H9.32a1.5,1.5,0,1,0,0,3H246.68a1.5,1.5,0,0,0,0-3h-8.1A18.8,18.8,0,0,0,245.656,196.964ZM19.87,175.678V51.9A12.178,12.178,0,0,1,32.035,39.737H223.965A12.178,12.178,0,0,1,236.13,51.9V175.678a12.179,12.179,0,0,1-12.165,12.165H32.035A12.179,12.179,0,0,1,19.87,175.678Zm150.608,15.165-2.321,2.963a7.154,7.154,0,0,1-5.669,2.761H93.513a7.156,7.156,0,0,1-5.669-2.761l-2.321-2.963Zm57.907,14.447H27.615a15.823,15.823,0,0,1-12.18-5.724h29.14a1.5,1.5,0,1,0,0-3h-31.1c-.132-.263-.264-.526-.382-.8l-2.141-4.926H81.712l3.77,4.813a10.139,10.139,0,0,0,8.031,3.911h68.975a10.137,10.137,0,0,0,8.031-3.911l3.77-4.812h70.758l-2.141,4.926c-.118.272-.25.535-.382.8h-31.1a1.5,1.5,0,0,0,0,3h29.14A15.823,15.823,0,0,1,228.385,205.29Z" fill="#3f3679"/><path d="M65.22,196.566H54.845a1.5,1.5,0,0,0,0,3H65.22a1.5,1.5,0,0,0,0-3Z" fill="#3f3679"/><path d="M201.155,196.566H190.78a1.5,1.5,0,0,0,0,3h10.375a1.5,1.5,0,0,0,0-3Z" fill="#3f3679"/><path d="M27.323,216.263h-18a1.5,1.5,0,1,0,0,3h18a1.5,1.5,0,1,0,0-3Z" fill="#3f3679"/><path d="M246.68,216.263h-18a1.5,1.5,0,0,0,0,3h18a1.5,1.5,0,0,0,0-3Z" fill="#3f3679"/><path d="M218.479,216.263H37.521a1.5,1.5,0,0,0,0,3H218.479a1.5,1.5,0,0,0,0-3Z" fill="#3f3679"/><path d="M60.8,162.484a6.922,6.922,0,1,0,6.922,6.922A6.93,6.93,0,0,0,60.8,162.484Zm0,10.845a3.922,3.922,0,1,1,3.922-3.923A3.927,3.927,0,0,1,60.8,173.329Z" fill="#3f3679"/><path d="M83.2,162.484a6.922,6.922,0,1,0,6.922,6.922A6.93,6.93,0,0,0,83.2,162.484Zm0,10.845a3.922,3.922,0,1,1,3.922-3.923A3.927,3.927,0,0,1,83.2,173.329Z" fill="#3f3679"/><path d="M105.6,162.484a6.922,6.922,0,1,0,6.922,6.922A6.93,6.93,0,0,0,105.6,162.484Zm0,10.845a3.922,3.922,0,1,1,3.922-3.923A3.927,3.927,0,0,1,105.6,173.329Z" fill="#3f3679"/><path d="M128,162.484a6.922,6.922,0,1,0,6.922,6.922A6.93,6.93,0,0,0,128,162.484Zm0,10.845a3.922,3.922,0,1,1,3.922-3.923A3.927,3.927,0,0,1,128,173.329Z" fill="#3f3679"/><path d="M150.4,162.484a6.922,6.922,0,1,0,6.922,6.922A6.93,6.93,0,0,0,150.4,162.484Zm0,10.845a3.922,3.922,0,1,1,3.922-3.923A3.927,3.927,0,0,1,150.4,173.329Z" fill="#3f3679"/><path d="M172.8,162.484a6.922,6.922,0,1,0,6.922,6.922A6.93,6.93,0,0,0,172.8,162.484Zm0,10.845a3.922,3.922,0,1,1,3.922-3.923A3.927,3.927,0,0,1,172.8,173.329Z" fill="#3f3679"/><path d="M195.2,162.484a6.922,6.922,0,1,0,6.922,6.922A6.93,6.93,0,0,0,195.2,162.484Zm0,10.845a3.922,3.922,0,1,1,3.922-3.923A3.927,3.927,0,0,1,195.2,173.329Z" fill="#3f3679"/><path d="M210.859,50.846h-18.75a1.5,1.5,0,0,0,0,3h18.75a1.5,1.5,0,1,0,0-3Z" fill="#3f3679"/><path d="M63.891,50.846H45.141a1.5,1.5,0,0,0,0,3h18.75a1.5,1.5,0,0,0,0-3Z" fill="#3f3679"/></svg>