<svg xmlns="http://www.w3.org/2000/svg" viewBox="0 0 256 256"><title>icons_</title><rect x="16.327" y="12.01" width="223.345" height="191.333" rx="15.327" ry="15.327" fill="#cecece"/><path d="M26.327,188.016V27.337A15.327,15.327,0,0,1,41.655,12.01h-10A15.327,15.327,0,0,0,16.327,27.337V188.016a15.327,15.327,0,0,0,15.327,15.327h10A15.327,15.327,0,0,1,26.327,188.016Z" fill="#afafaf"/><path d="M229.673,188.016V27.337A15.327,15.327,0,0,0,214.345,12.01h10a15.327,15.327,0,0,1,15.327,15.327V188.016a15.327,15.327,0,0,1-15.327,15.327h-10A15.327,15.327,0,0,0,229.673,188.016Z" fill="#e2e2e2"/><path d="M239.673,27.337a15.327,15.327,0,0,0-15.327-15.327H31.655A15.327,15.327,0,0,0,16.327,27.337V54.009H239.673Z" fill="#f8af23"/><path d="M41.655,12.009h-10A15.327,15.327,0,0,0,16.327,27.337V54.009h10V27.337A15.327,15.327,0,0,1,41.655,12.009Z" fill="#f87023"/><path d="M214.345,12.009h10a15.327,15.327,0,0,1,15.327,15.327V54.009h-10V27.337A15.327,15.327,0,0,0,214.345,12.009Z" fill="#f8d323"/><circle cx="43.688" cy="33.009" r="7" fill="#f46275"/><circle cx="70.65" cy="33.009" r="7" fill="#f46275"/><circle cx="97.612" cy="33.009" r="7" fill="#f46275"/><rect x="120.073" y="28.134" width="99.24" height="10.667" rx="5.333" ry="5.333" fill="#f46275"/><polygon points="188.836 93.68 161.507 66.351 67.164 66.351 67.164 233.018 188.836 233.018 188.836 93.68" fill="#63bce7"/><polygon points="161.507 66.351 151.507 66.351 178.836 93.68 178.836 233.018 188.836 233.018 188.836 93.68 161.507 66.351" fill="#63e2e7"/><rect x="67.164" y="66.351" width="10" height="166.667" fill="#6377e7"/><path d="M158.867,160.922c-.323.9-.69,1.771-1.09,2.63l8.087,8.087-15.9,15.9-8.087-8.087c-.86.4-1.737.766-2.63,1.09v11.441H116.763V180.544c-.894-.323-1.771-.69-2.63-1.09l-8.087,8.087-15.9-15.9,8.087-8.087c-.4-.86-.766-1.728-1.09-2.63H85.7V138.441H97.142c.323-.894.69-1.771,1.09-2.63l-8.087-8.087,15.9-15.9,8.087,8.1c.86-.4,1.737-.775,2.63-1.1V107.386h22.482v11.432c.894.323,1.771.7,2.63,1.1l8.087-8.1,15.9,15.9-8.087,8.087c.4.86.766,1.737,1.09,2.63H170.3v22.482Z" fill="#9e9e9e"/><circle cx="128" cy="149.683" r="14.317" fill="#f8af23"/><path d="M43.687,24.509a8.5,8.5,0,1,0,8.5,8.5A8.51,8.51,0,0,0,43.687,24.509Zm0,14a5.5,5.5,0,1,1,5.5-5.5A5.507,5.507,0,0,1,43.687,38.509Z" fill="#3f3679"/><path d="M70.649,24.509a8.5,8.5,0,1,0,8.5,8.5A8.51,8.51,0,0,0,70.649,24.509Zm0,14a5.5,5.5,0,1,1,5.5-5.5A5.507,5.507,0,0,1,70.649,38.509Z" fill="#3f3679"/><path d="M97.612,24.509a8.5,8.5,0,1,0,8.5,8.5A8.51,8.51,0,0,0,97.612,24.509Zm0,14a5.5,5.5,0,1,1,5.5-5.5A5.507,5.507,0,0,1,97.612,38.509Z" fill="#3f3679"/><path d="M213.979,26.634H125.406a6.833,6.833,0,0,0,0,13.667h88.573a6.833,6.833,0,0,0,0-13.667Zm0,10.667H125.406a3.833,3.833,0,0,1,0-7.667h88.573a3.833,3.833,0,0,1,0,7.667Z" fill="#3f3679"/><path d="M27.323,242.491h-18a1.5,1.5,0,0,0,0,3h18a1.5,1.5,0,0,0,0-3Z" fill="#3f3679"/><path d="M246.68,242.491h-18a1.5,1.5,0,0,0,0,3h18a1.5,1.5,0,0,0,0-3Z" fill="#3f3679"/><path d="M218.479,242.491H37.521a1.5,1.5,0,0,0,0,3H218.479a1.5,1.5,0,0,0,0-3Z" fill="#3f3679"/><path d="M9.32,234.518H246.68a1.5,1.5,0,0,0,0-3H190.336V204.843h34.01a16.846,16.846,0,0,0,16.827-16.827V27.337a16.847,16.847,0,0,0-16.827-16.828H31.654A16.847,16.847,0,0,0,14.827,27.337V188.016a16.846,16.846,0,0,0,16.827,16.827h34.01v26.675H9.32a1.5,1.5,0,0,0,0,3ZM163.007,69.972l22.208,22.208H163.007ZM17.827,27.337A13.843,13.843,0,0,1,31.654,13.509H224.346a13.843,13.843,0,0,1,13.827,13.828V52.509H17.827ZM31.654,201.843a13.843,13.843,0,0,1-13.827-13.827V55.509H238.173V188.016a13.843,13.843,0,0,1-13.827,13.827h-34.01V138h9.725a6.375,6.375,0,1,0,0-3h-9.725v-11.41h22.787a6.375,6.375,0,1,0,0-3H190.336V109.176h9.725a6.375,6.375,0,1,0,0-3h-9.725v-12.5a1.5,1.5,0,0,0-.439-1.061l-27.329-27.33a1.5,1.5,0,0,0-1.061-.439H67.164a1.5,1.5,0,0,0-1.5,1.5v39.825H55.939a6.375,6.375,0,1,0,0,3h9.725v11.409H42.877a6.375,6.375,0,1,0,0,3H65.664V135H55.939a6.375,6.375,0,1,0,0,3h9.725v63.848Zm171.223-65.367a3.375,3.375,0,1,1,0,.039l0-.019Zm13.061-14.39a3.375,3.375,0,1,1,3.375,3.375A3.379,3.379,0,0,1,215.938,122.085Zm-13.062-14.409a3.375,3.375,0,1,1,3.375,3.375A3.379,3.379,0,0,1,202.875,107.676Zm-149.75,0A3.375,3.375,0,1,1,49.75,104.3,3.379,3.379,0,0,1,53.125,107.676ZM40.062,122.085a3.375,3.375,0,1,1-3.375-3.375A3.379,3.379,0,0,1,40.062,122.085Zm13.061,14.429a3.375,3.375,0,1,1,0-.039l0,.019ZM68.664,67.851h91.343v25.83a1.5,1.5,0,0,0,1.5,1.5h25.829V231.518H68.664Z" fill="#3f3679"/><path d="M170.3,136.94H159.9c-.106-.264-.218-.529-.335-.8l7.358-7.359a1.5,1.5,0,0,0,0-2.121l-15.9-15.9a1.5,1.5,0,0,0-2.121,0l-7.358,7.358q-.4-.175-.8-.334v-10.4a1.5,1.5,0,0,0-1.5-1.5H116.758a1.5,1.5,0,0,0-1.5,1.5v10.4c-.265.106-.53.218-.8.334l-7.359-7.358a1.5,1.5,0,0,0-2.121,0l-15.9,15.9a1.5,1.5,0,0,0,0,2.121l7.358,7.359c-.117.27-.229.535-.335.8H85.7a1.5,1.5,0,0,0-1.5,1.5v22.485a1.5,1.5,0,0,0,1.5,1.5H96.1q.16.395.334.8l-7.357,7.359a1.5,1.5,0,0,0,0,2.121l15.9,15.9a1.5,1.5,0,0,0,2.121,0l7.359-7.358c.269.117.534.228.8.334v10.4a1.5,1.5,0,0,0,1.5,1.5h22.484a1.5,1.5,0,0,0,1.5-1.5v-10.4q.4-.16.8-.334L148.9,188.6a1.5,1.5,0,0,0,2.121,0l15.9-15.9a1.5,1.5,0,0,0,0-2.121l-7.357-7.359q.174-.4.334-.8h10.4a1.5,1.5,0,0,0,1.5-1.5V138.44A1.5,1.5,0,0,0,170.3,136.94Zm-1.5,22.485h-9.935a1.5,1.5,0,0,0-1.409.987c-.294.807-.636,1.626-1.046,2.507a1.5,1.5,0,0,0,.3,1.694l7.029,7.03-13.777,13.778-7.03-7.03a1.5,1.5,0,0,0-1.694-.3c-.875.408-1.7.75-2.508,1.046a1.5,1.5,0,0,0-.986,1.409v9.934H118.258v-9.934a1.5,1.5,0,0,0-.986-1.409c-.815-.3-1.636-.64-2.508-1.046a1.5,1.5,0,0,0-1.694.3l-7.03,7.03L92.262,171.644l7.029-7.03a1.5,1.5,0,0,0,.3-1.694c-.41-.881-.752-1.7-1.046-2.507a1.5,1.5,0,0,0-1.409-.987H87.2V139.94h9.935a1.5,1.5,0,0,0,1.409-.987c.294-.807.637-1.628,1.046-2.508a1.5,1.5,0,0,0-.3-1.694l-7.029-7.03,13.777-13.778,7.03,7.03a1.5,1.5,0,0,0,1.694.3c.872-.406,1.692-.749,2.508-1.046a1.5,1.5,0,0,0,.986-1.409v-9.934h19.484v9.934a1.5,1.5,0,0,0,.986,1.409c.813.3,1.633.639,2.508,1.046a1.5,1.5,0,0,0,1.694-.3l7.03-7.03,13.777,13.778-7.029,7.03a1.5,1.5,0,0,0-.3,1.694c.409.88.752,1.7,1.046,2.508a1.5,1.5,0,0,0,1.409.987H168.8Z" fill="#3f3679"/><path d="M128,133.866a15.817,15.817,0,1,0,15.816,15.817A15.834,15.834,0,0,0,128,133.866Zm0,28.633a12.817,12.817,0,1,1,12.816-12.816A12.831,12.831,0,0,1,128,162.5Z" fill="#3f3679"/></svg>