<svg xmlns="http://www.w3.org/2000/svg" viewBox="0 0 256 256"><title>icons_</title><rect x="18.37" y="34.615" width="219.26" height="151.106" rx="13.665" ry="13.665" fill="#cecece"/><path d="M28.37,172.057V48.28A13.681,13.681,0,0,1,42.035,34.615h-10A13.681,13.681,0,0,0,18.37,48.28V172.057a13.681,13.681,0,0,0,13.665,13.665h10A13.681,13.681,0,0,1,28.37,172.057Z" fill="#afafaf"/><path d="M227.63,172.057V48.28a13.681,13.681,0,0,0-13.665-13.665h10A13.681,13.681,0,0,1,237.63,48.28V172.057a13.681,13.681,0,0,1-13.665,13.665h-10A13.681,13.681,0,0,0,227.63,172.057Z" fill="#e2e2e2"/><rect x="26.779" y="43.024" width="202.442" height="122.288" rx="5.256" ry="5.256" fill="#63bce7"/><path d="M36.779,160.057V48.28a5.271,5.271,0,0,1,5.256-5.256h-10a5.271,5.271,0,0,0-5.256,5.256V160.057a5.271,5.271,0,0,0,5.256,5.256h10A5.271,5.271,0,0,1,36.779,160.057Z" fill="#6377e7"/><path d="M219.221,160.057V48.28a5.271,5.271,0,0,0-5.256-5.256h10a5.271,5.271,0,0,1,5.256,5.256V160.057a5.271,5.271,0,0,1-5.256,5.256h-10A5.271,5.271,0,0,0,219.221,160.057Z" fill="#63e2e7"/><rect x="50.5" y="34.616" width="155" height="121.288" rx="10" ry="10" fill="#f8af23"/><path d="M60.5,145.9V44.616a10,10,0,0,1,10-10h-10a10,10,0,0,0-10,10V145.9a10,10,0,0,0,10,10h10A10,10,0,0,1,60.5,145.9Z" fill="#f87023"/><path d="M195.5,145.9V44.616a10,10,0,0,0-10-10h10a10,10,0,0,1,10,10V145.9a10,10,0,0,1-10,10h-10A10,10,0,0,0,195.5,145.9Z" fill="#f8d323"/><path d="M136.681,64.465a5.171,5.171,0,0,0-6.659,3.02L116.3,103.975a5.17,5.17,0,1,0,9.679,3.639L139.7,71.124A5.17,5.17,0,0,0,136.681,64.465Z" fill="#63bce7"/><path d="M109.639,73.58a5.171,5.171,0,0,0-7.312,0L92.014,83.893a5.17,5.17,0,0,0,0,7.312l10.313,10.313a5.17,5.17,0,1,0,7.312-7.312l-6.657-6.657,6.657-6.657A5.17,5.17,0,0,0,109.639,73.58Z" fill="#63bce7"/><path d="M163.986,83.893,153.673,73.58a5.17,5.17,0,0,0-7.312,7.312l6.657,6.657-6.657,6.657a5.17,5.17,0,0,0,7.312,7.312L163.986,91.2A5.17,5.17,0,0,0,163.986,83.893Z" fill="#63bce7"/><path d="M168.124,53.7c.307.857.655,1.682,1.035,2.5l-7.683,7.683,15.106,15.106,7.683-7.683c.817.38,1.65.728,2.5,1.035V83.209h21.357V72.34c.849-.307,1.682-.655,2.5-1.035l7.683,7.683,15.106-15.106L225.726,56.2c.38-.817.728-1.642,1.035-2.5H237.63V32.343H226.761c-.307-.849-.655-1.682-1.035-2.5l7.683-7.683L218.3,7.055l-7.683,7.691c-.817-.38-1.65-.736-2.5-1.043V2.842H186.764V13.7c-.849.307-1.682.663-2.5,1.043l-7.683-7.691L161.476,22.162l7.683,7.683c-.38.817-.728,1.65-1.035,2.5H157.263V53.7Z" fill="#f46275"/><path d="M216.761,53.7c-.307.857-.655,1.682-1.035,2.5l7.682,7.683L213.3,73.988l5,5,15.106-15.106L225.726,56.2c.38-.817.728-1.642,1.035-2.5Z" fill="#f48875"/><path d="M215.726,29.844c.38.817.728,1.65,1.035,2.5h10c-.307-.849-.655-1.682-1.035-2.5l7.682-7.683L218.3,7.055l-5,5,10.1,10.1Z" fill="#f48875"/><path d="M198.121,72.34V83.209h10v-4.4l-7.5-7.5C199.8,71.685,198.97,72.033,198.121,72.34Z" fill="#f48875"/><path d="M200.62,14.746l7.5-7.509V2.842h-10V13.7C198.97,14.01,199.8,14.366,200.62,14.746Z" fill="#f48875"/><rect x="227.63" y="32.343" width="10" height="21.357" fill="#f48875"/><circle cx="197.447" cy="43.023" r="13.6" fill="#9e9e9e"/><circle cx="128" cy="157.56" r="39.978" fill="#9e9e9e"/><path d="M98.022,157.56A39.976,39.976,0,0,1,133,117.9a39.978,39.978,0,1,0,0,79.311A39.976,39.976,0,0,1,98.022,157.56Z" fill="#707070"/><path d="M109.249,197.538h37.5a44.65,44.65,0,0,1,44.65,44.65v0a0,0,0,0,1,0,0H64.6a0,0,0,0,1,0,0v0A44.65,44.65,0,0,1,109.249,197.538Z" fill="#f8af23"/><path d="M119.249,197.538h-10A44.649,44.649,0,0,0,64.6,242.188h10A44.649,44.649,0,0,1,119.249,197.538Z" fill="#f87023"/><path d="M27.323,251.661h-18a1.5,1.5,0,1,0,0,3h18a1.5,1.5,0,0,0,0-3Z" fill="#3f3679"/><path d="M246.68,251.661h-18a1.5,1.5,0,0,0,0,3h18a1.5,1.5,0,0,0,0-3Z" fill="#3f3679"/><path d="M218.479,251.661H37.521a1.5,1.5,0,0,0,0,3H218.479a1.5,1.5,0,0,0,0-3Z" fill="#3f3679"/><path d="M9.32,243.688H246.68a1.5,1.5,0,0,0,0-3H192.862a46.2,46.2,0,0,0-46.111-44.65h-3.292a41.591,41.591,0,0,0,13.494-8.817h67.013a15.182,15.182,0,0,0,15.164-15.165V53.7h0V32.343a1.5,1.5,0,0,0-1.5-1.5H227.8q-.135-.33-.279-.667l6.955-6.955a1.5,1.5,0,0,0,0-2.121L219.369,6a1.544,1.544,0,0,0-2.121,0l-6.954,6.955c-.225-.1-.446-.19-.667-.279V2.839a1.5,1.5,0,0,0-1.5-1.5h-21.36a1.5,1.5,0,0,0-1.5,1.5v9.832c-.221.089-.442.182-.667.279L177.645,6a1.5,1.5,0,0,0-2.121,0l-15.1,15.1a1.5,1.5,0,0,0,0,2.121l6.954,6.954c-.1.224-.189.446-.278.667h-9.833a1.5,1.5,0,0,0-1.5,1.5v.772H32.035A15.182,15.182,0,0,0,16.87,48.28V172.057a15.182,15.182,0,0,0,15.165,15.165H99.047a41.592,41.592,0,0,0,13.494,8.817H109.25a46.2,46.2,0,0,0-46.111,44.65H9.32a1.5,1.5,0,1,0,0,3Zm214.646-59.467H159.741a41.366,41.366,0,0,0,8.683-17.409h55.541a6.763,6.763,0,0,0,6.755-6.755V68.7l3.753-3.753a1.5,1.5,0,0,0,0-2.121l-3.753-3.753V55.2h5.409V172.057A12.178,12.178,0,0,1,223.966,184.221ZM60.5,157.4H86.526c0,.052,0,.1,0,.157a41.628,41.628,0,0,0,.472,6.251H32.035a3.76,3.76,0,0,1-3.756-3.755V48.28a3.76,3.76,0,0,1,3.756-3.755H49c0,.031,0,.061,0,.091V145.9A11.513,11.513,0,0,0,60.5,157.4Zm26.154-3H60.5a8.51,8.51,0,0,1-8.5-8.5V44.616a8.51,8.51,0,0,1,8.5-8.5h95.263V53.7a1.5,1.5,0,0,0,1.5,1.5H167.1q.135.332.279.667l-6.955,6.955a1.5,1.5,0,0,0,0,2.121l15.1,15.1a1.5,1.5,0,0,0,2.121,0L184.6,73.1c.225.1.446.189.667.279v9.833a1.5,1.5,0,0,0,1.5,1.5H204v61.2a8.51,8.51,0,0,1-8.5,8.5H169.345a41.465,41.465,0,0,0-82.691,0Zm82.819,3H195.5A11.513,11.513,0,0,0,207,145.9v-61.2h1.127a1.5,1.5,0,0,0,1.5-1.5V73.374c.221-.089.442-.182.667-.279l6.954,6.954a1.5,1.5,0,0,0,2.121,0l8.352-8.351v88.358a3.759,3.759,0,0,1-3.755,3.755h-54.96a41.628,41.628,0,0,0,.472-6.251C169.478,157.508,169.474,157.456,169.474,157.4ZM227.721,56.072l-.2-.2c.07-.163.136-.323.2-.483ZM158.763,33.843h9.362a1.5,1.5,0,0,0,1.409-.986c.284-.779.608-1.556.991-2.375a1.5,1.5,0,0,0-.3-1.7L163.6,22.161,176.584,9.178,183.21,15.8a1.5,1.5,0,0,0,1.694.3c.831-.387,1.607-.711,2.375-.991a1.5,1.5,0,0,0,.987-1.41V4.339h18.36V13.7a1.5,1.5,0,0,0,.987,1.41c.768.279,1.544.6,2.375.991a1.5,1.5,0,0,0,1.694-.3l6.625-6.625,12.983,12.982-6.626,6.625a1.5,1.5,0,0,0-.3,1.695c.388.832.712,1.608.991,2.375a1.5,1.5,0,0,0,1.409.987h9.362V52.2h-9.362a1.5,1.5,0,0,0-1.409.987c-.279.768-.6,1.544-.991,2.375a1.5,1.5,0,0,0,.3,1.695l6.626,6.625L218.309,76.868l-6.625-6.625a1.5,1.5,0,0,0-1.694-.3c-.826.385-1.6.709-2.376.991a1.5,1.5,0,0,0-.986,1.409v9.362h-18.36V72.344a1.5,1.5,0,0,0-.986-1.409c-.772-.282-1.55-.606-2.376-.991a1.5,1.5,0,0,0-1.694.3l-6.626,6.625L163.6,63.885l6.626-6.625a1.5,1.5,0,0,0,.3-1.7c-.377-.807-.711-1.606-.991-2.375a1.5,1.5,0,0,0-1.409-.986h-9.362ZM19.87,172.057V48.28A12.179,12.179,0,0,1,32.035,36.115H52.782a11.5,11.5,0,0,0-3.348,5.409h-17.4a6.763,6.763,0,0,0-6.756,6.755V160.057a6.763,6.763,0,0,0,6.756,6.755h55.54a41.366,41.366,0,0,0,8.684,17.409H32.035A12.178,12.178,0,0,1,19.87,172.057Zm69.652-14.5A38.478,38.478,0,1,1,128,196.038,38.522,38.522,0,0,1,89.522,157.561Zm-23.4,83.127a43.2,43.2,0,0,1,43.124-41.649h37.5a43.2,43.2,0,0,1,43.124,41.65Z" fill="#3f3679"/><path d="M118.792,112.038a6.666,6.666,0,0,0,8.59-3.9l13.724-36.491a6.68,6.68,0,0,0-3.9-8.59h0a6.681,6.681,0,0,0-8.589,3.9L114.9,103.447A6.678,6.678,0,0,0,118.792,112.038ZM117.7,104.5l13.724-36.49A3.67,3.67,0,1,1,138.3,70.6l-13.723,36.49A3.67,3.67,0,1,1,117.7,104.5Z" fill="#3f3679"/><path d="M105.983,104.532A6.67,6.67,0,0,0,110.7,93.146l-5.6-5.6,5.6-5.6a6.677,6.677,0,0,0,0-9.433h0a6.68,6.68,0,0,0-9.433,0L90.954,82.833a6.677,6.677,0,0,0,0,9.433l10.313,10.313A6.629,6.629,0,0,0,105.983,104.532ZM93.075,84.954l10.313-10.312a3.67,3.67,0,0,1,5.191,5.19l-6.657,6.657a1.5,1.5,0,0,0,0,2.121l6.657,6.657a3.675,3.675,0,0,1,0,5.19,3.759,3.759,0,0,1-5.191,0L93.075,90.145A3.675,3.675,0,0,1,93.075,84.954Z" fill="#3f3679"/><path d="M143.347,97.862a6.67,6.67,0,0,0,11.387,4.717l10.313-10.313a6.67,6.67,0,0,0,0-9.434h0L154.733,72.519a6.67,6.67,0,1,0-9.433,9.434l5.6,5.6-5.6,5.6A6.626,6.626,0,0,0,143.347,97.862Zm4.075-2.6,6.656-6.657a1.5,1.5,0,0,0,0-2.121l-6.656-6.657a3.67,3.67,0,0,1,5.19-5.191l10.313,10.313a3.67,3.67,0,0,1,0,5.191l-10.312,10.312a3.759,3.759,0,0,1-5.19,0,3.67,3.67,0,0,1,0-5.191Z" fill="#3f3679"/><path d="M197.446,58.124a15.1,15.1,0,1,0-15.1-15.1A15.118,15.118,0,0,0,197.446,58.124Zm0-27.2a12.1,12.1,0,1,1-12.1,12.1A12.115,12.115,0,0,1,197.446,30.922Z" fill="#3f3679"/></svg>