<svg xmlns="http://www.w3.org/2000/svg" viewBox="0 0 256 256"><title>icons_</title><rect x="18.37" y="48.543" width="219.26" height="151.106" rx="13.665" ry="13.665" fill="#cecece"/><path d="M28.37,185.984V62.208A13.681,13.681,0,0,1,42.035,48.543h-10A13.681,13.681,0,0,0,18.37,62.208V185.984a13.681,13.681,0,0,0,13.665,13.665h10A13.681,13.681,0,0,1,28.37,185.984Z" fill="#afafaf"/><path d="M227.63,185.984V62.208a13.681,13.681,0,0,0-13.665-13.665h10A13.681,13.681,0,0,1,237.63,62.208V185.984a13.681,13.681,0,0,1-13.665,13.665h-10A13.681,13.681,0,0,0,227.63,185.984Z" fill="#e2e2e2"/><rect x="26.779" y="56.952" width="202.442" height="122.288" rx="5.256" ry="5.256" fill="#63bce7"/><path d="M36.779,173.984V62.208a5.271,5.271,0,0,1,5.256-5.256h-10a5.271,5.271,0,0,0-5.256,5.256V173.984a5.271,5.271,0,0,0,5.256,5.256h10A5.271,5.271,0,0,1,36.779,173.984Z" fill="#6377e7"/><path d="M219.221,173.984V62.208a5.271,5.271,0,0,0-5.256-5.256h10a5.271,5.271,0,0,1,5.256,5.256V173.984a5.271,5.271,0,0,1-5.256,5.256h-10A5.271,5.271,0,0,0,219.221,173.984Z" fill="#63e2e7"/><rect x="89.809" y="221.807" width="76.383" height="9.197" fill="#9e9e9e"/><rect x="89.809" y="221.807" width="10" height="9.197" fill="#707070"/><rect x="100.67" y="199.649" width="54.659" height="22.158" fill="#cecece"/><rect x="100.67" y="199.649" width="10" height="22.158" fill="#afafaf"/><circle cx="128" cy="189.445" r="4.5" fill="#9e9e9e"/><circle cx="128" cy="77.439" r="63.417" fill="#f8af23"/><path d="M74.583,77.439A63.408,63.408,0,0,1,133,14.237c-1.651-.129-3.315-.215-5-.215a63.417,63.417,0,0,0,0,126.833c1.685,0,3.349-.086,5-.215A63.408,63.408,0,0,1,74.583,77.439Z" fill="#f87023"/><path d="M181.417,77.439A63.408,63.408,0,0,0,123,14.237c1.651-.129,3.315-.215,5-.215a63.417,63.417,0,0,1,0,126.833c-1.685,0-3.349-.086-5-.215A63.408,63.408,0,0,0,181.417,77.439Z" fill="#f8d323"/><path d="M139.552,77.44,162.1,53.3a8.442,8.442,0,0,0-12.338-11.526L128,65.074l-21.764-23.3A8.442,8.442,0,0,0,93.9,53.3L116.448,77.44,93.9,101.577A8.442,8.442,0,1,0,106.236,113.1L128,89.806l21.764,23.3A8.442,8.442,0,1,0,162.1,101.577Z" fill="#f46275"/><path d="M128,195.444a6,6,0,1,0-6-6A6.007,6.007,0,0,0,128,195.444Zm0-9a3,3,0,1,1-3,3A3,3,0,0,1,128,186.444Z" fill="#3f3679"/><path d="M27.323,240.478h-18a1.5,1.5,0,0,0,0,3h18a1.5,1.5,0,0,0,0-3Z" fill="#3f3679"/><path d="M246.68,240.478h-18a1.5,1.5,0,1,0,0,3h18a1.5,1.5,0,0,0,0-3Z" fill="#3f3679"/><path d="M218.479,240.478H37.521a1.5,1.5,0,1,0,0,3H218.479a1.5,1.5,0,1,0,0-3Z" fill="#3f3679"/><path d="M9.32,232.5H246.68a1.5,1.5,0,0,0,0-3H167.691v-7.7a1.5,1.5,0,0,0-1.5-1.5h-9.362V201.149h67.137a15.182,15.182,0,0,0,15.164-15.165V62.208a15.182,15.182,0,0,0-15.164-15.165H185.338a64.879,64.879,0,0,0-114.676,0H32.034A15.182,15.182,0,0,0,16.87,62.208V185.984a15.182,15.182,0,0,0,15.164,15.165H99.171v19.158H89.809a1.5,1.5,0,0,0-1.5,1.5v7.7H9.32a1.5,1.5,0,0,0,0,3ZM128,15.522A61.917,61.917,0,1,1,66.083,77.439,61.986,61.986,0,0,1,128,15.522Zm62.078,42.93h33.888a3.759,3.759,0,0,1,3.755,3.755V173.984a3.759,3.759,0,0,1-3.755,3.755H32.034a3.759,3.759,0,0,1-3.755-3.755V62.208a3.759,3.759,0,0,1,3.755-3.755H65.922a64.917,64.917,0,1,0,124.156,0ZM19.87,185.984V62.208A12.178,12.178,0,0,1,32.034,50.043H69.167c-.824,1.763-1.578,3.565-2.244,5.409H32.034a6.763,6.763,0,0,0-6.755,6.755V173.984a6.763,6.763,0,0,0,6.755,6.755H223.966a6.763,6.763,0,0,0,6.755-6.755V62.208a6.763,6.763,0,0,0-6.755-6.755H189.077c-.666-1.844-1.419-3.646-2.244-5.409h37.133A12.178,12.178,0,0,1,236.13,62.208V185.984a12.178,12.178,0,0,1-12.164,12.165H32.034A12.178,12.178,0,0,1,19.87,185.984Zm82.3,15.165h51.658v19.158H102.171ZM91.309,223.307h73.383v6.2H91.309Z" fill="#3f3679"/><path d="M90.131,107.679a9.942,9.942,0,0,0,17.2,6.448L128,92l20.668,22.124a9.941,9.941,0,0,0,14.051.479,9.94,9.94,0,0,0,.479-14.052L141.605,77.44,163.2,54.327a9.941,9.941,0,1,0-14.529-13.573L128,62.877,107.332,40.753A9.942,9.942,0,1,0,92.8,54.327L114.395,77.44,92.8,100.554A9.876,9.876,0,0,0,90.131,107.679Zm4.863-5.077,22.549-24.138a1.5,1.5,0,0,0,0-2.048L94.994,52.279A6.942,6.942,0,1,1,105.141,42.8L126.9,66.1a1.545,1.545,0,0,0,2.191,0L150.86,42.8a6.942,6.942,0,0,1,10.146,9.479L138.457,76.416a1.5,1.5,0,0,0,0,2.048L161.006,102.6a6.942,6.942,0,0,1-10.146,9.478L129.1,88.782a1.5,1.5,0,0,0-2.191,0l-21.765,23.3A6.942,6.942,0,0,1,94.994,102.6Z" fill="#3f3679"/></svg>