<svg xmlns="http://www.w3.org/2000/svg" viewBox="0 0 256 256"><title>icons_</title><rect x="16.327" y="12.544" width="223.345" height="191.333" rx="15.327" ry="15.327" fill="#cecece"/><path d="M26.327,188.55V27.871A15.327,15.327,0,0,1,41.655,12.544h-10A15.327,15.327,0,0,0,16.327,27.871V188.55a15.327,15.327,0,0,0,15.327,15.327h10A15.327,15.327,0,0,1,26.327,188.55Z" fill="#afafaf"/><path d="M229.673,188.55V27.871a15.327,15.327,0,0,0-15.327-15.327h10a15.327,15.327,0,0,1,15.327,15.327V188.55a15.327,15.327,0,0,1-15.327,15.327h-10A15.327,15.327,0,0,0,229.673,188.55Z" fill="#e2e2e2"/><path d="M239.673,27.871a15.327,15.327,0,0,0-15.327-15.327H31.655A15.327,15.327,0,0,0,16.327,27.871V54.544H239.673Z" fill="#f8af23"/><path d="M41.655,12.544h-10A15.327,15.327,0,0,0,16.327,27.871V54.544h10V27.871A15.327,15.327,0,0,1,41.655,12.544Z" fill="#f87023"/><path d="M214.345,12.544h10a15.327,15.327,0,0,1,15.327,15.327V54.544h-10V27.871A15.327,15.327,0,0,0,214.345,12.544Z" fill="#f8d323"/><circle cx="43.688" cy="33.544" r="7" fill="#f46275"/><circle cx="70.65" cy="33.544" r="7" fill="#f46275"/><circle cx="97.612" cy="33.544" r="7" fill="#f46275"/><rect x="120.073" y="28.669" width="99.24" height="10.667" rx="5.333" ry="5.333" fill="#f46275"/><circle cx="128" cy="154.126" r="26.126" fill="#9e9e9e"/><path d="M120.474,180.252h15.053a30.833,30.833,0,0,1,30.833,30.833v21.4a0,0,0,0,1,0,0H89.64a0,0,0,0,1,0,0v-21.4A30.833,30.833,0,0,1,120.474,180.252Z" fill="#63bce7"/><path d="M215.906,76.667H162.24a5,5,0,0,0-5,5V125.2a3.457,3.457,0,0,0,5.249,2.957L174.29,121h41.617a5,5,0,0,0,5-5V81.667A5,5,0,0,0,215.906,76.667Z" fill="#f46275"/><rect x="35.094" y="72" width="52" height="16" fill="#f8af23"/><rect x="35.094" y="100.211" width="52" height="16" fill="#f8af23"/><rect x="35.094" y="128.422" width="52" height="16" fill="#f8af23"/><rect x="35.094" y="156.632" width="52" height="16" fill="#f8af23"/><path d="M27.323,241.956h-18a1.5,1.5,0,1,0,0,3h18a1.5,1.5,0,1,0,0-3Z" fill="#3f3679"/><path d="M246.68,241.956h-18a1.5,1.5,0,0,0,0,3h18a1.5,1.5,0,0,0,0-3Z" fill="#3f3679"/><path d="M218.479,241.956H37.521a1.5,1.5,0,0,0,0,3H218.479a1.5,1.5,0,0,0,0-3Z" fill="#3f3679"/><path d="M9.32,233.983H246.68a1.5,1.5,0,0,0,0-3H167.86v-19.9a32.358,32.358,0,0,0-.515-5.707h57a16.846,16.846,0,0,0,16.827-16.827V27.871a16.846,16.846,0,0,0-16.827-16.827H31.655A16.846,16.846,0,0,0,14.828,27.871v160.68a16.846,16.846,0,0,0,16.827,16.827h57a32.358,32.358,0,0,0-.515,5.707v19.9H9.32a1.5,1.5,0,1,0,0,3ZM17.828,27.871A13.843,13.843,0,0,1,31.655,14.044h192.69a13.843,13.843,0,0,1,13.827,13.827V53.044H17.828ZM31.655,202.378a13.843,13.843,0,0,1-13.827-13.827V56.044H238.172V188.551a13.843,13.843,0,0,1-13.827,13.827H166.659A32.413,32.413,0,0,0,139.9,179.055a27.626,27.626,0,1,0-23.792,0,32.413,32.413,0,0,0-26.763,23.323Zm71.719-48.252A24.626,24.626,0,1,1,128,178.752,24.654,24.654,0,0,1,103.374,154.126ZM91.14,211.085a29.367,29.367,0,0,1,29.333-29.333h15.053a29.367,29.367,0,0,1,29.333,29.333v19.9H91.14Z" fill="#3f3679"/><path d="M43.688,25.044a8.5,8.5,0,1,0,8.5,8.5A8.51,8.51,0,0,0,43.688,25.044Zm0,14a5.5,5.5,0,1,1,5.5-5.5A5.507,5.507,0,0,1,43.688,39.044Z" fill="#3f3679"/><path d="M70.65,25.044a8.5,8.5,0,1,0,8.5,8.5A8.51,8.51,0,0,0,70.65,25.044Zm0,14a5.5,5.5,0,1,1,5.5-5.5A5.507,5.507,0,0,1,70.65,39.044Z" fill="#3f3679"/><path d="M97.612,25.044a8.5,8.5,0,1,0,8.5,8.5A8.51,8.51,0,0,0,97.612,25.044Zm0,14a5.5,5.5,0,1,1,5.5-5.5A5.507,5.507,0,0,1,97.612,39.044Z" fill="#3f3679"/><path d="M213.979,27.169H125.406a6.833,6.833,0,1,0,0,13.667h88.573a6.833,6.833,0,0,0,0-13.667Zm0,10.667H125.406a3.833,3.833,0,1,1,0-7.667h88.573a3.833,3.833,0,1,1,0,7.667Z" fill="#3f3679"/><path d="M158.264,129.515a4.9,4.9,0,0,0,5-.079l11.442-6.936h41.2a6.508,6.508,0,0,0,6.5-6.5V81.666a6.508,6.508,0,0,0-6.5-6.5H162.24a6.508,6.508,0,0,0-6.5,6.5V125.2A4.9,4.9,0,0,0,158.264,129.515Zm.476-47.849a3.5,3.5,0,0,1,3.5-3.5h53.667a3.5,3.5,0,0,1,3.5,3.5V116a3.5,3.5,0,0,1-3.5,3.5H174.29a1.5,1.5,0,0,0-.777.217l-11.8,7.152a1.957,1.957,0,0,1-2.972-1.674Z" fill="#3f3679"/><path d="M87.094,70.5h-52a1.5,1.5,0,0,0-1.5,1.5V88a1.5,1.5,0,0,0,1.5,1.5h52a1.5,1.5,0,0,0,1.5-1.5V72A1.5,1.5,0,0,0,87.094,70.5Zm-1.5,16h-49v-13h49Z" fill="#3f3679"/><path d="M87.094,98.711h-52a1.5,1.5,0,0,0-1.5,1.5v16a1.5,1.5,0,0,0,1.5,1.5h52a1.5,1.5,0,0,0,1.5-1.5v-16A1.5,1.5,0,0,0,87.094,98.711Zm-1.5,16h-49v-13h49Z" fill="#3f3679"/><path d="M87.094,126.922h-52a1.5,1.5,0,0,0-1.5,1.5v16a1.5,1.5,0,0,0,1.5,1.5h52a1.5,1.5,0,0,0,1.5-1.5v-16A1.5,1.5,0,0,0,87.094,126.922Zm-1.5,16h-49v-13h49Z" fill="#3f3679"/><path d="M87.094,155.133h-52a1.5,1.5,0,0,0-1.5,1.5v16a1.5,1.5,0,0,0,1.5,1.5h52a1.5,1.5,0,0,0,1.5-1.5v-16A1.5,1.5,0,0,0,87.094,155.133Zm-1.5,16h-49v-13h49Z" fill="#3f3679"/><path d="M170.99,92.729h36.167a1.5,1.5,0,0,0,0-3H170.99a1.5,1.5,0,0,0,0,3Z" fill="#3f3679"/><path d="M170.99,100.229h36.167a1.5,1.5,0,0,0,0-3H170.99a1.5,1.5,0,0,0,0,3Z" fill="#3f3679"/><path d="M170.99,107.729h36.167a1.5,1.5,0,0,0,0-3H170.99a1.5,1.5,0,0,0,0,3Z" fill="#3f3679"/></svg>