<svg xmlns="http://www.w3.org/2000/svg" viewBox="0 0 256 256"><title>icons_</title><rect x="75.578" y="22.607" width="104.843" height="100.451" rx="5.92" ry="5.92" fill="#cecece"/><path d="M85.578,117.138V28.527a5.937,5.937,0,0,1,5.92-5.92h-10a5.937,5.937,0,0,0-5.92,5.92v88.611a5.937,5.937,0,0,0,5.92,5.92h10A5.937,5.937,0,0,1,85.578,117.138Z" fill="#afafaf"/><path d="M170.422,117.138V28.527a5.937,5.937,0,0,0-5.92-5.92h10a5.937,5.937,0,0,1,5.92,5.92v88.611a5.937,5.937,0,0,1-5.92,5.92h-10A5.937,5.937,0,0,0,170.422,117.138Z" fill="#e2e2e2"/><path d="M180.422,28.531a5.941,5.941,0,0,0-5.924-5.924h-93a5.941,5.941,0,0,0-5.924,5.924V42.154H180.422Z" fill="#f8af23"/><path d="M91.5,22.607h-10a5.941,5.941,0,0,0-5.924,5.924V42.154h10V28.531A5.941,5.941,0,0,1,91.5,22.607Z" fill="#f87023"/><path d="M164.5,22.607h10a5.941,5.941,0,0,1,5.924,5.924V42.154h-10V28.531A5.941,5.941,0,0,0,164.5,22.607Z" fill="#f8d323"/><circle cx="87.883" cy="32.381" r="4.088" fill="#f46275"/><circle cx="100.411" cy="32.381" r="4.088" fill="#f46275"/><circle cx="112.94" cy="32.381" r="4.088" fill="#f46275"/><rect x="94" y="174.374" width="68" height="48.045" rx="5" ry="5" fill="#63bce7"/><path d="M135.895,61.612a4.7,4.7,0,0,0-6.056,2.746l-12.48,33.186a4.7,4.7,0,1,0,8.8,3.31l12.48-33.186A4.7,4.7,0,0,0,135.895,61.612Z" fill="#3f3679"/><path d="M111.3,69.9a4.7,4.7,0,0,0-6.65,0l-9.379,9.379a4.7,4.7,0,0,0,0,6.65l9.379,9.379a4.7,4.7,0,0,0,6.65-6.65l-6.054-6.054,6.054-6.054A4.7,4.7,0,0,0,111.3,69.9Z" fill="#3f3679"/><path d="M160.727,79.281,151.348,69.9a4.7,4.7,0,1,0-6.65,6.65l6.054,6.054L144.7,88.66a4.7,4.7,0,0,0,6.65,6.65l9.379-9.379A4.7,4.7,0,0,0,160.727,79.281Z" fill="#3f3679"/><rect x="16.756" y="174.374" width="68" height="48.045" rx="5" ry="5" fill="#63bce7"/><path d="M26.756,217.42V179.374a5,5,0,0,1,5-5h-10a5,5,0,0,0-5,5V217.42a5,5,0,0,0,5,5h10A5,5,0,0,1,26.756,217.42Z" fill="#6377e7"/><rect x="171.244" y="174.374" width="68" height="48.045" rx="5" ry="5" fill="#63bce7"/><path d="M229.244,217.42V179.374a5,5,0,0,0-5-5h10a5,5,0,0,1,5,5V217.42a5,5,0,0,1-5,5h-10A5,5,0,0,0,229.244,217.42Z" fill="#63e2e7"/><path d="M87.883,37.968A5.588,5.588,0,1,0,82.3,32.381,5.594,5.594,0,0,0,87.883,37.968Zm0-8.175A2.588,2.588,0,1,1,85.3,32.381,2.591,2.591,0,0,1,87.883,29.793Z" fill="#3f3679"/><path d="M100.411,37.968a5.588,5.588,0,1,0-5.587-5.587A5.594,5.594,0,0,0,100.411,37.968Zm0-8.175a2.588,2.588,0,1,1-2.587,2.588A2.591,2.591,0,0,1,100.411,29.793Z" fill="#3f3679"/><path d="M112.94,37.968a5.588,5.588,0,1,0-5.588-5.587A5.594,5.594,0,0,0,112.94,37.968Zm0-8.175a2.588,2.588,0,1,1-2.588,2.588A2.591,2.591,0,0,1,112.94,29.793Z" fill="#3f3679"/><path d="M148.367,33.881h18.667a1.5,1.5,0,1,0,0-3H148.367a1.5,1.5,0,0,0,0,3Z" fill="#3f3679"/><path d="M105.489,193.686a1.5,1.5,0,0,0,2.121,0l5.333-5.333a1.5,1.5,0,0,0,0-2.121L107.61,180.9a1.5,1.5,0,1,0-2.121,2.121l4.272,4.273-4.272,4.272A1.5,1.5,0,0,0,105.489,193.686Z" fill="#3f3679"/><path d="M149.45,191.125H114.325a1.5,1.5,0,0,0,0,3H149.45a1.5,1.5,0,1,0,0-3Z" fill="#3f3679"/><path d="M106.55,200.821h23.775a1.5,1.5,0,0,0,0-3H106.55a1.5,1.5,0,0,0,0,3Z" fill="#3f3679"/><path d="M106.55,207.516H119.2a1.5,1.5,0,0,0,0-3H106.55a1.5,1.5,0,0,0,0,3Z" fill="#3f3679"/><path d="M149.45,211.212h-42.9a1.5,1.5,0,1,0,0,3h42.9a1.5,1.5,0,0,0,0-3Z" fill="#3f3679"/><path d="M149.45,197.821h-8.625a1.5,1.5,0,0,0,0,3h8.625a1.5,1.5,0,0,0,0-3Z" fill="#3f3679"/><path d="M149.45,204.516H127.332a1.5,1.5,0,1,0,0,3H149.45a1.5,1.5,0,0,0,0-3Z" fill="#3f3679"/><path d="M28.246,193.686a1.5,1.5,0,0,0,2.121,0l5.333-5.333a1.5,1.5,0,0,0,0-2.121L30.367,180.9a1.5,1.5,0,1,0-2.121,2.121l4.272,4.273-4.272,4.272A1.5,1.5,0,0,0,28.246,193.686Z" fill="#3f3679"/><path d="M72.207,191.125H37.082a1.5,1.5,0,1,0,0,3H72.207a1.5,1.5,0,0,0,0-3Z" fill="#3f3679"/><path d="M29.306,200.821H53.082a1.5,1.5,0,1,0,0-3H29.306a1.5,1.5,0,0,0,0,3Z" fill="#3f3679"/><path d="M29.306,207.516h12.65a1.5,1.5,0,1,0,0-3H29.306a1.5,1.5,0,0,0,0,3Z" fill="#3f3679"/><path d="M72.207,211.212h-42.9a1.5,1.5,0,0,0,0,3h42.9a1.5,1.5,0,0,0,0-3Z" fill="#3f3679"/><path d="M72.207,197.821H63.582a1.5,1.5,0,0,0,0,3h8.625a1.5,1.5,0,1,0,0-3Z" fill="#3f3679"/><path d="M72.207,204.516H50.088a1.5,1.5,0,1,0,0,3H72.207a1.5,1.5,0,1,0,0-3Z" fill="#3f3679"/><path d="M182.732,193.686a1.5,1.5,0,0,0,2.121,0l5.334-5.333a1.5,1.5,0,0,0,0-2.121l-5.334-5.333a1.5,1.5,0,1,0-2.121,2.121l4.273,4.273-4.273,4.272A1.5,1.5,0,0,0,182.732,193.686Z" fill="#3f3679"/><path d="M190.068,192.625a1.5,1.5,0,0,0,1.5,1.5h35.125a1.5,1.5,0,0,0,0-3H191.568A1.5,1.5,0,0,0,190.068,192.625Z" fill="#3f3679"/><path d="M183.793,200.821h23.775a1.5,1.5,0,0,0,0-3H183.793a1.5,1.5,0,0,0,0,3Z" fill="#3f3679"/><path d="M183.793,207.516h12.65a1.5,1.5,0,0,0,0-3h-12.65a1.5,1.5,0,0,0,0,3Z" fill="#3f3679"/><path d="M183.793,214.212h42.9a1.5,1.5,0,1,0,0-3h-42.9a1.5,1.5,0,1,0,0,3Z" fill="#3f3679"/><path d="M226.693,197.821h-8.625a1.5,1.5,0,0,0,0,3h8.625a1.5,1.5,0,0,0,0-3Z" fill="#3f3679"/><path d="M226.693,204.516H204.575a1.5,1.5,0,0,0,0,3h22.118a1.5,1.5,0,0,0,0-3Z" fill="#3f3679"/><path d="M27.323,231.893h-18a1.5,1.5,0,1,0,0,3h18a1.5,1.5,0,1,0,0-3Z" fill="#3f3679"/><path d="M246.68,231.893h-18a1.5,1.5,0,0,0,0,3h18a1.5,1.5,0,0,0,0-3Z" fill="#3f3679"/><path d="M218.479,231.893H37.521a1.5,1.5,0,0,0,0,3H218.479a1.5,1.5,0,0,0,0-3Z" fill="#3f3679"/><path d="M9.32,223.92H246.68a1.5,1.5,0,0,0,0-3h-6.968a6.455,6.455,0,0,0,1.032-3.5V179.375a6.508,6.508,0,0,0-6.5-6.5h-27.5V79.9a6.508,6.508,0,0,0-6.5-6.5H181.922V28.527a7.428,7.428,0,0,0-7.42-7.42h-93a7.428,7.428,0,0,0-7.42,7.42V73.4H55.756a6.508,6.508,0,0,0-6.5,6.5v92.971h-27.5a6.508,6.508,0,0,0-6.5,6.5V217.42a6.455,6.455,0,0,0,1.032,3.5H9.32a1.5,1.5,0,1,0,0,3Zm76.937-6.5V199.9H92.5V217.42a6.455,6.455,0,0,0,1.032,3.5H85.225A6.455,6.455,0,0,0,86.256,217.42ZM99,220.92a3.5,3.5,0,0,1-3.5-3.5V179.375a3.5,3.5,0,0,1,3.5-3.5h58a3.5,3.5,0,0,1,3.5,3.5V217.42a3.5,3.5,0,0,1-3.5,3.5Zm71.775,0h-8.306a6.455,6.455,0,0,0,1.032-3.5V199.9h6.243V217.42A6.455,6.455,0,0,0,170.775,220.92Zm66.968-41.545V217.42a3.5,3.5,0,0,1-3.5,3.5h-58a3.5,3.5,0,0,1-3.5-3.5V179.375a3.5,3.5,0,0,1,3.5-3.5h58A3.5,3.5,0,0,1,237.743,179.375ZM200.243,76.4a3.5,3.5,0,0,1,3.5,3.5v92.971h-27.5a6.508,6.508,0,0,0-6.5,6.5V196.9H163.5V179.375a6.508,6.508,0,0,0-6.5-6.5H129.5V124.558h45a7.428,7.428,0,0,0,7.42-7.42V76.4ZM77.079,43.654H178.922v73.484a4.425,4.425,0,0,1-4.42,4.42h-93a4.425,4.425,0,0,1-4.42-4.42ZM174.5,24.107a4.429,4.429,0,0,1,4.424,4.424V40.654H77.079V28.531A4.429,4.429,0,0,1,81.5,24.107ZM52.256,79.9a3.5,3.5,0,0,1,3.5-3.5H74.079v40.734a7.428,7.428,0,0,0,7.42,7.42h45v48.316H99a6.508,6.508,0,0,0-6.5,6.5V196.9H86.256V179.375a6.508,6.508,0,0,0-6.5-6.5h-27.5Zm-34,137.517V179.375a3.5,3.5,0,0,1,3.5-3.5h58a3.5,3.5,0,0,1,3.5,3.5V217.42a3.5,3.5,0,0,1-3.5,3.5h-58A3.5,3.5,0,0,1,18.256,217.42Z" fill="#3f3679"/></svg>