<svg xmlns="http://www.w3.org/2000/svg" viewBox="0 0 256 256"><title>icons_</title><rect x="18.37" y="31.11" width="219.26" height="151.106" rx="13.665" ry="13.665" fill="#cecece"/><path d="M28.37,168.552V44.775A13.681,13.681,0,0,1,42.035,31.111h-10A13.681,13.681,0,0,0,18.37,44.775V168.552a13.681,13.681,0,0,0,13.665,13.665h10A13.681,13.681,0,0,1,28.37,168.552Z" fill="#afafaf"/><path d="M227.63,168.552V44.775a13.681,13.681,0,0,0-13.665-13.665h10A13.681,13.681,0,0,1,237.63,44.775V168.552a13.681,13.681,0,0,1-13.665,13.665h-10A13.681,13.681,0,0,0,227.63,168.552Z" fill="#e2e2e2"/><rect x="26.779" y="39.519" width="202.442" height="122.288" rx="5.256" ry="5.256" fill="#63bce7"/><path d="M36.779,156.552V44.775a5.271,5.271,0,0,1,5.256-5.256h-10a5.271,5.271,0,0,0-5.256,5.256V156.552a5.271,5.271,0,0,0,5.256,5.256h10A5.271,5.271,0,0,1,36.779,156.552Z" fill="#6377e7"/><path d="M219.221,156.552V44.775a5.271,5.271,0,0,0-5.256-5.256h10a5.271,5.271,0,0,1,5.256,5.256V156.552a5.271,5.271,0,0,1-5.256,5.256h-10A5.271,5.271,0,0,0,219.221,156.552Z" fill="#63e2e7"/><circle cx="128" cy="154.056" r="39.978" fill="#9e9e9e"/><path d="M98.022,154.056A39.976,39.976,0,0,1,133,114.4a39.978,39.978,0,1,0,0,79.311A39.976,39.976,0,0,1,98.022,154.056Z" fill="#707070"/><path d="M109.249,194.033h37.5a44.65,44.65,0,0,1,44.65,44.65v0a0,0,0,0,1,0,0H64.6a0,0,0,0,1,0,0v0a44.65,44.65,0,0,1,44.65-44.65Z" fill="#f8af23"/><path d="M119.249,194.033h-10A44.649,44.649,0,0,0,64.6,238.683h10A44.649,44.649,0,0,1,119.249,194.033Z" fill="#f87023"/><rect x="50.5" y="14.712" width="155" height="85.951" rx="10" ry="10" fill="#f8af23"/><path d="M60.5,90.663V24.712a10,10,0,0,1,10-10h-10a10,10,0,0,0-10,10V90.663a10,10,0,0,0,10,10h10A10,10,0,0,1,60.5,90.663Z" fill="#f87023"/><path d="M195.5,90.663V24.712a10,10,0,0,0-10-10h10a10,10,0,0,1,10,10V90.663a10,10,0,0,1-10,10h-10A10,10,0,0,0,195.5,90.663Z" fill="#f8d323"/><path d="M213.539,7.26a3.126,3.126,0,0,1,0,4.421l-4.613,4.613a3.126,3.126,0,0,1-4.421,0h0a3.126,3.126,0,0,1,0-4.421l4.613-4.613a3.126,3.126,0,0,1,4.421,0Z" fill="#f46275"/><rect x="155.335" y="29.219" width="60.129" height="12.362" transform="translate(29.271 141.466) rotate(-45)" fill="#63bce7"/><rect x="139.357" y="59.791" width="29.036" height="14.266" transform="translate(-2.254 128.408) rotate(-45)" fill="#f46275"/><polygon points="147.98 81.56 135.195 85.605 139.239 72.819 147.98 81.56" fill="#63bce7"/><path d="M27.323,248.156h-18a1.5,1.5,0,1,0,0,3h18a1.5,1.5,0,1,0,0-3Z" fill="#3f3679"/><path d="M246.68,248.156h-18a1.5,1.5,0,0,0,0,3h18a1.5,1.5,0,0,0,0-3Z" fill="#3f3679"/><path d="M218.479,248.156H37.521a1.5,1.5,0,0,0,0,3H218.479a1.5,1.5,0,0,0,0-3Z" fill="#3f3679"/><path d="M9.32,240.183H246.68a1.5,1.5,0,0,0,0-3H192.862a46.2,46.2,0,0,0-46.111-44.65h-3.292a41.59,41.59,0,0,0,13.494-8.817h67.013a15.182,15.182,0,0,0,15.164-15.165V44.775A15.182,15.182,0,0,0,223.966,29.61H207v-4.9c0-.016,0-.031,0-.047l5.094-5.094a1.5,1.5,0,0,0,0-2.121l-1.1-1.1,3.61-3.61A4.626,4.626,0,0,0,208.058,6.2l-3.61,3.61-1.1-1.1a1.544,1.544,0,0,0-2.121,0l-4.582,4.583a1.5,1.5,0,0,0-.256-.046c-.292-.022-.59-.034-.888-.034H60.5A11.513,11.513,0,0,0,49,24.712v4.9H32.034A15.182,15.182,0,0,0,16.87,44.775V168.552a15.182,15.182,0,0,0,15.164,15.165H99.047a41.591,41.591,0,0,0,13.494,8.817h-3.292a46.2,46.2,0,0,0-46.111,44.65H9.32a1.5,1.5,0,0,0,0,3ZM223.966,32.61A12.178,12.178,0,0,1,236.13,44.775V168.552a12.178,12.178,0,0,1-12.164,12.165H159.741a41.367,41.367,0,0,0,8.684-17.409h55.541a6.763,6.763,0,0,0,6.755-6.755V44.775a6.763,6.763,0,0,0-6.755-6.755H207V32.61ZM86.522,154.056a41.628,41.628,0,0,0,.472,6.251H32.034a3.759,3.759,0,0,1-3.755-3.755V44.775a3.759,3.759,0,0,1,3.755-3.755H49V90.664a11.513,11.513,0,0,0,11.5,11.5h135a11.513,11.513,0,0,0,11.5-11.5V41.02h16.966a3.759,3.759,0,0,1,3.755,3.755V156.552a3.759,3.759,0,0,1-3.755,3.755h-54.96a41.479,41.479,0,1,0-82.484-6.251ZM210.179,8.32a1.626,1.626,0,0,1,2.3,2.3l-3.61,3.61-2.3-2.3Zm-7.892,3.571,6.62,6.62-40.4,40.4-6.62-6.62ZM74.55,87.938V59.188H126.5v28.75ZM128,56.188H74.55V27.438h106.9v1.048L159.692,50.245a1.494,1.494,0,0,0-1.656.309L137.5,71.085a1.5,1.5,0,0,0,0,2.121l.03.03-3.77,11.916a1.5,1.5,0,0,0,1.882,1.883l11.917-3.769.029.029a1.5,1.5,0,0,0,2.121,0l20.532-20.532a1.49,1.49,0,0,0,.312-1.659L181.45,50.211V87.938H129.5V57.688A1.5,1.5,0,0,0,128,56.188Zm17.173,24.687L137.5,83.3l2.428-7.677Zm3.48-.763-7.966-7.966,18.41-18.41,7.967,7.966ZM52,24.712a8.51,8.51,0,0,1,8.5-8.5H193.724l-9.332,9.333a1.5,1.5,0,0,0-1.441-1.107H73.05a1.5,1.5,0,0,0-1.5,1.5v63.5a1.5,1.5,0,0,0,1.5,1.5h109.9a1.5,1.5,0,0,0,1.5-1.5v-42.1c0-.038-.008-.073-.011-.111L204,27.661v63a8.51,8.51,0,0,1-8.5,8.5H60.5a8.51,8.51,0,0,1-8.5-8.5ZM19.87,168.552V44.775A12.178,12.178,0,0,1,32.034,32.61H49V38.02H32.034a6.763,6.763,0,0,0-6.755,6.755V156.552a6.763,6.763,0,0,0,6.755,6.755H87.576a41.366,41.366,0,0,0,8.683,17.409H32.034A12.178,12.178,0,0,1,19.87,168.552Zm69.652-14.5A38.478,38.478,0,1,1,128,192.533,38.521,38.521,0,0,1,89.522,154.056Zm19.727,41.478h37.5a43.2,43.2,0,0,1,43.124,41.65H66.125A43.2,43.2,0,0,1,109.249,195.533Z" fill="#3f3679"/><circle cx="73.05" cy="25.938" r="6.292" fill="#3f3679"/><circle cx="128" cy="57.688" r="6.292" fill="#3f3679"/><circle cx="73.05" cy="89.438" r="6.292" fill="#3f3679"/></svg>