<svg xmlns="http://www.w3.org/2000/svg" viewBox="0 0 256 256"><title>icons_</title><rect x="18.37" y="31.514" width="219.26" height="151.106" rx="13.665" ry="13.665" fill="#cecece"/><path d="M28.37,168.955V45.179A13.681,13.681,0,0,1,42.035,31.514h-10A13.681,13.681,0,0,0,18.37,45.179V168.955A13.681,13.681,0,0,0,32.035,182.62h10A13.681,13.681,0,0,1,28.37,168.955Z" fill="#afafaf"/><path d="M227.63,168.955V45.179a13.681,13.681,0,0,0-13.665-13.665h10A13.681,13.681,0,0,1,237.63,45.179V168.955a13.681,13.681,0,0,1-13.665,13.665h-10A13.681,13.681,0,0,0,227.63,168.955Z" fill="#e2e2e2"/><rect x="26.779" y="39.923" width="202.442" height="122.288" rx="5.256" ry="5.256" fill="#63bce7"/><path d="M36.779,156.955V45.178a5.271,5.271,0,0,1,5.256-5.256h-10a5.271,5.271,0,0,0-5.256,5.256V156.955a5.271,5.271,0,0,0,5.256,5.256h10A5.271,5.271,0,0,1,36.779,156.955Z" fill="#6377e7"/><path d="M219.221,156.955V45.178a5.271,5.271,0,0,0-5.256-5.256h10a5.271,5.271,0,0,1,5.256,5.256V156.955a5.271,5.271,0,0,1-5.256,5.256h-10A5.271,5.271,0,0,0,219.221,156.955Z" fill="#63e2e7"/><circle cx="128" cy="154.459" r="39.978" fill="#9e9e9e"/><path d="M98.022,154.459A39.976,39.976,0,0,1,133,114.8a39.978,39.978,0,1,0,0,79.311A39.976,39.976,0,0,1,98.022,154.459Z" fill="#707070"/><path d="M109.249,194.437h37.5a44.65,44.65,0,0,1,44.65,44.65v0a0,0,0,0,1,0,0H64.6a0,0,0,0,1,0,0v0A44.65,44.65,0,0,1,109.249,194.437Z" fill="#f8af23"/><path d="M119.249,194.437h-10A44.649,44.649,0,0,0,64.6,239.086h10A44.649,44.649,0,0,1,119.249,194.437Z" fill="#f87023"/><polygon points="128 45.483 61.061 72.423 128 109.362 194.939 72.423 128 45.483" fill="#f46275"/><polygon points="128 29.233 61.061 56.173 128 93.112 194.939 56.173 128 29.233" fill="#f46275"/><polygon points="128 12.983 61.061 39.923 128 76.862 194.939 39.923 128 12.983" fill="#f46275"/><path d="M108.156,40.36c.208.58.443,1.138.7,1.691l-5.2,5.2L113.88,57.474l5.2-5.2c.553.257,1.116.493,1.691.7V60.33h14.453V52.975c.575-.208,1.138-.443,1.691-.7l5.2,5.2,10.223-10.223-5.2-5.2c.257-.553.493-1.111.7-1.691h7.355V25.907h-7.355c-.208-.575-.443-1.138-.7-1.691l5.2-5.2L142.114,8.794l-5.2,5.2c-.553-.257-1.116-.5-1.691-.706V5.943H120.771v7.35c-.575.208-1.138.449-1.691.706l-5.2-5.2L103.657,19.017l5.2,5.2c-.257.553-.493,1.116-.7,1.691h-7.35V40.36Z" fill="#f8af23"/><path d="M100.806,40.36V25.907h7.35c.208-.575.443-1.138.7-1.691l-5.2-5.2L113.88,8.794l5,5-5.22,5.22,5.2,5.2c-.257.553-.493,1.116-.7,1.691h-7.35V40.36h7.35c.208.58.443,1.138.7,1.691l-5.2,5.2,5.223,5.223-5,5L103.657,47.25l5.2-5.2c-.257-.553-.493-1.111-.7-1.691Z" fill="#f87023"/><circle cx="128" cy="33.135" r="9.204" fill="#9e9e9e"/><path d="M27.323,248.559h-18a1.5,1.5,0,1,0,0,3h18a1.5,1.5,0,0,0,0-3Z" fill="#3f3679"/><path d="M246.68,248.559h-18a1.5,1.5,0,0,0,0,3h18a1.5,1.5,0,0,0,0-3Z" fill="#3f3679"/><path d="M218.479,248.559H37.521a1.5,1.5,0,0,0,0,3H218.479a1.5,1.5,0,0,0,0-3Z" fill="#3f3679"/><path d="M9.32,240.586H246.68a1.5,1.5,0,0,0,0-3H192.862a46.2,46.2,0,0,0-46.111-44.649h-3.292a41.588,41.588,0,0,0,13.494-8.817h67.013a15.182,15.182,0,0,0,15.164-15.165V45.179a15.182,15.182,0,0,0-15.164-15.165H174.336l-22.014-8.859,1.078-1.078a1.5,1.5,0,0,0,0-2.121L143.179,7.734a1.5,1.5,0,0,0-2.121,0l-4.33,4.33V5.941a1.5,1.5,0,0,0-1.5-1.5H120.772a1.5,1.5,0,0,0-1.5,1.5v6.124l-4.33-4.33a1.5,1.5,0,0,0-2.121,0L102.6,17.956a1.5,1.5,0,0,0,0,2.121l1.078,1.078L81.591,30.043a1.509,1.509,0,0,0-.286-.029H32.035A15.182,15.182,0,0,0,16.87,45.179V168.955A15.182,15.182,0,0,0,32.035,184.12H99.047a41.589,41.589,0,0,0,13.494,8.817H109.25a46.2,46.2,0,0,0-46.111,44.649H9.32a1.5,1.5,0,1,0,0,3ZM223.966,33.014A12.178,12.178,0,0,1,236.13,45.179V168.955a12.178,12.178,0,0,1-12.164,12.165H159.741a41.366,41.366,0,0,0,8.683-17.409h55.541a6.763,6.763,0,0,0,6.755-6.756V45.178a6.763,6.763,0,0,0-6.755-6.755H195.231l-13.44-5.409ZM86.522,154.459a41.626,41.626,0,0,0,.472,6.252H32.035a3.76,3.76,0,0,1-3.756-3.756V45.178a3.76,3.76,0,0,1,3.756-3.755h28.64L74.6,49.107,60.5,54.781a1.5,1.5,0,0,0-.165,2.705L74.6,65.357,60.5,71.031a1.5,1.5,0,0,0-.165,2.705l66.939,36.939a1.5,1.5,0,0,0,1.449,0l66.939-36.939a1.5,1.5,0,0,0-.165-2.705l-14.1-5.674,14.264-7.871a1.5,1.5,0,0,0-.165-2.705l-14.1-5.674,13.925-7.684h28.641a3.759,3.759,0,0,1,3.755,3.755V156.955a3.76,3.76,0,0,1-3.755,3.756h-54.96a41.479,41.479,0,1,0-82.484-6.252ZM99.306,26.148V40.362a1.5,1.5,0,0,0,1.5,1.5h6.124l-4.33,4.33a1.5,1.5,0,0,0,0,2.121l10.222,10.221a1.5,1.5,0,0,0,2.121,0l4.33-4.33v6.124a1.5,1.5,0,0,0,1.5,1.5h14.455a1.5,1.5,0,0,0,1.5-1.5V54.2l4.33,4.33a1.5,1.5,0,0,0,2.121,0L153.4,48.313a1.5,1.5,0,0,0,0-2.121l-4.329-4.33h6.123a1.5,1.5,0,0,0,1.5-1.5V26.148L191.45,40.135,128,75.148,64.55,40.135Zm27.969,68.278a1.5,1.5,0,0,0,1.449,0l49.287-27.2,13.438,5.408L128,107.648,64.55,72.635l13.438-5.408ZM128,91.4,64.55,56.385l13.438-5.408,49.287,27.2a1.5,1.5,0,0,0,1.449,0l49.287-27.2,13.438,5.408Zm24.368-66.992h-3.3l.946-.946ZM113.882,10.916l4.141,4.141a1.5,1.5,0,0,0,1.695.3c.545-.254,1.058-.468,1.569-.655a1.5,1.5,0,0,0,.986-1.409V7.441h11.455v5.851a1.5,1.5,0,0,0,.986,1.409c.509.186,1.021.4,1.569.655a1.5,1.5,0,0,0,1.694-.3l4.141-4.141,8.1,8.1-4.141,4.141a1.5,1.5,0,0,0-.3,1.694c.254.547.469,1.06.654,1.57a1.5,1.5,0,0,0,1.409.986h5.852V38.862h-5.852a1.5,1.5,0,0,0-1.409.986c-.187.512-.4,1.025-.654,1.569a1.5,1.5,0,0,0,.3,1.694l4.141,4.141-8.1,8.1-4.141-4.141a1.5,1.5,0,0,0-1.694-.3c-.548.255-1.061.469-1.569.655a1.5,1.5,0,0,0-.986,1.409v5.851H122.272V52.978a1.5,1.5,0,0,0-.986-1.409c-.511-.187-1.024-.4-1.569-.655a1.5,1.5,0,0,0-1.695.3l-4.141,4.141-8.1-8.1,4.141-4.141a1.5,1.5,0,0,0,.3-1.7c-.255-.546-.469-1.059-.654-1.567a1.5,1.5,0,0,0-1.41-.987h-5.851V27.407h5.851a1.5,1.5,0,0,0,1.41-.987c.184-.506.4-1.019.654-1.567a1.5,1.5,0,0,0-.3-1.695l-4.141-4.141ZM106.93,24.407h-3.3l2.351-.946ZM19.87,168.955V45.179A12.178,12.178,0,0,1,32.035,33.014H74.208l-13.44,5.409H32.035a6.763,6.763,0,0,0-6.756,6.755V156.955a6.764,6.764,0,0,0,6.756,6.756h55.54a41.366,41.366,0,0,0,8.684,17.409H32.035A12.179,12.179,0,0,1,19.87,168.955Zm69.652-14.5A38.478,38.478,0,1,1,128,192.937,38.522,38.522,0,0,1,89.522,154.459Zm19.728,41.478h37.5a43.2,43.2,0,0,1,43.124,41.649H66.126A43.2,43.2,0,0,1,109.25,195.937Z" fill="#3f3679"/><path d="M128,43.838a10.7,10.7,0,1,0-10.7-10.7A10.716,10.716,0,0,0,128,43.838Zm0-18.408a7.7,7.7,0,1,1-7.7,7.7A7.713,7.713,0,0,1,128,25.431Z" fill="#3f3679"/></svg>