<svg xmlns="http://www.w3.org/2000/svg" viewBox="0 0 256 256"><title>icons_</title><rect x="18.37" y="49.464" width="219.26" height="151.106" rx="13.665" ry="13.665" fill="#cecece"/><path d="M28.37,186.9V63.128A13.681,13.681,0,0,1,42.035,49.464h-10A13.681,13.681,0,0,0,18.37,63.128V186.9a13.681,13.681,0,0,0,13.665,13.665h10A13.681,13.681,0,0,1,28.37,186.9Z" fill="#afafaf"/><path d="M227.63,186.9V63.128a13.681,13.681,0,0,0-13.665-13.665h10A13.681,13.681,0,0,1,237.63,63.128V186.9a13.681,13.681,0,0,1-13.665,13.665h-10A13.681,13.681,0,0,0,227.63,186.9Z" fill="#e2e2e2"/><rect x="26.779" y="57.872" width="202.442" height="122.288" rx="5.256" ry="5.256" fill="#63bce7"/><path d="M36.779,174.9V63.128a5.271,5.271,0,0,1,5.256-5.256h-10a5.271,5.271,0,0,0-5.256,5.256V174.9a5.271,5.271,0,0,0,5.256,5.256h10A5.271,5.271,0,0,1,36.779,174.9Z" fill="#6377e7"/><path d="M219.221,174.9V63.128a5.271,5.271,0,0,0-5.256-5.256h10a5.271,5.271,0,0,1,5.256,5.256V174.9a5.271,5.271,0,0,1-5.256,5.256h-10A5.271,5.271,0,0,0,219.221,174.9Z" fill="#63e2e7"/><rect x="89.809" y="222.728" width="76.383" height="9.197" fill="#9e9e9e"/><rect x="89.809" y="222.728" width="10" height="9.197" fill="#707070"/><rect x="100.67" y="200.569" width="54.659" height="22.158" fill="#cecece"/><rect x="100.67" y="200.569" width="10" height="22.158" fill="#afafaf"/><circle cx="128" cy="190.365" r="4.5" fill="#9e9e9e"/><polygon points="188.979 40.496 161.586 13.102 67.021 13.102 67.021 180.16 188.979 180.16 188.979 40.496" fill="#f8af23"/><polygon points="161.586 13.102 151.586 13.102 178.979 40.496 178.979 180.16 188.979 180.16 188.979 40.496 161.586 13.102" fill="#f8d323"/><rect x="67.021" y="13.102" width="10" height="167.058" fill="#f87023"/><rect x="48.667" y="70.979" width="158.667" height="51.305" rx="25.652" ry="25.652" fill="#cecece"/><path d="M128,196.365a6,6,0,1,0-6-6A6.007,6.007,0,0,0,128,196.365Zm0-9a3,3,0,1,1-3,3A3,3,0,0,1,128,187.365Z" fill="#3f3679"/><path d="M27.323,241.4h-18a1.5,1.5,0,0,0,0,3h18a1.5,1.5,0,1,0,0-3Z" fill="#3f3679"/><path d="M246.68,241.4h-18a1.5,1.5,0,0,0,0,3h18a1.5,1.5,0,0,0,0-3Z" fill="#3f3679"/><path d="M218.479,241.4H37.521a1.5,1.5,0,0,0,0,3H218.479a1.5,1.5,0,0,0,0-3Z" fill="#3f3679"/><path d="M9.32,233.425H246.68a1.5,1.5,0,0,0,0-3H167.691v-7.7a1.5,1.5,0,0,0-1.5-1.5h-9.362V202.069h67.137A15.182,15.182,0,0,0,239.13,186.9V63.128a15.182,15.182,0,0,0-15.164-15.165H190.479V40.5a1.5,1.5,0,0,0-.439-1.061L162.646,12.042a1.5,1.5,0,0,0-1.061-.439H67.021a1.5,1.5,0,0,0-1.5,1.5V47.963H32.034A15.182,15.182,0,0,0,16.87,63.128V186.9a15.182,15.182,0,0,0,15.164,15.165H99.171v19.158H89.809a1.5,1.5,0,0,0-1.5,1.5v7.7H9.32a1.5,1.5,0,0,0,0,3Zm22.714-54.764a3.76,3.76,0,0,1-3.755-3.756V63.128a3.759,3.759,0,0,1,3.755-3.755H65.521V70.951a27.144,27.144,0,0,0,0,51.362v56.348ZM163.086,16.723,185.358,39H163.086Zm42.747,79.908a24.18,24.18,0,0,1-24.152,24.152H74.319a24.152,24.152,0,1,1,0-48.3H181.681A24.18,24.18,0,0,1,205.833,96.631ZM68.521,123.154a27.133,27.133,0,0,0,5.8.63H181.681a27.133,27.133,0,0,0,5.8-.63v55.507H68.521Zm121.959-.842a27.144,27.144,0,0,0,0-51.362V59.373h33.486a3.759,3.759,0,0,1,3.755,3.755V174.9a3.76,3.76,0,0,1-3.755,3.756H190.479ZM160.086,14.6V40.5a1.5,1.5,0,0,0,1.5,1.5h25.894V70.109a27.133,27.133,0,0,0-5.8-.63H74.319a27.133,27.133,0,0,0-5.8.63V14.6ZM19.87,186.9V63.128A12.178,12.178,0,0,1,32.034,50.963H65.521v5.409H32.034a6.763,6.763,0,0,0-6.755,6.755V174.9a6.763,6.763,0,0,0,6.755,6.756H223.966a6.763,6.763,0,0,0,6.755-6.756V63.128a6.763,6.763,0,0,0-6.755-6.755H190.479V50.963h33.486A12.178,12.178,0,0,1,236.13,63.128V186.9a12.178,12.178,0,0,1-12.164,12.165H32.034A12.178,12.178,0,0,1,19.87,186.9Zm82.3,15.165h51.658v19.158H102.171ZM91.309,224.228h73.383v6.2H91.309Z" fill="#3f3679"/><path d="M177.239,87.848a3.251,3.251,0,0,1,4.6,0l6.484,6.484a3.251,3.251,0,0,1,0,4.6l-6.484,6.484a3.251,3.251,0,0,1-4.6-4.6l4.185-4.185-4.185-4.185A3.251,3.251,0,0,1,177.239,87.848Z" fill="#3f3679"/><path d="M78.761,87.848a3.251,3.251,0,0,0-4.6,0l-6.484,6.484a3.251,3.251,0,0,0,0,4.6l6.484,6.484a3.251,3.251,0,0,0,4.6-4.6l-4.185-4.185,4.185-4.185A3.251,3.251,0,0,0,78.761,87.848Z" fill="#3f3679"/><path d="M107.083,92.461a8.244,8.244,0,0,1,1.813,5.647v9.757a.637.637,0,0,1-.637.637h-4.212a.637.637,0,0,1-.637-.637V98.749a3.949,3.949,0,0,0-.947-2.808,3.289,3.289,0,0,0-2.518-1.011A3.425,3.425,0,0,0,97.3,95.99a4.277,4.277,0,0,0-.979,3.015v8.859a.637.637,0,0,1-.637.637H91.47a.637.637,0,0,1-.637-.637V85.4a.637.637,0,0,1,.637-.637h4.212a.637.637,0,0,1,.637.637v6.459A.632.632,0,0,0,97.4,92.3a6.068,6.068,0,0,1,1.211-.966,6.735,6.735,0,0,1,3.578-.93A6.2,6.2,0,0,1,107.083,92.461Z" fill="#3f3679"/><path d="M122.659,104.422v3.442a.637.637,0,0,1-.637.637h-1.834a7.106,7.106,0,0,1-4.892-1.556q-1.748-1.556-1.748-5.149v-5.94a.637.637,0,0,0-.637-.637h-1.132a.637.637,0,0,1-.637-.637V91.237a.637.637,0,0,1,.637-.637h1.132a.637.637,0,0,0,.637-.637V86.842a.637.637,0,0,1,.637-.637H118.4a.637.637,0,0,1,.637.637v3.122a.637.637,0,0,0,.637.637h2.319a.637.637,0,0,1,.637.637v3.345a.637.637,0,0,1-.637.637H119.67a.637.637,0,0,0-.637.637v6.036a2.009,2.009,0,0,0,.434,1.476,2.066,2.066,0,0,0,1.459.417h1.1A.637.637,0,0,1,122.659,104.422Z" fill="#3f3679"/><path d="M154.13,92.445a8,8,0,0,1,1.894,5.663v9.757a.637.637,0,0,1-.637.637h-4.181a.637.637,0,0,1-.637-.637V98.749a3.654,3.654,0,0,0-.913-2.647,3.3,3.3,0,0,0-2.486-.946,3.366,3.366,0,0,0-2.583,1.01,3.99,3.99,0,0,0-.947,2.839v8.859a.637.637,0,0,1-.637.637h-4.212a.637.637,0,0,1-.637-.637V98.749a3.7,3.7,0,0,0-.9-2.647,3.243,3.243,0,0,0-2.471-.946,3.449,3.449,0,0,0-2.6.994,3.945,3.945,0,0,0-.962,2.855v8.859a.637.637,0,0,1-.637.637h-4.212a.637.637,0,0,1-.637-.637V91.237a.637.637,0,0,1,.637-.637h4.212a.637.637,0,0,1,.637.637v.414a.639.639,0,0,0,1.107.429,5.588,5.588,0,0,1,1.059-.806,6.564,6.564,0,0,1,3.416-.866,6.9,6.9,0,0,1,3.625.946,5.812,5.812,0,0,1,1.888,1.824.626.626,0,0,0,1.029.047,7.149,7.149,0,0,1,2.007-1.823,7.349,7.349,0,0,1,8.773,1.042Z" fill="#3f3679"/><path d="M165.167,85.4v22.467a.637.637,0,0,1-.637.637h-4.212a.637.637,0,0,1-.637-.637V85.4a.637.637,0,0,1,.637-.637h4.212A.637.637,0,0,1,165.167,85.4Z" fill="#3f3679"/></svg>