<svg xmlns="http://www.w3.org/2000/svg" viewBox="0 0 256 256"><title>icons_</title><rect x="18.37" y="31.283" width="219.26" height="151.106" rx="13.665" ry="13.665" fill="#cecece"/><path d="M28.37,168.724V44.948A13.681,13.681,0,0,1,42.035,31.283h-10A13.681,13.681,0,0,0,18.37,44.948V168.724a13.681,13.681,0,0,0,13.665,13.665h10A13.681,13.681,0,0,1,28.37,168.724Z" fill="#afafaf"/><path d="M227.63,168.724V44.948a13.681,13.681,0,0,0-13.665-13.665h10A13.681,13.681,0,0,1,237.63,44.948V168.724a13.681,13.681,0,0,1-13.665,13.665h-10A13.681,13.681,0,0,0,227.63,168.724Z" fill="#e2e2e2"/><rect x="26.779" y="39.692" width="202.442" height="122.288" rx="5.256" ry="5.256" fill="#63bce7"/><path d="M36.779,156.724V44.947a5.271,5.271,0,0,1,5.256-5.256h-10a5.271,5.271,0,0,0-5.256,5.256V156.724a5.271,5.271,0,0,0,5.256,5.256h10A5.271,5.271,0,0,1,36.779,156.724Z" fill="#6377e7"/><path d="M219.221,156.724V44.947a5.271,5.271,0,0,0-5.256-5.256h10a5.271,5.271,0,0,1,5.256,5.256V156.724a5.271,5.271,0,0,1-5.256,5.256h-10A5.271,5.271,0,0,0,219.221,156.724Z" fill="#63e2e7"/><rect x="89.809" y="204.547" width="76.383" height="9.197" fill="#9e9e9e"/><rect x="89.809" y="204.547" width="10" height="9.197" fill="#707070"/><rect x="100.67" y="182.389" width="54.659" height="22.158" fill="#cecece"/><rect x="100.67" y="182.389" width="10" height="22.158" fill="#afafaf"/><circle cx="128" cy="172.184" r="4.5" fill="#9e9e9e"/><path d="M103.232,131.6V91.109a9.975,9.975,0,0,1,9.975-9.975h43.559l-6.816-8.978H129L119.026,61.35H95.758a9.975,9.975,0,0,0-9.975,9.975V131.6a8.762,8.762,0,0,0,8.725,8.725h0A8.725,8.725,0,0,0,103.232,131.6Z" fill="#9e9e9e"/><path d="M156.766,81.134H113.207a9.975,9.975,0,0,0-9.975,9.975V131.6a8.725,8.725,0,0,1-8.725,8.725H161.5a8.72,8.72,0,0,0,8.72-8.72V81.134Z" fill="#f8af23"/><path d="M230.721,156.724V44.947a6.763,6.763,0,0,0-6.755-6.756H32.034a6.763,6.763,0,0,0-6.755,6.756V156.724a6.763,6.763,0,0,0,6.755,6.756H223.966A6.763,6.763,0,0,0,230.721,156.724Zm-202.441,0V44.947a3.76,3.76,0,0,1,3.755-3.756H223.966a3.76,3.76,0,0,1,3.755,3.756V156.724a3.76,3.76,0,0,1-3.755,3.756H32.034A3.76,3.76,0,0,1,28.279,156.724Z" fill="#3f3679"/><path d="M128,166.185a6,6,0,1,0,6,6A6.007,6.007,0,0,0,128,166.185Zm0,9a3,3,0,1,1,3-3A3,3,0,0,1,128,175.185Z" fill="#3f3679"/><path d="M27.323,223.217h-18a1.5,1.5,0,0,0,0,3h18a1.5,1.5,0,1,0,0-3Z" fill="#3f3679"/><path d="M246.68,223.217h-18a1.5,1.5,0,0,0,0,3h18a1.5,1.5,0,0,0,0-3Z" fill="#3f3679"/><path d="M218.479,223.217H37.521a1.5,1.5,0,0,0,0,3H218.479a1.5,1.5,0,0,0,0-3Z" fill="#3f3679"/><path d="M9.32,215.244H246.68a1.5,1.5,0,0,0,0-3H167.691v-7.7a1.5,1.5,0,0,0-1.5-1.5h-9.362V183.889h67.137a15.182,15.182,0,0,0,15.164-15.165V44.947a15.181,15.181,0,0,0-15.164-15.164H32.034A15.181,15.181,0,0,0,16.87,44.947V168.724a15.182,15.182,0,0,0,15.164,15.165H99.171v19.158H89.809a1.5,1.5,0,0,0-1.5,1.5v7.7H9.32a1.5,1.5,0,0,0,0,3Zm10.55-46.521V44.947A12.178,12.178,0,0,1,32.034,32.783H223.966A12.178,12.178,0,0,1,236.13,44.947V168.724a12.178,12.178,0,0,1-12.164,12.165H32.034A12.178,12.178,0,0,1,19.87,168.724Zm82.3,15.165h51.658v19.158H102.171ZM91.309,206.047h73.383v6.2H91.309Z" fill="#3f3679"/><path d="M170.218,79.634H157.511l-6.366-8.385a1.5,1.5,0,0,0-1.194-.593H129.658l-9.529-10.323a1.5,1.5,0,0,0-1.1-.482H95.758A11.488,11.488,0,0,0,84.282,71.326V131.6a10.264,10.264,0,0,0,10.225,10.225H161.5A10.232,10.232,0,0,0,171.718,131.6V81.134A1.5,1.5,0,0,0,170.218,79.634ZM101.731,131.6a7.225,7.225,0,0,1-14.449,0V71.326a8.485,8.485,0,0,1,8.476-8.476H118.37L127.9,73.174a1.5,1.5,0,0,0,1.1.482h20.2l4.539,5.978H113.207a11.488,11.488,0,0,0-11.476,11.476Zm66.986,0a7.229,7.229,0,0,1-7.221,7.221H101.735a10.191,10.191,0,0,0,3-7.225V91.109a8.485,8.485,0,0,1,8.476-8.476h55.511Z" fill="#3f3679"/><path d="M112.673,90.894v14.667a1.5,1.5,0,0,0,1.5,1.5h14.666a1.5,1.5,0,0,0,1.5-1.5V90.894a1.5,1.5,0,0,0-1.5-1.5H114.173A1.5,1.5,0,0,0,112.673,90.894Zm3,1.5h11.666v11.667H115.673Z" fill="#3f3679"/><path d="M128.839,114.394H114.173a1.5,1.5,0,0,0-1.5,1.5v14.667a1.5,1.5,0,0,0,1.5,1.5h14.666a1.5,1.5,0,0,0,1.5-1.5V115.894A1.5,1.5,0,0,0,128.839,114.394Zm-1.5,14.667H115.673V117.394h11.666Z" fill="#3f3679"/><path d="M138.576,123.091h20.7a1.5,1.5,0,0,0,1.5-1.5v-20.7a1.5,1.5,0,0,0-1.5-1.5h-20.7a1.5,1.5,0,0,0-1.5,1.5v20.7A1.5,1.5,0,0,0,138.576,123.091Zm1.5-20.7h17.7v17.7h-17.7Z" fill="#3f3679"/></svg>