<svg xmlns="http://www.w3.org/2000/svg" viewBox="0 0 256 256"><title>icons_</title><rect x="175.212" y="203.647" width="50.685" height="32.25" transform="translate(401.109 439.543) rotate(-180)" fill="#63bce7"/><rect x="215.897" y="203.646" width="10" height="32.25" fill="#63e2e7"/><rect x="170.679" y="188.842" width="59.75" height="14.804" transform="translate(401.109 392.489) rotate(-180)" fill="#cecece"/><path d="M207.3,120.136a10.843,10.843,0,0,1,15.122-.2l.073-.047V91.813a10.85,10.85,0,0,1,10.85-10.85h0a10.85,10.85,0,0,1,10.85,10.85v64.269a3,3,0,0,1-.864,2.107l-21.387,21.678a3,3,0,0,0-.864,2.107v6.868H180.029V148.65a3,3,0,0,1,.879-2.121Z" fill="#f8af23"/><path d="M233.345,80.963h0a10.79,10.79,0,0,0-5,1.227,10.842,10.842,0,0,1,5.85,9.624v64.269a3,3,0,0,1-.864,2.107l-21.387,21.678a3,3,0,0,0-.864,2.107v6.868h10v-6.868a3,3,0,0,1,.864-2.107l21.387-21.678a3,3,0,0,0,.864-2.107V91.813A10.85,10.85,0,0,0,233.345,80.963Z" fill="#f8d323"/><path d="M48.7,120.136a10.843,10.843,0,0,0-15.122-.2l-.073-.047V91.813a10.85,10.85,0,0,0-10.85-10.85h0A10.85,10.85,0,0,0,11.8,91.813v64.269a3,3,0,0,0,.864,2.107l21.387,21.678a3,3,0,0,1,.864,2.107v6.868H75.971V148.65a3,3,0,0,0-.879-2.121Z" fill="#f8af23"/><path d="M44.056,179.867,22.669,158.189a3,3,0,0,1-.864-2.107V91.813a10.842,10.842,0,0,1,5.85-9.624,10.79,10.79,0,0,0-5-1.227h0A10.85,10.85,0,0,0,11.8,91.813v64.269a3,3,0,0,0,.864,2.107l21.387,21.678a3,3,0,0,1,.864,2.107v6.868h10v-6.868A3,3,0,0,0,44.056,179.867Z" fill="#f87023"/><rect x="25.571" y="188.842" width="59.75" height="14.804" fill="#cecece"/><rect x="30.103" y="203.647" width="50.685" height="32.25" fill="#63bce7"/><rect x="25.571" y="188.842" width="10" height="14.804" fill="#afafaf"/><rect x="220.429" y="188.842" width="10" height="14.804" fill="#e2e2e2"/><rect x="30.103" y="203.646" width="10" height="32.25" fill="#6377e7"/><path d="M185.712,66.843a57.712,57.712,0,1,0-96.631,42.611v26.416A38.919,38.919,0,0,0,128,174.788h0a38.919,38.919,0,0,0,38.919-38.919V109.453A57.558,57.558,0,0,0,185.712,66.843Z" fill="#f8af23"/><path d="M99.081,135.869V109.453A57.7,57.7,0,0,1,133,9.36c-1.649-.142-3.314-.229-5-.229A57.709,57.709,0,0,0,89.081,109.453v26.416A38.919,38.919,0,0,0,128,174.788h0a39.192,39.192,0,0,0,5-.331A38.917,38.917,0,0,1,99.081,135.869Z" fill="#f87023"/><path d="M89.081,135.869A38.919,38.919,0,0,0,128,174.788h0a38.919,38.919,0,0,0,38.919-38.919v-5.158H89.081Z" fill="#cecece"/><path d="M99.081,135.869v-5.158h-10v5.158A38.918,38.918,0,0,0,128,174.788h0a39.192,39.192,0,0,0,5-.331A38.917,38.917,0,0,1,99.081,135.869Z" fill="#afafaf"/><path d="M106.049,69.869c.23.642.49,1.259.775,1.871l-5.751,5.751L112.382,88.8l5.751-5.751c.611.285,1.235.545,1.871.775v8.136h15.988V83.823c.636-.23,1.259-.49,1.871-.775l5.751,5.751,11.308-11.308L149.17,71.74c.285-.611.545-1.229.775-1.871h8.136V53.881h-8.136c-.23-.636-.49-1.259-.775-1.871l5.751-5.751L143.612,34.952l-5.751,5.757c-.611-.285-1.235-.551-1.871-.781V31.8H120v8.13c-.636.23-1.259.5-1.871.781l-5.751-5.757L101.073,46.26l5.751,5.751c-.285.611-.545,1.235-.775,1.871h-8.13V69.869Z" fill="#9e9e9e"/><circle cx="128" cy="61.876" r="10.181" fill="#f46275"/><path d="M63.954,197.744h9.375a1.5,1.5,0,0,0,0-3H63.954a1.5,1.5,0,0,0,0,3Z" fill="#3f3679"/><path d="M27.323,245.369h-18a1.5,1.5,0,1,0,0,3h18a1.5,1.5,0,1,0,0-3Z" fill="#3f3679"/><path d="M246.68,245.369h-18a1.5,1.5,0,0,0,0,3h18a1.5,1.5,0,0,0,0-3Z" fill="#3f3679"/><path d="M218.479,245.369H37.521a1.5,1.5,0,0,0,0,3H218.479a1.5,1.5,0,0,0,0-3Z" fill="#3f3679"/><path d="M248.18,235.9a1.5,1.5,0,0,0-1.5-1.5H227.4v-29.25h3.033a1.5,1.5,0,0,0,1.5-1.5v-14.8a1.5,1.5,0,0,0-1.5-1.5h-7.85v-5.368a1.488,1.488,0,0,1,.433-1.054L244.4,159.242a4.474,4.474,0,0,0,1.3-3.16V91.813a12.35,12.35,0,1,0-24.7,0v25.214a12.266,12.266,0,0,0-14.756,2.049l-26.392,26.392a4.468,4.468,0,0,0-1.318,3.182v38.693h-7.85a1.5,1.5,0,0,0-1.5,1.5v14.8a1.5,1.5,0,0,0,1.5,1.5h3.033V234.4H82.288v-29.25H85.32a1.5,1.5,0,0,0,1.5-1.5v-14.8a1.5,1.5,0,0,0-1.5-1.5h-7.85V148.649a4.468,4.468,0,0,0-1.318-3.182L49.761,119.076A12.265,12.265,0,0,0,35,117.027V91.813a12.35,12.35,0,1,0-24.7,0v64.269a4.478,4.478,0,0,0,1.3,3.161l21.387,21.678a1.49,1.49,0,0,1,.432,1.054v5.368H25.57a1.5,1.5,0,0,0-1.5,1.5v14.8a1.5,1.5,0,0,0,1.5,1.5H28.6V234.4H9.32a1.5,1.5,0,1,0,0,3H246.68A1.5,1.5,0,0,0,248.18,235.9Zm-66.651-87.247a1.49,1.49,0,0,1,.439-1.061L208.36,121.2a9.3,9.3,0,0,1,13.03-.173c.04.038.168.147.193.173a9.352,9.352,0,0,1,0,13.224L201.7,154.3a1.5,1.5,0,1,0,2.121,2.121l19.882-19.881A12.356,12.356,0,0,0,224,119.4V91.813a9.35,9.35,0,1,1,18.7,0v64.269a1.49,1.49,0,0,1-.432,1.054l-21.386,21.678a4.471,4.471,0,0,0-1.3,3.161v5.368h-38.05Zm-9.35,41.693h56.75v4.4H201.546a1.5,1.5,0,0,0,0,3H228.93v4.4H172.18ZM35.124,178.813,13.737,157.137a1.494,1.494,0,0,1-.432-1.055V91.813a9.35,9.35,0,1,1,18.7,0V119.4a12.356,12.356,0,0,0,.29,17.145l19.882,19.881A1.5,1.5,0,0,0,54.3,154.3L34.416,134.421a9.352,9.352,0,0,1,0-13.224c.023-.023.151-.133.193-.173a9.3,9.3,0,0,1,13.03.173l26.392,26.392a1.49,1.49,0,0,1,.439,1.061v38.693H36.42v-5.368A4.473,4.473,0,0,0,35.124,178.813ZM27.07,197.744H54.454a1.5,1.5,0,0,0,0-3H27.07v-4.4H83.82v11.8H27.07ZM31.6,234.4v-21.03H68.642a1.5,1.5,0,0,0,0-3H31.6v-5.22H79.288V234.4Zm145.109,0v-29.25H224.4v5.22H187.358a1.5,1.5,0,0,0,0,3H224.4V234.4Z" fill="#3f3679"/><path d="M87.581,110.109v25.76a40.419,40.419,0,0,0,80.838,0v-25.76a59.212,59.212,0,1,0-80.838,0Zm77.838,25.76a37.419,37.419,0,0,1-74.838,0v-3.658h74.838ZM128,10.631a56.209,56.209,0,0,1,37.907,97.715,1.5,1.5,0,0,0-.488,1.107v19.758H129.5V93.459h6.491a1.5,1.5,0,0,0,1.5-1.5V84.85l.036-.015,5.025,5.024a1.5,1.5,0,0,0,2.121,0l11.309-11.308a1.5,1.5,0,0,0,0-2.121l-5.025-5.025.015-.036h7.109a1.5,1.5,0,0,0,1.5-1.5V53.882a1.5,1.5,0,0,0-1.5-1.5h-7.109l-.015-.036,5.025-5.025a1.5,1.5,0,0,0,0-2.121L144.673,33.891a1.5,1.5,0,0,0-1.061-.439h0a1.5,1.5,0,0,0-1.061.44l-5.022,5.028-.038-.016V31.8a1.5,1.5,0,0,0-1.5-1.5H120a1.5,1.5,0,0,0-1.5,1.5V38.9l-.038.016-5.022-5.028a1.5,1.5,0,0,0-1.061-.44h0a1.5,1.5,0,0,0-1.061.439L100.013,45.2a1.5,1.5,0,0,0,0,2.121l5.025,5.025-.015.036h-7.1a1.5,1.5,0,0,0-1.5,1.5V69.869a1.5,1.5,0,0,0,1.5,1.5h7.1l.015.037-5.024,5.024a1.5,1.5,0,0,0,0,2.121l11.308,11.308a1.5,1.5,0,0,0,2.121,0l5.025-5.025.036.016v7.109a1.5,1.5,0,0,0,1.5,1.5h6.5v35.752H90.581V109.453a1.5,1.5,0,0,0-.488-1.107A56.209,56.209,0,0,1,128,10.631Zm-7.485,71.782c-.579-.21-1.167-.454-1.749-.725a1.5,1.5,0,0,0-1.694.3l-4.69,4.69-9.187-9.187,4.69-4.69a1.5,1.5,0,0,0,.3-1.693c-.287-.616-.523-1.187-.723-1.744a1.5,1.5,0,0,0-1.412-.994h-6.63V55.382h6.63a1.5,1.5,0,0,0,1.411-.989c.208-.574.451-1.163.724-1.749a1.5,1.5,0,0,0-.3-1.693l-4.69-4.69,9.187-9.187,4.69,4.7a1.5,1.5,0,0,0,1.7.3c.628-.293,1.2-.531,1.749-.73a1.5,1.5,0,0,0,.988-1.41V33.3h12.988v6.63a1.5,1.5,0,0,0,.989,1.41c.549.2,1.121.438,1.748.73a1.5,1.5,0,0,0,1.7-.3l4.69-4.7L152.8,46.26l-4.69,4.69a1.5,1.5,0,0,0-.3,1.692c.273.587.517,1.176.725,1.75a1.5,1.5,0,0,0,1.41.989h6.636V68.369h-6.636a1.5,1.5,0,0,0-1.412.993c-.2.557-.437,1.128-.724,1.746a1.5,1.5,0,0,0,.3,1.692l4.69,4.69-9.187,9.187-4.69-4.69a1.5,1.5,0,0,0-1.695-.3c-.581.271-1.169.515-1.748.725a1.5,1.5,0,0,0-.989,1.41v6.636H121.5V83.823A1.5,1.5,0,0,0,120.515,82.413Z" fill="#3f3679"/><path d="M139.681,61.876A11.681,11.681,0,1,0,128,73.558,11.694,11.694,0,0,0,139.681,61.876Zm-20.362,0A8.681,8.681,0,1,1,128,70.558,8.691,8.691,0,0,1,119.319,61.876Z" fill="#3f3679"/><path d="M182.671,197.744h9.375a1.5,1.5,0,0,0,0-3h-9.375a1.5,1.5,0,0,0,0,3Z" fill="#3f3679"/></svg>