<svg xmlns="http://www.w3.org/2000/svg" viewBox="0 0 256 256"><title>icons_</title><rect x="18.37" y="31.283" width="219.26" height="151.106" rx="13.665" ry="13.665" fill="#cecece"/><path d="M28.37,168.724V44.948A13.681,13.681,0,0,1,42.035,31.283h-10A13.681,13.681,0,0,0,18.37,44.948V168.724a13.681,13.681,0,0,0,13.665,13.665h10A13.681,13.681,0,0,1,28.37,168.724Z" fill="#afafaf"/><path d="M227.63,168.724V44.948a13.681,13.681,0,0,0-13.665-13.665h10A13.681,13.681,0,0,1,237.63,44.948V168.724a13.681,13.681,0,0,1-13.665,13.665h-10A13.681,13.681,0,0,0,227.63,168.724Z" fill="#e2e2e2"/><rect x="26.779" y="39.692" width="202.442" height="122.288" rx="5.256" ry="5.256" fill="#63bce7"/><path d="M36.779,156.724V44.947a5.271,5.271,0,0,1,5.256-5.256h-10a5.271,5.271,0,0,0-5.256,5.256V156.724a5.271,5.271,0,0,0,5.256,5.256h10A5.271,5.271,0,0,1,36.779,156.724Z" fill="#6377e7"/><path d="M219.221,156.724V44.947a5.271,5.271,0,0,0-5.256-5.256h10a5.271,5.271,0,0,1,5.256,5.256V156.724a5.271,5.271,0,0,1-5.256,5.256h-10A5.271,5.271,0,0,0,219.221,156.724Z" fill="#63e2e7"/><rect x="89.809" y="204.547" width="76.383" height="9.197" fill="#9e9e9e"/><rect x="89.809" y="204.547" width="10" height="9.197" fill="#707070"/><rect x="100.67" y="182.389" width="54.659" height="22.158" fill="#cecece"/><rect x="100.67" y="182.389" width="10" height="22.158" fill="#afafaf"/><circle cx="128" cy="172.184" r="4.5" fill="#9e9e9e"/><path d="M158.867,112.074c-.323.9-.69,1.771-1.09,2.63l8.087,8.087-15.9,15.9-8.087-8.087c-.86.4-1.737.766-2.63,1.09v11.441H116.763V131.7c-.894-.323-1.771-.69-2.63-1.09l-8.087,8.087-15.9-15.9,8.087-8.087c-.4-.86-.766-1.728-1.09-2.63H85.7V89.592H97.142c.323-.894.69-1.771,1.09-2.63l-8.087-8.087,15.9-15.9,8.087,8.1c.86-.4,1.737-.775,2.63-1.1V58.538h22.482V69.97c.894.323,1.771.7,2.63,1.1l8.087-8.1,15.9,15.9-8.087,8.087c.4.86.766,1.737,1.09,2.63H170.3v22.482Z" fill="#f8af23"/><circle cx="128" cy="100.834" r="14.317" fill="#f46275"/><path d="M184.107,147.21V70.451a14.444,14.444,0,0,1,0-24.018v14.2a2.019,2.019,0,0,0,1.12,1.808l6.007,2.985a2.019,2.019,0,0,0,1.8,0l6.007-2.984a2.019,2.019,0,0,0,1.121-1.808v-14.2a14.444,14.444,0,0,1,0,24.018V147.21a8.026,8.026,0,0,1-8.026,8.026h0A8.026,8.026,0,0,1,184.107,147.21Z" fill="#cecece"/><path d="M71.893,131.22V70.454a14.444,14.444,0,0,0,0-24.018v14.2a2.019,2.019,0,0,1-1.121,1.808l-6.007,2.984a2.02,2.02,0,0,1-1.8,0L56.963,62.44a2.019,2.019,0,0,1-1.121-1.808v-14.2a14.444,14.444,0,0,0,0,24.018V131.22a14.444,14.444,0,0,0,0,24.018v-14.2a2.019,2.019,0,0,1,1.121-1.808l6.007-2.984a2.019,2.019,0,0,1,1.8,0l6.007,2.984a2.019,2.019,0,0,1,1.121,1.808v14.2a14.444,14.444,0,0,0,0-24.018Z" fill="#cecece"/><path d="M230.721,156.724V44.947a6.763,6.763,0,0,0-6.755-6.756H32.035a6.764,6.764,0,0,0-6.756,6.756V156.724a6.763,6.763,0,0,0,6.756,6.755H223.966A6.763,6.763,0,0,0,230.721,156.724Zm-202.442,0V44.947a3.76,3.76,0,0,1,3.756-3.756H223.966a3.76,3.76,0,0,1,3.755,3.756V156.724a3.759,3.759,0,0,1-3.755,3.755H32.035A3.76,3.76,0,0,1,28.279,156.724Z" fill="#3f3679"/><path d="M128,166.184a6,6,0,1,0,6,6A6.007,6.007,0,0,0,128,166.184Zm0,9a3,3,0,1,1,3-3A3,3,0,0,1,128,175.184Z" fill="#3f3679"/><path d="M27.323,223.217h-18a1.5,1.5,0,1,0,0,3h18a1.5,1.5,0,1,0,0-3Z" fill="#3f3679"/><path d="M246.68,223.217h-18a1.5,1.5,0,0,0,0,3h18a1.5,1.5,0,0,0,0-3Z" fill="#3f3679"/><path d="M218.479,223.217H37.521a1.5,1.5,0,0,0,0,3H218.479a1.5,1.5,0,0,0,0-3Z" fill="#3f3679"/><path d="M9.32,215.244H246.68a1.5,1.5,0,0,0,0-3H167.691v-7.7a1.5,1.5,0,0,0-1.5-1.5h-9.362V183.889h67.137a15.182,15.182,0,0,0,15.164-15.165V44.948a15.182,15.182,0,0,0-15.164-15.165H32.035A15.182,15.182,0,0,0,16.87,44.948V168.724a15.182,15.182,0,0,0,15.165,15.165H99.17v19.158H89.809a1.5,1.5,0,0,0-1.5,1.5v7.7H9.32a1.5,1.5,0,1,0,0,3Zm10.55-46.52V44.948A12.179,12.179,0,0,1,32.035,32.783H223.966A12.178,12.178,0,0,1,236.13,44.948V168.724a12.178,12.178,0,0,1-12.164,12.165H32.035A12.178,12.178,0,0,1,19.87,168.724Zm82.3,15.165h51.659v19.158H102.17ZM91.309,206.047h73.383v6.2H91.309Z" fill="#3f3679"/><path d="M170.3,88.092H159.9c-.106-.264-.218-.529-.335-.8l7.358-7.359a1.5,1.5,0,0,0,0-2.121l-15.9-15.9a1.5,1.5,0,0,0-2.121,0l-7.359,7.358q-.4-.175-.8-.334v-10.4a1.5,1.5,0,0,0-1.5-1.5H116.758a1.5,1.5,0,0,0-1.5,1.5v10.4q-.4.16-.8.334L107.1,61.914a1.5,1.5,0,0,0-2.121,0l-15.9,15.9a1.5,1.5,0,0,0,0,2.121l7.358,7.359q-.174.4-.334.8H85.7a1.5,1.5,0,0,0-1.5,1.5v22.485a1.5,1.5,0,0,0,1.5,1.5H96.1c.106.264.217.53.334.8l-7.358,7.359a1.5,1.5,0,0,0,0,2.121l15.9,15.9a1.5,1.5,0,0,0,2.121,0l7.358-7.358q.4.175.8.334v10.4a1.5,1.5,0,0,0,1.5,1.5h22.484a1.5,1.5,0,0,0,1.5-1.5v-10.4q.4-.16.8-.334l7.358,7.358a1.5,1.5,0,0,0,2.121,0l15.9-15.9a1.5,1.5,0,0,0,0-2.121l-7.357-7.359q.174-.4.334-.8h10.4a1.5,1.5,0,0,0,1.5-1.5V89.592A1.5,1.5,0,0,0,170.3,88.092Zm-1.5,22.485h-9.935a1.5,1.5,0,0,0-1.409.987c-.294.807-.636,1.626-1.046,2.507a1.5,1.5,0,0,0,.3,1.694l7.029,7.03-13.777,13.778-7.03-7.03a1.5,1.5,0,0,0-1.694-.3c-.875.408-1.7.75-2.508,1.046a1.5,1.5,0,0,0-.986,1.409v9.934H118.258V131.7a1.5,1.5,0,0,0-.986-1.409c-.814-.3-1.635-.639-2.508-1.046a1.5,1.5,0,0,0-1.694.3l-7.03,7.03L92.262,122.795l7.03-7.03a1.5,1.5,0,0,0,.3-1.7c-.408-.873-.75-1.693-1.045-2.506a1.5,1.5,0,0,0-1.41-.987H87.2V91.092h9.934a1.5,1.5,0,0,0,1.409-.987c.3-.814.639-1.634,1.046-2.506a1.5,1.5,0,0,0-.3-1.7l-7.03-7.03L106.04,65.1l7.03,7.03a1.5,1.5,0,0,0,1.694.3c.875-.408,1.694-.75,2.507-1.045a1.5,1.5,0,0,0,.987-1.41V60.035h19.484v9.935a1.5,1.5,0,0,0,.987,1.41c.811.295,1.631.637,2.507,1.045a1.5,1.5,0,0,0,1.694-.3l7.03-7.03,13.777,13.778-7.029,7.03a1.5,1.5,0,0,0-.3,1.694c.409.879.751,1.7,1.046,2.507a1.5,1.5,0,0,0,1.409.987H168.8Z" fill="#3f3679"/><path d="M128,85.018a15.817,15.817,0,1,0,15.816,15.817A15.834,15.834,0,0,0,128,85.018Zm0,28.633a12.817,12.817,0,1,1,12.816-12.816A12.831,12.831,0,0,1,128,113.651Z" fill="#3f3679"/><path d="M200.993,45.187a1.5,1.5,0,0,0-2.335,1.247v14.2a.516.516,0,0,1-.288.465l-6.008,2.984a.517.517,0,0,1-.461,0L185.9,61.094a.515.515,0,0,1-.289-.465v-14.2a1.5,1.5,0,0,0-2.335-1.247,15.944,15.944,0,0,0-.665,26.04v75.982a9.526,9.526,0,1,0,19.052,0V71.227a15.944,15.944,0,0,0-.665-26.04Zm-1.67,24.018a1.5,1.5,0,0,0-.665,1.246v76.758a6.526,6.526,0,1,1-13.052,0V70.451a1.5,1.5,0,0,0-.665-1.246,12.944,12.944,0,0,1-2.335-19.526V60.629a3.5,3.5,0,0,0,1.954,3.151l6.006,2.984a3.535,3.535,0,0,0,3.131,0l6.008-2.984a3.5,3.5,0,0,0,1.953-3.151V49.679a12.944,12.944,0,0,1-2.335,19.526Z" fill="#3f3679"/><path d="M79.811,58.445A15.927,15.927,0,0,0,72.728,45.19a1.5,1.5,0,0,0-2.334,1.247v14.2a.516.516,0,0,1-.288.465L64.1,64.082a.519.519,0,0,1-.462,0L57.631,61.1a.516.516,0,0,1-.289-.465v-14.2a1.5,1.5,0,0,0-2.334-1.247,15.943,15.943,0,0,0-.666,26.04v59.214a15.943,15.943,0,0,0,.666,26.041,1.5,1.5,0,0,0,2.334-1.247v-14.2a.516.516,0,0,1,.288-.465l6.006-2.984a.519.519,0,0,1,.462,0l6.006,2.984a.516.516,0,0,1,.289.465v14.2a1.5,1.5,0,0,0,2.334,1.247,15.944,15.944,0,0,0,.666-26.041V71.23A15.924,15.924,0,0,0,79.811,58.445Zm-8.752,74.021a12.944,12.944,0,0,1,2.334,19.526V141.042a3.5,3.5,0,0,0-1.953-3.151l-6.006-2.984a3.537,3.537,0,0,0-3.132,0l-6.007,2.984a3.5,3.5,0,0,0-1.953,3.151v10.951a12.943,12.943,0,0,1,2.334-19.526,1.5,1.5,0,0,0,.666-1.247V70.454a1.5,1.5,0,0,0-.666-1.247,12.943,12.943,0,0,1-2.334-19.526V60.632A3.5,3.5,0,0,0,56.3,63.784L62.3,66.768a3.537,3.537,0,0,0,3.132,0l6.007-2.984a3.5,3.5,0,0,0,1.953-3.151V49.682a12.944,12.944,0,0,1-2.334,19.526,1.5,1.5,0,0,0-.666,1.247V131.22A1.5,1.5,0,0,0,71.059,132.467Z" fill="#3f3679"/></svg>