<svg xmlns="http://www.w3.org/2000/svg" viewBox="0 0 256 256"><title>icons_</title><rect x="18.37" y="50.711" width="219.26" height="151.106" rx="13.665" ry="13.665" fill="#cecece"/><path d="M28.37,188.153V64.376A13.681,13.681,0,0,1,42.035,50.711h-10A13.681,13.681,0,0,0,18.37,64.376V188.153a13.681,13.681,0,0,0,13.665,13.665h10A13.681,13.681,0,0,1,28.37,188.153Z" fill="#afafaf"/><path d="M227.63,188.153V64.376a13.681,13.681,0,0,0-13.665-13.665h10A13.681,13.681,0,0,1,237.63,64.376V188.153a13.681,13.681,0,0,1-13.665,13.665h-10A13.681,13.681,0,0,0,227.63,188.153Z" fill="#e2e2e2"/><rect x="26.779" y="59.12" width="202.442" height="122.288" rx="5.256" ry="5.256" fill="#63bce7"/><path d="M36.779,176.153V64.376a5.271,5.271,0,0,1,5.256-5.256h-10a5.271,5.271,0,0,0-5.256,5.256V176.153a5.271,5.271,0,0,0,5.256,5.256h10A5.271,5.271,0,0,1,36.779,176.153Z" fill="#6377e7"/><path d="M219.221,176.153V64.376a5.271,5.271,0,0,0-5.256-5.256h10a5.271,5.271,0,0,1,5.256,5.256V176.153a5.271,5.271,0,0,1-5.256,5.256h-10A5.271,5.271,0,0,0,219.221,176.153Z" fill="#63e2e7"/><rect x="89.809" y="223.975" width="76.383" height="9.197" fill="#9e9e9e"/><rect x="89.809" y="223.975" width="10" height="9.197" fill="#707070"/><rect x="100.67" y="201.817" width="54.659" height="22.158" fill="#cecece"/><rect x="100.67" y="201.817" width="10" height="22.158" fill="#afafaf"/><circle cx="128" cy="191.613" r="4.5" fill="#9e9e9e"/><rect x="50.757" y="11.854" width="154.485" height="132.343" rx="10.6" ry="10.6" fill="#cecece"/><path d="M60.757,133.6V22.454a10.6,10.6,0,0,1,10.6-10.6h-10a10.6,10.6,0,0,0-10.6,10.6V133.6a10.6,10.6,0,0,0,10.6,10.6h10A10.6,10.6,0,0,1,60.757,133.6Z" fill="#afafaf"/><path d="M195.243,133.6V22.454a10.6,10.6,0,0,0-10.6-10.6h10a10.6,10.6,0,0,1,10.6,10.6V133.6a10.6,10.6,0,0,1-10.6,10.6h-10A10.6,10.6,0,0,0,195.243,133.6Z" fill="#e2e2e2"/><path d="M205.242,22.456a10.6,10.6,0,0,0-10.6-10.6H61.359a10.6,10.6,0,0,0-10.6,10.6V40.905H205.242Z" fill="#f8af23"/><path d="M71.359,11.854h-10a10.6,10.6,0,0,0-10.6,10.6V40.905h10V22.456A10.6,10.6,0,0,1,71.359,11.854Z" fill="#f87023"/><path d="M184.641,11.854h10a10.6,10.6,0,0,1,10.6,10.6V40.905h-10V22.456A10.6,10.6,0,0,0,184.641,11.854Z" fill="#f8d323"/><circle cx="69.682" cy="26.38" r="4.842" fill="#f46275"/><circle cx="88.332" cy="26.38" r="4.842" fill="#f46275"/><circle cx="106.981" cy="26.38" r="4.842" fill="#f46275"/><rect x="122.517" y="23.008" width="68.643" height="7.378" rx="3.689" ry="3.689" fill="#f46275"/><rect x="68.966" y="117.928" width="118.068" height="52.539" rx="26.269" ry="26.269" fill="#f8af23"/><path d="M128,197.613a6,6,0,1,0-6-6A6.007,6.007,0,0,0,128,197.613Zm0-9a3,3,0,1,1-3,3A3,3,0,0,1,128,188.613Z" fill="#3f3679"/><path d="M27.323,242.646h-18a1.5,1.5,0,0,0,0,3h18a1.5,1.5,0,1,0,0-3Z" fill="#3f3679"/><path d="M246.68,242.646h-18a1.5,1.5,0,0,0,0,3h18a1.5,1.5,0,0,0,0-3Z" fill="#3f3679"/><path d="M218.479,242.646H37.521a1.5,1.5,0,0,0,0,3H218.479a1.5,1.5,0,0,0,0-3Z" fill="#3f3679"/><path d="M9.32,234.673H246.68a1.5,1.5,0,0,0,0-3H167.691v-7.7a1.5,1.5,0,0,0-1.5-1.5h-9.362V203.317h67.137a15.182,15.182,0,0,0,15.164-15.165V64.376a15.182,15.182,0,0,0-15.164-15.165H206.742V22.454a12.113,12.113,0,0,0-12.1-12.1H61.357a12.113,12.113,0,0,0-12.1,12.1V49.211H32.034A15.182,15.182,0,0,0,16.87,64.376V188.152a15.182,15.182,0,0,0,15.164,15.165H99.171v19.158H89.809a1.5,1.5,0,0,0-1.5,1.5v7.7H9.32a1.5,1.5,0,0,0,0,3ZM188.492,142.7a27.8,27.8,0,0,0-27.728-26.27H95.235A27.8,27.8,0,0,0,67.508,142.7h-6.15a9.11,9.11,0,0,1-9.1-9.1V42.405H203.742V133.6a9.11,9.11,0,0,1-9.1,9.1Zm-2.958,1.5a24.8,24.8,0,0,1-24.77,24.769H95.235a24.769,24.769,0,1,1,0-49.539h65.529A24.8,24.8,0,0,1,185.534,144.2ZM61.357,145.7h6.15a27.8,27.8,0,0,0,27.728,26.269h65.529A27.8,27.8,0,0,0,188.492,145.7h6.15a12.114,12.114,0,0,0,12.1-12.1V60.62h17.224a3.76,3.76,0,0,1,3.755,3.756V176.152a3.76,3.76,0,0,1-3.755,3.756H32.034a3.76,3.76,0,0,1-3.755-3.756V64.376a3.76,3.76,0,0,1,3.755-3.756H49.258V133.6A12.114,12.114,0,0,0,61.357,145.7ZM194.641,13.354a9.112,9.112,0,0,1,9.1,9.1V39.405H52.258V22.456a9.112,9.112,0,0,1,9.1-9.1ZM19.87,188.152V64.376A12.178,12.178,0,0,1,32.034,52.211H49.258V57.62H32.034a6.763,6.763,0,0,0-6.755,6.756V176.152a6.763,6.763,0,0,0,6.755,6.756H223.966a6.763,6.763,0,0,0,6.755-6.756V64.376a6.763,6.763,0,0,0-6.755-6.756H206.742V52.211h17.224A12.178,12.178,0,0,1,236.13,64.376V188.152a12.178,12.178,0,0,1-12.164,12.165H32.034A12.178,12.178,0,0,1,19.87,188.152Zm82.3,15.165h51.658v19.158H102.171ZM91.309,225.476h73.383v6.2H91.309Z" fill="#3f3679"/><path d="M69.682,32.722A6.342,6.342,0,1,0,63.34,26.38,6.349,6.349,0,0,0,69.682,32.722Zm0-9.684A3.342,3.342,0,1,1,66.34,26.38,3.345,3.345,0,0,1,69.682,23.038Z" fill="#3f3679"/><path d="M88.332,32.722A6.342,6.342,0,1,0,81.99,26.38,6.349,6.349,0,0,0,88.332,32.722Zm0-9.684A3.342,3.342,0,1,1,84.99,26.38,3.345,3.345,0,0,1,88.332,23.038Z" fill="#3f3679"/><path d="M106.981,32.722a6.342,6.342,0,1,0-6.342-6.342A6.349,6.349,0,0,0,106.981,32.722Zm0-9.684a3.342,3.342,0,1,1-3.342,3.342A3.345,3.345,0,0,1,106.981,23.038Z" fill="#3f3679"/><path d="M126.206,31.886h61.265a5.189,5.189,0,1,0,0-10.378H126.206a5.189,5.189,0,1,0,0,10.378Zm0-7.378h61.265a2.189,2.189,0,1,1,0,4.378H126.206a2.189,2.189,0,1,1,0-4.378Z" fill="#3f3679"/><path d="M101.5,133.805a.975.975,0,0,1,.975.975v13.084a6.7,6.7,0,0,1-1.762,4.977,6.619,6.619,0,0,1-4.875,1.747,7.389,7.389,0,0,1-5.356-1.907,6.753,6.753,0,0,1-1.932-4.409.986.986,0,0,1,.976-1.077h2.991a.981.981,0,0,1,.961.853q.295,2.029,2.128,2.029,1.89,0,1.89-2.213V134.781a.975.975,0,0,1,.975-.975Z" fill="#3f3679"/><path d="M117.814,150.63H111.5a.975.975,0,0,0-.923.66l-.831,2.434a.975.975,0,0,1-.923.66h-3.143a.975.975,0,0,1-.915-1.313l6.82-18.484a.975.975,0,0,1,.915-.638h4.376a.975.975,0,0,1,.915.638l6.818,18.484a.975.975,0,0,1-.915,1.313h-3.2a.975.975,0,0,1-.923-.66l-.831-2.434A.975.975,0,0,0,117.814,150.63Zm-1.02-5.072-1.207-3.567a.975.975,0,0,0-1.846,0l-1.221,3.567a.975.975,0,0,0,.923,1.291h2.428A.975.975,0,0,0,116.794,145.558Z" fill="#3f3679"/><path d="M131.072,134.479l3.89,11.96a.975.975,0,0,0,1.855,0l3.89-11.96a.975.975,0,0,1,.927-.674h3.245a.975.975,0,0,1,.921,1.3l-6.48,18.629a.975.975,0,0,1-.921.655h-5.047a.975.975,0,0,1-.921-.656L125.974,135.1a.975.975,0,0,1,.921-1.295h3.249A.975.975,0,0,1,131.072,134.479Z" fill="#3f3679"/><path d="M160.224,150.63h-6.318a.975.975,0,0,0-.923.66l-.831,2.434a.975.975,0,0,1-.923.66h-3.143a.975.975,0,0,1-.915-1.313l6.82-18.484a.975.975,0,0,1,.915-.638h4.376a.975.975,0,0,1,.915.638l6.818,18.484a.975.975,0,0,1-.915,1.313h-3.2a.975.975,0,0,1-.923-.66l-.831-2.434A.975.975,0,0,0,160.224,150.63Zm-1.02-5.072L158,141.991a.975.975,0,0,0-1.846,0l-1.221,3.567a.975.975,0,0,0,.923,1.291h2.428A.975.975,0,0,0,159.2,145.558Z" fill="#3f3679"/><rect x="66.667" y="54.667" width="7.857" height="7.857" fill="#3f3679"/><rect x="80.474" y="54.667" width="69.359" height="7.857" fill="#3f3679"/><rect x="155.641" y="54.667" width="12.517" height="7.857" fill="#3f3679"/><rect x="66.667" y="70.646" width="7.857" height="7.857" fill="#3f3679"/><rect x="80.474" y="70.646" width="55.413" height="7.857" fill="#3f3679"/><rect x="141.808" y="70.646" width="26.35" height="7.857" fill="#3f3679"/><rect x="66.667" y="86.625" width="7.857" height="7.857" fill="#3f3679"/><rect x="80.474" y="86.625" width="27.707" height="7.857" fill="#3f3679"/><rect x="119.404" y="86.625" width="48.754" height="7.857" fill="#3f3679"/><rect x="66.667" y="102.605" width="7.857" height="7.857" fill="#3f3679"/><rect x="80.474" y="102.605" width="16.201" height="7.857" fill="#3f3679"/><rect x="102.474" y="102.605" width="65.683" height="7.857" fill="#3f3679"/></svg>