<svg xmlns="http://www.w3.org/2000/svg" viewBox="0 0 256 256"><title>icons_</title><rect x="16.327" y="12.01" width="223.345" height="191.333" rx="15.327" ry="15.327" fill="#cecece"/><path d="M26.327,188.016V27.337A15.327,15.327,0,0,1,41.655,12.01h-10A15.327,15.327,0,0,0,16.327,27.337V188.016a15.327,15.327,0,0,0,15.327,15.327h10A15.327,15.327,0,0,1,26.327,188.016Z" fill="#afafaf"/><path d="M229.673,188.016V27.337A15.327,15.327,0,0,0,214.345,12.01h10a15.327,15.327,0,0,1,15.327,15.327V188.016a15.327,15.327,0,0,1-15.327,15.327h-10A15.327,15.327,0,0,0,229.673,188.016Z" fill="#e2e2e2"/><path d="M239.673,27.337a15.327,15.327,0,0,0-15.327-15.327H31.655A15.327,15.327,0,0,0,16.327,27.337V54.009H239.673Z" fill="#f8af23"/><path d="M41.655,12.009h-10A15.327,15.327,0,0,0,16.327,27.337V54.009h10V27.337A15.327,15.327,0,0,1,41.655,12.009Z" fill="#f87023"/><path d="M214.345,12.009h10a15.327,15.327,0,0,1,15.327,15.327V54.009h-10V27.337A15.327,15.327,0,0,0,214.345,12.009Z" fill="#f8d323"/><circle cx="43.688" cy="33.009" r="7" fill="#f46275"/><circle cx="70.65" cy="33.009" r="7" fill="#f46275"/><circle cx="97.612" cy="33.009" r="7" fill="#f46275"/><rect x="120.073" y="28.134" width="99.24" height="10.667" rx="5.333" ry="5.333" fill="#f46275"/><polygon points="188.836 93.68 161.507 66.351 67.164 66.351 67.164 233.018 188.836 233.018 188.836 93.68" fill="#63bce7"/><polygon points="161.507 66.351 151.507 66.351 178.836 93.68 178.836 233.018 188.836 233.018 188.836 93.68 161.507 66.351" fill="#63e2e7"/><rect x="67.164" y="66.351" width="10" height="166.667" fill="#6377e7"/><rect x="67.164" y="184" width="121.673" height="49.018" fill="#9e9e9e"/><rect x="67.164" y="184" width="10" height="49.018" fill="#707070"/><rect x="178.836" y="184" width="10" height="49.018" fill="#cecece"/><circle cx="127.918" cy="119.302" r="2.563" fill="#3f3679"/><path d="M123.088,190.821a1.283,1.283,0,0,1,1.283,1.283v23.022q0,5.586-3.044,8.605T112.9,226.75q-5.838,0-9.259-3.3a11.886,11.886,0,0,1-3.377-8.1,1.294,1.294,0,0,1,1.285-1.381h5.96a1.293,1.293,0,0,1,1.274,1.171q.414,3.81,3.715,3.81,3.27,0,3.271-3.825V192.1a1.283,1.283,0,0,1,1.283-1.283Z" fill="#f8af23"/><path d="M154.186,221.567a10.109,10.109,0,0,1-4.227,3.774,14.89,14.89,0,0,1-6.768,1.409,15.938,15.938,0,0,1-9.863-2.919,10.293,10.293,0,0,1-4.048-6.663,1.282,1.282,0,0,1,1.271-1.489h6.642a1.282,1.282,0,0,1,1.236.972,4.472,4.472,0,0,0,1.264,2.2,4.41,4.41,0,0,0,3.145,1.158,3.652,3.652,0,0,0,2.617-.906,3.172,3.172,0,0,0,.956-2.415,3.119,3.119,0,0,0-.881-2.264,6.9,6.9,0,0,0-2.189-1.485q-1.309-.579-3.623-1.384a44.185,44.185,0,0,1-5.51-2.239,10.136,10.136,0,0,1-3.674-3.22,10.485,10.485,0,0,1,.076-11.046,10.237,10.237,0,0,1,4.454-3.548,16.241,16.241,0,0,1,6.516-1.233q5.937,0,9.435,2.818a10.417,10.417,0,0,1,3.725,6.214,1.289,1.289,0,0,1-1.266,1.536h-6.793a1.294,1.294,0,0,1-1.23-.938,4.369,4.369,0,0,0-1.078-1.855,3.779,3.779,0,0,0-2.793-1.032,3.6,3.6,0,0,0-2.44.805,2.956,2.956,0,0,0-.931,2.365,3,3,0,0,0,.83,2.139,6.322,6.322,0,0,0,2.088,1.434q1.258.554,3.623,1.409a39.9,39.9,0,0,1,5.586,2.29,10.7,10.7,0,0,1,3.724,3.3,9.422,9.422,0,0,1,1.56,5.636A9.809,9.809,0,0,1,154.186,221.567Z" fill="#f8af23"/><path d="M43.687,24.509a8.5,8.5,0,1,0,8.5,8.5A8.51,8.51,0,0,0,43.687,24.509Zm0,14a5.5,5.5,0,1,1,5.5-5.5A5.506,5.506,0,0,1,43.687,38.509Z" fill="#3f3679"/><path d="M70.65,24.509a8.5,8.5,0,1,0,8.5,8.5A8.51,8.51,0,0,0,70.65,24.509Zm0,14a5.5,5.5,0,1,1,5.5-5.5A5.506,5.506,0,0,1,70.65,38.509Z" fill="#3f3679"/><path d="M97.612,24.509a8.5,8.5,0,1,0,8.5,8.5A8.51,8.51,0,0,0,97.612,24.509Zm0,14a5.5,5.5,0,1,1,5.5-5.5A5.506,5.506,0,0,1,97.612,38.509Z" fill="#3f3679"/><path d="M213.979,26.634H125.406a6.833,6.833,0,1,0,0,13.667h88.573a6.833,6.833,0,0,0,0-13.667Zm0,10.667H125.406a3.833,3.833,0,1,1,0-7.667h88.573a3.833,3.833,0,0,1,0,7.667Z" fill="#3f3679"/><path d="M27.323,242.491h-18a1.5,1.5,0,1,0,0,3h18a1.5,1.5,0,0,0,0-3Z" fill="#3f3679"/><path d="M246.68,242.491h-18a1.5,1.5,0,0,0,0,3h18a1.5,1.5,0,1,0,0-3Z" fill="#3f3679"/><path d="M218.479,242.491H37.521a1.5,1.5,0,0,0,0,3H218.479a1.5,1.5,0,0,0,0-3Z" fill="#3f3679"/><path d="M9.32,234.518H246.68a1.5,1.5,0,0,0,0-3H190.336V204.843h34.009a16.846,16.846,0,0,0,16.827-16.827V27.337a16.847,16.847,0,0,0-16.827-16.828H31.655A16.847,16.847,0,0,0,14.828,27.337V188.016a16.846,16.846,0,0,0,16.827,16.827H65.664v26.675H9.32a1.5,1.5,0,1,0,0,3ZM163.007,69.972l22.208,22.208H163.007Zm-1.5,25.208h25.83V182.5H68.664V67.851h91.343v25.83A1.5,1.5,0,0,0,161.507,95.181ZM17.828,27.337A13.843,13.843,0,0,1,31.655,13.509h192.69a13.843,13.843,0,0,1,13.827,13.828V52.509H17.828ZM31.655,201.843a13.843,13.843,0,0,1-13.827-13.827V55.509H238.172V188.016a13.843,13.843,0,0,1-13.827,13.827H190.336V93.681a1.5,1.5,0,0,0-.439-1.061l-27.33-27.33a1.5,1.5,0,0,0-1.061-.439H67.164a1.5,1.5,0,0,0-1.5,1.5V201.843ZM68.664,185.5H187.336v46.018H68.664Z" fill="#3f3679"/><path d="M94.95,115.971c0-1.931,1.1-3.276,2.082-3.276h3.582a1.5,1.5,0,1,0,0-3H97.032c-2.8,0-5.082,2.815-5.082,6.276v10.587c0,1.745-1.029,3.276-2.2,3.276h-3.7a1.5,1.5,0,0,0,0,3h3.7c1.172,0,2.2,1.531,2.2,3.276V146.7c0,3.46,2.28,6.276,5.082,6.276h3.582a1.5,1.5,0,1,0,0-3H97.032c-.985,0-2.082-1.345-2.082-3.276V136.109a6.85,6.85,0,0,0-1.835-4.776,6.85,6.85,0,0,0,1.835-4.776Z" fill="#3f3679"/><path d="M155.386,109.695a1.5,1.5,0,0,0,0,3h3.582c.985,0,2.082,1.345,2.082,3.276v10.587a6.85,6.85,0,0,0,1.835,4.776,6.85,6.85,0,0,0-1.835,4.776V146.7c0,1.931-1.1,3.276-2.082,3.276h-3.582a1.5,1.5,0,0,0,0,3h3.582c2.8,0,5.082-2.815,5.082-6.276V136.109c0-1.745,1.029-3.276,2.2-3.276h3.7a1.5,1.5,0,1,0,0-3h-3.7c-1.172,0-2.2-1.531-2.2-3.276V115.971c0-3.46-2.28-6.276-5.082-6.276Z" fill="#3f3679"/><path d="M127.918,125.76a1.5,1.5,0,0,0-1.5,1.5v18.667a1.5,1.5,0,1,0,3,0V127.26A1.5,1.5,0,0,0,127.918,125.76Z" fill="#3f3679"/><path d="M123.088,189.321h-6.039a2.786,2.786,0,0,0-2.783,2.783v23.022c0,2.147-.838,2.325-1.771,2.325s-1.976-.191-2.224-2.473a2.792,2.792,0,0,0-2.765-2.509h-5.959a2.794,2.794,0,0,0-2.782,2.981,13.381,13.381,0,0,0,3.833,9.084c2.559,2.466,6.024,3.716,10.3,3.716,3.983,0,7.174-1.162,9.485-3.454s3.488-5.548,3.488-9.67V192.1A2.786,2.786,0,0,0,123.088,189.321Zm-.217,25.805c0,3.338-.851,5.8-2.6,7.54s-4.166,2.584-7.373,2.584c-3.521,0-6.209-.941-8.218-2.876a10.247,10.247,0,0,1-2.9-6.9h5.534c.542,4.33,3.473,4.982,5.187,4.982,3.032,0,4.771-1.941,4.771-5.325V192.321h5.6Z" fill="#3f3679"/><path d="M151.031,206.123a41.312,41.312,0,0,0-5.771-2.371c-1.542-.558-2.729-1.019-3.53-1.372a4.857,4.857,0,0,1-1.6-1.091,1.5,1.5,0,0,1-.421-1.109c0-.875.31-1.143.411-1.23a2.15,2.15,0,0,1,1.46-.44,2.329,2.329,0,0,1,1.732.592,2.867,2.867,0,0,1,.7,1.231,2.783,2.783,0,0,0,2.665,2h6.793A2.789,2.789,0,0,0,156.209,199a11.926,11.926,0,0,0-4.253-7.08c-2.6-2.09-6.086-3.149-10.376-3.149a17.8,17.8,0,0,0-7.113,1.357,11.757,11.757,0,0,0-5.088,4.066,11.967,11.967,0,0,0-.063,12.777,11.663,11.663,0,0,0,4.214,3.684,45.839,45.839,0,0,0,5.695,2.318c1.5.522,2.681.973,3.51,1.339a5.455,5.455,0,0,1,1.72,1.159,1.618,1.618,0,0,1,.456,1.218,1.662,1.662,0,0,1-.487,1.326,2.214,2.214,0,0,1-1.585.5,2.944,2.944,0,0,1-2.119-.751,2.98,2.98,0,0,1-.838-1.48,2.785,2.785,0,0,0-2.688-2.1h-6.642a2.789,2.789,0,0,0-2.143,1,2.748,2.748,0,0,0-.605,2.25,11.8,11.8,0,0,0,4.623,7.6,17.467,17.467,0,0,0,10.766,3.22,16.426,16.426,0,0,0,7.443-1.569,11.633,11.633,0,0,0,4.834-4.336,11.336,11.336,0,0,0,1.651-5.961,10.915,10.915,0,0,0-1.844-6.513A12.223,12.223,0,0,0,151.031,206.123Zm1.872,14.666a8.563,8.563,0,0,1-3.62,3.213,13.492,13.492,0,0,1-6.092,1.248,14.559,14.559,0,0,1-8.961-2.617,8.729,8.729,0,0,1-3.421-5.454h6.209a5.807,5.807,0,0,0,5.82,4.328,5.112,5.112,0,0,0,3.648-1.317,4.691,4.691,0,0,0,1.424-3.5,4.644,4.644,0,0,0-1.3-3.309,8.424,8.424,0,0,0-2.658-1.812c-.917-.4-2.139-.872-3.743-1.431a43.006,43.006,0,0,1-5.32-2.159,8.708,8.708,0,0,1-3.132-2.757,7.913,7.913,0,0,1-1.253-4.686,7.829,7.829,0,0,1,1.342-4.628,8.691,8.691,0,0,1,3.819-3.028,14.836,14.836,0,0,1,5.919-1.109c3.588,0,6.446.836,8.494,2.486a8.828,8.828,0,0,1,3.139,5.082h-6.366a5.837,5.837,0,0,0-1.414-2.354,5.234,5.234,0,0,0-3.853-1.471,5.068,5.068,0,0,0-3.421,1.17,4.41,4.41,0,0,0-1.45,3.5,4.525,4.525,0,0,0,1.239,3.167,7.831,7.831,0,0,0,2.574,1.778c.874.385,2.09.858,3.748,1.458a38.585,38.585,0,0,1,5.371,2.2,9.252,9.252,0,0,1,3.2,2.844,8.017,8.017,0,0,1,1.277,4.759A8.261,8.261,0,0,1,152.9,220.789Z" fill="#3f3679"/></svg>