<svg xmlns="http://www.w3.org/2000/svg" viewBox="0 0 256 256"><title>icons_</title><rect x="18.37" y="49.464" width="219.26" height="151.106" rx="13.665" ry="13.665" fill="#cecece"/><path d="M28.37,186.9V63.128A13.681,13.681,0,0,1,42.035,49.464h-10A13.681,13.681,0,0,0,18.37,63.128V186.9a13.681,13.681,0,0,0,13.665,13.665h10A13.681,13.681,0,0,1,28.37,186.9Z" fill="#afafaf"/><path d="M227.63,186.9V63.128a13.681,13.681,0,0,0-13.665-13.665h10A13.681,13.681,0,0,1,237.63,63.128V186.9a13.681,13.681,0,0,1-13.665,13.665h-10A13.681,13.681,0,0,0,227.63,186.9Z" fill="#e2e2e2"/><rect x="26.779" y="57.872" width="202.442" height="122.288" rx="5.256" ry="5.256" fill="#63bce7"/><path d="M36.779,174.9V63.128a5.271,5.271,0,0,1,5.256-5.256h-10a5.271,5.271,0,0,0-5.256,5.256V174.9a5.271,5.271,0,0,0,5.256,5.256h10A5.271,5.271,0,0,1,36.779,174.9Z" fill="#6377e7"/><path d="M219.221,174.9V63.128a5.271,5.271,0,0,0-5.256-5.256h10a5.271,5.271,0,0,1,5.256,5.256V174.9a5.271,5.271,0,0,1-5.256,5.256h-10A5.271,5.271,0,0,0,219.221,174.9Z" fill="#63e2e7"/><rect x="89.809" y="222.728" width="76.383" height="9.197" fill="#9e9e9e"/><rect x="89.809" y="222.728" width="10" height="9.197" fill="#707070"/><rect x="100.67" y="200.569" width="54.659" height="22.158" fill="#cecece"/><rect x="100.67" y="200.569" width="10" height="22.158" fill="#afafaf"/><circle cx="128" cy="190.365" r="4.5" fill="#9e9e9e"/><polygon points="188.979 40.496 161.586 13.102 67.021 13.102 67.021 180.16 188.979 180.16 188.979 40.496" fill="#f8af23"/><polygon points="161.586 13.102 151.586 13.102 178.979 40.496 178.979 180.16 188.979 180.16 188.979 40.496 161.586 13.102" fill="#f8d323"/><rect x="67.021" y="13.102" width="10" height="167.058" fill="#f87023"/><rect x="40.502" y="34.997" width="97.962" height="45.75" rx="5" ry="5" fill="#cecece"/><path d="M50.5,75.747V40a5,5,0,0,1,5-5h-10a5,5,0,0,0-5,5v35.75a5,5,0,0,0,5,5h10A5,5,0,0,1,50.5,75.747Z" fill="#afafaf"/><path d="M58.27,64.512h4.25a1.247,1.247,0,0,1,1.247,1.247V67.14a1.247,1.247,0,0,1-1.247,1.247H53.212a1.247,1.247,0,0,1-1.247-1.247V48.723a1.247,1.247,0,0,1,1.247-1.247h2.565a1.247,1.247,0,0,1,1.247,1.247V63.266A1.247,1.247,0,0,0,58.27,64.512Z" fill="#3f3679"/><path d="M81.409,48.526a10.019,10.019,0,0,1,3.8,3.815,11.614,11.614,0,0,1-.015,11.047,10.087,10.087,0,0,1-3.815,3.83,11.048,11.048,0,0,1-10.677,0,10.087,10.087,0,0,1-3.815-3.83,11.559,11.559,0,0,1,0-11.047A10.123,10.123,0,0,1,70.7,48.526a11.106,11.106,0,0,1,10.707,0Zm-9.316,4.939a6.286,6.286,0,0,0-1.464,4.392,6.3,6.3,0,0,0,1.464,4.378,5.587,5.587,0,0,0,7.882,0,6.258,6.258,0,0,0,1.479-4.378,6.3,6.3,0,0,0-1.464-4.377,5.624,5.624,0,0,0-7.9-.015Z" fill="#3f3679"/><path d="M105.706,49.191a8.018,8.018,0,0,1,2.662,3.465,1.258,1.258,0,0,1-1.152,1.741h-2.972a1.237,1.237,0,0,1-1.032-.539,4.172,4.172,0,0,0-1.322-1.251,4.973,4.973,0,0,0-2.632-.665,4.92,4.92,0,0,0-3.845,1.611,6.283,6.283,0,0,0-1.449,4.363A6.382,6.382,0,0,0,95.487,62.5a5.7,5.7,0,0,0,4.333,1.6,5.232,5.232,0,0,0,3.164-.99,4.823,4.823,0,0,0,.871-.817,1.244,1.244,0,0,0-.992-2.007h-3.1a1.247,1.247,0,0,1-1.247-1.247V57.891a1.247,1.247,0,0,1,1.247-1.247h8.125a1.247,1.247,0,0,1,1.247,1.247v3.531a1.313,1.313,0,0,1-.07.431,10.251,10.251,0,0,1-1.822,3.192,9.747,9.747,0,0,1-3.327,2.543,10.539,10.539,0,0,1-4.629.976,10.988,10.988,0,0,1-5.531-1.346A9.209,9.209,0,0,1,90.1,63.447a12.529,12.529,0,0,1,0-11.061,9.248,9.248,0,0,1,3.638-3.771,10.854,10.854,0,0,1,5.487-1.346A10.449,10.449,0,0,1,105.706,49.191Z" fill="#3f3679"/><path d="M126.157,65.548a5.939,5.939,0,0,1-2.485,2.218,8.749,8.749,0,0,1-3.978.828,9.364,9.364,0,0,1-5.8-1.715,5.978,5.978,0,0,1-2.2-3.159,1.26,1.26,0,0,1,1.193-1.633h2.945a1.249,1.249,0,0,1,1.154.866,2.544,2.544,0,0,0,.652,1,2.587,2.587,0,0,0,1.848.68,2.147,2.147,0,0,0,1.538-.532,1.867,1.867,0,0,0,.562-1.42,1.834,1.834,0,0,0-.518-1.331,4.069,4.069,0,0,0-1.287-.873q-.769-.34-2.129-.813a26.132,26.132,0,0,1-3.239-1.316,5.953,5.953,0,0,1-2.159-1.893,6.162,6.162,0,0,1,.044-6.492,6.018,6.018,0,0,1,2.618-2.085,9.542,9.542,0,0,1,3.83-.725,8.593,8.593,0,0,1,5.546,1.656,6.028,6.028,0,0,1,2,2.914,1.256,1.256,0,0,1-1.191,1.641h-3.007a1.274,1.274,0,0,1-1.165-.823,2.474,2.474,0,0,0-.537-.818,2.22,2.22,0,0,0-1.642-.606,2.114,2.114,0,0,0-1.434.473,1.735,1.735,0,0,0-.547,1.39,1.761,1.761,0,0,0,.488,1.257,3.708,3.708,0,0,0,1.227.843q.739.326,2.129.828a23.449,23.449,0,0,1,3.283,1.346,6.283,6.283,0,0,1,2.188,1.937A5.535,5.535,0,0,1,127,62.5,5.767,5.767,0,0,1,126.157,65.548Z" fill="#3f3679"/><path d="M128,196.365a6,6,0,1,0-6-6A6.007,6.007,0,0,0,128,196.365Zm0-9a3,3,0,1,1-3,3A3,3,0,0,1,128,187.365Z" fill="#3f3679"/><path d="M27.323,241.4h-18a1.5,1.5,0,0,0,0,3h18a1.5,1.5,0,1,0,0-3Z" fill="#3f3679"/><path d="M246.68,241.4h-18a1.5,1.5,0,0,0,0,3h18a1.5,1.5,0,0,0,0-3Z" fill="#3f3679"/><path d="M218.479,241.4H37.521a1.5,1.5,0,0,0,0,3H218.479a1.5,1.5,0,0,0,0-3Z" fill="#3f3679"/><path d="M9.32,233.425H246.68a1.5,1.5,0,0,0,0-3H167.691v-7.7a1.5,1.5,0,0,0-1.5-1.5h-9.362V202.069h67.137A15.182,15.182,0,0,0,239.13,186.9V63.128a15.182,15.182,0,0,0-15.164-15.165H190.479V40.5a1.5,1.5,0,0,0-.439-1.061L162.646,12.042a1.5,1.5,0,0,0-1.061-.439H67.021a1.5,1.5,0,0,0-1.5,1.5V33.5H45.5A6.508,6.508,0,0,0,39,40v7.966H32.034A15.182,15.182,0,0,0,16.87,63.128V186.9a15.182,15.182,0,0,0,15.164,15.165H99.171v19.158H89.809a1.5,1.5,0,0,0-1.5,1.5v7.7H9.32a1.5,1.5,0,0,0,0,3Zm153.766-216.7L185.358,39H163.086Zm27.394,42.649h33.486a3.759,3.759,0,0,1,3.755,3.755V174.9a3.76,3.76,0,0,1-3.755,3.756H190.479ZM68.521,14.6h91.565V40.5a1.5,1.5,0,0,0,1.5,1.5h25.894V178.661H68.521V82.248h64.943a6.508,6.508,0,0,0,6.5-6.5V40a6.508,6.508,0,0,0-6.5-6.5H68.521ZM32.034,178.661a3.76,3.76,0,0,1-3.755-3.756V63.128a3.759,3.759,0,0,1,3.755-3.755H39V75.748a6.508,6.508,0,0,0,6.5,6.5H65.521v96.413ZM42,40a3.5,3.5,0,0,1,3.5-3.5h87.962a3.5,3.5,0,0,1,3.5,3.5v35.75a3.5,3.5,0,0,1-3.5,3.5H45.5a3.5,3.5,0,0,1-3.5-3.5ZM19.87,186.9V63.128A12.178,12.178,0,0,1,32.034,50.963H39v5.409H32.034a6.763,6.763,0,0,0-6.755,6.755V174.9a6.763,6.763,0,0,0,6.755,6.756H223.966a6.763,6.763,0,0,0,6.755-6.756V63.128a6.763,6.763,0,0,0-6.755-6.755H190.479V50.963h33.486A12.178,12.178,0,0,1,236.13,63.128V186.9a12.178,12.178,0,0,1-12.164,12.165H32.034A12.178,12.178,0,0,1,19.87,186.9Zm82.3,15.165h51.658v19.158H102.171ZM91.309,224.228h73.383v6.2H91.309Z" fill="#3f3679"/><path d="M91.885,110.132a1.5,1.5,0,0,0,2.121-2.121l-9.533-9.534,9.533-9.534a1.5,1.5,0,0,0-2.121-2.121L81.291,97.417a1.5,1.5,0,0,0,0,2.121Z" fill="#3f3679"/><path d="M112.982,110.132a1.5,1.5,0,0,0,2.121,0L125.7,99.538a1.5,1.5,0,0,0,0-2.121L115.1,86.822a1.5,1.5,0,1,0-2.121,2.121l9.533,9.534-9.533,9.534A1.5,1.5,0,0,0,112.982,110.132Z" fill="#3f3679"/><path d="M98.721,110.465a1.5,1.5,0,0,0,1.948-.838l8.438-21.188a1.5,1.5,0,0,0-2.787-1.11l-8.437,21.188A1.5,1.5,0,0,0,98.721,110.465Z" fill="#3f3679"/><path d="M80.852,122.5a1.5,1.5,0,0,0,1.5,1.5h90.4a1.5,1.5,0,0,0,0-3h-90.4A1.5,1.5,0,0,0,80.852,122.5Z" fill="#3f3679"/><path d="M172.75,131.806h-90.4a1.5,1.5,0,0,0,0,3h90.4a1.5,1.5,0,0,0,0-3Z" fill="#3f3679"/><path d="M172.75,142.612h-90.4a1.5,1.5,0,0,0,0,3h90.4a1.5,1.5,0,0,0,0-3Z" fill="#3f3679"/><path d="M172.75,153.418h-90.4a1.5,1.5,0,0,0,0,3h90.4a1.5,1.5,0,0,0,0-3Z" fill="#3f3679"/><path d="M172.75,164.225h-90.4a1.5,1.5,0,0,0,0,3h90.4a1.5,1.5,0,0,0,0-3Z" fill="#3f3679"/></svg>