<svg xmlns="http://www.w3.org/2000/svg" viewBox="0 0 256 256"><title>icons_</title><rect x="86.208" y="12.598" width="83.583" height="137.164" rx="5" ry="5" fill="#63bce7"/><path d="M86.208,144.762a5,5,0,0,0,5,5h73.583a5,5,0,0,0,5-5V131.429H86.208Z" fill="#9e9e9e"/><path d="M169.792,17.6a5,5,0,0,0-5-5H91.208a5,5,0,0,0-5,5v5.5h83.583Z" fill="#9e9e9e"/><path d="M159.792,144.762V17.6a5,5,0,0,0-5-5h10a5,5,0,0,1,5,5V144.762a5,5,0,0,1-5,5h-10A5,5,0,0,0,159.792,144.762Z" fill="#63e2e7"/><path d="M159.792,144.762V131.429h10v13.333a5,5,0,0,1-5,5h-10A5,5,0,0,0,159.792,144.762Z" fill="#cecece"/><path d="M154.792,12.6h10a5,5,0,0,1,5,5v5.5h-10V17.6A5,5,0,0,0,154.792,12.6Z" fill="#cecece"/><circle cx="128" cy="140.596" r="4.708" fill="#3f3679"/><rect x="97.747" y="31" width="60.505" height="33.25" fill="#f8af23"/><rect x="97.747" y="73.375" width="26.926" height="47.125" fill="#f46275"/><rect x="131.326" y="73.375" width="26.926" height="47.125" fill="#cecece"/><path d="M169.792,51.319V93.906l-8.382-9.834a9.77,9.77,0,0,0-13.734-1.094h0a9.771,9.771,0,0,0-1.095,13.734l19.069,22.372s-5.692,24.018,9.311,37.742h42.413l-3.76-51.6c-.451-4.765-3.389-8.8-6.377-12.13Z" fill="#f8af23"/><path d="M213.614,105.228c-.451-4.765-3.39-8.8-6.377-12.13L169.792,51.319V62.477L197.236,93.1c2.988,3.333,5.926,7.365,6.377,12.13l3.76,51.6h10Z" fill="#f8d323"/><rect x="156.203" y="156.824" width="74.223" height="30.613" fill="#cecece"/><rect x="220.425" y="156.824" width="10" height="30.613" fill="#e2e2e2"/><rect x="160.601" y="187.436" width="65.427" height="44.993" fill="#63bce7"/><rect x="216.027" y="187.436" width="10" height="44.993" fill="#63e2e7"/><path d="M86.208,51.319V93.906l8.382-9.834a9.77,9.77,0,0,1,13.734-1.094h0a9.771,9.771,0,0,1,1.095,13.734L90.35,119.082s5.692,24.018-9.311,37.742H38.626l3.76-51.6c.451-4.765,3.389-8.8,6.377-12.13Z" fill="#f8af23"/><path d="M42.386,105.228c.451-4.765,3.39-8.8,6.377-12.13L86.208,51.319V62.477L58.764,93.1c-2.988,3.333-5.926,7.365-6.377,12.13l-3.76,51.6h-10Z" fill="#f87023"/><rect x="25.575" y="156.824" width="74.223" height="30.613" transform="translate(125.372 344.26) rotate(-180)" fill="#cecece"/><rect x="25.575" y="156.824" width="10" height="30.613" fill="#afafaf"/><rect x="29.973" y="187.436" width="65.427" height="44.993" transform="translate(125.372 419.866) rotate(-180)" fill="#63bce7"/><rect x="29.973" y="187.436" width="10" height="44.993" fill="#6377e7"/><path d="M159.752,64.25V31a1.5,1.5,0,0,0-1.5-1.5h-60.5a1.5,1.5,0,0,0-1.5,1.5V64.25a1.5,1.5,0,0,0,1.5,1.5h60.5A1.5,1.5,0,0,0,159.752,64.25Zm-3-1.5h-57.5V32.5h57.5Z" fill="#3f3679"/><path d="M208.56,170.63a1.5,1.5,0,0,0,0,3h8.814a1.5,1.5,0,0,0,0-3Z" fill="#3f3679"/><path d="M38.626,173.63H47.44a1.5,1.5,0,0,0,0-3H38.626a1.5,1.5,0,0,0,0,3Z" fill="#3f3679"/><path d="M27.323,241.9h-18a1.5,1.5,0,1,0,0,3h18a1.5,1.5,0,1,0,0-3Z" fill="#3f3679"/><path d="M246.68,241.9h-18a1.5,1.5,0,0,0,0,3h18a1.5,1.5,0,0,0,0-3Z" fill="#3f3679"/><path d="M218.479,241.9H37.521a1.5,1.5,0,0,0,0,3H218.479a1.5,1.5,0,0,0,0-3Z" fill="#3f3679"/><path d="M248.18,232.429a1.5,1.5,0,0,0-1.5-1.5H227.527V188.937h2.9a1.5,1.5,0,0,0,1.5-1.5V156.824a1.5,1.5,0,0,0-1.5-1.5H218.769l-3.662-50.238c-.512-5.405-3.878-9.781-6.753-12.989L171.292,50.745V17.6a6.508,6.508,0,0,0-6.5-6.5H91.208a6.508,6.508,0,0,0-6.5,6.5V50.745L47.646,92.1C44.771,95.3,41.4,99.681,40.89,105.118l-3.659,50.206H25.575a1.5,1.5,0,0,0-1.5,1.5v30.612a1.5,1.5,0,0,0,1.5,1.5h2.9v41.992H9.32a1.5,1.5,0,1,0,0,3H246.68A1.5,1.5,0,0,0,248.18,232.429Zm-19.255-46.492H157.7V173.63h41.306a1.5,1.5,0,0,0,0-3H157.7V158.324h71.223Zm-129.128,3a1.5,1.5,0,0,0,1.5-1.5V156.824a1.5,1.5,0,0,0-1.5-1.5H84.561A30.985,30.985,0,0,0,88,150.4a6.486,6.486,0,0,0,3.21.862h73.583A6.5,6.5,0,0,0,168,150.4a31,31,0,0,0,3.435,4.92H156.2a1.5,1.5,0,0,0-1.5,1.5v30.612a1.5,1.5,0,0,0,1.5,1.5h2.9v41.992H96.9V188.937Zm9.5-107.1a11.228,11.228,0,0,0-10.05-2.329V74.875h23.926V119H99.248v-8.045l11.313-13.272A11.254,11.254,0,0,0,109.3,81.836ZM97.748,122h26.926a1.5,1.5,0,0,0,1.5-1.5V73.375a1.5,1.5,0,0,0-1.5-1.5H97.748a1.5,1.5,0,0,0-1.5,1.5v7.372a11.179,11.179,0,0,0-2.8,2.352l-5.741,6.735V24.6h80.583V89.833L162.551,83.1a11.169,11.169,0,0,0-2.8-2.353V73.375a1.5,1.5,0,0,0-1.5-1.5H131.327a1.5,1.5,0,0,0-1.5,1.5V120.5a1.5,1.5,0,0,0,1.5,1.5h26.926a1.5,1.5,0,0,0,1.5-1.5v-6.025l4.278,5.019a54.847,54.847,0,0,0-.937,10.436H92.907a54.847,54.847,0,0,0-.937-10.436l4.278-5.019V120.5A1.5,1.5,0,0,0,97.748,122Zm47.692-24.316,11.313,13.272V119H132.827V74.875h23.926v4.631a11.232,11.232,0,0,0-11.313,18.178ZM92.815,132.929h70.371a41.819,41.819,0,0,0,3.464,14.791,3.493,3.493,0,0,1-1.858.543H91.208a3.491,3.491,0,0,1-1.859-.541A41.817,41.817,0,0,0,92.815,132.929Zm113.3-38.83c2.569,2.866,5.572,6.736,6,11.238l3.643,49.987H175.552c-5.642-5.381-8.793-12.954-9.37-22.522a51.623,51.623,0,0,1,.928-13.375,1.5,1.5,0,0,0-.318-1.317L147.723,95.738a8.242,8.242,0,0,1,12.545-10.694l8.383,9.835,15.917,18.673a1.5,1.5,0,1,0,2.283-1.945L171.292,93.354V55.24ZM87.708,17.6a3.5,3.5,0,0,1,3.5-3.5h73.583a3.5,3.5,0,0,1,3.5,3.5v4H87.708ZM43.879,105.369c.43-4.534,3.433-8.4,6-11.271L84.708,55.24V93.354L69.15,111.606a1.5,1.5,0,1,0,2.283,1.945L87.35,94.879l8.383-9.835a8.242,8.242,0,0,1,12.545,10.694L89.208,118.109a1.5,1.5,0,0,0-.318,1.317,51.623,51.623,0,0,1,.928,13.375c-.577,9.568-3.729,17.142-9.37,22.522H40.239Zm-16.8,52.955H98.3V170.63H56.991a1.5,1.5,0,0,0,0,3H98.3v12.307H27.075Zm4.4,72.6V188.937H93.9v41.992Zm130.628,0V188.937h62.427v41.992Z" fill="#3f3679"/></svg>