<svg xmlns="http://www.w3.org/2000/svg" viewBox="0 0 256 256"><title>icons_</title><rect x="75.761" y="12.598" width="83.583" height="137.164" rx="5" ry="5" fill="#63bce7"/><path d="M75.761,144.762a5,5,0,0,0,5,5h73.583a5,5,0,0,0,5-5V131.429H75.761Z" fill="#9e9e9e"/><path d="M159.344,17.6a5,5,0,0,0-5-5H80.761a5,5,0,0,0-5,5v5.5h83.583Z" fill="#9e9e9e"/><path d="M149.344,144.762V17.6a5,5,0,0,0-5-5h10a5,5,0,0,1,5,5V144.762a5,5,0,0,1-5,5h-10A5,5,0,0,0,149.344,144.762Z" fill="#63e2e7"/><path d="M149.344,144.762V131.429h10v13.333a5,5,0,0,1-5,5h-10A5,5,0,0,0,149.344,144.762Z" fill="#cecece"/><path d="M144.344,12.6h10a5,5,0,0,1,5,5v5.5h-10V17.6A5,5,0,0,0,144.344,12.6Z" fill="#cecece"/><circle cx="117.553" cy="140.596" r="4.708" fill="#3f3679"/><path d="M159.344,51.319V93.906l-8.382-9.834a9.77,9.77,0,0,0-13.734-1.094h0a9.771,9.771,0,0,0-1.095,13.734L155.2,119.082s-5.692,24.018,9.311,37.742h42.413l-3.76-51.6c-.451-4.765-3.389-8.8-6.377-12.13Z" fill="#f8af23"/><path d="M203.166,105.228c-.451-4.765-3.39-8.8-6.377-12.13L159.344,51.319V62.477L186.789,93.1c2.988,3.333,5.926,7.365,6.377,12.13l3.76,51.6h10Z" fill="#f8d323"/><rect x="145.755" y="156.824" width="74.223" height="30.613" fill="#cecece"/><rect x="209.978" y="156.824" width="10" height="30.613" fill="#e2e2e2"/><rect x="150.153" y="187.436" width="65.427" height="44.993" fill="#63bce7"/><rect x="205.58" y="187.436" width="10" height="44.993" fill="#63e2e7"/><path d="M46.762,86.822c.3.848.648,1.664,1.024,2.471l-7.6,7.6L55.128,111.83l7.6-7.6c.808.376,1.631.72,2.471,1.024V116H86.317V105.256c.84-.3,1.663-.648,2.471-1.024l7.6,7.6,14.939-14.939-7.6-7.6c.376-.808.72-1.623,1.024-2.471H115.5V65.7H104.751c-.3-.84-.648-1.664-1.024-2.471l7.6-7.6L96.386,40.693l-7.6,7.606c-.808-.376-1.631-.728-2.471-1.032V36.526H65.2v10.74c-.84.3-1.663.656-2.471,1.032l-7.6-7.606L40.189,55.632l7.6,7.6c-.376.808-.72,1.631-1.024,2.471H36.022V86.822Z" fill="#9e9e9e"/><path d="M57.786,89.293c-.376-.808-.72-1.624-1.024-2.471h-10c.3.848.648,1.663,1.024,2.471l-7.6,7.6L55.128,111.83l5-5L50.189,96.89Z" fill="#707070"/><rect x="36.022" y="65.701" width="10" height="21.121" fill="#707070"/><path d="M57.786,63.23l-7.6-7.6L60.125,45.7l-5-5L40.189,55.632l7.6,7.6c-.376.808-.72,1.632-1.024,2.471h10C57.066,64.861,57.41,64.037,57.786,63.23Z" fill="#707070"/><circle cx="75.761" cy="76.263" r="13.45" fill="#f46275"/><path d="M198.112,173.63h8.814a1.5,1.5,0,0,0,0-3h-8.814a1.5,1.5,0,0,0,0,3Z" fill="#3f3679"/><path d="M90.711,76.263a14.95,14.95,0,1,0-14.95,14.95A14.967,14.967,0,0,0,90.711,76.263Zm-26.9,0a11.95,11.95,0,1,1,11.95,11.95A11.963,11.963,0,0,1,63.811,76.263Z" fill="#3f3679"/><path d="M27.323,241.9h-18a1.5,1.5,0,0,0,0,3h18a1.5,1.5,0,1,0,0-3Z" fill="#3f3679"/><path d="M246.68,241.9h-18a1.5,1.5,0,0,0,0,3h18a1.5,1.5,0,0,0,0-3Z" fill="#3f3679"/><path d="M218.479,241.9H37.521a1.5,1.5,0,0,0,0,3H218.479a1.5,1.5,0,0,0,0-3Z" fill="#3f3679"/><path d="M9.32,233.929H246.68a1.5,1.5,0,0,0,0-3h-29.6V188.937h2.9a1.5,1.5,0,0,0,1.5-1.5V156.824a1.5,1.5,0,0,0-1.5-1.5H208.321l-3.662-50.238c-.512-5.406-3.878-9.782-6.753-12.989L160.844,50.744V17.6a6.508,6.508,0,0,0-6.5-6.5H80.761a6.508,6.508,0,0,0-6.5,6.5V35.023H65.2a1.5,1.5,0,0,0-1.5,1.5v9.712q-.318.129-.64.268l-6.869-6.87a1.5,1.5,0,0,0-2.121,0L39.132,54.571a1.5,1.5,0,0,0,0,2.121L46,63.561q-.139.323-.268.64H36.021a1.5,1.5,0,0,0-1.5,1.5V86.824a1.5,1.5,0,0,0,1.5,1.5h9.713q.129.317.268.64l-6.87,6.87a1.5,1.5,0,0,0,0,2.121l14.938,14.937a1.5,1.5,0,0,0,2.121,0l6.869-6.869q.322.139.64.268V116a1.5,1.5,0,0,0,1.5,1.5h9.062v27.261a6.508,6.508,0,0,0,6.5,6.5h73.583a6.5,6.5,0,0,0,3.212-.859,30.994,30.994,0,0,0,3.436,4.921H145.755a1.5,1.5,0,0,0-1.5,1.5v30.613a1.5,1.5,0,0,0,1.5,1.5h2.9v41.993H9.32a1.5,1.5,0,0,0,0,3ZM77.261,17.6a3.5,3.5,0,0,1,3.5-3.5h73.583a3.5,3.5,0,0,1,3.5,3.5v4H77.261ZM65.713,103.851c-.763-.278-1.53-.6-2.348-.98a1.5,1.5,0,0,0-1.7.3l-6.54,6.54L42.313,96.894l6.541-6.541a1.5,1.5,0,0,0,.3-1.695c-.383-.821-.7-1.589-.98-2.348a1.5,1.5,0,0,0-1.409-.987H37.521V67.2h9.242a1.5,1.5,0,0,0,1.409-.986c.277-.761.6-1.529.98-2.348a1.5,1.5,0,0,0-.3-1.695l-6.541-6.54L55.13,42.816l6.54,6.54a1.5,1.5,0,0,0,1.7.3c.817-.382,1.585-.7,2.348-.98a1.5,1.5,0,0,0,.986-1.409V38.023H84.823v9.242a1.5,1.5,0,0,0,.986,1.409c.763.278,1.53.6,2.347.98a1.5,1.5,0,0,0,1.7-.3l6.541-6.541,12.815,12.816-6.54,6.54a1.5,1.5,0,0,0-.3,1.695c.38.813.7,1.581.979,2.348a1.5,1.5,0,0,0,1.409.986H114V85.324h-9.242a1.5,1.5,0,0,0-1.409.987c-.279.765-.6,1.533-.979,2.348a1.5,1.5,0,0,0,.3,1.695l6.54,6.541L96.393,109.709l-6.541-6.54a1.5,1.5,0,0,0-1.7-.3c-.816.381-1.584.7-2.347.98a1.5,1.5,0,0,0-.986,1.409V114.5H66.7V105.26A1.5,1.5,0,0,0,65.713,103.851ZM86.323,117.5a1.5,1.5,0,0,0,1.5-1.5v-9.712q.316-.128.639-.267l6.87,6.869a1.5,1.5,0,0,0,2.121,0L112.39,97.955a1.5,1.5,0,0,0,0-2.121l-6.869-6.87q.139-.322.268-.64H115.5a1.5,1.5,0,0,0,1.5-1.5V65.7a1.5,1.5,0,0,0-1.5-1.5h-9.712q-.129-.318-.268-.639l6.869-6.87a1.5,1.5,0,0,0,0-2.121L97.453,39.634a1.5,1.5,0,0,0-2.121,0l-6.87,6.87q-.322-.139-.639-.267V36.523a1.5,1.5,0,0,0-1.5-1.5H77.261V24.6h80.583V89.833L152.1,83.1a11.242,11.242,0,0,0-17.111,14.585l18.591,21.81a54.829,54.829,0,0,0-.937,10.435H77.261V117.5Zm68.021,30.761H80.761a3.5,3.5,0,0,1-3.5-3.5V132.929h75.477A41.811,41.811,0,0,0,156.2,147.72,3.5,3.5,0,0,1,154.344,148.262Zm1.392-15.46a51.635,51.635,0,0,1,.928-13.375,1.5,1.5,0,0,0-.318-1.318L137.275,95.738A8.242,8.242,0,1,1,149.82,85.045l8.383,9.834,15.916,18.673a1.5,1.5,0,0,0,2.283-1.946L160.845,93.353V55.24L195.672,94.1c2.568,2.865,5.571,6.735,6,11.237l3.644,49.987H165.105C159.463,149.943,156.312,142.37,155.735,132.8Zm-8.48,40.828h41.307a1.5,1.5,0,0,0,0-3H147.255V158.324h71.224v27.613H147.255Zm4.4,15.307H214.08v41.993H151.653Z" fill="#3f3679"/></svg>