<svg xmlns="http://www.w3.org/2000/svg" viewBox="0 0 256 256"><title>icons_</title><rect x="169.726" y="8.807" width="67.077" height="92.511" rx="5" ry="5" fill="#cecece"/><path d="M226.8,96.317V13.807a5,5,0,0,0-5-5h10a5,5,0,0,1,5,5V96.317a5,5,0,0,1-5,5h-10A5,5,0,0,0,226.8,96.317Z" fill="#e2e2e2"/><circle cx="203.265" cy="43.573" r="20.623" fill="#63bce7"/><circle cx="203.265" cy="43.573" r="9.541" fill="#9e9e9e"/><circle cx="179.197" cy="18.037" r="3.761" fill="#f46275"/><circle cx="227.332" cy="18.037" r="3.761" fill="#f46275"/><circle cx="179.197" cy="92.087" r="3.761" fill="#f46275"/><circle cx="227.332" cy="92.087" r="3.761" fill="#f46275"/><polygon points="203.265 43.573 182.642 74.922 194.735 74.922 203.265 43.573" fill="#f46275"/><rect x="19.197" y="8.807" width="67.077" height="92.511" rx="5" ry="5" fill="#cecece"/><path d="M29.2,96.317V13.807a5,5,0,0,1,5-5h-10a5,5,0,0,0-5,5V96.317a5,5,0,0,0,5,5h10A5,5,0,0,1,29.2,96.317Z" fill="#afafaf"/><circle cx="52.735" cy="43.573" r="20.623" fill="#63bce7"/><circle cx="52.735" cy="43.573" r="9.541" fill="#9e9e9e"/><circle cx="28.668" cy="18.037" r="3.761" fill="#f46275"/><circle cx="76.803" cy="18.037" r="3.761" fill="#f46275"/><circle cx="28.668" cy="92.087" r="3.761" fill="#f46275"/><circle cx="76.803" cy="92.087" r="3.761" fill="#f46275"/><polygon points="52.735 43.573 32.113 74.922 44.206 74.922 52.735 43.573" fill="#f46275"/><polygon points="128 65.531 20.906 236.22 128 236.22 235.094 236.22 128 65.531" fill="#cecece"/><polygon points="128 65.531 20.906 236.221 30.906 236.221 133 73.5 128 65.531" fill="#afafaf"/><polygon points="128 65.531 235.094 236.221 225.094 236.221 123 73.5 128 65.531" fill="#e2e2e2"/><polygon points="65.291 165.482 20.906 236.22 109.676 236.22 65.291 165.482" fill="#f46275"/><polygon points="65.291 165.482 70.29 173.449 30.906 236.221 20.906 236.22 65.291 165.482" fill="#f43075"/><path d="M174.727,102.817H231.8a6.508,6.508,0,0,0,6.5-6.5V13.807a6.508,6.508,0,0,0-6.5-6.5H174.727a6.508,6.508,0,0,0-6.5,6.5V96.317A6.508,6.508,0,0,0,174.727,102.817Zm-3.5-89.011a3.5,3.5,0,0,1,3.5-3.5H231.8a3.5,3.5,0,0,1,3.5,3.5V96.317a3.5,3.5,0,0,1-3.5,3.5H174.727a3.5,3.5,0,0,1-3.5-3.5Z" fill="#3f3679"/><path d="M189.885,61.182l-8.5,12.916a1.5,1.5,0,0,0,1.253,2.324h12.094a1.5,1.5,0,0,0,1.447-1.106l2.735-10.054a22.142,22.142,0,1,0-9.033-4.079Zm3.7,12.24h-8.165l13.924-21.165Zm10.293-31.216a1.5,1.5,0,0,0-1.87.543l-4.34,6.6a7.955,7.955,0,0,1-2.448-5.772,8.041,8.041,0,1,1,8.041,8.041c-.209,0-.416-.02-.624-.036l2.071-7.611A1.5,1.5,0,0,0,203.882,42.206Zm-.617-17.756a19.123,19.123,0,1,1-3.558,37.914l2.135-7.848a11.079,11.079,0,1,0-5.833-2.643l-4.473,6.8A19.12,19.12,0,0,1,203.265,24.45Z" fill="#3f3679"/><path d="M201.6,80.667H175.555a1.5,1.5,0,0,0,0,3H201.6a1.5,1.5,0,0,0,0-3Z" fill="#3f3679"/><path d="M228.832,82.167a1.5,1.5,0,0,0-1.5-1.5h-9.748a1.5,1.5,0,0,0,0,3h9.748A1.5,1.5,0,0,0,228.832,82.167Z" fill="#3f3679"/><path d="M179.2,23.3a5.262,5.262,0,1,0-5.262-5.262A5.268,5.268,0,0,0,179.2,23.3Zm0-7.523a2.262,2.262,0,1,1-2.262,2.262A2.264,2.264,0,0,1,179.2,15.775Z" fill="#3f3679"/><path d="M227.332,23.3a5.262,5.262,0,1,0-5.262-5.262A5.268,5.268,0,0,0,227.332,23.3Zm0-7.523a2.262,2.262,0,1,1-2.262,2.262A2.264,2.264,0,0,1,227.332,15.775Z" fill="#3f3679"/><path d="M179.2,97.349a5.262,5.262,0,1,0-5.262-5.262A5.268,5.268,0,0,0,179.2,97.349Zm0-7.523a2.262,2.262,0,1,1-2.262,2.262A2.264,2.264,0,0,1,179.2,89.825Z" fill="#3f3679"/><path d="M227.332,86.825a5.262,5.262,0,1,0,5.262,5.262A5.268,5.268,0,0,0,227.332,86.825Zm0,7.523a2.262,2.262,0,1,1,2.262-2.262A2.264,2.264,0,0,1,227.332,94.349Z" fill="#3f3679"/><path d="M24.2,102.817H81.273a6.508,6.508,0,0,0,6.5-6.5V13.807a6.508,6.508,0,0,0-6.5-6.5H24.2a6.508,6.508,0,0,0-6.5,6.5V96.317A6.508,6.508,0,0,0,24.2,102.817ZM20.7,13.807a3.5,3.5,0,0,1,3.5-3.5H81.273a3.5,3.5,0,0,1,3.5,3.5V96.317a3.5,3.5,0,0,1-3.5,3.5H24.2a3.5,3.5,0,0,1-3.5-3.5Z" fill="#3f3679"/><path d="M39.355,61.184,30.859,74.1a1.5,1.5,0,0,0,1.253,2.324H44.206a1.5,1.5,0,0,0,1.447-1.106l2.734-10.05a22.15,22.15,0,1,0-9.032-4.082Zm3.7,12.238H34.895L48.818,52.257ZM53.353,42.206a1.5,1.5,0,0,0-1.87.543l-4.334,6.588a8.027,8.027,0,1,1,5.587,2.277c-.209,0-.416-.02-.624-.036l2.071-7.611A1.5,1.5,0,0,0,53.353,42.206ZM52.735,24.45a19.123,19.123,0,1,1-3.558,37.913l2.135-7.847a11.046,11.046,0,1,0-5.838-2.634l-4.468,6.792A19.122,19.122,0,0,1,52.735,24.45Z" fill="#3f3679"/><path d="M51.069,80.667H25.026a1.5,1.5,0,0,0,0,3H51.069a1.5,1.5,0,0,0,0-3Z" fill="#3f3679"/><path d="M78.3,82.167a1.5,1.5,0,0,0-1.5-1.5H67.055a1.5,1.5,0,0,0,0,3H76.8A1.5,1.5,0,0,0,78.3,82.167Z" fill="#3f3679"/><path d="M28.668,23.3a5.262,5.262,0,1,0-5.262-5.262A5.268,5.268,0,0,0,28.668,23.3Zm0-7.523a2.262,2.262,0,1,1-2.262,2.262A2.264,2.264,0,0,1,28.668,15.775Z" fill="#3f3679"/><path d="M76.8,23.3a5.262,5.262,0,1,0-5.262-5.262A5.268,5.268,0,0,0,76.8,23.3Zm0-7.523a2.262,2.262,0,1,1-2.262,2.262A2.264,2.264,0,0,1,76.8,15.775Z" fill="#3f3679"/><path d="M28.668,97.349a5.262,5.262,0,1,0-5.262-5.262A5.268,5.268,0,0,0,28.668,97.349Zm0-7.523a2.262,2.262,0,1,1-2.262,2.262A2.264,2.264,0,0,1,28.668,89.825Z" fill="#3f3679"/><path d="M76.8,86.825a5.262,5.262,0,1,0,5.262,5.262A5.268,5.268,0,0,0,76.8,86.825Zm0,7.523a2.262,2.262,0,1,1,2.262-2.262A2.264,2.264,0,0,1,76.8,94.349Z" fill="#3f3679"/><path d="M111.573,141.853a1.5,1.5,0,0,0,2.541-1.594l-6.279-10.009a1.5,1.5,0,1,0-2.541,1.594Z" fill="#3f3679"/><path d="M124.134,161.871a1.5,1.5,0,0,0,2.541-1.594l-6.28-10.009a1.5,1.5,0,0,0-2.541,1.594Z" fill="#3f3679"/><path d="M136.693,181.89a1.5,1.5,0,0,0,2.541-1.594l-6.28-10.01a1.5,1.5,0,0,0-2.541,1.594Z" fill="#3f3679"/><path d="M161.813,221.926a1.5,1.5,0,1,0,2.541-1.594l-6.28-10.009a1.5,1.5,0,0,0-2.541,1.594Z" fill="#3f3679"/><path d="M149.254,201.907a1.5,1.5,0,0,0,2.541-1.594l-6.28-10.009a1.5,1.5,0,0,0-2.541,1.594Z" fill="#3f3679"/><path d="M27.323,245.693h-18a1.5,1.5,0,1,0,0,3h18a1.5,1.5,0,1,0,0-3Z" fill="#3f3679"/><path d="M246.68,245.693h-18a1.5,1.5,0,0,0,0,3h18a1.5,1.5,0,0,0,0-3Z" fill="#3f3679"/><path d="M218.479,245.693H37.521a1.5,1.5,0,0,0,0,3H218.479a1.5,1.5,0,0,0,0-3Z" fill="#3f3679"/><path d="M9.32,237.721H246.68a1.5,1.5,0,0,0,0-3H235.923L129.271,64.734a1.5,1.5,0,0,0-2.541,0L20.077,234.721H9.32a1.5,1.5,0,0,0,0,3Zm14.3-3L65.291,168.3l41.673,66.416ZM128,68.354,232.382,234.721h-59l-2.749-4.38a1.5,1.5,0,0,0-2.541,1.6l1.747,2.784H110.505l-43.445-69.24L96.73,118.193l2.284,3.641a1.5,1.5,0,0,0,2.541-1.594L98.5,115.372Z" fill="#3f3679"/></svg>