<svg xmlns="http://www.w3.org/2000/svg" viewBox="0 0 256 256"><title>icons_</title><rect x="18.37" y="42.754" width="219.26" height="151.106" rx="13.665" ry="13.665" fill="#cecece"/><path d="M28.37,180.2V56.419A13.681,13.681,0,0,1,42.035,42.754h-10A13.681,13.681,0,0,0,18.37,56.419V180.2A13.681,13.681,0,0,0,32.035,193.86h10A13.681,13.681,0,0,1,28.37,180.2Z" fill="#afafaf"/><path d="M227.63,180.2V56.419a13.681,13.681,0,0,0-13.665-13.665h10A13.681,13.681,0,0,1,237.63,56.419V180.2a13.681,13.681,0,0,1-13.665,13.665h-10A13.681,13.681,0,0,0,227.63,180.2Z" fill="#e2e2e2"/><rect x="26.779" y="51.163" width="202.442" height="122.288" rx="5.256" ry="5.256" fill="#63bce7"/><path d="M36.779,168.2V56.419a5.271,5.271,0,0,1,5.256-5.256h-10a5.271,5.271,0,0,0-5.256,5.256V168.2a5.271,5.271,0,0,0,5.256,5.256h10A5.271,5.271,0,0,1,36.779,168.2Z" fill="#6377e7"/><path d="M219.221,168.2V56.419a5.271,5.271,0,0,0-5.256-5.256h10a5.271,5.271,0,0,1,5.256,5.256V168.2a5.271,5.271,0,0,1-5.256,5.256h-10A5.271,5.271,0,0,0,219.221,168.2Z" fill="#63e2e7"/><rect x="89.809" y="216.018" width="76.383" height="9.197" fill="#9e9e9e"/><rect x="89.809" y="216.018" width="10" height="9.197" fill="#707070"/><rect x="100.67" y="193.86" width="54.659" height="22.158" fill="#cecece"/><rect x="100.67" y="193.86" width="10" height="22.158" fill="#afafaf"/><circle cx="128" cy="183.656" r="4.5" fill="#9e9e9e"/><path d="M54.191,104.118V80.992a5.7,5.7,0,0,1,5.7-5.7H84.769l-3.894-5.128H68.91l-5.7-6.172H49.922a5.7,5.7,0,0,0-5.7,5.7v34.426a5,5,0,0,0,4.983,4.983h0A4.983,4.983,0,0,0,54.191,104.118Z" fill="#9e9e9e"/><path d="M84.769,75.294H59.888a5.7,5.7,0,0,0-5.7,5.7v23.126a4.983,4.983,0,0,1-4.983,4.983H87.472a4.98,4.98,0,0,0,4.98-4.98V75.294Z" fill="#f8af23"/><path d="M54.191,157.118V133.992a5.7,5.7,0,0,1,5.7-5.7H84.769l-3.894-5.128H68.91l-5.7-6.172H49.922a5.7,5.7,0,0,0-5.7,5.7v34.426a5,5,0,0,0,4.983,4.983h0A4.983,4.983,0,0,0,54.191,157.118Z" fill="#9e9e9e"/><path d="M84.769,128.294H59.888a5.7,5.7,0,0,0-5.7,5.7v23.126a4.983,4.983,0,0,1-4.983,4.983H87.472a4.98,4.98,0,0,0,4.98-4.98V128.294Z" fill="#f8af23"/><path d="M169.566,24.561h0a5.933,5.933,0,0,0,10.644,2.263h0a5.933,5.933,0,0,1,10.623,4.73h0a5.933,5.933,0,0,0,8.8,6.4h0a5.933,5.933,0,0,1,7.781,8.641h0a5.933,5.933,0,0,0,5.441,9.424h0a5.933,5.933,0,0,1,3.593,11.059h0A5.933,5.933,0,0,0,217.589,77.9h0a5.933,5.933,0,0,1-1.215,11.564h0a5.933,5.933,0,0,0-3.363,10.349h0a5.933,5.933,0,0,1-5.814,10.07h0a5.933,5.933,0,0,0-7.282,8.087h0a5.933,5.933,0,0,1-9.407,6.835h0a5.933,5.933,0,0,0-9.941,4.426h0a5.933,5.933,0,0,1-11.374,2.418h0a5.933,5.933,0,0,0-10.882,0h0a5.933,5.933,0,0,1-11.374-2.418h0A5.933,5.933,0,0,0,137,124.8h0a5.933,5.933,0,0,1-9.407-6.835h0a5.933,5.933,0,0,0-7.282-8.087h0a5.933,5.933,0,0,1-5.814-10.07h0a5.933,5.933,0,0,0-3.363-10.349h0A5.933,5.933,0,0,1,109.915,77.9h0a5.933,5.933,0,0,0,1.137-10.822h0a5.933,5.933,0,0,1,3.593-11.059h0a5.933,5.933,0,0,0,5.441-9.424h0a5.933,5.933,0,0,1,7.781-8.641h0a5.933,5.933,0,0,0,8.8-6.4h0a5.933,5.933,0,0,1,10.623-4.73h0a5.933,5.933,0,0,0,10.644-2.263h0A5.933,5.933,0,0,1,169.566,24.561Z" fill="#f46275"/><path d="M217.589,77.9a5.933,5.933,0,0,1-1.138-10.823h0a5.933,5.933,0,0,0-3.593-11.059h0a5.933,5.933,0,0,1-5.441-9.424h0a5.933,5.933,0,0,0-7.781-8.642h0a5.871,5.871,0,0,1-2.891.822,5.811,5.811,0,0,1,.672,7.82h0a5.933,5.933,0,0,0,5.441,9.424h0a5.933,5.933,0,0,1,3.593,11.059h0A5.933,5.933,0,0,0,207.589,77.9a5.933,5.933,0,0,1-1.216,11.564,5.933,5.933,0,0,0-3.363,10.35h0a5.933,5.933,0,0,1-5.814,10.07h0a5.933,5.933,0,0,0-7.281,8.087h0a5.711,5.711,0,0,1-.613,5.988,6.063,6.063,0,0,1,1.206.847h0a5.933,5.933,0,0,0,9.407-6.835h0a5.933,5.933,0,0,1,7.281-8.087h0a5.933,5.933,0,0,0,5.814-10.07h0a5.933,5.933,0,0,1,3.363-10.35A5.933,5.933,0,0,0,217.589,77.9Z" fill="#f48875"/><path d="M180.833,31.553a5.933,5.933,0,0,0,8.8,6.4h0a6,6,0,0,1,2.853-.857,5.824,5.824,0,0,1-1.657-5.539,5.933,5.933,0,0,0-10.623-4.729h0c-.054.076-.118.137-.174.209A5.731,5.731,0,0,1,180.833,31.553Z" fill="#f48875"/><path d="M128,189.656a6,6,0,1,0-6-6A6.007,6.007,0,0,0,128,189.656Zm0-9a3,3,0,1,1-3,3A3,3,0,0,1,128,180.656Z" fill="#3f3679"/><path d="M27.323,234.688h-18a1.5,1.5,0,0,0,0,3h18a1.5,1.5,0,0,0,0-3Z" fill="#3f3679"/><path d="M246.68,234.688h-18a1.5,1.5,0,1,0,0,3h18a1.5,1.5,0,0,0,0-3Z" fill="#3f3679"/><path d="M218.479,234.688H37.521a1.5,1.5,0,1,0,0,3H218.479a1.5,1.5,0,1,0,0-3Z" fill="#3f3679"/><path d="M9.32,226.716H246.68a1.5,1.5,0,0,0,0-3H167.691v-7.7a1.5,1.5,0,0,0-1.5-1.5h-9.362V195.36h67.137A15.182,15.182,0,0,0,239.13,180.2V56.419a15.181,15.181,0,0,0-15.164-15.164H209.884a7.725,7.725,0,0,0-1.712-3.166,7.289,7.289,0,0,0-9.3-1.432,4.433,4.433,0,0,1-6.578-4.779,7.433,7.433,0,0,0-13.309-5.925,4.433,4.433,0,0,1-7.953-1.69,7.433,7.433,0,0,0-14.568,0,4.433,4.433,0,0,1-7.953,1.69,7.433,7.433,0,0,0-13.309,5.925,4.434,4.434,0,0,1-6.577,4.78,7.285,7.285,0,0,0-9.3,1.431,7.73,7.73,0,0,0-1.712,3.166H32.034A15.181,15.181,0,0,0,16.87,56.419V180.2A15.182,15.182,0,0,0,32.034,195.36H99.171v19.158H89.809a1.5,1.5,0,0,0-1.5,1.5v7.7H9.32a1.5,1.5,0,0,0,0,3ZM110.313,68.38a4.433,4.433,0,0,1-.85,8.086,7.433,7.433,0,0,0,1.522,14.488,4.434,4.434,0,0,1,2.513,7.733,7.433,7.433,0,0,0,7.283,12.616,4.432,4.432,0,0,1,5.44,6.042,7.434,7.434,0,0,0,11.787,8.563,4.432,4.432,0,0,1,7.427,3.308,7.434,7.434,0,0,0,14.25,3.028,4.433,4.433,0,0,1,8.131,0,7.2,7.2,0,0,0,6.764,4.474,7.707,7.707,0,0,0,1.6-.167,7.288,7.288,0,0,0,5.887-7.335,4.433,4.433,0,0,1,7.428-3.307,7.434,7.434,0,0,0,11.786-8.563,4.433,4.433,0,0,1,5.441-6.042A7.433,7.433,0,0,0,214,98.688a4.434,4.434,0,0,1,2.513-7.733,7.433,7.433,0,0,0,1.522-14.488,4.433,4.433,0,0,1-.85-8.086,7.433,7.433,0,0,0-4.5-13.854,4.361,4.361,0,0,1-4.124-1.862h15.4a3.76,3.76,0,0,1,3.755,3.756V168.2a3.76,3.76,0,0,1-3.755,3.756H32.034a3.76,3.76,0,0,1-3.755-3.756V56.419a3.76,3.76,0,0,1,3.755-3.756H118.94a4.364,4.364,0,0,1-4.124,1.862,7.433,7.433,0,0,0-4.5,13.854ZM121.562,40.1a4.3,4.3,0,0,1,5.545-.853,7.434,7.434,0,0,0,11.029-8.014,4.433,4.433,0,0,1,7.938-3.534,7.432,7.432,0,0,0,13.334-2.835,4.434,4.434,0,0,1,8.689,0A7.433,7.433,0,0,0,181.431,27.7a4.433,4.433,0,0,1,7.938,3.533,7.434,7.434,0,0,0,11.03,8.014,4.432,4.432,0,0,1,5.813,6.456,7.434,7.434,0,0,0,6.817,11.808,4.433,4.433,0,0,1,2.686,8.263,7.433,7.433,0,0,0,1.424,13.559,4.433,4.433,0,0,1-.907,8.641,7.433,7.433,0,0,0-4.214,12.966,4.433,4.433,0,0,1-4.344,7.524,7.434,7.434,0,0,0-9.123,10.132,4.433,4.433,0,0,1-7.028,5.107,7.433,7.433,0,0,0-12.455,5.544,4.433,4.433,0,0,1-8.5,1.808,7.434,7.434,0,0,0-13.635,0,4.433,4.433,0,0,1-8.5-1.806,7.433,7.433,0,0,0-12.454-5.546,4.433,4.433,0,0,1-7.029-5.106,7.433,7.433,0,0,0-9.122-10.132,4.433,4.433,0,0,1-4.344-7.524,7.433,7.433,0,0,0-4.214-12.966,4.433,4.433,0,0,1-.907-8.641,7.433,7.433,0,0,0,1.424-13.559,4.433,4.433,0,0,1,2.686-8.263A7.433,7.433,0,0,0,121.292,45.7,4.3,4.3,0,0,1,121.562,40.1ZM19.87,180.2V56.419A12.178,12.178,0,0,1,32.034,44.255h85.437a7.51,7.51,0,0,0,1.409,3.229,4.327,4.327,0,0,1,.848,2.18H32.034a6.763,6.763,0,0,0-6.755,6.756V168.2a6.763,6.763,0,0,0,6.755,6.756H223.966a6.763,6.763,0,0,0,6.755-6.756V56.419a6.763,6.763,0,0,0-6.755-6.756h-16.19a4.328,4.328,0,0,1,.848-2.18,7.509,7.509,0,0,0,1.409-3.229h13.933A12.178,12.178,0,0,1,236.13,56.419V180.2a12.178,12.178,0,0,1-12.164,12.165H32.034A12.178,12.178,0,0,1,19.87,180.2Zm82.3,15.165h51.658v19.158H102.171ZM91.309,217.519h73.383v6.2H91.309Z" fill="#3f3679"/><path d="M92.452,73.794H85.513l-3.443-4.535a1.5,1.5,0,0,0-1.194-.593H69.566l-5.252-5.689a1.5,1.5,0,0,0-1.1-.482H49.922a7.207,7.207,0,0,0-7.2,7.2v34.426a6.5,6.5,0,0,0,6.483,6.483H87.473a6.487,6.487,0,0,0,6.479-6.48V75.294A1.5,1.5,0,0,0,92.452,73.794ZM52.69,104.118a3.483,3.483,0,0,1-6.967,0V69.692a4.2,4.2,0,0,1,4.2-4.2H62.556l5.252,5.689a1.5,1.5,0,0,0,1.1.482H80.131l1.616,2.128H59.889a7.207,7.207,0,0,0-7.2,7.2Zm38.262,0a3.484,3.484,0,0,1-3.479,3.48h-32.8a6.448,6.448,0,0,0,1.018-3.483V80.992a4.2,4.2,0,0,1,4.2-4.2H90.952Z" fill="#3f3679"/><path d="M92.452,126.794H85.513l-3.443-4.535a1.5,1.5,0,0,0-1.194-.593H69.566l-5.252-5.689a1.5,1.5,0,0,0-1.1-.482H49.922a7.207,7.207,0,0,0-7.2,7.2v34.426a6.5,6.5,0,0,0,6.483,6.483H87.473a6.487,6.487,0,0,0,6.479-6.48V128.294A1.5,1.5,0,0,0,92.452,126.794ZM52.69,157.118a3.483,3.483,0,0,1-6.967,0V122.692a4.2,4.2,0,0,1,4.2-4.2H62.556l5.252,5.689a1.5,1.5,0,0,0,1.1.482H80.131l1.616,2.128H59.889a7.207,7.207,0,0,0-7.2,7.2Zm38.262,0a3.484,3.484,0,0,1-3.479,3.48h-32.8a6.448,6.448,0,0,0,1.018-3.483V133.992a4.2,4.2,0,0,1,4.2-4.2H90.952Z" fill="#3f3679"/><path d="M145.447,89.934h-4.316a1.1,1.1,0,0,1-.917-.494l-7.706-11.694a1.1,1.1,0,0,0-2.015.6V88.836a1.1,1.1,0,0,1-1.1,1.1h-3.811a1.1,1.1,0,0,1-1.1-1.1V66.2a1.1,1.1,0,0,1,1.1-1.1H129.9a1.1,1.1,0,0,1,.919.5l7.7,11.8a1.1,1.1,0,0,0,2.017-.6V66.2a1.1,1.1,0,0,1,1.1-1.1h3.81a1.1,1.1,0,0,1,1.1,1.1V88.836A1.1,1.1,0,0,1,145.447,89.934Z" fill="#3f3679"/><path d="M156.7,70.974v3a1.1,1.1,0,0,0,1.1,1.1h6.2a1.1,1.1,0,0,1,1.1,1.1v2.335a1.1,1.1,0,0,1-1.1,1.1h-6.2a1.1,1.1,0,0,0-1.1,1.1v3.318a1.1,1.1,0,0,0,1.1,1.1h7.253a1.1,1.1,0,0,1,1.1,1.1v2.616a1.1,1.1,0,0,1-1.1,1.1h-13.26a1.1,1.1,0,0,1-1.1-1.1V66.2a1.1,1.1,0,0,1,1.1-1.1h13.26a1.1,1.1,0,0,1,1.1,1.1v2.581a1.1,1.1,0,0,1-1.1,1.1h-7.253A1.1,1.1,0,0,0,156.7,70.974Z" fill="#3f3679"/><path d="M202.987,66.452l-5.412,22.639a1.1,1.1,0,0,1-1.068.843h-5.714a1.1,1.1,0,0,1-1.068-.843l-2.7-11.321a1.1,1.1,0,0,0-2.136,0l-2.729,11.325a1.1,1.1,0,0,1-1.068.841h-5.716a1.1,1.1,0,0,1-1.068-.843l-5.412-22.639a1.1,1.1,0,0,1,1.068-1.353h4.223a1.1,1.1,0,0,1,1.081.906l2.119,11.925a1.1,1.1,0,0,0,2.148.066l2.92-12.057a1.1,1.1,0,0,1,1.067-.84h4.842a1.1,1.1,0,0,1,1.067.84l2.926,12.081a1.1,1.1,0,0,0,2.148-.064L196.65,66a1.1,1.1,0,0,1,1.081-.9h4.189A1.1,1.1,0,0,1,202.987,66.452Z" fill="#3f3679"/></svg>