<svg xmlns="http://www.w3.org/2000/svg" viewBox="0 0 256 256"><title>icons_</title><rect x="18.37" y="42.283" width="219.26" height="151.106" rx="13.665" ry="13.665" fill="#cecece"/><path d="M28.37,179.724V55.948A13.681,13.681,0,0,1,42.035,42.283h-10A13.681,13.681,0,0,0,18.37,55.948V179.724a13.681,13.681,0,0,0,13.665,13.665h10A13.681,13.681,0,0,1,28.37,179.724Z" fill="#afafaf"/><path d="M227.63,179.724V55.948a13.681,13.681,0,0,0-13.665-13.665h10A13.681,13.681,0,0,1,237.63,55.948V179.724a13.681,13.681,0,0,1-13.665,13.665h-10A13.681,13.681,0,0,0,227.63,179.724Z" fill="#e2e2e2"/><rect x="26.779" y="50.692" width="202.442" height="122.288" rx="5.256" ry="5.256" fill="#63bce7"/><path d="M36.779,167.724V55.947a5.271,5.271,0,0,1,5.256-5.256h-10a5.271,5.271,0,0,0-5.256,5.256V167.724a5.271,5.271,0,0,0,5.256,5.256h10A5.271,5.271,0,0,1,36.779,167.724Z" fill="#6377e7"/><path d="M219.221,167.724V55.947a5.271,5.271,0,0,0-5.256-5.256h10a5.271,5.271,0,0,1,5.256,5.256V167.724a5.271,5.271,0,0,1-5.256,5.256h-10A5.271,5.271,0,0,0,219.221,167.724Z" fill="#63e2e7"/><rect x="89.809" y="215.547" width="76.383" height="9.197" fill="#9e9e9e"/><rect x="89.809" y="215.547" width="10" height="9.197" fill="#707070"/><rect x="100.67" y="193.389" width="54.659" height="22.158" fill="#cecece"/><rect x="100.67" y="193.389" width="10" height="22.158" fill="#afafaf"/><circle cx="128" cy="183.184" r="4.5" fill="#9e9e9e"/><rect x="102.25" y="84.5" width="51.5" height="64.5" fill="#9e9e9e"/><polygon points="102.25 149 71 159 71 74.5 102.25 84.5 102.25 149" fill="#cecece"/><polygon points="153.75 149 185 159 185 74.5 153.75 84.5 153.75 149" fill="#cecece"/><rect x="71" y="20.283" width="114" height="44" rx="22" ry="22" fill="#f8af23"/><path d="M81,42.283a22,22,0,0,1,22-22H93a22,22,0,1,0,0,44h10A22,22,0,0,1,81,42.283Z" fill="#f87023"/><path d="M175,42.283a22,22,0,0,0-22-22h10a22,22,0,0,1,0,44H153A22,22,0,0,0,175,42.283Z" fill="#f8d323"/><path d="M108.348,43.849a5.158,5.158,0,0,1,1.141,3.315,5.342,5.342,0,0,1-1.84,4.318,7.97,7.97,0,0,1-5.276,1.551h-9.2a.8.8,0,0,1-.8-.8V32.338a.8.8,0,0,1,.8-.8h8.957a7.969,7.969,0,0,1,5.078,1.429A4.908,4.908,0,0,1,109,37.037a5.025,5.025,0,0,1-1.034,3.239,4.749,4.749,0,0,1-1.052.976.807.807,0,0,0,.043,1.383A5.122,5.122,0,0,1,108.348,43.849ZM97.568,39.517a.8.8,0,0,0,.8.8h2.6q2.706,0,2.707-2.311T100.913,35.7h-2.54a.8.8,0,0,0-.8.8Zm6.6,6.917a2.257,2.257,0,0,0-.761-1.809,3.212,3.212,0,0,0-2.158-.654H98.373a.8.8,0,0,0-.8.8V48a.8.8,0,0,0,.8.8h2.9Q104.167,48.806,104.167,46.433Z" fill="#3f3679"/><path d="M117.426,36.473v2.892a.8.8,0,0,0,.8.8h5.658a.8.8,0,0,1,.8.8v2.314a.8.8,0,0,1-.8.8H118.23a.8.8,0,0,0-.8.8v3.165a.8.8,0,0,0,.8.8h6.57a.8.8,0,0,1,.8.8v2.557a.8.8,0,0,1-.8.8H113.029a.8.8,0,0,1-.8-.8V32.338a.8.8,0,0,1,.8-.8H124.8a.8.8,0,0,1,.8.8v2.527a.8.8,0,0,1-.8.8h-6.57A.8.8,0,0,0,117.426,36.473Z" fill="#3f3679"/><path d="M144,32.338v2.527a.8.8,0,0,1-.8.8h-4.23a.8.8,0,0,0-.8.8V52.228a.8.8,0,0,1-.8.8h-3.62a.8.8,0,0,1-.8-.8V36.473a.8.8,0,0,0-.8-.8H127.96a.8.8,0,0,1-.8-.8V32.338a.8.8,0,0,1,.8-.8H143.2A.8.8,0,0,1,144,32.338Z" fill="#3f3679"/><path d="M156.534,49.11h-6.907a.8.8,0,0,0-.761.545l-.966,2.833a.8.8,0,0,1-.761.545h-3.743a.8.8,0,0,1-.755-1.083l7.282-19.738a.8.8,0,0,1,.755-.526h4.869a.8.8,0,0,1,.755.526l7.282,19.738a.8.8,0,0,1-.755,1.083h-3.8a.8.8,0,0,1-.761-.545l-.966-2.833A.8.8,0,0,0,156.534,49.11Zm-1.122-5.016-1.559-4.6a.8.8,0,0,0-1.523,0l-1.576,4.6a.8.8,0,0,0,.761,1.065h3.135A.8.8,0,0,0,155.411,44.094Z" fill="#3f3679"/><path d="M128,189.184a6,6,0,1,0-6-6A6.007,6.007,0,0,0,128,189.184Zm0-9a3,3,0,1,1-3,3A3,3,0,0,1,128,180.184Z" fill="#3f3679"/><path d="M27.323,234.217h-18a1.5,1.5,0,0,0,0,3h18a1.5,1.5,0,0,0,0-3Z" fill="#3f3679"/><path d="M246.68,234.217h-18a1.5,1.5,0,0,0,0,3h18a1.5,1.5,0,0,0,0-3Z" fill="#3f3679"/><path d="M218.479,234.217H37.521a1.5,1.5,0,0,0,0,3H218.479a1.5,1.5,0,0,0,0-3Z" fill="#3f3679"/><path d="M9.32,226.244H246.68a1.5,1.5,0,0,0,0-3H167.691v-7.7a1.5,1.5,0,0,0-1.5-1.5h-9.362V194.889h67.137a15.182,15.182,0,0,0,15.164-15.165V55.948a15.182,15.182,0,0,0-15.164-15.165H186.447a23.527,23.527,0,0,0-23.447-22H93a23.527,23.527,0,0,0-23.447,22H32.034A15.182,15.182,0,0,0,16.87,55.948V179.724a15.182,15.182,0,0,0,15.164,15.165H99.171v19.158H89.809a1.5,1.5,0,0,0-1.5,1.5v7.7H9.32a1.5,1.5,0,0,0,0,3ZM93,65.783h70a23.527,23.527,0,0,0,21.3-13.591h39.664a3.76,3.76,0,0,1,3.755,3.756V167.724a3.759,3.759,0,0,1-3.755,3.755H32.034a3.759,3.759,0,0,1-3.755-3.755V55.947a3.76,3.76,0,0,1,3.755-3.756H71.7A23.527,23.527,0,0,0,93,65.783Zm0-44h70a20.5,20.5,0,1,1,0,41H93a20.5,20.5,0,0,1,0-41ZM19.87,179.724V55.948A12.178,12.178,0,0,1,32.034,43.783H69.553a23.361,23.361,0,0,0,.985,5.409h-38.5a6.763,6.763,0,0,0-6.755,6.756V167.724a6.763,6.763,0,0,0,6.755,6.755H223.966a6.763,6.763,0,0,0,6.755-6.755V55.947a6.763,6.763,0,0,0-6.755-6.756h-38.5a23.361,23.361,0,0,0,.985-5.409h37.519A12.178,12.178,0,0,1,236.13,55.948V179.724a12.178,12.178,0,0,1-12.164,12.165H32.034A12.178,12.178,0,0,1,19.87,179.724Zm82.3,15.165h51.658v19.158H102.171ZM91.309,217.047h73.383v6.2H91.309Z" fill="#3f3679"/><path d="M70.115,160.211a1.5,1.5,0,0,0,1.342.217l31.027-9.929h51.031l31.027,9.929A1.5,1.5,0,0,0,186.5,159V74.5a1.5,1.5,0,0,0-1.957-1.429L153.516,83H129.5V74.3l4.864,4.864a1.5,1.5,0,0,0,2.121-2.121l-7.425-7.424a1.5,1.5,0,0,0-2.121,0l-7.425,7.424a1.5,1.5,0,1,0,2.121,2.121L126.5,74.3V83H102.484L71.457,73.071A1.5,1.5,0,0,0,69.5,74.5V159A1.5,1.5,0,0,0,70.115,160.211ZM183.5,156.945l-28.25-9.04V85.595l28.25-9.04ZM128,118.25a1.5,1.5,0,0,0,1.5-1.5V86h22.75v61.5h-48.5V86H126.5v30.75A1.5,1.5,0,0,0,128,118.25ZM72.5,76.555l28.25,9.04v62.311l-28.25,9.04Z" fill="#3f3679"/></svg>