<svg xmlns="http://www.w3.org/2000/svg" viewBox="0 0 256 256"><title>icons_</title><rect x="16.327" y="8.211" width="223.345" height="191.333" rx="15.327" ry="15.327" fill="#cecece"/><path d="M26.327,184.217V23.538A15.327,15.327,0,0,1,41.655,8.211h-10A15.327,15.327,0,0,0,16.327,23.538V184.217a15.327,15.327,0,0,0,15.327,15.327h10A15.327,15.327,0,0,1,26.327,184.217Z" fill="#afafaf"/><path d="M229.673,184.217V23.538A15.327,15.327,0,0,0,214.345,8.211h10a15.327,15.327,0,0,1,15.327,15.327V184.217a15.327,15.327,0,0,1-15.327,15.327h-10A15.327,15.327,0,0,0,229.673,184.217Z" fill="#e2e2e2"/><path d="M239.673,23.538A15.327,15.327,0,0,0,224.345,8.211H31.655A15.327,15.327,0,0,0,16.327,23.538V50.211H239.673Z" fill="#f8af23"/><path d="M41.655,8.211h-10A15.327,15.327,0,0,0,16.327,23.538V50.211h10V23.538A15.327,15.327,0,0,1,41.655,8.211Z" fill="#f87023"/><path d="M214.345,8.211h10a15.327,15.327,0,0,1,15.327,15.327V50.211h-10V23.538A15.327,15.327,0,0,0,214.345,8.211Z" fill="#f8d323"/><circle cx="43.688" cy="29.211" r="7" fill="#f46275"/><circle cx="70.65" cy="29.211" r="7" fill="#f46275"/><circle cx="97.612" cy="29.211" r="7" fill="#f46275"/><rect x="120.073" y="24.336" width="99.24" height="10.667" rx="5.333" ry="5.333" fill="#f46275"/><rect x="45.344" y="162.273" width="165.312" height="74.543" rx="15.33" ry="15.33" fill="#63bce7"/><path d="M55.344,221.486V177.6a15.33,15.33,0,0,1,15.33-15.33h-10a15.33,15.33,0,0,0-15.33,15.33v43.883a15.33,15.33,0,0,0,15.33,15.33h10A15.33,15.33,0,0,1,55.344,221.486Z" fill="#6377e7"/><path d="M200.656,221.486V177.6a15.33,15.33,0,0,0-15.33-15.33h10a15.33,15.33,0,0,1,15.33,15.33v43.883a15.33,15.33,0,0,1-15.33,15.33h-10A15.33,15.33,0,0,0,200.656,221.486Z" fill="#63e2e7"/><path d="M62.724,127.178,47.992,111.291a4.219,4.219,0,0,1-.013-5.724L62.723,89.523a4.219,4.219,0,0,1,3.107-1.364h8.085a4.219,4.219,0,0,1,3.107,7.074l-9.5,10.334a4.219,4.219,0,0,0,.013,5.724l9.411,10.149a4.219,4.219,0,0,1-3.094,7.088H65.818A4.219,4.219,0,0,1,62.724,127.178Z" fill="#63bce7"/><path d="M143.893,76.148q5.754,4.979,5.754,14.294,0,8.678-5.617,13.609a20.915,20.915,0,0,1-11.3,4.836,4.249,4.249,0,0,0-3.726,4.188h0a4.219,4.219,0,0,1-4.219,4.219h-6.267a4.219,4.219,0,0,1-4.219-4.219v-9.737a4.219,4.219,0,0,1,4.219-4.219h1.9q6.577,0,10.229-1.873t3.654-6.713a6.549,6.549,0,0,0-1.735-4.84,6.3,6.3,0,0,0-4.658-1.735,6.794,6.794,0,0,0-5.161,1.963,6.536,6.536,0,0,0-1.4,2.227,4.074,4.074,0,0,1-3.771,2.751h-6.808a4.23,4.23,0,0,1-4.118-5.179A18.29,18.29,0,0,1,108.5,80.9a17.509,17.509,0,0,1,7.627-7.124,26.916,26.916,0,0,1,12.33-2.6Q138.137,71.17,143.893,76.148ZM129.827,129v7.18a4.219,4.219,0,0,1-4.219,4.219h-7.819a4.219,4.219,0,0,1-4.219-4.219V129a4.219,4.219,0,0,1,4.219-4.219h7.819A4.219,4.219,0,0,1,129.827,129Z" fill="#63bce7"/><path d="M182.086,88.159h8.085a4.219,4.219,0,0,1,3.107,1.364l14.743,16.044a4.219,4.219,0,0,1-.013,5.724l-14.732,15.887a4.219,4.219,0,0,1-3.094,1.35h-8.037a4.219,4.219,0,0,1-3.094-7.088l9.411-10.149a4.219,4.219,0,0,0,.013-5.724l-9.5-10.334A4.219,4.219,0,0,1,182.086,88.159Z" fill="#63bce7"/><path d="M81.353,208.955v8.969a3.023,3.023,0,0,1-3.023,3.023H74.023A3.023,3.023,0,0,1,71,217.923V181.166a3.023,3.023,0,0,1,3.023-3.023H87.77q7.628,0,11.624,3.784t4,10.2a14.057,14.057,0,0,1-1.786,7.114,12.386,12.386,0,0,1-5.3,4.9,18.669,18.669,0,0,1-8.537,1.786H84.375A3.023,3.023,0,0,0,81.353,208.955Zm11.5-16.827q0-5.631-6.236-5.63H84.375a3.023,3.023,0,0,0-3.023,3.023v5.094a3.023,3.023,0,0,0,3.023,3.023H86.62Q92.855,197.638,92.856,192.128Z" fill="#f8af23"/><path d="M145.466,181.166v36.758a3.023,3.023,0,0,1-3.023,3.023h-4.367a3.023,3.023,0,0,1-3.023-3.023V206.109a3.023,3.023,0,0,0-3.023-3.023H121.85a3.023,3.023,0,0,0-3.023,3.023v11.814a3.023,3.023,0,0,1-3.023,3.023H111.5a3.023,3.023,0,0,1-3.023-3.023V181.166a3.023,3.023,0,0,1,3.023-3.023H115.8a3.023,3.023,0,0,1,3.023,3.023v10.543a3.023,3.023,0,0,0,3.023,3.023h10.18a3.023,3.023,0,0,0,3.023-3.023V181.166a3.023,3.023,0,0,1,3.023-3.023h4.367A3.023,3.023,0,0,1,145.466,181.166Z" fill="#f8af23"/><path d="M162.962,208.955v8.969a3.023,3.023,0,0,1-3.023,3.023h-4.307a3.023,3.023,0,0,1-3.023-3.023V181.166a3.023,3.023,0,0,1,3.023-3.023H169.38q7.628,0,11.624,3.784t4,10.2a14.057,14.057,0,0,1-1.786,7.114,12.386,12.386,0,0,1-5.3,4.9,18.669,18.669,0,0,1-8.537,1.786h-3.395A3.023,3.023,0,0,0,162.962,208.955Zm11.5-16.827q0-5.631-6.236-5.63h-2.244a3.023,3.023,0,0,0-3.023,3.023v5.094a3.023,3.023,0,0,0,3.023,3.023h2.244Q174.465,197.638,174.465,192.128Z" fill="#f8af23"/><path d="M43.688,20.711a8.5,8.5,0,1,0,8.5,8.5A8.51,8.51,0,0,0,43.688,20.711Zm0,14a5.5,5.5,0,1,1,5.5-5.5A5.506,5.506,0,0,1,43.688,34.711Z" fill="#3f3679"/><path d="M70.65,20.711a8.5,8.5,0,1,0,8.5,8.5A8.51,8.51,0,0,0,70.65,20.711Zm0,14a5.5,5.5,0,1,1,5.5-5.5A5.506,5.506,0,0,1,70.65,34.711Z" fill="#3f3679"/><path d="M97.612,20.711a8.5,8.5,0,1,0,8.5,8.5A8.51,8.51,0,0,0,97.612,20.711Zm0,14a5.5,5.5,0,1,1,5.5-5.5A5.506,5.506,0,0,1,97.612,34.711Z" fill="#3f3679"/><path d="M213.979,22.836H125.406a6.833,6.833,0,1,0,0,13.667h88.573a6.833,6.833,0,0,0,0-13.667Zm0,10.667H125.406a3.833,3.833,0,1,1,0-7.667h88.573a3.833,3.833,0,1,1,0,7.667Z" fill="#3f3679"/><path d="M27.323,246.289h-18a1.5,1.5,0,1,0,0,3h18a1.5,1.5,0,0,0,0-3Z" fill="#3f3679"/><path d="M246.68,246.289h-18a1.5,1.5,0,0,0,0,3h18a1.5,1.5,0,1,0,0-3Z" fill="#3f3679"/><path d="M218.479,246.289H37.521a1.5,1.5,0,0,0,0,3H218.479a1.5,1.5,0,0,0,0-3Z" fill="#3f3679"/><path d="M9.32,238.316H246.68a1.5,1.5,0,1,0,0-3H204.892a16.816,16.816,0,0,0,7.264-13.83V201.044h12.189a16.846,16.846,0,0,0,16.827-16.827V23.538A16.846,16.846,0,0,0,224.345,6.711H31.655A16.846,16.846,0,0,0,14.828,23.538V184.217a16.846,16.846,0,0,0,16.827,16.827H43.844v20.441a16.816,16.816,0,0,0,7.264,13.83H9.32a1.5,1.5,0,1,0,0,3ZM17.828,23.538A13.843,13.843,0,0,1,31.655,9.711h192.69a13.843,13.843,0,0,1,13.827,13.827V48.711H17.828ZM31.655,198.044a13.843,13.843,0,0,1-13.827-13.827V51.711H238.172V184.217a13.843,13.843,0,0,1-13.827,13.827H212.156V177.6a16.849,16.849,0,0,0-16.83-16.83H60.674a16.849,16.849,0,0,0-16.83,16.83v20.441Zm15.189,23.441V177.6a13.846,13.846,0,0,1,13.83-13.83H195.326a13.846,13.846,0,0,1,13.83,13.83v43.883a13.846,13.846,0,0,1-13.83,13.83H60.674A13.846,13.846,0,0,1,46.844,221.486Z" fill="#3f3679"/><path d="M61.624,128.2a5.736,5.736,0,0,0,4.194,1.831h8.037a5.72,5.72,0,0,0,4.194-9.608l-9.411-10.149a2.733,2.733,0,0,1-.009-3.688l9.5-10.334a5.719,5.719,0,0,0-4.211-9.589H65.829a5.734,5.734,0,0,0-4.211,1.849L46.875,104.552a5.75,5.75,0,0,0,.018,7.759ZM49.083,106.582,63.827,90.538a2.725,2.725,0,0,1,2-.879h8.085a2.719,2.719,0,0,1,2,4.559l-9.5,10.334a5.75,5.75,0,0,0,.018,7.759l9.411,10.149a2.719,2.719,0,0,1-1.994,4.568H65.818a2.728,2.728,0,0,1-1.994-.87h0L49.092,110.271A2.733,2.733,0,0,1,49.083,106.582Z" fill="#3f3679"/><path d="M110.765,92.4h6.809a5.559,5.559,0,0,0,5.174-3.723,5.007,5.007,0,0,1,1.086-1.719,5.32,5.32,0,0,1,4.075-1.5,4.824,4.824,0,0,1,3.6,1.3,5.081,5.081,0,0,1,1.3,3.78c0,2.678-.9,4.387-2.838,5.378-2.209,1.133-5.421,1.708-9.545,1.708h-1.9a5.725,5.725,0,0,0-5.719,5.719v9.737a5.725,5.725,0,0,0,5.719,5.719h6.267a5.725,5.725,0,0,0,5.719-5.719,2.736,2.736,0,0,1,2.427-2.7,22.47,22.47,0,0,0,12.087-5.2c4.065-3.57,6.127-8.528,6.127-14.736,0-6.636-2.11-11.827-6.272-15.428h0c-4.1-3.545-9.624-5.343-16.417-5.343a28.52,28.52,0,0,0-13.01,2.766,19.065,19.065,0,0,0-8.257,7.732,19.892,19.892,0,0,0-2,5.216,5.731,5.731,0,0,0,5.58,7.014Zm-2.656-6.344a16.9,16.9,0,0,1,1.7-4.429,16.124,16.124,0,0,1,7-6.516,25.577,25.577,0,0,1,11.65-2.439c6.053,0,10.916,1.552,14.455,4.613h0c3.522,3.048,5.235,7.352,5.235,13.159,0,5.382-1.67,9.464-5.106,12.482a19.539,19.539,0,0,1-10.509,4.477,5.779,5.779,0,0,0-5.025,5.674,2.722,2.722,0,0,1-2.719,2.719H118.52a2.722,2.722,0,0,1-2.719-2.719v-9.737a2.722,2.722,0,0,1,2.719-2.719h1.9c4.669,0,8.239-.667,10.913-2.038,2.04-1.044,4.47-3.288,4.47-8.048a8.015,8.015,0,0,0-2.175-5.9,7.771,7.771,0,0,0-5.718-2.174,8.264,8.264,0,0,0-6.247,2.428,8.069,8.069,0,0,0-1.722,2.733,2.588,2.588,0,0,1-2.367,1.779h-6.809a2.731,2.731,0,0,1-2.656-3.344Z" fill="#3f3679"/><path d="M125.608,123.283h-7.819A5.725,5.725,0,0,0,112.069,129v7.18a5.725,5.725,0,0,0,5.719,5.719h7.819a5.725,5.725,0,0,0,5.719-5.719V129A5.725,5.725,0,0,0,125.608,123.283Zm2.719,12.9a2.722,2.722,0,0,1-2.719,2.719h-7.819a2.722,2.722,0,0,1-2.719-2.719V129a2.722,2.722,0,0,1,2.719-2.719h7.819A2.722,2.722,0,0,1,128.327,129Z" fill="#3f3679"/><path d="M187.371,106.582a2.733,2.733,0,0,1-.009,3.688l-9.411,10.149a5.72,5.72,0,0,0,4.194,9.608h8.037a5.737,5.737,0,0,0,4.194-1.831l14.732-15.887a5.75,5.75,0,0,0,.018-7.759L194.382,88.508a5.734,5.734,0,0,0-4.211-1.849h-8.085a5.719,5.719,0,0,0-4.211,9.589Zm-7.775-15.3a2.653,2.653,0,0,1,2.49-1.626h8.085a2.725,2.725,0,0,1,2,.879l14.744,16.044a2.733,2.733,0,0,1-.009,3.688l-14.732,15.888a2.728,2.728,0,0,1-1.994.87h-8.037a2.719,2.719,0,0,1-1.994-4.568l9.411-10.149a5.75,5.75,0,0,0,.018-7.759l-9.5-10.334A2.652,2.652,0,0,1,179.6,91.285Z" fill="#3f3679"/><path d="M87.771,176.643H74.023a4.528,4.528,0,0,0-4.523,4.523v36.758a4.528,4.528,0,0,0,4.523,4.523H78.33a4.528,4.528,0,0,0,4.523-4.523v-8.969a1.525,1.525,0,0,1,1.523-1.523h3.4a20.229,20.229,0,0,0,9.217-1.949,13.916,13.916,0,0,0,5.919-5.5,15.6,15.6,0,0,0,1.984-7.859c0-4.686-1.5-8.484-4.464-11.291C97.486,178.054,93.229,176.643,87.771,176.643ZM100.3,198.5a10.83,10.83,0,0,1-4.676,4.313,17.291,17.291,0,0,1-7.857,1.623h-3.4a4.528,4.528,0,0,0-4.523,4.523v8.969a1.525,1.525,0,0,1-1.523,1.523H74.023a1.525,1.525,0,0,1-1.523-1.523V181.166a1.525,1.525,0,0,1,1.523-1.523H87.771c4.665,0,8.229,1.135,10.592,3.373s3.527,5.229,3.527,9.113A12.651,12.651,0,0,1,100.3,198.5Z" fill="#3f3679"/><path d="M86.62,185H84.375a4.528,4.528,0,0,0-4.523,4.523v5.094a4.528,4.528,0,0,0,4.523,4.523H86.62c6.73,0,7.735-4.392,7.735-7.01C94.355,187.53,91.608,185,86.62,185Zm0,11.14H84.375a1.525,1.525,0,0,1-1.523-1.523v-5.094A1.525,1.525,0,0,1,84.375,188H86.62c4.173,0,4.735,2.088,4.735,4.13C91.355,194.111,90.793,196.138,86.62,196.138Z" fill="#3f3679"/><path d="M142.443,176.643h-4.368a4.528,4.528,0,0,0-4.523,4.523v10.542a1.525,1.525,0,0,1-1.523,1.523H121.85a1.525,1.525,0,0,1-1.523-1.523V181.166a4.528,4.528,0,0,0-4.522-4.523H111.5a4.528,4.528,0,0,0-4.523,4.523v36.758a4.528,4.528,0,0,0,4.523,4.523H115.8a4.528,4.528,0,0,0,4.522-4.523V206.109a1.525,1.525,0,0,1,1.523-1.523h10.18a1.525,1.525,0,0,1,1.523,1.523v11.814a4.528,4.528,0,0,0,4.523,4.523h4.368a4.528,4.528,0,0,0,4.522-4.523V181.166A4.528,4.528,0,0,0,142.443,176.643Zm1.522,41.281a1.524,1.524,0,0,1-1.522,1.523h-4.368a1.525,1.525,0,0,1-1.523-1.523V206.109a4.528,4.528,0,0,0-4.523-4.523H121.85a4.528,4.528,0,0,0-4.523,4.523v11.814a1.524,1.524,0,0,1-1.522,1.523H111.5a1.525,1.525,0,0,1-1.523-1.523V181.166a1.525,1.525,0,0,1,1.523-1.523H115.8a1.524,1.524,0,0,1,1.522,1.523v10.542a4.528,4.528,0,0,0,4.523,4.523h10.18a4.528,4.528,0,0,0,4.523-4.523V181.166a1.525,1.525,0,0,1,1.523-1.523h4.368a1.524,1.524,0,0,1,1.522,1.523Z" fill="#3f3679"/><path d="M169.38,176.643H155.633a4.528,4.528,0,0,0-4.523,4.523v36.758a4.528,4.528,0,0,0,4.523,4.523h4.307a4.528,4.528,0,0,0,4.523-4.523v-8.969a1.525,1.525,0,0,1,1.523-1.523h3.395a20.231,20.231,0,0,0,9.217-1.949,13.916,13.916,0,0,0,5.918-5.5,15.6,15.6,0,0,0,1.984-7.859c0-4.686-1.5-8.484-4.464-11.291C179.1,178.054,174.837,176.643,169.38,176.643ZM181.912,198.5a10.822,10.822,0,0,1-4.675,4.313,17.292,17.292,0,0,1-7.857,1.623h-3.395a4.528,4.528,0,0,0-4.523,4.523v8.969a1.525,1.525,0,0,1-1.523,1.523h-4.307a1.525,1.525,0,0,1-1.523-1.523V181.166a1.525,1.525,0,0,1,1.523-1.523H169.38c4.665,0,8.229,1.135,10.593,3.373s3.527,5.229,3.527,9.113A12.639,12.639,0,0,1,181.912,198.5Z" fill="#3f3679"/><path d="M168.229,185h-2.244a4.528,4.528,0,0,0-4.523,4.523v5.094a4.528,4.528,0,0,0,4.523,4.523h2.244c6.731,0,7.736-4.392,7.736-7.01C175.965,187.53,173.218,185,168.229,185Zm0,11.14h-2.244a1.525,1.525,0,0,1-1.523-1.523v-5.094A1.525,1.525,0,0,1,165.985,188h2.244c4.173,0,4.736,2.088,4.736,4.13C172.965,194.111,172.4,196.138,168.229,196.138Z" fill="#3f3679"/></svg>