<svg xmlns="http://www.w3.org/2000/svg" viewBox="0 0 256 256"><title>icons_</title><rect x="64.667" y="59.18" width="126.667" height="126.667" fill="#63bce7"/><rect x="64.667" y="59.18" width="10" height="126.667" fill="#6377e7"/><rect x="181.333" y="59.18" width="10" height="126.667" fill="#63e2e7"/><circle cx="84.667" cy="26.764" r="15.75" fill="#cecece"/><circle cx="171.333" cy="26.764" r="15.75" fill="#cecece"/><circle cx="171.333" cy="218.264" r="15.75" fill="#cecece"/><circle cx="84.667" cy="218.264" r="15.75" fill="#cecece"/><circle cx="223.75" cy="79.18" r="15.75" fill="#cecece"/><circle cx="223.75" cy="165.847" r="15.75" fill="#cecece"/><circle cx="32.25" cy="79.18" r="15.75" fill="#cecece"/><path d="M26.5,79.18A15.747,15.747,0,0,1,37.25,64.254a15.75,15.75,0,1,0,0,29.852A15.747,15.747,0,0,1,26.5,79.18Z" fill="#afafaf"/><path d="M229.5,79.18a15.747,15.747,0,0,0-10.75-14.926,15.75,15.75,0,1,1,0,29.852A15.747,15.747,0,0,0,229.5,79.18Z" fill="#e2e2e2"/><path d="M78.917,26.764a15.747,15.747,0,0,1,10.75-14.926,15.75,15.75,0,1,0,0,29.852A15.747,15.747,0,0,1,78.917,26.764Z" fill="#afafaf"/><path d="M177.083,26.764a15.747,15.747,0,0,0-10.75-14.926,15.75,15.75,0,1,1,0,29.852A15.747,15.747,0,0,0,177.083,26.764Z" fill="#e2e2e2"/><path d="M78.917,218.264a15.747,15.747,0,0,1,10.75-14.926,15.75,15.75,0,1,0,0,29.852A15.747,15.747,0,0,1,78.917,218.264Z" fill="#afafaf"/><path d="M177.083,218.264a15.747,15.747,0,0,0-10.75-14.926,15.75,15.75,0,1,1,0,29.852A15.747,15.747,0,0,0,177.083,218.264Z" fill="#e2e2e2"/><circle cx="32.25" cy="165.847" r="15.75" fill="#cecece"/><polygon points="141.5 80.68 94.667 80.68 94.667 164.347 161.333 164.347 161.333 100.514 141.5 80.68" fill="#f8af23"/><path d="M119.926,116.284a6.724,6.724,0,0,1,1.677,1.976,1.46,1.46,0,0,1-1.249,2.195h-1.006a1.481,1.481,0,0,1-1.228-.689,3.513,3.513,0,0,0-.975-.983,3.734,3.734,0,0,0-2.14-.608,3.262,3.262,0,0,0-2.629,1.194,4.82,4.82,0,0,0-1,3.194,4.77,4.77,0,0,0,1,3.183A3.269,3.269,0,0,0,115,126.93a3.734,3.734,0,0,0,2.14-.608,3.561,3.561,0,0,0,.972-.971,1.482,1.482,0,0,1,1.223-.68h1.006a1.459,1.459,0,0,1,1.249,2.2,6.812,6.812,0,0,1-1.669,1.964,7.477,7.477,0,0,1-4.857,1.553,7.656,7.656,0,0,1-3.933-.988,6.714,6.714,0,0,1-2.619-2.77,9.406,9.406,0,0,1,0-8.127,6.72,6.72,0,0,1,2.619-2.77,7.664,7.664,0,0,1,3.933-.988A7.511,7.511,0,0,1,119.926,116.284Z" fill="#3f3679"/><path d="M134.917,128.169a4.359,4.359,0,0,1-1.825,1.629,6.425,6.425,0,0,1-2.921.608,6.886,6.886,0,0,1-4.26-1.26,4.452,4.452,0,0,1-1.234-1.4,1.449,1.449,0,0,1,1.293-2.12h.929a1.446,1.446,0,0,1,1.34.777,1.851,1.851,0,0,0,.421.592,1.905,1.905,0,0,0,1.359.5,1.571,1.571,0,0,0,1.128-.392,1.366,1.366,0,0,0,.414-1.042,1.349,1.349,0,0,0-.38-.978,2.951,2.951,0,0,0-.946-.641c-.375-.166-.9-.366-1.563-.6a19.089,19.089,0,0,1-2.379-.967,4.38,4.38,0,0,1-1.587-1.39,4.53,4.53,0,0,1,.033-4.77,4.417,4.417,0,0,1,1.923-1.531,7.008,7.008,0,0,1,2.814-.533,6.3,6.3,0,0,1,4.073,1.217,4.434,4.434,0,0,1,1.07,1.237,1.439,1.439,0,0,1-1.292,2.108h-1.054a1.394,1.394,0,0,1-1.258-.738,1.776,1.776,0,0,0-.334-.468,1.631,1.631,0,0,0-1.205-.445,1.554,1.554,0,0,0-1.054.347,1.277,1.277,0,0,0-.4,1.021,1.292,1.292,0,0,0,.359.923,2.72,2.72,0,0,0,.9.62c.362.159.884.362,1.563.608a17.072,17.072,0,0,1,2.412.988,4.631,4.631,0,0,1,1.609,1.423,4.066,4.066,0,0,1,.674,2.433A4.229,4.229,0,0,1,134.917,128.169Z" fill="#3f3679"/><path d="M148.02,128.169A4.38,4.38,0,0,1,146.2,129.8a6.432,6.432,0,0,1-2.923.608,6.891,6.891,0,0,1-4.26-1.26,4.452,4.452,0,0,1-1.233-1.4,1.449,1.449,0,0,1,1.293-2.12H140a1.445,1.445,0,0,1,1.339.777,1.84,1.84,0,0,0,.421.592,1.906,1.906,0,0,0,1.358.5,1.575,1.575,0,0,0,1.13-.392,1.366,1.366,0,0,0,.414-1.042,1.343,1.343,0,0,0-.382-.978,2.962,2.962,0,0,0-.944-.641q-.565-.249-1.563-.6a19,19,0,0,1-2.38-.967,4.389,4.389,0,0,1-1.588-1.39,4.532,4.532,0,0,1,.034-4.77,4.425,4.425,0,0,1,1.922-1.531,7.018,7.018,0,0,1,2.815-.533,6.31,6.31,0,0,1,4.074,1.217,4.437,4.437,0,0,1,1.069,1.237,1.439,1.439,0,0,1-1.292,2.108h-1.052a1.394,1.394,0,0,1-1.258-.738,1.776,1.776,0,0,0-.334-.468,1.634,1.634,0,0,0-1.206-.445,1.555,1.555,0,0,0-1.054.347,1.274,1.274,0,0,0-.4,1.021,1.29,1.29,0,0,0,.361.923,2.684,2.684,0,0,0,.9.62q.541.239,1.563.608a17.16,17.16,0,0,1,2.412.988,4.631,4.631,0,0,1,1.609,1.423,4.078,4.078,0,0,1,.672,2.433A4.227,4.227,0,0,1,148.02,128.169Z" fill="#3f3679"/><path d="M26.5,165.847a15.747,15.747,0,0,1,10.75-14.926,15.75,15.75,0,1,0,0,29.852A15.747,15.747,0,0,1,26.5,165.847Z" fill="#afafaf"/><path d="M229.5,165.847a15.747,15.747,0,0,0-10.75-14.926,15.75,15.75,0,1,1,0,29.852A15.747,15.747,0,0,0,229.5,165.847Z" fill="#e2e2e2"/><circle cx="94.667" cy="80.68" r="15.531" fill="#e2e2e2"/><path d="M27.323,243.486h-18a1.5,1.5,0,0,0,0,3h18a1.5,1.5,0,1,0,0-3Z" fill="#3f3679"/><path d="M246.68,243.486h-18a1.5,1.5,0,0,0,0,3h18a1.5,1.5,0,0,0,0-3Z" fill="#3f3679"/><path d="M218.479,243.486H37.521a1.5,1.5,0,0,0,0,3H218.479a1.5,1.5,0,0,0,0-3Z" fill="#3f3679"/><path d="M9.32,235.514H246.68a1.5,1.5,0,0,0,0-3H181.038a17.235,17.235,0,0,0-8.2-31.424V187.347h18.5a1.5,1.5,0,0,0,1.5-1.5v-18.5h13.743a17.25,17.25,0,1,0,0-3H192.833V80.68h13.743a17.25,17.25,0,1,0,0-3H192.833V59.18a1.5,1.5,0,0,0-1.5-1.5h-18.5V43.938a17.25,17.25,0,1,0-3,0V57.68H86.167V43.938a17.25,17.25,0,1,0-3,0V57.68h-18.5a1.5,1.5,0,0,0-1.5,1.5v18.5H49.424a17.25,17.25,0,1,0,0,3H63.167v83.667H49.424a17.25,17.25,0,1,0,0,3H63.167v18.5a1.5,1.5,0,0,0,1.5,1.5h18.5V201.09a17.235,17.235,0,0,0-8.2,31.424H9.32a1.5,1.5,0,0,0,0,3ZM223.75,151.6a14.25,14.25,0,1,1-14.25,14.25A14.266,14.266,0,0,1,223.75,151.6Zm0-86.667A14.25,14.25,0,1,1,209.5,79.18,14.266,14.266,0,0,1,223.75,64.93ZM157.083,26.764a14.25,14.25,0,1,1,14.25,14.25A14.266,14.266,0,0,1,157.083,26.764Zm-86.666,0a14.25,14.25,0,1,1,14.25,14.25A14.266,14.266,0,0,1,70.417,26.764ZM32.25,93.43A14.25,14.25,0,1,1,46.5,79.18,14.266,14.266,0,0,1,32.25,93.43Zm0,86.667a14.25,14.25,0,1,1,14.25-14.25A14.266,14.266,0,0,1,32.25,180.1Zm153.333,38.167a14.25,14.25,0,1,1-14.25-14.25A14.266,14.266,0,0,1,185.583,218.264ZM66.167,60.68H189.833V184.347H66.167ZM169.833,187.347V201.09a17.235,17.235,0,0,0-8.2,31.424H94.372a17.235,17.235,0,0,0-8.2-31.424V187.347ZM70.417,218.264a14.25,14.25,0,1,1,14.25,14.25A14.266,14.266,0,0,1,70.417,218.264Z" fill="#3f3679"/><path d="M93.167,164.347a1.5,1.5,0,0,0,1.5,1.5h66.666a1.5,1.5,0,0,0,1.5-1.5V100.514a1.5,1.5,0,0,0-.439-1.061L142.561,79.62a1.5,1.5,0,0,0-1.061-.439H111.622A17.027,17.027,0,1,0,93.167,97.635Zm66.666-63.212v61.712H96.167V97.635A17.046,17.046,0,0,0,111.622,82.18h29.257ZM80.635,80.68A14.032,14.032,0,1,1,94.667,94.711,14.048,14.048,0,0,1,80.635,80.68Z" fill="#3f3679"/><path d="M96.167,88.36V82.18h6.18a1.5,1.5,0,0,0,0-3h-6.18V73a1.5,1.5,0,0,0-3,0v6.18H86.986a1.5,1.5,0,0,0,0,3h6.181v6.18a1.5,1.5,0,0,0,3,0Z" fill="#3f3679"/></svg>