<svg xmlns="http://www.w3.org/2000/svg" viewBox="0 0 256 256"><title>icons_</title><path d="M62.842,161.086a2.4,2.4,0,0,1,2.293-1.629H66.65l-4.323-4.842a5.336,5.336,0,0,1-1.357-3.558V123.9h-4.9a37.6,37.6,0,0,0-37.557,37.558V231.8H43.249V156.739a1.5,1.5,0,0,1,3,0V231.8H92.9V186.986l-29.273-23.2A2.4,2.4,0,0,1,62.842,161.086Z" fill="#9e9e9e"/><path d="M148.293,218.534V141.517a1.5,1.5,0,0,1,1.5-1.5h1.791V136.1a12.5,12.5,0,0,1,1.6-6.12,37.331,37.331,0,0,0-20.454-6.081h-4.9v27.158a5.338,5.338,0,0,1-1.356,3.557l-4.324,4.843h1.516a2.428,2.428,0,0,1,1.508,4.331L95.9,186.986V231.8h59.282A16.25,16.25,0,0,1,148.293,218.534Z" fill="#9e9e9e"/><polygon points="74.922 122.399 94.402 186.26 113.881 122.399 74.922 122.399" fill="#cecece"/><rect x="82.578" y="86.553" width="23.647" height="46.872" rx="6.6" ry="6.6" fill="#f8af23"/><path d="M89.178,86.553a6.6,6.6,0,0,0-6.6,6.6v33.672a6.6,6.6,0,0,0,6.6,6.6h2.451V86.553Z" fill="#f87023"/><path d="M113.881,122.4,94.4,186.26l29.842-23.648a.928.928,0,0,0-.576-1.655H118.8l6.555-7.341a3.841,3.841,0,0,0,.976-2.558V122.4Z" fill="#707070"/><polygon points="82.578 118.081 94.402 133.425 80.983 142.269 74.922 122.399 82.578 118.081" fill="#63bce7"/><polygon points="94.402 133.425 106.225 118.081 113.881 122.399 107.82 142.269 94.402 133.425" fill="#63bce7"/><circle cx="55.289" cy="67.552" r="7.66" fill="#f87023"/><circle cx="133.238" cy="67.552" r="7.66" fill="#f8af23"/><rect x="57.731" y="23.598" width="73.068" height="85.179" rx="36.534" ry="36.534" fill="#f8af23"/><path d="M67.731,72.243V60.132A36.534,36.534,0,0,1,99.265,23.947a36.788,36.788,0,0,0-5-.349h0A36.534,36.534,0,0,0,57.731,60.132V72.243a36.534,36.534,0,0,0,36.534,36.534h0a36.828,36.828,0,0,0,5-.349A36.535,36.535,0,0,1,67.731,72.243Z" fill="#f87023"/><path d="M57.731,69.887h4.912l3.6-13.975h64.31l8.583-17.273c5.872-12.043-1.679-26.917-13.664-26.917h-55.8c-6.6,0-11.945,6.164-11.945,13.768V27.4l-1.193,1.148a16.9,16.9,0,0,0-4.414,15.63Z" fill="#9e9e9e"/><path d="M66.537,28.544,67.731,27.4V25.491c0-7.6,5.348-13.768,11.945-13.768h-10c-6.6,0-11.945,6.164-11.945,13.768V27.4l-1.193,1.147a16.9,16.9,0,0,0-4.414,15.63l5.607,25.712h4.912L65.4,59.2,62.124,44.175A16.9,16.9,0,0,1,66.537,28.544Z" fill="#707070"/><circle cx="81.324" cy="71.184" r="3.753" fill="#3f3679"/><circle cx="107.206" cy="71.184" r="3.753" fill="#3f3679"/><path d="M66,122.4H56.074a39.057,39.057,0,0,0-39.057,39.057V233.3h9.931V161.456A39.057,39.057,0,0,1,66,122.4Z" fill="#707070"/><path d="M74.922,122.4,94.4,186.26,64.56,162.612a.928.928,0,0,1,.576-1.655H70l-6.555-7.341a3.841,3.841,0,0,1-.976-2.558V122.4Z" fill="#707070"/><rect x="167.763" y="17.074" width="71.221" height="98.227" rx="5" ry="5" fill="#63bce7"/><path d="M233.984,17.074h-10a5,5,0,0,1,5,5V110.3a5,5,0,0,1-5,5h10a5,5,0,0,0,5-5V22.074A5,5,0,0,0,233.984,17.074Z" fill="#63e2e7"/><circle cx="203.373" cy="53.989" r="21.897" fill="#f8af23"/><circle cx="203.373" cy="53.989" r="10.13" fill="#9e9e9e"/><circle cx="177.819" cy="26.875" r="3.994" fill="#f46275"/><circle cx="228.928" cy="26.875" r="3.994" fill="#f46275"/><circle cx="177.819" cy="105.5" r="3.994" fill="#f46275"/><circle cx="228.928" cy="105.5" r="3.994" fill="#f46275"/><polygon points="203.373 53.989 181.476 87.274 194.317 87.274 203.373 53.989" fill="#f46275"/><path d="M164.564,141.517h0a14.77,14.77,0,0,1,14.77,14.77V233.3a0,0,0,0,1,0,0h-29.54a0,0,0,0,1,0,0V156.287A14.77,14.77,0,0,1,164.564,141.517Z" transform="translate(329.128 374.821) rotate(180)" fill="#9e9e9e"/><path d="M169.334,218.534V141.517h10v77.018a14.77,14.77,0,0,1-14.77,14.77h0a14.708,14.708,0,0,1-5-.887A14.762,14.762,0,0,0,169.334,218.534Z" fill="#cecece"/><path d="M153.085,141.517V136.1a11.083,11.083,0,0,1,11.083-11.083h17.75l10.712-2.027a4.615,4.615,0,0,1,5.225,6.027h0a18.472,18.472,0,0,1-17.48,12.5Z" fill="#f8af23"/><path d="M192.631,122.99l-6.021,1.139a4.583,4.583,0,0,1,1.246,4.888h0a18.472,18.472,0,0,1-17.48,12.5h10a18.472,18.472,0,0,0,17.48-12.5h0A4.615,4.615,0,0,0,192.631,122.99Z" fill="#f8d323"/><path d="M27.323,242.777h-18a1.5,1.5,0,0,0,0,3h18a1.5,1.5,0,1,0,0-3Z" fill="#3f3679"/><path d="M246.68,242.777h-18a1.5,1.5,0,0,0,0,3h18a1.5,1.5,0,0,0,0-3Z" fill="#3f3679"/><path d="M218.479,242.777H37.521a1.5,1.5,0,0,0,0,3H218.479a1.5,1.5,0,0,0,0-3Z" fill="#3f3679"/><path d="M9.32,234.8H246.68a1.5,1.5,0,0,0,0-3H173.945a16.25,16.25,0,0,0,6.889-13.27V143a19.961,19.961,0,0,0,18.441-13.5,6.115,6.115,0,0,0-6.923-7.985l-10.575,2H164.168a12.537,12.537,0,0,0-9.2,4.026,40.326,40.326,0,0,0-22.239-6.644H114.274l-6.55-3.693v-9.4a38.126,38.126,0,0,0,24.313-31.177,9.168,9.168,0,1,0,.212-18.172q-.049-1.13-.164-2.25l8.4-16.913a21.736,21.736,0,0,0-1.038-20.89c-3.251-5.2-8.344-8.184-13.975-8.184h-55.8c-7.414,0-13.445,6.849-13.445,15.268v1.268l-.733.705a18.274,18.274,0,0,0-4.839,17.031L53.72,58.537a9.151,9.151,0,0,0,2.771,18.09,38.131,38.131,0,0,0,24.587,31.29v9.289l-6.55,3.693H56.073a40.6,40.6,0,0,0-40.557,40.558V231.8H9.32a1.5,1.5,0,0,0,0,3ZM94.4,135.221l11.657,7.683L94.4,181.119,82.745,142.9Zm83.433,83.313a13.27,13.27,0,0,1-26.54,0V143.017h26.54Zm-13.666-92.018h17.75a1.477,1.477,0,0,0,.278-.026l10.714-2.026a3.114,3.114,0,0,1,3.525,4.068,16.968,16.968,0,0,1-16.06,11.485H154.585V136.1A9.594,9.594,0,0,1,164.168,126.517Zm-10.985,3.463a12.5,12.5,0,0,0-1.6,6.12v3.917h-1.791a1.5,1.5,0,0,0-1.5,1.5v77.018a16.25,16.25,0,0,0,6.889,13.27H95.9V186.986l29.273-23.2a2.428,2.428,0,0,0-1.508-4.331h-1.516l4.324-4.843a5.338,5.338,0,0,0,1.356-3.557V123.9h4.9A37.331,37.331,0,0,1,153.183,129.98Zm-28.351,21.077a2.339,2.339,0,0,1-.595,1.56l-6.556,7.341a1.5,1.5,0,0,0,1.119,2.5h3.224L97.24,182.1l10.221-33.51,1.793-5.877v0l5.736-18.808h9.841Zm-15.088-20.236-2.773,9.092-10.4-6.852,10.045-13.035,5.475,3.087ZM139.4,67.552a6.118,6.118,0,0,1-7.134,6.075c.017-.46.035-.92.035-1.385V61.47a6.129,6.129,0,0,1,7.1,6.083ZM69.676,13.223h55.8c4.574,0,8.74,2.469,11.431,6.774a18.707,18.707,0,0,1,.89,17.976l-8.169,16.44h-62.1L59.576,27.438a1.48,1.48,0,0,0-.346-.594V25.491C59.23,18.726,63.916,13.223,69.676,13.223ZM57.207,30.009l7.558,25.65L61.48,68.387H58.938L53.59,43.855A15.548,15.548,0,0,1,57.207,30.009Zm-1.918,43.7A6.156,6.156,0,0,1,54.36,61.47l1.871,8.579v2.193c0,.465.019.925.035,1.386A6.221,6.221,0,0,1,55.289,73.712Zm3.941-1.469v-.856h3.412a1.5,1.5,0,0,0,1.452-1.125L67.41,57.413h61.771c.069.9.117,1.813.117,2.719V72.243a35.034,35.034,0,0,1-70.068,0Zm35.034,38.034a37.909,37.909,0,0,0,10.46-1.474v8.768L94.4,130.967l-10.323-13.4V108.88A37.918,37.918,0,0,0,94.265,110.276Zm-12.082,9.75,10.045,13.035-10.395,6.852-5.125-16.8ZM73.811,123.9l7.53,24.688L91.563,182.1l-24.785-19.64H70a1.5,1.5,0,0,0,1.119-2.5l-6.555-7.341a2.336,2.336,0,0,1-.6-1.56V123.9ZM18.517,161.457A37.6,37.6,0,0,1,56.073,123.9h4.9v27.158a5.336,5.336,0,0,0,1.357,3.558l4.323,4.842H65.136a2.428,2.428,0,0,0-1.508,4.331l29.273,23.2V231.8H46.25V156.739a1.5,1.5,0,0,0-3,0V231.8H18.517Z" fill="#3f3679"/><path d="M87.228,61.865H75.42a1.5,1.5,0,0,0,0,3H87.228a1.5,1.5,0,0,0,0-3Z" fill="#3f3679"/><path d="M101.3,64.865h11.808a1.5,1.5,0,0,0,0-3H101.3a1.5,1.5,0,0,0,0,3Z" fill="#3f3679"/><path d="M94.265,89.144a1.5,1.5,0,0,0,1.5-1.5V75.836a1.5,1.5,0,1,0-3,0V87.644A1.5,1.5,0,0,0,94.265,89.144Z" fill="#3f3679"/><path d="M99.717,99.914a1.5,1.5,0,0,0-2.209-2.03,4.218,4.218,0,0,1-6.213,0,1.5,1.5,0,0,0-2.209,2.03,7.219,7.219,0,0,0,10.631,0Z" fill="#3f3679"/><path d="M172.763,116.8h61.221a6.508,6.508,0,0,0,6.5-6.5V22.074a6.508,6.508,0,0,0-6.5-6.5H172.763a6.508,6.508,0,0,0-6.5,6.5V110.3A6.508,6.508,0,0,0,172.763,116.8Zm-3.5-94.727a3.5,3.5,0,0,1,3.5-3.5h61.221a3.5,3.5,0,0,1,3.5,3.5V110.3a3.5,3.5,0,0,1-3.5,3.5H172.763a3.5,3.5,0,0,1-3.5-3.5Z" fill="#3f3679"/><path d="M189.293,72.664,180.224,86.45a1.5,1.5,0,0,0,1.253,2.324h12.841a1.5,1.5,0,0,0,1.447-1.106l2.927-10.758a23.42,23.42,0,1,0-9.4-4.246Zm3.878,13.11h-8.912l15.2-23.1Zm1.572-31.785a8.63,8.63,0,1,1,8.63,8.63c-.262,0-.522-.02-.782-.043l2.229-8.194a1.5,1.5,0,0,0-2.7-1.218l-4.67,7.1A8.553,8.553,0,0,1,194.743,53.989Zm8.63-20.4a20.4,20.4,0,1,1-3.894,40.421L201.8,65.5a11.624,11.624,0,1,0-10.052-11.511,11.518,11.518,0,0,0,4.049,8.8l-4.849,7.371a20.393,20.393,0,0,1,12.43-36.563Z" fill="#3f3679"/><path d="M201.6,91.244H173.952a1.5,1.5,0,0,0,0,3H201.6a1.5,1.5,0,0,0,0-3Z" fill="#3f3679"/><path d="M234.295,93.437V92.051a3.724,3.724,0,0,0-3.72-3.72H212.642a3.724,3.724,0,0,0-3.72,3.72v1.385a3.724,3.724,0,0,0,3.72,3.72h17.934A3.724,3.724,0,0,0,234.295,93.437Zm-22.373,0V92.051a.73.73,0,0,1,.72-.72h17.934a.73.73,0,0,1,.72.72v1.385a.73.73,0,0,1-.72.72H212.642A.73.73,0,0,1,211.922,93.437Z" fill="#3f3679"/><path d="M177.818,32.369a5.494,5.494,0,1,0-5.493-5.494A5.5,5.5,0,0,0,177.818,32.369Zm0-7.988a2.494,2.494,0,1,1-2.493,2.494A2.5,2.5,0,0,1,177.818,24.381Z" fill="#3f3679"/><path d="M228.928,32.369a5.494,5.494,0,1,0-5.494-5.494A5.5,5.5,0,0,0,228.928,32.369Zm0-7.988a2.494,2.494,0,1,1-2.494,2.494A2.5,2.5,0,0,1,228.928,24.381Z" fill="#3f3679"/><path d="M177.818,110.994a5.494,5.494,0,1,0-5.493-5.494A5.5,5.5,0,0,0,177.818,110.994Zm0-7.988a2.494,2.494,0,1,1-2.493,2.494A2.5,2.5,0,0,1,177.818,103.006Z" fill="#3f3679"/><path d="M228.928,100.006a5.494,5.494,0,1,0,5.494,5.494A5.5,5.5,0,0,0,228.928,100.006Zm0,7.988a2.494,2.494,0,1,1,2.494-2.494A2.5,2.5,0,0,1,228.928,107.994Z" fill="#3f3679"/></svg>