<svg xmlns="http://www.w3.org/2000/svg" viewBox="0 0 256 256"><title>icons_</title><path d="M63.415,164.837a2.4,2.4,0,0,1,2.292-1.629h1.516L62.9,158.366a5.335,5.335,0,0,1-1.357-3.558V127.65h-4.9a37.6,37.6,0,0,0-37.558,37.558v70.348H43.821V160.491a1.5,1.5,0,0,1,3,0v75.065H93.473V190.737L64.2,167.539A2.4,2.4,0,0,1,63.415,164.837Z" fill="#9e9e9e"/><path d="M158.453,137.329A37.179,37.179,0,0,0,133.3,127.65h-4.9v27.158a5.337,5.337,0,0,1-1.357,3.558l-4.324,4.842h1.516a2.428,2.428,0,0,1,1.509,4.331l-29.274,23.2v44.819h46.652V160.491a1.5,1.5,0,0,1,3,0v75.065h6.241a6.455,6.455,0,0,1-1.032-3.5V143.829a6.508,6.508,0,0,1,6.5-6.5Z" fill="#9e9e9e"/><polygon points="75.493 126.151 94.973 190.012 114.452 126.151 75.493 126.151" fill="#cecece"/><rect x="83.15" y="90.304" width="23.647" height="46.872" rx="6.6" ry="6.6" fill="#f8af23"/><path d="M89.75,90.3a6.6,6.6,0,0,0-6.6,6.6v33.672a6.6,6.6,0,0,0,6.6,6.6H92.2V90.3Z" fill="#f87023"/><path d="M114.452,126.151l-19.48,63.861,29.842-23.648a.928.928,0,0,0-.576-1.655h-4.866l6.555-7.341a3.841,3.841,0,0,0,.976-2.558V126.151Z" fill="#707070"/><polygon points="83.15 121.833 94.973 137.176 81.554 146.021 75.493 126.151 83.15 121.833" fill="#63bce7"/><polygon points="94.973 137.176 106.796 121.833 114.452 126.151 108.391 146.021 94.973 137.176" fill="#63bce7"/><circle cx="55.861" cy="71.304" r="7.66" fill="#f87023"/><circle cx="133.809" cy="71.304" r="7.66" fill="#f8af23"/><rect x="58.302" y="27.349" width="73.068" height="85.179" rx="36.534" ry="36.534" fill="#f8af23"/><path d="M68.3,75.994V63.883A36.534,36.534,0,0,1,99.836,27.7a36.788,36.788,0,0,0-5-.349h0A36.534,36.534,0,0,0,58.3,63.883V75.994a36.534,36.534,0,0,0,36.534,36.534h0a36.828,36.828,0,0,0,5-.349A36.535,36.535,0,0,1,68.3,75.994Z" fill="#f87023"/><circle cx="81.895" cy="74.935" r="3.753" fill="#3f3679"/><circle cx="107.777" cy="74.935" r="3.753" fill="#3f3679"/><path d="M66.576,126.151H56.645a39.057,39.057,0,0,0-39.057,39.057v71.848h9.931V165.208A39.057,39.057,0,0,1,66.576,126.151Z" fill="#707070"/><path d="M75.493,126.151l19.48,63.861L65.131,166.363a.928.928,0,0,1,.576-1.655h4.866l-6.555-7.341a3.841,3.841,0,0,1-.976-2.558V126.151Z" fill="#707070"/><rect x="152.834" y="138.829" width="71.221" height="98.227" rx="5" ry="5" fill="#cecece"/><path d="M219.055,138.829h-10a5,5,0,0,1,5,5v88.227a5,5,0,0,1-5,5h10a5,5,0,0,0,5-5V143.829A5,5,0,0,0,219.055,138.829Z" fill="#e2e2e2"/><circle cx="188.445" cy="175.744" r="21.897" fill="#63bce7"/><circle cx="188.445" cy="175.744" r="10.13" fill="#9e9e9e"/><circle cx="162.89" cy="148.63" r="3.994" fill="#f46275"/><circle cx="213.999" cy="148.63" r="3.994" fill="#f46275"/><circle cx="162.89" cy="227.255" r="3.994" fill="#f46275"/><circle cx="213.999" cy="227.255" r="3.994" fill="#f46275"/><polygon points="188.445 175.744 166.548 209.029 179.389 209.029 188.445 175.744" fill="#f46275"/><path d="M132.814,28.862A22.233,22.233,0,0,0,122.413,22c-4.318-8.215-14.972-14.03-27.44-14.03-12.417,0-23.035,5.767-27.387,13.929A22.229,22.229,0,0,0,52.434,49.335l5.868,20.6S70.474,66.5,72.1,51.814c0,0,7.6,5.563,22.737,5.563s22.737-5.563,22.737-5.563c1.625,14.687,13.8,18.125,13.8,18.125l5.868-20.6A22.241,22.241,0,0,0,132.814,28.862Z" fill="#9e9e9e"/><path d="M66.858,28.862A22.237,22.237,0,0,1,77.586,21.9C81.34,14.86,89.762,9.611,99.974,8.3a39.185,39.185,0,0,0-5-.328c-12.417,0-23.035,5.767-27.387,13.929A22.229,22.229,0,0,0,52.434,49.335l5.868,20.6a19.956,19.956,0,0,0,8.407-5.592L62.434,49.335A22.241,22.241,0,0,1,66.858,28.862Z" fill="#707070"/><path d="M152.514,109.875c.208.58.443,1.138.7,1.691l-5.2,5.2,10.223,10.223,5.2-5.2c.553.257,1.116.493,1.691.7v7.355h14.453V122.49c.575-.208,1.138-.443,1.691-.7l5.2,5.2L196.7,116.765l-5.2-5.2c.257-.553.493-1.111.7-1.691h7.355V95.422H192.2c-.208-.575-.443-1.138-.7-1.691l5.2-5.2L186.472,78.309l-5.2,5.2c-.553-.257-1.116-.5-1.691-.706v-7.35H165.129v7.35c-.575.208-1.138.449-1.691.706l-5.2-5.2L148.016,88.532l5.2,5.2c-.257.553-.493,1.116-.7,1.691h-7.35v14.453Z" fill="#9e9e9e"/><path d="M199.552,109.875V95.422H192.2c-.208-.575-.443-1.138-.7-1.691l5.2-5.2L186.472,78.309l-5,5,5.22,5.22-5.2,5.2c.257.553.493,1.116.7,1.691h7.355v14.453H182.2c-.208.58-.443,1.138-.7,1.691l5.2,5.2-5.223,5.223,5,5L196.7,116.765l-5.2-5.2c.257-.553.493-1.111.7-1.691Z" fill="#cecece"/><circle cx="172.358" cy="102.649" r="9.204" fill="#f46275"/><path d="M200.605,63.516c.167.466.356.915.563,1.359l-4.179,4.179,8.217,8.217,4.179-4.179c.444.207.9.4,1.359.563v5.912h11.617V73.655c.462-.167.915-.356,1.359-.563l4.179,4.179,8.217-8.217-4.179-4.179c.207-.444.4-.893.563-1.359h5.912V51.9H232.5c-.167-.462-.356-.915-.563-1.359l4.179-4.179L227.9,38.144l-4.179,4.183c-.444-.207-.9-.4-1.359-.567V35.852H210.744V41.76c-.462.167-.915.361-1.359.567l-4.179-4.183-8.217,8.217,4.179,4.179c-.207.444-.4.9-.563,1.359H194.7V63.516Z" fill="#cecece"/><path d="M238.412,63.516V51.9H232.5c-.167-.462-.356-.915-.563-1.359l4.179-4.179L227.9,38.144l-4.179,4.183c-.444-.207-.9-.4-1.359-.568V35.852h-10V41.76c.462.167.915.361,1.359.568l4.179-4.183,8.217,8.217-4.179,4.179c.207.444.4.9.563,1.359h5.912V63.516H222.5c-.167.466-.356.915-.563,1.359l4.179,4.179L217.9,77.271l-4.179-4.179c-.444.207-.9.4-1.359.563v5.912h10V73.655c.462-.167.915-.356,1.359-.563l4.179,4.179,8.217-8.217-4.179-4.179c.207-.444.4-.893.563-1.359Z" fill="#e2e2e2"/><circle cx="216.555" cy="57.708" r="7.398" fill="#f46275"/><path d="M27.323,246.529h-18a1.5,1.5,0,1,0,0,3h18a1.5,1.5,0,0,0,0-3Z" fill="#3f3679"/><path d="M246.68,246.529h-18a1.5,1.5,0,1,0,0,3h18a1.5,1.5,0,0,0,0-3Z" fill="#3f3679"/><path d="M218.479,246.529H37.521a1.5,1.5,0,1,0,0,3H218.479a1.5,1.5,0,1,0,0-3Z" fill="#3f3679"/><path d="M9.32,238.556H246.68a1.5,1.5,0,0,0,0-3H224.524a6.455,6.455,0,0,0,1.032-3.5V143.829a6.508,6.508,0,0,0-6.5-6.5h-56.34a1.394,1.394,0,0,0-.083-.131A40.2,40.2,0,0,0,133.3,124.65H114.847l-6.55-3.694v-9.4A38.126,38.126,0,0,0,132.61,80.376a9.15,9.15,0,0,0,2.51-18.127l3.561-12.5a23.7,23.7,0,0,0-4.722-21.854h0a23.687,23.687,0,0,0-10.515-7.135c-4.9-8.7-15.991-14.287-28.471-14.287-12.409,0-23.475,5.543-28.406,14.173a23.729,23.729,0,0,0-15.575,29.1l3.561,12.5a9.149,9.149,0,1,0,2.51,18.125,38.131,38.131,0,0,0,24.587,31.295v9.289L75.1,124.65H56.645a40.6,40.6,0,0,0-40.558,40.558v70.348H9.32a1.5,1.5,0,1,0,0,3Zm85.653-99.583,11.657,7.683L94.973,184.871,83.316,146.656Zm127.583,4.856v88.227a3.5,3.5,0,0,1-3.5,3.5H157.834a3.5,3.5,0,0,1-3.5-3.5V143.829a3.5,3.5,0,0,1,3.5-3.5h61.221A3.5,3.5,0,0,1,222.555,143.829Zm-64.1-6.5h-.619a6.508,6.508,0,0,0-6.5,6.5v88.227a6.455,6.455,0,0,0,1.032,3.5h-6.241V160.491a1.5,1.5,0,0,0-3,0v75.065H96.473V190.737l29.274-23.2a2.428,2.428,0,0,0-1.509-4.331h-1.516l4.324-4.842a5.337,5.337,0,0,0,1.357-3.558V127.65h4.9A37.179,37.179,0,0,1,158.453,137.329ZM125.4,154.808a2.339,2.339,0,0,1-.6,1.56l-6.555,7.341a1.5,1.5,0,0,0,1.119,2.5H122.6l-24.785,19.64,17.753-58.2h9.84Zm-17.861-11.144-10.4-6.852,10.045-13.035,5.475,3.087ZM139.969,71.3a6.138,6.138,0,0,1-7.134,6.078c.017-.461.035-.922.035-1.388V70.149l1.418-4.981A6.164,6.164,0,0,1,139.969,71.3ZM58,29.832a20.681,20.681,0,0,1,10-6.492,1.5,1.5,0,0,0,.9-.734C73.164,14.627,83.395,9.471,94.973,9.471c11.459,0,21.953,5.316,26.112,13.228a1.5,1.5,0,0,0,.885.735,20.7,20.7,0,0,1,9.7,6.4h0A20.706,20.706,0,0,1,135.8,48.925L130.377,67.95c-3.056-1.382-10.139-5.693-11.313-16.3a1.5,1.5,0,0,0-2.373-1.048c-.073.053-7.467,5.275-21.855,5.275S73.054,50.654,72.984,50.6a1.5,1.5,0,0,0-2.376,1.045C69.423,62.353,62.364,66.6,59.3,67.962L53.876,48.924A20.7,20.7,0,0,1,58,29.832ZM55.861,77.463a6.157,6.157,0,0,1-.477-12.3L56.8,70.149v5.845c0,.466.019.927.035,1.389A6.229,6.229,0,0,1,55.861,77.463ZM59.8,75.994V71A22.029,22.029,0,0,0,73.249,54.243c3.268,1.718,10.453,4.633,21.587,4.633s18.32-2.915,21.587-4.633A22.029,22.029,0,0,0,129.87,71v4.995a35.034,35.034,0,1,1-70.068,0Zm35.034,38.034a37.908,37.908,0,0,0,10.46-1.474v8.769l-10.324,13.4-10.323-13.4v-8.691A37.918,37.918,0,0,0,94.836,114.028Zm-12.082,9.75L92.8,136.813l-10.4,6.852-5.125-16.8Zm-8.372,3.873,17.752,58.2L67.35,166.208h3.223a1.5,1.5,0,0,0,1.119-2.5l-6.555-7.341a2.34,2.34,0,0,1-.595-1.56V127.65ZM19.087,165.208A37.6,37.6,0,0,1,56.645,127.65h4.9v27.158a5.335,5.335,0,0,0,1.357,3.558l4.324,4.842H65.707a2.428,2.428,0,0,0-1.508,4.331l29.273,23.2v44.819H46.821V160.491a1.5,1.5,0,0,0-3,0v75.065H19.087Z" fill="#3f3679"/><path d="M87.8,65.616H75.991a1.5,1.5,0,0,0,0,3H87.8a1.5,1.5,0,0,0,0-3Z" fill="#3f3679"/><path d="M101.874,68.616h11.807a1.5,1.5,0,0,0,0-3H101.874a1.5,1.5,0,0,0,0,3Z" fill="#3f3679"/><path d="M94.836,92.9a1.5,1.5,0,0,0,1.5-1.5V79.588a1.5,1.5,0,0,0-3,0V91.4A1.5,1.5,0,0,0,94.836,92.9Z" fill="#3f3679"/><path d="M100.289,103.666a1.5,1.5,0,1,0-2.209-2.03,4.218,4.218,0,0,1-6.213,0,1.5,1.5,0,1,0-2.209,2.03,7.219,7.219,0,0,0,10.631,0Z" fill="#3f3679"/><path d="M174.364,194.419l-9.069,13.786a1.5,1.5,0,0,0,1.253,2.324h12.841a1.5,1.5,0,0,0,1.447-1.106l2.927-10.758a23.421,23.421,0,1,0-9.4-4.246Zm3.879,13.11H169.33l15.2-23.1Zm10.819-33.152a1.5,1.5,0,0,0-1.87.543l-4.669,7.1a8.626,8.626,0,1,1,5.922,2.358c-.261,0-.522-.018-.783-.041l2.23-8.2A1.5,1.5,0,0,0,189.061,174.377Zm-.617-19.03a20.4,20.4,0,1,1-3.894,40.422l2.317-8.514a11.66,11.66,0,1,0-6-2.715l-4.849,7.371a20.393,20.393,0,0,1,12.43-36.563Z" fill="#3f3679"/><path d="M186.675,213H159.023a1.5,1.5,0,0,0,0,3h27.652a1.5,1.5,0,0,0,0-3Z" fill="#3f3679"/><path d="M219.366,215.191v-1.385a3.724,3.724,0,0,0-3.72-3.72H197.713a3.724,3.724,0,0,0-3.72,3.72v1.385a3.724,3.724,0,0,0,3.72,3.72h17.933A3.724,3.724,0,0,0,219.366,215.191Zm-22.373,0v-1.385a.729.729,0,0,1,.72-.72h17.933a.729.729,0,0,1,.72.72v1.385a.729.729,0,0,1-.72.72H197.713A.729.729,0,0,1,196.994,215.191Z" fill="#3f3679"/><path d="M162.89,154.124a5.494,5.494,0,1,0-5.494-5.494A5.5,5.5,0,0,0,162.89,154.124Zm0-7.988a2.494,2.494,0,1,1-2.494,2.494A2.5,2.5,0,0,1,162.89,146.136Z" fill="#3f3679"/><path d="M214,154.124a5.494,5.494,0,1,0-5.494-5.494A5.5,5.5,0,0,0,214,154.124Zm0-7.988a2.494,2.494,0,1,1-2.494,2.494A2.5,2.5,0,0,1,214,146.136Z" fill="#3f3679"/><path d="M162.89,221.761a5.494,5.494,0,1,0,5.494,5.494A5.5,5.5,0,0,0,162.89,221.761Zm0,7.988a2.494,2.494,0,1,1,2.494-2.494A2.5,2.5,0,0,1,162.89,229.749Z" fill="#3f3679"/><path d="M214,221.761a5.494,5.494,0,1,0,5.494,5.494A5.5,5.5,0,0,0,214,221.761Zm0,7.988a2.494,2.494,0,1,1,2.494-2.494A2.5,2.5,0,0,1,214,229.749Z" fill="#3f3679"/><path d="M145.164,111.377h6.124l-4.33,4.33a1.5,1.5,0,0,0,0,2.121l10.221,10.222a1.544,1.544,0,0,0,2.121,0l4.33-4.33v6.124a1.5,1.5,0,0,0,1.5,1.5h14.455a1.5,1.5,0,0,0,1.5-1.5v-6.124l4.331,4.331a1.544,1.544,0,0,0,2.121,0l10.221-10.222a1.5,1.5,0,0,0,0-2.121l-4.33-4.33h6.124a1.5,1.5,0,0,0,1.5-1.5V95.422a1.5,1.5,0,0,0-1.5-1.5h-6.124l4.33-4.33a1.5,1.5,0,0,0,0-2.121L187.537,77.249a1.544,1.544,0,0,0-2.121,0l-4.331,4.331V75.456a1.5,1.5,0,0,0-1.5-1.5H165.13a1.5,1.5,0,0,0-1.5,1.5v6.124l-4.33-4.33a1.544,1.544,0,0,0-2.121,0L146.958,87.471a1.5,1.5,0,0,0,0,2.121l4.33,4.33h-6.124a1.5,1.5,0,0,0-1.5,1.5v14.455A1.5,1.5,0,0,0,145.164,111.377Zm1.5-14.455h5.851a1.5,1.5,0,0,0,1.409-.986c.187-.511.4-1.024.655-1.569a1.5,1.5,0,0,0-.3-1.695l-4.141-4.141,8.1-8.1,4.141,4.141a1.5,1.5,0,0,0,1.695.3c.547-.256,1.061-.47,1.568-.654a1.5,1.5,0,0,0,.987-1.41V76.956h11.455v5.851a1.5,1.5,0,0,0,.987,1.41c.506.184,1.019.4,1.568.654a1.5,1.5,0,0,0,1.695-.3l4.141-4.141,8.1,8.1-4.141,4.141a1.5,1.5,0,0,0-.3,1.694c.256.55.471,1.063.655,1.57a1.5,1.5,0,0,0,1.409.986h5.851v11.455H192.2a1.5,1.5,0,0,0-1.409.986c-.185.506-.4,1.02-.655,1.57a1.5,1.5,0,0,0,.3,1.694l4.141,4.141-8.1,8.1-4.141-4.141a1.5,1.5,0,0,0-1.695-.3c-.549.256-1.062.47-1.568.654a1.5,1.5,0,0,0-.987,1.41v5.851H166.63v-5.851a1.5,1.5,0,0,0-.987-1.41c-.507-.185-1.021-.4-1.568-.654a1.5,1.5,0,0,0-1.695.3l-4.141,4.141-8.1-8.1,4.141-4.141a1.5,1.5,0,0,0,.3-1.695c-.254-.545-.468-1.058-.655-1.569a1.5,1.5,0,0,0-1.409-.986h-5.851Z" fill="#3f3679"/><path d="M172.358,113.354a10.7,10.7,0,1,0-10.7-10.7A10.716,10.716,0,0,0,172.358,113.354Zm0-18.408a7.7,7.7,0,1,1-7.7,7.7A7.713,7.713,0,0,1,172.358,94.945Z" fill="#3f3679"/><path d="M194.7,65.018h4.211L195.931,68a1.5,1.5,0,0,0,0,2.121l8.215,8.215a1.5,1.5,0,0,0,2.121,0l2.978-2.978v4.211a1.5,1.5,0,0,0,1.5,1.5h11.619a1.5,1.5,0,0,0,1.5-1.5V75.354l2.978,2.978a1.5,1.5,0,0,0,2.121,0l8.215-8.215a1.5,1.5,0,0,0,0-2.121L234.2,65.018h4.212a1.5,1.5,0,0,0,1.5-1.5V51.9a1.5,1.5,0,0,0-1.5-1.5H234.2l2.978-2.978a1.5,1.5,0,0,0,0-2.121l-8.215-8.215a1.5,1.5,0,0,0-2.121,0l-2.978,2.978V35.851a1.5,1.5,0,0,0-1.5-1.5H210.746a1.5,1.5,0,0,0-1.5,1.5v4.211l-2.978-2.978a1.5,1.5,0,0,0-2.121,0L195.931,45.3a1.5,1.5,0,0,0,0,2.121l2.978,2.978H194.7a1.5,1.5,0,0,0-1.5,1.5V63.518A1.5,1.5,0,0,0,194.7,65.018ZM196.2,53.4h4.408a1.5,1.5,0,0,0,1.41-.987c.153-.422.328-.833.517-1.238a1.5,1.5,0,0,0-.3-1.694l-3.12-3.12,6.094-6.094,3.12,3.12a1.5,1.5,0,0,0,1.7.3c.4-.188.814-.362,1.236-.516a1.5,1.5,0,0,0,.987-1.41V37.351h8.619v4.408a1.5,1.5,0,0,0,.987,1.41c.422.153.833.327,1.236.516a1.5,1.5,0,0,0,1.7-.3l3.12-3.12L234,46.36l-3.12,3.12a1.5,1.5,0,0,0-.3,1.7c.188.4.362.814.516,1.236a1.5,1.5,0,0,0,1.41.987h4.409v8.619H232.5a1.5,1.5,0,0,0-1.41.987c-.153.422-.327.833-.516,1.236a1.5,1.5,0,0,0,.3,1.7l3.12,3.12L227.9,75.15l-3.12-3.12a1.5,1.5,0,0,0-1.7-.3c-.4.188-.814.362-1.236.516a1.5,1.5,0,0,0-.987,1.41v4.408h-8.619V73.657a1.5,1.5,0,0,0-.987-1.41c-.422-.153-.833-.327-1.236-.516a1.5,1.5,0,0,0-1.7.3l-3.12,3.12-6.094-6.094,3.12-3.12a1.5,1.5,0,0,0,.3-1.694c-.188-.4-.363-.816-.517-1.238a1.5,1.5,0,0,0-1.41-.987H196.2Z" fill="#3f3679"/><path d="M216.555,66.606a8.9,8.9,0,1,0-8.9-8.9A8.907,8.907,0,0,0,216.555,66.606Zm0-14.8a5.9,5.9,0,1,1-5.9,5.9A5.9,5.9,0,0,1,216.555,51.811Z" fill="#3f3679"/></svg>