<svg xmlns="http://www.w3.org/2000/svg" viewBox="0 0 256 256"><title>icons_</title><rect x="18.37" y="31.283" width="219.26" height="151.106" rx="13.665" ry="13.665" fill="#cecece"/><path d="M28.37,168.724V44.948A13.681,13.681,0,0,1,42.035,31.283h-10A13.681,13.681,0,0,0,18.37,44.948V168.724a13.681,13.681,0,0,0,13.665,13.665h10A13.681,13.681,0,0,1,28.37,168.724Z" fill="#afafaf"/><path d="M227.63,168.724V44.948a13.681,13.681,0,0,0-13.665-13.665h10A13.681,13.681,0,0,1,237.63,44.948V168.724a13.681,13.681,0,0,1-13.665,13.665h-10A13.681,13.681,0,0,0,227.63,168.724Z" fill="#e2e2e2"/><rect x="26.779" y="39.692" width="202.442" height="122.288" rx="5.256" ry="5.256" fill="#63bce7"/><path d="M36.779,156.724V44.947a5.271,5.271,0,0,1,5.256-5.256h-10a5.271,5.271,0,0,0-5.256,5.256V156.724a5.271,5.271,0,0,0,5.256,5.256h10A5.271,5.271,0,0,1,36.779,156.724Z" fill="#6377e7"/><path d="M219.221,156.724V44.947a5.271,5.271,0,0,0-5.256-5.256h10a5.271,5.271,0,0,1,5.256,5.256V156.724a5.271,5.271,0,0,1-5.256,5.256h-10A5.271,5.271,0,0,0,219.221,156.724Z" fill="#63e2e7"/><rect x="89.809" y="204.547" width="76.383" height="9.197" fill="#9e9e9e"/><rect x="89.809" y="204.547" width="10" height="9.197" fill="#707070"/><rect x="100.67" y="182.389" width="54.659" height="22.158" fill="#cecece"/><rect x="100.67" y="182.389" width="10" height="22.158" fill="#afafaf"/><circle cx="128" cy="172.184" r="4.5" fill="#9e9e9e"/><rect x="147.795" y="57.736" width="14.538" height="6.712" fill="#f8af23"/><rect x="170.667" y="57.736" width="44.128" height="6.712" fill="#f8af23"/><rect x="147.795" y="73.736" width="31.455" height="6.712" fill="#f46275"/><rect x="187.128" y="73.736" width="27.667" height="6.712" fill="#f46275"/><rect x="147.795" y="89.736" width="21.33" height="6.712" fill="#f8af23"/><rect x="177.5" y="89.736" width="37.295" height="6.712" fill="#f8af23"/><rect x="41.205" y="105.736" width="101.909" height="6.712" fill="#f46275"/><rect x="152.5" y="105.736" width="62.295" height="6.712" fill="#f46275"/><rect x="41.205" y="121.736" width="117.255" height="6.712" fill="#cecece"/><rect x="168.591" y="121.736" width="46.204" height="6.712" fill="#cecece"/><rect x="41.205" y="137.736" width="101.909" height="6.712" fill="#f8af23"/><rect x="154.333" y="137.736" width="60.462" height="6.712" fill="#f8af23"/><path d="M230.721,156.724V44.947a6.764,6.764,0,0,0-6.756-6.756H32.035a6.764,6.764,0,0,0-6.756,6.756V156.724a6.763,6.763,0,0,0,6.756,6.755H223.965A6.763,6.763,0,0,0,230.721,156.724Zm-202.442,0V44.947a3.76,3.76,0,0,1,3.756-3.756H223.965a3.76,3.76,0,0,1,3.756,3.756V156.724a3.76,3.76,0,0,1-3.756,3.755H32.035A3.76,3.76,0,0,1,28.279,156.724Z" fill="#3f3679"/><path d="M128,166.184a6,6,0,1,0,6,6A6.007,6.007,0,0,0,128,166.184Zm0,9a3,3,0,1,1,3-3A3,3,0,0,1,128,175.184Z" fill="#3f3679"/><path d="M27.323,223.217h-18a1.5,1.5,0,1,0,0,3h18a1.5,1.5,0,1,0,0-3Z" fill="#3f3679"/><path d="M246.68,223.217h-18a1.5,1.5,0,0,0,0,3h18a1.5,1.5,0,1,0,0-3Z" fill="#3f3679"/><path d="M218.479,223.217H37.521a1.5,1.5,0,0,0,0,3H218.479a1.5,1.5,0,0,0,0-3Z" fill="#3f3679"/><path d="M9.32,215.244H246.68a1.5,1.5,0,0,0,0-3H167.691v-7.7a1.5,1.5,0,0,0-1.5-1.5H156.83V183.889h67.136a15.182,15.182,0,0,0,15.165-15.165V44.948a15.182,15.182,0,0,0-15.165-15.165H32.035A15.182,15.182,0,0,0,16.87,44.948V168.724a15.182,15.182,0,0,0,15.165,15.165H99.17v19.158H89.809a1.5,1.5,0,0,0-1.5,1.5v7.7H9.32a1.5,1.5,0,1,0,0,3Zm10.55-46.52V44.948A12.179,12.179,0,0,1,32.035,32.783H223.965A12.179,12.179,0,0,1,236.13,44.948V168.724a12.178,12.178,0,0,1-12.165,12.165H32.035A12.178,12.178,0,0,1,19.87,168.724Zm82.3,15.165H153.83v19.158H102.17ZM91.309,206.047h73.383v6.2H91.309Z" fill="#3f3679"/><path d="M41.938,76.881h3.7c1.172,0,2.2,1.531,2.2,3.276V90.744c0,3.46,2.28,6.276,5.082,6.276H56.5a1.5,1.5,0,0,0,0-3H52.922c-.985,0-2.082-1.345-2.082-3.276V80.157a6.85,6.85,0,0,0-1.835-4.776,6.85,6.85,0,0,0,1.835-4.776V60.019c0-1.931,1.1-3.276,2.082-3.276H56.5a1.5,1.5,0,0,0,0-3H52.922c-2.8,0-5.082,2.815-5.082,6.276V70.605c0,1.745-1.029,3.276-2.2,3.276h-3.7a1.5,1.5,0,0,0,0,3Z" fill="#3f3679"/><path d="M123.6,90.744c0,1.931-1.1,3.276-2.082,3.276h-3.582a1.5,1.5,0,0,0,0,3h3.582c2.8,0,5.082-2.815,5.082-6.276V80.157c0-1.745,1.029-3.276,2.2-3.276h3.7a1.5,1.5,0,0,0,0-3h-3.7c-1.173,0-2.2-1.531-2.2-3.276V60.019c0-3.46-2.28-6.276-5.082-6.276h-3.582a1.5,1.5,0,0,0,0,3h3.582c.984,0,2.082,1.345,2.082,3.276V70.605a6.85,6.85,0,0,0,1.836,4.776,6.85,6.85,0,0,0-1.836,4.776Z" fill="#3f3679"/><path d="M68.867,86.416a1.5,1.5,0,0,0,2.121-2.121l-8.913-8.913,8.913-8.913a1.5,1.5,0,0,0-2.121-2.121l-9.974,9.974a1.5,1.5,0,0,0,0,2.121Z" fill="#3f3679"/><path d="M103.45,86.416a1.5,1.5,0,0,0,2.121,0l9.974-9.974a1.5,1.5,0,0,0,0-2.121l-9.974-9.974a1.5,1.5,0,0,0-2.121,2.121l8.913,8.913-8.913,8.913A1.5,1.5,0,0,0,103.45,86.416Z" fill="#3f3679"/><path d="M80.055,94.43a1.5,1.5,0,0,0,1.932-.876l13.272-35.29a1.5,1.5,0,1,0-2.808-1.056L79.179,92.5A1.5,1.5,0,0,0,80.055,94.43Z" fill="#3f3679"/><path d="M147.795,65.949h14.539a1.5,1.5,0,0,0,1.5-1.5V57.736a1.5,1.5,0,0,0-1.5-1.5H147.795a1.5,1.5,0,0,0-1.5,1.5v6.712A1.5,1.5,0,0,0,147.795,65.949Zm1.5-6.712h11.539v3.712H149.295Z" fill="#3f3679"/><path d="M214.795,56.236H170.667a1.5,1.5,0,0,0-1.5,1.5v6.712a1.5,1.5,0,0,0,1.5,1.5h44.128a1.5,1.5,0,0,0,1.5-1.5V57.736A1.5,1.5,0,0,0,214.795,56.236Zm-1.5,6.712H172.167V59.236h41.128Z" fill="#3f3679"/><path d="M147.795,81.949H179.25a1.5,1.5,0,0,0,1.5-1.5V73.736a1.5,1.5,0,0,0-1.5-1.5H147.795a1.5,1.5,0,0,0-1.5,1.5v6.712A1.5,1.5,0,0,0,147.795,81.949Zm1.5-6.712H177.75v3.712H149.295Z" fill="#3f3679"/><path d="M214.795,72.236H187.128a1.5,1.5,0,0,0-1.5,1.5v6.712a1.5,1.5,0,0,0,1.5,1.5h27.667a1.5,1.5,0,0,0,1.5-1.5V73.736A1.5,1.5,0,0,0,214.795,72.236Zm-1.5,6.712H188.628V75.236h24.667Z" fill="#3f3679"/><path d="M147.795,97.949h21.33a1.5,1.5,0,0,0,1.5-1.5V89.736a1.5,1.5,0,0,0-1.5-1.5h-21.33a1.5,1.5,0,0,0-1.5,1.5v6.712A1.5,1.5,0,0,0,147.795,97.949Zm1.5-6.712h18.33v3.712h-18.33Z" fill="#3f3679"/><path d="M214.795,88.236H177.5a1.5,1.5,0,0,0-1.5,1.5v6.712a1.5,1.5,0,0,0,1.5,1.5h37.295a1.5,1.5,0,0,0,1.5-1.5V89.736A1.5,1.5,0,0,0,214.795,88.236Zm-1.5,6.712H179V91.236h34.295Z" fill="#3f3679"/><path d="M41.205,113.949H143.114a1.5,1.5,0,0,0,1.5-1.5v-6.712a1.5,1.5,0,0,0-1.5-1.5H41.205a1.5,1.5,0,0,0-1.5,1.5v6.712A1.5,1.5,0,0,0,41.205,113.949Zm1.5-6.712h98.909v3.712H42.705Z" fill="#3f3679"/><path d="M214.795,104.236H152.5a1.5,1.5,0,0,0-1.5,1.5v6.712a1.5,1.5,0,0,0,1.5,1.5h62.295a1.5,1.5,0,0,0,1.5-1.5v-6.712A1.5,1.5,0,0,0,214.795,104.236Zm-1.5,6.712H154v-3.712h59.295Z" fill="#3f3679"/><path d="M41.205,129.949H158.46a1.5,1.5,0,0,0,1.5-1.5v-6.712a1.5,1.5,0,0,0-1.5-1.5H41.205a1.5,1.5,0,0,0-1.5,1.5v6.712A1.5,1.5,0,0,0,41.205,129.949Zm1.5-6.712H156.96v3.712H42.705Z" fill="#3f3679"/><path d="M214.795,120.236h-46.2a1.5,1.5,0,0,0-1.5,1.5v6.712a1.5,1.5,0,0,0,1.5,1.5h46.2a1.5,1.5,0,0,0,1.5-1.5v-6.712A1.5,1.5,0,0,0,214.795,120.236Zm-1.5,6.712h-43.2v-3.712h43.2Z" fill="#3f3679"/><path d="M143.114,136.236H41.205a1.5,1.5,0,0,0-1.5,1.5v6.712a1.5,1.5,0,0,0,1.5,1.5H143.114a1.5,1.5,0,0,0,1.5-1.5v-6.712A1.5,1.5,0,0,0,143.114,136.236Zm-1.5,6.712H42.705v-3.712h98.909Z" fill="#3f3679"/><path d="M214.795,136.236H154.333a1.5,1.5,0,0,0-1.5,1.5v6.712a1.5,1.5,0,0,0,1.5,1.5h60.461a1.5,1.5,0,0,0,1.5-1.5v-6.712A1.5,1.5,0,0,0,214.795,136.236Zm-1.5,6.712H155.833v-3.712h57.461Z" fill="#3f3679"/></svg>