<svg xmlns="http://www.w3.org/2000/svg" viewBox="0 0 256 256"><title>icons_</title><rect x="18.37" y="18.727" width="219.26" height="151.106" rx="13.665" ry="13.665" fill="#cecece"/><path d="M28.37,156.168V32.392A13.681,13.681,0,0,1,42.035,18.727h-10A13.681,13.681,0,0,0,18.37,32.392V156.168a13.681,13.681,0,0,0,13.665,13.665h10A13.681,13.681,0,0,1,28.37,156.168Z" fill="#afafaf"/><path d="M227.63,156.168V32.392a13.681,13.681,0,0,0-13.665-13.665h10A13.681,13.681,0,0,1,237.63,32.392V156.168a13.681,13.681,0,0,1-13.665,13.665h-10A13.681,13.681,0,0,0,227.63,156.168Z" fill="#e2e2e2"/><rect x="26.779" y="27.136" width="202.442" height="122.288" rx="5.256" ry="5.256" fill="#63bce7"/><path d="M36.779,144.168V32.392a5.271,5.271,0,0,1,5.256-5.256h-10a5.271,5.271,0,0,0-5.256,5.256V144.168a5.271,5.271,0,0,0,5.256,5.256h10A5.271,5.271,0,0,1,36.779,144.168Z" fill="#6377e7"/><path d="M219.221,144.168V32.392a5.271,5.271,0,0,0-5.256-5.256h10a5.271,5.271,0,0,1,5.256,5.256V144.168a5.271,5.271,0,0,1-5.256,5.256h-10A5.271,5.271,0,0,0,219.221,144.168Z" fill="#63e2e7"/><rect x="50.5" y="18.728" width="155" height="121.288" rx="10" ry="10" fill="#f8af23"/><path d="M60.5,130.016V28.728a10,10,0,0,1,10-10h-10a10,10,0,0,0-10,10V130.016a10,10,0,0,0,10,10h10A10,10,0,0,1,60.5,130.016Z" fill="#f87023"/><path d="M195.5,130.016V28.728a10,10,0,0,0-10-10h10a10,10,0,0,1,10,10V130.016a10,10,0,0,1-10,10h-10A10,10,0,0,0,195.5,130.016Z" fill="#f8d323"/><circle cx="128" cy="141.672" r="39.978" fill="#9e9e9e"/><path d="M98.022,141.672A39.976,39.976,0,0,1,133,102.017a39.978,39.978,0,1,0,0,79.311A39.976,39.976,0,0,1,98.022,141.672Z" fill="#707070"/><path d="M109.249,181.65h37.5A44.65,44.65,0,0,1,191.4,226.3v0a0,0,0,0,1,0,0H64.6a0,0,0,0,1,0,0v0A44.65,44.65,0,0,1,109.249,181.65Z" fill="#f8af23"/><path d="M119.249,181.65h-10A44.649,44.649,0,0,0,64.6,226.3h10A44.649,44.649,0,0,1,119.249,181.65Z" fill="#f87023"/><path d="M146.211,133.747a18.211,18.211,0,1,0-30.492,13.446v8.336A12.281,12.281,0,0,0,128,167.809h0a12.281,12.281,0,0,0,12.281-12.281v-8.336A18.162,18.162,0,0,0,146.211,133.747Z" fill="#f8af23"/><path d="M115.719,155.528A12.281,12.281,0,0,0,128,167.809h0a12.281,12.281,0,0,0,12.281-12.281V153.9H115.719Z" fill="#f46275"/><path d="M27.323,235.772h-18a1.5,1.5,0,1,0,0,3h18a1.5,1.5,0,0,0,0-3Z" fill="#3f3679"/><path d="M246.68,235.772h-18a1.5,1.5,0,1,0,0,3h18a1.5,1.5,0,0,0,0-3Z" fill="#3f3679"/><path d="M218.479,235.772H37.521a1.5,1.5,0,1,0,0,3H218.479a1.5,1.5,0,1,0,0-3Z" fill="#3f3679"/><path d="M9.32,227.8H246.68a1.5,1.5,0,0,0,0-3H192.862A46.2,46.2,0,0,0,146.75,180.15h-3.291a41.594,41.594,0,0,0,13.494-8.817h67.012a15.182,15.182,0,0,0,15.165-15.164V32.392a15.182,15.182,0,0,0-15.165-15.164H32.035A15.182,15.182,0,0,0,16.87,32.392V156.169a15.182,15.182,0,0,0,15.165,15.164H99.046a41.594,41.594,0,0,0,13.494,8.817H109.25A46.2,46.2,0,0,0,63.138,224.8H9.32a1.5,1.5,0,1,0,0,3ZM223.965,20.228A12.178,12.178,0,0,1,236.13,32.392V156.169a12.178,12.178,0,0,1-12.165,12.164H159.741a41.369,41.369,0,0,0,8.683-17.409h55.54a6.763,6.763,0,0,0,6.756-6.755V32.392a6.763,6.763,0,0,0-6.756-6.756h-17.4a11.5,11.5,0,0,0-3.347-5.408ZM207,130.016V28.728c0-.031,0-.061,0-.092h16.97a3.76,3.76,0,0,1,3.756,3.756V144.169a3.76,3.76,0,0,1-3.756,3.755H169.006a41.622,41.622,0,0,0,.472-6.252c0-.052,0-.1,0-.156H195.5A11.513,11.513,0,0,0,207,130.016ZM195.5,20.228a8.51,8.51,0,0,1,8.5,8.5V130.016a8.51,8.51,0,0,1-8.5,8.5H169.346a41.465,41.465,0,0,0-82.692,0H60.5a8.51,8.51,0,0,1-8.5-8.5V28.728a8.51,8.51,0,0,1,8.5-8.5ZM60.5,141.516H86.526c0,.052,0,.1,0,.156a41.622,41.622,0,0,0,.472,6.252H32.035a3.76,3.76,0,0,1-3.756-3.755V32.392a3.76,3.76,0,0,1,3.756-3.756H49c0,.031,0,.061,0,.092V130.016A11.513,11.513,0,0,0,60.5,141.516ZM19.87,156.169V32.392A12.178,12.178,0,0,1,32.035,20.228H52.781a11.5,11.5,0,0,0-3.347,5.408h-17.4a6.763,6.763,0,0,0-6.756,6.756V144.169a6.763,6.763,0,0,0,6.756,6.755h55.54a41.369,41.369,0,0,0,8.683,17.409H32.035A12.178,12.178,0,0,1,19.87,156.169Zm69.652-14.5A38.478,38.478,0,1,1,128,180.15,38.521,38.521,0,0,1,89.522,141.672ZM109.25,183.15h37.5A43.2,43.2,0,0,1,189.874,224.8H66.126A43.2,43.2,0,0,1,109.25,183.15Z" fill="#3f3679"/><path d="M72.112,54.181a1.5,1.5,0,0,0,2.121,0L80.6,47.816l6.364,6.364a1.5,1.5,0,0,0,2.121-2.121L82.718,45.7l6.364-6.364a1.5,1.5,0,0,0-2.121-2.121L80.6,43.574,74.233,37.21a1.5,1.5,0,0,0-2.121,2.121L78.476,45.7,72.112,52.06A1.5,1.5,0,0,0,72.112,54.181Z" fill="#3f3679"/><path d="M181.742,70.887a1.5,1.5,0,0,0-2.121,0l-6.364,6.364-6.364-6.364a1.5,1.5,0,0,0-2.121,2.121l6.364,6.364-6.364,6.364a1.5,1.5,0,1,0,2.121,2.121l6.364-6.364,6.364,6.364a1.5,1.5,0,1,0,2.121-2.121l-6.364-6.364,6.364-6.364A1.5,1.5,0,0,0,181.742,70.887Z" fill="#3f3679"/><path d="M73.173,88.3H88.022a1.5,1.5,0,0,0,1.5-1.5V80.872h76.311a1.5,1.5,0,0,0,0-3H95.264l69.068-29.893V53.12a1.5,1.5,0,0,0,1.5,1.5h14.849a1.5,1.5,0,0,0,1.5-1.5V38.271a1.5,1.5,0,0,0-1.5-1.5H165.833a1.5,1.5,0,0,0-1.5,1.5V44.2H88.022a1.5,1.5,0,0,0,0,3H158.59L89.522,77.088V71.947a1.5,1.5,0,0,0-1.5-1.5H73.173a1.5,1.5,0,0,0-1.5,1.5V86.8A1.5,1.5,0,0,0,73.173,88.3Zm94.16-48.525h11.849V51.62H167.333ZM74.673,73.447H86.522V85.3H74.673Z" fill="#3f3679"/><path d="M128,114.036a19.709,19.709,0,0,0-13.781,33.8v7.69a13.781,13.781,0,0,0,27.562,0v-7.69A19.709,19.709,0,0,0,128,114.036Zm10.781,41.492a10.781,10.781,0,0,1-21.562,0V155.4h21.562Zm.488-9.443a1.5,1.5,0,0,0-.488,1.107V152.4H129.5V141.672a1.5,1.5,0,0,0-3,0V152.4h-9.281v-5.208a1.5,1.5,0,0,0-.488-1.107,16.711,16.711,0,1,1,22.538,0Z" fill="#3f3679"/></svg>