<svg xmlns="http://www.w3.org/2000/svg" viewBox="0 0 256 256"><title>icons_</title><rect x="13.457" y="60.835" width="112.85" height="139.983" fill="#63bce7"/><rect x="13.457" y="60.835" width="10" height="139.983" fill="#6377e7"/><rect x="116.308" y="60.835" width="10" height="139.983" fill="#63e2e7"/><path d="M83.757,52.71H78.382a8.5,8.5,0,0,0-17,0H56.007a8.125,8.125,0,0,0,0,16.25h27.75a8.125,8.125,0,0,0,0-16.25Z" fill="#f8af23"/><rect x="26.382" y="88.159" width="20" height="20" fill="#f46275"/><rect x="26.382" y="120.826" width="20" height="20" fill="#f46275"/><rect x="26.382" y="153.493" width="20" height="20" fill="#f46275"/><rect x="60.216" y="93.743" width="53.167" height="8.833" fill="#f46275"/><rect x="60.216" y="126.409" width="53.167" height="8.833" fill="#f46275"/><rect x="60.216" y="159.076" width="53.167" height="8.833" fill="#f46275"/><rect x="172.808" y="21.701" width="58" height="46" rx="3" ry="3" fill="#cecece"/><path d="M227.808,21.7h-10a3,3,0,0,1,3,3v40a3,3,0,0,1-3,3h10a3,3,0,0,0,3-3v-40A3,3,0,0,0,227.808,21.7Z" fill="#e2e2e2"/><path d="M199.912,57.4a7.1,7.1,0,0,1-5.42-2.506L183.833,42.344a7.106,7.106,0,0,1,10.833-9.2l6.376,7.51,30.192-22.141a7.106,7.106,0,0,1,8.4,11.461L204.11,56.029A7.081,7.081,0,0,1,199.912,57.4Z" fill="#63bce7"/><rect x="172.808" y="101.795" width="58" height="46" rx="3" ry="3" fill="#cecece"/><path d="M227.808,101.8h-10a3,3,0,0,1,3,3v40a3,3,0,0,1-3,3h10a3,3,0,0,0,3-3v-40A3,3,0,0,0,227.808,101.8Z" fill="#e2e2e2"/><path d="M199.912,137.5a7.1,7.1,0,0,1-5.42-2.506l-10.658-12.554a7.106,7.106,0,0,1,10.833-9.2l6.376,7.51,30.192-22.141a7.106,7.106,0,0,1,8.4,11.461L204.11,136.123A7.081,7.081,0,0,1,199.912,137.5Z" fill="#63bce7"/><rect x="172.808" y="181.889" width="58" height="46" rx="3" ry="3" fill="#cecece"/><path d="M227.808,181.889h-10a3,3,0,0,1,3,3v40a3,3,0,0,1-3,3h10a3,3,0,0,0,3-3v-40A3,3,0,0,0,227.808,181.889Z" fill="#e2e2e2"/><path d="M199.912,217.593a7.1,7.1,0,0,1-5.42-2.506l-10.658-12.554a7.106,7.106,0,0,1,10.833-9.2l6.376,7.51L231.235,178.7a7.106,7.106,0,0,1,8.4,11.461L204.11,216.217A7.081,7.081,0,0,1,199.912,217.593Z" fill="#63bce7"/><path d="M27.323,237.362h-18a1.5,1.5,0,1,0,0,3h18a1.5,1.5,0,1,0,0-3Z" fill="#3f3679"/><path d="M246.68,237.362h-18a1.5,1.5,0,0,0,0,3h18a1.5,1.5,0,0,0,0-3Z" fill="#3f3679"/><path d="M218.479,237.362H37.521a1.5,1.5,0,0,0,0,3H218.479a1.5,1.5,0,0,0,0-3Z" fill="#3f3679"/><path d="M9.32,229.39H246.68a1.5,1.5,0,0,0,0-3H232.031a4.449,4.449,0,0,0,.276-1.5V197.4l8.218-6.027a8.606,8.606,0,0,0-10.179-13.881l-3.951,2.9H203.308V149.295h24.5a4.5,4.5,0,0,0,4.5-4.5V117.3l8.218-6.026A8.606,8.606,0,1,0,230.347,97.4l-3.95,2.9h-23.09V69.2h24.5a4.5,4.5,0,0,0,4.5-4.5V37.211l8.218-6.027A8.606,8.606,0,0,0,230.347,17.3L226.4,20.2H175.808a4.5,4.5,0,0,0-4.5,4.5v40a4.5,4.5,0,0,0,4.5,4.5h24.5v31.094h-24.5a4.5,4.5,0,0,0-4.5,4.5v16.219h-43.5V60.835a1.5,1.5,0,0,0-1.5-1.5H93.253a9.632,9.632,0,0,0-9.5-8.125H79.77a10,10,0,0,0-19.775,0H56.007a9.632,9.632,0,0,0-9.5,8.125H13.458a1.5,1.5,0,0,0-1.5,1.5V200.817a1.5,1.5,0,0,0,1.5,1.5h112.85a1.5,1.5,0,0,0,1.5-1.5v-76.8h43.5v20.781a4.5,4.5,0,0,0,4.5,4.5h24.5V180.39h-24.5a4.5,4.5,0,0,0-4.5,4.5v40a4.449,4.449,0,0,0,.276,1.5H9.32a1.5,1.5,0,1,0,0,3Zm222.8-209.666a5.605,5.605,0,0,1,7.835,1.205,5.613,5.613,0,0,1-1.206,7.836L203.224,54.819a5.607,5.607,0,0,1-7.589-.893L184.977,41.373a5.606,5.606,0,0,1,4.264-9.234c.155,0,.31.007.466.02a5.57,5.57,0,0,1,3.817,1.958l6.375,7.51a1.5,1.5,0,0,0,2.031.239ZM174.308,64.7v-40a1.5,1.5,0,0,1,1.5-1.5h46.5L201.281,38.619l-5.471-6.444a8.606,8.606,0,0,0-13.121,11.14l10.659,12.554A8.607,8.607,0,0,0,205,57.239l24.31-17.828V64.7a1.5,1.5,0,0,1-1.5,1.5h-52A1.5,1.5,0,0,1,174.308,64.7ZM56.007,54.21h5.375a1.5,1.5,0,0,0,1.5-1.5,7,7,0,0,1,14,0,1.5,1.5,0,0,0,1.5,1.5h5.375a6.625,6.625,0,1,1,0,13.25H56.007a6.625,6.625,0,0,1,0-13.25Zm68.8,145.107H14.958V62.335H46.511a9.632,9.632,0,0,0,9.5,8.125h27.75a9.632,9.632,0,0,0,9.5-8.125h31.554Zm107.314-99.5a5.605,5.605,0,1,1,6.63,9.04l-35.528,26.055a5.607,5.607,0,0,1-7.588-.892l-10.659-12.554a5.607,5.607,0,0,1,4.264-9.234c.155,0,.31.006.466.019a5.567,5.567,0,0,1,3.817,1.959l6.375,7.509a1.5,1.5,0,0,0,2.031.239Zm-57.814,44.977v-40a1.5,1.5,0,0,1,1.5-1.5h46.5l-21.025,15.419-5.471-6.444a8.606,8.606,0,1,0-13.121,11.14l10.659,12.554A8.608,8.608,0,0,0,205,137.333l24.31-17.828v25.29a1.5,1.5,0,0,1-1.5,1.5h-52A1.5,1.5,0,0,1,174.308,144.795Zm57.814,35.117a5.605,5.605,0,0,1,7.835,1.205,5.613,5.613,0,0,1-1.206,7.836l-35.527,26.055a5.607,5.607,0,0,1-7.589-.893l-10.659-12.554a5.606,5.606,0,0,1,4.264-9.234c.155,0,.31.007.466.02a5.57,5.57,0,0,1,3.817,1.958l6.375,7.51a1.5,1.5,0,0,0,2.031.239ZM174.308,224.89v-40a1.5,1.5,0,0,1,1.5-1.5h46.5l-21.024,15.418-5.471-6.444a8.606,8.606,0,0,0-13.121,11.14l10.659,12.554A8.607,8.607,0,0,0,205,217.428l24.31-17.828v25.29a1.5,1.5,0,0,1-1.5,1.5h-52A1.5,1.5,0,0,1,174.308,224.89Z" fill="#3f3679"/><path d="M46.382,86.659h-20a1.5,1.5,0,0,0-1.5,1.5v20a1.5,1.5,0,0,0,1.5,1.5h20a1.5,1.5,0,0,0,1.5-1.5v-20A1.5,1.5,0,0,0,46.382,86.659Zm-1.5,20h-17v-17h17Z" fill="#3f3679"/><path d="M46.382,119.326h-20a1.5,1.5,0,0,0-1.5,1.5v20a1.5,1.5,0,0,0,1.5,1.5h20a1.5,1.5,0,0,0,1.5-1.5v-20A1.5,1.5,0,0,0,46.382,119.326Zm-1.5,20h-17v-17h17Z" fill="#3f3679"/><path d="M46.382,151.993h-20a1.5,1.5,0,0,0-1.5,1.5v20a1.5,1.5,0,0,0,1.5,1.5h20a1.5,1.5,0,0,0,1.5-1.5v-20A1.5,1.5,0,0,0,46.382,151.993Zm-1.5,20h-17v-17h17Z" fill="#3f3679"/><path d="M113.382,92.243H60.216a1.5,1.5,0,0,0-1.5,1.5v8.833a1.5,1.5,0,0,0,1.5,1.5h53.167a1.5,1.5,0,0,0,1.5-1.5V93.743A1.5,1.5,0,0,0,113.382,92.243Zm-1.5,8.833H61.716V95.243h50.167Z" fill="#3f3679"/><path d="M113.382,124.909H60.216a1.5,1.5,0,0,0-1.5,1.5v8.834a1.5,1.5,0,0,0,1.5,1.5h53.167a1.5,1.5,0,0,0,1.5-1.5v-8.834A1.5,1.5,0,0,0,113.382,124.909Zm-1.5,8.834H61.716v-5.834h50.167Z" fill="#3f3679"/><path d="M113.382,157.576H60.216a1.5,1.5,0,0,0-1.5,1.5v8.833a1.5,1.5,0,0,0,1.5,1.5h53.167a1.5,1.5,0,0,0,1.5-1.5v-8.833A1.5,1.5,0,0,0,113.382,157.576Zm-1.5,8.833H61.716v-5.833h50.167Z" fill="#3f3679"/></svg>