<svg xmlns="http://www.w3.org/2000/svg" viewBox="0 0 256 256"><title>icons_</title><rect x="18.37" y="50.711" width="219.26" height="151.106" rx="13.665" ry="13.665" fill="#cecece"/><path d="M28.37,188.153V64.376A13.681,13.681,0,0,1,42.035,50.711h-10A13.681,13.681,0,0,0,18.37,64.376V188.153a13.681,13.681,0,0,0,13.665,13.665h10A13.681,13.681,0,0,1,28.37,188.153Z" fill="#afafaf"/><path d="M227.63,188.153V64.376a13.681,13.681,0,0,0-13.665-13.665h10A13.681,13.681,0,0,1,237.63,64.376V188.153a13.681,13.681,0,0,1-13.665,13.665h-10A13.681,13.681,0,0,0,227.63,188.153Z" fill="#e2e2e2"/><rect x="26.779" y="59.12" width="202.442" height="122.288" rx="5.256" ry="5.256" fill="#63bce7"/><path d="M36.779,176.153V64.376a5.271,5.271,0,0,1,5.256-5.256h-10a5.271,5.271,0,0,0-5.256,5.256V176.153a5.271,5.271,0,0,0,5.256,5.256h10A5.271,5.271,0,0,1,36.779,176.153Z" fill="#6377e7"/><path d="M219.221,176.153V64.376a5.271,5.271,0,0,0-5.256-5.256h10a5.271,5.271,0,0,1,5.256,5.256V176.153a5.271,5.271,0,0,1-5.256,5.256h-10A5.271,5.271,0,0,0,219.221,176.153Z" fill="#63e2e7"/><rect x="89.809" y="223.975" width="76.383" height="9.197" fill="#9e9e9e"/><rect x="89.809" y="223.975" width="10" height="9.197" fill="#707070"/><rect x="100.67" y="201.817" width="54.659" height="22.158" fill="#cecece"/><rect x="100.67" y="201.817" width="10" height="22.158" fill="#afafaf"/><circle cx="128" cy="191.613" r="4.5" fill="#9e9e9e"/><rect x="50.757" y="11.854" width="154.485" height="132.343" rx="10.6" ry="10.6" fill="#cecece"/><path d="M60.757,133.6V22.454a10.6,10.6,0,0,1,10.6-10.6h-10a10.6,10.6,0,0,0-10.6,10.6V133.6a10.6,10.6,0,0,0,10.6,10.6h10A10.6,10.6,0,0,1,60.757,133.6Z" fill="#afafaf"/><path d="M195.243,133.6V22.454a10.6,10.6,0,0,0-10.6-10.6h10a10.6,10.6,0,0,1,10.6,10.6V133.6a10.6,10.6,0,0,1-10.6,10.6h-10A10.6,10.6,0,0,0,195.243,133.6Z" fill="#e2e2e2"/><path d="M205.242,22.456a10.6,10.6,0,0,0-10.6-10.6H61.359a10.6,10.6,0,0,0-10.6,10.6V40.905H205.242Z" fill="#f8af23"/><path d="M71.359,11.854h-10a10.6,10.6,0,0,0-10.6,10.6V40.905h10V22.456A10.6,10.6,0,0,1,71.359,11.854Z" fill="#f87023"/><path d="M184.641,11.854h10a10.6,10.6,0,0,1,10.6,10.6V40.905h-10V22.456A10.6,10.6,0,0,0,184.641,11.854Z" fill="#f8d323"/><circle cx="69.682" cy="26.38" r="4.842" fill="#f46275"/><circle cx="88.332" cy="26.38" r="4.842" fill="#f46275"/><circle cx="106.981" cy="26.38" r="4.842" fill="#f46275"/><rect x="122.517" y="23.008" width="68.643" height="7.378" rx="3.689" ry="3.689" fill="#f46275"/><path d="M156.586,73.244H144.124V60.782A13.179,13.179,0,0,0,130.96,47.618H118.674A13.179,13.179,0,0,0,105.51,60.782V73.244H93.048A13.179,13.179,0,0,0,79.884,86.408V98.694a13.179,13.179,0,0,0,13.164,13.164H105.51V124.32a13.179,13.179,0,0,0,13.164,13.164H130.96a13.179,13.179,0,0,0,13.164-13.164V111.858h12.462A13.179,13.179,0,0,0,169.75,98.694V86.408A13.179,13.179,0,0,0,156.586,73.244ZM93.048,106.593a7.907,7.907,0,0,1-7.9-7.9V86.408a7.907,7.907,0,0,1,7.9-7.9h31.769a2.633,2.633,0,1,0,0-5.266H110.775V60.782a7.907,7.907,0,0,1,7.9-7.9H130.96a7.907,7.907,0,0,1,7.9,7.9V89.918H108.143a2.633,2.633,0,0,0-2.633,2.633v14.042Zm71.437-7.9a7.907,7.907,0,0,1-7.9,7.9H124.817a2.633,2.633,0,0,0,0,5.266h14.042V124.32a7.907,7.907,0,0,1-7.9,7.9H118.674a7.907,7.907,0,0,1-7.9-7.9V95.184h30.716a2.633,2.633,0,0,0,2.633-2.633V78.51h12.462a7.907,7.907,0,0,1,7.9,7.9Z" fill="#3f3679"/><path d="M121.307,63.415a2.633,2.633,0,1,1-2.633-2.633A2.633,2.633,0,0,1,121.307,63.415Z" fill="#3f3679"/><path d="M133.593,121.687a2.633,2.633,0,1,1-2.633-2.633A2.633,2.633,0,0,1,133.593,121.687Z" fill="#3f3679"/><circle cx="195.079" cy="147.267" r="34.142" fill="#f8af23"/><path d="M195.079,113.125a34.4,34.4,0,0,0-5,.368,34.142,34.142,0,0,1,0,67.547,34.142,34.142,0,1,0,5-67.915Z" fill="#f8d323"/><path d="M128,197.613a6,6,0,1,0-6-6A6.007,6.007,0,0,0,128,197.613Zm0-9a3,3,0,1,1-3,3A3,3,0,0,1,128,188.613Z" fill="#3f3679"/><path d="M27.323,242.646h-18a1.5,1.5,0,1,0,0,3h18a1.5,1.5,0,1,0,0-3Z" fill="#3f3679"/><path d="M246.68,242.646h-18a1.5,1.5,0,0,0,0,3h18a1.5,1.5,0,0,0,0-3Z" fill="#3f3679"/><path d="M218.479,242.646H37.521a1.5,1.5,0,0,0,0,3H218.479a1.5,1.5,0,0,0,0-3Z" fill="#3f3679"/><path d="M9.32,234.673H246.68a1.5,1.5,0,0,0,0-3H167.691v-7.7a1.5,1.5,0,0,0-1.5-1.5h-9.362V203.317h67.137a15.182,15.182,0,0,0,15.164-15.165V64.376a15.182,15.182,0,0,0-15.164-15.165H206.742V22.454a12.113,12.113,0,0,0-12.1-12.1H61.357a12.114,12.114,0,0,0-12.1,12.1V49.211H32.035A15.182,15.182,0,0,0,16.87,64.376V188.152a15.182,15.182,0,0,0,15.165,15.165H99.17v19.158H89.809a1.5,1.5,0,0,0-1.5,1.5v7.7H9.32a1.5,1.5,0,1,0,0,3Zm218.4-101.7a35.82,35.82,0,0,0-20.979-19.382V60.62h17.224a3.76,3.76,0,0,1,3.755,3.756Zm-32.642,46.932a32.642,32.642,0,1,1,32.642-32.642A32.678,32.678,0,0,1,195.079,179.908Zm32.642-18.351v14.6a3.76,3.76,0,0,1-3.755,3.756h-14.6A35.846,35.846,0,0,0,227.721,161.557Zm-23.979-48.862a35.629,35.629,0,0,0-44,30H61.357a9.111,9.111,0,0,1-9.1-9.1V42.405H203.742Zm-142.385,33h98.12c-.023.521-.04,1.043-.04,1.569a35.687,35.687,0,0,0,21.351,32.642H32.035a3.76,3.76,0,0,1-3.756-3.756V64.376a3.76,3.76,0,0,1,3.756-3.756H49.257V133.6A12.114,12.114,0,0,0,61.357,145.7ZM194.641,13.354a9.112,9.112,0,0,1,9.1,9.1V39.405H52.257V22.456a9.112,9.112,0,0,1,9.1-9.1ZM19.87,188.152V64.376A12.178,12.178,0,0,1,32.035,52.211H49.257V57.62H32.035a6.764,6.764,0,0,0-6.756,6.756V176.152a6.764,6.764,0,0,0,6.756,6.756H223.966a6.763,6.763,0,0,0,6.755-6.756V64.376a6.763,6.763,0,0,0-6.755-6.756H206.742V52.211h17.224A12.178,12.178,0,0,1,236.13,64.376V188.152a12.178,12.178,0,0,1-12.164,12.165H32.035A12.179,12.179,0,0,1,19.87,188.152Zm82.3,15.165h51.659v19.158H102.17ZM91.309,225.476h73.383v6.2H91.309Z" fill="#3f3679"/><path d="M69.682,32.722A6.342,6.342,0,1,0,63.34,26.38,6.349,6.349,0,0,0,69.682,32.722Zm0-9.684A3.342,3.342,0,1,1,66.34,26.38,3.345,3.345,0,0,1,69.682,23.038Z" fill="#3f3679"/><path d="M88.332,32.722A6.342,6.342,0,1,0,81.99,26.38,6.349,6.349,0,0,0,88.332,32.722Zm0-9.684A3.342,3.342,0,1,1,84.99,26.38,3.345,3.345,0,0,1,88.332,23.038Z" fill="#3f3679"/><path d="M106.981,32.722a6.342,6.342,0,1,0-6.342-6.342A6.349,6.349,0,0,0,106.981,32.722Zm0-9.684a3.342,3.342,0,1,1-3.342,3.342A3.345,3.345,0,0,1,106.981,23.038Z" fill="#3f3679"/><path d="M126.206,31.886h61.265a5.189,5.189,0,1,0,0-10.378H126.206a5.189,5.189,0,1,0,0,10.378Zm0-7.378h61.265a2.189,2.189,0,1,1,0,4.378H126.206a2.189,2.189,0,1,1,0-4.378Z" fill="#3f3679"/><path d="M177.651,152.922v6.708a1.514,1.514,0,0,1-1.514,1.514h-3.685a1.514,1.514,0,0,1-1.514-1.514V134.9a1.514,1.514,0,0,1,1.514-1.514h9.36q4.945,0,7.537,2.453a8.681,8.681,0,0,1,2.591,6.614,9.109,9.109,0,0,1-1.159,4.613,8.026,8.026,0,0,1-3.435,3.18,12.093,12.093,0,0,1-5.534,1.158h-2.647A1.514,1.514,0,0,0,177.651,152.922Zm7.458-10.464q0-3.65-4.043-3.651h-1.9a1.514,1.514,0,0,0-1.514,1.514v4.2a1.514,1.514,0,0,0,1.514,1.514h1.9Q185.107,146.03,185.109,142.457Z" fill="#3f3679"/><path d="M218.073,135.6l-8.3,15.989a1.514,1.514,0,0,0-.17.7v7.342a1.514,1.514,0,0,1-1.514,1.514h-3.725a1.514,1.514,0,0,1-1.514-1.514v-7.342a1.514,1.514,0,0,0-.17-.7l-8.3-15.989a1.514,1.514,0,0,1,1.344-2.211h4.244a1.514,1.514,0,0,1,1.369.867l3.56,7.539a1.514,1.514,0,0,0,2.738,0l3.56-7.539a1.514,1.514,0,0,1,1.369-.867h4.165A1.514,1.514,0,0,1,218.073,135.6Z" fill="#3f3679"/></svg>