<svg xmlns="http://www.w3.org/2000/svg" viewBox="0 0 256 256"><title>icons_</title><path d="M141.269,26.142,125.337,10.21a7.5,7.5,0,0,0-10.606,10.606l3.616,3.616A98.443,98.443,0,0,0,34.52,91.176a7.5,7.5,0,1,0,14.223,4.766,83.461,83.461,0,0,1,68.4-56.283l-2.414,2.414A7.5,7.5,0,1,0,125.337,52.68l15.932-15.932a7.5,7.5,0,0,0,0-10.606Z" fill="#63bce7"/><path d="M44.52,91.176a98.443,98.443,0,0,1,83.828-66.743l-3.616-3.616a7.5,7.5,0,0,1,0-10.606c.1-.1.2-.183.3-.274a7.5,7.5,0,0,0-10.3,10.881l3.616,3.616A98.443,98.443,0,0,0,34.52,91.176a7.485,7.485,0,0,0,12.1,7.961A7.5,7.5,0,0,1,44.52,91.176Z" fill="#6377e7"/><path d="M101.44,201.775a83.459,83.459,0,0,1-56.295-68.407l2.415,2.415a7.5,7.5,0,0,0,10.606-10.606L42.234,109.245a7.5,7.5,0,0,0-10.606,0L15.7,125.176A7.5,7.5,0,1,0,26.3,135.783l3.616-3.616A98.441,98.441,0,0,0,96.676,216a7.5,7.5,0,1,0,4.764-14.224Z" fill="#cecece"/><path d="M39.919,132.167,36.3,135.783a7.477,7.477,0,0,1-5.3,2.2c-.109,0-.217-.011-.326-.016a98.421,98.421,0,0,0,66,78.035,7.445,7.445,0,0,0,6.866-1.114A98.436,98.436,0,0,1,39.919,132.167Z" fill="#afafaf"/><path d="M25.7,125.176l15.931-15.932c.1-.1.2-.184.3-.275a7.483,7.483,0,0,0-10.3.275L15.7,125.176A7.495,7.495,0,0,0,26,136.057c-.1-.091-.206-.177-.3-.274A7.5,7.5,0,0,1,25.7,125.176Z" fill="#afafaf"/><path d="M216.752,144.357a7.5,7.5,0,0,0-9.494,4.729,83.461,83.461,0,0,1-68.4,56.283l2.414-2.414a7.5,7.5,0,0,0-10.606-10.606l-15.932,15.932a7.5,7.5,0,0,0,0,10.606l15.932,15.931a7.5,7.5,0,1,0,10.606-10.606l-3.616-3.616a98.443,98.443,0,0,0,83.828-66.743A7.5,7.5,0,0,0,216.752,144.357Z" fill="#f8af23"/><path d="M216.752,144.357a7.487,7.487,0,0,0-7.38,1.524,7.5,7.5,0,0,1,2.109,7.97,98.443,98.443,0,0,1-83.828,66.743l3.616,3.616a7.5,7.5,0,0,1,0,10.606c-.1.1-.2.183-.3.274a7.495,7.495,0,0,0,10.3-10.88l-3.616-3.616a98.443,98.443,0,0,0,83.828-66.743A7.5,7.5,0,0,0,216.752,144.357Z" fill="#f8d323"/><path d="M240.3,109.245a7.5,7.5,0,0,0-10.606,0l-3.616,3.616a98.443,98.443,0,0,0-66.743-83.828,7.5,7.5,0,0,0-4.766,14.223,83.461,83.461,0,0,1,56.283,68.4l-2.414-2.414a7.5,7.5,0,1,0-10.606,10.606l15.932,15.932a7.5,7.5,0,0,0,10.606,0L240.3,119.851A7.5,7.5,0,0,0,240.3,109.245Z" fill="#f46275"/><path d="M216.081,112.861l3.616-3.616a7.472,7.472,0,0,1,5.629-2.181,98.423,98.423,0,0,0-65.988-78.03,7.482,7.482,0,0,0-6.878,1.11A98.439,98.439,0,0,1,216.081,112.861Z" fill="#f48875"/><path d="M240.3,109.245a7.493,7.493,0,0,0-10.3-.274c.1.091.206.177.3.274a7.5,7.5,0,0,1,0,10.606l-15.931,15.932c-.1.1-.2.184-.3.275a7.483,7.483,0,0,0,10.3-.275L240.3,119.851A7.5,7.5,0,0,0,240.3,109.245Z" fill="#f48875"/><path d="M150.847,105.333a42.656,42.656,0,0,0-23.5-38.117,42.656,42.656,0,0,0-23.5,38.117v54.75h47Z" fill="#cecece"/><path d="M132.347,70.179a42.682,42.682,0,0,0-5-2.963,42.656,42.656,0,0,0-23.5,38.117v54.75h10v-54.75A42.6,42.6,0,0,1,132.347,70.179Z" fill="#afafaf"/><polygon points="90.625 160.083 103.847 160.083 103.847 132.384 98.5 132.384 90.625 160.083" fill="#9e9e9e"/><polygon points="164.069 160.083 150.847 160.083 150.847 132.384 156.194 132.384 164.069 160.083" fill="#9e9e9e"/><circle cx="127.347" cy="109.084" r="10.116" fill="#f8af23"/><path d="M38.772,102.093a8.994,8.994,0,0,0,11.393-5.675,82.546,82.546,0,0,1,62.77-54.575A9,9,0,0,0,126.4,53.74L142.33,37.809a9,9,0,0,0,0-12.728L126.4,9.149A9,9,0,1,0,113.67,21.877l1.416,1.416A100.135,100.135,0,0,0,33.1,90.7,9.011,9.011,0,0,0,38.772,102.093Zm-2.83-10.44a97.12,97.12,0,0,1,82.551-65.727,1.5,1.5,0,0,0,.915-2.554l-3.616-3.616a6,6,0,1,1,8.485-8.485L140.208,27.2a6,6,0,0,1,0,8.485L124.277,51.619a6,6,0,0,1-8.485-8.485l2.415-2.415a1.5,1.5,0,0,0-1.254-2.548A85.512,85.512,0,0,0,47.32,95.465a6,6,0,1,1-11.378-3.812Z" fill="#3f3679"/><path d="M21,139.479a8.939,8.939,0,0,0,6.364-2.637l1.416-1.416A100.132,100.132,0,0,0,96.2,217.421a9,9,0,1,0,5.717-17.067A82.545,82.545,0,0,1,47.33,137.578a9,9,0,0,0,11.9-13.463L43.295,108.184a9,9,0,0,0-12.728,0L14.636,124.115A9,9,0,0,0,21,139.479Zm-4.243-13.243L32.688,110.3a6,6,0,0,1,8.485,0l15.932,15.932a6,6,0,1,1-8.485,8.485l-2.415-2.414a1.5,1.5,0,0,0-2.548,1.254A85.508,85.508,0,0,0,100.963,203.2a6,6,0,1,1-3.811,11.38,97.122,97.122,0,0,1-65.741-82.557,1.5,1.5,0,0,0-2.553-.915l-3.617,3.616a6,6,0,0,1-8.485-8.485Z" fill="#3f3679"/><path d="M154.1,44.678a82.543,82.543,0,0,1,54.574,62.771,9,9,0,0,0-11.9,13.463L212.7,136.843a9,9,0,0,0,12.728,0l15.931-15.932a9,9,0,0,0,0-12.728h0a9,9,0,0,0-12.728,0L227.22,109.6a100.134,100.134,0,0,0-67.4-81.988,9,9,0,1,0-5.72,17.066Zm-2.83-10.439a6,6,0,0,1,7.6-3.783,97.123,97.123,0,0,1,65.727,82.551,1.5,1.5,0,0,0,2.553.915l3.616-3.616a6,6,0,0,1,8.485,0h0a6,6,0,0,1,0,8.485l-15.932,15.932a6,6,0,0,1-8.485,0L198.895,118.79a6,6,0,0,1,8.485-8.485l2.415,2.415a1.5,1.5,0,0,0,2.548-1.254,85.509,85.509,0,0,0-57.293-69.632A6.008,6.008,0,0,1,151.266,34.238Z" fill="#3f3679"/><path d="M27.323,246.486h-18a1.5,1.5,0,1,0,0,3h18a1.5,1.5,0,1,0,0-3Z" fill="#3f3679"/><path d="M246.68,246.486h-18a1.5,1.5,0,0,0,0,3h18a1.5,1.5,0,0,0,0-3Z" fill="#3f3679"/><path d="M218.479,246.486H37.521a1.5,1.5,0,0,0,0,3H218.479a1.5,1.5,0,0,0,0-3Z" fill="#3f3679"/><path d="M9.32,238.514H246.68a1.5,1.5,0,0,0,0-3H142.659a8.98,8.98,0,0,0-.33-12.364l-1.416-1.415A100.135,100.135,0,0,0,222.9,154.328a9,9,0,1,0-17.067-5.719,82.541,82.541,0,0,1-62.769,54.574,9,9,0,0,0-13.464-11.9L113.67,207.219a9,9,0,0,0,0,12.728l15.568,15.567H9.32a1.5,1.5,0,1,0,0,3Zm122.4-4.758-15.932-15.931a6,6,0,0,1,0-8.485l15.932-15.932a6,6,0,0,1,8.485,8.485l-2.415,2.414a1.5,1.5,0,0,0,1.254,2.548,85.51,85.51,0,0,0,69.632-57.293,6,6,0,0,1,7.594-3.783h0a6,6,0,0,1,3.783,7.6A97.12,97.12,0,0,1,137.507,219.1a1.5,1.5,0,0,0-.915,2.554l3.616,3.615a6,6,0,1,1-8.485,8.485Z" fill="#3f3679"/><path d="M127.347,120.7a11.617,11.617,0,1,0-11.616-11.616A11.63,11.63,0,0,0,127.347,120.7Zm0-20.233a8.617,8.617,0,1,1-8.616,8.617A8.626,8.626,0,0,1,127.347,100.467Z" fill="#3f3679"/><path d="M140.181,170.3a1.5,1.5,0,0,0,1.5-1.5v-7.218h22.389a1.5,1.5,0,0,0,1.443-1.91l-7.875-27.7a1.5,1.5,0,0,0-1.443-1.09h-3.847V105.333a43.973,43.973,0,0,0-24.325-39.457,1.506,1.506,0,0,0-1.35,0,43.973,43.973,0,0,0-24.325,39.457v25.551H98.5a1.5,1.5,0,0,0-1.443,1.09l-7.875,27.7a1.5,1.5,0,0,0,1.443,1.91h22.389V168.8a1.5,1.5,0,0,0,3,0v-7.218h9.833v15.468a1.5,1.5,0,0,0,3,0V161.583h9.833V168.8A1.5,1.5,0,0,0,140.181,170.3Zm14.881-36.417,7.022,24.7h-9.736v-24.7Zm-55.429,0h2.714v24.7H92.611Zm5.714-1.5V105.333a40.977,40.977,0,0,1,22-36.43,40.977,40.977,0,0,1,22,36.43v53.25h-44Z" fill="#3f3679"/></svg>