<svg xmlns="http://www.w3.org/2000/svg" viewBox="0 0 256 256"><title>icons_</title><rect x="18.37" y="31.283" width="219.26" height="151.106" rx="13.665" ry="13.665" fill="#cecece"/><path d="M28.37,168.724V44.948A13.681,13.681,0,0,1,42.035,31.283h-10A13.681,13.681,0,0,0,18.37,44.948V168.724a13.681,13.681,0,0,0,13.665,13.665h10A13.681,13.681,0,0,1,28.37,168.724Z" fill="#afafaf"/><path d="M227.63,168.724V44.948a13.681,13.681,0,0,0-13.665-13.665h10A13.681,13.681,0,0,1,237.63,44.948V168.724a13.681,13.681,0,0,1-13.665,13.665h-10A13.681,13.681,0,0,0,227.63,168.724Z" fill="#e2e2e2"/><rect x="26.779" y="39.692" width="202.442" height="122.288" rx="5.256" ry="5.256" fill="#63bce7"/><path d="M36.779,156.724V44.947a5.271,5.271,0,0,1,5.256-5.256h-10a5.271,5.271,0,0,0-5.256,5.256V156.724a5.271,5.271,0,0,0,5.256,5.256h10A5.271,5.271,0,0,1,36.779,156.724Z" fill="#6377e7"/><path d="M219.221,156.724V44.947a5.271,5.271,0,0,0-5.256-5.256h10a5.271,5.271,0,0,1,5.256,5.256V156.724a5.271,5.271,0,0,1-5.256,5.256h-10A5.271,5.271,0,0,0,219.221,156.724Z" fill="#63e2e7"/><rect x="89.809" y="204.547" width="76.383" height="9.197" fill="#9e9e9e"/><rect x="89.809" y="204.547" width="10" height="9.197" fill="#707070"/><rect x="100.67" y="182.389" width="54.659" height="22.158" fill="#cecece"/><rect x="100.67" y="182.389" width="10" height="22.158" fill="#afafaf"/><circle cx="128" cy="172.184" r="4.5" fill="#9e9e9e"/><circle cx="48.25" cy="52.917" r="4.583" fill="#f8af23"/><circle cx="62.833" cy="52.917" r="4.583" fill="#f8af23"/><circle cx="77.417" cy="52.917" r="4.583" fill="#f8af23"/><rect x="44.184" y="65.155" width="167.632" height="43.333" fill="#f46275"/><rect x="44.254" y="117.25" width="42.71" height="21.5" fill="#f8af23"/><rect x="106.645" y="117.25" width="42.71" height="21.5" fill="#f8af23"/><rect x="138.286" y="76.58" width="83.583" height="137.164" rx="5" ry="5" fill="#63bce7"/><path d="M216.869,76.58h-10a5,5,0,0,1,5,5V208.744a5,5,0,0,1-5,5h10a5,5,0,0,0,5-5V81.58A5,5,0,0,0,216.869,76.58Z" fill="#63e2e7"/><path d="M138.286,208.744a5,5,0,0,0,5,5h73.583a5,5,0,0,0,5-5V195.411H138.286Z" fill="#9e9e9e"/><path d="M211.869,195.411v13.333a5,5,0,0,1-5,5h10a5,5,0,0,0,5-5V195.411Z" fill="#cecece"/><path d="M221.869,81.58a5,5,0,0,0-5-5H143.286a5,5,0,0,0-5,5v5.5h83.583Z" fill="#9e9e9e"/><path d="M216.869,76.58h-10a5,5,0,0,1,5,5v5.5h10v-5.5A5,5,0,0,0,216.869,76.58Z" fill="#cecece"/><circle cx="180.078" cy="204.578" r="4.708" fill="#3f3679"/><rect x="146.161" y="95.75" width="67.833" height="32.25" fill="#f46275"/><rect x="146.161" y="137.691" width="67.833" height="25.368" fill="#f8af23"/><path d="M128,178.185a6,6,0,1,0-6-6A6.007,6.007,0,0,0,128,178.185Zm0-9a3,3,0,1,1-3,3A3,3,0,0,1,128,169.185Z" fill="#3f3679"/><path d="M27.323,223.217h-18a1.5,1.5,0,0,0,0,3h18a1.5,1.5,0,1,0,0-3Z" fill="#3f3679"/><path d="M246.68,223.217h-18a1.5,1.5,0,0,0,0,3h18a1.5,1.5,0,0,0,0-3Z" fill="#3f3679"/><path d="M218.479,223.217H37.521a1.5,1.5,0,0,0,0,3H218.479a1.5,1.5,0,0,0,0-3Z" fill="#3f3679"/><path d="M9.32,215.244H246.68a1.5,1.5,0,0,0,0-3H222.338a6.456,6.456,0,0,0,1.031-3.5V183.889h.6a15.182,15.182,0,0,0,15.164-15.165V44.947a15.181,15.181,0,0,0-15.164-15.164H32.034A15.181,15.181,0,0,0,16.87,44.947V168.724a15.182,15.182,0,0,0,15.164,15.165H99.171v19.158H89.809a1.5,1.5,0,0,0-1.5,1.5v7.7H9.32a1.5,1.5,0,0,0,0,3ZM220.369,85.577H139.786v-4a3.5,3.5,0,0,1,3.5-3.5h73.583a3.5,3.5,0,0,1,3.5,3.5Zm-10.053-10.5h-67.03a6.508,6.508,0,0,0-6.5,6.5v25.408h-91.1V66.655H210.316Zm-73.53,62.17H108.146v-18.5h28.641Zm3-48.673h80.583V193.911H139.786Zm83.583-1.5v-5.5a6.508,6.508,0,0,0-6.5-6.5h-3.553V65.155a1.5,1.5,0,0,0-1.5-1.5H44.184a1.5,1.5,0,0,0-1.5,1.5v43.333a1.5,1.5,0,0,0,1.5,1.5h92.6v5.762H106.646a1.5,1.5,0,0,0-1.5,1.5v21.5a1.5,1.5,0,0,0,1.5,1.5h30.141v5.25H106.646a1.5,1.5,0,0,0,0,3h30.141v4.083H106.646a1.5,1.5,0,1,0,0,3h30.141v4.9H32.034a3.76,3.76,0,0,1-3.755-3.756V44.947a3.76,3.76,0,0,1,3.755-3.756H223.966a3.76,3.76,0,0,1,3.755,3.756V156.724a3.76,3.76,0,0,1-3.755,3.756h-.6ZM166.191,212.244H143.286a3.5,3.5,0,0,1-3.5-3.5V196.911h80.583v11.833a3.5,3.5,0,0,1-3.5,3.5ZM19.87,168.724V44.947A12.178,12.178,0,0,1,32.034,32.783H223.966A12.178,12.178,0,0,1,236.13,44.947V168.724a12.178,12.178,0,0,1-12.164,12.165h-.6V163.479h.6a6.763,6.763,0,0,0,6.755-6.756V44.947a6.763,6.763,0,0,0-6.755-6.756H32.034a6.763,6.763,0,0,0-6.755,6.756V156.724a6.763,6.763,0,0,0,6.755,6.756H136.786v17.409H32.034A12.178,12.178,0,0,1,19.87,168.724Zm82.3,15.165h34.615v19.158H102.171ZM91.309,206.047h45.478v2.7a6.456,6.456,0,0,0,1.031,3.5H91.309Z" fill="#3f3679"/><path d="M48.25,46.833a6.083,6.083,0,1,0,6.083,6.084A6.09,6.09,0,0,0,48.25,46.833Zm0,9.167a3.083,3.083,0,1,1,3.083-3.083A3.086,3.086,0,0,1,48.25,56Z" fill="#3f3679"/><path d="M62.833,46.833a6.083,6.083,0,1,0,6.084,6.084A6.09,6.09,0,0,0,62.833,46.833Zm0,9.167a3.083,3.083,0,1,1,3.084-3.083A3.086,3.086,0,0,1,62.833,56Z" fill="#3f3679"/><path d="M77.417,46.833A6.083,6.083,0,1,0,83.5,52.917,6.091,6.091,0,0,0,77.417,46.833Zm0,9.167A3.083,3.083,0,1,1,80.5,52.917,3.087,3.087,0,0,1,77.417,56Z" fill="#3f3679"/><path d="M212.333,51.417H104.667a1.5,1.5,0,0,0,0,3H212.333a1.5,1.5,0,0,0,0-3Z" fill="#3f3679"/><path d="M44.254,140.25h42.71a1.5,1.5,0,0,0,1.5-1.5v-21.5a1.5,1.5,0,0,0-1.5-1.5H44.254a1.5,1.5,0,0,0-1.5,1.5v21.5A1.5,1.5,0,0,0,44.254,140.25Zm1.5-21.5h39.71v18.5H45.754Z" fill="#3f3679"/><path d="M44.254,148.5h42.71a1.5,1.5,0,0,0,0-3H44.254a1.5,1.5,0,0,0,0,3Z" fill="#3f3679"/><path d="M44.254,155.583h42.71a1.5,1.5,0,0,0,0-3H44.254a1.5,1.5,0,0,0,0,3Z" fill="#3f3679"/><path d="M213.994,94.25H146.161a1.5,1.5,0,0,0-1.5,1.5V128a1.5,1.5,0,0,0,1.5,1.5h67.833a1.5,1.5,0,0,0,1.5-1.5V95.75A1.5,1.5,0,0,0,213.994,94.25Zm-1.5,32.25H147.661V97.25h64.833Z" fill="#3f3679"/><path d="M213.994,136.191H146.161a1.5,1.5,0,0,0-1.5,1.5v25.367a1.5,1.5,0,0,0,1.5,1.5h67.833a1.5,1.5,0,0,0,1.5-1.5V137.691A1.5,1.5,0,0,0,213.994,136.191Zm-1.5,25.367H147.661V139.191h64.833Z" fill="#3f3679"/><path d="M213.966,169h-67.8a1.5,1.5,0,0,0,0,3h67.8a1.5,1.5,0,1,0,0-3Z" fill="#3f3679"/><path d="M213.966,176.25h-67.8a1.5,1.5,0,0,0,0,3h67.8a1.5,1.5,0,1,0,0-3Z" fill="#3f3679"/></svg>