<svg xmlns="http://www.w3.org/2000/svg" viewBox="0 0 256 256"><title>icons_</title><rect x="16.327" y="12.544" width="223.345" height="191.333" rx="15.327" ry="15.327" fill="#cecece"/><path d="M26.327,188.55V27.871A15.327,15.327,0,0,1,41.655,12.544h-10A15.327,15.327,0,0,0,16.327,27.871V188.55a15.327,15.327,0,0,0,15.327,15.327h10A15.327,15.327,0,0,1,26.327,188.55Z" fill="#afafaf"/><path d="M229.673,188.55V27.871a15.327,15.327,0,0,0-15.327-15.327h10a15.327,15.327,0,0,1,15.327,15.327V188.55a15.327,15.327,0,0,1-15.327,15.327h-10A15.327,15.327,0,0,0,229.673,188.55Z" fill="#e2e2e2"/><path d="M239.673,27.871a15.327,15.327,0,0,0-15.327-15.327H31.655A15.327,15.327,0,0,0,16.327,27.871V54.544H239.673Z" fill="#f8af23"/><path d="M41.655,12.544h-10A15.327,15.327,0,0,0,16.327,27.871V54.544h10V27.871A15.327,15.327,0,0,1,41.655,12.544Z" fill="#f87023"/><path d="M214.345,12.544h10a15.327,15.327,0,0,1,15.327,15.327V54.544h-10V27.871A15.327,15.327,0,0,0,214.345,12.544Z" fill="#f8d323"/><circle cx="43.688" cy="33.544" r="7" fill="#f46275"/><circle cx="70.65" cy="33.544" r="7" fill="#f46275"/><circle cx="97.612" cy="33.544" r="7" fill="#f46275"/><rect x="120.073" y="28.669" width="99.24" height="10.667" rx="5.333" ry="5.333" fill="#f46275"/><circle cx="128" cy="152.357" r="80.126" fill="#63bce7"/><path d="M57.874,152.357A80.118,80.118,0,0,1,133,72.4c-1.655-.1-3.319-.171-5-.171a80.126,80.126,0,1,0,0,160.251c1.681,0,3.345-.069,5-.171A80.118,80.118,0,0,1,57.874,152.357Z" fill="#6377e7"/><path d="M198.126,152.357A80.118,80.118,0,0,0,123,72.4c1.655-.1,3.319-.171,5-.171a80.126,80.126,0,1,1,0,160.251c-1.681,0-3.345-.069-5-.171A80.118,80.118,0,0,0,198.126,152.357Z" fill="#63e2e7"/><circle cx="128" cy="152.357" r="38.946" fill="#f8af23"/><circle cx="128" cy="152.357" r="15.488" fill="#f46275"/><path d="M27.323,241.956h-18a1.5,1.5,0,1,0,0,3h18a1.5,1.5,0,1,0,0-3Z" fill="#3f3679"/><path d="M246.68,241.956h-18a1.5,1.5,0,0,0,0,3h18a1.5,1.5,0,0,0,0-3Z" fill="#3f3679"/><path d="M218.479,241.956H37.521a1.5,1.5,0,0,0,0,3H218.479a1.5,1.5,0,0,0,0-3Z" fill="#3f3679"/><path d="M9.32,233.983H246.68a1.5,1.5,0,0,0,0-3H149.871a81.77,81.77,0,0,0,40.114-25.605h34.36a16.846,16.846,0,0,0,16.827-16.827V27.871a16.846,16.846,0,0,0-16.827-16.827H31.655A16.846,16.846,0,0,0,14.828,27.871v160.68a16.846,16.846,0,0,0,16.827,16.827h34.36a81.77,81.77,0,0,0,40.114,25.605H9.32a1.5,1.5,0,1,0,0,3ZM17.828,27.871A13.843,13.843,0,0,1,31.655,14.044H224.346a13.843,13.843,0,0,1,13.827,13.827V53.044H17.828ZM31.655,202.378a13.843,13.843,0,0,1-13.827-13.827V56.044H238.173V188.551a13.843,13.843,0,0,1-13.827,13.827H192.435a81.181,81.181,0,0,0,17.153-48.521h8.49a1.5,1.5,0,0,0,0-3h-8.49A81.694,81.694,0,0,0,130.5,70.795V62.279a1.5,1.5,0,0,0-3,0v8.465a81.7,81.7,0,0,0-81.088,80.113h-8.49a1.5,1.5,0,0,0,0,3h8.49a81.181,81.181,0,0,0,17.153,48.521Zm17.757-48.521h8.415a1.5,1.5,0,0,0,0-3H49.412A78.7,78.7,0,0,1,127.5,73.744v8.439a1.5,1.5,0,0,0,3,0V73.795a78.693,78.693,0,0,1,76.088,77.063h-8.414a1.5,1.5,0,0,0,0,3h8.414a78.6,78.6,0,0,1-157.176,0Z" fill="#3f3679"/><path d="M43.687,25.044a8.5,8.5,0,1,0,8.5,8.5A8.51,8.51,0,0,0,43.687,25.044Zm0,14a5.5,5.5,0,1,1,5.5-5.5A5.507,5.507,0,0,1,43.687,39.044Z" fill="#3f3679"/><path d="M70.65,25.044a8.5,8.5,0,1,0,8.5,8.5A8.51,8.51,0,0,0,70.65,25.044Zm0,14a5.5,5.5,0,1,1,5.5-5.5A5.507,5.507,0,0,1,70.65,39.044Z" fill="#3f3679"/><path d="M97.612,25.044a8.5,8.5,0,1,0,8.5,8.5A8.51,8.51,0,0,0,97.612,25.044Zm0,14a5.5,5.5,0,1,1,5.5-5.5A5.507,5.507,0,0,1,97.612,39.044Z" fill="#3f3679"/><path d="M213.979,27.169H125.406a6.833,6.833,0,1,0,0,13.667h88.573a6.833,6.833,0,0,0,0-13.667Zm0,10.667H125.406a3.833,3.833,0,1,1,0-7.667h88.573a3.833,3.833,0,0,1,0,7.667Z" fill="#3f3679"/><path d="M128,135.369a16.988,16.988,0,1,0,16.988,16.988A17.008,17.008,0,0,0,128,135.369Zm0,30.977a13.988,13.988,0,1,1,13.988-13.988A14,14,0,0,1,128,166.346Z" fill="#3f3679"/><path d="M176.9,150.857h-8.49A40.491,40.491,0,0,0,130.5,112v-8.538a1.5,1.5,0,0,0-3,0v8.466a40.483,40.483,0,0,0-39.908,38.934H79.1a1.5,1.5,0,0,0,0,3h8.491A40.483,40.483,0,0,0,127.5,192.791v8.465a1.5,1.5,0,0,0,3,0v-8.537a40.491,40.491,0,0,0,37.908-38.861h8.49a1.5,1.5,0,0,0,0-3Zm-46.4,38.854v-8.359a1.5,1.5,0,0,0-3,0v8.439a37.481,37.481,0,0,1-36.908-35.934h8.414a1.5,1.5,0,1,0,0-3H90.592A37.481,37.481,0,0,1,127.5,114.924v8.439a1.5,1.5,0,1,0,3,0V115a37.486,37.486,0,0,1,34.908,35.854h-8.414a1.5,1.5,0,0,0,0,3h8.414A37.486,37.486,0,0,1,130.5,189.711Z" fill="#3f3679"/></svg>