<svg xmlns="http://www.w3.org/2000/svg" viewBox="0 0 256 256"><title>icons_</title><rect x="75.578" y="10.083" width="104.843" height="100.451" rx="5.92" ry="5.92" fill="#cecece"/><path d="M85.578,104.614V16a5.937,5.937,0,0,1,5.92-5.92h-10A5.937,5.937,0,0,0,75.578,16v88.611a5.937,5.937,0,0,0,5.92,5.92h10A5.937,5.937,0,0,1,85.578,104.614Z" fill="#afafaf"/><path d="M170.422,104.614V16a5.937,5.937,0,0,0-5.92-5.92h10a5.937,5.937,0,0,1,5.92,5.92v88.611a5.937,5.937,0,0,1-5.92,5.92h-10A5.937,5.937,0,0,0,170.422,104.614Z" fill="#e2e2e2"/><path d="M180.422,16.007a5.941,5.941,0,0,0-5.924-5.924h-93a5.941,5.941,0,0,0-5.924,5.924V29.63H180.422Z" fill="#f8af23"/><path d="M91.5,10.083h-10a5.941,5.941,0,0,0-5.924,5.924V29.63h10V16.007A5.941,5.941,0,0,1,91.5,10.083Z" fill="#f87023"/><path d="M164.5,10.083h10a5.941,5.941,0,0,1,5.924,5.924V29.63h-10V16.007A5.941,5.941,0,0,0,164.5,10.083Z" fill="#f8d323"/><circle cx="87.883" cy="19.856" r="4.088" fill="#f46275"/><circle cx="100.411" cy="19.856" r="4.088" fill="#f46275"/><circle cx="112.94" cy="19.856" r="4.088" fill="#f46275"/><rect x="94" y="186.899" width="68" height="48.045" rx="5" ry="5" fill="#63bce7"/><rect x="16.756" y="186.899" width="68" height="48.045" rx="5" ry="5" fill="#63bce7"/><path d="M26.756,229.944V191.9a5,5,0,0,1,5-5h-10a5,5,0,0,0-5,5v38.045a5,5,0,0,0,5,5h10A5,5,0,0,1,26.756,229.944Z" fill="#6377e7"/><rect x="171.244" y="186.899" width="68" height="48.045" rx="5" ry="5" fill="#63bce7"/><path d="M229.244,229.944V191.9a5,5,0,0,0-5-5h10a5,5,0,0,1,5,5v38.045a5,5,0,0,1-5,5h-10A5,5,0,0,0,229.244,229.944Z" fill="#63e2e7"/><path d="M109.194,155.258c.2.55.42,1.079.664,1.6l-4.927,4.927,9.688,9.688,4.927-4.927c.524.244,1.058.467,1.6.664v6.971h13.7v-6.971c.545-.2,1.079-.42,1.6-.664l4.927,4.927,9.688-9.688-4.927-4.927c.244-.524.467-1.053.664-1.6h6.971v-13.7H146.8c-.2-.545-.42-1.079-.664-1.6l4.927-4.927-9.688-9.688-4.927,4.932c-.524-.244-1.058-.472-1.6-.669v-6.965h-13.7v6.965c-.545.2-1.079.425-1.6.669l-4.927-4.932-9.688,9.688,4.927,4.927c-.244.524-.467,1.058-.664,1.6h-6.965v13.7Z" fill="#9e9e9e"/><circle cx="128" cy="148.41" r="8.722" fill="#f46275"/><path d="M109.194,76.928c.2.55.42,1.079.664,1.6l-4.927,4.927,9.688,9.688,4.927-4.927c.524.244,1.058.467,1.6.664v6.971h13.7V88.882c.545-.2,1.079-.42,1.6-.664l4.927,4.927,9.688-9.688-4.927-4.927c.244-.524.467-1.053.664-1.6h6.971V63.23H146.8c-.2-.545-.42-1.079-.664-1.6l4.927-4.927-9.688-9.688-4.927,4.932c-.524-.244-1.058-.472-1.6-.669V44.31h-13.7v6.965c-.545.2-1.079.425-1.6.669l-4.927-4.932L104.931,56.7l4.927,4.927c-.244.524-.467,1.058-.664,1.6h-6.965v13.7Z" fill="#9e9e9e"/><circle cx="128" cy="70.08" r="8.722" fill="#f46275"/><path d="M87.883,25.444a5.588,5.588,0,1,0-5.588-5.588A5.594,5.594,0,0,0,87.883,25.444Zm0-8.176a2.588,2.588,0,1,1-2.588,2.588A2.591,2.591,0,0,1,87.883,17.269Z" fill="#3f3679"/><path d="M100.411,25.444a5.588,5.588,0,1,0-5.588-5.588A5.594,5.594,0,0,0,100.411,25.444Zm0-8.176a2.588,2.588,0,1,1-2.588,2.588A2.591,2.591,0,0,1,100.411,17.269Z" fill="#3f3679"/><path d="M112.939,25.444a5.588,5.588,0,1,0-5.587-5.588A5.594,5.594,0,0,0,112.939,25.444Zm0-8.176a2.588,2.588,0,1,1-2.587,2.588A2.591,2.591,0,0,1,112.939,17.269Z" fill="#3f3679"/><path d="M148.367,21.356h18.667a1.5,1.5,0,0,0,0-3H148.367a1.5,1.5,0,0,0,0,3Z" fill="#3f3679"/><path d="M105.489,206.21a1.5,1.5,0,0,0,2.121,0l5.333-5.333a1.5,1.5,0,0,0,0-2.121l-5.333-5.334a1.5,1.5,0,0,0-2.121,2.121l4.272,4.273-4.272,4.272A1.5,1.5,0,0,0,105.489,206.21Z" fill="#3f3679"/><path d="M149.45,203.649H114.325a1.5,1.5,0,0,0,0,3H149.45a1.5,1.5,0,0,0,0-3Z" fill="#3f3679"/><path d="M106.55,213.345h23.775a1.5,1.5,0,0,0,0-3H106.55a1.5,1.5,0,1,0,0,3Z" fill="#3f3679"/><path d="M106.55,220.04H119.2a1.5,1.5,0,1,0,0-3H106.55a1.5,1.5,0,1,0,0,3Z" fill="#3f3679"/><path d="M149.45,223.736h-42.9a1.5,1.5,0,0,0,0,3h42.9a1.5,1.5,0,0,0,0-3Z" fill="#3f3679"/><path d="M149.45,210.345h-8.625a1.5,1.5,0,1,0,0,3h8.625a1.5,1.5,0,0,0,0-3Z" fill="#3f3679"/><path d="M149.45,217.04H127.332a1.5,1.5,0,0,0,0,3H149.45a1.5,1.5,0,0,0,0-3Z" fill="#3f3679"/><path d="M28.246,206.21a1.5,1.5,0,0,0,2.121,0l5.333-5.333a1.5,1.5,0,0,0,0-2.121l-5.333-5.334a1.5,1.5,0,0,0-2.121,2.121l4.272,4.273-4.272,4.272A1.5,1.5,0,0,0,28.246,206.21Z" fill="#3f3679"/><path d="M72.207,203.649H37.082a1.5,1.5,0,0,0,0,3H72.207a1.5,1.5,0,0,0,0-3Z" fill="#3f3679"/><path d="M29.307,213.345H53.082a1.5,1.5,0,0,0,0-3H29.307a1.5,1.5,0,1,0,0,3Z" fill="#3f3679"/><path d="M29.307,220.04h12.65a1.5,1.5,0,0,0,0-3H29.307a1.5,1.5,0,1,0,0,3Z" fill="#3f3679"/><path d="M72.207,223.736h-42.9a1.5,1.5,0,1,0,0,3h42.9a1.5,1.5,0,1,0,0-3Z" fill="#3f3679"/><path d="M72.207,210.345H63.582a1.5,1.5,0,0,0,0,3h8.625a1.5,1.5,0,0,0,0-3Z" fill="#3f3679"/><path d="M72.207,217.04H50.088a1.5,1.5,0,1,0,0,3H72.207a1.5,1.5,0,0,0,0-3Z" fill="#3f3679"/><path d="M182.732,206.21a1.5,1.5,0,0,0,2.121,0l5.334-5.333a1.5,1.5,0,0,0,0-2.121l-5.334-5.334a1.5,1.5,0,0,0-2.121,2.121l4.273,4.273-4.273,4.272A1.5,1.5,0,0,0,182.732,206.21Z" fill="#3f3679"/><path d="M190.068,205.149a1.5,1.5,0,0,0,1.5,1.5h35.125a1.5,1.5,0,1,0,0-3H191.568A1.5,1.5,0,0,0,190.068,205.149Z" fill="#3f3679"/><path d="M183.793,213.345h23.775a1.5,1.5,0,1,0,0-3H183.793a1.5,1.5,0,1,0,0,3Z" fill="#3f3679"/><path d="M183.793,220.04h12.65a1.5,1.5,0,1,0,0-3h-12.65a1.5,1.5,0,1,0,0,3Z" fill="#3f3679"/><path d="M183.793,226.736h42.9a1.5,1.5,0,0,0,0-3h-42.9a1.5,1.5,0,0,0,0,3Z" fill="#3f3679"/><path d="M226.693,210.345h-8.625a1.5,1.5,0,0,0,0,3h8.625a1.5,1.5,0,1,0,0-3Z" fill="#3f3679"/><path d="M226.693,217.04H204.575a1.5,1.5,0,1,0,0,3h22.118a1.5,1.5,0,1,0,0-3Z" fill="#3f3679"/><path d="M27.323,244.417h-18a1.5,1.5,0,0,0,0,3h18a1.5,1.5,0,1,0,0-3Z" fill="#3f3679"/><path d="M246.68,244.417h-18a1.5,1.5,0,0,0,0,3h18a1.5,1.5,0,0,0,0-3Z" fill="#3f3679"/><path d="M218.479,244.417H37.521a1.5,1.5,0,0,0,0,3H218.479a1.5,1.5,0,0,0,0-3Z" fill="#3f3679"/><path d="M9.32,236.444H246.68a1.5,1.5,0,0,0,0-3h-6.968a6.456,6.456,0,0,0,1.031-3.5V191.9a6.508,6.508,0,0,0-6.5-6.5h-27.5V153.41a6.508,6.508,0,0,0-6.5-6.5H155.271v-5.35a1.5,1.5,0,0,0-1.5-1.5h-5.616l3.97-3.969a1.5,1.5,0,0,0,0-2.121l-9.688-9.688a1.544,1.544,0,0,0-2.122,0l-3.969,3.974v-5.615a1.5,1.5,0,0,0-1.5-1.5H129.5v-9.107h45a7.428,7.428,0,0,0,7.42-7.42V16a7.428,7.428,0,0,0-7.42-7.42h-93A7.428,7.428,0,0,0,74.078,16v88.61a7.428,7.428,0,0,0,7.42,7.42h45v9.107h-5.352a1.5,1.5,0,0,0-1.5,1.5v5.615l-3.968-3.973a1.5,1.5,0,0,0-2.122,0l-9.688,9.688a1.5,1.5,0,0,0,0,2.121l3.97,3.969h-5.611a1.5,1.5,0,0,0-1.5,1.5v5.35H55.757a6.508,6.508,0,0,0-6.5,6.5V185.4h-27.5a6.508,6.508,0,0,0-6.5,6.5v38.046a6.455,6.455,0,0,0,1.032,3.5H9.32a1.5,1.5,0,0,0,0,3ZM174.5,11.583a4.429,4.429,0,0,1,4.424,4.424V28.13H77.078V16.007A4.429,4.429,0,0,1,81.5,11.583Zm-93,97.45a4.424,4.424,0,0,1-4.42-4.42V31.13H178.922v73.483a4.424,4.424,0,0,1-4.42,4.42h-45V97.353h5.346a1.5,1.5,0,0,0,1.5-1.5V90.237l3.97,3.969a1.5,1.5,0,0,0,2.121,0l9.688-9.688a1.5,1.5,0,0,0,0-2.121l-3.97-3.969h5.616a1.5,1.5,0,0,0,1.5-1.5V63.23a1.5,1.5,0,0,0-1.5-1.5h-5.616l3.97-3.969a1.5,1.5,0,0,0,0-2.121l-9.688-9.688a1.544,1.544,0,0,0-2.122,0l-3.969,3.973V44.311a1.5,1.5,0,0,0-1.5-1.5h-13.7a1.5,1.5,0,0,0-1.5,1.5v5.614l-3.968-3.973a1.5,1.5,0,0,0-2.122,0l-9.688,9.688a1.5,1.5,0,0,0,0,2.121l3.97,3.969h-5.611a1.5,1.5,0,0,0-1.5,1.5v13.7a1.5,1.5,0,0,0,1.5,1.5h5.611L103.87,82.4a1.5,1.5,0,0,0,0,2.121l9.688,9.688a1.5,1.5,0,0,0,2.121,0l3.969-3.969v5.615a1.5,1.5,0,0,0,1.5,1.5H126.5v11.681ZM121.66,87.473c-.479-.174-.978-.38-1.483-.614a1.5,1.5,0,0,0-1.691.3l-3.866,3.866-7.567-7.567,3.867-3.866a1.5,1.5,0,0,0,.3-1.694c-.24-.516-.44-1-.611-1.476a1.5,1.5,0,0,0-1.412-.993h-5.466V64.73h5.466a1.5,1.5,0,0,0,1.41-.989c.177-.488.383-.986.613-1.479a1.5,1.5,0,0,0-.3-1.694L107.052,56.7l7.566-7.566L118.484,53a1.5,1.5,0,0,0,1.692.3c.545-.252,1.03-.455,1.483-.619a1.5,1.5,0,0,0,.988-1.41V45.811h10.7v5.465a1.5,1.5,0,0,0,.989,1.41c.454.165.938.367,1.481.619a1.5,1.5,0,0,0,1.693-.3l3.866-3.87,7.567,7.566-3.867,3.866a1.5,1.5,0,0,0-.3,1.694c.23.493.437.991.613,1.479a1.5,1.5,0,0,0,1.41.989h5.471v10.7H146.8a1.5,1.5,0,0,0-1.412.993c-.171.478-.371.96-.611,1.476a1.5,1.5,0,0,0,.3,1.694l3.867,3.866-7.567,7.567-3.867-3.866a1.5,1.5,0,0,0-1.692-.3c-.5.234-1,.44-1.481.614a1.5,1.5,0,0,0-.989,1.41v5.47h-10.7v-5.47A1.5,1.5,0,0,0,121.66,87.473Zm-35.4,142.472V212.421H92.5v17.523a6.455,6.455,0,0,0,1.032,3.5H85.225A6.455,6.455,0,0,0,86.257,229.944ZM99,233.444a3.5,3.5,0,0,1-3.5-3.5V191.9a3.5,3.5,0,0,1,3.5-3.5h58a3.5,3.5,0,0,1,3.5,3.5v38.046a3.5,3.5,0,0,1-3.5,3.5Zm71.775,0h-8.306a6.456,6.456,0,0,0,1.031-3.5V212.421h6.243v17.523A6.456,6.456,0,0,0,170.775,233.444ZM237.743,191.9v38.046a3.5,3.5,0,0,1-3.5,3.5h-58a3.5,3.5,0,0,1-3.5-3.5V191.9a3.5,3.5,0,0,1,3.5-3.5h58A3.5,3.5,0,0,1,237.743,191.9Zm-37.5-41.988a3.5,3.5,0,0,1,3.5,3.5V185.4h-27.5a6.508,6.508,0,0,0-6.5,6.5v17.522H163.5V191.9a6.508,6.508,0,0,0-6.5-6.5H129.5v-9.715h5.346a1.5,1.5,0,0,0,1.5-1.5v-5.616l3.97,3.969a1.5,1.5,0,0,0,2.121,0l9.688-9.687a1.5,1.5,0,0,0,0-2.121l-3.97-3.97h5.616a1.5,1.5,0,0,0,1.5-1.5V149.91Zm-96.515-6.85h5.466a1.5,1.5,0,0,0,1.41-.988c.177-.488.384-.986.613-1.481a1.5,1.5,0,0,0-.3-1.693l-3.867-3.866,7.566-7.566,3.866,3.87a1.5,1.5,0,0,0,1.694.3c.542-.252,1.025-.454,1.479-.617a1.5,1.5,0,0,0,.991-1.411v-5.466h10.7v5.466a1.5,1.5,0,0,0,.991,1.411c.455.164.938.365,1.478.617a1.5,1.5,0,0,0,1.7-.3l3.867-3.871,7.566,7.566-3.867,3.866a1.5,1.5,0,0,0-.3,1.693c.229.5.437.993.613,1.481a1.5,1.5,0,0,0,1.41.988h5.471v10.7H146.8a1.5,1.5,0,0,0-1.412.993c-.171.478-.371.96-.611,1.476a1.5,1.5,0,0,0,.3,1.694l3.867,3.867-7.567,7.566-3.867-3.866a1.5,1.5,0,0,0-1.694-.3c-.493.23-.991.437-1.479.613a1.5,1.5,0,0,0-.989,1.41v5.471h-10.7v-5.471a1.5,1.5,0,0,0-.988-1.41c-.488-.177-.986-.384-1.481-.613a1.5,1.5,0,0,0-1.693.3l-3.866,3.866-7.567-7.566,3.867-3.867a1.5,1.5,0,0,0,.3-1.694c-.24-.516-.44-1-.611-1.476a1.5,1.5,0,0,0-1.412-.993h-5.466ZM52.257,153.41a3.5,3.5,0,0,1,3.5-3.5h44.972v5.348a1.5,1.5,0,0,0,1.5,1.5h5.611l-3.97,3.97a1.5,1.5,0,0,0,0,2.121l9.688,9.688a1.5,1.5,0,0,0,2.121,0l3.969-3.969v5.616a1.5,1.5,0,0,0,1.5,1.5H126.5V185.4H99a6.508,6.508,0,0,0-6.5,6.5v17.522H86.257V191.9a6.508,6.508,0,0,0-6.5-6.5h-27.5Zm-34,76.534V191.9a3.5,3.5,0,0,1,3.5-3.5h58a3.5,3.5,0,0,1,3.5,3.5v38.046a3.5,3.5,0,0,1-3.5,3.5h-58A3.5,3.5,0,0,1,18.257,229.944Z" fill="#3f3679"/><path d="M128,158.633a10.223,10.223,0,1,0-10.223-10.223A10.234,10.234,0,0,0,128,158.633Zm0-17.445a7.223,7.223,0,1,1-7.223,7.223A7.231,7.231,0,0,1,128,141.188Z" fill="#3f3679"/><path d="M138.223,70.08A10.223,10.223,0,1,0,128,80.3,10.234,10.234,0,0,0,138.223,70.08Zm-17.445,0A7.223,7.223,0,1,1,128,77.3,7.231,7.231,0,0,1,120.777,70.08Z" fill="#3f3679"/></svg>