<svg xmlns="http://www.w3.org/2000/svg" viewBox="0 0 256 256"><title>icons_</title><rect x="18.37" y="49.591" width="219.26" height="151.106" rx="13.665" ry="13.665" fill="#cecece"/><path d="M28.37,187.032V63.256A13.681,13.681,0,0,1,42.035,49.591h-10A13.681,13.681,0,0,0,18.37,63.256V187.032A13.681,13.681,0,0,0,32.035,200.7h10A13.681,13.681,0,0,1,28.37,187.032Z" fill="#afafaf"/><path d="M227.63,187.032V63.256a13.681,13.681,0,0,0-13.665-13.665h10A13.681,13.681,0,0,1,237.63,63.256V187.032A13.681,13.681,0,0,1,223.965,200.7h-10A13.681,13.681,0,0,0,227.63,187.032Z" fill="#e2e2e2"/><rect x="26.779" y="58" width="202.442" height="122.288" rx="5.256" ry="5.256" fill="#63bce7"/><path d="M36.779,175.032V63.256A5.271,5.271,0,0,1,42.035,58h-10a5.271,5.271,0,0,0-5.256,5.256V175.032a5.271,5.271,0,0,0,5.256,5.256h10A5.271,5.271,0,0,1,36.779,175.032Z" fill="#6377e7"/><path d="M219.221,175.032V63.256A5.271,5.271,0,0,0,213.965,58h10a5.271,5.271,0,0,1,5.256,5.256V175.032a5.271,5.271,0,0,1-5.256,5.256h-10A5.271,5.271,0,0,0,219.221,175.032Z" fill="#63e2e7"/><rect x="89.809" y="222.855" width="76.383" height="9.197" fill="#9e9e9e"/><rect x="89.809" y="222.855" width="10" height="9.197" fill="#707070"/><rect x="100.67" y="200.697" width="54.659" height="22.158" fill="#cecece"/><rect x="100.67" y="200.697" width="10" height="22.158" fill="#afafaf"/><circle cx="128" cy="190.493" r="4.5" fill="#9e9e9e"/><path d="M42.834,98.14a85.166,85.166,0,1,1,170.331,0Z" fill="#f8af23"/><path d="M133,13.132c-1.656-.1-3.32-.158-5-.158A85.166,85.166,0,0,0,42.834,98.14h10A85.161,85.161,0,0,1,133,13.132Z" fill="#f87023"/><path d="M123,13.132c1.656-.1,3.32-.158,5-.158A85.166,85.166,0,0,1,213.166,98.14h-10A85.161,85.161,0,0,0,123,13.132Z" fill="#f8d323"/><path d="M98.707,108.806c.307.856.654,1.68,1.034,2.5l-7.675,7.675,15.091,15.091,7.675-7.675c.816.38,1.648.727,2.5,1.034v10.858h21.336V127.427c.848-.307,1.68-.654,2.5-1.034l7.675,7.675,15.091-15.091-7.675-7.675c.38-.816.727-1.64,1.034-2.5h10.858V87.47H157.285c-.307-.848-.654-1.68-1.034-2.5l7.675-7.675L148.835,62.207,141.16,69.89c-.816-.38-1.648-.735-2.5-1.042V58H117.328v10.85c-.848.307-1.68.663-2.5,1.042l-7.675-7.683L92.066,77.3l7.675,7.675c-.38.816-.727,1.648-1.034,2.5H87.857v21.336Z" fill="#9e9e9e"/><circle cx="128" cy="98.139" r="13.587" fill="#f46275"/><path d="M166.194,60,123.28,92.348a7.44,7.44,0,0,0-.889,11.093h0a7.44,7.44,0,0,0,11.12-.435L167.585,61.45A1.012,1.012,0,0,0,166.194,60Z" fill="#63bce7"/><path d="M128,196.492a6,6,0,1,0-6-6A6.007,6.007,0,0,0,128,196.492Zm0-9a3,3,0,1,1-3,3A3,3,0,0,1,128,187.492Z" fill="#3f3679"/><path d="M27.323,241.525h-18a1.5,1.5,0,1,0,0,3h18a1.5,1.5,0,1,0,0-3Z" fill="#3f3679"/><path d="M246.68,241.525h-18a1.5,1.5,0,0,0,0,3h18a1.5,1.5,0,0,0,0-3Z" fill="#3f3679"/><path d="M218.479,241.525H37.521a1.5,1.5,0,0,0,0,3H218.479a1.5,1.5,0,0,0,0-3Z" fill="#3f3679"/><path d="M9.32,233.553H246.68a1.5,1.5,0,0,0,0-3H167.691v-7.7a1.5,1.5,0,0,0-1.5-1.5h-9.362V202.2h67.137a15.182,15.182,0,0,0,15.164-15.165V63.256a15.182,15.182,0,0,0-15.164-15.165h-25.25a86.593,86.593,0,0,0-141.431,0H32.035A15.182,15.182,0,0,0,16.87,63.256V187.032A15.182,15.182,0,0,0,32.035,202.2H99.17v19.158H89.809a1.5,1.5,0,0,0-1.5,1.5v7.7H9.32a1.5,1.5,0,1,0,0,3ZM128,14.475a83.763,83.763,0,0,1,83.652,82.166H169.644V87.47a1.5,1.5,0,0,0-1.5-1.5h-9.826c-.089-.221-.181-.443-.275-.665l6.944-6.945a1.5,1.5,0,0,0,0-2.121l-4.169-4.17,7.927-9.668a2.511,2.511,0,0,0-3.453-3.6h0l-10.115,7.625-5.28-5.28a1.5,1.5,0,0,0-2.122,0l-6.942,6.95c-.227-.1-.448-.19-.667-.279V58a1.5,1.5,0,0,0-1.5-1.5H117.328a1.5,1.5,0,0,0-1.5,1.5v9.82c-.219.089-.44.182-.667.279l-6.943-6.95a1.5,1.5,0,0,0-1.061-.44h0a1.5,1.5,0,0,0-1.061.439L91.005,76.238a1.5,1.5,0,0,0,0,2.121L97.95,85.3q-.143.333-.276.665H87.857a1.5,1.5,0,0,0-1.5,1.5v9.171H44.348A83.764,83.764,0,0,1,128,14.475ZM42.834,99.641H86.357v9.165a1.5,1.5,0,0,0,1.5,1.5h9.815q.133.33.277.666l-6.944,6.944a1.5,1.5,0,0,0,0,2.121L106.1,135.128a1.5,1.5,0,0,0,2.121,0l6.945-6.945q.334.144.666.276v9.826a1.5,1.5,0,0,0,1.5,1.5h21.336a1.5,1.5,0,0,0,1.5-1.5v-9.826q.333-.133.665-.275l6.945,6.944a1.5,1.5,0,0,0,2.121,0l15.091-15.091a1.5,1.5,0,0,0,0-2.121l-6.944-6.944q.145-.337.277-.666h9.824a1.5,1.5,0,0,0,1.5-1.5V99.641h43.522a1.5,1.5,0,0,0,1.5-1.5A86.134,86.134,0,0,0,205.559,59.5h18.407a3.76,3.76,0,0,1,3.755,3.756V175.032a3.76,3.76,0,0,1-3.755,3.756H32.035a3.76,3.76,0,0,1-3.756-3.756V63.256A3.76,3.76,0,0,1,32.035,59.5H50.441a86.134,86.134,0,0,0-9.107,38.641A1.5,1.5,0,0,0,42.834,99.641ZM100.8,83.913,94.187,77.3l12.969-12.97,6.614,6.621a1.5,1.5,0,0,0,1.694.3c.86-.4,1.637-.725,2.373-.991a1.5,1.5,0,0,0,.99-1.41V59.5h18.336v9.351a1.5,1.5,0,0,0,.989,1.41c.739.268,1.516.592,2.373.991a1.5,1.5,0,0,0,1.7-.3l6.614-6.621,3.921,3.921-20.5,15.456a1.5,1.5,0,0,0-.333-.139,15.072,15.072,0,1,0,10.716,10.9,1.484,1.484,0,0,0-.056-.154L158.906,74.4l2.9,2.9-6.614,6.614a1.5,1.5,0,0,0-.3,1.694c.372.8.7,1.6.982,2.372a1.5,1.5,0,0,0,1.411.99h9.358v18.336h-9.358a1.5,1.5,0,0,0-1.412.994c-.271.76-.593,1.534-.981,2.368a1.5,1.5,0,0,0,.3,1.694l6.614,6.614-12.97,12.97-6.614-6.614a1.5,1.5,0,0,0-1.694-.3c-.8.37-1.594.7-2.373.983a1.5,1.5,0,0,0-.989,1.41v9.358H118.828v-9.358a1.5,1.5,0,0,0-.99-1.41c-.776-.281-1.574-.612-2.373-.983a1.5,1.5,0,0,0-1.694.3l-6.614,6.614-12.97-12.97,6.614-6.614a1.5,1.5,0,0,0,.3-1.694c-.387-.83-.708-1.605-.982-2.368a1.5,1.5,0,0,0-1.412-.994h-9.35V88.97h9.35a1.5,1.5,0,0,0,1.411-.989c.282-.78.613-1.578.983-2.373A1.5,1.5,0,0,0,100.8,83.913Zm31.549,18.142a5.939,5.939,0,1,1-8.168-8.509l39.654-29.891Zm7.736-3.916A12.087,12.087,0,1,1,128,86.052c.352,0,.7.038,1.05.068l-6.673,5.03a8.939,8.939,0,0,0,5.381,16.078c.116,0,.232,0,.349-.007a8.946,8.946,0,0,0,6.564-3.265l5.371-6.551C140.057,97.65,140.087,97.893,140.087,98.139ZM19.87,187.032V63.256A12.179,12.179,0,0,1,32.035,51.091H55.252q-1.714,2.64-3.238,5.409H32.035a6.763,6.763,0,0,0-6.756,6.756V175.032a6.763,6.763,0,0,0,6.756,6.756H223.966a6.763,6.763,0,0,0,6.755-6.756V63.256a6.763,6.763,0,0,0-6.755-6.756H203.987q-1.523-2.767-3.238-5.409h23.217A12.178,12.178,0,0,1,236.13,63.256V187.032A12.178,12.178,0,0,1,223.966,199.2H32.035A12.179,12.179,0,0,1,19.87,187.032Zm82.3,15.165h51.659v19.158H102.17ZM91.309,224.355h73.383v6.2H91.309Z" fill="#3f3679"/><path d="M128,34.577a1.5,1.5,0,0,0,1.5-1.5V18.41a1.5,1.5,0,0,0-3,0V33.077A1.5,1.5,0,0,0,128,34.577Z" fill="#3f3679"/><path d="M178.773,65.889a1.494,1.494,0,0,0,.652-.149l13.2-6.391a1.5,1.5,0,1,0-1.307-2.7l-13.2,6.391a1.5,1.5,0,0,0,.654,2.851Z" fill="#3f3679"/><path d="M63.373,59.349l13.2,6.391a1.5,1.5,0,0,0,1.307-2.7l-13.2-6.391a1.5,1.5,0,0,0-1.307,2.7Z" fill="#3f3679"/><path d="M158.049,44.948a1.5,1.5,0,0,0,1.061-.439l10.37-10.371a1.5,1.5,0,1,0-2.121-2.121l-10.37,10.371a1.5,1.5,0,0,0,1.061,2.561Z" fill="#3f3679"/><path d="M96.891,44.509a1.5,1.5,0,0,0,2.121-2.121L88.641,32.017a1.5,1.5,0,0,0-2.121,2.121Z" fill="#3f3679"/></svg>