<svg xmlns="http://www.w3.org/2000/svg" viewBox="0 0 256 256"><title>icons_</title><rect x="16.327" y="12.544" width="223.345" height="191.333" rx="15.327" ry="15.327" fill="#cecece"/><path d="M26.327,188.55V27.871A15.327,15.327,0,0,1,41.655,12.544h-10A15.327,15.327,0,0,0,16.327,27.871V188.55a15.327,15.327,0,0,0,15.327,15.327h10A15.327,15.327,0,0,1,26.327,188.55Z" fill="#afafaf"/><path d="M229.673,188.55V27.871a15.327,15.327,0,0,0-15.327-15.327h10a15.327,15.327,0,0,1,15.327,15.327V188.55a15.327,15.327,0,0,1-15.327,15.327h-10A15.327,15.327,0,0,0,229.673,188.55Z" fill="#e2e2e2"/><path d="M239.673,27.871a15.327,15.327,0,0,0-15.327-15.327H31.655A15.327,15.327,0,0,0,16.327,27.871V54.544H239.673Z" fill="#f8af23"/><path d="M41.655,12.544h-10A15.327,15.327,0,0,0,16.327,27.871V54.544h10V27.871A15.327,15.327,0,0,1,41.655,12.544Z" fill="#f87023"/><path d="M214.345,12.544h10a15.327,15.327,0,0,1,15.327,15.327V54.544h-10V27.871A15.327,15.327,0,0,0,214.345,12.544Z" fill="#f8d323"/><circle cx="43.688" cy="33.544" r="7" fill="#f46275"/><circle cx="70.65" cy="33.544" r="7" fill="#f46275"/><circle cx="97.612" cy="33.544" r="7" fill="#f46275"/><rect x="120.073" y="28.669" width="99.24" height="10.667" rx="5.333" ry="5.333" fill="#f46275"/><rect x="64.808" y="146.292" width="126.383" height="43.095" rx="4.919" ry="4.919" fill="#9e9e9e"/><rect x="64.808" y="189.388" width="126.383" height="43.095" rx="4.919" ry="4.919" fill="#9e9e9e"/><rect x="64.808" y="103.197" width="126.383" height="43.095" rx="4.919" ry="4.919" fill="#9e9e9e"/><rect x="77.875" y="120.104" width="67.03" height="9.281" rx="2.415" ry="2.415" fill="#f8af23"/><rect x="77.875" y="163.2" width="67.03" height="9.281" rx="2.415" ry="2.415" fill="#f8af23"/><rect x="77.875" y="206.295" width="67.03" height="9.281" rx="2.415" ry="2.415" fill="#f8af23"/><rect x="164.671" y="120.104" width="9.281" height="9.281" rx="2.415" ry="2.415" fill="#f8af23"/><rect x="164.671" y="163.2" width="9.281" height="9.281" rx="2.415" ry="2.415" fill="#f8af23"/><rect x="164.671" y="206.295" width="9.281" height="9.281" rx="2.415" ry="2.415" fill="#f8af23"/><path d="M27.323,241.956h-18a1.5,1.5,0,0,0,0,3h18a1.5,1.5,0,1,0,0-3Z" fill="#3f3679"/><path d="M246.68,241.956h-18a1.5,1.5,0,0,0,0,3h18a1.5,1.5,0,0,0,0-3Z" fill="#3f3679"/><path d="M218.479,241.956H37.521a1.5,1.5,0,0,0,0,3H218.479a1.5,1.5,0,0,0,0-3Z" fill="#3f3679"/><path d="M9.32,233.983H246.68a1.5,1.5,0,0,0,0-3H191.7a6.375,6.375,0,0,0,1-3.419V205.377h31.654a16.846,16.846,0,0,0,16.827-16.827V27.872h0a16.841,16.841,0,0,0-16.827-16.827H31.654A16.841,16.841,0,0,0,14.827,27.871h0V188.55a16.846,16.846,0,0,0,16.827,16.827H63.309v22.187a6.374,6.374,0,0,0,1,3.419H9.32a1.5,1.5,0,0,0,0,3Zm56.988-49.514V151.211a3.422,3.422,0,0,1,3.418-3.419H186.273a3.422,3.422,0,0,1,3.418,3.419v33.257a3.422,3.422,0,0,1-3.418,3.419H69.727A3.422,3.422,0,0,1,66.309,184.469Zm0-43.1V108.116a3.422,3.422,0,0,1,3.418-3.419H186.273a3.422,3.422,0,0,1,3.418,3.419v33.257a3.422,3.422,0,0,1-3.418,3.419H69.727A3.422,3.422,0,0,1,66.309,141.374ZM31.654,14.044H224.346a13.819,13.819,0,0,1,13.827,13.828V53.044H17.827V27.872A13.819,13.819,0,0,1,31.654,14.044Zm0,188.333A13.843,13.843,0,0,1,17.827,188.55V56.044H238.173V188.55a13.843,13.843,0,0,1-13.827,13.827H192.691v-8.071a6.407,6.407,0,0,0-2.3-4.919,6.407,6.407,0,0,0,2.3-4.919V151.211a6.407,6.407,0,0,0-2.3-4.919,6.407,6.407,0,0,0,2.3-4.919V108.116a6.426,6.426,0,0,0-6.418-6.419H69.727a6.426,6.426,0,0,0-6.418,6.419v33.257a6.407,6.407,0,0,0,2.3,4.919,6.407,6.407,0,0,0-2.3,4.919v33.257a6.407,6.407,0,0,0,2.3,4.919,6.407,6.407,0,0,0-2.3,4.919v8.071Zm34.654,25.187V194.307a3.422,3.422,0,0,1,3.418-3.419H186.273a3.422,3.422,0,0,1,3.418,3.419v33.257a3.422,3.422,0,0,1-3.418,3.419H69.727A3.422,3.422,0,0,1,66.309,227.564Z" fill="#3f3679"/><path d="M43.687,42.044a8.5,8.5,0,1,0-8.5-8.5A8.51,8.51,0,0,0,43.687,42.044Zm0-14a5.5,5.5,0,1,1-5.5,5.5A5.507,5.507,0,0,1,43.687,28.044Z" fill="#3f3679"/><path d="M70.649,42.044a8.5,8.5,0,1,0-8.5-8.5A8.51,8.51,0,0,0,70.649,42.044Zm0-14a5.5,5.5,0,1,1-5.5,5.5A5.507,5.507,0,0,1,70.649,28.044Z" fill="#3f3679"/><path d="M97.612,42.044a8.5,8.5,0,1,0-8.5-8.5A8.51,8.51,0,0,0,97.612,42.044Zm0-14a5.5,5.5,0,1,1-5.5,5.5A5.507,5.507,0,0,1,97.612,28.044Z" fill="#3f3679"/><path d="M125.406,40.836h88.573a6.833,6.833,0,0,0,0-13.667H125.406a6.833,6.833,0,0,0,0,13.667Zm0-10.667h88.573a3.833,3.833,0,0,1,0,7.667H125.406a3.833,3.833,0,0,1,0-7.667Z" fill="#3f3679"/><path d="M142.49,118.6H80.29a3.919,3.919,0,0,0-3.915,3.915v4.452a3.919,3.919,0,0,0,3.915,3.915h62.2a3.919,3.919,0,0,0,3.915-3.915v-4.452A3.919,3.919,0,0,0,142.49,118.6Zm.915,8.366a.927.927,0,0,1-.915.915H80.29a.927.927,0,0,1-.915-.915v-4.452a.927.927,0,0,1,.915-.915h62.2a.927.927,0,0,1,.915.915Z" fill="#3f3679"/><path d="M142.49,161.7H80.29a3.919,3.919,0,0,0-3.915,3.915v4.452a3.919,3.919,0,0,0,3.915,3.915h62.2a3.919,3.919,0,0,0,3.915-3.915v-4.452A3.919,3.919,0,0,0,142.49,161.7Zm.915,8.366a.927.927,0,0,1-.915.915H80.29a.927.927,0,0,1-.915-.915v-4.452a.927.927,0,0,1,.915-.915h62.2a.927.927,0,0,1,.915.915Z" fill="#3f3679"/><path d="M142.49,204.795H80.29a3.919,3.919,0,0,0-3.915,3.915v4.452a3.919,3.919,0,0,0,3.915,3.915h62.2a3.919,3.919,0,0,0,3.915-3.915v-4.452A3.919,3.919,0,0,0,142.49,204.795Zm.915,8.366a.927.927,0,0,1-.915.915H80.29a.927.927,0,0,1-.915-.915v-4.452a.927.927,0,0,1,.915-.915h62.2a.927.927,0,0,1,.915.915Z" fill="#3f3679"/><path d="M171.537,118.6h-4.451a3.919,3.919,0,0,0-3.915,3.915v4.452a3.919,3.919,0,0,0,3.915,3.915h4.451a3.919,3.919,0,0,0,3.915-3.915v-4.452A3.919,3.919,0,0,0,171.537,118.6Zm.915,8.366a.927.927,0,0,1-.915.915h-4.451a.927.927,0,0,1-.915-.915v-4.452a.927.927,0,0,1,.915-.915h4.451a.927.927,0,0,1,.915.915Z" fill="#3f3679"/><path d="M171.537,161.7h-4.451a3.919,3.919,0,0,0-3.915,3.915v4.452a3.919,3.919,0,0,0,3.915,3.915h4.451a3.919,3.919,0,0,0,3.915-3.915v-4.452A3.919,3.919,0,0,0,171.537,161.7Zm.915,8.366a.927.927,0,0,1-.915.915h-4.451a.927.927,0,0,1-.915-.915v-4.452a.927.927,0,0,1,.915-.915h4.451a.927.927,0,0,1,.915.915Z" fill="#3f3679"/><path d="M171.537,204.795h-4.451a3.919,3.919,0,0,0-3.915,3.915v4.452a3.919,3.919,0,0,0,3.915,3.915h4.451a3.919,3.919,0,0,0,3.915-3.915v-4.452A3.919,3.919,0,0,0,171.537,204.795Zm.915,8.366a.927.927,0,0,1-.915.915h-4.451a.927.927,0,0,1-.915-.915v-4.452a.927.927,0,0,1,.915-.915h4.451a.927.927,0,0,1,.915.915Z" fill="#3f3679"/></svg>