<svg xmlns="http://www.w3.org/2000/svg" viewBox="0 0 256 256"><title>icons_</title><rect x="18.37" y="31.283" width="219.26" height="151.106" rx="13.665" ry="13.665" fill="#cecece"/><path d="M28.37,168.724V44.948A13.681,13.681,0,0,1,42.035,31.283h-10A13.681,13.681,0,0,0,18.37,44.948V168.724a13.681,13.681,0,0,0,13.665,13.665h10A13.681,13.681,0,0,1,28.37,168.724Z" fill="#afafaf"/><path d="M227.63,168.724V44.948a13.681,13.681,0,0,0-13.665-13.665h10A13.681,13.681,0,0,1,237.63,44.948V168.724a13.681,13.681,0,0,1-13.665,13.665h-10A13.681,13.681,0,0,0,227.63,168.724Z" fill="#e2e2e2"/><rect x="26.779" y="39.692" width="202.442" height="122.288" rx="5.256" ry="5.256" fill="#63bce7"/><path d="M36.779,156.724V44.947a5.271,5.271,0,0,1,5.256-5.256h-10a5.271,5.271,0,0,0-5.256,5.256V156.724a5.271,5.271,0,0,0,5.256,5.256h10A5.271,5.271,0,0,1,36.779,156.724Z" fill="#6377e7"/><path d="M219.221,156.724V44.947a5.271,5.271,0,0,0-5.256-5.256h10a5.271,5.271,0,0,1,5.256,5.256V156.724a5.271,5.271,0,0,1-5.256,5.256h-10A5.271,5.271,0,0,0,219.221,156.724Z" fill="#63e2e7"/><rect x="89.809" y="204.547" width="76.383" height="9.197" fill="#9e9e9e"/><rect x="89.809" y="204.547" width="10" height="9.197" fill="#707070"/><rect x="100.67" y="182.389" width="54.659" height="22.158" fill="#cecece"/><rect x="100.67" y="182.389" width="10" height="22.158" fill="#afafaf"/><circle cx="128" cy="172.184" r="4.5" fill="#9e9e9e"/><circle cx="128" cy="100.836" r="47" fill="#f46275"/><circle cx="128" cy="100.836" r="22.336" fill="#cecece"/><circle cx="128" cy="100.836" r="8.502" fill="#f8af23"/><polygon points="163.297 56.35 165.855 62.981 172.486 65.538 186.041 51.983 177.732 51.103 176.852 42.794 163.297 56.35" fill="#cecece"/><path d="M230.721,156.724V44.947a6.763,6.763,0,0,0-6.755-6.756H32.034a6.763,6.763,0,0,0-6.755,6.756V156.724a6.763,6.763,0,0,0,6.755,6.756H223.966A6.763,6.763,0,0,0,230.721,156.724Zm-202.441,0V44.947a3.76,3.76,0,0,1,3.755-3.756H223.966a3.76,3.76,0,0,1,3.755,3.756V156.724a3.76,3.76,0,0,1-3.755,3.756H32.034A3.76,3.76,0,0,1,28.279,156.724Z" fill="#3f3679"/><path d="M128,166.185a6,6,0,1,0,6,6A6.007,6.007,0,0,0,128,166.185Zm0,9a3,3,0,1,1,3-3A3,3,0,0,1,128,175.185Z" fill="#3f3679"/><path d="M27.323,223.217h-18a1.5,1.5,0,0,0,0,3h18a1.5,1.5,0,1,0,0-3Z" fill="#3f3679"/><path d="M246.68,223.217h-18a1.5,1.5,0,0,0,0,3h18a1.5,1.5,0,0,0,0-3Z" fill="#3f3679"/><path d="M218.479,223.217H37.521a1.5,1.5,0,0,0,0,3H218.479a1.5,1.5,0,0,0,0-3Z" fill="#3f3679"/><path d="M9.32,215.244H246.68a1.5,1.5,0,0,0,0-3H167.691v-7.7a1.5,1.5,0,0,0-1.5-1.5h-9.362V183.889h67.137a15.182,15.182,0,0,0,15.164-15.165V44.947a15.181,15.181,0,0,0-15.164-15.164H32.034A15.181,15.181,0,0,0,16.87,44.947V168.724a15.182,15.182,0,0,0,15.164,15.165H99.171v19.158H89.809a1.5,1.5,0,0,0-1.5,1.5v7.7H9.32a1.5,1.5,0,0,0,0,3Zm10.55-46.521V44.947A12.178,12.178,0,0,1,32.034,32.783H223.966A12.178,12.178,0,0,1,236.13,44.947V168.724a12.178,12.178,0,0,1-12.164,12.165H32.034A12.178,12.178,0,0,1,19.87,168.724Zm82.3,15.165h51.658v19.158H102.171ZM91.309,206.047h73.383v6.2H91.309Z" fill="#3f3679"/><path d="M186.2,50.492l-7.1-.753-.753-7.1a1.5,1.5,0,0,0-2.552-.9L162.236,55.289a1.5,1.5,0,0,0-.339,1.6L164.1,62.61l-2.912,2.912a48.585,48.585,0,1,0,2.121,2.121l2.912-2.912,5.72,2.207a1.5,1.5,0,0,0,1.6-.339L187.1,53.044a1.5,1.5,0,0,0-.9-2.552Zm-12.7,50.344a45.578,45.578,0,1,1-14.427-33.194L143.749,82.966a23.876,23.876,0,1,0,2.121,2.121l15.323-15.324A45.323,45.323,0,0,1,173.5,100.836Zm-38.5,0a7.023,7.023,0,1,1-3.231-5.892l-4.831,4.831a1.5,1.5,0,1,0,2.121,2.121l4.831-4.831A6.954,6.954,0,0,1,135,100.836Zm-1.08-8.043a10.043,10.043,0,1,0,2.121,2.122l7.694-7.694a20.9,20.9,0,1,1-2.121-2.121Zm38.194-29.006-5.1-1.967-1.968-5.1,10.644-10.643.55,5.185a1.5,1.5,0,0,0,1.333,1.333l5.185.55Z" fill="#3f3679"/></svg>