<svg xmlns="http://www.w3.org/2000/svg" viewBox="0 0 256 256"><title>icons_</title><rect x="16.327" y="26.847" width="223.345" height="191.333" rx="15.327" ry="15.327" fill="#cecece"/><path d="M26.327,202.853V42.174A15.327,15.327,0,0,1,41.655,26.847h-10A15.327,15.327,0,0,0,16.327,42.174V202.853A15.327,15.327,0,0,0,31.655,218.18h10A15.327,15.327,0,0,1,26.327,202.853Z" fill="#afafaf"/><path d="M229.673,202.853V42.174a15.327,15.327,0,0,0-15.327-15.327h10a15.327,15.327,0,0,1,15.327,15.327V202.853a15.327,15.327,0,0,1-15.327,15.327h-10A15.327,15.327,0,0,0,229.673,202.853Z" fill="#e2e2e2"/><path d="M239.673,42.174a15.327,15.327,0,0,0-15.327-15.327H31.655A15.327,15.327,0,0,0,16.327,42.174V68.847H239.673Z" fill="#f8af23"/><path d="M41.655,26.847h-10A15.327,15.327,0,0,0,16.327,42.174V68.847h10V42.174A15.327,15.327,0,0,1,41.655,26.847Z" fill="#f87023"/><path d="M214.345,26.847h10a15.327,15.327,0,0,1,15.327,15.327V68.847h-10V42.174A15.327,15.327,0,0,0,214.345,26.847Z" fill="#f8d323"/><circle cx="43.688" cy="47.847" r="7" fill="#f46275"/><circle cx="70.65" cy="47.847" r="7" fill="#f46275"/><circle cx="97.612" cy="47.847" r="7" fill="#f46275"/><rect x="120.073" y="42.972" width="99.24" height="10.667" rx="5.333" ry="5.333" fill="#f46275"/><polygon points="83.125 96.889 172.875 96.889 164.375 179.639 128 190.139 90.875 179.639 83.125 96.889" fill="#f8af23"/><path d="M43.688,39.347a8.5,8.5,0,1,0,8.5,8.5A8.51,8.51,0,0,0,43.688,39.347Zm0,14a5.5,5.5,0,1,1,5.5-5.5A5.507,5.507,0,0,1,43.688,53.347Z" fill="#3f3679"/><path d="M70.649,39.347a8.5,8.5,0,1,0,8.5,8.5A8.51,8.51,0,0,0,70.649,39.347Zm0,14a5.5,5.5,0,1,1,5.5-5.5A5.507,5.507,0,0,1,70.649,53.347Z" fill="#3f3679"/><path d="M97.612,39.347a8.5,8.5,0,1,0,8.5,8.5A8.51,8.51,0,0,0,97.612,39.347Zm0,14a5.5,5.5,0,1,1,5.5-5.5A5.507,5.507,0,0,1,97.612,53.347Z" fill="#3f3679"/><path d="M213.979,41.472H125.406a6.833,6.833,0,0,0,0,13.667h88.573a6.833,6.833,0,0,0,0-13.667Zm0,10.667H125.406a3.833,3.833,0,0,1,0-7.667h88.573a3.833,3.833,0,0,1,0,7.667Z" fill="#3f3679"/><path d="M27.323,227.653h-18a1.5,1.5,0,0,0,0,3h18a1.5,1.5,0,1,0,0-3Z" fill="#3f3679"/><path d="M246.68,227.653h-18a1.5,1.5,0,0,0,0,3h18a1.5,1.5,0,0,0,0-3Z" fill="#3f3679"/><path d="M218.479,227.653H37.521a1.5,1.5,0,0,0,0,3H218.479a1.5,1.5,0,0,0,0-3Z" fill="#3f3679"/><path d="M248.18,218.18a1.5,1.5,0,0,0-1.5-1.5H233.911a16.814,16.814,0,0,0,7.262-13.827V42.174a16.846,16.846,0,0,0-16.827-16.827H31.654A16.846,16.846,0,0,0,14.827,42.174V202.853a16.814,16.814,0,0,0,7.262,13.827H9.32a1.5,1.5,0,0,0,0,3H246.68A1.5,1.5,0,0,0,248.18,218.18ZM17.827,42.174A13.843,13.843,0,0,1,31.654,28.347H224.346a13.843,13.843,0,0,1,13.827,13.827V67.347H17.827ZM31.654,216.68a13.843,13.843,0,0,1-13.827-13.827V70.347H238.173V202.853a13.843,13.843,0,0,1-13.827,13.827Z" fill="#3f3679"/><path d="M172.875,95.389H83.125a1.5,1.5,0,0,0-1.493,1.64l7.75,82.75a1.5,1.5,0,0,0,1.085,1.3l37.125,10.5a1.506,1.506,0,0,0,.408.057,1.49,1.49,0,0,0,.416-.059l36.375-10.5a1.5,1.5,0,0,0,1.076-1.288l8.5-82.75a1.5,1.5,0,0,0-1.492-1.653Zm-9.889,83.09L128,188.579l-35.724-10.1-7.5-80.086h86.44Z" fill="#3f3679"/><path d="M122.216,124.849a2.576,2.576,0,0,1,2.576,2.576v19.426q0,5.057-2.758,7.789a10.358,10.358,0,0,1-7.629,2.734,11.563,11.563,0,0,1-8.382-2.984,10.007,10.007,0,0,1-2.834-5.532,2.583,2.583,0,0,1,2.537-3.054h2.705a2.514,2.514,0,0,1,2.405,1.973,3.021,3.021,0,0,0,3.2,2.537q2.958,0,2.958-3.462V127.425a2.576,2.576,0,0,1,2.576-2.576Z" fill="#3f3679"/><path d="M151.779,152.682a9.139,9.139,0,0,1-3.826,3.416,13.486,13.486,0,0,1-6.128,1.275,14.421,14.421,0,0,1-8.927-2.641,9.208,9.208,0,0,1-3.066-3.936,2.555,2.555,0,0,1,2.426-3.445h3.157a2.626,2.626,0,0,1,2.363,1.63,3.858,3.858,0,0,0,.882,1.242,4,4,0,0,0,2.847,1.047,3.309,3.309,0,0,0,2.369-.821,2.863,2.863,0,0,0,.867-2.185,2.827,2.827,0,0,0-.8-2.05,6.27,6.27,0,0,0-1.983-1.344q-1.184-.523-3.281-1.253a39.978,39.978,0,0,1-4.986-2.028,9.162,9.162,0,0,1-3.325-2.914,9.492,9.492,0,0,1,.067-10,9.267,9.267,0,0,1,4.033-3.21,14.67,14.67,0,0,1,5.9-1.118q5.372,0,8.541,2.552a9.25,9.25,0,0,1,2.638,3.36,2.582,2.582,0,0,1-2.348,3.654h-3.248a2.609,2.609,0,0,1-2.335-1.508,3.724,3.724,0,0,0-.719-1.02,3.421,3.421,0,0,0-2.528-.932,3.254,3.254,0,0,0-2.209.728,2.67,2.67,0,0,0-.842,2.141,2.714,2.714,0,0,0,.749,1.935,5.742,5.742,0,0,0,1.891,1.3q1.14.5,3.281,1.275a35.977,35.977,0,0,1,5.057,2.072,9.7,9.7,0,0,1,3.37,2.984,8.524,8.524,0,0,1,1.412,5.1A8.863,8.863,0,0,1,151.779,152.682Z" fill="#3f3679"/></svg>