<svg xmlns="http://www.w3.org/2000/svg" viewBox="0 0 256 256"><title>icons_</title><rect x="16.327" y="12.544" width="223.345" height="191.333" rx="15.327" ry="15.327" fill="#cecece"/><path d="M26.327,188.55V27.871A15.327,15.327,0,0,1,41.655,12.544h-10A15.327,15.327,0,0,0,16.327,27.871V188.55a15.327,15.327,0,0,0,15.327,15.327h10A15.327,15.327,0,0,1,26.327,188.55Z" fill="#afafaf"/><path d="M229.673,188.55V27.871a15.327,15.327,0,0,0-15.327-15.327h10a15.327,15.327,0,0,1,15.327,15.327V188.55a15.327,15.327,0,0,1-15.327,15.327h-10A15.327,15.327,0,0,0,229.673,188.55Z" fill="#e2e2e2"/><path d="M239.673,27.871a15.327,15.327,0,0,0-15.327-15.327H31.655A15.327,15.327,0,0,0,16.327,27.871V54.544H239.673Z" fill="#f8af23"/><path d="M41.655,12.544h-10A15.327,15.327,0,0,0,16.327,27.871V54.544h10V27.871A15.327,15.327,0,0,1,41.655,12.544Z" fill="#f87023"/><path d="M214.345,12.544h10a15.327,15.327,0,0,1,15.327,15.327V54.544h-10V27.871A15.327,15.327,0,0,0,214.345,12.544Z" fill="#f8d323"/><circle cx="43.688" cy="33.544" r="7" fill="#f46275"/><circle cx="70.65" cy="33.544" r="7" fill="#f46275"/><circle cx="97.612" cy="33.544" r="7" fill="#f46275"/><rect x="120.073" y="28.669" width="99.24" height="10.667" rx="5.333" ry="5.333" fill="#f46275"/><rect x="71.575" y="92.5" width="112.85" height="139.983" fill="#63bce7"/><rect x="71.575" y="92.5" width="10" height="139.983" fill="#6377e7"/><rect x="174.425" y="92.5" width="10" height="139.983" fill="#63e2e7"/><path d="M141.875,84.375H136.5a8.5,8.5,0,0,0-17,0h-5.375a8.125,8.125,0,0,0,0,16.25h27.75a8.125,8.125,0,0,0,0-16.25Z" fill="#f8af23"/><rect x="84.5" y="119.825" width="20" height="20" fill="#f46275"/><rect x="84.5" y="152.491" width="20" height="20" fill="#f46275"/><rect x="84.5" y="185.158" width="20" height="20" fill="#f46275"/><rect x="118.333" y="125.408" width="53.167" height="8.833" fill="#f46275"/><rect x="118.333" y="158.075" width="53.167" height="8.833" fill="#f46275"/><rect x="118.333" y="190.741" width="53.167" height="8.833" fill="#f46275"/><path d="M27.323,241.956h-18a1.5,1.5,0,0,0,0,3h18a1.5,1.5,0,1,0,0-3Z" fill="#3f3679"/><path d="M246.68,241.956h-18a1.5,1.5,0,0,0,0,3h18a1.5,1.5,0,0,0,0-3Z" fill="#3f3679"/><path d="M218.479,241.956H37.521a1.5,1.5,0,0,0,0,3H218.479a1.5,1.5,0,0,0,0-3Z" fill="#3f3679"/><path d="M9.32,233.983H246.68a1.5,1.5,0,0,0,0-3H185.925V205.378h38.421a16.846,16.846,0,0,0,16.827-16.827V27.871a16.846,16.846,0,0,0-16.827-16.827H31.654A16.846,16.846,0,0,0,14.827,27.871v160.68a16.846,16.846,0,0,0,16.827,16.827H70.075v25.605H9.32a1.5,1.5,0,0,0,0,3ZM17.827,27.871A13.843,13.843,0,0,1,31.654,14.044H224.346a13.843,13.843,0,0,1,13.827,13.827V53.044H17.827ZM31.654,202.378a13.843,13.843,0,0,1-13.827-13.827V56.044H238.173V188.551a13.843,13.843,0,0,1-13.827,13.827H185.925V92.5a1.5,1.5,0,0,0-1.5-1.5H151.371a9.631,9.631,0,0,0-9.5-8.125h-3.987a10,10,0,0,0-19.775,0h-3.987a9.631,9.631,0,0,0-9.5,8.125H71.575a1.5,1.5,0,0,0-1.5,1.5V202.378ZM148.5,92.5a6.632,6.632,0,0,1-6.625,6.625h-27.75a6.625,6.625,0,0,1,0-13.25H119.5a1.5,1.5,0,0,0,1.5-1.5,7,7,0,0,1,14,0,1.5,1.5,0,0,0,1.5,1.5h5.375A6.632,6.632,0,0,1,148.5,92.5ZM73.075,94h31.554a9.631,9.631,0,0,0,9.5,8.125h27.75a9.631,9.631,0,0,0,9.5-8.125h31.554V230.983H73.075Z" fill="#3f3679"/><path d="M43.687,25.044a8.5,8.5,0,1,0,8.5,8.5A8.51,8.51,0,0,0,43.687,25.044Zm0,14a5.5,5.5,0,1,1,5.5-5.5A5.507,5.507,0,0,1,43.687,39.044Z" fill="#3f3679"/><path d="M70.649,25.044a8.5,8.5,0,1,0,8.5,8.5A8.51,8.51,0,0,0,70.649,25.044Zm0,14a5.5,5.5,0,1,1,5.5-5.5A5.507,5.507,0,0,1,70.649,39.044Z" fill="#3f3679"/><path d="M97.612,25.044a8.5,8.5,0,1,0,8.5,8.5A8.51,8.51,0,0,0,97.612,25.044Zm0,14a5.5,5.5,0,1,1,5.5-5.5A5.507,5.507,0,0,1,97.612,39.044Z" fill="#3f3679"/><path d="M213.979,27.169H125.406a6.833,6.833,0,0,0,0,13.667h88.573a6.833,6.833,0,0,0,0-13.667Zm0,10.667H125.406a3.833,3.833,0,0,1,0-7.667h88.573a3.833,3.833,0,0,1,0,7.667Z" fill="#3f3679"/><path d="M104.5,118.325h-20a1.5,1.5,0,0,0-1.5,1.5v20a1.5,1.5,0,0,0,1.5,1.5h20a1.5,1.5,0,0,0,1.5-1.5v-20A1.5,1.5,0,0,0,104.5,118.325Zm-1.5,20H86v-17h17Z" fill="#3f3679"/><path d="M104.5,150.991h-20a1.5,1.5,0,0,0-1.5,1.5v20a1.5,1.5,0,0,0,1.5,1.5h20a1.5,1.5,0,0,0,1.5-1.5v-20A1.5,1.5,0,0,0,104.5,150.991Zm-1.5,20H86v-17h17Z" fill="#3f3679"/><path d="M104.5,183.658h-20a1.5,1.5,0,0,0-1.5,1.5v20a1.5,1.5,0,0,0,1.5,1.5h20a1.5,1.5,0,0,0,1.5-1.5v-20A1.5,1.5,0,0,0,104.5,183.658Zm-1.5,20H86v-17h17Z" fill="#3f3679"/><path d="M171.5,123.908H118.333a1.5,1.5,0,0,0-1.5,1.5v8.833a1.5,1.5,0,0,0,1.5,1.5H171.5a1.5,1.5,0,0,0,1.5-1.5v-8.833A1.5,1.5,0,0,0,171.5,123.908Zm-1.5,8.833H119.833v-5.833H170Z" fill="#3f3679"/><path d="M171.5,156.575H118.333a1.5,1.5,0,0,0-1.5,1.5v8.833a1.5,1.5,0,0,0,1.5,1.5H171.5a1.5,1.5,0,0,0,1.5-1.5v-8.833A1.5,1.5,0,0,0,171.5,156.575Zm-1.5,8.833H119.833v-5.833H170Z" fill="#3f3679"/><path d="M171.5,189.241H118.333a1.5,1.5,0,0,0-1.5,1.5v8.834a1.5,1.5,0,0,0,1.5,1.5H171.5a1.5,1.5,0,0,0,1.5-1.5v-8.834A1.5,1.5,0,0,0,171.5,189.241Zm-1.5,8.834H119.833v-5.834H170Z" fill="#3f3679"/></svg>