<svg xmlns="http://www.w3.org/2000/svg" viewBox="0 0 256 256"><title>icons_</title><rect x="18.37" y="24.254" width="219.26" height="151.106" rx="13.665" ry="13.665" fill="#cecece"/><path d="M28.37,161.695V37.918A13.681,13.681,0,0,1,42.035,24.254h-10A13.681,13.681,0,0,0,18.37,37.918V161.695a13.681,13.681,0,0,0,13.665,13.665h10A13.681,13.681,0,0,1,28.37,161.695Z" fill="#afafaf"/><path d="M227.63,161.695V37.918a13.681,13.681,0,0,0-13.665-13.665h10A13.681,13.681,0,0,1,237.63,37.918V161.695a13.681,13.681,0,0,1-13.665,13.665h-10A13.681,13.681,0,0,0,227.63,161.695Z" fill="#e2e2e2"/><rect x="26.779" y="32.662" width="202.442" height="122.288" rx="5.256" ry="5.256" fill="#63bce7"/><path d="M36.779,149.695V37.918a5.271,5.271,0,0,1,5.256-5.256h-10a5.271,5.271,0,0,0-5.256,5.256V149.695a5.271,5.271,0,0,0,5.256,5.256h10A5.271,5.271,0,0,1,36.779,149.695Z" fill="#6377e7"/><path d="M219.221,149.695V37.918a5.271,5.271,0,0,0-5.256-5.256h10a5.271,5.271,0,0,1,5.256,5.256V149.695a5.271,5.271,0,0,1-5.256,5.256h-10A5.271,5.271,0,0,0,219.221,149.695Z" fill="#63e2e7"/><circle cx="128" cy="147.199" r="39.978" fill="#9e9e9e"/><path d="M98.022,147.2A39.976,39.976,0,0,1,133,107.543a39.978,39.978,0,1,0,0,79.311A39.976,39.976,0,0,1,98.022,147.2Z" fill="#707070"/><path d="M109.249,187.176h37.5a44.65,44.65,0,0,1,44.65,44.65v0a0,0,0,0,1,0,0H64.6a0,0,0,0,1,0,0v0A44.65,44.65,0,0,1,109.249,187.176Z" fill="#f8af23"/><path d="M119.249,187.176h-10A44.649,44.649,0,0,0,64.6,231.826h10A44.649,44.649,0,0,1,119.249,187.176Z" fill="#f87023"/><rect x="50.5" y="13.201" width="155" height="85.951" rx="10" ry="10" fill="#f46275"/><path d="M60.5,89.152V23.2a10,10,0,0,1,10-10h-10a10,10,0,0,0-10,10V89.152a10,10,0,0,0,10,10h10A10,10,0,0,1,60.5,89.152Z" fill="#f43075"/><path d="M195.5,89.152V23.2a10,10,0,0,0-10-10h10a10,10,0,0,1,10,10V89.152a10,10,0,0,1-10,10h-10A10,10,0,0,0,195.5,89.152Z" fill="#f48875"/><path d="M85.721,36.128H95.888a3.4,3.4,0,0,1,2.507,1.1l15.368,16.725a3.4,3.4,0,0,1-.01,4.618L98.394,75.136a3.4,3.4,0,0,1-2.5,1.09H85.769a3.4,3.4,0,0,1-2.5-5.719L94.339,58.572a3.4,3.4,0,0,0,.01-4.618L83.214,41.836A3.4,3.4,0,0,1,85.721,36.128Z" fill="#f8af23"/><path d="M173.69,68.65h0a7.575,7.575,0,0,1-7.575,7.575h-41a7.575,7.575,0,0,1-7.575-7.575h0a7.575,7.575,0,0,1,7.575-7.575h41A7.575,7.575,0,0,1,173.69,68.65Z" fill="#f8af23"/><path d="M27.323,241.3h-18a1.5,1.5,0,1,0,0,3h18a1.5,1.5,0,1,0,0-3Z" fill="#3f3679"/><path d="M246.68,241.3h-18a1.5,1.5,0,0,0,0,3h18a1.5,1.5,0,0,0,0-3Z" fill="#3f3679"/><path d="M218.479,241.3H37.521a1.5,1.5,0,0,0,0,3H218.479a1.5,1.5,0,0,0,0-3Z" fill="#3f3679"/><path d="M9.32,233.326H246.68a1.5,1.5,0,0,0,0-3H192.862a46.2,46.2,0,0,0-46.111-44.65H143.46a41.59,41.59,0,0,0,13.494-8.817h67.012a15.182,15.182,0,0,0,15.165-15.165V37.918a15.182,15.182,0,0,0-15.165-15.165H206.977A11.5,11.5,0,0,0,195.5,11.7H60.5A11.5,11.5,0,0,0,49.023,22.753H32.035A15.182,15.182,0,0,0,16.87,37.918V161.695a15.182,15.182,0,0,0,15.165,15.165H99.047a41.59,41.59,0,0,0,13.494,8.817H109.25a46.2,46.2,0,0,0-46.111,44.65H9.32a1.5,1.5,0,1,0,0,3ZM236.13,37.918V161.695a12.178,12.178,0,0,1-12.165,12.165H159.741a41.367,41.367,0,0,0,8.684-17.409h55.54a6.763,6.763,0,0,0,6.756-6.755V37.918a6.763,6.763,0,0,0-6.756-6.755H207V25.753h16.965A12.179,12.179,0,0,1,236.13,37.918ZM86.522,147.2a41.627,41.627,0,0,0,.472,6.251H32.035a3.76,3.76,0,0,1-3.756-3.755V37.918a3.76,3.76,0,0,1,3.756-3.755H49v54.99a11.513,11.513,0,0,0,11.5,11.5h135a11.513,11.513,0,0,0,11.5-11.5V34.163h16.965a3.76,3.76,0,0,1,3.756,3.755V149.695a3.76,3.76,0,0,1-3.756,3.755H169.006A41.479,41.479,0,1,0,86.522,147.2ZM52,23.2a8.51,8.51,0,0,1,8.5-8.5h135a8.51,8.51,0,0,1,8.5,8.5V89.152a8.51,8.51,0,0,1-8.5,8.5H60.5a8.51,8.51,0,0,1-8.5-8.5ZM19.87,161.695V37.918A12.179,12.179,0,0,1,32.035,25.753H49v5.409H32.035a6.763,6.763,0,0,0-6.756,6.755V149.695a6.763,6.763,0,0,0,6.756,6.755h55.54a41.367,41.367,0,0,0,8.684,17.409H32.035A12.178,12.178,0,0,1,19.87,161.695Zm69.652-14.5A38.478,38.478,0,1,1,128,185.676,38.522,38.522,0,0,1,89.522,147.2Zm19.728,41.478h37.5a43.2,43.2,0,0,1,43.124,41.65H66.126A43.2,43.2,0,0,1,109.25,188.676Z" fill="#3f3679"/><path d="M93.245,54.969a1.914,1.914,0,0,1-.006,2.583L82.173,69.486a4.9,4.9,0,0,0,3.6,8.239H95.9a4.92,4.92,0,0,0,3.6-1.569l15.359-16.564a4.931,4.931,0,0,0,.015-6.653L99.5,36.214a4.915,4.915,0,0,0-3.611-1.586H85.721a4.9,4.9,0,0,0-3.611,8.223Zm-9.268-16.2a1.858,1.858,0,0,1,1.744-1.139H95.888a1.909,1.909,0,0,1,1.4.616l15.369,16.725a1.914,1.914,0,0,1-.006,2.583L97.293,74.116a1.91,1.91,0,0,1-1.4.609H85.769a1.9,1.9,0,0,1-1.4-3.2L95.439,59.592a4.931,4.931,0,0,0,.015-6.653L84.319,40.82A1.857,1.857,0,0,1,83.977,38.767Z" fill="#3f3679"/><path d="M125.111,77.725h41a9.075,9.075,0,1,0,0-18.15h-41a9.075,9.075,0,1,0,0,18.15Zm0-15.15h41a6.075,6.075,0,1,1,0,12.15h-41a6.075,6.075,0,1,1,0-12.15Z" fill="#3f3679"/></svg>