<svg xmlns="http://www.w3.org/2000/svg" viewBox="0 0 256 256"><title>icons_</title><rect x="18.37" y="43.807" width="219.26" height="151.106" rx="13.665" ry="13.665" fill="#cecece"/><path d="M28.37,181.248V57.472A13.681,13.681,0,0,1,42.035,43.807h-10A13.681,13.681,0,0,0,18.37,57.472V181.248a13.681,13.681,0,0,0,13.665,13.665h10A13.681,13.681,0,0,1,28.37,181.248Z" fill="#afafaf"/><path d="M227.63,181.248V57.472a13.681,13.681,0,0,0-13.665-13.665h10A13.681,13.681,0,0,1,237.63,57.472V181.248a13.681,13.681,0,0,1-13.665,13.665h-10A13.681,13.681,0,0,0,227.63,181.248Z" fill="#e2e2e2"/><rect x="26.779" y="52.216" width="202.442" height="122.288" rx="5.256" ry="5.256" fill="#63bce7"/><path d="M36.779,169.248V57.472a5.271,5.271,0,0,1,5.256-5.256h-10a5.271,5.271,0,0,0-5.256,5.256V169.248a5.271,5.271,0,0,0,5.256,5.256h10A5.271,5.271,0,0,1,36.779,169.248Z" fill="#6377e7"/><path d="M219.221,169.248V57.472a5.271,5.271,0,0,0-5.256-5.256h10a5.271,5.271,0,0,1,5.256,5.256V169.248a5.271,5.271,0,0,1-5.256,5.256h-10A5.271,5.271,0,0,0,219.221,169.248Z" fill="#63e2e7"/><rect x="89.809" y="217.071" width="76.383" height="9.197" fill="#9e9e9e"/><rect x="89.809" y="217.071" width="10" height="9.197" fill="#707070"/><rect x="100.67" y="194.913" width="54.659" height="22.158" fill="#cecece"/><rect x="100.67" y="194.913" width="10" height="22.158" fill="#afafaf"/><circle cx="128" cy="184.708" r="4.5" fill="#9e9e9e"/><circle cx="128" cy="83.388" r="64.63" fill="#f8af23"/><path d="M73.37,83.388A64.621,64.621,0,0,1,133,18.97c-1.652-.126-3.316-.211-5-.211a64.63,64.63,0,0,0,0,129.26c1.684,0,3.348-.085,5-.211A64.621,64.621,0,0,1,73.37,83.388Z" fill="#f87023"/><path d="M182.63,83.388A64.621,64.621,0,0,0,123,18.97c1.652-.126,3.316-.211,5-.211a64.63,64.63,0,0,1,0,129.26c-1.684,0-3.348-.085-5-.211A64.621,64.621,0,0,0,182.63,83.388Z" fill="#f8d323"/><polygon points="160.806 50.582 157.829 47.605 150.518 54.916 149.356 57.634 149.356 57.634 119.811 87.178 124.21 91.577 153.755 62.033 156.472 60.871 163.784 53.559 160.806 50.582" fill="#cecece"/><rect x="104.085" y="74.679" width="15.827" height="49.422" rx="6.348" ry="6.348" transform="translate(103.083 -50.084) rotate(45)" fill="#9e9e9e"/><path d="M152.382,98.19,113.2,59.007A12.192,12.192,0,0,0,98.863,44.671l8.473,8.473a1.7,1.7,0,0,1,.41,1.748l-1.8,5.366a1.7,1.7,0,0,1-1.072,1.072l-5.366,1.8a1.7,1.7,0,0,1-1.748-.41l-8.473-8.473a12.192,12.192,0,0,0,14.335,14.335L142.8,107.77a12.192,12.192,0,1,0,9.58-9.58ZM161.3,111.9l-4.787,4.787-6.539-1.752-1.752-6.539,4.787-4.787,6.539,1.752Z" fill="#cecece"/><path d="M128,190.708a6,6,0,1,0-6-6A6.007,6.007,0,0,0,128,190.708Zm0-9a3,3,0,1,1-3,3A3,3,0,0,1,128,181.708Z" fill="#3f3679"/><path d="M27.323,235.741h-18a1.5,1.5,0,0,0,0,3h18a1.5,1.5,0,0,0,0-3Z" fill="#3f3679"/><path d="M246.68,235.741h-18a1.5,1.5,0,1,0,0,3h18a1.5,1.5,0,0,0,0-3Z" fill="#3f3679"/><path d="M218.479,235.741H37.521a1.5,1.5,0,1,0,0,3H218.479a1.5,1.5,0,1,0,0-3Z" fill="#3f3679"/><path d="M9.32,227.769H246.68a1.5,1.5,0,0,0,0-3H167.691v-7.7a1.5,1.5,0,0,0-1.5-1.5h-9.362V196.413h67.137a15.182,15.182,0,0,0,15.164-15.165V57.472a15.182,15.182,0,0,0-15.164-15.165h-44.2a66.011,66.011,0,0,0-103.528,0h-44.2A15.182,15.182,0,0,0,16.87,57.472V181.248a15.182,15.182,0,0,0,15.164,15.165H99.171v19.158H89.809a1.5,1.5,0,0,0-1.5,1.5v7.7H9.32a1.5,1.5,0,0,0,0,3ZM128,20.259A63.13,63.13,0,1,1,64.87,83.388,63.2,63.2,0,0,1,128,20.259Zm59.072,33.457h36.894a3.76,3.76,0,0,1,3.755,3.756V169.248A3.76,3.76,0,0,1,223.966,173H32.034a3.76,3.76,0,0,1-3.755-3.756V57.472a3.76,3.76,0,0,1,3.755-3.756H68.928a66.13,66.13,0,1,0,118.143,0ZM19.87,181.248V57.472A12.178,12.178,0,0,1,32.034,45.307H73.986q-1.849,2.615-3.445,5.409H32.034a6.763,6.763,0,0,0-6.755,6.756V169.248A6.763,6.763,0,0,0,32.034,176H223.966a6.763,6.763,0,0,0,6.755-6.756V57.472a6.763,6.763,0,0,0-6.755-6.756H185.459q-1.594-2.792-3.445-5.409h41.952A12.178,12.178,0,0,1,236.13,57.472V181.248a12.178,12.178,0,0,1-12.164,12.165H32.034A12.178,12.178,0,0,1,19.87,181.248Zm82.3,15.165h51.658v19.158H102.171ZM91.309,218.571h73.383v6.2H91.309Z" fill="#3f3679"/><path d="M148.522,115.322a1.5,1.5,0,0,0,1.061,1.061l6.539,1.752a1.5,1.5,0,0,0,1.449-.388l4.787-4.787a1.5,1.5,0,0,0,.389-1.449l-1.753-6.539a1.5,1.5,0,0,0-1.061-1.061l-6.539-1.752a1.5,1.5,0,0,0-1.449.388l-4.786,4.787a1.5,1.5,0,0,0-.389,1.449Zm4.932-10.042,4.866,1.3,1.3,4.866-3.562,3.563-4.866-1.3-1.3-4.866Z" fill="#3f3679"/><path d="M103.1,70.193l12.389,12.389L92.357,105.719a7.866,7.866,0,0,0,0,11.1l2.213,2.213a7.857,7.857,0,0,0,11.1,0L128.805,95.9l12.39,12.39a13.691,13.691,0,1,0,11.7-11.7L137.111,80.8l17.5-17.5,2.452-1.048a1.5,1.5,0,0,0,.471-.319l7.312-7.312a1.5,1.5,0,0,0,0-2.121l-5.955-5.955a1.5,1.5,0,0,0-2.121,0l-7.312,7.312a1.491,1.491,0,0,0-.318.471l-1.049,2.452-17.5,17.5L114.8,58.491A13.692,13.692,0,0,0,98.572,43.2a1.5,1.5,0,0,0-.77,2.532l8.473,8.474a.2.2,0,0,1,.05.209l-1.8,5.366a.206.206,0,0,1-.128.128l-5.365,1.8a.2.2,0,0,1-.211-.049l-8.473-8.473a1.5,1.5,0,0,0-2.532.769A13.692,13.692,0,0,0,103.1,70.193Zm.444,46.717a4.855,4.855,0,0,1-6.856,0L94.479,114.7a4.853,4.853,0,0,1,0-6.856L117.614,84.7l9.07,9.07Zm46.868-58.216a1.491,1.491,0,0,0,.318-.471l1.049-2.452,6.046-6.046,3.834,3.834-6.046,6.046-2.452,1.048a1.5,1.5,0,0,0-.471.319l-17.7,17.7L132.712,76.4ZM96.7,63.786a3.189,3.189,0,0,0,3.286.771l5.366-1.8a3.219,3.219,0,0,0,2.017-2.016l1.8-5.367a3.186,3.186,0,0,0-.772-3.286L102.3,45.99a10.691,10.691,0,0,1,9.424,12.725,1.5,1.5,0,0,0,.411,1.352L151.321,99.25a1.5,1.5,0,0,0,1.352.411,10.692,10.692,0,1,1-8.4,8.4,1.5,1.5,0,0,0-.411-1.352L104.679,67.526a1.5,1.5,0,0,0-1.352-.411A10.692,10.692,0,0,1,90.6,57.691Z" fill="#3f3679"/></svg>