<svg xmlns="http://www.w3.org/2000/svg" viewBox="0 0 256 256"><title>icons_</title><path d="M97.514,98V48.168A12.278,12.278,0,0,1,109.792,35.89h53.614l-8.39-11.05H129.233l-12.278-13.3H88.315A12.278,12.278,0,0,0,76.037,23.818V98A10.784,10.784,0,0,0,86.776,108.74h0A10.739,10.739,0,0,0,97.514,98Z" fill="#9e9e9e"/><path d="M86.037,98V23.818A12.278,12.278,0,0,1,98.315,11.54h-10A12.278,12.278,0,0,0,76.037,23.818V98a10.734,10.734,0,0,0,15.753,9.493A10.714,10.714,0,0,1,86.037,98Z" fill="#707070"/><rect x="86.776" y="19.987" width="83.99" height="75.991" fill="#cecece"/><rect x="160.766" y="19.987" width="10" height="75.99" fill="#e2e2e2"/><path d="M163.406,35.89H109.792A12.278,12.278,0,0,0,97.514,48.168V98A10.739,10.739,0,0,1,86.776,108.74h82.451A10.736,10.736,0,0,0,179.963,98V35.89Z" fill="#f8af23"/><path d="M169.963,35.89V98a10.736,10.736,0,0,1-10.736,10.736h10A10.736,10.736,0,0,0,179.963,98V35.89Z" fill="#f8d323"/><path d="M34.83,222.748V172.915a12.278,12.278,0,0,1,12.278-12.278h53.614l-8.39-11.05H66.548l-12.278-13.3H25.631a12.278,12.278,0,0,0-12.278,12.278v74.183a10.784,10.784,0,0,0,10.739,10.739h0A10.739,10.739,0,0,0,34.83,222.748Z" fill="#9e9e9e"/><path d="M23.353,222.748V148.565a12.278,12.278,0,0,1,12.278-12.278h-10a12.278,12.278,0,0,0-12.278,12.278v74.183a10.734,10.734,0,0,0,15.753,9.493A10.715,10.715,0,0,1,23.353,222.748Z" fill="#707070"/><rect x="24.091" y="144.734" width="83.99" height="75.991" fill="#cecece"/><path d="M100.722,160.637H47.108A12.278,12.278,0,0,0,34.83,172.915v49.833a10.739,10.739,0,0,1-10.739,10.739h82.451a10.736,10.736,0,0,0,10.736-10.736V160.637Z" fill="#63bce7"/><path d="M160.2,222.748V172.915a12.278,12.278,0,0,1,12.278-12.278h53.614l-8.39-11.05H191.917l-12.278-13.3H151a12.278,12.278,0,0,0-12.278,12.278v74.183a10.784,10.784,0,0,0,10.739,10.739h0A10.739,10.739,0,0,0,160.2,222.748Z" fill="#9e9e9e"/><rect x="149.461" y="144.734" width="83.99" height="75.991" fill="#cecece"/><rect x="223.451" y="144.734" width="10" height="75.99" fill="#e2e2e2"/><path d="M226.091,160.637H172.477A12.278,12.278,0,0,0,160.2,172.915v49.833a10.739,10.739,0,0,1-10.739,10.739h82.451a10.736,10.736,0,0,0,10.736-10.736V160.637Z" fill="#f46275"/><path d="M232.647,160.637v62.114a10.736,10.736,0,0,1-10.736,10.736h10a10.736,10.736,0,0,0,10.736-10.736V160.637Z" fill="#f48875"/><path d="M99.859,29.163h57.824a1.5,1.5,0,0,0,0-3H99.859a1.5,1.5,0,0,0,0,3Z" fill="#3f3679"/><path d="M37.174,153.91H95a1.5,1.5,0,0,0,0-3H37.174a1.5,1.5,0,1,0,0,3Z" fill="#3f3679"/><path d="M162.543,153.91h57.824a1.5,1.5,0,0,0,0-3H162.543a1.5,1.5,0,0,0,0,3Z" fill="#3f3679"/><path d="M27.323,242.96h-18a1.5,1.5,0,1,0,0,3h18a1.5,1.5,0,0,0,0-3Z" fill="#3f3679"/><path d="M246.68,242.96h-18a1.5,1.5,0,1,0,0,3h18a1.5,1.5,0,0,0,0-3Z" fill="#3f3679"/><path d="M218.479,242.96H37.521a1.5,1.5,0,1,0,0,3H218.479a1.5,1.5,0,1,0,0-3Z" fill="#3f3679"/><path d="M9.32,234.986H246.68a1.5,1.5,0,0,0,0-3h-6.767a12.2,12.2,0,0,0,4.234-9.235V160.637a1.5,1.5,0,0,0-1.5-1.5h-7.7v-14.4a1.5,1.5,0,0,0-1.5-1.5H211.833V70.14a11.513,11.513,0,0,0-11.5-11.5H181.462V35.891a1.5,1.5,0,0,0-1.5-1.5h-7.7v-14.4a1.5,1.5,0,0,0-1.5-1.5H125.387c-.018-.021-.023-.049-.042-.069l-7.289-7.9a1.5,1.5,0,0,0-1.1-.482H88.315A13.793,13.793,0,0,0,74.538,23.818V58.64H55.667a11.513,11.513,0,0,0-11.5,11.5v64.647H25.631a13.794,13.794,0,0,0-13.778,13.778v74.183a12.214,12.214,0,0,0,4.219,9.238H9.32a1.5,1.5,0,1,0,0,3Zm22.79-3a12.215,12.215,0,0,0,4.22-9.238V172.915a10.79,10.79,0,0,1,10.778-10.778h68.67v60.614a9.246,9.246,0,0,1-9.236,9.235Zm74.472-85.752v12.9H47.108A13.794,13.794,0,0,0,33.33,172.915v46.31H25.591v-72.99Zm12.2,76.517V198.562h18.444v24.187a12.214,12.214,0,0,0,4.219,9.238h-26.9A12.2,12.2,0,0,0,118.778,222.751Zm30.683-.526H158.7v.523a9.239,9.239,0,0,1-18.477,0V148.565A10.79,10.79,0,0,1,151,137.787h27.982l5.029,5.447H149.46a1.5,1.5,0,0,0-1.5,1.5v75.99A1.5,1.5,0,0,0,149.46,222.225Zm91.687.526a9.246,9.246,0,0,1-9.236,9.235H157.479a12.215,12.215,0,0,0,4.22-9.238V172.915a10.79,10.79,0,0,1,10.778-10.778h68.67Zm-9.2-63.614H172.477A13.793,13.793,0,0,0,158.7,172.915v46.31H150.96v-72.99h80.99Zm-31.617-97.5a8.51,8.51,0,0,1,8.5,8.5v73.095H188.075c-.016-.019-.02-.042-.037-.061l-7.3-7.9a1.5,1.5,0,0,0-1.1-.482H151a13.793,13.793,0,0,0-13.778,13.778v47H129.5V110.24h39.727A12.25,12.25,0,0,0,181.462,98V61.64ZM178.462,98a9.247,9.247,0,0,1-9.236,9.236H94.794A12.215,12.215,0,0,0,99.015,98V48.168a10.79,10.79,0,0,1,10.778-10.777h68.67Zm-9.2-63.613H109.792A13.793,13.793,0,0,0,96.015,48.168v46.31H88.276V21.487h80.99ZM77.538,23.818A10.79,10.79,0,0,1,88.315,13.04H116.3l5.029,5.447H86.776a1.5,1.5,0,0,0-1.5,1.5v75.99a1.5,1.5,0,0,0,1.5,1.5h9.239V98a9.239,9.239,0,0,1-18.477,0ZM47.167,70.14a8.51,8.51,0,0,1,8.5-8.5H74.538V98A12.281,12.281,0,0,0,86.776,110.24H126.5v85.321h-7.722V160.637a1.5,1.5,0,0,0-1.5-1.5h-7.7v-14.4a1.5,1.5,0,0,0-1.5-1.5H62.725l-7.353-7.965a1.5,1.5,0,0,0-1.1-.482h-7.1ZM22.428,231.828a9.223,9.223,0,0,1-7.576-9.08V148.565a10.79,10.79,0,0,1,10.778-10.778H53.613l5.029,5.447H24.091a1.5,1.5,0,0,0-1.5,1.5v75.99a1.5,1.5,0,0,0,1.5,1.5H33.33v.523a9.2,9.2,0,0,1-10.9,9.08Z" fill="#3f3679"/></svg>