<svg xmlns="http://www.w3.org/2000/svg" viewBox="0 0 256 256"><title>icons_</title><rect x="18.37" y="31.283" width="219.26" height="151.106" rx="13.665" ry="13.665" fill="#cecece"/><path d="M28.37,168.724V44.948A13.681,13.681,0,0,1,42.035,31.283h-10A13.681,13.681,0,0,0,18.37,44.948V168.724a13.681,13.681,0,0,0,13.665,13.665h10A13.681,13.681,0,0,1,28.37,168.724Z" fill="#afafaf"/><path d="M227.63,168.724V44.948a13.681,13.681,0,0,0-13.665-13.665h10A13.681,13.681,0,0,1,237.63,44.948V168.724a13.681,13.681,0,0,1-13.665,13.665h-10A13.681,13.681,0,0,0,227.63,168.724Z" fill="#e2e2e2"/><rect x="26.779" y="39.692" width="202.442" height="122.288" rx="5.256" ry="5.256" fill="#63bce7"/><path d="M36.779,156.724V44.947a5.271,5.271,0,0,1,5.256-5.256h-10a5.271,5.271,0,0,0-5.256,5.256V156.724a5.271,5.271,0,0,0,5.256,5.256h10A5.271,5.271,0,0,1,36.779,156.724Z" fill="#6377e7"/><path d="M219.221,156.724V44.947a5.271,5.271,0,0,0-5.256-5.256h10a5.271,5.271,0,0,1,5.256,5.256V156.724a5.271,5.271,0,0,1-5.256,5.256h-10A5.271,5.271,0,0,0,219.221,156.724Z" fill="#63e2e7"/><rect x="89.809" y="204.547" width="76.383" height="9.197" fill="#9e9e9e"/><rect x="89.809" y="204.547" width="10" height="9.197" fill="#707070"/><rect x="100.67" y="182.389" width="54.659" height="22.158" fill="#cecece"/><rect x="100.67" y="182.389" width="10" height="22.158" fill="#afafaf"/><circle cx="128" cy="172.184" r="4.5" fill="#9e9e9e"/><rect x="57.12" y="99.686" width="26.333" height="16.831" fill="#f8af23"/><rect x="95.596" y="99.686" width="26.333" height="16.831" fill="#f8af23"/><rect x="134.071" y="99.686" width="26.333" height="16.831" fill="#f8af23"/><rect x="172.546" y="99.686" width="26.333" height="16.831" fill="#f8af23"/><circle cx="63.829" cy="108.102" r="1.875" fill="#3f3679"/><rect x="67.62" y="106.227" width="11" height="3.75" rx="1.875" ry="1.875" fill="#3f3679"/><circle cx="102.304" cy="108.102" r="1.875" fill="#3f3679"/><rect x="106.095" y="106.227" width="11" height="3.75" rx="1.875" ry="1.875" fill="#3f3679"/><circle cx="140.78" cy="108.102" r="1.875" fill="#3f3679"/><rect x="144.571" y="106.227" width="11" height="3.75" rx="1.875" ry="1.875" fill="#3f3679"/><circle cx="179.255" cy="108.102" r="1.875" fill="#3f3679"/><rect x="183.046" y="106.227" width="11" height="3.75" rx="1.875" ry="1.875" fill="#3f3679"/><rect x="57.12" y="125.657" width="26.333" height="16.831" fill="#f8af23"/><rect x="95.596" y="125.657" width="26.333" height="16.831" fill="#f8af23"/><rect x="134.071" y="125.657" width="26.333" height="16.831" fill="#f8af23"/><rect x="172.546" y="125.657" width="26.333" height="16.831" fill="#f8af23"/><circle cx="63.829" cy="134.072" r="1.875" fill="#3f3679"/><rect x="67.62" y="132.197" width="11" height="3.75" rx="1.875" ry="1.875" fill="#3f3679"/><circle cx="102.304" cy="134.072" r="1.875" fill="#3f3679"/><rect x="106.095" y="132.197" width="11" height="3.75" rx="1.875" ry="1.875" fill="#3f3679"/><circle cx="140.78" cy="134.072" r="1.875" fill="#3f3679"/><rect x="144.571" y="132.197" width="11" height="3.75" rx="1.875" ry="1.875" fill="#3f3679"/><circle cx="179.255" cy="134.072" r="1.875" fill="#3f3679"/><rect x="183.046" y="132.197" width="11" height="3.75" rx="1.875" ry="1.875" fill="#3f3679"/><rect x="110.273" y="59.184" width="35.454" height="22" fill="#f46275"/><rect x="52.5" y="59.184" width="35.454" height="22" fill="#f46275"/><rect x="168.046" y="59.184" width="35.454" height="22" fill="#f46275"/><path d="M230.721,156.724V44.947a6.763,6.763,0,0,0-6.755-6.756H32.035a6.763,6.763,0,0,0-6.756,6.756V156.724a6.763,6.763,0,0,0,6.756,6.756H223.966A6.763,6.763,0,0,0,230.721,156.724Zm-202.442,0V44.947a3.76,3.76,0,0,1,3.756-3.756H223.966a3.76,3.76,0,0,1,3.755,3.756V156.724a3.76,3.76,0,0,1-3.755,3.756H32.035A3.76,3.76,0,0,1,28.279,156.724Z" fill="#3f3679"/><path d="M128,166.185a6,6,0,1,0,6,6A6.007,6.007,0,0,0,128,166.185Zm0,9a3,3,0,1,1,3-3A3,3,0,0,1,128,175.185Z" fill="#3f3679"/><path d="M27.323,223.217h-18a1.5,1.5,0,1,0,0,3h18a1.5,1.5,0,1,0,0-3Z" fill="#3f3679"/><path d="M246.68,223.217h-18a1.5,1.5,0,0,0,0,3h18a1.5,1.5,0,0,0,0-3Z" fill="#3f3679"/><path d="M218.479,223.217H37.521a1.5,1.5,0,0,0,0,3H218.479a1.5,1.5,0,0,0,0-3Z" fill="#3f3679"/><path d="M9.32,215.244H246.68a1.5,1.5,0,0,0,0-3H167.691v-7.7a1.5,1.5,0,0,0-1.5-1.5h-9.362V183.889h67.137a15.182,15.182,0,0,0,15.164-15.165V44.947a15.181,15.181,0,0,0-15.164-15.164H32.035A15.182,15.182,0,0,0,16.87,44.947V168.724a15.182,15.182,0,0,0,15.165,15.165H99.17v19.158H89.809a1.5,1.5,0,0,0-1.5,1.5v7.7H9.32a1.5,1.5,0,1,0,0,3Zm10.55-46.521V44.947A12.178,12.178,0,0,1,32.035,32.783H223.966A12.178,12.178,0,0,1,236.13,44.947V168.724a12.178,12.178,0,0,1-12.164,12.165H32.035A12.179,12.179,0,0,1,19.87,168.724Zm82.3,15.165h51.659v19.158H102.17ZM91.309,206.047h73.383v6.2H91.309Z" fill="#3f3679"/><path d="M83.454,98.187H57.12a1.5,1.5,0,0,0-1.5,1.5v16.831a1.5,1.5,0,0,0,1.5,1.5H83.454a1.5,1.5,0,0,0,1.5-1.5V99.687A1.5,1.5,0,0,0,83.454,98.187Zm-1.5,16.831H58.62V101.187H81.954Z" fill="#3f3679"/><path d="M121.929,98.187H95.6a1.5,1.5,0,0,0-1.5,1.5v16.831a1.5,1.5,0,0,0,1.5,1.5h26.333a1.5,1.5,0,0,0,1.5-1.5V99.687A1.5,1.5,0,0,0,121.929,98.187Zm-1.5,16.831H97.1V101.187h23.333Z" fill="#3f3679"/><path d="M160.4,98.187H134.071a1.5,1.5,0,0,0-1.5,1.5v16.831a1.5,1.5,0,0,0,1.5,1.5H160.4a1.5,1.5,0,0,0,1.5-1.5V99.687A1.5,1.5,0,0,0,160.4,98.187Zm-1.5,16.831H135.571V101.187H158.9Z" fill="#3f3679"/><path d="M198.88,98.187H172.547a1.5,1.5,0,0,0-1.5,1.5v16.831a1.5,1.5,0,0,0,1.5,1.5H198.88a1.5,1.5,0,0,0,1.5-1.5V99.687A1.5,1.5,0,0,0,198.88,98.187Zm-1.5,16.831H174.047V101.187H197.38Z" fill="#3f3679"/><path d="M83.454,124.156H57.12a1.5,1.5,0,0,0-1.5,1.5v16.831a1.5,1.5,0,0,0,1.5,1.5H83.454a1.5,1.5,0,0,0,1.5-1.5V125.656A1.5,1.5,0,0,0,83.454,124.156Zm-1.5,16.831H58.62V127.156H81.954Z" fill="#3f3679"/><path d="M121.929,124.156H95.6a1.5,1.5,0,0,0-1.5,1.5v16.831a1.5,1.5,0,0,0,1.5,1.5h26.333a1.5,1.5,0,0,0,1.5-1.5V125.656A1.5,1.5,0,0,0,121.929,124.156Zm-1.5,16.831H97.1V127.156h23.333Z" fill="#3f3679"/><path d="M160.4,124.156H134.071a1.5,1.5,0,0,0-1.5,1.5v16.831a1.5,1.5,0,0,0,1.5,1.5H160.4a1.5,1.5,0,0,0,1.5-1.5V125.656A1.5,1.5,0,0,0,160.4,124.156Zm-1.5,16.831H135.571V127.156H158.9Z" fill="#3f3679"/><path d="M198.88,124.156H172.547a1.5,1.5,0,0,0-1.5,1.5v16.831a1.5,1.5,0,0,0,1.5,1.5H198.88a1.5,1.5,0,0,0,1.5-1.5V125.656A1.5,1.5,0,0,0,198.88,124.156Zm-1.5,16.831H174.047V127.156H197.38Z" fill="#3f3679"/><path d="M203.5,57.684H168.047a1.5,1.5,0,0,0-1.5,1.5v9.5h-19.32v-9.5a1.5,1.5,0,0,0-1.5-1.5H110.273a1.5,1.5,0,0,0-1.5,1.5v9.5H89.454v-9.5a1.5,1.5,0,0,0-1.5-1.5H52.5a1.5,1.5,0,0,0-1.5,1.5v22a1.5,1.5,0,0,0,1.5,1.5H87.954a1.5,1.5,0,0,0,1.5-1.5v-9.5h19.32v9.5a1.5,1.5,0,0,0,1.5,1.5h35.453a1.5,1.5,0,0,0,1.5-1.5v-9.5h19.32v9.5a1.5,1.5,0,0,0,1.5,1.5H203.5a1.5,1.5,0,0,0,1.5-1.5v-22A1.5,1.5,0,0,0,203.5,57.684Zm-117.046,22H54v-19H86.454Zm57.773,0H111.773v-19h32.453Zm57.773,0H169.547v-19H202Z" fill="#3f3679"/><path d="M80.519,64.6H59.935a1.5,1.5,0,0,0,0,3H80.519a1.5,1.5,0,0,0,0-3Z" fill="#3f3679"/><path d="M80.519,72.768H59.935a1.5,1.5,0,1,0,0,3H80.519a1.5,1.5,0,0,0,0-3Z" fill="#3f3679"/><path d="M138.292,64.6H117.708a1.5,1.5,0,0,0,0,3h20.583a1.5,1.5,0,0,0,0-3Z" fill="#3f3679"/><path d="M138.292,72.768H117.708a1.5,1.5,0,1,0,0,3h20.583a1.5,1.5,0,0,0,0-3Z" fill="#3f3679"/><path d="M175.422,67.6H196a1.5,1.5,0,0,0,0-3H175.422a1.5,1.5,0,0,0,0,3Z" fill="#3f3679"/><path d="M175.422,75.768H196a1.5,1.5,0,0,0,0-3H175.422a1.5,1.5,0,0,0,0,3Z" fill="#3f3679"/></svg>