<svg xmlns="http://www.w3.org/2000/svg" viewBox="0 0 256 256"><title>icons_</title><rect x="145.958" y="85.588" width="83.583" height="137.164" rx="5" ry="5" fill="#63bce7"/><path d="M145.958,217.752a5,5,0,0,0,5,5h73.583a5,5,0,0,0,5-5V204.419H145.958Z" fill="#9e9e9e"/><path d="M229.541,90.588a5,5,0,0,0-5-5H150.958a5,5,0,0,0-5,5v5.5h83.583Z" fill="#9e9e9e"/><rect x="26.459" y="85.588" width="83.583" height="137.164" rx="5" ry="5" fill="#63bce7"/><path d="M36.459,217.752V90.588a5,5,0,0,1,5-5h-10a5,5,0,0,0-5,5V217.752a5,5,0,0,0,5,5h10A5,5,0,0,1,36.459,217.752Z" fill="#6377e7"/><path d="M219.541,217.752V90.588a5,5,0,0,0-5-5h10a5,5,0,0,1,5,5V217.752a5,5,0,0,1-5,5h-10A5,5,0,0,0,219.541,217.752Z" fill="#63e2e7"/><path d="M26.459,217.752a5,5,0,0,0,5,5h73.583a5,5,0,0,0,5-5V204.419H26.459Z" fill="#9e9e9e"/><path d="M36.459,217.752V204.419h-10v13.333a5,5,0,0,0,5,5h10A5,5,0,0,1,36.459,217.752Z" fill="#707070"/><path d="M219.541,217.752V204.419h10v13.333a5,5,0,0,1-5,5h-10A5,5,0,0,0,219.541,217.752Z" fill="#cecece"/><path d="M110.042,90.588a5,5,0,0,0-5-5H31.459a5,5,0,0,0-5,5v5.5h83.583Z" fill="#9e9e9e"/><path d="M41.459,85.588h-10a5,5,0,0,0-5,5v5.5h10v-5.5A5,5,0,0,1,41.459,85.588Z" fill="#707070"/><path d="M214.541,85.588h10a5,5,0,0,1,5,5v5.5h-10v-5.5A5,5,0,0,0,214.541,85.588Z" fill="#cecece"/><circle cx="68.251" cy="213.585" r="4.708" fill="#3f3679"/><circle cx="187.749" cy="213.585" r="4.708" fill="#3f3679"/><rect x="36.879" y="107.948" width="62.742" height="28.884" fill="#9e9e9e"/><polygon points="36.879 136.833 68.251 111.133 99.622 136.833 36.879 136.833" fill="#f8af23"/><polygon points="83.294 123.457 91.333 116.871 99.622 123.662 99.622 136.833 83.294 123.457" fill="#f46275"/><rect x="156.378" y="107.948" width="62.742" height="28.884" fill="#f8af23"/><rect x="36.879" y="147.108" width="62.742" height="26" fill="#f46275"/><polygon points="92.432 165.018 71.352 158.047 74.564 180.016 79.421 173.138 88.181 183.575 93.577 179.046 84.816 168.61 92.432 165.018" fill="#9e9e9e"/><rect x="156.378" y="147.108" width="62.742" height="28.884" fill="#f46275"/><path d="M200.257,54.25a4.5,4.5,0,0,0-6.364,0l-1.644,1.644V26.775a4.5,4.5,0,0,0-4.5-4.5H68.2a4.5,4.5,0,0,0-4.5,4.5V66.758a4.5,4.5,0,0,0,9,0V31.275H183.25V55.894l-1.644-1.644a4.5,4.5,0,1,0-6.364,6.364l9.326,9.326a4.5,4.5,0,0,0,6.364,0l9.326-9.326A4.5,4.5,0,0,0,200.257,54.25Z" fill="#cecece"/><path d="M36.879,138.333H99.622a1.5,1.5,0,0,0,1.5-1.5V107.948a1.5,1.5,0,0,0-1.5-1.5H36.879a1.5,1.5,0,0,0-1.5,1.5v28.884A1.5,1.5,0,0,0,36.879,138.333ZM82.347,124.62l0,0,13.073,10.709H41.077L68.25,113.072Zm15.775,9.045L85.661,123.457l5.672-4.646,6.789,5.562Zm0-24.216v11.046l-5.838-4.783a1.5,1.5,0,0,0-1.9,0l-7.088,5.807L69.2,109.973a1.5,1.5,0,0,0-1.9,0l-28.92,23.692V109.448Z" fill="#3f3679"/><path d="M156.378,138.333h62.742a1.5,1.5,0,0,0,1.5-1.5V107.948a1.5,1.5,0,0,0-1.5-1.5H156.378a1.5,1.5,0,0,0-1.5,1.5v28.884A1.5,1.5,0,0,0,156.378,138.333Zm61.242-3.842-26.285-12.1,26.285-12.1Zm-5.345.842H163.224l24.526-11.291Zm-24.526-14.593-24.526-11.291h49.052Zm-3.587,1.651-26.284,12.1v-24.2Z" fill="#3f3679"/><path d="M36.879,174.608H72.257l.822,5.625a1.5,1.5,0,0,0,2.709.648l3.735-5.288,7.509,8.946a1.5,1.5,0,0,0,1.019.53q.065.006.13.006a1.5,1.5,0,0,0,.964-.351l5.4-4.529a1.5,1.5,0,0,0,.185-2.113l-2.915-3.473h7.811a1.5,1.5,0,0,0,1.5-1.5v-26a1.5,1.5,0,0,0-1.5-1.5H36.879a1.5,1.5,0,0,0-1.5,1.5v26A1.5,1.5,0,0,0,36.879,174.608Zm51.487,6.854-7.8-9.288a1.5,1.5,0,0,0-1.149-.536h-.062a1.5,1.5,0,0,0-1.163.633L75.5,176.083l-2.317-15.849L88.4,165.263l-4.219,1.99a1.5,1.5,0,0,0-.509,2.321l7.8,9.288ZM38.379,148.608H98.122v23H89.292l-2.075-2.473,5.854-2.762a1.5,1.5,0,0,0-.169-2.781l-21.08-6.97a1.5,1.5,0,0,0-1.955,1.641l1.951,13.344H38.379Z" fill="#3f3679"/><path d="M156.378,177.493h62.742a1.5,1.5,0,0,0,1.5-1.5V147.108a1.5,1.5,0,0,0-1.5-1.5H156.378a1.5,1.5,0,0,0-1.5,1.5v28.884A1.5,1.5,0,0,0,156.378,177.493Zm61.242-3.842-26.284-12.1,26.284-12.1Zm-5.345.842H163.224L187.75,163.2ZM187.749,159.9l-24.526-11.291h49.051Zm-3.587,1.651-26.284,12.1v-24.2Z" fill="#3f3679"/><path d="M68.2,72.758a6.007,6.007,0,0,0,6-6V32.775H181.75V52.438a6,6,0,0,0-7.569,9.237L183.507,71a6,6,0,0,0,8.485,0l9.326-9.326a6.007,6.007,0,0,0,0-8.485h0a6.011,6.011,0,0,0-7.568-.751V26.775a6.007,6.007,0,0,0-6-6H68.2a6.007,6.007,0,0,0-6,6V66.758A6.007,6.007,0,0,0,68.2,72.758Zm-3-45.983a3,3,0,0,1,3-3H187.75a3,3,0,0,1,3,3V55.894a1.5,1.5,0,0,0,2.561,1.061l1.644-1.643a3,3,0,1,1,4.243,4.243l-9.326,9.325a3.073,3.073,0,0,1-4.243,0L176.3,59.554a3,3,0,0,1,4.243-4.243l1.644,1.644a1.5,1.5,0,0,0,2.561-1.061V31.275a1.5,1.5,0,0,0-1.5-1.5H72.7a1.5,1.5,0,0,0-1.5,1.5V66.758a3,3,0,0,1-6,0Z" fill="#3f3679"/><path d="M27.323,232.225h-18a1.5,1.5,0,1,0,0,3h18a1.5,1.5,0,0,0,0-3Z" fill="#3f3679"/><path d="M246.68,232.225h-18a1.5,1.5,0,0,0,0,3h18a1.5,1.5,0,1,0,0-3Z" fill="#3f3679"/><path d="M218.479,232.225H37.521a1.5,1.5,0,0,0,0,3H218.479a1.5,1.5,0,0,0,0-3Z" fill="#3f3679"/><path d="M248.18,222.752a1.5,1.5,0,0,0-1.5-1.5H230.009a6.455,6.455,0,0,0,1.032-3.5V90.588a6.508,6.508,0,0,0-6.5-6.5H150.958a6.508,6.508,0,0,0-6.5,6.5V217.752a6.455,6.455,0,0,0,1.032,3.5H110.51a6.455,6.455,0,0,0,1.032-3.5V90.588a6.508,6.508,0,0,0-6.5-6.5H31.459a6.508,6.508,0,0,0-6.5,6.5V217.752a6.455,6.455,0,0,0,1.032,3.5H9.32a1.5,1.5,0,1,0,0,3H246.68A1.5,1.5,0,0,0,248.18,222.752Zm-20.139-19.833H147.458V97.585h80.583ZM147.458,90.588a3.5,3.5,0,0,1,3.5-3.5h73.583a3.5,3.5,0,0,1,3.5,3.5v4H147.458ZM108.542,202.919H27.959V97.585h80.583ZM27.959,90.588a3.5,3.5,0,0,1,3.5-3.5h73.583a3.5,3.5,0,0,1,3.5,3.5v4H27.959Zm3.5,130.664a3.5,3.5,0,0,1-3.5-3.5V205.919h80.583v11.833a3.5,3.5,0,0,1-3.5,3.5Zm119.5,0a3.5,3.5,0,0,1-3.5-3.5V205.919h80.583v11.833a3.5,3.5,0,0,1-3.5,3.5Z" fill="#3f3679"/></svg>