<svg xmlns="http://www.w3.org/2000/svg" viewBox="0 0 256 256"><title>icons_</title><rect x="18.37" y="31.283" width="219.26" height="151.106" rx="13.665" ry="13.665" fill="#cecece"/><path d="M28.37,168.724V44.948A13.681,13.681,0,0,1,42.035,31.283h-10A13.681,13.681,0,0,0,18.37,44.948V168.724a13.681,13.681,0,0,0,13.665,13.665h10A13.681,13.681,0,0,1,28.37,168.724Z" fill="#afafaf"/><path d="M227.63,168.724V44.948a13.681,13.681,0,0,0-13.665-13.665h10A13.681,13.681,0,0,1,237.63,44.948V168.724a13.681,13.681,0,0,1-13.665,13.665h-10A13.681,13.681,0,0,0,227.63,168.724Z" fill="#e2e2e2"/><rect x="26.779" y="39.692" width="202.442" height="122.288" rx="5.256" ry="5.256" fill="#63bce7"/><path d="M36.779,156.724V44.947a5.271,5.271,0,0,1,5.256-5.256h-10a5.271,5.271,0,0,0-5.256,5.256V156.724a5.271,5.271,0,0,0,5.256,5.256h10A5.271,5.271,0,0,1,36.779,156.724Z" fill="#6377e7"/><path d="M219.221,156.724V44.947a5.271,5.271,0,0,0-5.256-5.256h10a5.271,5.271,0,0,1,5.256,5.256V156.724a5.271,5.271,0,0,1-5.256,5.256h-10A5.271,5.271,0,0,0,219.221,156.724Z" fill="#63e2e7"/><rect x="89.809" y="204.547" width="76.383" height="9.197" fill="#9e9e9e"/><rect x="89.809" y="204.547" width="10" height="9.197" fill="#707070"/><rect x="100.67" y="182.389" width="54.659" height="22.158" fill="#cecece"/><rect x="100.67" y="182.389" width="10" height="22.158" fill="#afafaf"/><rect x="121.871" y="76.58" width="83.583" height="137.164" rx="5" ry="5" fill="#f8af23"/><path d="M121.871,208.744a5,5,0,0,0,5,5h73.583a5,5,0,0,0,5-5V195.411H121.871Z" fill="#9e9e9e"/><path d="M205.455,81.58a5,5,0,0,0-5-5H126.871a5,5,0,0,0-5,5v5.5h83.583Z" fill="#9e9e9e"/><circle cx="163.663" cy="204.578" r="4.708" fill="#3f3679"/><rect x="135.688" y="104.766" width="55.95" height="9.552" rx="3.412" ry="3.412" fill="#f46275"/><rect x="135.688" y="123.268" width="55.95" height="9.552" rx="3.412" ry="3.412" fill="#f46275"/><rect x="135.688" y="141.771" width="55.95" height="9.552" rx="3.412" ry="3.412" fill="#f46275"/><rect x="135.688" y="159.801" width="55.95" height="25.757" fill="#63bce7"/><polygon points="135.688 185.559 163.663 162.641 191.638 185.559 135.688 185.559" fill="#f8af23"/><polygon points="177.078 173.631 184.246 167.758 191.638 173.814 191.638 185.559 177.078 173.631" fill="#f46275"/><rect x="48.177" y="59.023" width="55.95" height="25.757" fill="#f46275"/><polygon points="48.177 84.78 76.152 61.863 104.127 84.78 48.177 84.78" fill="#f8af23"/><rect x="48.177" y="96.535" width="55.95" height="9.552" rx="3.412" ry="3.412" fill="#f8af23"/><rect x="48.177" y="115.037" width="55.95" height="9.552" rx="3.412" ry="3.412" fill="#f8af23"/><rect x="48.177" y="133.54" width="55.95" height="9.552" rx="3.412" ry="3.412" fill="#f8af23"/><path d="M27.323,223.217h-18a1.5,1.5,0,1,0,0,3h18a1.5,1.5,0,1,0,0-3Z" fill="#3f3679"/><path d="M246.68,223.217h-18a1.5,1.5,0,0,0,0,3h18a1.5,1.5,0,1,0,0-3Z" fill="#3f3679"/><path d="M218.479,223.217H37.521a1.5,1.5,0,0,0,0,3H218.479a1.5,1.5,0,0,0,0-3Z" fill="#3f3679"/><path d="M9.32,215.244H246.68a1.5,1.5,0,0,0,0-3H205.923a6.455,6.455,0,0,0,1.032-3.5V183.889h17.011a15.182,15.182,0,0,0,15.165-15.165V44.948a15.182,15.182,0,0,0-15.165-15.165H32.035A15.182,15.182,0,0,0,16.87,44.948V168.724a15.182,15.182,0,0,0,15.165,15.165H99.17v19.158H89.809a1.5,1.5,0,0,0-1.5,1.5v7.7H9.32a1.5,1.5,0,1,0,0,3ZM123.371,88.578h80.583V193.911H123.371Zm80.583-3H123.371v-4a3.5,3.5,0,0,1,3.5-3.5h73.583a3.5,3.5,0,0,1,3.5,3.5Zm3,1.5v-5.5a6.508,6.508,0,0,0-6.5-6.5H126.871a6.508,6.508,0,0,0-6.5,6.5v78.9H32.035a3.76,3.76,0,0,1-3.756-3.755V44.947a3.76,3.76,0,0,1,3.756-3.756H223.965a3.76,3.76,0,0,1,3.756,3.756V156.724a3.76,3.76,0,0,1-3.756,3.755H206.955ZM166.191,212.244h-39.32a3.5,3.5,0,0,1-3.5-3.5V196.911h80.583v11.833a3.5,3.5,0,0,1-3.5,3.5ZM19.87,168.724V44.948A12.179,12.179,0,0,1,32.035,32.783H223.965A12.179,12.179,0,0,1,236.13,44.948V168.724a12.178,12.178,0,0,1-12.165,12.165H206.955V163.479h17.011a6.763,6.763,0,0,0,6.756-6.755V44.947a6.764,6.764,0,0,0-6.756-6.756H32.035a6.764,6.764,0,0,0-6.756,6.756V156.724a6.763,6.763,0,0,0,6.756,6.755h88.336v17.409H32.035A12.178,12.178,0,0,1,19.87,168.724Zm82.3,15.165h18.2v19.158h-18.2ZM91.309,206.047h29.063v2.7a6.455,6.455,0,0,0,1.032,3.5H91.309Z" fill="#3f3679"/><path d="M188.226,103.266H139.1a4.917,4.917,0,0,0-4.912,4.912v2.729a4.917,4.917,0,0,0,4.912,4.912h49.126a4.917,4.917,0,0,0,4.912-4.912v-2.729A4.917,4.917,0,0,0,188.226,103.266Zm1.912,7.641a1.914,1.914,0,0,1-1.912,1.912H139.1a1.914,1.914,0,0,1-1.912-1.912v-2.729a1.914,1.914,0,0,1,1.912-1.912h49.126a1.914,1.914,0,0,1,1.912,1.912Z" fill="#3f3679"/><path d="M188.226,121.768H139.1a4.917,4.917,0,0,0-4.912,4.912v2.729a4.917,4.917,0,0,0,4.912,4.912h49.126a4.917,4.917,0,0,0,4.912-4.912V126.68A4.917,4.917,0,0,0,188.226,121.768Zm1.912,7.641a1.914,1.914,0,0,1-1.912,1.912H139.1a1.914,1.914,0,0,1-1.912-1.912V126.68a1.914,1.914,0,0,1,1.912-1.912h49.126a1.914,1.914,0,0,1,1.912,1.912Z" fill="#3f3679"/><path d="M188.226,140.271H139.1a4.917,4.917,0,0,0-4.912,4.912v2.729a4.917,4.917,0,0,0,4.912,4.912h49.126a4.917,4.917,0,0,0,4.912-4.912v-2.729A4.917,4.917,0,0,0,188.226,140.271Zm1.912,7.641a1.914,1.914,0,0,1-1.912,1.912H139.1a1.914,1.914,0,0,1-1.912-1.912v-2.729a1.914,1.914,0,0,1,1.912-1.912h49.126a1.914,1.914,0,0,1,1.912,1.912Z" fill="#3f3679"/><path d="M191.638,158.3h-55.95a1.5,1.5,0,0,0-1.5,1.5v25.757a1.5,1.5,0,0,0,1.5,1.5h55.95a1.5,1.5,0,0,0,1.5-1.5V159.8A1.5,1.5,0,0,0,191.638,158.3Zm-4.2,25.757H139.886l23.777-19.479Zm-8-10.428,4.8-3.933,5.892,4.826v7.867Zm10.693-2.985L185.2,166.6a1.5,1.5,0,0,0-1.9,0l-6.218,5.094L164.614,161.48a1.471,1.471,0,0,0-.318-.179h25.842ZM163.031,161.3a1.471,1.471,0,0,0-.318.179l-25.524,20.91V161.3Z" fill="#3f3679"/><path d="M104.127,57.523H48.177a1.5,1.5,0,0,0-1.5,1.5V84.78a1.5,1.5,0,0,0,1.5,1.5h55.95a1.5,1.5,0,0,0,1.5-1.5V59.023A1.5,1.5,0,0,0,104.127,57.523Zm-1.5,24.09L77.1,60.7a1.467,1.467,0,0,0-.319-.18h25.843Zm-2.7,1.667H52.375L76.152,63.8ZM75.521,60.523a1.467,1.467,0,0,0-.319.18L49.677,81.612V60.523Z" fill="#3f3679"/><path d="M100.715,95.035H51.589a4.917,4.917,0,0,0-4.912,4.912v2.729a4.917,4.917,0,0,0,4.912,4.912h49.126a4.917,4.917,0,0,0,4.912-4.912V99.946A4.917,4.917,0,0,0,100.715,95.035Zm1.912,7.641a1.914,1.914,0,0,1-1.912,1.912H51.589a1.914,1.914,0,0,1-1.912-1.912V99.946a1.914,1.914,0,0,1,1.912-1.912h49.126a1.914,1.914,0,0,1,1.912,1.912Z" fill="#3f3679"/><path d="M100.715,113.537H51.589a4.917,4.917,0,0,0-4.912,4.912v2.729a4.917,4.917,0,0,0,4.912,4.912h49.126a4.917,4.917,0,0,0,4.912-4.912v-2.729A4.917,4.917,0,0,0,100.715,113.537Zm1.912,7.641a1.914,1.914,0,0,1-1.912,1.912H51.589a1.914,1.914,0,0,1-1.912-1.912v-2.729a1.914,1.914,0,0,1,1.912-1.912h49.126a1.914,1.914,0,0,1,1.912,1.912Z" fill="#3f3679"/><path d="M100.715,132.04H51.589a4.917,4.917,0,0,0-4.912,4.912v2.729a4.917,4.917,0,0,0,4.912,4.912h49.126a4.917,4.917,0,0,0,4.912-4.912v-2.729A4.917,4.917,0,0,0,100.715,132.04Zm1.912,7.641a1.914,1.914,0,0,1-1.912,1.912H51.589a1.914,1.914,0,0,1-1.912-1.912v-2.729a1.914,1.914,0,0,1,1.912-1.912h49.126a1.914,1.914,0,0,1,1.912,1.912Z" fill="#3f3679"/></svg>