<svg xmlns="http://www.w3.org/2000/svg" viewBox="0 0 256 256"><title>icons_</title><rect x="16.327" y="26.847" width="223.345" height="191.333" rx="15.327" ry="15.327" fill="#cecece"/><path d="M26.327,202.853V42.174A15.327,15.327,0,0,1,41.655,26.847h-10A15.327,15.327,0,0,0,16.327,42.174V202.853A15.327,15.327,0,0,0,31.655,218.18h10A15.327,15.327,0,0,1,26.327,202.853Z" fill="#afafaf"/><path d="M229.673,202.853V42.174a15.327,15.327,0,0,0-15.327-15.327h10a15.327,15.327,0,0,1,15.327,15.327V202.853a15.327,15.327,0,0,1-15.327,15.327h-10A15.327,15.327,0,0,0,229.673,202.853Z" fill="#e2e2e2"/><path d="M239.673,42.174a15.327,15.327,0,0,0-15.327-15.327H31.655A15.327,15.327,0,0,0,16.327,42.174V68.847H239.673Z" fill="#f8af23"/><path d="M41.655,26.847h-10A15.327,15.327,0,0,0,16.327,42.174V68.847h10V42.174A15.327,15.327,0,0,1,41.655,26.847Z" fill="#f87023"/><path d="M214.345,26.847h10a15.327,15.327,0,0,1,15.327,15.327V68.847h-10V42.174A15.327,15.327,0,0,0,214.345,26.847Z" fill="#f8d323"/><circle cx="43.688" cy="47.847" r="7" fill="#f46275"/><circle cx="70.65" cy="47.847" r="7" fill="#f46275"/><circle cx="97.612" cy="47.847" r="7" fill="#f46275"/><rect x="120.073" y="42.972" width="99.24" height="10.667" rx="5.333" ry="5.333" fill="#f46275"/><path d="M68.01,199.18a5,5,0,0,1-5-5V166.008A27.526,27.526,0,0,1,90.5,138.514H165.5a17.515,17.515,0,0,0,17.495-17.5V92.847a5,5,0,0,1,10,0v28.172a27.526,27.526,0,0,1-27.495,27.5H90.5A17.515,17.515,0,0,0,73.01,166.008V194.18A5,5,0,0,1,68.01,199.18Z" fill="#63bce7"/><path d="M128,199.18a5,5,0,0,1-5-5V92.847a5,5,0,0,1,10,0V194.18A5,5,0,0,1,128,199.18Z" fill="#63bce7"/><circle cx="187.99" cy="87.847" r="8.472" fill="#63bce7"/><circle cx="128" cy="87.847" r="8.472" fill="#63bce7"/><circle cx="68.01" cy="199.18" r="8.472" fill="#63bce7"/><circle cx="128" cy="199.18" r="8.472" fill="#63bce7"/><path d="M43.687,39.347a8.5,8.5,0,1,0,8.5,8.5A8.51,8.51,0,0,0,43.687,39.347Zm0,14a5.5,5.5,0,1,1,5.5-5.5A5.506,5.506,0,0,1,43.687,53.347Z" fill="#3f3679"/><path d="M70.65,39.347a8.5,8.5,0,1,0,8.5,8.5A8.51,8.51,0,0,0,70.65,39.347Zm0,14a5.5,5.5,0,1,1,5.5-5.5A5.506,5.506,0,0,1,70.65,53.347Z" fill="#3f3679"/><path d="M97.612,39.347a8.5,8.5,0,1,0,8.5,8.5A8.51,8.51,0,0,0,97.612,39.347Zm0,14a5.5,5.5,0,1,1,5.5-5.5A5.506,5.506,0,0,1,97.612,53.347Z" fill="#3f3679"/><path d="M213.979,41.472H125.406a6.833,6.833,0,1,0,0,13.667h88.573a6.833,6.833,0,0,0,0-13.667Zm0,10.667H125.406a3.833,3.833,0,1,1,0-7.667h88.573a3.833,3.833,0,0,1,0,7.667Z" fill="#3f3679"/><path d="M27.323,227.653h-18a1.5,1.5,0,1,0,0,3h18a1.5,1.5,0,1,0,0-3Z" fill="#3f3679"/><path d="M246.68,227.653h-18a1.5,1.5,0,0,0,0,3h18a1.5,1.5,0,0,0,0-3Z" fill="#3f3679"/><path d="M218.479,227.653H37.521a1.5,1.5,0,0,0,0,3H218.479a1.5,1.5,0,0,0,0-3Z" fill="#3f3679"/><path d="M248.18,218.18a1.5,1.5,0,0,0-1.5-1.5H233.91a16.814,16.814,0,0,0,7.262-13.827V42.174a16.846,16.846,0,0,0-16.827-16.827H31.655A16.846,16.846,0,0,0,14.828,42.174V202.853A16.814,16.814,0,0,0,22.09,216.68H9.32a1.5,1.5,0,1,0,0,3H246.68A1.5,1.5,0,0,0,248.18,218.18ZM17.828,42.174A13.843,13.843,0,0,1,31.655,28.347h192.69a13.843,13.843,0,0,1,13.827,13.827V67.347H17.828ZM31.655,216.68a13.843,13.843,0,0,1-13.827-13.827V70.347H238.172V202.853a13.843,13.843,0,0,1-13.827,13.827Z" fill="#3f3679"/><path d="M187.99,77.875a9.961,9.961,0,0,0-6.5,17.518v25.626a16.013,16.013,0,0,1-15.995,16h-31V95.393a9.972,9.972,0,1,0-13,0v41.621h-31A29.027,29.027,0,0,0,61.51,166.008v25.626a9.972,9.972,0,1,0,13,0V166.008A16.013,16.013,0,0,1,90.5,150.014h31v41.62a9.972,9.972,0,1,0,13,0v-41.62h31a29.028,29.028,0,0,0,28.995-29V95.393a9.961,9.961,0,0,0-6.5-17.518Zm-59.99,3a6.972,6.972,0,1,1-6.972,6.972A6.98,6.98,0,0,1,128,80.875ZM68.01,206.152a6.972,6.972,0,1,1,6.972-6.972A6.98,6.98,0,0,1,68.01,206.152ZM90.5,147.014A19.016,19.016,0,0,0,71.51,166.008v23.846a9.8,9.8,0,0,0-7,0V166.008A26.024,26.024,0,0,1,90.5,140.014h31v7ZM128,206.152a6.972,6.972,0,1,1,6.972-6.972A6.98,6.98,0,0,1,128,206.152Zm0-16.944a9.9,9.9,0,0,0-3.5.646V97.172a9.8,9.8,0,0,0,7,0v92.682A9.9,9.9,0,0,0,128,189.208Zm63.49-68.189a26.024,26.024,0,0,1-25.995,26h-31v-7h31a19.016,19.016,0,0,0,18.995-19V97.172a9.8,9.8,0,0,0,7,0Zm-3.5-26.2a6.972,6.972,0,1,1,6.972-6.972A6.98,6.98,0,0,1,187.99,94.819Z" fill="#3f3679"/></svg>