<svg xmlns="http://www.w3.org/2000/svg" viewBox="0 0 256 256"><title>icons_</title><polygon points="166.98 55.872 134.46 23.352 22.197 23.352 22.197 221.675 166.98 221.675 166.98 55.872" fill="#f8af23"/><polygon points="134.46 23.351 124.46 23.351 156.98 55.872 156.98 221.676 166.98 221.676 166.98 55.872 134.46 23.351" fill="#f8d323"/><rect x="22.197" y="23.351" width="10" height="198.324" fill="#f87023"/><circle cx="166.98" cy="154.852" r="66.823" fill="#63bce7"/><path d="M166.98,88.03c-1.684,0-3.347.083-5,.206a66.8,66.8,0,0,1,0,133.234c1.653.123,3.316.206,5,.206a66.823,66.823,0,1,0,0-133.646Z" fill="#63e2e7"/><circle cx="166.98" cy="154.852" r="44.062" fill="#cecece"/><path d="M166.98,110.791a44.483,44.483,0,0,0-5,.291,44.055,44.055,0,0,1,0,87.542,44.059,44.059,0,1,0,5-87.833Z" fill="#e2e2e2"/><circle cx="166.98" cy="154.852" r="8.928" fill="#f46275"/><path d="M121.419,154.853a45.562,45.562,0,1,0,45.562-45.562A45.613,45.613,0,0,0,121.419,154.853Zm88.085-1.5h-8.462a1.5,1.5,0,0,0,0,3H209.5a42.6,42.6,0,0,1-41.023,41.023v-8.462a1.5,1.5,0,0,0-3,0v8.462a42.6,42.6,0,0,1-41.023-41.023h8.462a1.5,1.5,0,0,0,0-3h-8.462a42.6,42.6,0,0,1,41.023-41.023v8.462a1.5,1.5,0,1,0,3,0v-8.462A42.6,42.6,0,0,1,209.5,153.353Z" fill="#3f3679"/><path d="M49.088,69.291h91a1.5,1.5,0,0,0,0-3h-91a1.5,1.5,0,0,0,0,3Z" fill="#3f3679"/><path d="M49.088,90.791h91a1.5,1.5,0,0,0,0-3h-91a1.5,1.5,0,0,0,0,3Z" fill="#3f3679"/><path d="M168.48,144.544V131.291a1.5,1.5,0,0,0-3,0v13.253a10.422,10.422,0,1,0,8.147,18.336l17.18,15.524a1.5,1.5,0,0,0,2.012-2.227L175.64,160.655a10.411,10.411,0,0,0-7.159-16.111Zm5.928,10.308a7.37,7.37,0,0,1-1.032,3.758l-4.9-4.424v-6.61A7.441,7.441,0,0,1,174.409,154.853Zm-7.428,7.428a7.429,7.429,0,0,1-1.5-14.7v7.276a1.5,1.5,0,0,0,.494,1.113l5.389,4.87A7.379,7.379,0,0,1,166.98,162.28Z" fill="#3f3679"/><path d="M27.323,231.148h-18a1.5,1.5,0,1,0,0,3h18a1.5,1.5,0,0,0,0-3Z" fill="#3f3679"/><path d="M246.68,231.148h-18a1.5,1.5,0,0,0,0,3h18a1.5,1.5,0,1,0,0-3Z" fill="#3f3679"/><path d="M218.479,231.148H37.521a1.5,1.5,0,0,0,0,3H218.479a1.5,1.5,0,0,0,0-3Z" fill="#3f3679"/><path d="M9.32,223.176H246.68a1.5,1.5,0,0,0,0-3H187A68.31,68.31,0,0,0,168.48,86.567v-30.7a1.5,1.5,0,0,0-.439-1.061L135.521,22.291a1.5,1.5,0,0,0-1.061-.439H22.2a1.5,1.5,0,0,0-1.5,1.5V220.176H9.32a1.5,1.5,0,1,0,0,3ZM232.3,154.853A65.323,65.323,0,1,1,166.98,89.529,65.4,65.4,0,0,1,232.3,154.853ZM135.96,26.973l27.4,27.4h-27.4ZM23.7,24.852H132.96V55.872a1.5,1.5,0,0,0,1.5,1.5H165.48v29.2a68.159,68.159,0,0,0-49.359,22.724H48.685a1.5,1.5,0,0,0,0,3h64.907a68.312,68.312,0,0,0-10.547,18.5H48.5a1.5,1.5,0,0,0,0,3h53.5a67.94,67.94,0,0,0-3.272,18.5H49.088a1.5,1.5,0,1,0,0,3h49.58a68.08,68.08,0,0,0,2.68,18.5H49.088a1.5,1.5,0,1,0,0,3h53.2a68.195,68.195,0,0,0,9.662,18.5H49.088a1.5,1.5,0,1,0,0,3h65.194a68.528,68.528,0,0,0,32.677,21.885H23.7Z" fill="#3f3679"/></svg>