<svg xmlns="http://www.w3.org/2000/svg" viewBox="0 0 256 256"><title>icons_</title><rect x="18.37" y="31.283" width="219.26" height="151.106" rx="13.665" ry="13.665" fill="#cecece"/><path d="M28.37,168.724V44.948A13.681,13.681,0,0,1,42.035,31.283h-10A13.681,13.681,0,0,0,18.37,44.948V168.724a13.681,13.681,0,0,0,13.665,13.665h10A13.681,13.681,0,0,1,28.37,168.724Z" fill="#afafaf"/><path d="M227.63,168.724V44.948a13.681,13.681,0,0,0-13.665-13.665h10A13.681,13.681,0,0,1,237.63,44.948V168.724a13.681,13.681,0,0,1-13.665,13.665h-10A13.681,13.681,0,0,0,227.63,168.724Z" fill="#e2e2e2"/><rect x="26.779" y="39.692" width="202.442" height="122.288" rx="5.256" ry="5.256" fill="#63bce7"/><path d="M36.779,156.724V44.947a5.271,5.271,0,0,1,5.256-5.256h-10a5.271,5.271,0,0,0-5.256,5.256V156.724a5.271,5.271,0,0,0,5.256,5.256h10A5.271,5.271,0,0,1,36.779,156.724Z" fill="#6377e7"/><path d="M219.221,156.724V44.947a5.271,5.271,0,0,0-5.256-5.256h10a5.271,5.271,0,0,1,5.256,5.256V156.724a5.271,5.271,0,0,1-5.256,5.256h-10A5.271,5.271,0,0,0,219.221,156.724Z" fill="#63e2e7"/><rect x="89.809" y="204.547" width="76.383" height="9.197" fill="#9e9e9e"/><rect x="89.809" y="204.547" width="10" height="9.197" fill="#707070"/><rect x="100.67" y="182.389" width="54.659" height="22.158" fill="#cecece"/><rect x="100.67" y="182.389" width="10" height="22.158" fill="#afafaf"/><circle cx="128" cy="172.184" r="4.5" fill="#9e9e9e"/><circle cx="48.25" cy="52.917" r="4.583" fill="#f8af23"/><circle cx="62.833" cy="52.917" r="4.583" fill="#f8af23"/><circle cx="77.417" cy="52.917" r="4.583" fill="#f8af23"/><rect x="44.184" y="65.155" width="167.632" height="43.333" fill="#f46275"/><rect x="44.254" y="117.25" width="42.71" height="21.5" fill="#f8af23"/><rect x="106.645" y="117.25" width="42.71" height="21.5" fill="#f8af23"/><rect x="169.106" y="117.25" width="42.71" height="21.5" fill="#f8af23"/><path d="M230.721,156.724V44.947a6.763,6.763,0,0,0-6.755-6.756H32.035a6.763,6.763,0,0,0-6.756,6.756V156.724a6.763,6.763,0,0,0,6.756,6.756H223.966A6.763,6.763,0,0,0,230.721,156.724Zm-202.442,0V44.947a3.76,3.76,0,0,1,3.756-3.756H223.966a3.76,3.76,0,0,1,3.755,3.756V156.724a3.76,3.76,0,0,1-3.755,3.756H32.035A3.76,3.76,0,0,1,28.279,156.724Z" fill="#3f3679"/><path d="M128,166.185a6,6,0,1,0,6,6A6.007,6.007,0,0,0,128,166.185Zm0,9a3,3,0,1,1,3-3A3,3,0,0,1,128,175.185Z" fill="#3f3679"/><path d="M27.323,223.217h-18a1.5,1.5,0,1,0,0,3h18a1.5,1.5,0,1,0,0-3Z" fill="#3f3679"/><path d="M246.68,223.217h-18a1.5,1.5,0,0,0,0,3h18a1.5,1.5,0,0,0,0-3Z" fill="#3f3679"/><path d="M218.479,223.217H37.521a1.5,1.5,0,0,0,0,3H218.479a1.5,1.5,0,0,0,0-3Z" fill="#3f3679"/><path d="M9.32,215.244H246.68a1.5,1.5,0,0,0,0-3H167.691v-7.7a1.5,1.5,0,0,0-1.5-1.5h-9.362V183.889h67.137a15.182,15.182,0,0,0,15.164-15.165V44.947a15.181,15.181,0,0,0-15.164-15.164H32.035A15.182,15.182,0,0,0,16.87,44.947V168.724a15.182,15.182,0,0,0,15.165,15.165H99.17v19.158H89.809a1.5,1.5,0,0,0-1.5,1.5v7.7H9.32a1.5,1.5,0,1,0,0,3Zm10.55-46.521V44.947A12.178,12.178,0,0,1,32.035,32.783H223.966A12.178,12.178,0,0,1,236.13,44.947V168.724a12.178,12.178,0,0,1-12.164,12.165H32.035A12.179,12.179,0,0,1,19.87,168.724Zm82.3,15.165h51.659v19.158H102.17ZM91.309,206.047h73.383v6.2H91.309Z" fill="#3f3679"/><path d="M48.25,59a6.083,6.083,0,1,0-6.083-6.083A6.09,6.09,0,0,0,48.25,59Zm0-9.167a3.083,3.083,0,1,1-3.083,3.084A3.087,3.087,0,0,1,48.25,49.833Z" fill="#3f3679"/><path d="M62.833,59a6.083,6.083,0,1,0-6.083-6.083A6.09,6.09,0,0,0,62.833,59Zm0-9.167a3.083,3.083,0,1,1-3.083,3.084A3.087,3.087,0,0,1,62.833,49.833Z" fill="#3f3679"/><path d="M77.417,59a6.083,6.083,0,1,0-6.083-6.083A6.09,6.09,0,0,0,77.417,59Zm0-9.167a3.083,3.083,0,1,1-3.083,3.084A3.087,3.087,0,0,1,77.417,49.833Z" fill="#3f3679"/><path d="M212.333,51.417H104.667a1.5,1.5,0,1,0,0,3H212.333a1.5,1.5,0,0,0,0-3Z" fill="#3f3679"/><path d="M211.816,63.655H44.184a1.5,1.5,0,0,0-1.5,1.5v43.333a1.5,1.5,0,0,0,1.5,1.5H211.816a1.5,1.5,0,0,0,1.5-1.5V65.155A1.5,1.5,0,0,0,211.816,63.655Zm-1.5,43.333H45.684V66.655H210.316Z" fill="#3f3679"/><path d="M86.963,115.75H44.253a1.5,1.5,0,0,0-1.5,1.5v21.5a1.5,1.5,0,0,0,1.5,1.5h42.71a1.5,1.5,0,0,0,1.5-1.5v-21.5A1.5,1.5,0,0,0,86.963,115.75Zm-1.5,21.5H45.753v-18.5h39.71Z" fill="#3f3679"/><path d="M149.354,115.75H106.645a1.5,1.5,0,0,0-1.5,1.5v21.5a1.5,1.5,0,0,0,1.5,1.5h42.709a1.5,1.5,0,0,0,1.5-1.5v-21.5A1.5,1.5,0,0,0,149.354,115.75Zm-1.5,21.5H108.145v-18.5h39.709Z" fill="#3f3679"/><path d="M211.816,115.75h-42.71a1.5,1.5,0,0,0-1.5,1.5v21.5a1.5,1.5,0,0,0,1.5,1.5h42.71a1.5,1.5,0,0,0,1.5-1.5v-21.5A1.5,1.5,0,0,0,211.816,115.75Zm-1.5,21.5h-39.71v-18.5h39.71Z" fill="#3f3679"/><path d="M86.963,145.5H44.253a1.5,1.5,0,1,0,0,3h42.71a1.5,1.5,0,1,0,0-3Z" fill="#3f3679"/><path d="M86.963,152.583H44.253a1.5,1.5,0,0,0,0,3h42.71a1.5,1.5,0,0,0,0-3Z" fill="#3f3679"/><path d="M149.354,145.5H106.645a1.5,1.5,0,1,0,0,3h42.709a1.5,1.5,0,0,0,0-3Z" fill="#3f3679"/><path d="M149.354,152.583H106.645a1.5,1.5,0,0,0,0,3h42.709a1.5,1.5,0,0,0,0-3Z" fill="#3f3679"/><path d="M211.816,145.5h-42.71a1.5,1.5,0,0,0,0,3h42.71a1.5,1.5,0,0,0,0-3Z" fill="#3f3679"/><path d="M211.816,152.583h-42.71a1.5,1.5,0,0,0,0,3h42.71a1.5,1.5,0,0,0,0-3Z" fill="#3f3679"/></svg>