<svg xmlns="http://www.w3.org/2000/svg" viewBox="0 0 256 256"><title>icons_</title><rect x="18.37" y="54.5" width="219.26" height="151.106" rx="13.665" ry="13.665" fill="#cecece"/><path d="M28.37,191.941V68.165A13.681,13.681,0,0,1,42.035,54.5h-10A13.681,13.681,0,0,0,18.37,68.165V191.941a13.681,13.681,0,0,0,13.665,13.665h10A13.681,13.681,0,0,1,28.37,191.941Z" fill="#afafaf"/><path d="M227.63,191.941V68.165A13.681,13.681,0,0,0,213.965,54.5h10A13.681,13.681,0,0,1,237.63,68.165V191.941a13.681,13.681,0,0,1-13.665,13.665h-10A13.681,13.681,0,0,0,227.63,191.941Z" fill="#e2e2e2"/><rect x="26.779" y="62.909" width="202.442" height="122.288" rx="5.256" ry="5.256" fill="#63bce7"/><path d="M36.779,179.941V68.165a5.271,5.271,0,0,1,5.256-5.256h-10a5.271,5.271,0,0,0-5.256,5.256V179.941a5.271,5.271,0,0,0,5.256,5.256h10A5.271,5.271,0,0,1,36.779,179.941Z" fill="#6377e7"/><path d="M219.221,179.941V68.165a5.271,5.271,0,0,0-5.256-5.256h10a5.271,5.271,0,0,1,5.256,5.256V179.941a5.271,5.271,0,0,1-5.256,5.256h-10A5.271,5.271,0,0,0,219.221,179.941Z" fill="#63e2e7"/><rect x="89.809" y="227.764" width="76.383" height="9.197" fill="#9e9e9e"/><rect x="89.809" y="227.764" width="10" height="9.197" fill="#707070"/><rect x="100.67" y="205.606" width="54.659" height="22.158" fill="#cecece"/><rect x="100.67" y="205.606" width="10" height="22.158" fill="#afafaf"/><circle cx="128" cy="195.401" r="4.5" fill="#9e9e9e"/><circle cx="48.25" cy="76.134" r="4.583" fill="#f8af23"/><circle cx="62.833" cy="76.134" r="4.583" fill="#f8af23"/><circle cx="77.417" cy="76.134" r="4.583" fill="#f8af23"/><rect x="44.184" y="88.372" width="167.632" height="43.333" fill="#f46275"/><rect x="44.254" y="140.467" width="42.71" height="21.5" fill="#f8af23"/><rect x="106.645" y="140.467" width="42.71" height="21.5" fill="#f8af23"/><rect x="169.106" y="140.467" width="42.71" height="21.5" fill="#f8af23"/><path d="M94.116,66.835c.355.991.757,1.944,1.2,2.888L86.434,78.6,103.89,96.057l8.878-8.878c.944.439,1.906.841,2.888,1.2v12.559h24.68V88.375c.981-.355,1.944-.757,2.888-1.2l8.878,8.878L169.557,78.6l-8.878-8.878c.439-.944.841-1.9,1.2-2.888h12.559V42.156H161.875c-.355-.981-.757-1.944-1.2-2.888l8.878-8.878L152.1,12.934l-8.878,8.887c-.944-.439-1.906-.85-2.888-1.206V8.066h-24.68v12.55c-.981.355-1.944.766-2.888,1.206l-8.878-8.887L86.434,30.39l8.878,8.878c-.439.944-.841,1.906-1.2,2.888H81.565v24.68Z" fill="#9e9e9e"/><circle cx="128" cy="54.497" r="15.716" fill="#f46275"/><path d="M128,201.4a6,6,0,1,0-6-6A6.007,6.007,0,0,0,128,201.4Zm0-9a3,3,0,1,1-3,3A3,3,0,0,1,128,192.4Z" fill="#3f3679"/><path d="M27.323,246.435h-18a1.5,1.5,0,0,0,0,3h18a1.5,1.5,0,1,0,0-3Z" fill="#3f3679"/><path d="M246.68,246.435h-18a1.5,1.5,0,0,0,0,3h18a1.5,1.5,0,0,0,0-3Z" fill="#3f3679"/><path d="M218.479,246.435H37.521a1.5,1.5,0,0,0,0,3H218.479a1.5,1.5,0,0,0,0-3Z" fill="#3f3679"/><path d="M9.32,238.462H246.68a1.5,1.5,0,0,0,0-3H167.691v-7.7a1.5,1.5,0,0,0-1.5-1.5h-9.362V207.106h67.137a15.182,15.182,0,0,0,15.164-15.165V68.165A15.182,15.182,0,0,0,223.966,53H175.935V42.155a1.5,1.5,0,0,0-1.5-1.5H162.91q-.209-.527-.439-1.059l8.146-8.146a1.5,1.5,0,0,0,0-2.121L153.161,11.874a1.544,1.544,0,0,0-2.122,0l-8.145,8.153q-.543-.237-1.06-.445V8.065a1.5,1.5,0,0,0-1.5-1.5h-24.68a1.5,1.5,0,0,0-1.5,1.5V19.583q-.517.207-1.06.444l-8.144-8.153a1.5,1.5,0,0,0-2.122,0L85.374,29.33a1.5,1.5,0,0,0,0,2.121L93.52,39.6q-.23.532-.438,1.058H81.565a1.5,1.5,0,0,0-1.5,1.5V53H32.034A15.182,15.182,0,0,0,16.87,68.165V191.941a15.182,15.182,0,0,0,15.164,15.165H99.171v19.157H89.809a1.5,1.5,0,0,0-1.5,1.5v7.7H9.32a1.5,1.5,0,0,0,0,3ZM81.565,68.335H93.079q.207.521.439,1.059L85.374,77.54a1.5,1.5,0,0,0,0,2.121l7.211,7.211h-48.4a1.5,1.5,0,0,0-1.5,1.5v43.333a1.5,1.5,0,0,0,1.5,1.5H211.816a1.5,1.5,0,0,0,1.5-1.5V88.372a1.5,1.5,0,0,0-1.5-1.5h-48.41l7.211-7.211a1.488,1.488,0,0,0,.062-2.027h41.654a1.5,1.5,0,0,0,0-3H167.711l-5.239-5.239q.233-.538.44-1.06h11.522a1.5,1.5,0,0,0,1.5-1.5V64.409h48.031a3.76,3.76,0,0,1,3.755,3.756V179.941a3.76,3.76,0,0,1-3.755,3.756H32.034a3.76,3.76,0,0,1-3.755-3.756V68.165a3.76,3.76,0,0,1,3.755-3.756H80.065v2.426A1.5,1.5,0,0,0,81.565,68.335Zm34.09,34.1h24.68a1.5,1.5,0,0,0,1.5-1.5V89.41q.529-.209,1.059-.439l8.146,8.146a1.5,1.5,0,0,0,2.121,0l7.245-7.245h49.91v40.333H45.684V89.872h49.9l7.245,7.245a1.544,1.544,0,0,0,2.121,0l8.146-8.146q.53.23,1.059.439v11.524A1.5,1.5,0,0,0,115.655,102.435ZM83.065,43.655h11.05a1.5,1.5,0,0,0,1.41-.989c.325-.9.711-1.829,1.146-2.767a1.5,1.5,0,0,0-.3-1.692l-7.816-7.816L103.89,15.057l7.816,7.825a1.51,1.51,0,0,0,1.694.3c1-.468,1.909-.846,2.766-1.156a1.5,1.5,0,0,0,.989-1.41V9.565h21.68v11.05a1.5,1.5,0,0,0,.989,1.41c.861.313,1.766.69,2.765,1.155a1.5,1.5,0,0,0,1.7-.3l7.817-7.825,15.334,15.334-7.817,7.816a1.5,1.5,0,0,0-.3,1.693c.432.928.817,1.858,1.146,2.766a1.5,1.5,0,0,0,1.41.989h11.06v21.68h-11.06a1.5,1.5,0,0,0-1.412.993c-.319.892-.693,1.795-1.144,2.761a1.5,1.5,0,0,0,.3,1.694l7.817,7.817L152.1,93.936l-7.817-7.817a1.494,1.494,0,0,0-1.694-.3c-.923.43-1.853.815-2.765,1.146a1.5,1.5,0,0,0-.989,1.41v11.06h-21.68V88.375a1.5,1.5,0,0,0-.989-1.41c-.907-.329-1.838-.715-2.766-1.146a1.5,1.5,0,0,0-1.693.3l-7.816,7.817L88.556,78.6l7.816-7.817a1.5,1.5,0,0,0,.3-1.692c-.454-.978-.828-1.881-1.145-2.763a1.5,1.5,0,0,0-1.412-.993H83.065ZM19.87,191.941V68.165A12.178,12.178,0,0,1,32.034,56H80.065v5.409H32.034a6.763,6.763,0,0,0-6.755,6.756V179.941a6.763,6.763,0,0,0,6.755,6.756H223.966a6.763,6.763,0,0,0,6.755-6.756V68.165a6.763,6.763,0,0,0-6.755-6.756H175.935V56h48.031A12.178,12.178,0,0,1,236.13,68.165V191.941a12.178,12.178,0,0,1-12.164,12.165H32.034A12.178,12.178,0,0,1,19.87,191.941Zm82.3,15.165h51.658v19.157H102.171ZM91.309,229.264h73.383v6.2H91.309Z" fill="#3f3679"/><path d="M48.25,70.051a6.083,6.083,0,1,0,6.083,6.083A6.089,6.089,0,0,0,48.25,70.051Zm0,9.166a3.083,3.083,0,1,1,3.083-3.083A3.086,3.086,0,0,1,48.25,79.217Z" fill="#3f3679"/><path d="M62.833,70.051a6.083,6.083,0,1,0,6.084,6.083A6.089,6.089,0,0,0,62.833,70.051Zm0,9.166a3.083,3.083,0,1,1,3.084-3.083A3.086,3.086,0,0,1,62.833,79.217Z" fill="#3f3679"/><path d="M71.333,76.134a6.083,6.083,0,1,0,6.084-6.083A6.09,6.09,0,0,0,71.333,76.134Zm9.167,0a3.083,3.083,0,1,1-3.083-3.083A3.086,3.086,0,0,1,80.5,76.134Z" fill="#3f3679"/><path d="M44.254,163.467h42.71a1.5,1.5,0,0,0,1.5-1.5v-21.5a1.5,1.5,0,0,0-1.5-1.5H44.254a1.5,1.5,0,0,0-1.5,1.5v21.5A1.5,1.5,0,0,0,44.254,163.467Zm1.5-21.5h39.71v18.5H45.754Z" fill="#3f3679"/><path d="M106.646,163.467h42.709a1.5,1.5,0,0,0,1.5-1.5v-21.5a1.5,1.5,0,0,0-1.5-1.5H106.646a1.5,1.5,0,0,0-1.5,1.5v21.5A1.5,1.5,0,0,0,106.646,163.467Zm1.5-21.5h39.709v18.5H108.146Z" fill="#3f3679"/><path d="M169.106,163.467h42.71a1.5,1.5,0,0,0,1.5-1.5v-21.5a1.5,1.5,0,0,0-1.5-1.5h-42.71a1.5,1.5,0,0,0-1.5,1.5v21.5A1.5,1.5,0,0,0,169.106,163.467Zm1.5-21.5h39.71v18.5h-39.71Z" fill="#3f3679"/><path d="M44.254,171.717h42.71a1.5,1.5,0,0,0,0-3H44.254a1.5,1.5,0,0,0,0,3Z" fill="#3f3679"/><path d="M44.254,178.8h42.71a1.5,1.5,0,0,0,0-3H44.254a1.5,1.5,0,0,0,0,3Z" fill="#3f3679"/><path d="M106.646,171.717h42.709a1.5,1.5,0,0,0,0-3H106.646a1.5,1.5,0,1,0,0,3Z" fill="#3f3679"/><path d="M106.646,178.8h42.709a1.5,1.5,0,0,0,0-3H106.646a1.5,1.5,0,1,0,0,3Z" fill="#3f3679"/><path d="M169.106,171.717h42.71a1.5,1.5,0,0,0,0-3h-42.71a1.5,1.5,0,0,0,0,3Z" fill="#3f3679"/><path d="M169.106,178.8h42.71a1.5,1.5,0,0,0,0-3h-42.71a1.5,1.5,0,0,0,0,3Z" fill="#3f3679"/><path d="M128,71.713A17.216,17.216,0,1,0,110.784,54.5,17.235,17.235,0,0,0,128,71.713Zm0-31.433A14.216,14.216,0,1,1,113.784,54.5,14.232,14.232,0,0,1,128,40.28Z" fill="#3f3679"/></svg>