<svg xmlns="http://www.w3.org/2000/svg" viewBox="0 0 256 256"><title>icons_</title><path d="M113.654,130.669h28.692A42.654,42.654,0,0,1,185,173.323v52.154a0,0,0,0,1,0,0H71a0,0,0,0,1,0,0V173.323A42.654,42.654,0,0,1,113.654,130.669Z" fill="#cecece"/><path d="M123.654,130.669h-10A42.654,42.654,0,0,0,71,173.323v52.154H81V173.323A42.654,42.654,0,0,1,123.654,130.669Z" fill="#afafaf"/><path d="M132.346,130.669h10A42.654,42.654,0,0,1,185,173.323v52.154H175V173.323A42.654,42.654,0,0,0,132.346,130.669Z" fill="#e2e2e2"/><rect x="117.5" y="106.002" width="21" height="33" rx="10.5" ry="10.5" fill="#f8af23"/><path d="M117.5,116.5v12a10.5,10.5,0,0,0,6.4,9.667V106.835A10.5,10.5,0,0,0,117.5,116.5Z" fill="#f87023"/><circle cx="101" cy="85.634" r="5.75" fill="#f87023"/><circle cx="155" cy="85.634" r="5.75" fill="#f8af23"/><rect x="101" y="52.97" width="54" height="70.497" rx="27" ry="27" fill="#f8af23"/><path d="M111,96.467V79.97a27,27,0,0,1,22-26.531A26.988,26.988,0,0,0,101,79.97v16.5A26.987,26.987,0,0,0,133,123,27,27,0,0,1,111,96.467Z" fill="#f87023"/><polygon points="148.97 73.234 151.75 84.895 155 84.895 155 69.961 148.97 69.961 148.97 73.234" fill="#cecece"/><path d="M101,84.9h3.153l9.163-9.853s36.474,5.135,48.634-9.6a14.76,14.76,0,0,0,3.039-14.191c-3-10.4-14.161-16.152-24.573-13.205l-35.7,10.1a8.183,8.183,0,0,0-5.689,5.808h0a7.056,7.056,0,0,0-3.555,7.877Z" fill="#cecece"/><path d="M109.029,53.956a8.183,8.183,0,0,1,5.689-5.808l35.7-10.1c.178-.05.357-.078.535-.123a20.3,20.3,0,0,0-10.535.123l-35.7,10.1a8.183,8.183,0,0,0-5.689,5.808,7.056,7.056,0,0,0-3.555,7.877L101,84.9h3.153l5.444-5.854-4.123-17.208A7.056,7.056,0,0,1,109.029,53.956Z" fill="#afafaf"/><circle cx="116.5" cy="90.033" r="3.344" fill="#3f3679"/><circle cx="139.5" cy="90.033" r="3.344" fill="#3f3679"/><path d="M55.993,133.69h29.54a0,0,0,0,1,0,0v77.018a14.77,14.77,0,0,1-14.77,14.77h0a14.77,14.77,0,0,1-14.77-14.77V133.69a0,0,0,0,1,0,0Z" fill="#cecece"/><path d="M65.993,210.707V133.69h-10v77.018a14.77,14.77,0,0,0,14.77,14.77h0a14.708,14.708,0,0,0,5-.887A14.762,14.762,0,0,1,65.993,210.707Z" fill="#afafaf"/><path d="M82.242,133.69v-5.417A11.083,11.083,0,0,0,71.159,117.19H53.409L42.7,115.163a4.615,4.615,0,0,0-5.225,6.027h0a18.472,18.472,0,0,0,17.48,12.5Z" fill="#f8af23"/><path d="M47.471,121.19h0a4.583,4.583,0,0,1,1.246-4.888L42.7,115.163a4.615,4.615,0,0,0-5.225,6.027h0a18.472,18.472,0,0,0,17.48,12.5h10A18.472,18.472,0,0,1,47.471,121.19Z" fill="#f87023"/><path d="M185.237,133.69h0a14.77,14.77,0,0,1,14.77,14.77v77.018a0,0,0,0,1,0,0h-29.54a0,0,0,0,1,0,0V148.46A14.77,14.77,0,0,1,185.237,133.69Z" transform="translate(370.474 359.167) rotate(180)" fill="#cecece"/><path d="M190.007,210.707V133.69h10v77.018a14.77,14.77,0,0,1-14.77,14.77h0a14.708,14.708,0,0,1-5-.887A14.762,14.762,0,0,0,190.007,210.707Z" fill="#afafaf"/><path d="M173.758,133.69v-5.417a11.083,11.083,0,0,1,11.083-11.083h17.75l10.712-2.027a4.615,4.615,0,0,1,5.225,6.027h0a18.472,18.472,0,0,1-17.48,12.5Z" fill="#f8af23"/><path d="M213.3,115.163l-6.021,1.139a4.583,4.583,0,0,1,1.246,4.888h0a18.472,18.472,0,0,1-17.48,12.5h10a18.472,18.472,0,0,0,17.48-12.5h0A4.615,4.615,0,0,0,213.3,115.163Z" fill="#f8d323"/><path d="M82.844,74.546a39.271,39.271,0,1,0-15.883,18h9.5a6.387,6.387,0,0,0,6.387-6.387Z" fill="#63bce7"/><path d="M17.667,60.851A39.261,39.261,0,0,1,51.876,19.875c-1.022-.131-2.053-.231-3.1-.281a39.262,39.262,0,0,0-4.711,78.377,39.816,39.816,0,0,0,7.815-.222A39.413,39.413,0,0,1,17.667,60.851Z" fill="#6377e7"/><path d="M173.156,74.546a39.271,39.271,0,1,1,15.883,18h-9.5a6.387,6.387,0,0,1-6.387-6.387Z" fill="#f46275"/><path d="M207.221,19.595c-1.044.049-2.075.15-3.1.281a39.256,39.256,0,0,1-.008,77.875,39.816,39.816,0,0,0,7.815.222,39.262,39.262,0,0,0-4.711-78.377Z" fill="#f48875"/><path d="M57.954,38.14q4.011,3.472,4.013,9.97,0,6.05-3.919,9.491a14.8,14.8,0,0,1-8.357,3.431,2.427,2.427,0,0,0-2.122,2.43v.923a2.452,2.452,0,0,1-2.452,2.452H39.767a2.452,2.452,0,0,1-2.452-2.452V56.613a2.452,2.452,0,0,1,2.452-2.452h1.815a15.915,15.915,0,0,0,7.136-1.307,4.8,4.8,0,0,0,2.547-4.682,4.566,4.566,0,0,0-1.21-3.375,4.391,4.391,0,0,0-3.25-1.212,4.732,4.732,0,0,0-3.6,1.372,4.54,4.54,0,0,0-1.067,1.8,2.49,2.49,0,0,1-2.406,1.666H34.245a2.43,2.43,0,0,1-2.433-2.762,12.777,12.777,0,0,1,1.459-4.212,12.2,12.2,0,0,1,5.318-4.969,18.781,18.781,0,0,1,8.6-1.816Q53.939,34.667,57.954,38.14Zm-9.81,36.372V80.5a2.452,2.452,0,0,1-2.452,2.452H39.258A2.452,2.452,0,0,1,36.805,80.5V74.512a2.452,2.452,0,0,1,2.452-2.452h6.434A2.452,2.452,0,0,1,48.144,74.512Z" fill="#f8af23"/><path d="M220.2,38.14q4.011,3.472,4.013,9.97,0,6.05-3.919,9.491a14.8,14.8,0,0,1-8.357,3.431,2.427,2.427,0,0,0-2.122,2.43v.923a2.452,2.452,0,0,1-2.452,2.452h-5.352a2.452,2.452,0,0,1-2.452-2.452V56.613a2.452,2.452,0,0,1,2.452-2.452h1.815a15.915,15.915,0,0,0,7.136-1.307,4.8,4.8,0,0,0,2.547-4.682A4.566,4.566,0,0,0,212.3,44.8a4.391,4.391,0,0,0-3.25-1.212,4.732,4.732,0,0,0-3.6,1.372,4.54,4.54,0,0,0-1.067,1.8,2.49,2.49,0,0,1-2.406,1.666H196.5a2.43,2.43,0,0,1-2.433-2.762,12.777,12.777,0,0,1,1.459-4.212,12.2,12.2,0,0,1,5.318-4.969,18.781,18.781,0,0,1,8.6-1.816Q216.189,34.667,220.2,38.14Zm-9.81,36.372V80.5a2.452,2.452,0,0,1-2.452,2.452h-6.434a2.452,2.452,0,0,1-2.452-2.452V74.512a2.452,2.452,0,0,1,2.452-2.452h6.434A2.452,2.452,0,0,1,210.394,74.512Z" fill="#f8af23"/><path d="M27.323,234.95h-18a1.5,1.5,0,0,0,0,3h18a1.5,1.5,0,1,0,0-3Z" fill="#3f3679"/><path d="M246.68,234.95h-18a1.5,1.5,0,0,0,0,3h18a1.5,1.5,0,0,0,0-3Z" fill="#3f3679"/><path d="M218.479,234.95H37.521a1.5,1.5,0,0,0,0,3H218.479a1.5,1.5,0,0,0,0-3Z" fill="#3f3679"/><path d="M246.68,223.978H194.618a16.251,16.251,0,0,0,6.889-13.271V135.171a19.965,19.965,0,0,0,18.442-13.5,6.116,6.116,0,0,0-6.924-7.985l-10.574,2H184.842a12.6,12.6,0,0,0-12.584,12.584v3.916h-1.791a1.5,1.5,0,0,0-1.5,1.5v4.417a44.168,44.168,0,0,0-26.621-8.937h-2.38c.012-.222.034-.442.034-.667v-6.194a28.533,28.533,0,0,0,16.5-25.842V92.726a7.249,7.249,0,0,0,0-14.184v-6.8a22.8,22.8,0,0,0,6.607-5.348,16.2,16.2,0,0,0,3.323-15.562c-3.193-11.067-15.05-17.45-26.423-14.232l-35.7,10.1a9.723,9.723,0,0,0-6.549,6.254,8.558,8.558,0,0,0-3.746,9.224l4.036,16.846a7.237,7.237,0,0,0,1.449,13.7v3.742A28.533,28.533,0,0,0,116,122.308V128.5c0,.225.021.445.034.667h-2.38a44.151,44.151,0,0,0-26.621,8.939v-4.418a1.5,1.5,0,0,0-1.5-1.5H83.742v-3.916a12.6,12.6,0,0,0-12.584-12.584H53.549l-10.574-2a6.115,6.115,0,0,0-6.923,7.985,19.963,19.963,0,0,0,18.441,13.5v75.536a16.251,16.251,0,0,0,6.889,13.271H9.32a1.5,1.5,0,0,0,0,3H246.68a1.5,1.5,0,0,0,0-3Zm-71.422-95.7a9.6,9.6,0,0,1,9.584-9.584h17.75a1.477,1.477,0,0,0,.278-.026l10.712-2.026a3.116,3.116,0,0,1,3.528,4.067,16.972,16.972,0,0,1-16.062,11.485H175.258Zm-3.291,6.916h26.54v75.518a13.27,13.27,0,1,1-26.54,0Zm-29.621-3.021a41.155,41.155,0,0,1,26.621,9.772v68.766a16.25,16.25,0,0,0,6.889,13.271H129.472a1.494,1.494,0,0,0,.028-.278V140.4a12.023,12.023,0,0,0,9.922-8.229Zm16.9-46.535A4.246,4.246,0,0,1,156.5,89.6V81.671A4.246,4.246,0,0,1,159.25,85.634ZM153.5,79.97V83.4h-.565l-2.182-9.151c.952-.323,1.875-.663,2.748-1.035ZM105.126,49.592l35.7-10.1c9.795-2.77,19.986,2.692,22.724,12.178a13.352,13.352,0,0,1-2.755,12.82c-10.631,12.887-41.777,9.73-46.616,9.152L100.683,53.723A6.7,6.7,0,0,1,105.126,49.592Zm-6.483,6.471L111.4,74.9l-7.9,8.5h-1.317L96.933,61.483A5.544,5.544,0,0,1,98.643,56.063ZM96.75,85.634a4.218,4.218,0,0,1,2.019-3.606l.731,3.051V89.6A4.249,4.249,0,0,1,96.75,85.634Zm5.75,10.833V86.4h1.652a1.5,1.5,0,0,0,1.1-.479l8.638-9.289a118.1,118.1,0,0,0,19.263.638,71.949,71.949,0,0,0,14.726-2.147l2.414,10.125A1.5,1.5,0,0,0,151.75,86.4h1.75V96.467a25.5,25.5,0,1,1-51,0Zm25.5,28.5a28.369,28.369,0,0,0,9-1.465v5a9,9,0,1,1-18,0v-5A28.369,28.369,0,0,0,128,124.967Zm-14.346,7.2h2.924A12.023,12.023,0,0,0,126.5,140.4v83.3a1.5,1.5,0,0,0,.028.278H80.144a16.25,16.25,0,0,0,6.889-13.271V141.944A41.15,41.15,0,0,1,113.654,132.169ZM38.891,120.7a3.117,3.117,0,0,1,2.935-4.123,3.218,3.218,0,0,1,.592.056l10.713,2.026a1.477,1.477,0,0,0,.278.026h17.75a9.6,9.6,0,0,1,9.584,9.584v3.916H54.951A16.97,16.97,0,0,1,38.891,120.7Zm18.6,90V135.189h26.54v75.518a13.27,13.27,0,1,1-26.54,0Z" fill="#3f3679"/><path d="M122.475,81.656a1.5,1.5,0,0,0-1.883-.979L111.5,83.549a1.5,1.5,0,0,0,.452,2.931,1.519,1.519,0,0,0,.452-.069l9.088-2.871A1.5,1.5,0,0,0,122.475,81.656Z" fill="#3f3679"/><path d="M134.5,83.539l9.088,2.871a1.519,1.519,0,0,0,.452.069,1.5,1.5,0,0,0,.452-2.931l-9.088-2.871a1.5,1.5,0,0,0-.9,2.861Z" fill="#3f3679"/><path d="M128,104.336a1.5,1.5,0,0,0,1.5-1.5V93.3a1.5,1.5,0,0,0-3,0v9.531A1.5,1.5,0,0,0,128,104.336Z" fill="#3f3679"/><path d="M133.079,111.336a1.5,1.5,0,0,0-1.951-2.277,4.926,4.926,0,0,1-6.256,0,1.5,1.5,0,0,0-1.951,2.277,7.8,7.8,0,0,0,10.158,0Z" fill="#3f3679"/><path d="M43.964,99.468q1.46.1,2.911.1a40.53,40.53,0,0,0,20.5-5.527h9.087a7.9,7.9,0,0,0,7.887-7.887v-11.3A40.424,40.424,0,0,0,87.564,56.4,40.76,40.76,0,0,0,18,30.036,40.761,40.761,0,0,0,43.964,99.468ZM20.13,32.154a37.885,37.885,0,0,1,26.8-11.1q.889,0,1.783.042A38.094,38.094,0,0,1,84.57,56.574a37.463,37.463,0,0,1-3.1,17.369,1.508,1.508,0,0,0-.126.6V86.155a4.893,4.893,0,0,1-4.887,4.887h-9.5a1.5,1.5,0,0,0-.769.212,37.76,37.76,0,0,1-46.062-59.1Z" fill="#3f3679"/><path d="M238,30.036A40.76,40.76,0,0,0,168.436,56.4a40.424,40.424,0,0,0,3.221,18.457v11.3a7.9,7.9,0,0,0,7.887,7.887h9.087a40.521,40.521,0,0,0,20.5,5.527q1.45,0,2.911-.1A40.761,40.761,0,0,0,238,30.036Zm8.84,30.738a37.757,37.757,0,0,1-57.027,30.479,1.5,1.5,0,0,0-.769-.212h-9.5a4.893,4.893,0,0,1-4.887-4.887V74.546a1.508,1.508,0,0,0-.126-.6,37.463,37.463,0,0,1-3.1-17.369,38.094,38.094,0,0,1,35.861-35.481q.894-.042,1.783-.042a37.76,37.76,0,0,1,37.761,39.724Z" fill="#3f3679"/><path d="M45.692,70.56H39.258a3.956,3.956,0,0,0-3.952,3.952V80.5a3.956,3.956,0,0,0,3.952,3.952h6.435A3.956,3.956,0,0,0,49.645,80.5V74.512A3.956,3.956,0,0,0,45.692,70.56Zm.952,9.94a.953.953,0,0,1-.952.952H39.258a.953.953,0,0,1-.952-.952V74.512a.953.953,0,0,1,.952-.952h6.435a.953.953,0,0,1,.952.952Z" fill="#3f3679"/><path d="M34.245,49.926h5.489a4,4,0,0,0,3.838-2.717,3.032,3.032,0,0,1,.723-1.219,3.272,3.272,0,0,1,2.51-.905,2.935,2.935,0,0,1,2.189.772,3.116,3.116,0,0,1,.771,2.314c0,2.2-.988,2.966-1.729,3.346a14.585,14.585,0,0,1-6.453,1.143H39.767a3.957,3.957,0,0,0-3.952,3.953v7.771a3.957,3.957,0,0,0,3.952,3.953h5.352a3.957,3.957,0,0,0,3.952-3.953v-.923a.929.929,0,0,1,.788-.938,16.321,16.321,0,0,0,9.181-3.8c2.938-2.581,4.429-6.153,4.429-10.617,0-4.765-1.524-8.5-4.532-11.1h0c-2.944-2.547-6.9-3.838-11.746-3.838a20.326,20.326,0,0,0-9.28,1.979,13.733,13.733,0,0,0-5.949,5.576,14.331,14.331,0,0,0-1.63,4.7,3.836,3.836,0,0,0,.878,3.1A3.986,3.986,0,0,0,34.245,49.926ZM33.292,45.9a11.354,11.354,0,0,1,1.29-3.722,10.639,10.639,0,0,1,4.688-4.36,17.392,17.392,0,0,1,7.92-1.653c4.108,0,7.4,1.045,9.783,3.107,2.352,2.035,3.5,4.926,3.5,8.835,0,3.613-1.115,6.349-3.409,8.363a13.378,13.378,0,0,1-7.532,3.067,3.915,3.915,0,0,0-3.456,3.921v.923a.954.954,0,0,1-.952.953H39.767a.954.954,0,0,1-.952-.953V56.613a.954.954,0,0,1,.952-.953h1.815A17.175,17.175,0,0,0,49.4,54.188c1.533-.787,3.361-2.47,3.361-6.016a6.019,6.019,0,0,0-1.648-4.435A5.851,5.851,0,0,0,46.8,42.085a6.188,6.188,0,0,0-4.682,1.835,6.056,6.056,0,0,0-1.414,2.394,1,1,0,0,1-.975.612H34.245a.987.987,0,0,1-.753-.349A.835.835,0,0,1,33.292,45.9Z" fill="#3f3679"/><path d="M221.186,37.006h0c-2.944-2.547-6.9-3.838-11.746-3.838a20.326,20.326,0,0,0-9.28,1.979,13.733,13.733,0,0,0-5.949,5.576,14.331,14.331,0,0,0-1.63,4.7,3.836,3.836,0,0,0,.878,3.1,3.986,3.986,0,0,0,3.037,1.4h5.489a4,4,0,0,0,3.838-2.717,3.032,3.032,0,0,1,.723-1.219,3.272,3.272,0,0,1,2.51-.905,2.935,2.935,0,0,1,2.189.772,3.116,3.116,0,0,1,.771,2.314c0,2.2-.988,2.966-1.729,3.346a14.585,14.585,0,0,1-6.453,1.143h-1.815a3.957,3.957,0,0,0-3.952,3.953v7.771a3.957,3.957,0,0,0,3.952,3.953h5.352a3.957,3.957,0,0,0,3.952-3.953v-.923a.929.929,0,0,1,.788-.938,16.321,16.321,0,0,0,9.181-3.8c2.938-2.581,4.429-6.153,4.429-10.617C225.718,43.345,224.193,39.608,221.186,37.006Zm-1.877,19.467a13.378,13.378,0,0,1-7.532,3.067,3.915,3.915,0,0,0-3.456,3.921v.923a.954.954,0,0,1-.952.953h-5.352a.954.954,0,0,1-.952-.953V56.613a.954.954,0,0,1,.952-.953h1.815a17.175,17.175,0,0,0,7.821-1.473c1.533-.787,3.361-2.47,3.361-6.016a6.019,6.019,0,0,0-1.648-4.435,5.851,5.851,0,0,0-4.312-1.652,6.188,6.188,0,0,0-4.682,1.835,6.056,6.056,0,0,0-1.414,2.394,1,1,0,0,1-.975.612H196.5a.987.987,0,0,1-.753-.349.835.835,0,0,1-.2-.675,11.354,11.354,0,0,1,1.29-3.722,10.639,10.639,0,0,1,4.688-4.36,17.392,17.392,0,0,1,7.92-1.653c4.108,0,7.4,1.045,9.783,3.107,2.352,2.035,3.5,4.926,3.5,8.835C222.718,51.723,221.6,54.458,219.309,56.473Z" fill="#3f3679"/><path d="M207.942,70.56h-6.435a3.956,3.956,0,0,0-3.952,3.952V80.5a3.956,3.956,0,0,0,3.952,3.952h6.435a3.956,3.956,0,0,0,3.952-3.952V74.512A3.956,3.956,0,0,0,207.942,70.56Zm.952,9.94a.953.953,0,0,1-.952.952h-6.435a.953.953,0,0,1-.952-.952V74.512a.953.953,0,0,1,.952-.952h6.435a.953.953,0,0,1,.952.952Z" fill="#3f3679"/></svg>