<?xml version="1.0" encoding="utf-8"?>
<!-- Generator: Adobe Illustrator 16.0.0, SVG Export Plug-In . SVG Version: 6.00 Build 0)  -->
<!DOCTYPE svg PUBLIC "-//W3C//DTD SVG 1.1//EN" "http://www.w3.org/Graphics/SVG/1.1/DTD/svg11.dtd">
<svg version="1.1" id="Layer_1" xmlns="http://www.w3.org/2000/svg" xmlns:xlink="http://www.w3.org/1999/xlink" x="0px" y="0px"
	 width="85.187px" height="96.077px" viewBox="57.945 37.761 85.187 96.077" enable-background="new 57.945 37.761 85.187 96.077"
	 xml:space="preserve">
<g>
	<g>
		<path fill="none" stroke="#12054E" stroke-width="2" stroke-miterlimit="10" d="M130.248,68.653
			c-0.535-0.932-0.855-2.017-0.855-3.192c0-1.161,0.32-2.245,0.855-3.177l-24.195-13.977c-1.084,1.909-3.146,3.192-5.498,3.192
			h-0.017c-2.367,0-4.414-1.283-5.499-3.192l-24.21,13.977c0.535,0.932,0.855,2.016,0.855,3.177c0,3.486-2.809,6.369-6.369,6.369
			v27.953c2.352,0,4.414,1.268,5.514,3.178c0.535,0.932,0.855,2.016,0.855,3.178c0,1.16-0.321,2.244-0.855,3.191l24.211,13.977
			c1.084-1.908,3.131-3.191,5.499-3.191h0.016c2.353,0,4.399,1.283,5.5,3.177l24.194-13.961c-0.535-0.947-0.854-2.031-0.854-3.192
			c0-1.16,0.319-2.244,0.854-3.177c1.101-1.91,3.162-3.178,5.515-3.178V71.83C133.41,71.83,131.348,70.563,130.248,68.653z
			 M100.539,106.9c-7.805,0-14.633-4.246-18.284-10.54c-1.802-3.101-2.826-6.705-2.826-10.555c0-3.849,1.023-7.454,2.826-10.555
			c3.65-6.309,10.479-10.555,18.284-10.555c7.805,0,14.633,4.246,18.284,10.555c1.803,3.101,2.825,6.706,2.825,10.555
			c0,3.85-1.022,7.454-2.825,10.555C115.172,102.654,108.344,106.9,100.539,106.9z"/>
		<g>
			
				<line fill="none" stroke="#12054E" stroke-width="2" stroke-miterlimit="10" x1="100.539" y1="120.114" x2="100.539" y2="106.9"/>
			<line fill="none" stroke="#12054E" stroke-width="2" stroke-miterlimit="10" x1="100.539" y1="64.697" x2="100.539" y2="51.5"/>
		</g>
		<path fill="none" stroke="#12054E" stroke-width="2" stroke-miterlimit="10" d="M118.822,96.361
			c-10.824,18.661-39.393,10.884-39.393-10.555c0-11.793,9.596-21.109,21.109-21.109C116.893,64.697,126.887,82.49,118.822,96.361z"
			/>
		<path fill="none" stroke="#12054E" stroke-width="2" stroke-miterlimit="10" d="M142.132,65.461c0,3.528-2.856,6.369-6.37,6.369
			c-3.557,0-6.369-2.88-6.369-6.369c0-3.467,2.811-6.354,6.369-6.354C139.275,59.106,142.132,61.947,142.132,65.461z"/>
		<path fill="none" stroke="#12054E" stroke-width="2" stroke-miterlimit="10" d="M142.132,106.139c0,3.512-2.856,6.368-6.37,6.368
			c-3.488,0-6.369-2.823-6.369-6.368C129.393,97.713,142.132,97.777,142.132,106.139z"/>
		<path fill="none" stroke="#12054E" stroke-width="2" stroke-miterlimit="10" d="M65.315,71.83c-3.514,0-6.37-2.841-6.37-6.369
			c0-6.493,8.657-8.778,11.883-3.177C73.265,66.529,70.232,71.83,65.315,71.83z"/>
		<path fill="none" stroke="#12054E" stroke-width="2" stroke-miterlimit="10" d="M106.908,45.13c0,3.476-2.811,6.37-6.354,6.37
			h-0.017c-2.367,0-4.414-1.283-5.499-3.192c-2.416-4.093,0.51-9.547,5.514-9.547C104.066,38.761,106.908,41.617,106.908,45.13z"/>
		<path fill="none" stroke="#12054E" stroke-width="2" stroke-miterlimit="10" d="M100.555,132.838c-3.53,0-6.371-2.841-6.371-6.354
			c0-3.422,2.751-6.369,6.354-6.369c0.151,0.044,3.575-0.162,5.514,3.177C108.498,127.622,105.402,132.838,100.555,132.838z"/>
		<path fill="none" stroke="#12054E" stroke-width="2" stroke-miterlimit="10" d="M71.685,106.139c0,3.543-2.88,6.368-6.369,6.368
			c-3.514,0-6.37-2.856-6.37-6.368C58.946,97.756,71.685,97.748,71.685,106.139z"/>
		<line fill="none" stroke="#12054E" stroke-width="2" stroke-miterlimit="10" x1="82.255" y1="96.361" x2="70.829" y2="102.961"/>
		<line fill="none" stroke="#12054E" stroke-width="2" stroke-miterlimit="10" x1="130.248" y1="68.653" x2="118.822" y2="75.252"/>
		
			<line fill="none" stroke="#12054E" stroke-width="2" stroke-miterlimit="10" x1="130.248" y1="102.961" x2="118.822" y2="96.361"/>
		<line fill="none" stroke="#12054E" stroke-width="2" stroke-miterlimit="10" x1="82.255" y1="75.252" x2="70.829" y2="68.653"/>
	</g>
	<path fill="none" stroke="#12054E" stroke-width="2" stroke-miterlimit="10" d="M93.36,94.896c-3.345,0-6.049-2.719-6.049-6.064
		c0-4.139,3.974-6.884,7.591-5.865c-0.569-2.289,2.026-6.263,6.049-6.263c3.346,0,6.064,2.719,6.064,6.064v0.046
		c3.476-0.465,6.75,2.324,6.75,6.018c0,3.346-2.719,6.064-6.063,6.064H93.36z"/>
</g>
</svg>
