<?xml version="1.0" encoding="utf-8"?>
<!-- Generator: Adobe Illustrator 16.0.0, SVG Export Plug-In . SVG Version: 6.00 Build 0)  -->
<!DOCTYPE svg PUBLIC "-//W3C//DTD SVG 1.1//EN" "http://www.w3.org/Graphics/SVG/1.1/DTD/svg11.dtd">
<svg version="1.1" id="Layer_1" xmlns="http://www.w3.org/2000/svg" xmlns:xlink="http://www.w3.org/1999/xlink" x="0px" y="0px"
	 width="95.721px" height="96.518px" viewBox="51.745 37.907 95.721 96.518" enable-background="new 51.745 37.907 95.721 96.518"
	 xml:space="preserve">
<g>
	<g>
		<path fill="none" stroke="#FEDFA3" stroke-width="2" stroke-miterlimit="10" d="M93.845,96.081H82.542v5.867H69.053
			c-9.017,0-16.308-7.305-16.308-16.308c0-9.017,7.291-16.308,16.308-16.308h0.014c-0.678-11.514,8.904-22.304,21.499-22.304
			c9.355,0,17.213,5.99,20.147,14.007c8.036-3.313,17.482,0.485,20.996,8.441c3.264,0.403,6.24,1.783,8.613,3.825
			c11.35,9.878,4.369,28.646-10.67,28.646h-13.504V96.08H104.4"/>
		<path fill="none" stroke="#FEDFA3" stroke-width="2" stroke-miterlimit="10" d="M99.122,68.744"/>
	</g>
	<g>
		<g>
			<path fill="none" stroke="#FEDFA3" stroke-width="2" stroke-miterlimit="10" d="M139.934,65.537l4.086,3.854l-3.696,3.912
				c-2.373-2.042-5.351-3.422-8.613-3.825c-3.517-7.962-12.958-11.755-20.996-8.441c-0.805-2.2-1.971-4.228-3.438-6.011l4.675-0.129
				c0.245-0.834,0.547-1.654,0.937-2.459c-0.174-0.163-4.349-4.103-4.085-3.854l6.212-6.558l4.069,3.84
				c0.776-0.432,1.554-0.805,2.388-1.064l-0.158-5.623l9.018-0.245l0.172,5.58c0.863,0.23,1.684,0.561,2.475,0.935l3.824-4.056
				l6.572,6.184l-3.825,4.07c1.026,1.943,0.927,2.264,1.079,2.416c0.155-0.004,5.919-0.167,5.594-0.158
				c0.004,0.156,0.262,9.618,0.244,9.017l-5.594,0.158C140.813,63.307,140.436,64.508,139.934,65.537z"/>
			<path fill="none" stroke="#FEDFA3" stroke-width="2" stroke-miterlimit="10" d="M134.57,59.698
				c-0.273,3.02-2.144,5.508-4.688,6.687c-2.704-3.61-6.858-6.054-11.604-6.471c-0.072-0.532-0.072-1.079-0.029-1.64
				c0.402-4.515,4.372-7.852,8.873-7.449C131.637,51.228,134.959,55.197,134.57,59.698z"/>
		</g>
	</g>
	<polyline fill="none" stroke="#FEDFA3" stroke-width="2" stroke-miterlimit="10" points="68.161,116.041 68.233,116.041 
		82.542,116.041 82.542,101.948 	"/>
	<polyline fill="none" stroke="#FEDFA3" stroke-width="2" stroke-miterlimit="10" points="116.148,101.948 116.148,116.041 
		130.055,116.041 	"/>
	<polyline fill="none" stroke="#FEDFA3" stroke-width="2" stroke-miterlimit="10" points="74.257,109.883 68.166,115.975 
		74.257,122.064 	"/>
	<polyline fill="none" stroke="#FEDFA3" stroke-width="2" stroke-miterlimit="10" points="123.959,109.943 130.051,116.034 
		123.959,122.125 	"/>
	<polygon fill="none" stroke="#FEDFA3" stroke-width="2" stroke-miterlimit="10" points="104.406,121.493 110.628,121.493 
		99.126,133.01 87.609,121.493 93.846,121.493 93.846,80.251 87.609,80.251 99.126,68.749 110.628,80.251 104.406,80.251 	"/>
</g>
</svg>
