<?xml version="1.0" encoding="utf-8"?>
<!-- Generator: Adobe Illustrator 16.0.0, SVG Export Plug-In . SVG Version: 6.00 Build 0)  -->
<!DOCTYPE svg PUBLIC "-//W3C//DTD SVG 1.1//EN" "http://www.w3.org/Graphics/SVG/1.1/DTD/svg11.dtd">
<svg version="1.1" id="Layer_1" xmlns="http://www.w3.org/2000/svg" xmlns:xlink="http://www.w3.org/1999/xlink" x="0px" y="0px"
	 width="96.078px" height="93.894px" viewBox="51.699 34.511 96.078 93.894" enable-background="new 51.699 34.511 96.078 93.894"
	 xml:space="preserve">
<g>
	
		<rect x="52.699" y="35.511" fill="none" stroke="#FF6CFF" stroke-width="2" stroke-miterlimit="10" width="94.078" height="70.363"/>
	<rect x="60.938" y="43.759" fill="none" stroke="#FF6CFF" stroke-width="2" stroke-miterlimit="10" width="77.6" height="49.053"/>
	<polyline fill="none" stroke="#FF6CFF" stroke-width="2" stroke-miterlimit="10" points="92.675,60.424 95.956,56.069 
		92.675,51.714 	"/>
	<polyline fill="none" stroke="#FF6CFF" stroke-width="2" stroke-miterlimit="10" points="76.163,60.424 72.882,56.069 
		76.163,51.714 	"/>
	<line fill="none" stroke="#FF6CFF" stroke-width="2" stroke-miterlimit="10" x1="80.836" y1="60.391" x2="88.002" y2="51.748"/>
	<line fill="none" stroke="#FF6CFF" stroke-width="2" stroke-miterlimit="10" x1="71.497" y1="84.856" x2="98.402" y2="84.856"/>
	<line fill="none" stroke="#FF6CFF" stroke-width="2" stroke-miterlimit="10" x1="71.497" y1="67.752" x2="101.966" y2="67.752"/>
	<line fill="none" stroke="#FF6CFF" stroke-width="2" stroke-miterlimit="10" x1="109.093" y1="67.752" x2="127.979" y2="67.752"/>
	<line fill="none" stroke="#FF6CFF" stroke-width="2" stroke-miterlimit="10" x1="105.529" y1="84.856" x2="124.729" y2="84.856"/>
	<line fill="none" stroke="#FF6CFF" stroke-width="2" stroke-miterlimit="10" x1="71.497" y1="76.304" x2="92.1" y2="76.304"/>
	<line fill="none" stroke="#FF6CFF" stroke-width="2" stroke-miterlimit="10" x1="99.227" y1="76.304" x2="120.141" y2="76.304"/>
	
		<rect x="93.195" y="105.874" fill="none" stroke="#FF6CFF" stroke-width="2" stroke-miterlimit="10" width="13.086" height="13.594"/>
	
		<rect x="74.407" y="119.468" fill="none" stroke="#FF6CFF" stroke-width="2" stroke-miterlimit="10" width="50.661" height="7.937"/>
</g>
</svg>
