<?xml version="1.0" encoding="utf-8"?>
<!-- Generator: Adobe Illustrator 16.0.0, SVG Export Plug-In . SVG Version: 6.00 Build 0)  -->
<!DOCTYPE svg PUBLIC "-//W3C//DTD SVG 1.1//EN" "http://www.w3.org/Graphics/SVG/1.1/DTD/svg11.dtd">
<svg version="1.1" id="Layer_1" xmlns="http://www.w3.org/2000/svg" xmlns:xlink="http://www.w3.org/1999/xlink" x="0px" y="0px"
	 width="93.968px" height="94.077px" viewBox="44.575 33 93.968 94.077" enable-background="new 44.575 33 93.968 94.077"
	 xml:space="preserve">
<g>
	<polyline fill="none" stroke="#3605DD" stroke-width="2" stroke-miterlimit="10" points="44.575,92.968 61.855,92.968 
		61.855,66.732 44.575,66.732 	"/>
	<polyline fill="none" stroke="#3605DD" stroke-width="2" stroke-miterlimit="10" points="138.543,92.968 120.996,92.968 
		120.996,66.732 138.543,66.732 	"/>
	<polyline fill="none" stroke="#3605DD" stroke-width="2" stroke-miterlimit="10" points="78.308,127.077 78.308,109.421 
		104.544,109.421 104.544,127.077 	"/>
	<polyline fill="none" stroke="#3605DD" stroke-width="2" stroke-miterlimit="10" points="104.544,33 104.544,50.28 78.308,50.28 
		78.308,33 	"/>
	<g>
		<path fill="none" stroke="#3605DD" stroke-width="2" stroke-miterlimit="10" d="M104.92,84.984l4.223,3.336l-5.384,6.802
			l-4.222-3.336c-0.7,0.479-1.438,0.885-2.193,1.216l0.626,5.365l-8.608,0.995l-0.627-5.327c-0.848-0.147-1.659-0.387-2.452-0.682
			l-3.318,4.203l-6.802-5.364l3.318-4.203c-0.479-0.719-0.885-1.438-1.216-2.23l-5.346,0.627l-0.369-3.17l-0.645-5.438l5.346-0.627
			c0.166-0.811,0.387-1.622,0.682-2.433l-1.069-0.848l-3.154-2.49l5.383-6.802l4.222,3.336c0.701-0.479,1.419-0.903,2.194-1.217
			l-0.627-5.364l8.608-0.996l0.627,5.328c0.849,0.147,1.659,0.387,2.452,0.682l3.318-4.203l6.802,5.364l-3.318,4.221
			c0.461,0.682,0.867,1.401,1.197,2.138c0.02,0.019,0.02,0.056,0.037,0.074l0.627-0.074l4.72-0.553l0.056,0.553l0.94,8.056
			l-5.347,0.626c-0.037,0.221-0.093,0.442-0.146,0.664C105.325,83.823,105.141,84.395,104.92,84.984z"/>
		<path fill="none" stroke="#3605DD" stroke-width="2" stroke-miterlimit="10" d="M99.146,78.311
			c1.051,5.542-3.718,10.31-9.259,9.26c-3.096-0.587-5.593-3.084-6.18-6.18c-1.05-5.542,3.718-10.311,9.26-9.26
			C96.063,72.717,98.559,75.214,99.146,78.311z"/>
	</g>
	<g>
		<path fill="none" stroke="#3605DD" stroke-width="2" stroke-miterlimit="10" d="M113.37,65.103h7.626c0,9.621,0,18.317,0,29.496
			h-7.641"/>
		<path fill="none" stroke="#3605DD" stroke-width="2" stroke-miterlimit="10" d="M69.482,65.103h-7.626c0,9.621,0,18.317,0,29.496
			h7.64"/>
		<g>
			<path fill="none" stroke="#3605DD" stroke-width="2" stroke-miterlimit="10" d="M113.37,65.103l-7.196-7.196V50.28
				c-9.621,0-18.317,0-29.496,0v7.64l-7.196,7.183"/>
			<path fill="none" stroke="#3605DD" stroke-width="2" stroke-miterlimit="10" d="M113.355,94.599l-7.183,7.196v7.626
				c-9.935,0-18.463,0-29.496,0v-7.64l-7.182-7.183"/>
		</g>
	</g>
	<g>
		<line fill="none" stroke="#3605DD" stroke-width="2" stroke-miterlimit="10" x1="134.145" y1="73.84" x2="138.277" y2="73.84"/>
		<line fill="none" stroke="#3605DD" stroke-width="2" stroke-miterlimit="10" x1="125.504" y1="73.84" x2="129.637" y2="73.84"/>
		<line fill="none" stroke="#3605DD" stroke-width="2" stroke-miterlimit="10" x1="134.145" y1="85.861" x2="138.277" y2="85.861"/>
		<line fill="none" stroke="#3605DD" stroke-width="2" stroke-miterlimit="10" x1="125.504" y1="85.861" x2="129.637" y2="85.861"/>
	</g>
	<g>
		<line fill="none" stroke="#3605DD" stroke-width="2" stroke-miterlimit="10" x1="85.416" y1="118.438" x2="85.416" y2="114.305"/>
		<line fill="none" stroke="#3605DD" stroke-width="2" stroke-miterlimit="10" x1="85.416" y1="127.077" x2="85.416" y2="122.945"/>
		<line fill="none" stroke="#3605DD" stroke-width="2" stroke-miterlimit="10" x1="97.437" y1="118.438" x2="97.437" y2="114.305"/>
		<line fill="none" stroke="#3605DD" stroke-width="2" stroke-miterlimit="10" x1="97.437" y1="127.077" x2="97.437" y2="122.945"/>
	</g>
	<g>
		<line fill="none" stroke="#3605DD" stroke-width="2" stroke-miterlimit="10" x1="85.416" y1="37.132" x2="85.416" y2="33"/>
		<line fill="none" stroke="#3605DD" stroke-width="2" stroke-miterlimit="10" x1="85.416" y1="45.772" x2="85.416" y2="41.64"/>
		<line fill="none" stroke="#3605DD" stroke-width="2" stroke-miterlimit="10" x1="97.437" y1="37.132" x2="97.437" y2="33"/>
		<line fill="none" stroke="#3605DD" stroke-width="2" stroke-miterlimit="10" x1="97.437" y1="45.772" x2="97.437" y2="41.64"/>
	</g>
	<g>
		<line fill="none" stroke="#3605DD" stroke-width="2" stroke-miterlimit="10" x1="53.215" y1="73.84" x2="57.348" y2="73.84"/>
		<line fill="none" stroke="#3605DD" stroke-width="2" stroke-miterlimit="10" x1="44.575" y1="73.84" x2="48.708" y2="73.84"/>
		<line fill="none" stroke="#3605DD" stroke-width="2" stroke-miterlimit="10" x1="53.215" y1="85.861" x2="57.348" y2="85.861"/>
		<line fill="none" stroke="#3605DD" stroke-width="2" stroke-miterlimit="10" x1="44.575" y1="85.861" x2="48.708" y2="85.861"/>
	</g>
</g>
</svg>
