<?xml version="1.0" encoding="utf-8"?>
<!-- Generator: Adobe Illustrator 16.0.0, SVG Export Plug-In . SVG Version: 6.00 Build 0)  -->
<!DOCTYPE svg PUBLIC "-//W3C//DTD SVG 1.1//EN" "http://www.w3.org/Graphics/SVG/1.1/DTD/svg11.dtd">
<svg version="1.1" id="Layer_1" xmlns="http://www.w3.org/2000/svg" xmlns:xlink="http://www.w3.org/1999/xlink" x="0px" y="0px"
	 width="89.6px" height="96.078px" viewBox="54.871 36.179 89.6 96.078" enable-background="new 54.871 36.179 89.6 96.078"
	 xml:space="preserve">
<g>
	<g>
		<path fill="none" stroke="#3605DD" stroke-width="2" stroke-miterlimit="10" d="M124.836,77.905h-12.382V68.71H86.917v9.195
			H74.505c-5.326,0-9.069-4.338-9.62-9.636c-1.153-11.093,10.818-9.56,10.97-9.62C75.07,47.408,88.763,41.247,97.857,47.33
			c1.729-5.872,7.146-10.151,13.581-10.151c11.058,0,17.77,12.08,12.107,21.471c0.152,0.065,10.819-0.792,10.926,9.612
			C134.525,73.577,130.102,77.905,124.836,77.905z"/>
		<path fill="none" stroke="#3605DD" stroke-width="2" stroke-miterlimit="10" d="M105.035,49.443c0.828-2.82,3.461-4.789,6.4-4.789
			c3.684,0,6.678,2.99,6.678,6.666"/>
		<path fill="none" stroke="#3605DD" stroke-width="2" stroke-miterlimit="10" d="M83.329,58.881
			c0.111-3.623,3.036-6.461,6.658-6.461c1.336,0,2.616,0.386,3.702,1.117"/>
		<path fill="none" stroke="#3605DD" stroke-width="2" stroke-miterlimit="10" d="M83.182,66.203"/>
	</g>
	<line fill="none" stroke="#3605DD" stroke-width="2" stroke-miterlimit="10" x1="99.678" y1="98.162" x2="99.678" y2="68.71"/>
	<g>
		<g>
			<g>
				
					<rect x="85.483" y="98.165" fill="none" stroke="#3605DD" stroke-width="2" stroke-miterlimit="10" width="28.378" height="12.313"/>
				<g>
					
						<line fill="none" stroke="#3605DD" stroke-width="2" stroke-miterlimit="10" x1="90.758" y1="104.322" x2="90.758" y2="104.322"/>
					
						<line fill="none" stroke="#3605DD" stroke-width="2" stroke-miterlimit="10" x1="94.789" y1="104.322" x2="94.789" y2="104.322"/>
					
						<line fill="none" stroke="#3605DD" stroke-width="2" stroke-miterlimit="10" x1="108.586" y1="103.004" x2="108.586" y2="105.641"/>
					
						<line fill="none" stroke="#3605DD" stroke-width="2" stroke-miterlimit="10" x1="104.245" y1="103.004" x2="104.245" y2="105.641"/>
				</g>
			</g>
		</g>
		<g>
			<g>
				
					<rect x="85.483" y="118.943" fill="none" stroke="#3605DD" stroke-width="2" stroke-miterlimit="10" width="28.378" height="12.313"/>
				<g>
					
						<line fill="none" stroke="#3605DD" stroke-width="2" stroke-miterlimit="10" x1="90.758" y1="125.102" x2="90.758" y2="125.102"/>
					
						<line fill="none" stroke="#3605DD" stroke-width="2" stroke-miterlimit="10" x1="94.789" y1="125.102" x2="94.789" y2="125.102"/>
					
						<line fill="none" stroke="#3605DD" stroke-width="2" stroke-miterlimit="10" x1="108.586" y1="123.782" x2="108.586" y2="126.418"/>
					
						<line fill="none" stroke="#3605DD" stroke-width="2" stroke-miterlimit="10" x1="104.245" y1="123.782" x2="104.245" y2="126.418"/>
				</g>
			</g>
		</g>
		<line fill="none" stroke="#3605DD" stroke-width="2" stroke-miterlimit="10" x1="99.672" y1="110.479" x2="99.672" y2="118.943"/>
	</g>
	<g>
		<polyline fill="none" stroke="#3605DD" stroke-width="2" stroke-miterlimit="10" points="112.454,77.905 112.454,90.757 
			119.131,90.757 		"/>
		<polyline fill="none" stroke="#3605DD" stroke-width="2" stroke-miterlimit="10" points="80.21,90.757 86.917,90.757 
			86.917,77.905 86.917,68.71 99.678,68.71 		"/>
		<line fill="none" stroke="#3605DD" stroke-width="2" stroke-miterlimit="10" x1="135.609" y1="90.757" x2="126.991" y2="90.757"/>
		<line fill="none" stroke="#3605DD" stroke-width="2" stroke-miterlimit="10" x1="72.35" y1="90.757" x2="63.731" y2="90.757"/>
		<path fill="none" stroke="#3605DD" stroke-width="2" stroke-miterlimit="10" d="M143.471,90.757v0.137
			c0,2.17-1.762,3.931-3.932,3.931s-3.93-1.761-3.93-3.931v-0.137c0.076-2.108,1.806-3.793,3.93-3.793
			C141.664,86.964,143.395,88.648,143.471,90.757z"/>
		<path fill="none" stroke="#3605DD" stroke-width="2" stroke-miterlimit="10" d="M80.21,90.757v0.137c0,2.17-1.76,3.931-3.93,3.931
			c-2.17,0-3.93-1.761-3.93-3.931v-0.137c0.076-2.108,1.806-3.793,3.93-3.793C78.404,86.964,80.134,88.648,80.21,90.757z"/>
		<path fill="none" stroke="#3605DD" stroke-width="2" stroke-miterlimit="10" d="M126.991,90.757v0.137
			c0,2.17-1.761,3.931-3.931,3.931s-3.931-1.761-3.931-3.931v-0.137c0.076-2.108,1.806-3.793,3.931-3.793
			S126.915,88.648,126.991,90.757z"/>
		<path fill="none" stroke="#3605DD" stroke-width="2" stroke-miterlimit="10" d="M63.731,90.757v0.137
			c0,2.17-1.76,3.931-3.93,3.931c-2.17,0-3.93-1.761-3.93-3.931v-0.137c0.076-2.108,1.806-3.793,3.93-3.793
			C61.926,86.964,63.655,88.648,63.731,90.757z"/>
	</g>
</g>
</svg>
