<?xml version="1.0" encoding="utf-8"?>
<!-- Generator: Adobe Illustrator 16.0.0, SVG Export Plug-In . SVG Version: 6.00 Build 0)  -->
<!DOCTYPE svg PUBLIC "-//W3C//DTD SVG 1.1//EN" "http://www.w3.org/Graphics/SVG/1.1/DTD/svg11.dtd">
<svg version="1.1" id="Layer_1" xmlns="http://www.w3.org/2000/svg" xmlns:xlink="http://www.w3.org/1999/xlink" x="0px" y="0px"
	 width="96.077px" height="93.027px" viewBox="51.632 38.285 96.077 93.027" enable-background="new 51.632 38.285 96.077 93.027"
	 xml:space="preserve">
<g>
	<g>
		
			<rect x="76.247" y="39.285" fill="none" stroke="#3605DD" stroke-width="2" stroke-miterlimit="10" width="46.849" height="20.269"/>
		<polygon fill="none" stroke="#3605DD" stroke-width="2" stroke-miterlimit="10" points="123.096,84.799 99.671,98.492 
			76.247,84.799 99.671,71.105 		"/>
		
			<rect x="76.247" y="110.043" fill="none" stroke="#3605DD" stroke-width="2" stroke-miterlimit="10" width="46.849" height="20.27"/>
		<polyline fill="none" stroke="#3605DD" stroke-width="2" stroke-miterlimit="10" points="130.7,49.42 146.709,49.42 
			146.709,84.799 132.236,84.799 		"/>
		<polyline fill="none" stroke="#3605DD" stroke-width="2" stroke-miterlimit="10" points="68.641,84.799 52.632,84.799 
			52.632,120.178 67.105,120.178 		"/>
		<polyline fill="none" stroke="#3605DD" stroke-width="2" stroke-miterlimit="10" points="137.865,90.384 132.236,84.799 
			137.809,79.213 		"/>
		<polyline fill="none" stroke="#3605DD" stroke-width="2" stroke-miterlimit="10" points="61.476,114.615 67.105,120.201 
			61.533,125.786 		"/>
		<g>
			
				<line fill="none" stroke="#3605DD" stroke-width="2" stroke-miterlimit="10" x1="83.483" y1="120.178" x2="89.958" y2="120.178"/>
			
				<line fill="none" stroke="#3605DD" stroke-width="2" stroke-miterlimit="10" x1="96.434" y1="120.178" x2="102.908" y2="120.178"/>
			
				<line fill="none" stroke="#3605DD" stroke-width="2" stroke-miterlimit="10" x1="109.383" y1="120.178" x2="115.857" y2="120.178"/>
		</g>
		<g>
			<line fill="none" stroke="#3605DD" stroke-width="2" stroke-miterlimit="10" x1="83.483" y1="49.42" x2="89.958" y2="49.42"/>
			<line fill="none" stroke="#3605DD" stroke-width="2" stroke-miterlimit="10" x1="96.434" y1="49.42" x2="102.908" y2="49.42"/>
			<line fill="none" stroke="#3605DD" stroke-width="2" stroke-miterlimit="10" x1="109.383" y1="49.42" x2="115.857" y2="49.42"/>
		</g>
		<g>
			<path fill="none" stroke="#3605DD" stroke-width="2" stroke-miterlimit="10" d="M145.393,119.665
				c0.846,3.821-2.481,7.149-6.303,6.303c-1.926-0.427-3.479-1.979-3.906-3.905c-0.847-3.819,2.482-7.148,6.303-6.303
				C143.411,116.188,144.965,117.74,145.393,119.665z"/>
			
				<line fill="none" stroke="#3605DD" stroke-width="2" stroke-miterlimit="10" x1="123.096" y1="120.864" x2="135.051" y2="120.864"/>
		</g>
		<g>
			<path fill="none" stroke="#3605DD" stroke-width="2" stroke-miterlimit="10" d="M53.95,50.618
				c-0.847-3.82,2.481-7.149,6.302-6.303c1.925,0.427,3.479,1.98,3.906,3.905c0.847,3.821-2.482,7.15-6.302,6.303
				C55.93,54.097,54.376,52.544,53.95,50.618z"/>
			<line fill="none" stroke="#3605DD" stroke-width="2" stroke-miterlimit="10" x1="76.247" y1="49.42" x2="64.291" y2="49.42"/>
		</g>
		<g>
			<line fill="none" stroke="#3605DD" stroke-width="2" stroke-miterlimit="10" x1="92.479" y1="84.799" x2="92.657" y2="84.799"/>
			<line fill="none" stroke="#3605DD" stroke-width="2" stroke-miterlimit="10" x1="99.581" y1="84.799" x2="99.76" y2="84.799"/>
			
				<line fill="none" stroke="#3605DD" stroke-width="2" stroke-miterlimit="10" x1="106.686" y1="84.799" x2="106.863" y2="84.799"/>
		</g>
	</g>
	<line fill="none" stroke="#3605DD" stroke-width="2" stroke-miterlimit="10" x1="99.671" y1="59.554" x2="99.671" y2="71.105"/>
	<line fill="none" stroke="#3605DD" stroke-width="2" stroke-miterlimit="10" x1="99.671" y1="98.492" x2="99.671" y2="110.043"/>
</g>
</svg>
