<?xml version="1.0" encoding="utf-8"?>
<!-- Generator: Adobe Illustrator 16.0.0, SVG Export Plug-In . SVG Version: 6.00 Build 0)  -->
<!DOCTYPE svg PUBLIC "-//W3C//DTD SVG 1.1//EN" "http://www.w3.org/Graphics/SVG/1.1/DTD/svg11.dtd">
<svg version="1.1" id="Layer_1" xmlns="http://www.w3.org/2000/svg" xmlns:xlink="http://www.w3.org/1999/xlink" x="0px" y="0px"
	 width="87.335px" height="95.931px" viewBox="56.137 37.64 87.335 95.931" enable-background="new 56.137 37.64 87.335 95.931"
	 xml:space="preserve">
<g>
	<g>
		
			<line fill="none" stroke="#25DDF0" stroke-width="2" stroke-miterlimit="10" x1="118.484" y1="107.206" x2="127.307" y2="116.641"/>
		<path fill="none" stroke="#25DDF0" stroke-width="2" stroke-miterlimit="10" d="M135.836,131.492l-11.388-12.18l5.716-5.345
			l11.388,12.179C144.707,129.521,138.999,134.875,135.836,131.492z"/>
	</g>
	<path fill="none" stroke="#25DDF0" stroke-width="2" stroke-miterlimit="10" d="M121.393,102.936
		c-0.619,1.584-1.598,3.041-2.904,4.267c-3.371,3.151-8.105,3.95-12.151,2.45c-10.143-3.688-10.343-18.351,0-22.129
		C115.898,83.99,125.162,93.494,121.393,102.936z"/>
	<path fill="none" stroke="#25DDF0" stroke-width="2" stroke-miterlimit="10" d="M106.336,109.65v9.647H57.137V55.003h49.199v32.52
		C96.056,91.278,96.146,105.945,106.336,109.65z"/>
	<g>
		<g>
			<g>
				<line fill="none" stroke="#25DDF0" stroke-width="2" stroke-miterlimit="10" x1="94.827" y1="97.182" x2="90.667" y2="97.182"/>
				<line fill="none" stroke="#25DDF0" stroke-width="2" stroke-miterlimit="10" x1="75.197" y1="97.182" x2="71.055" y2="97.182"/>
				<g>
					
						<line fill="none" stroke="#25DDF0" stroke-width="2" stroke-miterlimit="10" x1="75.644" y1="104.486" x2="72.188" y2="107.941"/>
					
						<line fill="none" stroke="#25DDF0" stroke-width="2" stroke-miterlimit="10" x1="93.692" y1="86.438" x2="90.237" y2="89.893"/>
					
						<line fill="none" stroke="#25DDF0" stroke-width="2" stroke-miterlimit="10" x1="93.692" y1="107.941" x2="90.221" y2="104.471"/>
					
						<line fill="none" stroke="#25DDF0" stroke-width="2" stroke-miterlimit="10" x1="75.644" y1="89.893" x2="72.188" y2="86.438"/>
				</g>
				<path fill="none" stroke="#25DDF0" stroke-width="2" stroke-miterlimit="10" d="M90.237,89.893
					c-0.722-1.959-2.32-3.506-4.314-4.177l-3.076-3.06l-3.163,3.163c-1.874,0.704-3.352,2.2-4.04,4.073
					c-0.292,0.757-0.446,1.564-0.446,2.424v9.747c0,0.858,0.154,1.668,0.446,2.424c2.27,6.132,12.338,6.141,14.577-0.018
					c0.292-0.738,0.446-1.564,0.446-2.406v-9.747C90.667,91.457,90.513,90.649,90.237,89.893z"/>
			</g>
			<line fill="none" stroke="#25DDF0" stroke-width="2" stroke-miterlimit="10" x1="82.847" y1="82.656" x2="82.933" y2="97.182"/>
		</g>
		<g>
			<line fill="none" stroke="#25DDF0" stroke-width="2" stroke-miterlimit="10" x1="64.706" y1="65.272" x2="98.768" y2="65.272"/>
			<line fill="none" stroke="#25DDF0" stroke-width="2" stroke-miterlimit="10" x1="64.706" y1="74.589" x2="98.768" y2="74.589"/>
		</g>
	</g>
	<polyline fill="none" stroke="#25DDF0" stroke-width="2" stroke-miterlimit="10" points="80.078,55.003 80.078,38.64 
		129.277,38.64 129.277,102.936 121.393,102.936 	"/>
	<g>
		<g>
			<line fill="none" stroke="#25DDF0" stroke-width="2" stroke-miterlimit="10" x1="87.643" y1="48.909" x2="121.703" y2="48.909"/>
			
				<line fill="none" stroke="#25DDF0" stroke-width="2" stroke-miterlimit="10" x1="121.708" y1="58.223" x2="106.336" y2="58.223"/>
		</g>
	</g>
</g>
</svg>
