<?xml version="1.0" encoding="utf-8"?>
<!-- Generator: Adobe Illustrator 16.0.0, SVG Export Plug-In . SVG Version: 6.00 Build 0)  -->
<!DOCTYPE svg PUBLIC "-//W3C//DTD SVG 1.1//EN" "http://www.w3.org/Graphics/SVG/1.1/DTD/svg11.dtd">
<svg version="1.1" id="Layer_1" xmlns="http://www.w3.org/2000/svg" xmlns:xlink="http://www.w3.org/1999/xlink" x="0px" y="0px"
	 width="96.077px" height="92.753px" viewBox="51.767 39.115 96.077 92.753" enable-background="new 51.767 39.115 96.077 92.753"
	 xml:space="preserve">
<g>
	<path fill="none" stroke="#25DDF0" stroke-width="2" stroke-miterlimit="10" d="M144.771,111.18H54.84
		c-1.146,0-2.073-0.93-2.073-2.074V42.188c0-1.145,0.928-2.073,2.073-2.073h89.932c1.145,0,2.072,0.928,2.072,2.073v66.917
		C146.844,110.25,145.915,111.18,144.771,111.18z"/>
	<line fill="none" stroke="#25DDF0" stroke-width="2" stroke-miterlimit="10" x1="52.767" y1="98.102" x2="146.844" y2="98.102"/>
	
		<rect x="61.448" y="48.786" fill="none" stroke="#25DDF0" stroke-width="2" stroke-miterlimit="10" width="76.735" height="49.316"/>
	<g>
		<line fill="none" stroke="#25DDF0" stroke-width="2" stroke-miterlimit="10" x1="90.986" y1="104.641" x2="90.943" y2="104.641"/>
	</g>
	<g>
		<line fill="none" stroke="#25DDF0" stroke-width="2" stroke-miterlimit="10" x1="99.826" y1="104.641" x2="99.783" y2="104.641"/>
	</g>
	<g>
		<line fill="none" stroke="#25DDF0" stroke-width="2" stroke-miterlimit="10" x1="99.826" y1="86.224" x2="99.783" y2="86.224"/>
	</g>
	<g>
		
			<line fill="none" stroke="#25DDF0" stroke-width="2" stroke-miterlimit="10" x1="108.667" y1="104.641" x2="108.624" y2="104.641"/>
	</g>
	<line fill="none" stroke="#25DDF0" stroke-width="2" stroke-miterlimit="10" x1="109.604" y1="111.18" x2="109.604" y2="121.738"/>
	<line fill="none" stroke="#25DDF0" stroke-width="2" stroke-miterlimit="10" x1="90.007" y1="121.738" x2="90.007" y2="111.18"/>
	<path fill="none" stroke="#25DDF0" stroke-width="2" stroke-miterlimit="10" d="M123.689,130.868H75.92v-6.646
		c0-1.373,1.112-2.483,2.483-2.483h42.803c1.372,0,2.483,1.11,2.483,2.483V130.868z"/>
	<polygon fill="none" stroke="#25DDF0" stroke-width="2" stroke-miterlimit="10" points="99.815,67.485 85.265,91.171 
		114.367,91.171 	"/>
	<g>
		<line fill="none" stroke="#25DDF0" stroke-width="2" stroke-miterlimit="10" x1="67.518" y1="53.943" x2="70.021" y2="53.943"/>
		<line fill="none" stroke="#25DDF0" stroke-width="2" stroke-miterlimit="10" x1="74.725" y1="53.943" x2="77.229" y2="53.943"/>
		<line fill="none" stroke="#25DDF0" stroke-width="2" stroke-miterlimit="10" x1="81.933" y1="53.943" x2="84.437" y2="53.943"/>
	</g>
	<line fill="none" stroke="#25DDF0" stroke-width="2" stroke-miterlimit="10" x1="61.448" y1="59.101" x2="138.184" y2="59.101"/>
	<line fill="none" stroke="#25DDF0" stroke-width="2" stroke-miterlimit="10" x1="99.805" y1="77.164" x2="99.805" y2="82.241"/>
</g>
</svg>
