<?xml version="1.0" encoding="utf-8"?>
<!-- Generator: Adobe Illustrator 16.0.0, SVG Export Plug-In . SVG Version: 6.00 Build 0)  -->
<!DOCTYPE svg PUBLIC "-//W3C//DTD SVG 1.1//EN" "http://www.w3.org/Graphics/SVG/1.1/DTD/svg11.dtd">
<svg version="1.1" id="Layer_2" xmlns="http://www.w3.org/2000/svg" xmlns:xlink="http://www.w3.org/1999/xlink" x="0px" y="0px"
	 width="303.75px" height="417.75px" viewBox="0 0 303.75 417.75" enable-background="new 0 0 303.75 417.75" xml:space="preserve">
<ellipse fill="#4C8C89" cx="173.25" cy="401.375" rx="130.5" ry="16.375"/>
<path fill="#88442F" d="M189.25,387.125c0,0-8.375,6-4.125,12c7,0,58.375-0.25,58.375-0.25s-16.125-11.25-25.25-11.875
	c-8-0.375-10.375,0-10.375,0L189.25,387.125z"/>
<path fill="#88442F" d="M164,398.25v-15l-23.666,0.5c0,0-26.834,4.125-38.709,14.625C115.125,398.75,164,398.25,164,398.25z"/>
<path fill="#2D444C" d="M191,320.75c0,0-3.625,60.75-1.75,66.375c5.75,0,23.125-0.125,23.125-0.125s-4.875-59.375-9-67.625
	C200.125,319.625,191,320.75,191,320.75z"/>
<path fill="#2D444C" d="M157.188,318.875c0,0-14.354,31.375-16.854,64.875c9,0.5,24.666,0.333,24.666,0.333s2.5-59.666,6.167-64.333
	C165.5,319.75,157.188,318.875,157.188,318.875z"/>
<path fill="#3A5663" d="M138,278.917c0,0-2.375,31.333,20.5,40.5c6.834,2.666,45.166,6.332,57.5-3.334
	c8.167-6.333,13-11.083,13.625-33.208C221.458,286.875,138,278.917,138,278.917z"/>
<path fill="#C3D8D3" d="M223,202.917c0,0,26.167-3.667,42.167,12c7.666,6,38.085,40.333-9.249,71c-4.334-11.333-7.626-20-7.626-20
	s22.521-12,10.188-31c-6.667-7-6.479-14-35.479-15C223,213.917,223,202.917,223,202.917z"/>
<path fill="#C3D8D3" d="M161.667,200.917c0,0-29-8-60-43.667c-0.667,9.333,0,30.333,0,30.333s32,27,54,30.667
	C159,211.25,161.667,200.917,161.667,200.917z"/>
<path fill="#D4E1DD" d="M163,193.583c0,0-24.667,55.667-25,85.333c11.334,4.667,49.668,14.333,91.334,4c0.333-25-1-82.667-7-94
	C209,192.917,163,193.583,163,193.583z"/>
<path fill="#681C35" d="M175.334,199.25c0,0-4.667,9.333-0.667,12c7,0.333,17.333,1.333,17.333,1.333
	c1.557-5.032,0.667-10.667,0.667-10.667L175.334,199.25z"/>
<path fill="#D1AD95" d="M77.5,95c8.073-0.621,14.25,0.75,12.25,7.5c-2.5,5.75-2.75,3-2.75,3l-10.25,0.25c0,0-3.75-4.75-4.75-6.25
	S74.25,95.25,77.5,95z"/>
<path fill="#ECC2A6" d="M260.25,125.75c0,0,13-17.25,30.75-4.5c5.75,4,12.75,12.5,7.75,21.75S278,158,265,151.5
	S260.25,125.75,260.25,125.75z"/>
<path fill="#ECC2A6" d="M164,62.5c0,0-28.25,4.25-39.25,33.5s-15,96.5,59.75,106.25c16.25,2.5,57,4.25,86-48.75
	c3.75-11.25,10.75-58.75,10.75-58.75L253,65L164,62.5z"/>
<path fill="#B53B30" d="M260.25,125.75c0,0,7-11.25,25.25-8.25c3-14.5,22.25-74.25-27.25-88c-14.5-3.5-37-0.5-72.75,9.25
	c-6.5,2-31.25,13-41.25-38.75c-8,6.25-25.5,26.75-12.25,41c-11.5-7-36.5-19-49,18c-2.25,9.25,7.25,1.5,9.25-0.75
	s8.25-8.5,16.75,2.25c9.5,10.75,22.75,25,63,22.5s34.25-9.25,60-6.5S265.25,103.75,260.25,125.75z"/>
<path fill="#DFAB86" d="M276.25,126l-1,6.5c0,0,9,4.5,3,10.25c-1,2.25-1,2.25-1,2.25s13.5,1.75,16.25-9.75
	C293.75,131.5,288.5,124.25,276.25,126z"/>
<g>
	<path fill="#6F4E37" d="M142.307,118.505c1.989-0.654,3.237-1.463,4.488-3.188c2.459-3.391,3.543-5.943,8.108-7.271
		c9.884-2.876,9.162,6.857,9.119,13.04c-0.022,3.228,4.853,4.228,4.955,0.33c0.184-6.973,0.49-14.78-8.02-16.03
		c-4.164-0.611-8.82,0.645-12.489,2.519c-1.48,0.757-2.75,1.796-3.819,3.063c-1.236,1.464-2.025,4.894-3.956,5.528
		C137.491,117.548,140.122,119.223,142.307,118.505L142.307,118.505z"/>
</g>
<g>
	<path fill="#6F4E37" d="M197.684,125.348c3.841-4.023,1.566-8.223,9.548-11.891c3.408-1.566,5.707-2.157,9.019-0.645
		c3.859,1.762,6.813,9.938,8,14.188c0.742,2.655,3.475,1.534,3.473,1.442c-0.189-7.677-3.698-14.682-10.395-18.663
		c-10.254-6.097-21.941,3.51-23.012,11.873C194,124.125,197.237,125.815,197.684,125.348L197.684,125.348z"/>
</g>
<g>
	<path fill="#6F4E37" d="M151.308,159.077c10.661,6.72,23.816,7.14,35.942,7.11c12.408-0.031,26.965-1.125,36.474-10.377
		c1.606-1.563-1.847-5.178-3.447-3.621c-8.677,8.442-19.421,9.773-30.776,10.227C168.667,163.25,149.015,157.632,151.308,159.077
		L151.308,159.077z"/>
</g>
<path fill="#EDEBF0" d="M7.75,107.5l97.75-0.5c0,0-4.75,103-0.25,113.25C84.5,219.5,0,218,0,218S1,107.25,7.75,107.5z"/>
<path fill="#F92B53" d="M60.75,208.75L60,246.25l10.25-7l10.5,9l0.5-38.75C81.25,209.5,62.75,213.5,60.75,208.75z"/>
<line fill="none" stroke="#B7B7B7" stroke-width="4" stroke-miterlimit="10" x1="18" y1="130.25" x2="69" y2="130.25"/>
<line fill="none" stroke="#B7B7B7" stroke-width="4" stroke-miterlimit="10" x1="15" y1="144.25" x2="68" y2="144.25"/>
<line fill="none" stroke="#B7B7B7" stroke-width="4" stroke-miterlimit="10" x1="14" y1="157.25" x2="83" y2="157.25"/>
<line fill="none" stroke="#B7B7B7" stroke-width="4" stroke-miterlimit="10" x1="13" y1="170.25" x2="86" y2="170.25"/>
<circle fill="#F4506A" cx="71.125" cy="198.375" r="16.625"/>
<circle fill="#DFC050" cx="71.375" cy="197.875" r="11.625"/>
<path fill="#ECC2A6" d="M58,89c0,0-25-0.5-25.5,19.75s48.5,13,44.25-3C73,97.75,71.25,90.25,58,89z"/>
<ellipse transform="matrix(0.9518 -0.3068 0.3068 0.9518 -74.2911 87.9463)" fill="#ECC2A6" cx="242.627" cy="280.307" rx="12.768" ry="19.331"/>
<path fill="#771F3F" d="M178,209.375c0,0-17.625,41-17.375,85.25c1.875,3.25,6.625,14.5,9.125,15.5
	c2.125-0.125,16.75-9.875,17.875-14.875c0.5-6.75-0.75-83.125-1.25-84.625C183.25,210.125,178,209.375,178,209.375z"/>
</svg>
