<?xml version="1.0" encoding="utf-8"?>
<!-- Generator: Adobe Illustrator 16.0.0, SVG Export Plug-In . SVG Version: 6.00 Build 0)  -->
<!DOCTYPE svg PUBLIC "-//W3C//DTD SVG 1.1//EN" "http://www.w3.org/Graphics/SVG/1.1/DTD/svg11.dtd">
<svg version="1.1" id="Layer_1" xmlns="http://www.w3.org/2000/svg" xmlns:xlink="http://www.w3.org/1999/xlink" x="0px" y="0px"
	 width="90.131px" height="96.546px" viewBox="51.72 32.999 90.131 96.546" enable-background="new 51.72 32.999 90.131 96.546"
	 xml:space="preserve">
<g>
	<g>
		<g>
			<path fill="none" stroke="#FEDFA3" stroke-width="2" stroke-miterlimit="10" d="M140.852,96.737L140.852,96.737
				c0,7.551-6.121,13.673-13.672,13.673H52.72V43.107h69.908"/>
			<path fill="none" stroke="#FEDFA3" stroke-width="2" stroke-miterlimit="10" d="M140.852,43.107v53.629
				c0-12.161-18.225-12.161-18.225,0V43.107C122.627,30.963,140.852,30.963,140.852,43.107z"/>
		</g>
		<g>
			
				<rect x="61.707" y="56.25" fill="none" stroke="#FEDFA3" stroke-width="2" stroke-miterlimit="10" width="51.934" height="11.26"/>
			<g>
				
					<rect x="61.707" y="77.161" fill="none" stroke="#FEDFA3" stroke-width="2" stroke-miterlimit="10" width="18.958" height="10.992"/>
				
					<rect x="94.682" y="77.161" fill="none" stroke="#FEDFA3" stroke-width="2" stroke-miterlimit="10" width="18.958" height="10.992"/>
			</g>
			<line fill="none" stroke="#FEDFA3" stroke-width="2" stroke-miterlimit="10" x1="60.098" y1="97.268" x2="115.248" y2="97.268"/>
		</g>
		<g>
			<line fill="none" stroke="#FEDFA3" stroke-width="2" stroke-miterlimit="10" x1="131.74" y1="43.107" x2="131.74" y2="47.648"/>
			<line fill="none" stroke="#FEDFA3" stroke-width="2" stroke-miterlimit="10" x1="131.74" y1="53.979" x2="131.74" y2="58.52"/>
			<line fill="none" stroke="#FEDFA3" stroke-width="2" stroke-miterlimit="10" x1="131.74" y1="64.851" x2="131.74" y2="69.391"/>
			<line fill="none" stroke="#FEDFA3" stroke-width="2" stroke-miterlimit="10" x1="131.74" y1="75.722" x2="131.74" y2="80.263"/>
		</g>
	</g>
	<g>
		<g>
			<polyline fill="none" stroke="#FEDFA3" stroke-width="2" stroke-miterlimit="10" points="74.735,118.039 131.57,118.039 
				131.57,128.076 74.74,128.076 			"/>
			<polygon fill="none" stroke="#FEDFA3" stroke-width="2" stroke-miterlimit="10" points="74.735,118.039 62,123.059 
				74.735,128.076 			"/>
		</g>
		
			<line fill="none" stroke="#FEDFA3" stroke-width="2" stroke-miterlimit="10" x1="120.506" y1="118.039" x2="120.506" y2="128.076"/>
		<line fill="none" stroke="#FEDFA3" stroke-width="2" stroke-miterlimit="10" x1="114.34" y1="118.039" x2="114.34" y2="128.076"/>
	</g>
</g>
</svg>
