<?xml version="1.0" encoding="utf-8"?>
<!-- Generator: Adobe Illustrator 16.0.0, SVG Export Plug-In . SVG Version: 6.00 Build 0)  -->
<!DOCTYPE svg PUBLIC "-//W3C//DTD SVG 1.1//EN" "http://www.w3.org/Graphics/SVG/1.1/DTD/svg11.dtd">
<svg version="1.1" id="Layer_1" xmlns="http://www.w3.org/2000/svg" xmlns:xlink="http://www.w3.org/1999/xlink" x="0px" y="0px"
	 width="96.077px" height="95.814px" viewBox="51.7 37.781 96.077 95.814" enable-background="new 51.7 37.781 96.077 95.814"
	 xml:space="preserve">
<g>
	<polyline fill="none" stroke="#FF6CFF" stroke-width="2" stroke-miterlimit="10" points="146.736,99.289 113.208,99.289 
		113.208,132.816 	"/>
	<polyline fill="none" stroke="#FF6CFF" stroke-width="2" stroke-miterlimit="10" points="113.208,38.781 113.208,72.309 
		146.736,72.309 	"/>
	<polyline fill="none" stroke="#FF6CFF" stroke-width="2" stroke-miterlimit="10" points="52.699,72.309 86.228,72.309 
		86.228,38.781 	"/>
	<polyline fill="none" stroke="#FF6CFF" stroke-width="2" stroke-miterlimit="10" points="86.228,132.816 86.228,99.289 
		52.699,99.289 	"/>
	<line fill="none" stroke="#FF6CFF" stroke-width="2" stroke-miterlimit="10" x1="99.709" y1="132.816" x2="99.709" y2="90.436"/>
	<line fill="none" stroke="#FF6CFF" stroke-width="2" stroke-miterlimit="10" x1="99.709" y1="81.162" x2="99.709" y2="38.781"/>
	<line fill="none" stroke="#FF6CFF" stroke-width="2" stroke-miterlimit="10" x1="95.081" y1="85.79" x2="52.699" y2="85.79"/>
	<line fill="none" stroke="#FF6CFF" stroke-width="2" stroke-miterlimit="10" x1="146.736" y1="85.79" x2="104.354" y2="85.79"/>
	<path fill="none" stroke="#FF6CFF" stroke-width="2" stroke-miterlimit="10" d="M104.354,85.79c0,2.579-2.065,4.646-4.646,4.646
		c-2.562,0-4.628-2.066-4.628-4.646c0-2.561,2.066-4.628,4.628-4.628C102.288,81.162,104.354,83.229,104.354,85.79z"/>
	<g>
		<polyline fill="none" stroke="#FF6CFF" stroke-width="2" stroke-miterlimit="10" points="124.225,123.314 124.225,110.258 
			137.503,110.258 		"/>
		<path fill="none" stroke="#FF6CFF" stroke-width="2" stroke-miterlimit="10" d="M142.148,114.895
			c-2.578,0-4.646-2.065-4.646-4.646c0-2.562,2.067-4.627,4.646-4.627c2.562,0,4.629,2.065,4.629,4.627
			C146.777,112.828,144.71,114.895,142.148,114.895z"/>
		<path fill="none" stroke="#FF6CFF" stroke-width="2" stroke-miterlimit="10" d="M124.232,132.588c-2.58,0-4.646-2.066-4.646-4.646
			c0-2.561,2.066-4.627,4.646-4.627c2.562,0,4.627,2.066,4.627,4.627C128.859,130.521,126.794,132.588,124.232,132.588z"/>
	</g>
	<g>
		<polyline fill="none" stroke="#FF6CFF" stroke-width="2" stroke-miterlimit="10" points="137.238,61.334 124.184,61.334 
			124.184,48.055 		"/>
		<path fill="none" stroke="#FF6CFF" stroke-width="2" stroke-miterlimit="10" d="M128.818,43.408c0,2.579-2.065,4.646-4.646,4.646
			c-2.562,0-4.628-2.067-4.628-4.646c0-2.561,2.066-4.627,4.628-4.627C126.753,38.781,128.818,40.848,128.818,43.408z"/>
		<path fill="none" stroke="#FF6CFF" stroke-width="2" stroke-miterlimit="10" d="M146.514,61.325c0,2.579-2.066,4.646-4.646,4.646
			c-2.562,0-4.628-2.066-4.628-4.646c0-2.561,2.066-4.628,4.628-4.628C144.445,56.697,146.514,58.765,146.514,61.325z"/>
	</g>
	<g>
		<polyline fill="none" stroke="#FF6CFF" stroke-width="2" stroke-miterlimit="10" points="75.253,123.32 75.253,110.264 
			61.974,110.264 		"/>
		<path fill="none" stroke="#FF6CFF" stroke-width="2" stroke-miterlimit="10" d="M57.327,114.9c2.579,0,4.646-2.066,4.646-4.646
			c0-2.563-2.067-4.628-4.646-4.628c-2.561,0-4.627,2.065-4.627,4.628C52.7,112.834,54.767,114.9,57.327,114.9z"/>
		<path fill="none" stroke="#FF6CFF" stroke-width="2" stroke-miterlimit="10" d="M75.244,132.596c2.579,0,4.646-2.068,4.646-4.646
			c0-2.561-2.066-4.629-4.646-4.629c-2.561,0-4.628,2.068-4.628,4.629C70.616,130.527,72.684,132.596,75.244,132.596z"/>
	</g>
	<g>
		<polyline fill="none" stroke="#FF6CFF" stroke-width="2" stroke-miterlimit="10" points="62.196,61.334 75.253,61.334 
			75.253,48.055 		"/>
		<path fill="none" stroke="#FF6CFF" stroke-width="2" stroke-miterlimit="10" d="M70.616,43.408c0,2.579,2.066,4.646,4.646,4.646
			c2.562,0,4.628-2.067,4.628-4.646c0-2.561-2.066-4.627-4.628-4.627C72.683,38.781,70.616,40.848,70.616,43.408z"/>
		<path fill="none" stroke="#FF6CFF" stroke-width="2" stroke-miterlimit="10" d="M52.922,61.325c0,2.579,2.067,4.646,4.646,4.646
			c2.561,0,4.628-2.066,4.628-4.646c0-2.561-2.067-4.628-4.628-4.628C54.989,56.697,52.922,58.765,52.922,61.325z"/>
	</g>
</g>
</svg>
