<?xml version="1.0" encoding="utf-8"?>
<!-- Generator: Adobe Illustrator 16.0.0, SVG Export Plug-In . SVG Version: 6.00 Build 0)  -->
<!DOCTYPE svg PUBLIC "-//W3C//DTD SVG 1.1//EN" "http://www.w3.org/Graphics/SVG/1.1/DTD/svg11.dtd">
<svg version="1.1" id="Layer_1" xmlns="http://www.w3.org/2000/svg" xmlns:xlink="http://www.w3.org/1999/xlink" x="0px" y="0px"
	 width="89.541px" height="96.078px" viewBox="54.835 37.352 89.541 96.078" enable-background="new 54.835 37.352 89.541 96.078"
	 xml:space="preserve">
<g>
	<path fill="none" stroke="#FEDFA3" stroke-width="2" stroke-miterlimit="10" d="M76.611,89.934h-5.463
		c-8.464,0-15.313-6.865-15.313-15.329c0-8.447,6.849-15.297,15.313-15.297h0.016c-0.708-10.622,8.244-20.956,20.206-20.956
		c8.676,0,16.063,5.479,18.917,13.145c7.545-3.046,16.306,0.361,19.717,7.926c7.551,0.945,13.372,7.387,13.372,15.183
		c0,8.464-6.851,15.329-15.297,15.329h-5.463"/>
	<path fill="none" stroke="#FEDFA3" stroke-width="2" stroke-miterlimit="10" d="M79.304,58.808l0.001-0.24
		c0-6.648,5.409-12.058,12.058-12.058c5.009,0,9.544,3.146,11.284,7.831"/>
	<path fill="none" stroke="#FEDFA3" stroke-width="2" stroke-miterlimit="10" d="M114.945,79.004"/>
	
		<rect x="84.7" y="108.313" fill="none" stroke="#FEDFA3" stroke-width="2" stroke-miterlimit="10" width="29.825" height="24.117"/>
	<g>
		<line fill="none" stroke="#FEDFA3" stroke-width="2" stroke-miterlimit="10" x1="91.884" y1="116.02" x2="107.342" y2="116.02"/>
		<line fill="none" stroke="#FEDFA3" stroke-width="2" stroke-miterlimit="10" x1="91.884" y1="124.73" x2="107.342" y2="124.73"/>
	</g>
	<line fill="none" stroke="#FEDFA3" stroke-width="2" stroke-miterlimit="10" x1="106.936" y1="82.466" x2="106.936" y2="89.974"/>
	<polyline fill="none" stroke="#FEDFA3" stroke-width="2" stroke-miterlimit="10" points="84.707,79.004 84.707,94.025 
		93.75,94.025 114.523,94.025 114.523,79.004 	"/>
	<path fill="none" stroke="#FEDFA3" stroke-width="2" stroke-miterlimit="10" d="M115.727,94.021"/>
	<path fill="none" stroke="#FEDFA3" stroke-width="2" stroke-miterlimit="10" d="M114.525,79.006l8.092,7.5v42.672
		c0,1.797-1.455,3.252-3.252,3.252h-4.84v-24.117H84.7v24.117h-4.827c-1.804,0-3.266-1.463-3.266-3.267V82.272
		c0-1.804,1.462-3.267,3.266-3.267L114.525,79.006L114.525,79.006z"/>
	<line fill="none" stroke="#FEDFA3" stroke-width="2" stroke-miterlimit="10" x1="93.755" y1="79.006" x2="93.755" y2="94.021"/>
</g>
</svg>
