<?xml version="1.0" encoding="utf-8"?>
<!-- Generator: Adobe Illustrator 16.0.0, SVG Export Plug-In . SVG Version: 6.00 Build 0)  -->
<!DOCTYPE svg PUBLIC "-//W3C//DTD SVG 1.1//EN" "http://www.w3.org/Graphics/SVG/1.1/DTD/svg11.dtd">
<svg version="1.1" id="Layer_1" xmlns="http://www.w3.org/2000/svg" xmlns:xlink="http://www.w3.org/1999/xlink" x="0px" y="0px"
	 width="96.078px" height="96.077px" viewBox="38.513 34.745 96.078 96.077" enable-background="new 38.513 34.745 96.078 96.077"
	 xml:space="preserve">
<g>
	<g>
		<line fill="none" stroke="#FF6CFF" stroke-width="2" stroke-miterlimit="10" x1="86.5" y1="120.707" x2="86.5" y2="111.188"/>
		<line fill="none" stroke="#FF6CFF" stroke-width="2" stroke-miterlimit="10" x1="86.5" y1="54.38" x2="86.5" y2="45.205"/>
		<g>
			<polyline fill="none" stroke="#FF6CFF" stroke-width="2" stroke-miterlimit="10" points="95.51,109.715 95.51,120.707 
				105.09,120.707 			"/>
			<polyline fill="none" stroke="#FF6CFF" stroke-width="2" stroke-miterlimit="10" points="95.51,55.852 95.51,45.205 
				105.09,45.205 			"/>
		</g>
		<g>
			<polyline fill="none" stroke="#FF6CFF" stroke-width="2" stroke-miterlimit="10" points="77.58,109.745 77.58,120.707 
				68.015,120.707 			"/>
			<polyline fill="none" stroke="#FF6CFF" stroke-width="2" stroke-miterlimit="10" points="68.015,45.205 77.58,45.205 
				77.58,55.822 			"/>
		</g>
	</g>
	<line fill="none" stroke="#FF6CFF" stroke-width="2" stroke-miterlimit="10" x1="58.089" y1="82.731" x2="48.629" y2="82.731"/>
	<line fill="none" stroke="#FF6CFF" stroke-width="2" stroke-miterlimit="10" x1="124.131" y1="82.731" x2="114.911" y2="82.731"/>
	<g>
		<polyline fill="none" stroke="#FF6CFF" stroke-width="2" stroke-miterlimit="10" points="48.629,101.32 48.629,91.741 
			59.546,91.741 		"/>
		<polyline fill="none" stroke="#FF6CFF" stroke-width="2" stroke-miterlimit="10" points="113.454,91.741 124.131,91.741 
			124.131,101.32 		"/>
	</g>
	<g>
		<polyline fill="none" stroke="#FF6CFF" stroke-width="2" stroke-miterlimit="10" points="48.629,64.23 48.629,73.811 
			59.561,73.811 		"/>
		<polyline fill="none" stroke="#FF6CFF" stroke-width="2" stroke-miterlimit="10" points="124.131,64.23 124.131,73.811 
			113.439,73.811 		"/>
	</g>
	<path fill="none" stroke="#FF6CFF" stroke-width="2" stroke-miterlimit="10" d="M68.015,120.707c0,2.508-2.042,4.551-4.564,4.551
		c-2.523,0-4.565-2.043-4.565-4.551c0-2.521,2.042-4.564,4.565-4.564C65.973,116.143,68.015,118.186,68.015,120.707z"/>
	<circle fill="none" stroke="#FF6CFF" stroke-width="2" stroke-miterlimit="10" cx="48.628" cy="105.887" r="4.565"/>
	<path fill="none" stroke="#FF6CFF" stroke-width="2" stroke-miterlimit="10" d="M53.193,59.681c0,2.508-2.042,4.55-4.564,4.55
		s-4.565-2.042-4.565-4.55c0-2.522,2.043-4.565,4.565-4.565S53.193,57.158,53.193,59.681z"/>
	<circle fill="none" stroke="#FF6CFF" stroke-width="2" stroke-miterlimit="10" cx="63.45" cy="45.205" r="4.565"/>
	<path fill="none" stroke="#FF6CFF" stroke-width="2" stroke-miterlimit="10" d="M44.063,87.296c-2.508,0-4.55-2.042-4.55-4.565
		c0-2.508,2.042-4.55,4.55-4.55c2.523,0,4.565,2.042,4.565,4.55C48.629,85.253,46.587,87.296,44.063,87.296z"/>
	<circle fill="none" stroke="#FF6CFF" stroke-width="2" stroke-miterlimit="10" cx="109.654" cy="45.205" r="4.565"/>
	<path fill="none" stroke="#FF6CFF" stroke-width="2" stroke-miterlimit="10" d="M114.911,82.731v0.045
		c0,15.691-12.731,28.412-28.411,28.412c-15.689,0-28.411-12.761-28.411-28.412v-0.045c0-15.292,12.473-28.351,28.411-28.351
		C102.357,54.38,114.911,67.345,114.911,82.731z"/>
	<path fill="none" stroke="#FF6CFF" stroke-width="2" stroke-miterlimit="10" d="M91.064,125.258c0,2.521-2.042,4.564-4.564,4.564
		c-2.508,0-4.55-2.043-4.55-4.564c0-2.508,2.042-4.551,4.55-4.551C89.022,120.707,91.064,122.75,91.064,125.258z"/>
	<path fill="none" stroke="#FF6CFF" stroke-width="2" stroke-miterlimit="10" d="M128.682,105.887c0,2.521-2.043,4.564-4.551,4.564
		c-2.521,0-4.564-2.043-4.564-4.564c0-2.522,2.043-4.564,4.564-4.564C126.639,101.32,128.682,103.363,128.682,105.887z"/>
	<path fill="none" stroke="#FF6CFF" stroke-width="2" stroke-miterlimit="10" d="M81.95,40.295c0-2.508,2.042-4.55,4.55-4.55
		c2.522,0,4.564,2.042,4.564,4.55c0,2.522-2.042,4.565-4.564,4.565C83.992,44.86,81.95,42.817,81.95,40.295z"/>
	<path fill="none" stroke="#FF6CFF" stroke-width="2" stroke-miterlimit="10" d="M133.591,82.731c0,2.522-2.042,4.565-4.563,4.565
		c-2.508,0-4.551-2.042-4.551-4.565c0-2.508,2.043-4.55,4.551-4.55C131.549,78.181,133.591,80.223,133.591,82.731z"/>
	<path fill="none" stroke="#FF6CFF" stroke-width="2" stroke-miterlimit="10" d="M119.564,59.681c0-2.522,2.043-4.565,4.565-4.565
		c2.509,0,4.55,2.042,4.55,4.565c0,2.508-2.041,4.55-4.55,4.55C121.607,64.23,119.564,62.188,119.564,59.681z"/>
	<path fill="none" stroke="#FF6CFF" stroke-width="2" stroke-miterlimit="10" d="M114.221,120.707c0,2.508-2.043,4.551-4.564,4.551
		c-2.522,0-4.565-2.043-4.565-4.551c0-2.521,2.043-4.564,4.565-4.564C112.178,116.143,114.221,118.186,114.221,120.707z"/>
	<g>
		<path fill="none" stroke="#FF6CFF" stroke-width="2" stroke-miterlimit="10" d="M91.516,101.598H81.484c-4.971,0-9-4.03-9-9
			V80.612c0-1.381,1.119-2.5,2.5-2.5h23.031c1.38,0,2.5,1.119,2.5,2.5v11.985C100.516,97.567,96.485,101.598,91.516,101.598z"/>
		<path fill="none" stroke="#FF6CFF" stroke-width="2" stroke-miterlimit="10" d="M96.518,78.112H76.481v-7.54
			c0-3.646,2.956-6.602,6.603-6.602h6.832c3.646,0,6.602,2.956,6.602,6.602V78.112z"/>
		<g>
			<path fill="none" stroke="#FF6CFF" stroke-width="2" stroke-miterlimit="10" d="M90.237,86.362
				c0.392,2.557-1.779,4.728-4.336,4.336c-1.593-0.244-2.895-1.546-3.139-3.14c-0.392-2.556,1.778-4.726,4.335-4.335
				C88.69,83.467,89.993,84.769,90.237,86.362z"/>
			<line fill="none" stroke="#FF6CFF" stroke-width="2" stroke-miterlimit="10" x1="86.5" y1="90.744" x2="86.5" y2="96.531"/>
		</g>
	</g>
</g>
</svg>
