<?xml version="1.0" encoding="utf-8"?>
<!-- Generator: Adobe Illustrator 16.0.0, SVG Export Plug-In . SVG Version: 6.00 Build 0)  -->
<!DOCTYPE svg PUBLIC "-//W3C//DTD SVG 1.1//EN" "http://www.w3.org/Graphics/SVG/1.1/DTD/svg11.dtd">
<svg version="1.1" id="Layer_1" xmlns="http://www.w3.org/2000/svg" xmlns:xlink="http://www.w3.org/1999/xlink" x="0px" y="0px"
	 width="78.626px" height="96.077px" viewBox="53.115 31.999 78.626 96.077" enable-background="new 53.115 31.999 78.626 96.077"
	 xml:space="preserve">
<g>
	<g>
		<g>
			
				<rect x="78.159" y="68.816" fill="none" stroke="#12054E" stroke-width="2" stroke-miterlimit="10" width="28.547" height="58.26"/>
			<g>
				
					<line fill="none" stroke="#12054E" stroke-width="2" stroke-miterlimit="10" x1="93.247" y1="77.336" x2="101.197" y2="77.336"/>
				<line fill="none" stroke="#12054E" stroke-width="2" stroke-miterlimit="10" x1="83.668" y1="94.17" x2="101.197" y2="94.17"/>
				
					<line fill="none" stroke="#12054E" stroke-width="2" stroke-miterlimit="10" x1="83.668" y1="86.567" x2="101.197" y2="86.567"/>
				
					<line fill="none" stroke="#12054E" stroke-width="2" stroke-miterlimit="10" x1="83.668" y1="101.771" x2="101.197" y2="101.771"/>
				
					<ellipse fill="none" stroke="#12054E" stroke-width="2" stroke-miterlimit="10" cx="92.433" cy="114.805" rx="4.962" ry="5.381"/>
			</g>
		</g>
		<g>
			<polyline fill="none" stroke="#12054E" stroke-width="2" stroke-miterlimit="10" points="106.701,123.887 130.741,123.887 
				130.741,77.671 106.701,77.671 			"/>
			<g>
				
					<line fill="none" stroke="#12054E" stroke-width="2" stroke-miterlimit="10" x1="118.789" y1="85.521" x2="125.236" y2="85.521"/>
				
					<line fill="none" stroke="#12054E" stroke-width="2" stroke-miterlimit="10" x1="110.713" y1="93.535" x2="125.236" y2="93.535"/>
				
					<line fill="none" stroke="#12054E" stroke-width="2" stroke-miterlimit="10" x1="110.713" y1="100.546" x2="125.236" y2="100.546"/>
				<path fill="none" stroke="#12054E" stroke-width="2" stroke-miterlimit="10" d="M122.877,111.782
					c0.514,3.353-2.333,6.198-5.686,5.687c-2.09-0.32-3.799-2.027-4.118-4.117c-0.515-3.354,2.333-6.201,5.687-5.688
					C120.85,107.984,122.557,109.691,122.877,111.782z"/>
			</g>
		</g>
		<g>
			<polyline fill="none" stroke="#12054E" stroke-width="2" stroke-miterlimit="10" points="78.154,123.887 54.115,123.887 
				54.115,77.671 78.154,77.671 			"/>
			<g>
				<line fill="none" stroke="#12054E" stroke-width="2" stroke-miterlimit="10" x1="67.705" y1="85.521" x2="74.153" y2="85.521"/>
				<line fill="none" stroke="#12054E" stroke-width="2" stroke-miterlimit="10" x1="59.628" y1="93.535" x2="74.153" y2="93.535"/>
				
					<line fill="none" stroke="#12054E" stroke-width="2" stroke-miterlimit="10" x1="59.628" y1="100.546" x2="74.153" y2="100.546"/>
				<path fill="none" stroke="#12054E" stroke-width="2" stroke-miterlimit="10" d="M71.792,111.782
					c0.513,3.353-2.333,6.198-5.686,5.687c-2.09-0.32-3.797-2.027-4.118-4.117c-0.514-3.354,2.333-6.201,5.687-5.688
					C69.765,107.984,71.473,109.691,71.792,111.782z"/>
			</g>
		</g>
	</g>
	
		<rect x="81.125" y="32.999" fill="none" stroke="#12054E" stroke-width="2" stroke-miterlimit="10" width="24.075" height="13.722"/>
	<polyline fill="none" stroke="#12054E" stroke-width="2" stroke-miterlimit="10" points="93.162,46.721 93.162,57.78 
		118.789,57.78 118.789,77.671 	"/>
	<polyline fill="none" stroke="#12054E" stroke-width="2" stroke-miterlimit="10" points="67.705,77.671 67.705,57.78 93.162,57.78 
		93.162,68.816 	"/>
	<line fill="none" stroke="#12054E" stroke-width="2" stroke-miterlimit="10" x1="87.012" y1="39.86" x2="99.311" y2="39.86"/>
</g>
</svg>
