<?xml version="1.0" encoding="utf-8"?>
<!-- Generator: Adobe Illustrator 16.0.0, SVG Export Plug-In . SVG Version: 6.00 Build 0)  -->
<!DOCTYPE svg PUBLIC "-//W3C//DTD SVG 1.1//EN" "http://www.w3.org/Graphics/SVG/1.1/DTD/svg11.dtd">
<svg version="1.1" id="Layer_1" xmlns="http://www.w3.org/2000/svg" xmlns:xlink="http://www.w3.org/1999/xlink" x="0px" y="0px"
	 width="92.985px" height="97.492px" viewBox="53.339 50.596 92.985 97.492" enable-background="new 53.339 50.596 92.985 97.492"
	 xml:space="preserve">
<g>
	<polygon fill="none" stroke="#12054E" stroke-width="2" stroke-miterlimit="10" points="124.02,53.01 124.02,147.088 
		55.753,147.088 55.753,72.356 75.1,53.01 	"/>
	<line fill="none" stroke="#12054E" stroke-width="2" stroke-miterlimit="10" x1="84.225" y1="68.782" x2="113.264" y2="68.782"/>
	<rect x="66.518" y="78.85" fill="none" stroke="#12054E" stroke-width="2" stroke-miterlimit="10" width="7.306" height="7.306"/>
	<line fill="none" stroke="#12054E" stroke-width="2" stroke-miterlimit="10" x1="93.864" y1="82.503" x2="113.264" y2="82.503"/>
	
		<rect x="66.518" y="116.977" fill="none" stroke="#12054E" stroke-width="2" stroke-miterlimit="10" width="7.306" height="7.307"/>
	<line fill="none" stroke="#12054E" stroke-width="2" stroke-miterlimit="10" x1="84.225" y1="120.629" x2="103.624" y2="120.629"/>
	
		<rect x="66.518" y="130.697" fill="none" stroke="#12054E" stroke-width="2" stroke-miterlimit="10" width="7.306" height="7.305"/>
	<line fill="none" stroke="#12054E" stroke-width="2" stroke-miterlimit="10" x1="84.225" y1="134.35" x2="103.624" y2="134.35"/>
	
		<rect x="66.518" y="103.256" fill="none" stroke="#12054E" stroke-width="2" stroke-miterlimit="10" width="7.306" height="7.307"/>
	<line fill="none" stroke="#12054E" stroke-width="2" stroke-miterlimit="10" x1="84.225" y1="106.908" x2="113.264" y2="106.908"/>
	<line fill="none" stroke="#12054E" stroke-width="2" stroke-miterlimit="10" x1="65.426" y1="93.188" x2="113.539" y2="93.188"/>
	<polygon fill="none" stroke="#12054E" stroke-width="2" stroke-miterlimit="10" points="139.938,123.441 135.572,133.844 
		131.207,123.441 131.207,71.083 139.938,71.083 	"/>
	<rect x="132.415" y="66.253" fill="none" stroke="#12054E" stroke-width="2" stroke-miterlimit="10" width="6.315" height="4.83"/>
	<polyline fill="none" stroke="#12054E" stroke-width="2" stroke-miterlimit="10" points="131.207,76.841 145.324,76.841 
		145.324,93 	"/>
	<polygon fill="none" stroke="#12054E" stroke-width="2" stroke-miterlimit="10" points="75.1,53.01 75.1,72.356 55.753,72.356 	"/>
</g>
</svg>
