<?xml version="1.0" encoding="utf-8"?>
<!-- Generator: Adobe Illustrator 16.0.0, SVG Export Plug-In . SVG Version: 6.00 Build 0)  -->
<!DOCTYPE svg PUBLIC "-//W3C//DTD SVG 1.1//EN" "http://www.w3.org/Graphics/SVG/1.1/DTD/svg11.dtd">
<svg version="1.1" id="Layer_1" xmlns="http://www.w3.org/2000/svg" xmlns:xlink="http://www.w3.org/1999/xlink" x="0px" y="0px"
	 width="94.033px" height="94.084px" viewBox="52.589 34.181 94.033 94.084" enable-background="new 52.589 34.181 94.033 94.084"
	 xml:space="preserve">
<g>
	<path fill="none" stroke="#FEDFA3" stroke-width="2" stroke-miterlimit="10" d="M126.807,47.9H72.45
		c-3.39,0-6.134,2.744-6.134,6.157v54.332c0,3.391,2.744,6.157,6.134,6.157h54.354c3.391,0,6.135-2.767,6.135-6.157V54.058
		C132.939,50.645,130.195,47.9,126.807,47.9z M123.716,95.684V57.125H75.541v48.198h38.536"/>
	<polyline fill="none" stroke="#FEDFA3" stroke-width="2" stroke-miterlimit="10" points="123.716,95.684 123.716,57.125 
		75.541,57.125 75.541,105.323 114.076,105.323 	"/>
	<polyline fill="none" stroke="#FEDFA3" stroke-width="2" stroke-miterlimit="10" points="123.716,95.684 123.716,57.125 
		75.541,57.125 75.541,105.323 114.076,105.323 	"/>
	<polyline fill="none" stroke="#FEDFA3" stroke-width="2" stroke-miterlimit="10" points="122.4,114.54 122.4,120.637 
		125.57,121.508 125.57,128.258 	"/>
	<polyline fill="none" stroke="#FEDFA3" stroke-width="2" stroke-miterlimit="10" points="110.221,114.54 110.221,120.637 
		113.393,121.508 113.393,128.258 	"/>
	<polyline fill="none" stroke="#FEDFA3" stroke-width="2" stroke-miterlimit="10" points="89.035,114.54 89.035,120.637 
		85.864,121.508 85.864,128.258 	"/>
	<polyline fill="none" stroke="#FEDFA3" stroke-width="2" stroke-miterlimit="10" points="76.856,114.54 76.856,120.637 
		73.685,121.508 73.685,128.258 	"/>
	<line fill="none" stroke="#FEDFA3" stroke-width="2" stroke-miterlimit="10" x1="99.624" y1="128.266" x2="99.624" y2="114.548"/>
	<polyline fill="none" stroke="#FEDFA3" stroke-width="2" stroke-miterlimit="10" points="76.856,47.9 76.856,41.803 73.685,39.625 
		73.685,34.181 	"/>
	<polyline fill="none" stroke="#FEDFA3" stroke-width="2" stroke-miterlimit="10" points="89.035,47.9 89.035,41.803 85.864,39.625 
		85.864,34.181 	"/>
	<polyline fill="none" stroke="#FEDFA3" stroke-width="2" stroke-miterlimit="10" points="110.221,47.9 110.221,41.803 
		113.393,39.625 113.393,34.182 	"/>
	<polyline fill="none" stroke="#FEDFA3" stroke-width="2" stroke-miterlimit="10" points="122.4,47.9 122.4,41.803 125.57,39.625 
		125.57,34.182 	"/>
	<line fill="none" stroke="#FEDFA3" stroke-width="2" stroke-miterlimit="10" x1="99.628" y1="34.182" x2="99.628" y2="47.9"/>
	<polyline fill="none" stroke="#FEDFA3" stroke-width="2" stroke-miterlimit="10" points="132.902,58.448 139,58.448 
		141.178,55.277 146.622,55.277 	"/>
	<polyline fill="none" stroke="#FEDFA3" stroke-width="2" stroke-miterlimit="10" points="132.902,70.627 139,70.627 
		141.178,67.456 146.622,67.456 	"/>
	<polyline fill="none" stroke="#FEDFA3" stroke-width="2" stroke-miterlimit="10" points="132.902,91.813 139,91.813 
		141.178,94.984 146.622,94.984 	"/>
	<polyline fill="none" stroke="#FEDFA3" stroke-width="2" stroke-miterlimit="10" points="132.902,103.992 139,103.992 
		141.178,107.163 146.622,107.163 	"/>
	<line fill="none" stroke="#FEDFA3" stroke-width="2" stroke-miterlimit="10" x1="146.622" y1="81.22" x2="132.902" y2="81.22"/>
	<polyline fill="none" stroke="#FEDFA3" stroke-width="2" stroke-miterlimit="10" points="66.308,103.992 60.211,103.991 
		58.033,107.162 52.589,107.162 	"/>
	<polyline fill="none" stroke="#FEDFA3" stroke-width="2" stroke-miterlimit="10" points="66.308,91.813 60.211,91.813 
		58.033,94.984 52.589,94.984 	"/>
	<polyline fill="none" stroke="#FEDFA3" stroke-width="2" stroke-miterlimit="10" points="66.308,70.627 60.211,70.627 
		58.033,67.456 52.589,67.456 	"/>
	<polyline fill="none" stroke="#FEDFA3" stroke-width="2" stroke-miterlimit="10" points="66.308,58.448 60.211,58.448 
		58.033,55.277 52.589,55.277 	"/>
	<line fill="none" stroke="#FEDFA3" stroke-width="2" stroke-miterlimit="10" x1="52.589" y1="81.22" x2="66.308" y2="81.22"/>
	<path fill="none" stroke="#FEDFA3" stroke-width="2" stroke-miterlimit="10" d="M114.076,105.323
		c0.461-5.097,4.543-9.155,9.64-9.64"/>
	<path fill="none" stroke="#FEDFA3" stroke-width="2" stroke-miterlimit="10" d="M132.939,99.512v4.474v4.404
		c0,3.391-2.744,6.156-6.135,6.156H122.4h-4.474"/>
	<g>
		<path fill="none" stroke="#FEDFA3" stroke-width="2" stroke-miterlimit="10" d="M112.277,86.036l3.957,3.128l-5.047,6.376
			l-3.957-3.128c-0.656,0.449-1.349,0.83-2.057,1.141l0.588,5.028l-8.07,0.933l-0.587-4.993c-0.795-0.139-1.555-0.363-2.298-0.64
			l-3.11,3.939l-6.376-5.028l3.11-3.939c-0.449-0.674-0.829-1.348-1.141-2.091l-5.011,0.588c-0.019-0.155-1.012-8.594-0.95-8.07
			l5.011-0.587c0.156-0.761,0.363-1.521,0.639-2.281c-0.159-0.125-4.212-3.329-3.957-3.128l5.046-6.376l3.957,3.128
			c0.657-0.449,1.331-0.847,2.056-1.141l-0.587-5.028l8.07-0.933l0.586,4.993c0.795,0.139,1.557,0.363,2.3,0.64l3.11-3.939
			l6.375,5.028l-3.109,3.957c0.433,0.64,0.813,1.313,1.123,2.004c0.018,0.018,0.018,0.052,0.033,0.069
			c0.154-0.018,5.336-0.625,5.013-0.588c0.019,0.155,0.994,8.594,0.935,8.07l-5.013,0.587
			C112.842,84.202,112.609,85.146,112.277,86.036z"/>
		<path fill="none" stroke="#FEDFA3" stroke-width="2" stroke-miterlimit="10" d="M106.863,79.78
			c0.986,5.194-3.484,9.664-8.679,8.68c-2.902-0.55-5.243-2.891-5.793-5.793c-0.984-5.194,3.485-9.664,8.679-8.68
			C103.975,74.538,106.314,76.878,106.863,79.78z"/>
	</g>
</g>
</svg>
