<?xml version="1.0" encoding="utf-8"?>
<!-- Generator: Adobe Illustrator 16.0.0, SVG Export Plug-In . SVG Version: 6.00 Build 0)  -->
<!DOCTYPE svg PUBLIC "-//W3C//DTD SVG 1.1//EN" "http://www.w3.org/Graphics/SVG/1.1/DTD/svg11.dtd">
<svg version="1.1" id="Layer_1" xmlns="http://www.w3.org/2000/svg" xmlns:xlink="http://www.w3.org/1999/xlink" x="0px" y="0px"
	 width="91.18px" height="96.078px" viewBox="46.106 32.71 91.18 96.078" enable-background="new 46.106 32.71 91.18 96.078"
	 xml:space="preserve">
<g>
	<g>
		<path fill="none" stroke="#25DDF0" stroke-width="2" stroke-miterlimit="10" d="M108.536,81.68H49.178
			c-1.145,0-2.072-0.928-2.072-2.073V35.783c0-1.145,0.928-2.073,2.072-2.073h59.358c1.146,0,2.073,0.929,2.073,2.073v43.823
			C110.609,80.752,109.682,81.68,108.536,81.68z"/>
		<line fill="none" stroke="#25DDF0" stroke-width="2" stroke-miterlimit="10" x1="47.105" y1="72.853" x2="110.609" y2="72.853"/>
		
			<rect x="52.958" y="39.563" fill="none" stroke="#25DDF0" stroke-width="2" stroke-miterlimit="10" width="51.799" height="33.289"/>
		<line fill="none" stroke="#25DDF0" stroke-width="2" stroke-miterlimit="10" x1="85.472" y1="81.68" x2="85.472" y2="88.808"/>
		<line fill="none" stroke="#25DDF0" stroke-width="2" stroke-miterlimit="10" x1="72.243" y1="88.808" x2="72.243" y2="81.68"/>
		<path fill="none" stroke="#25DDF0" stroke-width="2" stroke-miterlimit="10" d="M94.98,94.971H62.734v-3.68
			c0-1.371,1.111-2.483,2.483-2.483h27.278c1.372,0,2.484,1.112,2.484,2.483L94.98,94.971L94.98,94.971z"/>
		<line fill="none" stroke="#25DDF0" stroke-width="2" stroke-miterlimit="10" x1="52.958" y1="46.526" x2="104.757" y2="46.526"/>
		<g>
			<polyline fill="none" stroke="#25DDF0" stroke-width="2" stroke-miterlimit="10" points="67.169,66.149 62.582,59.689 
				67.169,53.229 			"/>
			<polyline fill="none" stroke="#25DDF0" stroke-width="2" stroke-miterlimit="10" points="90.545,66.149 95.132,59.689 
				90.545,53.229 			"/>
			<g>
				<line fill="none" stroke="#25DDF0" stroke-width="2" stroke-miterlimit="10" x1="71.938" y1="65.125" x2="76.632" y2="65.125"/>
				<line fill="none" stroke="#25DDF0" stroke-width="2" stroke-miterlimit="10" x1="81.083" y1="65.125" x2="85.777" y2="65.125"/>
			</g>
		</g>
	</g>
	
		<rect x="80.892" y="101.887" fill="none" stroke="#25DDF0" stroke-width="2" stroke-miterlimit="10" width="55.394" height="25.901"/>
	<g>
		<g>
			
				<line fill="none" stroke="#25DDF0" stroke-width="2" stroke-miterlimit="10" x1="87.896" y1="107.749" x2="94.936" y2="107.749"/>
			
				<line fill="none" stroke="#25DDF0" stroke-width="2" stroke-miterlimit="10" x1="105.068" y1="107.749" x2="112.109" y2="107.749"/>
			
				<line fill="none" stroke="#25DDF0" stroke-width="2" stroke-miterlimit="10" x1="122.241" y1="107.749" x2="129.282" y2="107.749"/>
		</g>
		<g>
			
				<line fill="none" stroke="#25DDF0" stroke-width="2" stroke-miterlimit="10" x1="87.896" y1="114.837" x2="94.936" y2="114.837"/>
			
				<line fill="none" stroke="#25DDF0" stroke-width="2" stroke-miterlimit="10" x1="105.068" y1="114.837" x2="112.109" y2="114.837"/>
			
				<line fill="none" stroke="#25DDF0" stroke-width="2" stroke-miterlimit="10" x1="122.241" y1="114.837" x2="129.282" y2="114.837"/>
		</g>
		<g>
			
				<line fill="none" stroke="#25DDF0" stroke-width="2" stroke-miterlimit="10" x1="87.896" y1="121.925" x2="94.936" y2="121.925"/>
			
				<line fill="none" stroke="#25DDF0" stroke-width="2" stroke-miterlimit="10" x1="105.068" y1="121.925" x2="112.109" y2="121.925"/>
			
				<line fill="none" stroke="#25DDF0" stroke-width="2" stroke-miterlimit="10" x1="122.241" y1="121.925" x2="129.282" y2="121.925"/>
		</g>
	</g>
	<path fill="none" stroke="#25DDF0" stroke-width="2" stroke-miterlimit="10" d="M108.589,101.887c0,0,5.435-6.03,0-10.104
		c-4.942-3.705-11.957-2.976-6.729-10.104"/>
</g>
</svg>
